<svg width="227" height="89" viewBox="0 0 227 89" fill="none" xmlns="http://www.w3.org/2000/svg">
<g clip-path="url(#clip0_2807_14627)">
<g clip-path="url(#clip1_2807_14627)">
<path d="M226.955 50.4433C223.414 54.3095 219.193 54.4914 214.609 52.763C213.928 52.4901 212.521 52.3991 213.384 51.0346C213.928 50.1704 214.11 48.5785 215.88 49.6246C217.06 50.3069 218.422 50.4888 219.829 50.3978C220.873 50.3069 222.098 50.2614 222.371 48.9878C222.643 47.6233 221.327 47.3049 220.419 46.941C219.602 46.6227 218.694 46.4862 217.832 46.2588C213.974 45.1672 212.658 43.6662 213.021 40.8462C213.384 38.1171 215.835 36.1613 219.148 35.9339C221.19 35.7974 223.233 36.0704 225.094 36.8891C225.548 37.071 226.818 37.071 226.274 38.0262C225.729 38.8904 225.684 40.6642 223.914 40.073C222.597 39.6636 221.281 39.4816 219.92 39.4362C218.83 39.3907 217.786 39.6636 217.559 40.7097C217.333 41.7559 218.422 42.1652 219.284 42.4836C220.51 42.893 221.69 43.3478 222.915 43.5752C224.731 43.9391 225.638 45.4401 227 46.3498C226.955 47.7143 226.955 49.0788 226.955 50.4433Z" fill="white"/>
<path d="M138.585 37.7093C141.807 35.3441 145.075 35.0257 148.252 37.7548C149.115 38.4825 149.387 37.8912 149.886 37.4818C152.156 35.708 154.697 35.4805 157.33 36.2993C160.144 37.1635 161.778 39.1648 161.868 42.3032C162.005 45.5325 161.868 48.8074 161.914 52.0368C161.959 54.4019 160.189 53.2648 159.145 53.4923C158.011 53.7197 157.33 53.4468 157.375 51.9913C157.466 49.2622 157.42 46.5332 157.42 43.8041C157.375 41.2115 155.968 39.6196 153.744 39.5286C151.52 39.4832 150.159 41.0296 150.159 43.7587C150.113 46.3058 149.932 48.8984 150.204 51.4455C150.385 53.5377 149.342 53.4468 147.889 53.5377C146.164 53.6287 145.484 53.2194 145.62 51.3545C145.801 48.8529 145.665 46.3513 145.665 43.8496C145.62 41.1206 144.349 39.5741 142.125 39.5286C139.765 39.4832 138.449 41.0296 138.403 43.8951C138.403 46.6242 138.312 49.3532 138.449 52.0823C138.539 54.1745 137.087 53.4468 136.179 53.4468C135.226 53.4468 133.819 54.129 133.864 52.0823C133.955 47.4884 133.864 42.849 133.91 38.2096C133.91 37.5273 133.184 36.0718 134.818 36.2538C136.134 36.4812 138.131 35.1622 138.585 37.7093Z" fill="white"/>
<path d="M165.228 44.7594C165.228 42.5762 165.182 40.3474 165.273 38.1642C165.319 37.5274 164.683 36.2994 165.863 36.3903C167.134 36.4813 168.813 35.2987 169.63 37.0271C169.994 37.8458 170.084 37.6639 170.629 37.3C173.761 35.2077 176.847 35.2987 179.706 37.8003C180.569 38.5736 180.886 37.7548 181.34 37.391C183.882 35.5261 186.605 35.4352 189.465 36.5723C192.188 37.6639 193.277 39.8471 193.323 42.6216C193.368 45.7146 193.232 48.8075 193.368 51.9004C193.459 54.2656 191.779 53.3104 190.69 53.4923C189.51 53.6743 188.738 53.4923 188.784 51.9004C188.92 49.1714 188.875 46.4423 188.829 43.7133C188.784 41.1207 187.286 39.5287 185.062 39.5287C182.929 39.5287 181.613 41.0752 181.567 43.6223C181.522 46.3513 181.431 49.0804 181.613 51.7639C181.749 53.7652 180.569 53.4923 179.389 53.4923C178.163 53.4923 176.847 53.8562 176.983 51.673C177.21 49.0349 177.074 46.3968 177.029 43.7133C176.983 41.0297 175.576 39.4832 173.398 39.4832C171.083 39.5287 169.812 41.0297 169.812 43.7133C169.812 46.4423 169.676 49.1714 169.857 51.9004C169.948 53.8562 168.723 53.4923 167.679 53.4014C166.68 53.3559 165.137 54.1291 165.273 51.9004C165.319 49.5807 165.228 47.1701 165.228 44.7594Z" fill="white"/>
<path d="M102.321 29.0668C105.044 28.9758 107.813 29.8855 110.218 31.7048C110.808 32.1597 111.943 32.7055 110.854 33.5697C109.991 34.2519 109.583 36.2532 107.722 34.8887C103.818 32.0687 99.5067 32.1142 96.3749 34.8887C93.0617 37.8452 92.9709 44.122 96.148 47.3514C99.2797 50.4898 105.089 50.4898 108.085 47.124C109.991 44.9407 110.536 47.4423 111.489 47.9882C112.941 48.7614 111.58 49.4891 111.035 50.0349C106.088 55.0382 96.148 54.5379 91.5639 49.0798C87.2975 43.9855 88.4322 35.3436 93.8786 31.341C95.8757 29.8855 98.8259 29.0668 102.321 29.0668Z" fill="white"/>
<path d="M79.8088 33.2063C77.0401 33.2063 74.9523 33.1153 72.8645 33.2517C71.0944 33.3882 71.4575 32.2511 71.3667 31.2504C71.2759 30.1133 71.4575 29.4311 72.9099 29.4766C76.4501 29.5675 79.9903 29.4766 83.5759 29.522C84.3475 29.522 85.4822 29.0217 85.7545 29.9314C86.0722 31.023 86.1176 32.3421 85.0283 33.2972C83.2128 34.8892 81.3973 36.4811 79.6726 38.164C80.4896 39.2102 81.1704 38.9827 81.715 39.1192C84.5744 39.8924 86.5261 41.6663 87.0254 44.6228C87.57 47.6247 86.4807 50.1263 83.9844 51.9457C80.8981 54.1744 74.8162 54.0835 71.5029 52.0367C69.642 50.8996 71.2759 50.0809 71.5029 49.0802C71.8206 47.7157 72.5922 48.2615 73.3184 48.7163C75.1339 49.8989 77.1763 49.8989 79.1733 49.4896C80.8981 49.1257 82.1689 48.1705 82.2597 46.1237C82.3051 44.1224 81.3066 43.1218 79.4911 42.576C78.2202 42.1666 76.9948 42.1666 75.7239 42.5305C74.8615 42.8034 74.2261 42.9399 73.6361 41.9392C73.0461 40.9386 73.3638 40.3473 74.09 39.6195C75.8601 37.7547 77.5394 35.7534 79.8088 33.2063Z" fill="white"/>
<path d="M122.064 53.7656C116.391 53.8111 112.578 50.3088 112.533 44.8962C112.487 39.6656 116.3 35.9359 121.746 35.8904C127.556 35.7994 131.505 39.3472 131.595 44.7143C131.686 50.2179 128.01 53.6747 122.064 53.7656ZM122.064 50.0359C125.014 50.0359 127.011 47.8982 126.966 44.7598C126.92 41.8488 124.833 39.5746 122.064 39.5746C119.295 39.5746 117.253 41.7123 117.208 44.7143C117.162 47.8982 119.114 49.9905 122.064 50.0359Z" fill="white"/>
<path d="M206.258 51.5364C204.351 52.9919 202.581 53.947 200.312 53.7651C197.089 53.4922 194.956 51.7638 194.729 48.8983C194.502 46.1693 196.409 43.8951 199.495 43.2583C201.174 42.8944 202.899 42.8944 204.624 43.1218C205.077 43.1673 205.758 43.5312 206.076 42.8944C206.303 42.3486 206.121 41.7573 205.804 41.166C204.805 39.3921 202.263 38.8918 199.495 39.8015C198.859 39.9834 198.224 40.9386 197.498 40.1653C196.953 39.5741 196.136 39.0282 196.227 38.1641C196.318 37.4363 197.135 37.2089 197.77 36.9815C199.813 36.0718 201.946 35.7534 204.17 35.9808C208.391 36.3902 210.706 38.8918 210.751 43.0763C210.751 45.8054 210.796 48.489 210.66 51.218C210.615 52.0367 211.523 53.6286 209.571 53.5377C208.209 53.4467 206.167 54.4928 206.258 51.5364ZM203.625 45.9418C201.038 45.8509 199.313 46.897 199.359 48.4435C199.449 50.1719 200.72 50.6722 202.127 50.7177C203.988 50.8086 206.212 48.8073 206.031 47.1244C205.894 45.4415 204.351 46.2602 203.625 45.9418Z" fill="white"/>
<path d="M61.3359 16.832C61.3359 14.9671 60.9274 14.4668 59.0211 14.4668C39.3684 14.5578 19.6703 14.5123 0.0175781 14.5123C0.0175781 34.5253 0.0175781 54.5383 0.0175781 74.5513C0.925325 74.5058 1.83307 74.4603 2.74082 74.4603C21.4858 74.4603 40.2761 74.4149 59.0211 74.5058C60.9728 74.5058 61.3813 73.96 61.3359 72.0952C61.2451 53.6741 61.2451 35.253 61.3359 16.832ZM19.6703 41.5298C18.8533 44.4863 17.8094 47.3518 16.9471 50.2628C16.7201 51.036 16.3116 51.4454 15.54 51.3999C15.4039 51.3999 15.2223 51.4454 15.0862 51.4454C9.54892 51.7638 9.54892 51.7638 10.4567 46.2147C10.8652 43.8495 11.5006 41.5298 11.6367 39.2101C11.7729 37.2998 12.6353 37.0269 14.1784 37.2089C14.9046 37.2998 15.6762 37.2089 16.4024 37.2089C20.805 37.1634 20.8504 37.1634 19.6703 41.5298ZM34.6935 41.7118C33.9219 44.3953 32.9234 47.0334 32.1064 49.717C31.7433 50.9905 31.1079 51.4454 29.9732 51.4454C28.2485 51.3999 26.0699 51.9912 24.9806 51.127C23.8913 50.2628 25.2983 48.1705 25.4345 46.6241C25.6614 44.2589 26.3876 41.9392 26.5692 39.574C26.7053 37.6182 27.4315 36.845 29.3832 37.2089C30.0186 37.2998 30.7448 37.2089 31.3802 37.2089C36.1005 37.1634 36.0097 37.1179 34.6935 41.7118ZM51.1691 38.6643C50.0798 42.576 48.8544 46.4421 47.4927 50.2628C47.1296 51.2634 46.585 51.4909 45.6772 51.4454C43.8618 51.3999 42.0916 51.4454 40.14 51.4454C40.8662 47.1244 41.5924 43.0308 42.2278 38.8918C42.4094 37.7547 42.7725 37.0724 44.0433 37.1179C46.0403 37.1634 48.0828 37.2088 50.0798 37.1634C51.2145 37.1634 51.5322 37.5272 51.1691 38.6643Z" fill="white"/>
</g>
</g>
<defs>
<clipPath id="clip0_2807_14627">
<rect width="227" height="89" fill="white"/>
</clipPath>
<clipPath id="clip1_2807_14627">
<rect width="227" height="89" fill="white"/>
</clipPath>
</defs>
</svg>
