<svg width="228" height="89" viewBox="0 0 228 89" fill="none" xmlns="http://www.w3.org/2000/svg">
<g clip-path="url(#clip0_2617_15579)">
<path d="M23.7021 21.2988C10.6119 21.2988 0 31.9108 0 45.001C0 58.0912 10.6119 68.7031 23.7021 68.7031C36.7924 68.7031 47.4043 58.0912 47.4043 45.001C47.4043 31.9108 36.7924 21.2988 23.7021 21.2988ZM41.8514 53.1431C41.195 54.1289 40.454 55.0555 39.6366 55.9125C38.6666 56.9338 37.5777 57.8352 36.3932 58.5975C35.1743 59.3829 33.8588 60.0071 32.4795 60.4548C31.0318 60.9232 29.5186 61.1575 27.997 61.1488C25.3423 61.1488 22.8963 60.7619 20.6588 59.9883C18.4213 59.2147 16.4907 58.1225 14.8669 56.7117C11.9853 54.2118 10.1717 50.7023 9.79941 46.9057H6.06775C5.97773 46.9057 5.8886 46.8879 5.80543 46.8535C5.72227 46.8191 5.6467 46.7686 5.58305 46.7049C5.5194 46.6413 5.46891 46.5657 5.43446 46.4825C5.40001 46.3994 5.38228 46.3102 5.38228 46.2202V43.7846C5.38228 43.6946 5.40001 43.6054 5.43446 43.5223C5.46891 43.4391 5.5194 43.3635 5.58305 43.2999C5.6467 43.2362 5.72227 43.1857 5.80543 43.1513C5.8886 43.1168 5.97773 43.0991 6.06775 43.0991H9.80605C9.96538 41.5229 10.3674 39.9808 10.9978 38.5274C11.8407 36.5856 13.0853 34.8443 14.6498 33.4182C16.2199 31.9847 18.1009 30.866 20.2928 30.062C22.4848 29.258 24.9081 28.856 27.5628 28.856C29.3382 28.856 30.962 29.0646 32.434 29.4818C33.845 29.8732 35.1961 30.455 36.4501 31.2111C37.644 31.9373 38.7314 32.8256 39.6812 33.8505C40.5303 34.7697 41.2906 35.7671 41.9518 36.8294C42.0164 36.937 42.0382 37.0649 42.0129 37.1879C41.9876 37.3108 41.9171 37.4197 41.8153 37.4931L39.3987 39.1845C39.2957 39.2567 39.1686 39.2857 39.0446 39.2653C38.9205 39.245 38.8094 39.1768 38.735 39.0754C38.161 38.2971 37.5418 37.5532 36.8805 36.8474C36.139 36.0505 35.3192 35.3301 34.4335 34.6972C33.591 34.0944 32.673 33.6048 31.703 33.2409C30.7515 32.8837 29.7434 32.701 28.727 32.7015C27.3412 32.6965 25.9683 32.9672 24.6882 33.4978C23.4051 34.0298 22.2523 34.8332 21.3092 35.8529C20.3364 36.8952 19.5619 38.1811 18.9854 39.7107C18.5851 40.8026 18.3267 41.9414 18.2165 43.0991H21.9548C22.1366 43.0991 22.311 43.1713 22.4395 43.2999C22.5681 43.4284 22.6403 43.6028 22.6403 43.7846V46.2174C22.6403 46.3992 22.5681 46.5735 22.4395 46.7021C22.311 46.8306 22.1366 46.9028 21.9548 46.9028H18.2194C18.3348 48.0719 18.6078 49.22 19.0309 50.3159C19.6377 51.8487 20.4417 53.1346 21.4429 54.1737C22.4181 55.1965 23.5965 56.0038 24.9024 56.5439C26.1945 57.0803 27.5802 57.3549 28.9792 57.3517C30.0108 57.3601 31.0346 57.1709 31.9951 56.7942C32.9353 56.4168 33.8163 55.9059 34.6108 55.2773C35.4446 54.6188 36.2109 53.8791 36.8986 53.0692C37.5091 52.3556 38.0976 51.6072 38.6639 50.8241C38.7014 50.7727 38.7487 50.7293 38.8031 50.6962C38.8575 50.6631 38.9178 50.6411 38.9807 50.6315C39.0436 50.6218 39.1078 50.6246 39.1696 50.6397C39.2314 50.6549 39.2896 50.6821 39.3408 50.7198L41.7338 52.4757C41.8337 52.5518 41.9012 52.6627 41.923 52.7864C41.9448 52.9101 41.9192 53.0375 41.8514 53.1431V53.1431Z" fill="white"/>
<path d="M57.3497 55.1973C57.1831 55.1973 57.0443 55.1417 56.9333 55.0307C56.8222 54.9012 56.7667 54.7624 56.7667 54.6143C56.7667 54.5218 56.776 54.4385 56.7945 54.3645L63.4014 36.5147C63.4569 36.3112 63.5679 36.1353 63.7345 35.9873C63.9011 35.8392 64.1324 35.7652 64.4285 35.7652H67.9818C68.2779 35.7652 68.5092 35.8392 68.6758 35.9873C68.8424 36.1353 68.9534 36.3112 69.0089 36.5147L75.6158 54.3645C75.6343 54.4385 75.6436 54.5218 75.6436 54.6143C75.6436 54.7624 75.5881 54.9012 75.477 55.0307C75.366 55.1417 75.2272 55.1973 75.0606 55.1973H72.1736C71.896 55.1973 71.6924 55.1325 71.5628 55.0029C71.4333 54.8734 71.35 54.7531 71.313 54.6421L70.1193 51.5329H62.291L61.0973 54.6421C61.0603 54.7531 60.977 54.8734 60.8474 55.0029C60.7179 55.1325 60.5143 55.1973 60.2367 55.1973H57.3497ZM63.3181 47.9519H69.0644L66.2051 39.957L63.3181 47.9519ZM85.3444 55.4749C83.6048 55.4749 82.1243 55.188 80.9028 54.6143C79.6999 54.0221 78.7653 53.1708 78.099 52.0604C77.4328 50.9315 77.0627 49.562 76.9886 47.9519C76.9701 47.1931 76.9609 46.3788 76.9609 45.509C76.9609 44.6392 76.9701 43.8064 76.9886 43.0106C77.0627 41.419 77.4328 40.068 78.099 38.9576C78.7838 37.8287 79.7369 36.9681 80.9583 36.3759C82.1798 35.7837 83.6418 35.4876 85.3444 35.4876C86.5844 35.4876 87.7133 35.6449 88.7312 35.9595C89.749 36.2741 90.6281 36.7276 91.3684 37.3198C92.1086 37.912 92.6823 38.606 93.0895 39.4018C93.4966 40.1976 93.7187 41.0859 93.7557 42.0667C93.7557 42.2333 93.691 42.3721 93.5614 42.4831C93.4504 42.5942 93.3116 42.6497 93.145 42.6497H89.9804C89.7583 42.6497 89.5825 42.5942 89.4529 42.4831C89.3234 42.3721 89.2216 42.187 89.1476 41.9279C88.87 40.836 88.4073 40.0865 87.7596 39.6794C87.1118 39.2722 86.3068 39.0687 85.3444 39.0687C84.197 39.0687 83.2902 39.3833 82.6239 40.0125C81.9577 40.6417 81.5968 41.6874 81.5413 43.1494C81.4858 44.6669 81.4858 46.2215 81.5413 47.8131C81.5968 49.2751 81.9577 50.3207 82.6239 50.95C83.2902 51.5792 84.197 51.8938 85.3444 51.8938C86.3068 51.8938 87.1118 51.6902 87.7596 51.2831C88.4258 50.8574 88.8885 50.1079 89.1476 49.0345C89.2216 48.7569 89.3234 48.5719 89.4529 48.4793C89.5825 48.3683 89.7583 48.3128 89.9804 48.3128H93.145C93.3116 48.3128 93.4504 48.3683 93.5614 48.4793C93.691 48.5904 93.7557 48.7292 93.7557 48.8957C93.7187 49.8766 93.4966 50.7649 93.0895 51.5607C92.6823 52.3565 92.1086 53.0505 91.3684 53.6427C90.6281 54.2349 89.749 54.6883 88.7312 55.0029C87.7133 55.3176 86.5844 55.4749 85.3444 55.4749ZM102.079 55.1973C101.875 55.1973 101.709 55.1325 101.579 55.0029C101.45 54.8734 101.385 54.7068 101.385 54.5033V48.396L94.8891 36.6535C94.8706 36.598 94.8521 36.5517 94.8336 36.5147C94.8151 36.4592 94.8058 36.4037 94.8058 36.3482C94.8058 36.2001 94.8614 36.0706 94.9724 35.9595C95.102 35.83 95.2408 35.7652 95.3888 35.7652H98.3314C98.5905 35.7652 98.794 35.83 98.9421 35.9595C99.0902 36.0891 99.1919 36.2094 99.2475 36.3204L103.606 43.9544L107.964 36.3204C108.02 36.2094 108.121 36.0891 108.269 35.9595C108.418 35.83 108.621 35.7652 108.88 35.7652H111.823C111.971 35.7652 112.1 35.83 112.211 35.9595C112.341 36.0706 112.406 36.2001 112.406 36.3482C112.406 36.4037 112.396 36.4592 112.378 36.5147C112.359 36.5517 112.341 36.598 112.322 36.6535L105.827 48.396V54.5033C105.827 54.7068 105.762 54.8734 105.632 55.0029C105.503 55.1325 105.336 55.1973 105.133 55.1973H102.079ZM121.019 55.1973C120.815 55.1973 120.648 55.1325 120.519 55.0029C120.389 54.8734 120.325 54.7068 120.325 54.5033V36.4592C120.325 36.2556 120.389 36.0891 120.519 35.9595C120.648 35.83 120.815 35.7652 121.019 35.7652H133.4C133.603 35.7652 133.77 35.83 133.899 35.9595C134.029 36.0891 134.094 36.2556 134.094 36.4592V38.8188C134.094 39.0224 134.029 39.1889 133.899 39.3185C133.77 39.448 133.603 39.5128 133.4 39.5128H124.655V44.2043H132.844C133.048 44.2043 133.214 44.269 133.344 44.3986C133.474 44.5281 133.538 44.6947 133.538 44.8983V47.2579C133.538 47.4429 133.474 47.6003 133.344 47.7298C133.214 47.8593 133.048 47.9241 132.844 47.9241H124.655V54.5033C124.655 54.7068 124.59 54.8734 124.461 55.0029C124.331 55.1325 124.165 55.1973 123.961 55.1973H121.019ZM138.008 55.1973C137.823 55.1973 137.666 55.1325 137.536 55.0029C137.407 54.8734 137.342 54.7068 137.342 54.5033V41.456C137.342 41.2524 137.407 41.0859 137.536 40.9563C137.666 40.8268 137.823 40.762 138.008 40.762H140.784C140.988 40.762 141.154 40.8268 141.284 40.9563C141.414 41.0859 141.478 41.2524 141.478 41.456V54.5033C141.478 54.7068 141.414 54.8734 141.284 55.0029C141.154 55.1325 140.988 55.1973 140.784 55.1973H138.008ZM137.925 38.5412C137.74 38.5412 137.583 38.4764 137.453 38.3469C137.324 38.2173 137.259 38.0508 137.259 37.8472V35.6264C137.259 35.4228 137.324 35.2563 137.453 35.1267C137.583 34.9787 137.74 34.9046 137.925 34.9046H140.84C141.043 34.9046 141.21 34.9787 141.34 35.1267C141.488 35.2563 141.562 35.4228 141.562 35.6264V37.8472C141.562 38.0508 141.488 38.2173 141.34 38.3469C141.21 38.4764 141.043 38.5412 140.84 38.5412H137.925ZM146.331 55.1973C146.146 55.1973 145.989 55.1325 145.859 55.0029C145.729 54.8734 145.665 54.7068 145.665 54.5033V41.456C145.665 41.2524 145.729 41.0859 145.859 40.9563C145.989 40.8268 146.146 40.762 146.331 40.762H149.051C149.255 40.762 149.422 40.8268 149.551 40.9563C149.681 41.0859 149.745 41.2524 149.745 41.456V42.5387C150.227 41.9464 150.847 41.456 151.605 41.0674C152.364 40.6787 153.289 40.4844 154.381 40.4844C155.473 40.4844 156.426 40.7343 157.241 41.2339C158.073 41.7151 158.721 42.4276 159.184 43.3715C159.665 44.2968 159.906 45.4257 159.906 46.7582V54.5033C159.906 54.7068 159.832 54.8734 159.684 55.0029C159.554 55.1325 159.397 55.1973 159.212 55.1973H156.269C156.065 55.1973 155.899 55.1325 155.769 55.0029C155.64 54.8734 155.575 54.7068 155.575 54.5033V46.9248C155.575 45.9439 155.334 45.1851 154.853 44.6484C154.391 44.0932 153.706 43.8156 152.799 43.8156C151.929 43.8156 151.235 44.0932 150.717 44.6484C150.199 45.1851 149.94 45.9439 149.94 46.9248V54.5033C149.94 54.7068 149.875 54.8734 149.745 55.0029C149.616 55.1325 149.459 55.1973 149.274 55.1973H146.331ZM167.479 55.4749C166.498 55.4749 165.619 55.2898 164.842 54.9197C164.064 54.531 163.444 54.0128 162.982 53.3651C162.519 52.7174 162.288 51.9956 162.288 51.1998C162.288 49.8858 162.815 48.8495 163.87 48.0907C164.944 47.3319 166.35 46.8137 168.09 46.5361L171.726 46.0087V45.509C171.726 44.7872 171.56 44.232 171.227 43.8434C170.893 43.4547 170.31 43.2604 169.478 43.2604C168.867 43.2604 168.377 43.3807 168.006 43.6213C167.636 43.8619 167.349 44.1765 167.146 44.5652C166.998 44.8057 166.785 44.926 166.507 44.926H163.87C163.667 44.926 163.509 44.8705 163.398 44.7595C163.287 44.6299 163.241 44.4819 163.259 44.3153C163.259 44.0007 163.38 43.6306 163.62 43.2049C163.861 42.7793 164.231 42.3629 164.731 41.9557C165.23 41.53 165.869 41.1784 166.646 40.9008C167.423 40.6232 168.377 40.4844 169.505 40.4844C170.671 40.4844 171.671 40.6232 172.504 40.9008C173.336 41.1784 174.003 41.5671 174.502 42.0667C175.002 42.5664 175.372 43.1494 175.613 43.8156C175.853 44.4634 175.974 45.1666 175.974 45.9254V54.5033C175.974 54.7068 175.909 54.8734 175.779 55.0029C175.65 55.1325 175.483 55.1973 175.28 55.1973H172.559C172.374 55.1973 172.217 55.1325 172.087 55.0029C171.958 54.8734 171.893 54.7068 171.893 54.5033V53.4761C171.652 53.8278 171.328 54.1609 170.921 54.4755C170.514 54.7716 170.024 55.0122 169.45 55.1973C168.895 55.3823 168.238 55.4749 167.479 55.4749ZM168.589 52.5878C169.2 52.5878 169.746 52.4583 170.227 52.1992C170.708 51.9401 171.088 51.5422 171.365 51.0055C171.643 50.4688 171.782 49.7933 171.782 48.979V48.5071L169.2 48.9235C168.201 49.09 167.47 49.3399 167.007 49.673C166.544 50.0061 166.313 50.4133 166.313 50.8945C166.313 51.2461 166.415 51.5514 166.618 51.8105C166.84 52.0696 167.127 52.2639 167.479 52.3935C167.831 52.523 168.201 52.5878 168.589 52.5878ZM180.001 55.1973C179.816 55.1973 179.659 55.1325 179.529 55.0029C179.399 54.8734 179.335 54.7068 179.335 54.5033V41.456C179.335 41.2524 179.399 41.0859 179.529 40.9563C179.659 40.8268 179.816 40.762 180.001 40.762H182.721C182.925 40.762 183.092 40.8268 183.221 40.9563C183.351 41.0859 183.415 41.2524 183.415 41.456V42.5387C183.897 41.9464 184.517 41.456 185.275 41.0674C186.034 40.6787 186.959 40.4844 188.051 40.4844C189.143 40.4844 190.096 40.7343 190.911 41.2339C191.743 41.7151 192.391 42.4276 192.854 43.3715C193.335 44.2968 193.576 45.4257 193.576 46.7582V54.5033C193.576 54.7068 193.502 54.8734 193.354 55.0029C193.224 55.1325 193.067 55.1973 192.882 55.1973H189.939C189.735 55.1973 189.569 55.1325 189.439 55.0029C189.31 54.8734 189.245 54.7068 189.245 54.5033V46.9248C189.245 45.9439 189.004 45.1851 188.523 44.6484C188.061 44.0932 187.376 43.8156 186.469 43.8156C185.599 43.8156 184.905 44.0932 184.387 44.6484C183.869 45.1851 183.61 45.9439 183.61 46.9248V54.5033C183.61 54.7068 183.545 54.8734 183.415 55.0029C183.286 55.1325 183.129 55.1973 182.943 55.1973H180.001ZM203.314 55.4749C201.963 55.4749 200.77 55.225 199.733 54.7253C198.715 54.2257 197.91 53.5039 197.318 52.5601C196.726 51.5977 196.402 50.4503 196.346 49.1178C196.328 48.8217 196.319 48.4516 196.319 48.0074C196.319 47.5447 196.328 47.1653 196.346 46.8692C196.402 45.5182 196.717 44.3708 197.29 43.427C197.882 42.4646 198.697 41.7336 199.733 41.2339C200.77 40.7343 201.963 40.4844 203.314 40.4844C204.554 40.4844 205.609 40.6602 206.479 41.0119C207.349 41.345 208.061 41.7706 208.616 42.2888C209.172 42.807 209.579 43.353 209.838 43.9267C210.115 44.4819 210.263 44.9723 210.282 45.398C210.3 45.583 210.236 45.7496 210.088 45.8976C209.958 46.0272 209.801 46.092 209.616 46.092H206.645C206.46 46.092 206.312 46.0457 206.201 45.9532C206.109 45.8421 206.016 45.6941 205.924 45.509C205.665 44.8613 205.331 44.3986 204.924 44.121C204.517 43.8434 204.008 43.7046 203.397 43.7046C202.565 43.7046 201.908 43.9729 201.426 44.5096C200.945 45.0463 200.686 45.8791 200.649 47.008C200.631 47.7298 200.631 48.3868 200.649 48.979C200.705 50.1264 200.964 50.9592 201.426 51.4774C201.908 51.9956 202.565 52.2547 203.397 52.2547C204.045 52.2547 204.563 52.1159 204.952 51.8383C205.341 51.5607 205.665 51.098 205.924 50.4503C205.998 50.2652 206.09 50.1264 206.201 50.0339C206.312 49.9228 206.46 49.8673 206.645 49.8673H209.616C209.801 49.8673 209.958 49.9414 210.088 50.0894C210.236 50.219 210.3 50.3763 210.282 50.5613C210.263 50.8759 210.171 51.2461 210.004 51.6717C209.856 52.0974 209.606 52.5323 209.255 52.9765C208.922 53.4206 208.487 53.837 207.95 54.2257C207.413 54.5958 206.756 54.9012 205.979 55.1417C205.22 55.3638 204.332 55.4749 203.314 55.4749ZM219.445 55.4749C217.317 55.4749 215.623 54.8827 214.365 53.6982C213.125 52.5138 212.468 50.7927 212.394 48.5348C212.394 48.3868 212.394 48.1925 212.394 47.9519C212.394 47.6928 212.394 47.4892 212.394 47.3412C212.468 45.9161 212.792 44.6947 213.365 43.6768C213.939 42.6405 214.744 41.8539 215.781 41.3172C216.817 40.762 218.029 40.4844 219.417 40.4844C220.972 40.4844 222.267 40.8083 223.304 41.456C224.358 42.0852 225.145 42.9551 225.663 44.0655C226.2 45.1574 226.468 46.4158 226.468 47.8408V48.4793C226.468 48.6644 226.394 48.8217 226.246 48.9512C226.117 49.0808 225.959 49.1456 225.774 49.1456H216.697C216.697 49.1641 216.697 49.2011 216.697 49.2566C216.697 49.2936 216.697 49.3306 216.697 49.3676C216.715 49.9599 216.826 50.5058 217.03 51.0055C217.252 51.4867 217.557 51.8753 217.946 52.1714C218.353 52.4675 218.834 52.6156 219.389 52.6156C219.852 52.6156 220.231 52.5508 220.528 52.4213C220.824 52.2917 221.064 52.1344 221.249 51.9493C221.453 51.7643 221.601 51.607 221.694 51.4774C221.86 51.2923 221.99 51.1813 222.082 51.1443C222.193 51.0888 222.36 51.061 222.582 51.061H225.469C225.654 51.061 225.802 51.1165 225.913 51.2276C226.043 51.3201 226.098 51.4589 226.08 51.644C226.061 51.9401 225.904 52.3102 225.608 52.7544C225.33 53.18 224.914 53.6057 224.358 54.0313C223.803 54.4385 223.109 54.7809 222.276 55.0585C221.462 55.3361 220.518 55.4749 219.445 55.4749ZM216.697 46.6194H222.138V46.5639C222.138 45.8976 222.027 45.3239 221.805 44.8428C221.601 44.3431 221.296 43.9544 220.888 43.6768C220.481 43.3992 219.991 43.2604 219.417 43.2604C218.843 43.2604 218.353 43.3992 217.946 43.6768C217.539 43.9544 217.224 44.3431 217.002 44.8428C216.798 45.3239 216.697 45.8976 216.697 46.5639V46.6194Z" fill="white"/>
</g>
<defs>
<clipPath id="clip0_2617_15579">
<rect width="228" height="89" fill="white"/>
</clipPath>
</defs>
</svg>
