<svg width="227" height="88" viewBox="0 0 227 88" fill="none" xmlns="http://www.w3.org/2000/svg">
<g clip-path="url(#clip0_2838_14418)">
<path d="M93.3841 43.6741C93.3841 38.3592 93.4712 33.0443 93.2969 27.7294C93.2098 25.3769 93.7326 24.2443 96.3465 24.5057C98.3505 24.6799 100.442 24.5928 102.446 24.5057C106.105 24.3314 109.764 24.767 111.158 28.6007C112.727 32.8701 113.25 37.4008 110.113 41.3216C108.893 42.8028 108.545 42.9771 110.113 44.6326C114.121 48.8148 112.901 54.1297 111.681 58.9218C110.549 63.1912 106.279 63.4525 102.358 63.4525C93.3841 63.3654 93.3841 63.4525 93.3841 54.4782C93.3841 50.8188 93.3841 47.2465 93.3841 43.6741ZM99.8317 51.2544C99.8317 52.4742 99.8317 53.4326 99.8317 54.4782C99.8317 56.0465 99.4831 57.702 102.097 57.5277C104.014 57.3535 106.018 57.5277 106.105 54.8267C106.192 52.8227 106.192 50.8188 106.018 48.8148C105.931 47.4207 105.059 46.3752 103.578 46.288C102.446 46.2009 100.877 45.9395 100.354 46.5494C99.2218 47.8563 100.093 49.7732 99.8317 51.2544ZM105.931 35.2226C106.018 32.6958 106.018 30.3433 102.271 30.3433C98.2633 30.3433 100.267 33.2186 99.9188 34.8741C99.7445 35.6582 99.7445 36.6166 99.9188 37.4008C100.093 38.3592 99.2218 39.9276 101.051 40.1018C102.533 40.2761 104.275 40.5375 105.321 38.882C105.931 37.7493 106.018 36.4424 105.931 35.2226Z" fill="white"/>
<path d="M68.8141 44.0231C68.8141 40.4508 68.727 36.8785 68.8141 33.219C68.9884 27.2071 72.7349 23.809 78.9211 23.8962C84.9331 23.8962 88.6797 27.12 88.8539 32.9576C89.0282 40.2765 89.0282 47.5954 88.8539 54.9143C88.6797 60.752 85.0202 63.8015 78.834 63.7144C72.7349 63.7144 69.0755 60.5777 68.8141 54.74C68.727 51.2548 68.8141 47.5954 68.8141 44.0231ZM75.3488 43.8488C75.3488 47.1597 75.3488 50.4707 75.3488 53.7816C75.3488 55.9598 76.2201 57.3539 78.5726 57.5282C81.0122 57.6153 82.4934 56.3955 82.4934 53.9558C82.5806 47.2469 82.5806 40.4508 82.4934 33.7418C82.4934 31.3022 80.9251 29.9952 78.5726 30.1695C76.3072 30.3438 75.3488 31.825 75.3488 34.0032C75.3488 37.3141 75.3488 40.5379 75.3488 43.8488Z" fill="white"/>
<path d="M44.5036 43.3255C44.765 39.8403 44.068 35.6581 44.8521 31.563C45.8977 26.161 49.9928 23.1985 55.5691 23.8956C61.0582 24.5926 64.1949 28.6006 63.8464 34.0897C63.7592 36.0066 62.9751 36.7036 61.1453 36.4422C59.6641 36.1808 57.3117 37.4878 57.3117 34.4383C57.2245 32.0858 56.876 29.8204 53.8265 30.256C50.8641 30.6046 51.0383 33.1313 51.0383 35.3095C51.0383 41.2344 51.0383 47.072 51.0383 52.9968C51.0383 55.4365 51.5611 57.4404 54.5235 57.3533C57.3988 57.2662 58.2701 55.3493 58.0087 52.9097C57.7473 50.9929 59.7513 47.8562 55.2206 47.6819C53.2166 47.5948 54.3492 45.3294 54.175 44.0225C54.0007 42.7156 54.5235 41.7571 56.0919 41.8443C56.3532 41.8443 56.7018 41.8443 56.9631 41.8443C64.282 41.4086 64.282 41.4086 64.282 48.5532C64.282 50.1216 64.282 51.6899 64.282 53.2582C64.1078 59.9672 60.884 63.4524 54.6978 63.5395C48.0759 63.6266 44.8521 60.3157 44.5907 53.3454C44.4165 50.383 44.5036 47.2463 44.5036 43.3255Z" fill="white"/>
<path d="M156.639 44.0234C156.639 47.5957 156.726 51.168 156.639 54.8275C156.465 60.4909 153.067 63.6276 147.229 63.8018C140.956 63.9761 136.948 61.0137 136.774 55.4374C136.512 47.6829 136.425 39.9283 136.774 32.1738C137.035 26.8589 141.217 23.8094 147.055 23.9836C152.893 24.1579 156.465 27.3817 156.639 32.8709C156.726 36.5303 156.639 40.2769 156.639 44.0234ZM150.453 44.0234C150.453 40.8868 150.366 37.7501 150.453 34.5263C150.54 31.9996 149.582 30.257 146.881 30.0827C144.18 29.9085 142.873 31.7382 142.873 34.1778C142.786 40.6254 142.786 47.073 142.873 53.5205C142.96 55.9602 144.093 57.7028 146.968 57.5285C149.756 57.3542 150.54 55.5245 150.453 53.0849C150.453 50.0354 150.453 47.073 150.453 44.0234Z" fill="white"/>
<path d="M193.844 47.8558C190.533 51.6895 190.184 55.7845 190.533 60.0539C190.794 62.5806 190.184 63.6262 187.309 63.5391C184.608 63.5391 184.347 62.4935 184.347 60.2282C184.434 49.4241 184.434 38.7072 184.347 27.9031C184.347 25.3763 184.782 24.5051 187.57 24.4179C190.794 24.3308 190.62 25.9863 190.533 28.0774C190.446 31.9111 190.533 35.7448 191.143 39.8399C192.537 36.5289 194.367 33.3051 195.325 29.9071C196.632 25.115 199.246 23.2852 204.386 24.9407C202.47 28.8615 200.814 32.8695 198.636 36.7032C197.242 39.1428 197.329 41.1468 198.375 43.5864C200.553 48.7271 202.47 53.9548 204.386 59.2697C204.822 60.4895 206.652 62.6678 204.561 63.1034C202.557 63.5391 199.333 64.9331 198.2 60.9252C196.98 56.6558 195.325 52.2994 193.844 47.8558Z" fill="white"/>
<path d="M220.419 51.8638C221.203 48.1172 217.805 47.1588 214.93 45.6776C207.96 42.1924 205.433 36.2676 207.96 29.3844C209.615 25.0279 214.407 22.9368 219.896 24.3309C224.34 25.4636 227.215 29.7329 226.605 34.0023C226.431 35.5706 225.56 36.0062 224.253 35.7448C222.859 35.4835 220.681 36.8775 220.245 34.525C219.896 32.1725 219.635 30.0814 216.76 30.0814C214.93 30.0814 213.71 31.127 213.536 32.9567C213.275 35.5706 213.275 38.1845 216.237 39.5785C218.415 40.6241 220.681 41.7568 222.685 43.0637C226.693 45.7647 228.174 52.9094 225.996 58.3985C224.427 62.4065 220.681 64.2362 215.191 63.6263C210.748 63.1906 207.873 60.751 207.263 56.3945C207.088 55.0005 205.694 52.5608 208.482 52.2123C210.312 51.9509 213.362 50.7311 213.536 54.7391C213.623 57.0916 215.54 57.7886 217.631 57.4401C220.942 57.0044 220.245 54.4777 220.419 51.8638Z" fill="white"/>
<path d="M18.0168 63.4527C15.7514 63.9755 14.793 62.5814 14.6187 60.1418C14.4445 57.6151 13.7474 55.9596 10.4365 56.1339C7.4741 56.221 5.47012 56.5695 5.29586 60.0547C5.20873 61.8844 4.94734 63.4527 2.1592 63.5399C-1.15172 63.627 -1.67449 62.5814 -0.977457 59.7062C1.72356 48.815 4.25031 37.9238 6.77706 27.0326C7.21271 25.1158 8.084 24.5059 10.0009 24.5059C11.9177 24.5059 12.7019 24.9415 13.2246 26.9455C15.7514 38.2723 18.4524 49.5991 21.2406 60.8388C22.1119 64.0626 20.1079 63.2785 18.0168 63.4527ZM10.3494 37.9238C10.1751 38.0109 9.91372 38.098 9.73946 38.1852C9.12955 41.2347 8.43252 44.2842 7.82261 47.4209C7.64836 48.2922 7.12558 49.6863 8.25826 50.1219C9.39095 50.5576 10.8721 50.4704 12.0048 50.1219C13.3118 49.6863 12.3534 48.3793 12.2662 47.508C11.6563 44.2843 10.9593 41.0605 10.3494 37.9238Z" fill="white"/>
<path d="M161.606 43.7616C161.606 39.7536 161.171 35.6585 161.693 31.7377C162.39 25.9871 166.921 23.1119 172.585 24.0703C177.725 25.0287 180.775 29.4723 180.165 34.8743C179.903 36.8783 178.771 36.8783 177.551 36.6169C176.244 36.3555 174.153 37.8368 173.979 35.0486C173.892 34.1773 173.892 33.306 173.63 32.5218C173.195 31.0406 172.149 29.9951 170.406 30.2565C169.012 30.5179 167.967 31.302 167.967 32.8704C167.967 40.1893 167.88 47.5081 167.967 54.827C167.967 56.4825 169.187 57.4409 170.842 57.4409C172.846 57.4409 173.979 55.9597 173.804 54.3913C173.456 50.5577 175.983 51.1676 178.161 51.2547C181.559 51.3418 180.078 53.9557 179.991 55.3498C179.816 60.3162 176.68 63.3657 171.888 63.7142C166.224 64.1499 162.826 61.7102 161.693 56.5696C160.735 52.3874 161.519 48.0309 161.606 43.7616Z" fill="white"/>
<path d="M24.3776 44.021C24.3776 38.4447 24.4648 32.7813 24.2905 27.205C24.2034 24.6783 25.4232 24.4169 27.4272 24.504C29.4311 24.5911 30.9995 24.2426 30.9995 27.2921C30.8252 36.1793 31.0866 45.0666 30.8252 53.9538C30.7381 56.9162 31.7836 57.7875 34.4847 57.4389C35.8787 57.2647 37.3599 57.5261 38.8411 57.3518C41.455 57.0904 41.455 58.7459 41.5421 60.5756C41.6293 62.4925 41.0194 63.4509 38.8411 63.3638C34.9203 63.1895 30.9995 63.1895 27.1658 63.3638C24.639 63.4509 24.3776 62.3182 24.3776 60.2271C24.3776 54.9122 24.3776 49.423 24.3776 44.021Z" fill="white"/>
<path d="M116.474 43.7605C116.474 38.6198 116.561 33.392 116.474 28.2514C116.386 25.8118 116.561 24.3306 119.785 24.4177C122.921 24.4177 122.834 25.8989 122.834 28.0772C122.747 36.703 122.921 45.3288 122.747 53.9546C122.66 56.8299 123.531 57.8754 126.406 57.5269C127.8 57.3527 129.282 57.614 130.763 57.4398C132.941 57.1784 133.464 58.224 133.464 60.2279C133.377 62.0577 133.551 63.626 130.85 63.4517C126.929 63.2774 123.008 63.2774 119.087 63.4517C116.822 63.5388 116.474 62.4933 116.561 60.5764C116.561 55.0002 116.474 49.3368 116.474 43.7605Z" fill="white"/>
</g>
<defs>
<clipPath id="clip0_2838_14418">
<rect width="227" height="88" fill="white"/>
</clipPath>
</defs>
</svg>
