<svg width="227" height="88" viewBox="0 0 227 88" fill="none" xmlns="http://www.w3.org/2000/svg">
<path d="M9.72852 1.34984C9.8816 1.10814 10.0186 1.15648 10.228 1.30956C15.8114 5.29771 21.3143 9.39059 26.8574 13.4432C28.3801 14.555 29.9271 15.6508 31.4176 16.811C33.1095 18.1403 35.0109 18.801 37.146 18.9944C39.7081 19.228 42.2541 19.6067 44.8161 19.9048C47.6763 20.2351 50.5285 20.6944 53.3967 20.9522C55.0081 21.0972 56.6114 20.9119 58.2067 20.7266C60.1645 20.501 62.1303 20.3238 64.0801 20.0418C65.8687 19.7839 67.6573 19.4697 69.4621 19.365C71.3393 19.2522 73.1763 18.8493 75.0455 18.656C75.5128 18.6076 75.9156 18.4062 76.2943 18.1323C78.8 16.3195 81.3137 14.5148 83.8194 12.6858C89.0564 8.85078 94.3094 5.04794 99.627 1.32567C99.6834 1.28539 99.7398 1.25316 99.8284 1.19676C99.9331 1.76074 99.8203 2.2925 99.7559 2.81619C99.6189 3.94415 99.3692 5.056 99.2241 6.18396C99.0711 7.37638 98.8616 8.56073 98.6843 9.74509C98.5151 10.9053 98.362 12.0735 98.1848 13.2418C97.9834 14.5712 97.7658 15.9005 97.5564 17.2299C97.3872 18.3257 97.226 19.4214 97.0568 20.5171C96.8554 21.7659 96.6459 23.0147 96.4445 24.2716C96.2753 25.3271 96.1061 26.3825 95.9369 27.438C95.7275 28.7271 95.5099 30.0162 95.3085 31.3053C95.1312 32.4413 94.9782 33.5773 94.8009 34.7133C94.6237 35.8654 94.4303 37.0095 94.253 38.1536C94.0839 39.2654 93.9227 40.3773 93.7535 41.4891C93.5843 42.601 93.391 43.7048 93.2137 44.8086C93.0687 45.7432 92.9317 46.6858 92.7867 47.6285C92.6336 48.6195 92.4725 49.6104 92.3275 50.6095C92.2066 51.4474 92.1099 52.2853 91.981 53.1232C91.7957 54.3398 91.5862 55.5484 91.3929 56.7569C91.2962 57.3289 91.1753 57.8929 91.1028 58.473C91.0464 58.9 90.853 59.2223 90.5227 59.472C87.4611 61.8408 84.3995 64.2095 81.3379 66.5782C78.7678 68.5763 76.1976 70.5744 73.6355 72.5886C71.3232 74.4014 69.027 76.2303 66.7147 78.0431C64.7085 79.6142 62.6701 81.145 60.672 82.7322C58.9801 84.0696 57.2962 85.4151 55.6687 86.8332C55.4431 87.0346 55.1692 87.1474 54.9195 87.3004C54.8631 87.3004 54.8147 87.3004 54.7583 87.3004C54.4763 87.0829 54.1863 86.8734 53.9043 86.6559C49.4811 83.1914 45.0659 79.727 40.6427 76.2625C33.6735 70.8081 26.7124 65.3536 19.7432 59.8991C19.002 59.319 18.5185 58.5858 18.3574 57.6673C17.8176 54.5412 17.3503 51.3991 16.9152 48.2569C16.3754 44.3735 15.7631 40.4981 15.1024 36.6308C14.3129 31.9981 13.6522 27.3493 12.9674 22.7005C12.5001 19.5342 11.9764 16.3759 11.4607 13.2176C10.9693 10.2043 10.5584 7.18301 10.1314 4.15363C10.0105 3.2996 9.94605 2.42946 9.73657 1.58349C9.72851 1.51098 9.72852 1.43041 9.72852 1.34984ZM93.7293 10.3977C93.6971 10.3735 93.6649 10.3574 93.6327 10.3332C93.2298 10.4944 92.8914 10.7522 92.5692 11.0342C89.6526 13.564 86.744 16.11 83.8194 18.6238C81.9824 20.2029 80.1052 21.7498 78.2441 23.3048C77.6398 23.8124 76.955 24.1508 76.1493 24.2313C75.0858 24.3441 74.0223 24.5053 72.9588 24.6422C70.1389 25.0048 67.319 25.3673 64.4991 25.7299C62.4526 25.9958 60.3981 26.2455 58.3597 26.5195C57.1029 26.6887 55.8621 27.0673 54.573 26.9546C53.4289 26.8579 52.2849 26.6887 51.1408 26.5275C48.337 26.1408 45.5413 25.7541 42.7375 25.3593C40.2721 25.0048 37.8067 24.6181 35.3171 24.4328C33.4882 24.2958 31.8124 23.7882 30.4266 22.5474C25.955 18.5512 21.2901 14.7887 16.883 10.728C16.6332 10.4944 16.3674 10.4219 16.0048 10.4702C16.6091 11.5015 17.0764 12.5731 17.6001 13.6204C19.8318 18.0356 22.0877 22.4346 24.3114 26.8498C26.6882 31.555 29.0328 36.2683 31.4095 40.9654C35.6877 49.4493 39.9901 57.909 44.2763 66.3768C47.2171 72.1858 50.1337 78.0028 53.0664 83.8199C53.582 84.8351 54.1621 85.8019 54.8631 86.7365C67.8265 61.2687 80.7739 35.8332 93.7293 10.3977Z" fill="white"/>
<path d="M159.795 26.674C159.795 23.8461 159.803 21.0181 159.787 18.1821C159.787 17.9001 159.835 17.7873 160.15 17.7954C161.092 17.8195 162.027 17.8195 162.97 17.7954C163.332 17.7873 163.372 17.9162 163.372 18.2224C163.356 20.3816 163.372 22.5408 163.356 24.7001C163.356 25.0143 163.437 25.0949 163.751 25.0949C166.023 25.0788 168.287 25.0788 170.559 25.0949C170.881 25.0949 170.946 24.9982 170.946 24.7001C170.93 22.5247 170.946 20.3574 170.93 18.1821C170.93 17.892 170.986 17.7873 171.3 17.7954C172.267 17.8195 173.234 17.8115 174.201 17.7954C174.451 17.7954 174.547 17.8437 174.547 18.1257C174.539 23.8219 174.539 29.5261 174.547 35.2223C174.547 35.4399 174.531 35.5607 174.257 35.5527C173.25 35.5366 172.243 35.5366 171.236 35.5527C170.962 35.5607 170.946 35.4399 170.946 35.2223C170.954 32.9584 170.938 30.6863 170.962 28.4223C170.962 28.0678 170.881 27.9792 170.527 27.9873C168.287 28.0034 166.039 28.0034 163.799 27.9873C163.477 27.9873 163.372 28.0517 163.372 28.3982C163.389 30.6541 163.372 32.902 163.389 35.1579C163.389 35.456 163.332 35.5607 163.002 35.5527C162.059 35.5285 161.125 35.5285 160.182 35.5527C159.844 35.5607 159.803 35.4479 159.803 35.1498C159.803 32.3299 159.795 29.502 159.795 26.674Z" fill="white"/>
<path d="M130.171 35.5515C128.955 35.5515 127.762 35.5515 126.57 35.5515C126.393 35.5515 126.36 35.4468 126.312 35.3098C125.998 34.3833 125.66 33.4728 125.361 32.5463C125.265 32.2563 125.12 32.1596 124.814 32.1596C122.703 32.1676 120.6 32.1676 118.489 32.1596C118.231 32.1596 118.142 32.2321 118.062 32.4899C117.764 33.4326 117.425 34.351 117.111 35.2856C117.039 35.4951 116.934 35.5596 116.708 35.5515C115.677 35.5354 114.638 35.5435 113.606 35.5515C113.308 35.5515 113.171 35.5757 113.357 35.1809C113.647 34.5766 113.808 33.9079 114.033 33.2714C114.597 31.7084 115.169 30.1534 115.733 28.5904C116.281 27.0596 116.805 25.5207 117.353 23.9899C117.925 22.3947 118.513 20.8075 119.093 19.2203C119.246 18.8094 119.399 18.3904 119.52 17.9714C119.569 17.8022 119.657 17.762 119.802 17.762C121.067 17.762 122.324 17.77 123.589 17.7539C123.814 17.7539 123.847 17.8828 123.903 18.0359C124.677 20.2193 125.45 22.4027 126.24 24.5781C127.529 28.1634 128.826 31.7406 130.115 35.3259C130.139 35.3984 130.147 35.4629 130.171 35.5515ZM121.76 22.0804C121.647 22.0966 121.639 22.153 121.623 22.2094C120.833 24.4894 120.044 26.7695 119.246 29.0496C119.166 29.2833 119.222 29.3236 119.44 29.3236C120.954 29.3155 122.469 29.3155 123.984 29.3236C124.233 29.3236 124.233 29.2349 124.169 29.0416C123.363 26.7131 122.566 24.3928 121.76 22.0804Z" fill="white"/>
<path d="M193.812 35.5513C192.587 35.5513 191.386 35.5513 190.178 35.5513C189.985 35.5513 189.985 35.4062 189.944 35.2854C189.63 34.375 189.3 33.4726 189.002 32.5622C188.905 32.2721 188.776 32.1674 188.47 32.1674C186.359 32.1754 184.256 32.1754 182.145 32.1674C181.903 32.1674 181.791 32.2157 181.702 32.4816C181.412 33.4243 181.066 34.3427 180.751 35.2773C180.687 35.4788 180.59 35.5593 180.357 35.5593C179.293 35.5432 178.238 35.5513 177.174 35.5513C176.908 35.5513 176.828 35.5432 176.973 35.229C177.255 34.6006 177.432 33.9318 177.666 33.2792C178.213 31.7404 178.777 30.2096 179.333 28.6707C179.889 27.1157 180.437 25.5608 181.001 24.0058C181.573 22.4105 182.153 20.8233 182.733 19.2361C182.878 18.8333 183.056 18.4385 183.16 18.0276C183.209 17.8181 183.297 17.7698 183.475 17.7698C184.723 17.7698 185.972 17.7778 187.221 17.7617C187.439 17.7617 187.487 17.8745 187.543 18.0357C188.204 19.8807 188.865 21.7257 189.525 23.5707C190.935 27.5025 192.353 31.4342 193.763 35.366C193.787 35.4062 193.795 35.4626 193.812 35.5513ZM185.392 22.056C185.328 22.0883 185.312 22.0963 185.303 22.1044C184.49 24.4328 183.676 26.7612 182.862 29.0897C182.79 29.2911 182.886 29.3153 183.048 29.3153C184.578 29.3153 186.101 29.3072 187.632 29.3153C187.841 29.3153 187.882 29.2508 187.817 29.0574C187.608 28.4693 187.406 27.8731 187.197 27.2849C186.601 25.5446 185.996 23.8124 185.392 22.056Z" fill="white"/>
<path d="M149.709 59.3757C148.541 59.3757 147.365 59.3757 146.18 59.3757C145.995 59.3757 145.939 59.2952 145.882 59.134C145.576 58.2236 145.23 57.3212 144.94 56.4108C144.843 56.1046 144.714 55.9918 144.384 55.9918C142.289 56.008 140.194 55.9999 138.099 55.9918C137.842 55.9918 137.721 56.0321 137.632 56.3222C137.342 57.2648 136.996 58.1833 136.681 59.1179C136.617 59.3032 136.536 59.3838 136.319 59.3838C135.255 59.3677 134.2 59.3757 133.136 59.3757C132.871 59.3757 132.75 59.3918 132.919 59.0373C133.209 58.417 133.386 57.7402 133.612 57.0956C134.168 55.5487 134.74 54.0018 135.296 52.4468C135.835 50.9402 136.367 49.4255 136.907 47.9269C137.495 46.2994 138.091 44.672 138.671 43.0445C138.825 42.6336 138.97 42.2146 139.099 41.7957C139.147 41.6265 139.235 41.5862 139.381 41.5862C140.645 41.5862 141.902 41.5942 143.167 41.5781C143.393 41.5781 143.425 41.7151 143.481 41.8682C144.279 44.0999 145.069 46.3317 145.874 48.5554C147.147 52.0923 148.42 55.6212 149.693 59.1582C149.717 59.2227 149.75 59.279 149.709 59.3757ZM141.33 45.8885C141.266 45.9127 141.25 45.9208 141.25 45.9288C140.436 48.2573 139.622 50.5857 138.808 52.9141C138.744 53.1075 138.817 53.1397 138.994 53.1397C140.525 53.1397 142.047 53.1317 143.578 53.1397C143.78 53.1397 143.844 53.0833 143.763 52.8819C143.626 52.5032 143.498 52.1246 143.369 51.7459C142.692 49.7961 142.007 47.8464 141.33 45.8885Z" fill="white"/>
<path d="M205.148 59.3757C203.955 59.3757 202.771 59.3757 201.595 59.3757C201.401 59.3757 201.361 59.279 201.305 59.126C200.991 58.1994 200.66 57.289 200.354 56.3625C200.265 56.0966 200.137 55.9838 199.846 55.9918C197.728 55.9999 195.601 55.9999 193.482 55.9918C193.248 55.9918 193.143 56.0482 193.071 56.29C192.765 57.2407 192.426 58.1833 192.112 59.126C192.047 59.3113 191.959 59.3838 191.749 59.3838C190.678 59.3677 189.598 59.3757 188.527 59.3757C188.285 59.3757 188.212 59.3677 188.341 59.0696C188.631 58.3928 188.825 57.6757 189.074 56.9748C189.606 55.5004 190.162 54.026 190.694 52.5516C191.25 51.0127 191.798 49.4658 192.346 47.9189C192.934 46.2914 193.522 44.6639 194.11 43.0364C194.263 42.6255 194.408 42.2066 194.529 41.7876C194.577 41.6184 194.674 41.5862 194.819 41.5862C196.084 41.5862 197.341 41.5942 198.606 41.5781C198.831 41.5781 198.864 41.7231 198.912 41.8762C199.444 43.3667 199.959 44.8492 200.499 46.3397C202.046 50.6421 203.601 54.9445 205.156 59.2388C205.156 59.2629 205.148 59.2952 205.148 59.3757ZM196.753 45.8724C196.688 45.9208 196.656 45.9369 196.648 45.953C195.842 48.2734 195.037 50.5857 194.231 52.9061C194.166 53.0994 194.231 53.1397 194.408 53.1397C195.939 53.1397 197.462 53.1317 198.992 53.1397C199.194 53.1397 199.258 53.0914 199.186 52.89C198.372 50.5615 197.566 48.225 196.753 45.8724Z" fill="white"/>
<path d="M128.744 47.1538C128.164 47.1538 127.592 47.1457 127.012 47.1618C126.795 47.1699 126.682 47.0974 126.577 46.904C125.924 45.6713 124.845 44.9703 123.523 44.7367C120.639 44.2291 118.141 45.5907 117.376 48.6604C116.973 50.2879 117.054 51.9395 117.787 53.4784C118.794 55.5812 120.953 56.6447 123.314 56.258C124.813 56.0163 125.876 55.2428 126.601 53.9537C126.682 53.8168 126.762 53.7845 126.875 53.7845C128.124 53.7765 129.373 53.7845 130.622 53.7765C130.823 53.7765 130.839 53.849 130.775 54.0182C129.784 56.7253 127.866 58.4253 125.103 59.2068C123.886 59.5533 122.629 59.6338 121.388 59.5049C119.568 59.3196 117.916 58.6509 116.49 57.4263C115.265 56.3789 114.459 55.0817 113.92 53.6154C113.477 52.4149 113.436 51.1338 113.485 49.8528C113.581 47.331 114.58 45.2201 116.425 43.5362C117.586 42.4808 118.987 41.8684 120.542 41.5784C122.661 41.1917 124.708 41.385 126.658 42.3196C128.64 43.2703 129.993 44.8011 130.75 46.8798C130.855 47.1699 130.759 47.1618 130.549 47.1618C129.953 47.1537 129.349 47.1538 128.744 47.1538Z" fill="white"/>
<path d="M152.142 50.522C152.142 47.6779 152.15 44.8338 152.134 41.9978C152.134 41.6997 152.198 41.6191 152.505 41.6191C154.68 41.6353 156.855 41.603 159.023 41.6353C160.827 41.6675 162.503 42.1187 163.768 43.5125C164.783 44.6244 165.162 45.9618 165.057 47.4765C164.985 48.5319 164.695 49.4746 164.074 50.3125C163.22 51.4646 162.036 52.0689 160.658 52.3751C159.313 52.6732 157.943 52.5523 156.589 52.5684C155.711 52.5845 155.711 52.5684 155.711 53.4466C155.711 55.2997 155.703 57.1447 155.719 58.9978C155.719 59.3281 155.615 59.3845 155.316 59.3765C154.374 59.3603 153.439 59.3523 152.497 59.3765C152.19 59.3845 152.126 59.304 152.126 59.0058C152.15 56.1779 152.142 53.3499 152.142 50.522ZM155.711 47.1059C155.711 47.8713 155.711 48.6367 155.711 49.394C155.711 49.5551 155.703 49.6841 155.929 49.676C157.041 49.6518 158.161 49.7405 159.264 49.6196C160.07 49.531 160.755 49.1765 161.142 48.4111C162.1 46.5177 160.956 44.5921 158.845 44.5518C157.911 44.5357 156.968 44.5599 156.025 44.5438C155.735 44.5357 155.703 44.6485 155.703 44.8902C155.719 45.6315 155.711 46.3646 155.711 47.1059Z" fill="white"/>
<path d="M144.327 26.6897C144.327 23.8859 144.335 21.0821 144.319 18.2864C144.319 17.9158 144.376 17.7949 144.787 17.7949C146.922 17.8191 149.057 17.7788 151.192 17.811C152.98 17.8433 154.648 18.2783 155.913 19.6319C156.969 20.7598 157.355 22.1134 157.251 23.6523C157.178 24.6916 156.888 25.6262 156.292 26.456C155.454 27.6162 154.253 28.2286 152.884 28.5428C152.207 28.6959 151.514 28.7281 150.821 28.7442C149.862 28.7684 148.896 28.6878 147.937 28.7925C147.856 29.7513 147.913 30.7181 147.905 31.6769C147.897 32.8451 147.889 34.0134 147.913 35.1736C147.921 35.4717 147.848 35.5522 147.542 35.5442C146.616 35.52 145.689 35.52 144.762 35.5442C144.432 35.5522 144.319 35.4958 144.319 35.1172C144.335 32.3214 144.327 29.5096 144.327 26.6897ZM147.905 23.2897C147.905 24.0551 147.913 24.8205 147.897 25.5779C147.897 25.7793 147.945 25.8598 148.162 25.8598C149.105 25.8518 150.04 25.884 150.982 25.8437C152.553 25.7712 153.383 25.1186 153.569 23.7812C153.762 22.3793 153.319 21.0338 151.546 20.784C150.402 20.6229 149.242 20.7518 148.09 20.7196C147.88 20.7115 147.897 20.8485 147.897 20.9854C147.905 21.7589 147.905 22.5243 147.905 23.2897Z" fill="white"/>
<path d="M178.487 51.9222C178.487 49.5776 178.479 47.225 178.495 44.8805C178.495 44.5582 178.399 44.4857 178.093 44.4857C176.763 44.5018 175.434 44.4776 174.104 44.5018C173.79 44.5098 173.734 44.4132 173.742 44.1231C173.766 43.3899 173.758 42.6487 173.742 41.9075C173.734 41.6819 173.798 41.6094 174.032 41.6094C178.189 41.6174 182.355 41.6174 186.512 41.6094C186.738 41.6094 186.81 41.6738 186.802 41.8994C186.786 42.6648 186.786 43.4302 186.802 44.1956C186.81 44.4696 186.705 44.4937 186.48 44.4937C185.15 44.4857 183.821 44.5018 182.492 44.4776C182.153 44.4696 182.04 44.5421 182.04 44.9127C182.057 49.5937 182.049 54.2748 182.057 58.9558C182.057 59.2781 182.008 59.3909 181.654 59.3748C180.703 59.3425 179.744 59.3506 178.794 59.3748C178.52 59.3828 178.471 59.2861 178.471 59.0364C178.487 56.6677 178.487 54.2989 178.487 51.9222Z" fill="white"/>
<path d="M207.565 50.5123C207.565 47.6843 207.573 44.8563 207.557 42.0284C207.557 41.7303 207.605 41.6175 207.943 41.6255C208.87 41.6497 209.796 41.6497 210.723 41.6255C211.053 41.6175 211.15 41.698 211.142 42.0364C211.134 46.5402 211.134 51.044 211.134 55.5478C211.134 56.5468 211.134 56.5468 212.125 56.5468C213.632 56.5468 215.13 56.5549 216.637 56.5388C216.911 56.5388 217.007 56.5952 216.999 56.8852C216.975 57.5942 216.983 58.3032 216.999 59.0203C217.007 59.2862 216.951 59.3829 216.653 59.3829C213.728 59.3667 210.804 59.3667 207.879 59.3829C207.597 59.3829 207.565 59.2781 207.565 59.0445C207.573 56.1923 207.565 53.3563 207.565 50.5123Z" fill="white"/>
<path d="M132.645 26.6559C132.645 23.8279 132.653 20.9999 132.637 18.172C132.637 17.8658 132.717 17.7933 133.015 17.8014C133.958 17.8255 134.893 17.8255 135.835 17.8014C136.158 17.7933 136.23 17.898 136.23 18.2042C136.222 22.8852 136.23 27.5663 136.214 32.2393C136.214 32.6582 136.335 32.7388 136.722 32.7307C138.389 32.7066 140.049 32.7307 141.717 32.7146C142.031 32.7146 142.095 32.8032 142.087 33.0933C142.063 33.8184 142.071 34.5435 142.087 35.2686C142.095 35.4942 142.023 35.5587 141.797 35.5587C138.849 35.5506 135.892 35.5506 132.943 35.5667C132.596 35.5667 132.661 35.3814 132.661 35.1881C132.645 32.344 132.645 29.4999 132.645 26.6559Z" fill="white"/>
<path d="M171.18 50.4818C171.18 53.3259 171.172 56.1699 171.188 59.014C171.188 59.3121 171.123 59.3927 170.817 59.3846C169.85 59.3604 168.884 59.3685 167.917 59.3846C167.683 59.3846 167.603 59.3443 167.603 59.0865C167.611 53.3742 167.611 47.6619 167.603 41.9496C167.603 41.6595 167.715 41.6354 167.949 41.6354C168.9 41.6434 169.858 41.6515 170.809 41.6354C171.107 41.6273 171.188 41.6998 171.188 42.006C171.18 44.8178 171.18 47.6538 171.18 50.4818Z" fill="white"/>
</svg>
