<svg width="227" height="89" viewBox="0 0 227 89" fill="none" xmlns="http://www.w3.org/2000/svg">
<g clip-path="url(#clip0_2038_11864)">
<path d="M30.6969 65.5553C30.6969 64.1772 30.6969 62.6268 30.6969 61.2487C30.6969 60.5597 30.5252 60.3874 29.8376 60.043C23.4775 57.8036 19.5238 53.3247 18.4926 46.6066C16.9455 36.7878 23.8212 28.5193 32.9316 27.3134C42.0419 26.2799 49.7772 31.7922 51.6681 40.7499C53.387 48.8461 48.7459 56.9422 40.495 60.043C39.8075 60.2153 39.6355 60.5597 39.6355 61.0766C39.6355 64.0051 39.6355 66.9334 39.6355 69.6895C39.6355 70.3785 39.8075 70.7231 40.495 70.2064C47.0269 66.761 53.5589 63.4882 60.0909 60.2153C60.9503 59.6985 61.2941 59.0093 61.2941 58.1482C61.2941 56.5978 61.2941 55.2197 61.2941 53.6693C61.2941 53.1526 61.4661 52.8082 62.1536 52.8082C64.5601 52.8082 67.1386 52.8082 69.545 52.8082C70.0606 52.8082 70.4045 52.808 70.4045 53.497C70.2326 55.7364 70.5764 58.1482 70.2326 60.3874C69.7169 63.8328 67.8262 66.4166 64.732 67.967C56.4811 72.2735 48.2301 76.4078 39.9792 80.7141C36.8851 82.2645 33.6191 82.4368 30.3532 80.8866C22.618 76.9245 14.8827 72.9626 7.14751 69.0005C5.08478 67.967 3.19396 66.7612 1.8188 64.8662C0.615545 63.1437 -0.0720404 61.2487 -0.0720404 59.3539C-0.243934 57.4591 -0.0720404 55.5641 -0.0720404 53.497C-0.0720404 52.9803 0.099843 52.8082 0.615526 52.8082C3.19394 52.8082 5.77235 52.8082 8.35075 52.8082C8.86644 52.8082 9.03834 52.9803 9.03834 53.497C9.03834 55.0474 9.03834 56.5978 9.03834 58.1482C9.03834 59.0093 9.38213 59.6984 10.2416 60.043C16.7736 63.3159 23.3056 66.7612 29.6656 70.0341C30.5252 70.5508 30.6969 70.3785 30.6969 69.3451C30.5252 68.4837 30.6969 66.9333 30.6969 65.5553ZM35.1662 36.4434C30.8688 36.4434 27.431 39.8886 27.431 44.3672C27.431 48.5015 31.0408 51.9468 35.1662 51.9468C39.4636 51.9468 42.7295 48.5015 42.7295 44.0228C42.9014 39.8886 39.2916 36.4434 35.1662 36.4434Z" fill="white"/>
<path d="M86.0469 67.9682C87.422 64.1786 88.6254 60.3888 89.8286 56.7713C93.4384 46.4357 96.8763 35.9278 100.486 25.5921C101.346 23.0082 103.236 21.4579 105.987 21.1134C108.393 20.7688 110.628 21.6302 112.175 23.5252C113.206 24.7309 113.55 26.2811 113.894 27.6592C118.363 40.7511 122.832 53.8428 127.13 66.9347C127.473 68.1405 127.473 68.1405 126.27 68.1405C123.864 68.1405 121.457 68.1405 119.051 68.1405C118.019 68.1405 117.504 67.7961 117.332 66.7624C116.644 64.0063 115.785 61.2501 114.925 58.494C114.753 57.8049 114.581 57.6326 113.894 57.8049C109.253 59.183 104.611 59.183 99.9704 57.8049C99.1109 57.4603 98.767 57.8049 98.5951 58.6661C97.7358 61.4222 96.8763 64.3509 96.0168 67.107C95.8448 67.4515 95.8448 67.9682 95.1573 67.9682C92.2352 67.9682 89.141 67.9682 86.0469 67.9682ZM106.846 51.0868C108.393 51.0868 110.112 50.9145 111.659 50.3976C112.175 50.2255 112.519 50.0532 112.347 49.3642C110.8 44.0242 109.081 38.684 107.534 33.3438C107.534 32.9994 107.362 32.6549 107.018 32.6549C106.674 32.6549 106.502 32.9994 106.502 33.3438C106.159 34.3775 105.815 35.5832 105.471 36.789C104.268 40.9232 102.893 45.0576 101.689 49.1919C101.517 49.8809 101.689 50.2255 102.377 50.3976C103.752 50.7422 105.299 50.9145 106.846 51.0868Z" fill="white"/>
<path d="M4.56953 36.1001C3.36627 36.1001 1.99113 36.1001 0.78787 36.1001C0.444082 36.1001 0.100305 36.1001 0.100305 35.5834C0.2722 32.9994 -0.243488 30.4155 0.444087 27.8317C1.13166 24.7309 3.02249 22.3192 5.94469 20.7688C14.0237 16.4623 22.2746 12.3281 30.3537 8.19385C33.4477 6.64351 36.8855 6.47129 39.9797 8.02164C47.0273 11.6391 54.075 15.2566 61.1227 18.874C63.0134 19.7353 64.9044 20.5967 66.4515 21.8025C69.0298 23.8696 70.405 26.4534 70.5769 29.7265C70.7487 31.6213 70.5769 33.344 70.5769 35.2388C70.5769 35.9278 70.405 36.1001 69.7174 36.1001C67.3108 36.1001 64.9044 36.1001 62.4978 36.1001C61.6383 36.1001 61.4664 35.7555 61.6383 35.0665C61.6383 33.6884 61.6383 32.138 61.6383 30.7599C61.6383 29.8986 61.2946 29.2096 60.4351 28.8651C52.5279 24.7309 44.6208 20.769 36.5418 16.6347C35.6823 16.1179 34.9947 16.2901 34.1352 16.6347C26.2282 20.769 18.3211 24.7309 10.4139 28.6928C9.55447 29.2097 9.03877 29.7263 9.21067 30.7599C9.21067 32.3103 9.21067 33.6884 9.21067 35.2388C9.21067 35.7555 9.03877 36.1001 8.3512 36.1001C6.97605 36.1001 5.77279 36.1001 4.56953 36.1001Z" fill="white"/>
<path d="M202.076 67.9689C198.81 67.9689 195.888 67.9689 192.794 67.9689C192.277 67.9689 192.106 67.6243 191.762 67.2797C188.153 62.112 184.542 57.1164 181.105 51.9487C180.932 51.7764 180.76 51.6041 180.59 51.2595C180.245 51.6041 180.417 51.9485 180.417 52.1208C180.417 56.9441 180.417 61.7674 180.417 66.763C180.417 67.6243 180.245 67.9689 179.385 67.9689C177.151 67.9689 175.088 67.9689 172.854 67.9689C171.994 67.9689 171.65 67.7966 171.65 66.763C171.65 55.7383 171.65 44.5414 171.65 33.5168C171.65 29.5547 171.65 25.7651 171.65 21.803C171.65 20.9418 171.822 20.7695 172.682 20.7695C174.916 20.7695 177.151 20.7695 179.385 20.7695C180.245 20.7695 180.417 21.114 180.417 21.803C180.417 29.3826 180.417 36.9618 180.417 44.5414C180.417 44.8859 180.417 45.2305 180.417 45.7472C180.932 45.7472 180.932 45.2305 181.277 45.0582C184.199 41.0962 187.121 37.1341 190.043 33.1722C190.387 32.8278 190.559 32.4832 191.075 32.4832C194.341 32.4832 197.435 32.4832 200.872 32.4832C200.012 33.6889 199.153 34.7226 198.293 35.7561C195.371 39.3736 192.622 42.9911 189.7 46.6085C188.325 48.3311 188.325 48.5034 189.527 50.226C193.309 55.7383 197.263 61.0785 201.044 66.5908C201.56 67.1076 201.732 67.452 202.076 67.9689Z" fill="white"/>
<path d="M155.148 67.6242C155.148 63.49 155.148 59.3557 155.148 55.2215C155.148 51.0873 155.148 46.9529 155.148 42.8187C155.32 42.8187 155.32 42.6465 155.148 42.6465C154.632 40.9238 154.117 40.7517 152.398 40.7517C149.647 40.7517 147.069 40.7517 144.319 40.7517C142.6 40.7517 141.912 41.4406 141.912 43.1633C141.912 51.0873 141.912 59.0113 141.912 67.1075C141.912 68.1411 141.568 68.3132 140.709 68.3132C138.474 68.3132 136.24 68.3132 134.005 68.3132C133.318 68.3132 132.974 68.1411 132.974 67.4521C132.974 58.4944 132.974 49.5369 132.974 40.4071C132.974 36.6173 136.411 33 140.365 33C145.694 33 151.022 33 156.351 33C160.305 33 163.743 36.4452 163.743 40.4071C163.743 49.3646 163.743 58.4944 163.743 67.4521C163.743 67.9688 163.743 68.3132 163.055 68.3132C160.477 68.3132 158.07 68.3132 155.492 68.3132C155.32 68.3132 155.148 68.3132 154.976 68.1409C155.32 67.6242 155.32 67.6242 155.148 67.6242Z" fill="white"/>
<path d="M207.233 53.4977C207.233 49.1912 207.233 44.8847 207.233 40.5783C207.233 36.0995 210.67 32.6543 214.968 32.6543C218.578 32.6543 222.359 32.6543 225.968 32.6543C226.656 32.6543 227 32.8266 226.828 33.6878C226.828 35.5828 226.828 37.6499 226.828 39.5447C226.828 40.406 226.656 40.5783 225.798 40.5783C223.219 40.5783 220.812 40.5783 218.233 40.5783C216.686 40.5783 215.828 41.2674 215.828 42.9899C215.828 50.9139 215.828 58.8377 215.828 66.9341C215.828 67.9677 215.483 68.1398 214.624 68.1398C212.561 68.1398 210.499 67.9677 208.263 68.1398C207.233 68.1398 207.061 67.7954 207.061 66.7618C207.233 62.2831 207.233 57.8043 207.233 53.4977Z" fill="white"/>
<path d="M220.983 65.04C220.983 63.3174 222.186 62.1116 223.905 61.9395C225.625 61.9395 226.827 63.3175 226.999 64.8677C226.999 66.5904 225.625 67.7962 224.078 67.9685C222.358 67.9685 220.983 66.7627 220.983 65.04ZM223.905 67.2795C225.28 67.2795 226.312 66.2458 226.312 65.04C226.312 63.8343 225.108 62.6283 223.905 62.6283C222.703 62.6283 221.671 63.662 221.671 64.8677C221.671 66.246 222.703 67.2795 223.905 67.2795Z" fill="white"/>
<path d="M155.148 42.4727C155.32 42.4727 155.32 42.645 155.148 42.645C155.148 42.645 155.148 42.645 155.148 42.4727Z" fill="white"/>
<path d="M155.148 67.623C155.32 67.623 155.32 67.7953 155.148 67.7953C155.148 67.623 155.148 67.623 155.148 67.623Z" fill="white"/>
<path d="M223.905 67.2799C222.703 67.2799 221.671 66.2464 221.671 64.8683C221.671 63.6626 222.703 62.6289 223.905 62.6289C225.108 62.6289 226.312 63.8347 226.312 65.0406C226.312 66.2464 225.28 67.4522 223.905 67.2799ZM222.873 64.8683C222.873 65.2129 222.873 65.7295 222.873 66.0741C222.873 66.2464 223.046 66.4185 223.046 66.4185C223.218 66.4185 223.39 66.4187 223.39 66.2464C223.733 64.696 224.078 65.7297 224.42 66.2464C224.593 66.4187 224.765 66.5908 224.937 66.4185C225.28 66.2464 224.937 66.0741 224.937 65.9018C224.593 65.5574 224.937 65.2128 225.108 65.0406C225.452 64.3514 225.108 63.6626 224.25 63.6626C222.873 63.3179 222.873 63.4902 222.873 64.8683Z" fill="white"/>
<path d="M223.906 64.1797C224.25 64.1797 224.421 64.1797 224.421 64.5241C224.421 64.8687 224.078 65.0408 223.906 65.0408C223.563 65.0408 223.391 64.8687 223.391 64.5241C223.391 64.1797 223.733 64.1797 223.906 64.1797Z" fill="white"/>
</g>
<defs>
<clipPath id="clip0_2038_11864">
<rect width="227" height="89" fill="white"/>
</clipPath>
</defs>
</svg>
