<svg width="227" height="89" viewBox="0 0 227 89" fill="none" xmlns="http://www.w3.org/2000/svg">
<g clip-path="url(#clip0_2934_14752)">
<path d="M54.1295 25.1228C52.712 24.548 51.1077 24.8632 50.026 25.9386L35.9434 39.9367V47.5384L51.0331 32.5576V57.5318H25.9645L23.0733 52.8782L12.9824 62.9086H52.6933C54.7636 62.9086 56.4422 61.2398 56.4422 59.182V28.5899C56.4422 27.0695 55.5284 25.7161 54.1295 25.1228Z" fill="white"/>
<path d="M12.8145 57.5323L29.4338 41.0126V56.4386H34.8429V37.0264C34.8429 35.5061 33.929 34.1526 32.53 33.5779C31.1124 33.0031 29.5084 33.3183 28.4265 34.3936L-0.260742 62.9091H11.397L16.8061 57.5323H12.8145Z" fill="white"/>
<path d="M187.14 62.8343H204.561V58.9593H191.504V51.4317H204.561V47.6311H191.504V39.8996H204.561V36.2285H187.14V62.8343Z" fill="white"/>
<path d="M218.587 48.8362L226.421 36.2285H221.963L217.878 42.7734C217.58 43.2739 217.3 43.756 217.058 44.1639C216.815 44.5903 216.61 44.9797 216.405 45.3691L216.125 44.8499C215.565 43.7745 215.174 43.0886 214.969 42.7363L211.107 36.2285H206.538L214.222 48.9103L205.53 62.8343H210.137L214.819 55.2326C215.099 54.7692 215.36 54.3242 215.603 53.8793C215.845 53.4343 216.069 53.0079 216.274 52.5999C216.685 53.3972 217.132 54.2501 217.636 55.1585L217.71 55.2882L222.187 62.8343H227L218.587 48.8362Z" fill="white"/>
<path d="M76.4564 36.6543H72.5207L62.2246 62.8337H66.6451L69.5549 55.3248H79.3102L82.1639 62.8337H86.7337L76.5122 36.7841L76.4564 36.6543ZM71.0657 51.2828L74.4791 42.3092L77.8178 51.2828H71.0657Z" fill="white"/>
<path d="M119.133 55.3804C118.592 56.5114 117.828 57.4013 116.876 58.0317C115.925 58.6435 114.825 58.9587 113.65 58.9587C111.878 58.9587 110.385 58.3284 109.192 57.0861C107.998 55.8439 107.401 54.2495 107.401 52.3582C107.401 50.5043 107.998 48.9097 109.173 47.6489C110.348 46.3882 111.784 45.7578 113.463 45.7578C114.769 45.7578 115.906 46.0359 116.839 46.6106C117.772 47.1855 118.555 48.0567 119.152 49.2064L119.208 49.3177H123.498L123.405 49.0394C122.64 46.7775 121.409 44.9976 119.73 43.7369C118.052 42.4761 116.037 41.8457 113.762 41.8457C112.307 41.8457 110.908 42.1238 109.639 42.6986C108.352 43.2548 107.196 44.1077 106.17 45.183C105.237 46.1842 104.529 47.2966 104.062 48.5019C103.577 49.707 103.354 51.0233 103.354 52.3953C103.354 53.7302 103.615 55.0653 104.137 56.3629C104.659 57.6423 105.405 58.7918 106.319 59.756C107.289 60.7757 108.408 61.5545 109.621 62.0551C110.833 62.5742 112.195 62.8152 113.668 62.8152C116.018 62.8152 118.052 62.1849 119.693 60.9611C121.334 59.7373 122.584 57.9019 123.423 55.5287L123.517 55.2507H119.227L119.133 55.3804Z" fill="white"/>
<path d="M143.082 46.4809C142.113 45.0347 140.844 43.8852 139.352 43.0694C137.841 42.2536 136.2 41.8457 134.446 41.8457C132.973 41.8457 131.593 42.1238 130.362 42.6615C129.112 43.1992 127.993 44.0335 127.004 45.1088C126.072 46.11 125.363 47.2225 124.896 48.4275C124.411 49.6328 124.188 50.9492 124.188 52.3397C124.188 53.6745 124.449 55.0096 124.971 56.3075C125.493 57.5867 126.239 58.7361 127.153 59.7004C128.142 60.7385 129.261 61.5173 130.474 62.0364C131.686 62.5557 133.048 62.8152 134.521 62.8152C136.703 62.8152 138.643 62.2218 140.303 61.0539C141.945 59.8858 143.25 58.1986 144.164 56.0108L144.295 55.7141H139.874L139.818 55.8254C139.277 56.8081 138.531 57.5682 137.617 58.1058C136.703 58.6435 135.659 58.9031 134.54 58.9031C132.973 58.9031 131.611 58.4025 130.474 57.4385C129.392 56.5114 128.701 55.3063 128.384 53.86H144.817V53.0998C144.817 51.7278 144.668 50.5043 144.407 49.4287C144.09 48.3721 143.661 47.3709 143.082 46.4809ZM128.478 50.3188C128.907 48.9281 129.634 47.8159 130.66 47.0001C131.742 46.1286 133.048 45.7022 134.54 45.7022C135.995 45.7022 137.244 46.1286 138.289 46.9814C139.259 47.7787 139.986 48.9097 140.415 50.3373H128.478V50.3188Z" fill="white"/>
<path d="M180.871 44.9797C179.995 44.1825 179.062 43.5706 178.036 43.1442C176.88 42.6621 175.611 42.4211 174.269 42.4211C172.758 42.4211 171.377 42.6806 170.184 43.1813C168.99 43.6819 167.889 44.4605 166.882 45.4988C165.968 46.4444 165.241 47.5567 164.756 48.799C164.271 50.0412 164.01 51.3763 164.01 52.7668C164.01 55.7519 165.017 58.2733 166.994 60.2572C168.971 62.2409 171.489 63.2423 174.474 63.2423C175.761 63.2423 176.973 63.0013 178.111 62.5007C179.1 62.0742 180.013 61.4808 180.834 60.7022V62.8343H184.826V36.2285H180.871V44.9797ZM179.1 57.5317C177.831 58.8296 176.339 59.4784 174.66 59.4784C172.832 59.4784 171.266 58.8296 169.997 57.5502C168.729 56.271 168.095 54.6394 168.095 52.7483C168.095 50.9311 168.729 49.3924 169.997 48.1317C171.266 46.8707 172.814 46.2405 174.586 46.2405C176.32 46.2405 177.85 46.9079 179.1 48.2243C180.368 49.5406 181.002 51.1352 181.002 52.9892C181.021 54.7135 180.368 56.2338 179.1 57.5317Z" fill="white"/>
<path d="M94.5864 45.684C94.7171 45.6654 94.829 45.6654 94.9781 45.6654C95.4072 45.6654 95.7988 45.7396 96.172 45.8509C97.0113 46.1475 97.6828 46.7779 98.0184 47.5937H102.308C102.103 46.2958 101.395 45.1278 100.35 44.2193C99.9584 43.8114 99.4921 43.4776 98.951 43.1995C98.2982 42.8658 97.5521 42.6248 96.7128 42.495C96.172 42.3838 95.6122 42.3281 95.034 42.3281C93.803 42.3281 92.628 42.5506 91.602 42.9771C91.5087 43.0141 91.4155 43.0512 91.3222 43.0883C91.2663 43.1068 91.229 43.1254 91.1731 43.1625C90.6881 43.3849 90.2405 43.6445 89.8488 43.9597C88.5058 45.0165 87.853 46.3885 87.853 48.0758C87.853 49.318 88.2632 50.3749 89.0654 51.2463C89.886 52.1175 91.3037 52.9704 93.3367 53.8047C93.6912 53.9716 94.2134 54.157 94.8849 54.3981C96.8807 55.1397 97.8693 56.0112 97.8693 57.0493C97.8693 57.8281 97.5895 58.44 97.03 58.885C96.4702 59.3299 95.7055 59.5523 94.7171 59.5523C93.5793 59.5523 92.6467 59.3114 91.9191 58.8108C91.9004 58.7922 91.8818 58.7922 91.8446 58.7737C91.1544 58.2731 90.6322 57.5499 90.427 56.66H86.2861C86.3235 57.513 86.6033 58.3103 87.0509 59.0704C87.7224 60.2755 88.6178 61.1841 89.7181 61.7957C90.8933 62.4448 92.3483 62.7969 94.0827 62.8341C94.1201 62.8341 94.1575 62.8341 94.176 62.8341C94.2321 62.8341 94.288 62.8341 94.3625 62.8341C96.7874 62.8341 98.7086 62.2963 100.089 61.221C101.469 60.1457 102.159 58.6624 102.159 56.7713C102.159 55.4549 101.786 54.3796 101.022 53.4895C100.257 52.6183 99.0071 51.8395 97.2537 51.135C96.862 50.968 96.3211 50.7642 95.5938 50.5231C93.3367 49.7073 92.2176 48.8174 92.2176 47.8162C92.2176 47.6678 92.2363 47.538 92.255 47.3898C92.7026 46.4998 93.5606 45.8509 94.5864 45.684Z" fill="white"/>
<path d="M154.516 42.3652C149.76 42.3652 145.898 46.2031 145.898 50.9309V62.8341H149.872V51.2833C149.872 48.7431 151.961 46.6667 154.516 46.6667C157.071 46.6667 159.16 48.7431 159.16 51.2833V62.8341H163.133V50.9309C163.133 46.2031 159.272 42.3652 154.516 42.3652Z" fill="white"/>
</g>
<defs>
<clipPath id="clip0_2934_14752">
<rect width="227" height="89" fill="white"/>
</clipPath>
</defs>
</svg>
