<svg width="227" height="88" viewBox="0 0 227 88" fill="none" xmlns="http://www.w3.org/2000/svg">
<path d="M38.899 48.6421C46.9987 50.1158 52.5366 52.9895 52.5366 56.3053C52.5366 61.0947 41.0087 65 26.7683 65C12.5279 65 1 61.1316 1 56.3053C1 52.9895 6.50025 50.1158 14.6376 48.6421C18.1789 49.5263 22.3229 50.0421 26.7683 50.0421C31.2137 50.0421 35.3577 49.5632 38.899 48.6421ZM35.8098 34.6053C42.7039 35.7105 47.4507 38.0684 47.4507 40.8316C47.4507 44.6263 38.1832 47.7211 26.7683 47.7211C15.3534 47.7211 6.08585 44.6263 6.08585 40.7947C6.08585 38.0684 10.8326 35.7105 17.7268 34.5684C20.3639 35.2316 23.4531 35.6 26.7683 35.6C30.0458 35.6368 33.135 35.2316 35.8098 34.6053ZM26.8436 23C35.3954 23 42.3272 25.3579 42.3272 28.2316C42.3272 31.1053 35.3954 33.4632 26.8436 33.4632C18.2919 33.4632 11.3601 31.1053 11.3601 28.2316C11.3601 25.3579 18.2919 23 26.8436 23ZM85.3874 57.6316C87.5347 57.6316 89.3431 57.3 90.737 56.6737C92.1685 56.0105 93.2234 55.1263 93.9392 53.9842C94.6549 52.8421 95.0317 51.5158 94.994 50.1526C94.994 48.7526 94.6926 47.5737 94.1275 46.5789C93.5624 45.6211 92.809 44.8474 91.8671 44.2947C91.0007 43.7789 90.0212 43.4474 89.004 43.4105V43.1526C89.8705 42.9684 90.737 42.6 91.4904 42.0842C92.2439 41.6053 92.809 40.9421 93.261 40.1684C93.7131 39.3947 93.9015 38.4368 93.9015 37.2947C93.9015 35.9316 93.5624 34.7158 92.8843 33.6474C92.2062 32.5789 91.189 31.7316 89.8328 31.1053C88.4766 30.4789 86.7813 30.1842 84.747 30.1842H73.9725V57.6684H85.3874V57.6316ZM84.1442 41.8263H79.096V34.2368H84.2572C85.7641 34.2368 86.8943 34.6053 87.6478 35.2684C88.4012 35.9684 88.8156 36.8158 88.8156 37.8842C88.8156 38.6947 88.5896 39.3947 88.2129 39.9842C87.7985 40.5737 87.2334 41.0158 86.5553 41.3474C85.7641 41.6789 84.973 41.8263 84.1442 41.8263ZM84.5963 53.4684H79.1337V45.4H84.747C85.8018 45.4 86.7059 45.5842 87.4594 45.9895C88.2129 46.3579 88.8156 46.8737 89.23 47.5368C89.6444 48.2 89.8705 48.9368 89.8705 49.7474C89.8705 50.8526 89.4561 51.7368 88.6273 52.4368C87.7608 53.1368 86.4422 53.4684 84.5963 53.4684ZM104.224 58.0368C105.316 58.0368 106.258 57.8895 107.087 57.5947C107.916 57.3 108.594 56.8947 109.121 56.4158C109.686 55.9368 110.101 55.3842 110.402 54.7947H110.553V57.6316H115.337V43.8526C115.337 42.4895 115.074 41.3474 114.584 40.4263C114.094 39.5421 113.416 38.8053 112.587 38.2526C111.721 37.7 110.817 37.3316 109.837 37.1105C108.858 36.8526 107.84 36.7789 106.823 36.7789C105.354 36.7789 103.998 37 102.792 37.4053C101.624 37.8105 100.57 38.4737 99.7031 39.321C98.8366 40.2053 98.2339 41.3105 97.8948 42.4895L102.529 43.1526C102.755 42.4526 103.244 41.8263 103.96 41.3105C104.676 40.7947 105.618 40.5368 106.861 40.5368C108.029 40.5368 108.895 40.7947 109.498 41.3842C110.101 41.9368 110.44 42.7105 110.44 43.7421V43.8158C110.44 44.2579 110.252 44.6263 109.912 44.8474C109.573 45.0684 109.008 45.2158 108.217 45.3263C107.426 45.4368 106.447 45.5474 105.203 45.6579C104.224 45.7684 103.207 45.9158 102.227 46.1737C101.323 46.3947 100.457 46.7263 99.6278 47.2053C98.8743 47.6474 98.2715 48.2737 97.8195 49.0474C97.3674 49.8211 97.1414 50.7789 97.1414 51.9211C97.1414 53.2842 97.4427 54.4263 98.0832 55.3474C98.6859 56.2684 99.5524 56.9684 100.607 57.4474C101.662 57.8158 102.868 58.0368 104.224 58.0368ZM105.505 54.4632C104.45 54.4632 103.621 54.2421 102.943 53.7632C102.265 53.3211 101.926 52.6211 101.926 51.7368C101.926 51.1105 102.077 50.5947 102.453 50.1895C102.792 49.7842 103.244 49.4895 103.809 49.2684C104.45 49.0105 105.128 48.8632 105.806 48.7895L106.974 48.6421C107.426 48.6053 107.878 48.4947 108.33 48.4211C108.782 48.3474 109.197 48.2368 109.573 48.1263C109.95 48.0158 110.214 47.9053 110.365 47.7579V50.1895C110.365 50.9632 110.176 51.6632 109.762 52.2895C109.347 52.9526 108.782 53.4684 108.067 53.8368C107.351 54.279 106.484 54.4632 105.505 54.4632ZM124.228 57.6316V30.1474H119.255V57.6316H124.228ZM134.325 58.0368C135.417 58.0368 136.397 57.8895 137.188 57.5947C138.016 57.3 138.695 56.8947 139.222 56.4158C139.787 55.9368 140.202 55.3842 140.503 54.7947H140.654V57.6316H145.476V43.8526C145.476 42.4895 145.212 41.3474 144.722 40.4263C144.233 39.5421 143.554 38.8053 142.726 38.2526C141.859 37.7 140.955 37.3316 139.975 37.1105C138.996 36.8526 137.979 36.7789 136.962 36.7789C135.492 36.7789 134.136 37 132.931 37.4053C131.763 37.8105 130.708 38.4737 129.841 39.321C128.975 40.2053 128.335 41.3105 128.033 42.4895L132.667 43.1526C132.931 42.4526 133.383 41.8263 134.099 41.3105C134.814 40.7947 135.756 40.5368 136.999 40.5368C138.167 40.5368 139.034 40.7947 139.636 41.3842C140.239 41.9368 140.541 42.7105 140.541 43.7421V43.8158C140.541 44.2579 140.352 44.6263 140.013 44.8474C139.674 45.0684 139.109 45.2158 138.318 45.3263C137.564 45.4368 136.547 45.5474 135.304 45.6579C134.287 45.7684 133.307 45.9158 132.328 46.1737C131.424 46.3947 130.557 46.7263 129.766 47.2053C129.013 47.6474 128.372 48.2737 127.958 49.0474C127.506 49.8211 127.317 50.7789 127.317 51.9211C127.317 53.2842 127.619 54.4263 128.259 55.3474C128.862 56.2684 129.728 56.9684 130.783 57.4474C131.8 57.8158 133.006 58.0368 134.325 58.0368ZM135.643 54.4632C134.626 54.4632 133.759 54.2421 133.081 53.7632C132.403 53.3211 132.102 52.6211 132.102 51.7368C132.102 51.1105 132.253 50.5947 132.592 50.1895C132.931 49.7842 133.383 49.4895 133.985 49.2684C134.626 49.0105 135.304 48.8632 135.982 48.7895L137.15 48.6421C137.602 48.6053 138.054 48.4947 138.506 48.4211C138.958 48.3474 139.373 48.2368 139.749 48.1263C140.126 48.0158 140.39 47.9053 140.541 47.7579V50.1895C140.541 50.9632 140.352 51.6632 139.938 52.2895C139.523 52.9526 138.958 53.4684 138.243 53.8368C137.489 54.279 136.623 54.4632 135.643 54.4632ZM154.367 57.6316V45.5474C154.367 44.5526 154.555 43.7053 154.969 43.0053C155.346 42.3053 155.873 41.7526 156.552 41.3842C157.267 41.0158 158.058 40.8316 158.85 40.8316C160.131 40.8316 161.148 41.2368 161.863 42.0105C162.579 42.7842 162.956 43.8526 162.956 45.2526V57.6316H167.929V44.5158C167.929 42.8579 167.627 41.4579 167.062 40.3158C166.46 39.1737 165.631 38.2895 164.538 37.6632C163.446 37.0368 162.165 36.7421 160.733 36.7421C159.151 36.7421 157.832 37.0737 156.778 37.7737C155.723 38.4368 154.932 39.3947 154.442 40.5368H154.178V37.0368H149.431V57.6684H154.367V57.6316ZM181.114 58.0368C182.885 58.0368 184.43 57.7053 185.71 57.0789C186.991 56.4895 188.046 55.5684 188.837 54.4263C189.591 53.2842 190.043 51.9947 190.156 50.5579H185.409C185.296 51.221 184.995 51.8842 184.58 52.4368C184.204 52.9526 183.714 53.3579 183.111 53.6158C182.508 53.8737 181.868 54.0211 181.152 54.0211C180.097 54.0211 179.231 53.7632 178.44 53.2105C177.686 52.6579 177.083 51.8842 176.669 50.8895C176.255 49.8947 176.028 48.6789 176.028 47.2789C176.028 45.8789 176.255 44.7 176.669 43.7053C177.083 42.7105 177.686 41.9368 178.477 41.4211C179.231 40.8684 180.135 40.6105 181.152 40.6105C182.358 40.6105 183.299 40.9421 184.015 41.6053C184.731 42.2684 185.183 43.1158 185.371 44.1105H190.118C190.005 42.6368 189.553 41.3105 188.762 40.2053C187.971 39.1 186.878 38.179 185.597 37.6263C184.279 37 182.772 36.7053 181.039 36.7053C178.967 36.7053 177.196 37.1474 175.689 38.0684C174.183 38.9526 172.977 40.2789 172.186 41.8263C171.357 43.4105 170.943 45.2895 170.943 47.3895C170.943 49.4895 171.357 51.3316 172.148 52.9158C172.977 54.5 174.107 55.7526 175.614 56.6737C177.196 57.5947 179.005 58.0368 181.114 58.0368ZM202.513 58.0368C204.133 58.0368 205.602 57.7789 206.883 57.3C208.164 56.8211 209.181 56.1211 210.009 55.2368C210.838 54.3526 211.403 53.2842 211.667 52.1053L207.033 51.5895C206.807 52.1789 206.468 52.6579 206.054 53.0632C205.602 53.4684 205.112 53.7632 204.509 53.9474C203.869 54.1684 203.228 54.2789 202.55 54.2421C201.458 54.2421 200.516 54.0211 199.725 53.5789C198.896 53.1368 198.256 52.4368 197.841 51.6263C197.389 50.779 197.163 49.7474 197.163 48.5316V48.6421H211.855V47.1684C211.855 45.3632 211.592 43.8158 211.064 42.4895C210.537 41.1632 209.859 40.0947 208.955 39.2474C208.088 38.4 207.033 37.7737 205.865 37.3684C204.698 36.9632 203.454 36.7421 202.174 36.7421C200.177 36.7421 198.406 37.1842 196.937 38.1053C195.43 39.0263 194.225 40.3158 193.471 41.8632C192.642 43.4474 192.228 45.3263 192.228 47.4632C192.228 49.6368 192.642 51.4789 193.471 53.0632C194.3 54.6474 195.468 55.9 197.012 56.7474C198.557 57.5947 200.403 58.0368 202.513 58.0368ZM197.201 45.2158C197.238 44.4789 197.464 43.7789 197.841 43.1158C198.256 42.3421 198.858 41.7158 199.649 41.2368C200.441 40.7579 201.382 40.5 202.324 40.5368C203.266 40.5368 204.095 40.7579 204.811 41.1632C205.526 41.6053 206.092 42.1579 206.506 42.8947C206.92 43.6316 207.109 44.4421 207.109 45.4H197.201V45.2158ZM219.993 57.6316V45.5105C219.993 44.6263 220.181 43.8526 220.596 43.1895C221.01 42.5263 221.575 41.9737 222.291 41.6053C223.044 41.2 223.873 41.0158 224.702 41.0158C225.116 41.0158 225.568 41.0526 226.02 41.0895C226.473 41.1632 226.812 41.2 227 41.2737V36.8158C226.736 36.7789 226.435 36.7421 226.133 36.7053C225.832 36.6684 225.531 36.6684 225.192 36.6684C223.986 36.6684 222.894 37 221.952 37.6263C221.01 38.2895 220.37 39.1737 219.955 40.3895H219.729V36.9632H214.907V57.5947H219.993V57.6316Z" fill="white"/>
</svg>
