<svg width="227" height="89" viewBox="0 0 227 89" fill="none" xmlns="http://www.w3.org/2000/svg">
<g clip-path="url(#clip0_2934_14790)">
<path d="M36.2954 5.85934C36.6816 6.03491 37.103 6.03491 37.5244 6.10514C39.3503 6.45628 40.8603 7.40437 42.4404 8.31735C49.7793 12.6364 57.1534 16.9204 64.4923 21.2044C67.7229 23.1005 69.5839 25.9448 70.1106 29.6318C70.3213 31.0013 70.216 32.4059 70.1808 33.8105C70.1106 35.496 70.1457 37.1815 70.1457 38.8669C70.1457 43.3616 70.1809 47.8914 70.1106 52.386C70.0755 54.5982 70.1808 56.8456 70.0404 59.0578C69.7946 63.1662 67.8282 66.3265 64.2465 68.3982C56.7671 72.7173 49.2526 76.9662 41.7381 81.2501C40.2633 82.0929 38.7885 82.9005 37.103 83.2517C36.6114 83.357 36.0847 83.3219 35.5931 83.4974C35.1015 83.4974 34.5747 83.4974 34.0831 83.4974C34.0129 83.3921 33.8725 83.4272 33.7671 83.3921C32.2572 83.2868 30.8175 82.8654 29.4832 82.128C26.99 80.7234 24.532 79.2486 22.0389 77.8089C16.5259 74.5784 11.0481 71.383 5.5351 68.1524C3.00686 66.6776 1.25112 64.5707 0.303034 61.7616C0.0221182 60.9891 -0.0481022 60.1463 -0.258789 59.3738C-0.258789 56.8456 -0.258789 54.3173 -0.258789 51.7891C-0.153446 51.7188 -0.153471 51.6135 -0.153471 51.5082C-0.153471 49.928 -0.153463 48.383 -0.188577 46.8028C-0.188577 41.6761 -0.153471 36.5494 -0.153471 31.4227C-0.153471 29.2105 0.232805 27.0685 1.35647 25.1372C2.09387 23.8731 3.04195 22.7494 4.20073 21.8364C5.28928 20.9586 6.51829 20.3967 7.71218 19.6593C8.2389 19.3433 8.76564 19.2028 9.36259 19.2731C13.8221 19.8349 17.1229 23.7677 16.8419 28.2624L16.8068 28.2975C16.8068 28.3326 16.8068 28.3677 16.8419 28.3677C16.8419 35.3555 16.8419 42.3433 16.8419 49.3311L16.8068 49.3662C16.8068 49.4013 16.8419 49.4364 16.8419 49.4364C16.8771 50.1036 16.9122 50.7356 17.0175 51.4028C17.5091 54.0715 18.8786 56.2486 20.7396 58.1097C22.2847 59.6547 24.0755 60.9188 26.0771 61.8669C29.5534 63.5173 33.1702 64.0089 36.9275 63.4822C41.4923 62.8501 45.3198 60.7433 48.3748 57.302C52.0618 53.0883 53.5717 48.1723 53.0099 42.6242C52.7289 39.7799 51.7106 37.1463 50.2007 34.6883C48.5152 31.9494 46.1625 30.0532 43.0373 29.2105C39.245 28.157 35.4878 27.1036 31.6954 26.0853C30.2908 25.699 29.132 26.612 29.132 28.0868C29.132 29.9128 29.132 31.7387 29.132 33.5647C29.132 34.6883 29.9397 35.812 31.0282 36.0929C32.9946 36.6547 34.9961 37.1815 36.9626 37.7433C37.9809 38.0242 39.0343 38.1647 39.9122 38.7616C41.9839 40.096 42.8969 42.1326 43.1076 44.4853C43.3534 47.3998 42.3702 49.8578 40.1229 51.754C38.1213 53.4395 35.7335 54.0715 33.1702 53.615C31.274 53.299 29.6587 52.4211 28.3595 50.9814C27.4465 49.9982 26.8496 48.8043 26.8496 47.47C26.8145 37.7433 26.8496 28.0166 26.8496 18.2899C26.8496 17.6227 26.8847 16.9906 26.9198 16.3235C27.1656 13.1983 28.1839 10.3891 29.8694 7.75552C30.361 6.983 30.9931 6.56163 31.8359 6.31582C32.5381 6.14025 33.2404 6.03491 33.9427 5.82422C34.6801 5.85933 35.4877 5.85934 36.2954 5.85934Z" fill="white"/>
<path d="M110.527 44.589C111.124 44.7646 111.721 44.905 112.283 45.2211C114.109 46.2394 115.022 47.8547 115.127 49.8913C115.197 51.6821 115.233 53.473 115.127 55.2638C114.881 59.2318 112.388 61.9005 108.455 62.4272C107.823 62.4974 107.191 62.5325 106.524 62.5325C102.17 62.5325 97.8158 62.5325 93.4616 62.5325C92.6189 62.5325 92.373 62.2867 92.373 61.444C92.373 50.4883 92.373 39.5325 92.373 28.5768C92.373 27.7341 92.6188 27.4883 93.4265 27.4883C97.8509 27.4883 102.24 27.4531 106.665 27.4883C108.947 27.4883 111.019 28.1203 112.669 29.8058C113.793 30.9646 114.425 32.4043 114.601 33.9844C114.846 35.8806 114.846 37.7768 114.636 39.673C114.39 41.9203 113.126 43.4302 111.054 44.273C110.914 44.3432 110.738 44.4134 110.597 44.4837C110.562 44.5188 110.527 44.5188 110.527 44.589ZM97.6051 52.3493C97.6051 53.473 97.6051 54.5615 97.6051 55.6852C97.6051 56.2119 97.6051 56.7386 97.6051 57.2653C97.6051 57.6516 97.7456 57.9676 98.2372 57.9676C101.011 57.9676 103.785 58.0028 106.559 57.9325C108.42 57.8974 109.614 56.844 109.86 54.9829C110.106 53.2974 110.001 51.6119 109.895 49.9264C109.86 49.1188 109.544 48.3814 108.947 47.8196C108.139 47.047 107.121 46.8012 106.033 46.8012C103.504 46.8012 101.011 46.8012 98.483 46.8012C97.7807 46.8012 97.6402 46.9417 97.6402 47.644C97.6051 49.2241 97.6051 50.8043 97.6051 52.3493ZM97.6051 37.1799C97.6051 38.6547 97.6051 40.1295 97.6051 41.5692C97.6051 42.131 97.7807 42.3417 98.2372 42.3417C100.836 42.3417 103.434 42.3768 106.033 42.3066C107.859 42.2715 109.052 41.218 109.333 39.4272C109.544 37.9875 109.509 36.5127 109.368 35.073C109.263 33.5631 108.42 32.5096 106.875 32.1234C106.524 32.018 106.138 31.9829 105.787 31.9829C103.364 31.9829 100.941 31.9829 98.483 31.9829C97.7105 31.9829 97.57 32.1234 97.57 32.8959C97.6051 34.3356 97.6051 35.7402 97.6051 37.1799Z" fill="white"/>
<path d="M167.027 59.691C166.886 59.691 166.851 59.7963 166.816 59.9017C166.043 61.3414 164.814 62.149 163.234 62.3597C160.776 62.6406 158.318 62.8162 155.93 62.0436C153.086 61.1307 151.541 59.0589 151.014 56.1795C150.839 55.3017 150.839 54.4238 150.839 53.5459C150.839 49.9994 150.839 46.4528 150.839 42.9062C150.839 41.5368 151.085 40.2024 151.647 38.9734C152.77 36.5505 154.737 35.2864 157.265 34.865C158.143 34.7246 159.021 34.6895 159.898 34.6895C163.656 34.6895 167.378 34.6895 171.135 34.6895C171.381 34.6895 171.627 34.7246 171.872 34.7597C172.224 34.8299 172.469 35.0757 172.469 35.462C172.469 35.6375 172.469 35.8131 172.469 35.9536C172.469 44.3811 172.469 52.8085 172.469 61.236C172.469 62.3246 172.294 62.5001 171.17 62.5001C170.152 62.5001 169.098 62.5001 168.08 62.5001C167.378 62.5001 167.097 62.2192 167.097 61.5169C167.097 61.0604 167.097 60.5688 167.097 60.1123C167.097 59.9719 167.167 59.7963 167.027 59.691ZM167.097 47.0146C167.097 44.6971 167.097 42.3795 167.097 40.062C167.097 39.5704 166.921 39.2895 166.43 39.3246C164.042 39.3597 161.654 39.2192 159.301 39.3948C157.44 39.5353 156.176 40.7994 156.141 42.6956C156.106 46.6284 156.106 50.5612 156.141 54.494C156.176 56.2849 157.23 57.4436 158.985 57.7246C160.495 57.9704 162.04 57.865 163.585 57.7597C164.604 57.6894 165.517 57.2681 166.184 56.4604C166.886 55.5826 167.097 54.5291 167.097 53.4406C167.132 51.2986 167.097 49.1566 167.097 47.0146Z" fill="white"/>
<path d="M208.497 71.347C207.83 71.347 207.163 71.347 206.46 71.347C205.828 71.347 205.547 71.1363 205.547 70.5042C205.512 69.521 205.512 68.5027 205.547 67.5195C205.582 66.8874 205.863 66.6416 206.495 66.6416C207.549 66.6416 208.602 66.6065 209.691 66.5012C211.517 66.2905 212.746 65.2722 213.518 63.6569C213.869 62.9546 214.115 62.2172 214.361 61.4798C214.466 61.1638 214.431 61.0584 214.08 61.0584C213.589 61.0584 213.097 61.0584 212.605 61.0584C211.727 61.0584 211.376 60.7775 211.131 59.9699C210.674 58.4951 210.253 56.9852 209.796 55.5103C208.462 51.0508 207.163 46.5913 205.828 42.1317C205.196 40.0249 204.564 37.8829 203.967 35.776C203.721 34.9684 203.932 34.6523 204.775 34.6523C205.863 34.6523 206.987 34.6523 208.076 34.6523C208.883 34.6523 209.199 34.8981 209.41 35.6707C210.604 39.9546 211.798 44.2737 212.992 48.5577C213.729 51.1561 214.431 53.7546 215.169 56.3531C215.204 56.5287 215.169 56.8798 215.45 56.8798C215.66 56.8798 215.66 56.5638 215.695 56.3882C216.573 53.1928 217.451 50.0325 218.364 46.8371C219.418 43.0798 220.436 39.3226 221.489 35.6004C221.665 34.9333 221.911 34.6875 222.578 34.6875C223.772 34.6523 224.931 34.6523 226.124 34.6875C226.862 34.7226 227.143 35.1088 226.932 35.8462C225.001 42.6584 223.069 49.4707 221.103 56.318C220.436 58.7058 219.734 61.1287 218.996 63.4813C218.434 65.3424 217.556 67.0279 216.292 68.5378C214.747 70.3638 212.746 71.1363 210.428 71.3119C209.796 71.3821 209.129 71.3119 208.497 71.347Z" fill="white"/>
<path d="M197.506 62.4981C196.874 62.4981 196.242 62.463 195.645 62.4981C194.802 62.5684 194.345 62.1821 193.994 61.4447C192.555 58.4248 191.115 55.405 189.675 52.4203C189.64 52.35 189.64 52.2798 189.605 52.2447C189.535 52.1394 189.535 51.9638 189.359 51.9638C189.219 51.9638 189.184 52.1042 189.148 52.2096C188.657 53.2279 188.2 54.2111 187.709 55.2294C186.69 57.3714 185.672 59.5134 184.689 61.6203C184.408 62.2172 183.952 62.4981 183.284 62.4981C181.915 62.463 180.545 62.4981 179.176 62.4981C178.368 62.4981 178.193 62.2172 178.614 61.5149C180.897 57.3363 183.179 53.1226 185.497 48.9439C185.777 48.4523 185.742 48.1363 185.497 47.6447C183.284 43.7119 181.072 39.7439 178.86 35.8111C178.79 35.6707 178.719 35.5302 178.649 35.4249C178.439 34.9684 178.544 34.7928 179.035 34.6875C179.176 34.6523 179.316 34.6523 179.422 34.6523C180.721 34.6523 181.985 34.6523 183.284 34.6523C184.057 34.6523 184.619 34.9684 184.935 35.7058C186.304 38.6554 187.709 41.605 189.078 44.5546C189.148 44.6951 189.148 44.976 189.394 44.9409C189.57 44.9058 189.57 44.6951 189.64 44.5546C190.939 41.605 192.274 38.6203 193.573 35.6707C193.854 35.0035 194.345 34.6875 195.083 34.6523C196.417 34.6523 197.752 34.6523 199.086 34.6523C199.929 34.6523 200.069 34.9684 199.683 35.6707C197.646 39.3928 195.68 43.15 193.573 46.8722C192.976 47.8905 193.011 48.6279 193.608 49.6462C195.89 53.5439 198.032 57.5119 200.245 61.4798C200.666 62.2172 200.526 62.4981 199.683 62.4981C198.91 62.4981 198.208 62.4981 197.506 62.4981Z" fill="white"/>
<path d="M137.602 43.3268C137.602 37.3925 137.602 31.4581 137.602 25.4887C137.602 24.2948 137.707 24.1895 138.901 24.1895C139.919 24.1895 140.937 24.1895 141.956 24.1895C142.623 24.1895 142.869 24.4353 142.904 25.1024C142.904 25.2078 142.904 25.3482 142.904 25.4536C142.904 37.3574 142.904 49.2963 142.904 61.2001C142.904 61.4108 142.904 61.6215 142.869 61.7971C142.799 62.2536 142.518 62.4642 142.061 62.4642C140.832 62.4642 139.603 62.4642 138.374 62.4642C137.918 62.4642 137.672 62.2184 137.637 61.7619C137.637 61.5864 137.637 61.4108 137.637 61.2703C137.602 55.3009 137.602 49.2963 137.602 43.3268Z" fill="white"/>
<path d="M128.787 48.6299C128.787 52.8436 128.787 57.0223 128.787 61.236C128.787 61.4467 128.787 61.6925 128.752 61.9032C128.716 62.2894 128.471 62.5001 128.084 62.5001C126.785 62.5001 125.521 62.5001 124.222 62.5001C123.765 62.5001 123.519 62.2543 123.484 61.7627C123.484 61.6223 123.484 61.4818 123.484 61.3413C123.484 52.8436 123.484 44.3459 123.484 35.8131C123.484 35.6375 123.484 35.462 123.484 35.3215C123.555 34.9353 123.73 34.6895 124.152 34.6895C125.451 34.6895 126.715 34.6895 128.014 34.6895C128.471 34.6895 128.681 34.9704 128.752 35.3917C128.787 35.6024 128.787 35.8131 128.787 35.9887C128.787 40.2375 128.787 44.4162 128.787 48.6299Z" fill="white"/>
<path d="M128.787 27.5956C128.787 28.4032 128.787 29.2108 128.787 30.0185C128.787 30.7207 128.506 31.0017 127.803 31.0017C126.68 31.0017 125.556 31.0017 124.432 31.0017C123.765 31.0017 123.484 30.7559 123.484 30.0887C123.449 28.4032 123.449 26.7528 123.484 25.0673C123.484 24.4353 123.8 24.1895 124.432 24.1895C125.591 24.1895 126.715 24.1895 127.874 24.1895C128.541 24.1895 128.822 24.4704 128.822 25.1375C128.822 25.9803 128.787 26.7879 128.787 27.5956Z" fill="white"/>
<path d="M16.8066 28.3672C16.8066 28.4023 16.8066 28.4374 16.8066 28.4725C16.8066 28.4374 16.7715 28.4374 16.8066 28.3672C16.8066 28.3672 16.7715 28.3672 16.8066 28.3672Z" fill="#AFEBFB"/>
<path d="M16.8066 49.4355C16.8066 49.4707 16.8066 49.5058 16.8066 49.576C16.8066 49.5409 16.7715 49.5058 16.7715 49.5058C16.7715 49.4707 16.8066 49.4355 16.8066 49.4355Z" fill="#AFEBFB"/>
</g>
<defs>
<clipPath id="clip0_2934_14790">
<rect width="227" height="89" fill="white"/>
</clipPath>
</defs>
</svg>
