<svg width="227" height="88" viewBox="0 0 227 88" fill="none" xmlns="http://www.w3.org/2000/svg">
<g clip-path="url(#clip0_2799_14424)">
<path d="M99.8007 33.4262C100.552 34.1773 101.462 34.5414 102.555 34.5414C103.647 34.5414 104.58 34.1773 105.308 33.4262C106.059 32.6524 106.424 31.742 106.424 30.6724C106.424 29.5799 106.059 28.6468 105.308 27.9185C104.557 27.1447 103.647 26.7578 102.555 26.7578C101.462 26.7578 100.529 27.1447 99.8007 27.9185C99.0497 28.6696 98.6855 29.5799 98.6855 30.6724C98.6855 31.742 99.0497 32.6524 99.8007 33.4262Z" fill="#F4F0FA"/>
<path d="M99.1166 37.204C98.9801 37.3405 98.9346 37.4998 98.9346 37.7274V59.9857C98.9346 60.2133 99.0028 60.3954 99.1166 60.5092C99.2532 60.6458 99.4125 60.6913 99.6401 60.6913H105.444C105.671 60.6913 105.853 60.623 105.967 60.5092C106.104 60.3726 106.172 60.2133 106.172 59.9857V37.7274C106.172 37.4998 106.104 37.3178 105.967 37.204C105.831 37.0674 105.671 37.0219 105.444 37.0219H99.6401C99.4353 36.9991 99.2532 37.0674 99.1166 37.204Z" fill="#F4F0FA"/>
<path fill-rule="evenodd" clip-rule="evenodd" d="M160.681 43.7583C161.591 43.0527 162.661 42.6886 163.913 42.6886C165.142 42.6886 166.189 43.0527 167.054 43.7583C167.918 44.441 168.465 45.4424 168.692 46.7624H158.929C159.202 45.4424 159.793 44.441 160.681 43.7583ZM174.814 50.677C175.042 50.1991 175.156 49.4253 175.156 48.3556C175.156 46.2162 174.678 44.259 173.745 42.461C172.812 40.663 171.492 39.2292 169.785 38.1595C168.078 37.0899 166.098 36.5664 163.89 36.5664C161.637 36.5664 159.589 37.1126 157.745 38.2051C155.902 39.2747 154.445 40.7313 153.398 42.5975C152.374 44.4638 151.851 46.5349 151.851 48.788C151.851 51.0411 152.374 53.1122 153.444 54.9785C154.513 56.8447 155.993 58.324 157.904 59.4392C159.839 60.5317 162.024 61.0779 164.436 61.0779C166.143 61.0779 167.736 60.782 169.216 60.1675C170.741 59.5303 172.061 58.6199 173.221 57.4592C173.403 57.2771 173.517 57.0723 173.517 56.8902C173.517 56.7081 173.449 56.5261 173.312 56.4123L170.786 53.9998C170.581 53.795 170.422 53.704 170.263 53.704C170.058 53.704 169.898 53.7722 169.739 53.9088C168.943 54.4322 168.169 54.7964 167.418 55.024C166.712 55.206 165.961 55.3198 165.142 55.3198C163.526 55.3198 162.183 55.0012 161.136 54.364C160.112 53.6812 159.407 52.7026 159.065 51.4053H173.426C174.132 51.3598 174.587 51.1322 174.814 50.677Z" fill="#F4F0FA"/>
<path fill-rule="evenodd" clip-rule="evenodd" d="M189.083 42.6892C187.832 42.6892 186.739 43.0533 185.852 43.7589C184.941 44.4416 184.372 45.443 184.122 46.763H193.886C193.658 45.443 193.112 44.4416 192.247 43.7589C191.337 43.0533 190.29 42.6892 189.083 42.6892ZM200.304 48.3562C200.304 49.4258 200.19 50.1997 199.962 50.6776C199.735 51.1328 199.279 51.3604 198.551 51.3604H184.19C184.554 52.6576 185.237 53.6363 186.261 54.319C187.331 54.9563 188.674 55.2749 190.267 55.2749C191.086 55.2749 191.837 55.1839 192.543 54.9791C193.294 54.7515 194.068 54.3873 194.864 53.8639C195.023 53.7273 195.206 53.659 195.388 53.659C195.547 53.659 195.729 53.7501 195.911 53.9549L198.437 56.3674C198.574 56.5039 198.642 56.6632 198.642 56.8453C198.642 57.0274 198.551 57.2322 198.346 57.4143C197.186 58.575 195.843 59.4853 194.341 60.1226C192.861 60.7371 191.268 61.033 189.561 61.033C187.149 61.033 184.964 60.4867 183.029 59.3943C181.118 58.3019 179.638 56.8225 178.569 54.9335C177.499 53.0673 176.976 50.9962 176.976 48.7431C176.976 46.4899 177.499 44.4189 178.523 42.5526C179.593 40.6864 181.049 39.207 182.87 38.1601C184.714 37.0677 186.762 36.5215 189.015 36.5215C191.245 36.5215 193.203 37.0449 194.91 38.1146C196.617 39.1843 197.937 40.6181 198.87 42.4161C199.826 44.2596 200.304 46.2168 200.304 48.3562Z" fill="#F4F0FA"/>
<path fill-rule="evenodd" clip-rule="evenodd" d="M218.511 52.9074C217.51 53.9315 216.236 54.455 214.688 54.455C213.118 54.455 211.82 53.9315 210.819 52.9074C209.84 51.8832 209.362 50.5404 209.362 48.9018C209.362 47.2859 209.84 45.9431 210.819 44.8279C211.82 43.7355 213.118 43.1893 214.688 43.1893C216.236 43.1893 217.51 43.7127 218.511 44.7824C219.536 45.8521 220.059 47.2176 220.059 48.9018C220.059 50.5404 219.558 51.8832 218.511 52.9074ZM221.425 38.2051C219.672 37.1126 217.738 36.5664 215.576 36.5664C212.799 36.5664 210.523 37.7044 208.748 39.9575L208.498 37.7726C208.429 37.2947 208.202 37.0443 207.769 37.0443H202.831C202.603 37.0443 202.421 37.1126 202.307 37.2264C202.171 37.363 202.125 37.5223 202.125 37.7499V69.2028C202.125 69.4304 202.193 69.6125 202.307 69.7263C202.444 69.8629 202.603 69.9311 202.831 69.9311H208.634C208.862 69.9311 209.044 69.8629 209.158 69.7263C209.294 69.5898 209.34 69.4077 209.34 69.2028V58.5971C210.933 60.2358 212.981 61.0551 215.53 61.0551C217.692 61.0551 219.649 60.5317 221.379 59.462C223.154 58.3696 224.52 56.8902 225.499 55.0467C226.5 53.1805 227.001 51.1322 227.001 48.9018C227.001 46.6031 226.5 44.5321 225.499 42.6658C224.565 40.7996 223.2 39.2975 221.425 38.2051Z" fill="#F4F0FA"/>
<path d="M123.742 36.9991C123.97 36.9991 124.152 37.0674 124.266 37.1812C124.402 37.3177 124.448 37.477 124.448 37.7046V42.0971C124.448 42.3247 124.379 42.5068 124.266 42.6206C124.129 42.7571 123.97 42.8254 123.742 42.8254H119.873V59.9629C119.873 60.1905 119.805 60.3726 119.668 60.4864C119.532 60.623 119.372 60.6912 119.145 60.6912H113.341C113.114 60.6912 112.932 60.623 112.818 60.4864C112.681 60.3498 112.613 60.1905 112.613 59.9629V42.8254H108.744C108.516 42.8254 108.334 42.7571 108.22 42.6206C108.084 42.484 108.016 42.3247 108.016 42.0971V37.7046C108.016 37.477 108.084 37.295 108.22 37.1812C108.357 37.0446 108.539 36.9991 108.744 36.9991H112.613V30.4672C112.613 30.2397 112.681 30.0576 112.818 29.9438C112.954 29.8072 113.114 29.7617 113.341 29.7617H119.145C119.372 29.7617 119.554 29.83 119.668 29.9438C119.805 30.0803 119.873 30.2397 119.873 30.4672V36.9991H123.742Z" fill="#F4F0FA"/>
<path fill-rule="evenodd" clip-rule="evenodd" d="M84.7335 54.0902C86.2128 54.0902 87.3963 53.7488 88.2611 53.066C89.126 52.3833 89.5584 51.3819 89.5584 50.0163C89.5584 48.6963 89.126 47.7177 88.2611 47.1032C87.3963 46.4659 86.2128 46.1245 84.7335 46.1245H79.3168V54.0674L84.7335 54.0902ZM87.5556 36.5658C87.5556 34.4947 86.2811 33.4705 83.7321 33.4705H79.3396V39.9569H83.7321C84.9155 39.9569 85.8714 39.6837 86.5314 39.1375C87.2142 38.5458 87.5556 37.7037 87.5556 36.5658ZM90.446 42.6197C92.2439 43.0976 93.7916 44.0762 95.0888 45.5783C96.4088 47.0577 97.0689 48.8556 97.0689 50.9495C97.0689 54.204 96.0219 56.662 93.9281 58.3006C91.857 59.9165 88.6935 60.7131 84.4376 60.7131H72.5346C72.307 60.7131 72.125 60.6448 72.0112 60.531C71.8746 60.3945 71.8291 60.2351 71.8291 60.0076V27.5759C71.8291 27.3484 71.8974 27.1663 72.0112 27.0525C72.1477 26.9159 72.307 26.8477 72.5346 26.8477H84.3921C86.5314 26.8477 88.3522 27.2346 89.8542 28.0084C91.4019 28.7822 92.5626 29.8291 93.3364 31.1491C94.1329 32.4691 94.5426 33.9485 94.5426 35.6099C94.5426 37.294 94.1329 38.7506 93.3364 40.0024C92.5853 41.2541 91.6067 42.119 90.446 42.6197Z" fill="#F4F0FA"/>
<path d="M154.49 60.4636C154.49 60.3043 154.445 60.1677 154.354 60.0312L140.88 41.8695L153.876 27.8727C154.035 27.7133 154.126 27.554 154.126 27.4402C154.126 27.3037 154.058 27.2126 153.921 27.1444C153.83 27.0533 153.671 27.0078 153.489 27.0078H146.911C146.593 27.0078 146.32 27.1444 146.092 27.3947L133.62 40.9136V27.7361C133.62 27.5085 133.552 27.3264 133.415 27.2126C133.279 27.0761 133.119 27.0078 132.892 27.0078H127.088C126.861 27.0078 126.679 27.0761 126.565 27.2126C126.428 27.3492 126.383 27.5085 126.383 27.7361V60.1905C126.383 60.4181 126.451 60.6001 126.565 60.7139C126.701 60.8505 126.861 60.896 127.088 60.896H132.892C133.119 60.896 133.302 60.8277 133.415 60.7139C133.552 60.5774 133.62 60.4181 133.62 60.1905V49.7213L136.465 46.6261L146.798 60.4863C146.98 60.7822 147.276 60.9188 147.663 60.9188H153.898C154.285 60.896 154.49 60.7594 154.49 60.4636Z" fill="#F4F0FA"/>
<path fill-rule="evenodd" clip-rule="evenodd" d="M57.3086 29.2629V32.5629C57.3086 33.2229 56.9672 33.8147 56.3982 34.1333L45.7243 40.301L55.2603 45.7859C56.5348 46.5142 57.3086 47.8797 57.3086 49.3363V58.1668C57.3086 59.6234 56.5348 60.9889 55.2603 61.7172L30.2026 76.1009C28.9281 76.8292 27.3805 76.8292 26.106 76.1009L17.89 71.367C17.2755 71.0257 17.2755 70.1381 17.89 69.7967L44.9732 54.2067C45.2691 54.0247 45.2691 53.5922 44.9732 53.4102L34.9137 47.6066C34.3448 47.288 33.662 47.288 33.093 47.6066L5.57736 63.4697C5.16769 63.72 4.64424 63.72 4.21182 63.4697L1.09383 61.6945C-0.180675 60.9662 -0.977241 59.6006 -0.977241 58.144V54.5254C-0.977241 54.0474 -0.726892 53.5922 -0.29447 53.3419L39.1469 30.6739C39.4428 30.4918 39.4428 30.0594 39.1469 29.8773L29.0647 24.051C28.4957 23.7324 27.8129 23.7324 27.2439 24.051L0.365541 39.5044C-0.248952 39.8458 -1 39.4134 -1 38.7078V29.2401C-1 27.7835 -0.226193 26.418 1.04831 25.6897L26.106 11.306C27.3805 10.5777 28.9281 10.5777 30.2026 11.306L55.2148 25.7352C56.5348 26.4407 57.3086 27.8063 57.3086 29.2629Z" fill="#F4F0FA"/>
</g>
<defs>
<clipPath id="clip0_2799_14424">
<rect width="227" height="88" fill="white"/>
</clipPath>
</defs>
</svg>
