<svg width="227" height="89" viewBox="0 0 227 89" fill="none" xmlns="http://www.w3.org/2000/svg">
<g clip-path="url(#clip0_2934_14841)">
<path d="M96.4251 37.4625H92.8755L86.627 59.3178H93.5502L98.8307 40.8655C99.1241 40.0734 99.0067 39.164 98.508 38.4599C98.0386 37.8145 97.2466 37.4332 96.4251 37.4625Z" fill="white"/>
<path d="M101.267 32.5629C100.651 34.5284 98.8612 35.9072 96.8077 36.0245C95.3996 36.0832 94.2262 35.0271 94.1675 33.619C94.1382 33.2669 94.1968 32.8856 94.3435 32.5629C94.9596 30.5974 96.749 29.2186 98.8026 29.1012C99.6533 29.0426 100.475 29.4533 101.003 30.1573C101.237 30.5094 101.413 30.9201 101.443 31.3308C101.472 31.7415 101.413 32.1522 101.267 32.5629Z" fill="white"/>
<path d="M129.575 36.2886C128.197 36.2886 126.847 36.5526 125.586 37.0513C124.97 37.3153 124.412 37.6673 123.855 38.0487L125.439 32.4749C125.703 31.6828 125.615 30.7734 125.116 30.0987C124.882 29.776 124.559 29.512 124.207 29.3359C123.855 29.1599 123.444 29.0719 123.034 29.1013H119.631L111.006 59.3173H117.753L121.068 47.7002C121.42 46.1748 122.183 44.796 123.268 43.6812C124.09 42.8305 125.234 42.3318 126.407 42.3611C127.346 42.2731 128.255 42.8011 128.637 43.6812C129.047 45.0013 128.989 46.4094 128.519 47.7002L125.234 59.2879H132.069L135.325 47.9349C136.323 45.2067 136.293 42.2144 135.237 39.5448C134.181 37.4033 131.952 36.1419 129.575 36.2886Z" fill="white"/>
<path d="M191.093 36.2289C187.896 36.1702 184.757 37.0796 182.087 38.8398C180.914 37.0796 178.919 36.1115 176.807 36.2582C175.428 36.2582 174.079 36.5222 172.817 37.0209C172.084 37.3436 171.38 37.7837 170.734 38.2824C170.558 37.0503 169.444 36.1702 168.211 36.2582H164.838L158.267 59.2869H165.014L168.358 47.6405C168.71 46.1151 169.473 44.7363 170.558 43.6215C170.969 43.2108 171.438 42.8588 171.996 42.6241C172.524 42.3894 173.111 42.2721 173.697 42.3014C174.167 42.2427 174.636 42.3601 175.017 42.5948C175.399 42.8295 175.721 43.2108 175.897 43.6215C176.308 44.9416 176.25 46.3498 175.78 47.6405L172.465 59.2869H179.3L182.645 47.6405C182.997 46.1444 183.76 44.7363 184.845 43.6215C185.666 42.7708 186.81 42.2721 187.984 42.3014C188.952 42.2134 189.832 42.7414 190.213 43.6215C190.624 44.9416 190.565 46.3498 190.096 47.6405L186.752 59.2869H193.587L196.843 47.8752C197.841 45.147 197.811 42.1547 196.755 39.4852C195.729 37.3436 193.47 36.0529 191.093 36.2289Z" fill="white"/>
<path d="M137.261 49.371L141.017 36.2285H147.852L144.097 49.371C142.982 53.2433 146.62 53.2433 146.62 53.2433C148.937 53.214 150.932 51.6299 151.519 49.371L155.274 36.2285H162.021L158.266 49.371C156.594 55.3555 151.079 59.4332 144.889 59.2865C144.889 59.2865 134.24 59.9906 137.261 49.371Z" fill="white"/>
<path d="M220.076 47.9055C221.074 45.1773 221.044 42.185 219.988 39.5155C218.932 37.374 216.703 36.1125 214.356 36.2885C212.977 36.2592 211.628 36.5232 210.366 37.0513C209.75 37.3153 209.193 37.638 208.635 38.0487L210.22 32.5042C210.484 31.7121 210.396 30.832 209.897 30.128C209.662 29.8053 209.339 29.5413 208.958 29.3652C208.606 29.1892 208.195 29.1012 207.785 29.1306H204.411L198.691 49.1963C195.552 60.168 206.641 59.3466 206.641 59.3466C206.641 59.3466 216.761 59.5226 220.076 47.9055ZM213.3 47.6709C212.918 49.255 212.156 50.7218 211.041 51.9246C210.63 52.3646 210.161 52.6873 209.603 52.922C209.075 53.1567 208.489 53.274 207.902 53.2447C206.934 53.362 205.995 52.8046 205.614 51.8952C205.232 50.4871 205.35 48.991 205.878 47.6415C206.23 46.116 206.993 44.7373 208.078 43.6225C208.899 42.7718 210.044 42.273 211.217 42.3024C212.156 42.2144 213.065 42.7424 213.446 43.6225C213.828 44.972 213.799 46.3801 213.3 47.6709Z" fill="white"/>
<path d="M111.358 32.4749C111.505 32.0935 111.534 31.6534 111.475 31.2427C111.417 30.832 111.27 30.4213 111.035 30.0693C110.566 29.4239 109.803 29.0426 109.011 29.0719H105.491L98.2156 54.5941C97.2182 58.1144 98.949 58.9945 100.592 59.1412C101.765 59.2292 103.144 59.2879 104.493 59.2879C105.374 59.2879 106.224 59.2585 106.928 59.2292L107.632 59.1999L109.187 53.7434H106.136C105.315 53.7434 105.403 53.45 105.462 53.1567L108.601 42.1264H109.451C110.419 42.097 111.329 41.7743 112.091 41.1876C112.913 40.6009 113.5 39.7208 113.793 38.7527L114.321 36.9339H110.097L111.358 32.4749Z" fill="white"/>
<path d="M87.4787 47.9055C88.4762 45.1773 88.4468 42.185 87.3907 39.5155C86.3346 37.4033 84.1051 36.1125 81.7582 36.2885C80.3794 36.2592 79.03 36.5232 77.7685 37.0513C77.1525 37.3153 76.5951 37.638 76.0377 38.0487L77.6219 32.5042C77.8859 31.7121 77.7979 30.832 77.2992 30.128C77.0645 29.8053 76.7418 29.5413 76.3898 29.3652C76.0377 29.1892 75.627 29.1012 75.2163 29.1306H71.8134L66.0929 49.1963C62.9539 60.168 74.0429 59.3466 74.0429 59.3466C74.0429 59.3466 84.1344 59.5226 87.4787 47.9055ZM80.7021 47.6709C80.3208 49.255 79.558 50.7218 78.4433 51.9246C77.6219 52.7753 76.4778 53.274 75.3043 53.2447C74.3362 53.362 73.3975 52.8046 72.9868 51.8952C72.6054 50.4871 72.7228 48.991 73.2508 47.6415C73.6028 46.116 74.3656 44.7373 75.451 43.6225C76.2724 42.7718 77.4165 42.273 78.59 42.3024C79.5287 42.2144 80.4381 42.7424 80.8195 43.6225C81.2302 44.972 81.2008 46.3801 80.7021 47.6709Z" fill="white"/>
<path d="M6.07154 38.0488C5.01545 40.4837 6.15955 43.3292 8.59443 44.356C9.26915 44.6494 10.0026 44.7667 10.7653 44.7374H12.4668L17.3072 27.8105H9.03447L6.07154 38.0488Z" fill="#EBEBEB"/>
<path d="M51.7761 34.352C49.5466 29.8929 45.6449 27.7514 40.1298 27.7514H29.8622L25.0511 44.7662H32.3558C33.5292 44.5902 34.6733 45.2063 35.1427 46.2917C35.6707 47.9345 35.6121 49.724 34.996 51.3668C34.5266 53.3616 33.5585 55.2098 32.1798 56.7353C31.153 57.8207 29.7449 58.4367 28.2487 58.4074C27.0166 58.5541 25.8432 57.85 25.3738 56.7059C24.9045 54.9458 25.0218 53.0683 25.6965 51.3668L34.644 19.8013C35.2307 18.1292 34.996 16.3104 33.9986 14.8436C33.0012 13.4648 31.3584 12.7021 29.6569 12.7901H19.712L7.91896 54.3591C1.46506 77.0944 24.3177 75.4222 24.3177 75.4222C24.3177 75.4222 45.1169 75.8916 51.9815 51.7775C53.9763 44.6782 53.9177 38.811 51.7761 34.352Z" fill="white"/>
<path d="M51.9817 51.6899C54.0059 44.6493 53.9472 38.8115 51.7763 34.3818C49.5468 29.952 45.6451 27.8398 40.13 27.8398H32.3853L27.5742 44.7667H32.3266C33.5001 44.5906 34.6442 45.2067 35.1135 46.2628C35.6416 47.9056 35.5829 49.6658 34.9669 51.2792" fill="url(#paint0_linear_2934_14841)"/>
</g>
<defs>
<linearGradient id="paint0_linear_2934_14841" x1="43.037" y1="44.9259" x2="37.3136" y2="35.6997" gradientUnits="userSpaceOnUse">
<stop stop-color="#B9B9B9" stop-opacity="0"/>
<stop offset="1" stop-color="#D3D3D3"/>
</linearGradient>
<clipPath id="clip0_2934_14841">
<rect width="227" height="89" fill="white"/>
</clipPath>
</defs>
</svg>
