<svg width="227" height="89" viewBox="0 0 227 89" fill="none" xmlns="http://www.w3.org/2000/svg">
<g clip-path="url(#clip0_2934_14764)">
<path d="M5.75784 30.2596C5.90916 32.0679 5.92429 33.8762 5.7881 35.6845C5.78053 35.8131 5.78053 35.9342 5.78053 36.0628C5.73514 40.8446 5.87133 45.6264 5.84106 50.4082C5.8335 51.982 5.97725 53.5179 6.40852 55.0311C7.02138 57.1648 8.2017 58.9807 9.6998 60.5923C12.0226 63.0891 14.8296 64.7612 18.189 65.3968C22.9179 66.2971 27.1852 65.2379 30.9531 62.2417C33.1322 60.509 34.8194 58.3754 35.75 55.7424C36.4461 53.7827 36.8093 51.7323 36.779 49.644C36.7563 48.1157 36.257 46.6554 35.9165 45.18C34.7816 40.3301 29.9619 35.9947 24.8245 34.8068C23.4324 34.4815 22.0251 34.3453 20.5951 34.3604C20.6253 34.2999 20.6783 34.2772 20.7464 34.2772C21.5938 34.2015 22.4412 34.0805 23.2886 34.0653C25.2104 34.0275 27.1398 33.9897 29.0464 34.2999C30.658 34.5571 32.2318 34.9657 33.745 35.624C35.7122 36.4789 37.3995 37.6971 38.7538 39.339C40.6453 41.6391 41.6062 44.3477 42.0829 47.2531C42.1813 47.8433 42.1661 48.4486 42.378 49.0161C42.3931 49.0842 42.4007 49.1522 42.4158 49.2203C42.3477 49.4852 42.3629 49.75 42.431 50.0072C42.4083 50.6579 42.4007 51.3162 42.3553 51.9669C42.2342 53.7298 41.697 55.3943 41.0993 57.0362C40.1233 59.6995 38.716 62.0979 36.8017 64.2089C33.6315 67.7044 29.7425 69.8835 25.1045 70.7309C24.0906 70.9125 23.0616 71.026 22.0251 71.0714C21.3668 71.0714 20.7085 71.0714 20.0503 71.0714C19.2937 71.0336 18.5446 70.9655 17.7956 70.8444C13.0365 70.0727 9.04911 67.8482 5.7427 64.398C2.85244 61.3791 1.23328 57.702 0.302646 53.6768C0.181588 53.1547 0.189154 52.6175 0 52.1106C0 51.9366 0 51.755 0 51.581C0.151323 51.354 0.0756541 51.0967 0.068088 50.8622C0.0529557 50.4007 0.166455 49.924 0 49.47C0 49.0917 0 48.7134 0 48.3351C0.166455 47.8887 0.0529557 47.4347 0.068088 46.9808C0.0756541 46.7538 0.151323 46.5117 0 46.2998C0 45.2708 0 44.2343 0 43.2053C0.0832276 43.1599 0.0756615 43.0842 0.0756615 43.0085C0.0756615 41.0565 0.0680898 39.112 0.0605236 37.1599C0.0983544 36.7059 0.0907882 36.2595 0.0605236 35.8056C0.0680898 35.6542 0.0756615 35.5029 0.0756615 35.3516C0.0756615 29.6845 0.0756615 24.0175 0.0756615 18.3505C0.0756615 18.1991 0.0832258 18.0478 0.0832258 17.8965C0.196718 17.9721 0.317778 18.0402 0.416138 18.131C1.56619 19.2206 2.48169 20.4917 3.23831 21.8763C4.35053 23.9191 5.04662 26.1133 5.44006 28.3983C5.57625 29.0036 5.66704 29.6316 5.75784 30.2596Z" fill="white"/>
<path d="M226.993 61.8256C225.124 61.8256 223.263 61.818 221.394 61.8331C221.121 61.8331 220.962 61.7423 220.826 61.5154C219.449 59.3514 218.065 57.1951 216.68 55.0387C216.566 54.8571 216.506 54.5469 216.317 54.5394C216.181 54.5318 216.029 54.8118 215.886 54.9706C215.522 55.3641 215.114 55.7273 214.766 56.1358C214.63 56.2947 214.584 56.446 214.584 56.6428C214.592 58.2543 214.584 59.8659 214.592 61.4775C214.592 61.7348 214.561 61.8483 214.251 61.8407C212.738 61.8256 211.225 61.8256 209.712 61.8407C209.462 61.8407 209.371 61.7877 209.371 61.5154C209.379 53.5028 209.379 45.4827 209.371 37.4701C209.371 37.2053 209.439 37.1297 209.704 37.1372C211.217 37.1524 212.73 37.1524 214.244 37.1372C214.531 37.1372 214.592 37.2205 214.592 37.4928C214.584 41.5559 214.584 45.6189 214.584 49.6895C214.584 49.8257 214.584 49.9543 214.584 50.1359C215.197 49.6592 215.628 49.0766 216.113 48.547C216.468 48.1535 216.839 47.7677 217.187 47.3591C217.83 46.6025 218.564 45.914 219.215 45.1573C219.585 44.7185 220.039 44.3629 220.357 43.8787C220.448 43.75 220.577 43.7046 220.743 43.7046C222.695 43.7122 224.647 43.7122 226.607 43.7122C226.645 43.7122 226.675 43.7198 226.766 43.7349C226.297 44.2267 225.85 44.6958 225.404 45.1649C223.648 46.9732 221.901 48.7815 220.138 50.5823C219.933 50.7941 219.918 50.9152 220.085 51.1649C222.37 54.6529 224.64 58.1484 226.909 61.644C226.94 61.6894 226.97 61.7272 227 61.765C226.993 61.7802 226.993 61.8029 226.993 61.8256Z" fill="white"/>
<path d="M0.113508 17.8739C0.105942 18.0252 0.105935 18.1765 0.105935 18.3279C0.105935 23.9949 0.105935 29.6619 0.105935 35.329C0.105935 35.4803 0.0983725 35.6316 0.0908063 35.783C0.0681079 35.7905 0.0454057 35.783 0.0302734 35.7754C0.0302734 29.6544 0.0302734 23.5409 0.0302734 17.4199C0.060538 17.4199 0.0832439 17.4275 0.113508 17.4275C0.105942 17.5712 0.105942 17.7226 0.113508 17.8739Z" fill="white"/>
<path d="M0.0829938 37.1306C0.09056 39.0827 0.0905563 41.0272 0.0981224 42.9792C0.0981224 43.0549 0.113255 43.1306 0.0224609 43.176C0.0224609 41.1634 0.0224609 39.1508 0.0224609 37.1306L0.0527274 37.123L0.0829938 37.1306Z" fill="white"/>
<path d="M0.0224609 49.4395C0.188916 49.8934 0.0754258 50.3701 0.0905581 50.8316C0.0981243 51.0662 0.173784 51.3234 0.0224609 51.5504C0.0224609 50.8543 0.0224609 50.1507 0.0224609 49.4395Z" fill="white"/>
<path d="M0.0224609 46.2695C0.173784 46.4814 0.0981243 46.7311 0.0905581 46.9505C0.0754258 47.4045 0.188916 47.8584 0.0224609 48.3048C0.0224609 47.6314 0.0224609 46.9505 0.0224609 46.2695Z" fill="white"/>
<path d="M20.0732 71.1169C20.0732 71.0942 20.0732 71.0715 20.0732 71.0488C20.7315 71.0488 21.3898 71.0488 22.048 71.0488C22.0404 71.0715 22.0404 71.0942 22.048 71.1169C21.3822 71.1169 20.7239 71.1169 20.0732 71.1169Z" fill="white"/>
<path d="M0.0829938 37.1297H0.0527274L0.0224609 37.1373C0.0224609 36.6833 0.0224609 36.2294 0.0224609 35.7754C0.0451594 35.783 0.0602954 35.783 0.0829938 35.783C0.113258 36.2294 0.120825 36.6758 0.0829938 37.1297Z" fill="white"/>
<path d="M10.6159 47.343C10.6159 44.3997 10.6159 41.4565 10.6083 38.5133C10.6083 38.3166 10.6537 38.2258 10.858 38.1804C12.515 37.8172 14.172 37.4389 15.829 37.0606C16.0106 37.0227 16.1316 37.0152 16.1316 37.2724C16.124 38.9672 16.1165 40.6696 16.0333 42.3644C16.003 42.9395 16.0862 43.0151 16.6083 42.7806C17.9097 42.198 19.2564 41.8121 20.6864 41.7667C23.501 41.6759 25.9827 42.5233 28.1769 44.3316C30.1139 45.9281 31.3774 47.918 31.7708 50.3467C32.3156 53.6834 31.5666 56.725 29.2286 59.3051C27.2009 61.5371 24.7343 62.7325 21.7154 62.899C16.0711 63.2092 12.3864 59.2445 11.0547 55.8019C10.5781 54.5686 10.5402 53.3051 10.5327 52.0189C10.5251 50.4602 10.5327 48.9016 10.5327 47.3354C10.5629 47.343 10.5856 47.343 10.6159 47.343ZM16.1997 52.3593C16.1997 55.2496 18.3939 57.4513 21.2993 57.4287C24.4392 57.406 26.2476 54.7729 26.2627 52.4123C26.2778 49.7868 24.2879 47.3051 21.2463 47.3127C18.3863 47.3203 16.1997 49.5145 16.1997 52.3593Z" fill="white"/>
<path d="M55.634 59.5476C55.634 60.2512 55.6264 60.8943 55.6416 61.5375C55.6491 61.7644 55.5962 61.8401 55.354 61.8325C53.8181 61.8174 52.2746 61.825 50.7387 61.8325C50.5344 61.8325 50.4285 61.7871 50.4587 61.5677C50.4663 61.5148 50.4587 61.4694 50.4587 61.4164C50.4587 53.4644 50.4587 45.5124 50.4512 37.5528C50.4512 37.2123 50.5268 37.1139 50.8824 37.1215C52.3427 37.1442 53.8105 37.1366 55.2708 37.1215C55.5583 37.1215 55.6491 37.182 55.6416 37.4847C55.6264 40.3674 55.634 43.2501 55.634 46.1782C55.9366 45.8604 56.1787 45.5502 56.4511 45.2627C57.4801 44.211 58.721 43.5906 60.1661 43.4014C61.8004 43.1895 63.3742 43.4317 64.8571 44.1807C66.8016 45.1643 68.103 46.7154 68.8747 48.728C69.4876 50.3169 69.6465 51.9738 69.5406 53.6535C69.4271 55.4089 68.9807 57.0886 67.9819 58.5715C66.5898 60.6447 64.6377 61.8325 62.1409 62.1276C60.9227 62.2714 59.7348 62.1579 58.5999 61.7266C57.4347 61.2953 56.4663 60.5614 55.634 59.5476ZM59.9543 57.7695C61.3691 57.762 62.5192 57.2021 63.3439 56.0596C64.5318 54.4177 64.6528 52.5867 64.0097 50.733C63.4347 49.0609 62.2317 47.9941 60.4309 47.7973C58.5318 47.593 57.1094 48.4178 56.2014 50.0823C55.5129 51.3459 55.4221 52.7078 55.7021 54.0999C56.1409 56.2714 57.866 57.762 59.9543 57.7695Z" fill="white"/>
<path d="M150.581 46.1785C150.914 45.8229 151.149 45.5278 151.421 45.2554C152.548 44.1281 153.895 43.5228 155.492 43.3942C157.398 43.2353 159.139 43.6666 160.705 44.7258C162.589 45.9969 163.671 47.8128 164.193 49.9843C164.48 51.1722 164.563 52.3828 164.48 53.6009C164.344 55.5681 163.822 57.4067 162.604 59.0183C161.355 60.6677 159.714 61.6589 157.701 62.0523C156.294 62.3322 154.902 62.249 153.562 61.7421C152.511 61.3411 151.61 60.698 150.846 59.8733C150.778 59.7976 150.725 59.7144 150.672 59.6311C150.642 59.6463 150.612 59.6614 150.581 59.6765C150.581 60.297 150.574 60.9174 150.589 61.5378C150.596 61.7572 150.551 61.8404 150.301 61.8404C148.765 61.8253 147.222 61.8329 145.686 61.8404C145.482 61.8404 145.376 61.7951 145.406 61.5681C145.414 61.5075 145.406 61.4394 145.406 61.3789C145.406 53.4496 145.406 45.5203 145.398 37.5909C145.398 37.1975 145.504 37.1218 145.875 37.1294C147.328 37.1521 148.773 37.1521 150.226 37.1294C150.536 37.1218 150.589 37.2278 150.589 37.5077C150.581 40.2391 150.581 42.9705 150.581 45.7018C150.581 45.8229 150.581 45.944 150.581 46.1785ZM154.894 57.7699C156.415 57.7547 157.618 57.1192 158.442 55.8481C159.487 54.244 159.577 52.4887 158.965 50.7333C158.382 49.0688 157.186 47.9868 155.393 47.7901C153.479 47.5783 152.049 48.4257 151.141 50.0978C150.46 51.3613 150.385 52.7232 150.657 54.123C151.073 56.2491 152.828 57.7623 154.894 57.7699Z" fill="white"/>
<path d="M130.532 50.1961C131.319 49.3487 132.083 48.5543 132.817 47.7371C133.604 46.8519 134.421 45.9969 135.2 45.1117C135.563 44.7031 136.01 44.3702 136.29 43.8859C136.365 43.7573 136.494 43.6968 136.668 43.6968C138.635 43.7044 140.602 43.7044 142.569 43.7044C142.6 43.7044 142.638 43.7195 142.698 43.7271C142.176 44.2794 141.677 44.8241 141.162 45.3538C140.163 46.3828 139.157 47.4042 138.158 48.4332C137.432 49.1822 136.713 49.9389 135.979 50.6803C135.843 50.8165 135.866 50.9073 135.957 51.0511C138.037 54.2289 140.11 57.4142 142.184 60.592C142.441 60.9854 142.683 61.3789 142.97 61.8253C142.819 61.8253 142.728 61.8253 142.63 61.8253C140.852 61.8253 139.074 61.8177 137.296 61.8328C137.084 61.8328 136.955 61.7648 136.849 61.5983C135.805 59.964 134.761 58.3297 133.717 56.6954C133.248 55.9691 132.786 55.2352 132.302 54.471C131.727 55.0763 131.175 55.674 130.615 56.2642C130.501 56.3852 130.539 56.5214 130.539 56.6576C130.539 58.2692 130.532 59.8808 130.547 61.4924C130.547 61.7799 130.464 61.8404 130.191 61.8404C128.701 61.8253 127.218 61.8253 125.727 61.8404C125.425 61.8404 125.356 61.7496 125.356 61.4621C125.364 53.4723 125.364 45.4748 125.356 37.485C125.356 37.205 125.417 37.1218 125.704 37.1294C127.195 37.1445 128.678 37.1445 130.169 37.1294C130.456 37.1294 130.539 37.1975 130.539 37.4925C130.532 41.5858 130.532 45.6716 130.532 49.7648C130.532 49.8935 130.532 50.0297 130.532 50.1961Z" fill="white"/>
<path d="M102.325 52.4434C102.332 55.4017 101.387 57.6565 99.5027 59.5026C98.103 60.8721 96.4082 61.6968 94.4864 62.0675C93.6087 62.234 92.7234 62.3475 91.8458 62.2718C90.5747 62.1659 89.3338 61.9162 88.1535 61.379C87.3515 61.0158 86.5949 60.5694 85.9366 60.0095C84.2796 58.5871 83.1977 56.809 82.8042 54.6451C82.4411 52.6704 82.6453 50.7637 83.4776 48.9251C83.977 47.8053 84.6579 46.8066 85.5583 45.9895C87.0791 44.6124 88.8496 43.7574 90.9076 43.4775C93.2379 43.1673 95.4548 43.4699 97.5204 44.62C99.9264 45.9592 101.47 47.9567 102.09 50.6502C102.249 51.3387 102.34 52.0424 102.325 52.4434ZM92.557 57.7624C94.5545 57.8078 96.2568 56.635 96.9151 54.683C97.3388 53.4194 97.3388 52.1407 96.8546 50.8848C95.5532 47.4876 91.528 46.9958 89.3716 48.9403C87.9795 50.1962 87.6012 51.8305 87.8508 53.6388C88.1762 55.9616 90.1131 57.838 92.557 57.7624Z" fill="white"/>
<path d="M178.879 59.9795C178.281 60.494 177.752 60.9706 177.108 61.3187C176.306 61.7575 175.451 61.9996 174.559 62.1207C173.522 62.2644 172.493 62.2342 171.479 61.9694C170.586 61.7348 169.762 61.3943 169.028 60.789C167.492 59.5331 167.061 57.8609 167.167 55.9997C167.242 54.6378 167.742 53.4121 168.771 52.4739C169.701 51.6264 170.851 51.1876 172.077 50.9606C172.917 50.8017 173.764 50.7185 174.619 50.7412C175.936 50.7715 177.237 50.9228 178.485 51.3465C178.781 51.4449 178.871 51.4297 178.879 51.0892C178.939 49.5382 177.895 48.3579 176.352 48.0779C174.271 47.6996 172.296 48.1157 170.352 48.7891C170.08 48.8875 169.981 48.8572 169.898 48.5773C169.55 47.4651 169.179 46.3528 168.793 45.2482C168.702 44.9834 168.763 44.8623 169.013 44.7639C170.314 44.2494 171.638 43.8106 173.03 43.6442C174.294 43.4928 175.565 43.4096 176.844 43.5307C177.857 43.629 178.841 43.7879 179.787 44.1511C181.905 44.9758 183.108 46.5571 183.63 48.7286C183.888 49.7954 183.903 50.885 183.91 51.9669C183.933 55.122 183.918 58.2847 183.926 61.4397C183.926 61.75 183.85 61.8407 183.532 61.8332C182.079 61.818 180.634 61.818 179.182 61.8332C178.909 61.8332 178.841 61.7575 178.849 61.5003C178.894 61.016 178.879 60.5318 178.879 59.9795ZM175.747 53.8887C174.952 53.8585 174.135 53.9568 173.386 54.3654C172.455 54.8648 172.107 55.6819 172.228 56.6958C172.327 57.581 172.887 58.1031 173.696 58.383C174.4 58.6251 175.119 58.6327 175.852 58.5192C178.024 58.1787 179.038 57.006 179.015 54.8496C179.015 54.6075 178.932 54.5016 178.712 54.4183C177.759 54.0627 176.798 53.866 175.747 53.8887Z" fill="white"/>
<path d="M193.474 46.0729C193.837 45.6795 194.238 45.3466 194.601 44.9834C195.464 44.1133 196.508 43.6063 197.703 43.4323C198.906 43.2507 200.087 43.3491 201.244 43.7804C203.227 44.5143 204.278 46.0124 204.74 47.9796C204.944 48.8345 204.974 49.7047 204.974 50.5823C204.967 54.2065 204.967 57.8307 204.982 61.4549C204.982 61.7802 204.891 61.8408 204.589 61.8408C203.128 61.8256 201.66 61.8256 200.2 61.8408C199.875 61.8408 199.761 61.7802 199.761 61.4171C199.776 58.1712 199.776 54.9253 199.769 51.6719C199.769 50.7412 199.618 49.8484 199.012 49.0767C198.657 48.6151 198.203 48.3427 197.65 48.199C196.72 47.9569 195.804 47.9871 194.972 48.4714C194.072 48.9934 193.701 49.8635 193.549 50.8547C193.413 51.7399 193.481 52.6328 193.481 53.5256C193.466 56.1661 193.474 58.8143 193.481 61.4549C193.481 61.7348 193.428 61.8408 193.118 61.8332C191.62 61.8181 190.114 61.8181 188.616 61.8332C188.382 61.8332 188.291 61.7802 188.291 61.523C188.299 55.6819 188.299 49.8408 188.291 43.9998C188.291 43.7425 188.374 43.6896 188.609 43.6896C190.137 43.6971 191.658 43.6971 193.186 43.6896C193.428 43.6896 193.481 43.7652 193.474 43.9846C193.466 44.6883 193.474 45.3768 193.474 46.0729Z" fill="white"/>
<path d="M122.042 58.8973C120.582 60.6072 118.804 61.727 116.594 62.1053C114.983 62.3853 113.379 62.3248 111.782 61.8708C110.579 61.5303 109.467 60.9856 108.529 60.1987C107.417 59.2605 106.509 58.1482 105.926 56.7712C105.487 55.7271 105.2 54.6527 105.116 53.5405C105.026 52.345 105.169 51.1496 105.517 49.9919C105.843 48.9024 106.319 47.881 107.023 46.9957C107.833 45.9667 108.801 45.0966 109.989 44.4762C111.041 43.9315 112.138 43.5456 113.303 43.4321C116.004 43.1597 118.561 43.5304 120.763 45.2858C121.119 45.5657 121.429 45.8911 121.754 46.2089C121.853 46.3072 121.951 46.4056 121.792 46.5796C120.839 47.5859 119.908 48.5998 118.97 49.6136C118.834 49.765 118.773 49.8709 118.546 49.6288C117.321 48.3501 115.845 47.6389 114.037 47.8658C112.751 48.0247 111.782 48.7435 111.094 49.8028C109.876 51.6641 109.966 54.35 111.306 56.0827C112.1 57.1117 113.159 57.6791 114.476 57.7624C115.921 57.8532 117.177 57.4143 118.259 56.4534C118.334 56.3929 118.425 56.3551 118.509 56.2945C118.683 56.1659 118.773 55.8406 119 55.8935C119.182 55.9389 119.318 56.1886 119.477 56.3475C120.332 57.1949 121.194 58.0499 122.042 58.8973Z" fill="white"/>
<path d="M78.7326 49.4776C78.7326 53.4649 78.7251 57.4523 78.7402 61.4472C78.7402 61.7574 78.6645 61.8407 78.3467 61.8407C76.8562 61.8255 75.3732 61.8255 73.8827 61.8407C73.6179 61.8407 73.5498 61.7801 73.5498 61.5153C73.5574 53.5028 73.5574 45.4826 73.5498 37.4701C73.5498 37.2128 73.6103 37.1296 73.8751 37.1372C75.3657 37.1523 76.8486 37.1523 78.3392 37.1372C78.6494 37.1372 78.7402 37.1977 78.7326 37.5231C78.7326 41.5029 78.7326 45.4902 78.7326 49.4776Z" fill="white"/>
<path d="M42.3858 48.9934C42.174 48.4259 42.1891 47.8206 42.0907 47.2304C41.6141 44.325 40.6532 41.6088 38.7616 39.3163C37.4149 37.6744 35.7201 36.4562 33.7529 35.6013C32.2396 34.9506 30.6734 34.542 29.0543 34.2772C27.1476 33.967 25.2182 34.0048 23.2964 34.0426C22.449 34.0578 21.6016 34.1864 20.7542 34.2545C20.6861 34.2621 20.6331 34.2772 20.6029 34.3377C19.3772 34.4663 18.159 34.6404 16.9484 34.8976C14.8904 35.3365 12.8627 35.8737 10.8804 36.5773C10.5702 36.6832 10.5323 36.6151 10.5399 36.3276C10.5853 34.9581 10.6156 33.5887 10.6383 32.2192C10.6458 31.856 10.8047 31.6366 11.1074 31.4702C12.9459 30.4639 14.9056 29.7905 16.956 29.3516C18.9005 28.9355 20.8677 28.822 22.8349 28.9809C26.8752 29.3062 30.5524 30.6303 33.8209 33.059C35.7806 34.5193 37.4527 36.2368 38.807 38.2721C39.7528 39.6946 40.4186 41.2608 41.1071 42.8194C41.6292 43.9997 41.9773 45.2254 42.1967 46.4814C42.3404 47.3137 42.4312 48.1535 42.3858 48.9934Z" fill="white"/>
<path d="M0.113281 17.8739C0.113281 17.7226 0.113281 17.5788 0.113281 17.4275C1.91402 17.4275 3.71476 17.4275 5.52307 17.4199C5.69709 17.4199 5.79546 17.4351 5.79546 17.6545C5.78789 21.831 5.78789 26.0075 5.78789 30.184C5.78789 30.2067 5.78032 30.2294 5.77276 30.2597C5.6744 29.6317 5.5836 29.0037 5.47768 28.3833C5.08424 26.0907 4.38815 23.9041 3.27593 21.8613C2.52688 20.4766 1.61138 19.2055 0.453758 18.116C0.347832 18.0176 0.219207 17.9496 0.113281 17.8739Z" fill="white"/>
<path d="M42.4462 49.9841C42.3781 49.7269 42.3554 49.4621 42.4311 49.1973C42.4916 49.4621 42.484 49.7193 42.4462 49.9841Z" fill="white"/>
<path d="M42.6131 50.341C42.5375 50.3259 42.5072 50.2881 42.5223 50.2351C42.5299 50.2124 42.5829 50.1973 42.6131 50.1973C42.6737 50.1973 42.6964 50.2427 42.6812 50.2956C42.6812 50.3183 42.6358 50.3335 42.6131 50.341Z" fill="white"/>
</g>
<defs>
<clipPath id="clip0_2934_14764">
<rect width="227" height="89" fill="white"/>
</clipPath>
</defs>
</svg>
