<svg width="228" height="89" viewBox="0 0 228 89" fill="none" xmlns="http://www.w3.org/2000/svg">
<g clip-path="url(#clip0_2038_11898)">
<path d="M77.7444 41.6379C77.8964 41.6379 77.8964 41.4862 78.0486 41.4862C81.5456 37.5418 88.6921 38.3004 91.733 43.9135C93.5577 47.5544 93.8617 53.6228 90.0605 57.4155C87.4756 60.1462 83.2182 61.0565 80.0251 59.5394C79.1129 59.0842 78.3526 58.3258 77.5924 57.4155C77.5924 58.1739 77.4402 58.6291 77.5924 59.2359C77.5924 59.691 77.4402 59.8427 76.9842 59.8427C74.0951 59.8427 71.2062 59.8427 68.3172 59.8427C67.8612 59.8427 67.709 59.691 67.709 59.2359C67.709 58.0223 67.709 56.8087 67.709 55.4432C67.709 55.1399 67.709 54.8364 68.1652 54.6848C69.8377 54.078 70.2939 53.016 70.1419 51.1954C69.9897 46.1892 70.1419 41.0311 70.1419 36.0249C70.1419 35.4181 69.9897 35.1146 69.3815 35.1146C67.709 35.1146 67.709 35.1146 67.709 33.4458C67.709 32.0804 67.709 30.7151 67.709 29.3497C67.709 28.8945 67.861 28.8945 68.1652 28.8945C71.2062 28.8945 74.2471 28.8945 77.2882 28.8945C77.8964 28.8945 77.7444 29.1978 77.7444 29.5013C77.7444 33.1423 77.7444 36.935 77.7444 40.576C77.7444 41.0311 77.7444 41.3344 77.7444 41.6379ZM77.2882 49.8302C77.2882 52.1057 78.9607 53.6228 81.2416 53.6228C83.5223 53.6228 85.1949 52.1057 85.3469 49.8302C85.3469 47.5544 83.6743 45.8857 81.3936 45.8857C78.9607 46.0375 77.2882 47.7063 77.2882 49.8302Z" fill="white"/>
<path d="M121.535 57.4151C120.623 58.0219 120.015 58.7806 119.255 59.2357C116.974 60.601 114.541 60.9045 112.108 59.6907C110.588 58.9322 109.675 57.7186 109.523 55.898C109.371 52.7122 109.371 49.678 109.371 46.4922C109.371 45.8854 109.219 45.7337 108.611 45.7337C106.938 45.7337 106.938 45.7337 106.938 44.065C106.938 42.8514 106.938 41.4859 106.938 40.2723C106.938 39.6655 107.09 39.5137 107.699 39.5137C110.588 39.5137 113.477 39.5137 116.214 39.5137C116.974 39.5137 116.974 39.8172 116.974 40.424C116.974 43.9131 116.974 47.5541 116.974 51.0434C116.974 51.4986 116.974 51.9537 117.126 52.4089C117.43 53.4708 117.886 53.926 118.799 53.926C119.863 54.0776 120.623 53.4708 121.079 52.7122C121.383 51.9537 121.383 51.1953 121.383 50.4366C121.383 49.0714 121.383 47.5541 121.383 46.1888C121.383 45.7337 121.231 45.582 120.775 45.582C119.255 45.582 119.255 45.582 119.255 43.9131C119.255 42.5479 119.255 41.3341 119.255 40.1205C119.255 39.6653 119.407 39.5137 119.863 39.5137C122.752 39.5137 125.641 39.5137 128.378 39.5137C128.986 39.5137 128.986 39.6655 128.986 40.2723C128.986 44.5201 128.986 48.7679 128.986 52.8638C128.986 53.4708 129.138 53.7741 129.746 53.926C131.267 54.2293 131.723 55.1396 131.419 56.6567C131.267 57.5668 131.419 58.3254 131.419 59.2357C131.419 59.6907 131.267 59.6907 130.962 59.6907C127.922 59.6907 124.881 59.6907 121.839 59.6907C121.383 59.6907 121.231 59.539 121.383 59.2357C121.535 58.7806 121.535 58.1736 121.535 57.4151Z" fill="white"/>
<path d="M142.063 54.5318C143.887 54.5318 145.408 54.5318 146.928 54.5318C147.232 54.5318 147.537 54.5318 147.537 54.0767C147.689 53.4699 147.841 53.0148 147.993 52.4079C147.993 52.1046 148.297 51.9528 148.601 51.9528C149.817 51.9528 151.186 51.9528 152.402 51.9528C152.858 51.9528 153.01 52.1045 153.01 52.5596C153.01 54.8353 153.01 57.1109 153.01 59.3864C153.01 59.8416 152.858 59.9932 152.402 59.9932C146.472 59.9932 140.39 59.9932 134.46 59.9932C134.004 59.9932 134.004 59.8416 134.004 59.5383C134.004 57.7177 134.004 55.7455 134.004 53.925C134.004 53.4699 134.308 53.3182 134.46 53.1666C137.501 50.7392 140.542 48.312 143.583 45.8846C143.887 45.7329 144.191 45.4295 144.495 45.1261C142.823 45.1261 141.302 45.1261 139.782 45.1261C139.478 45.1261 139.478 45.2778 139.326 45.5811C139.022 46.1879 139.022 47.25 138.566 47.4017C137.957 47.705 137.045 47.5534 136.285 47.5534C135.677 47.5534 135.068 47.5534 134.46 47.5534C134.004 47.5534 134.004 47.4017 134.004 47.0982C134.004 44.8227 134.004 42.5471 134.004 40.2714C134.004 39.8162 134.156 39.8164 134.612 39.8164C140.542 39.8164 146.624 39.8164 152.554 39.8164C153.01 39.8164 153.162 39.9679 153.162 40.423C153.162 42.2436 153.162 44.0642 153.162 45.8846C153.162 46.3397 153.01 46.4914 152.706 46.7947C149.513 49.3738 146.168 51.9528 142.975 54.5318C142.519 54.2284 142.367 54.2284 142.063 54.5318Z" fill="white"/>
<path d="M176.122 54.8358C174.905 56.808 173.233 58.3249 171.256 59.3869C167.607 61.0558 163.958 60.904 160.613 59.2352C156.355 57.1113 154.835 53.0152 155.291 48.4641C155.899 43.1543 160.308 39.5133 165.478 39.3617C169.279 39.2099 172.624 40.2718 174.905 43.4576C176.578 45.7334 177.034 48.3124 177.034 51.0431C177.034 51.6499 176.73 51.4981 176.426 51.4981C172.32 51.4981 168.063 51.4981 163.958 51.4981C163.197 51.4981 163.197 51.8016 163.349 52.2567C163.654 53.4703 164.262 54.3806 165.478 54.6841C166.846 54.9874 168.063 54.6841 168.975 53.6222C169.432 53.167 169.736 53.0152 170.344 53.3187C172.168 53.6222 174.145 54.229 176.122 54.8358ZM166.238 47.8573C167.151 47.8573 168.063 47.8573 168.823 47.8573C169.431 47.8573 169.584 47.5538 169.431 47.0986C169.127 45.5817 167.911 44.6714 166.238 44.8231C164.414 44.8231 163.349 45.7334 163.045 47.4021C163.045 47.8573 163.045 47.8573 163.501 47.8573C164.414 47.7056 165.326 47.8573 166.238 47.8573Z" fill="white"/>
<path d="M227.363 54.8345C225.843 57.2619 223.866 58.9307 221.281 59.841C218.239 60.9029 215.199 60.5994 212.158 59.3858C208.358 57.7171 206.228 54.0761 206.228 49.5248C206.228 43.4566 211.094 39.3606 216.568 39.0572C220.978 38.9055 224.323 40.4224 226.603 44.2151C227.668 46.1873 228.123 48.3112 227.971 50.5868C227.971 51.1937 227.668 51.0419 227.363 51.0419C223.258 51.0419 219.153 51.0419 215.048 51.0419C214.439 51.0419 214.134 51.1937 214.439 51.8005C214.743 53.0141 215.503 53.9244 216.568 54.2279C217.936 54.5312 219.153 54.2277 220.216 53.1658C220.673 52.7108 220.978 52.7106 221.433 52.8625C223.41 53.6209 225.386 54.2277 227.363 54.8345ZM217.479 47.8561C218.393 47.8561 219.305 47.8561 220.065 47.8561C220.673 47.8561 220.825 47.5527 220.673 47.0976C220.216 45.5805 219.153 44.6702 217.479 44.822C215.654 44.822 214.591 45.7323 214.286 47.4011C214.134 47.8562 214.439 47.8561 214.743 47.8561C215.654 47.8561 216.568 47.8561 217.479 47.8561Z" fill="white"/>
<path d="M188.591 41.4842C188.591 45.2769 188.591 49.2212 188.591 53.0138C188.591 53.6208 188.742 53.7725 189.351 53.7725C190.871 53.7725 190.871 53.7725 190.871 55.2896C190.871 56.6548 190.871 58.0203 190.871 59.5373C190.871 59.9925 190.719 60.1442 190.262 60.1442C186.462 60.1442 182.812 60.1442 179.012 60.1442C178.555 60.1442 178.403 59.9925 178.403 59.5373C178.403 57.8686 178.403 56.1997 178.403 54.5309C178.403 54.0758 178.555 53.7725 179.012 53.9241C179.164 53.9241 179.164 53.9241 179.315 53.9241C180.835 53.9241 180.835 53.9241 180.835 52.4072C180.835 47.0975 180.835 41.7875 180.835 36.3261C180.835 35.5677 180.684 35.4159 179.924 35.5677C178.251 35.5677 178.251 35.5677 178.251 33.8989C178.251 32.6852 178.251 31.3199 178.251 30.1061C178.251 29.4993 178.403 29.3477 179.012 29.3477C181.9 29.3477 184.789 29.3477 187.679 29.3477C188.439 29.3477 188.439 29.651 188.439 30.2579C188.591 33.7471 188.591 37.5398 188.591 41.4842Z" fill="white"/>
<path d="M104.354 41.4855C104.354 45.2781 104.354 49.2226 104.354 53.0153C104.354 53.6221 104.506 53.7737 105.114 53.7737C106.634 53.7737 106.634 53.7737 106.634 55.2908C106.634 56.6563 106.634 58.0215 106.634 59.387C106.634 59.8421 106.482 59.9938 106.026 59.9938C102.377 59.9938 98.5758 59.9938 94.9265 59.9938C94.4704 59.9938 94.3184 59.8421 94.3184 59.387C94.3184 57.7182 94.3184 56.0495 94.3184 54.3807C94.3184 53.9256 94.4704 53.7737 94.9265 53.7737H95.0785C96.7511 53.7737 96.7511 53.7739 96.7511 52.105C96.7511 46.7952 96.7511 41.4855 96.7511 36.3274C96.7511 35.7206 96.5991 35.4173 95.9909 35.4173C94.3184 35.4173 94.3184 35.4173 94.3184 33.7485C94.3184 32.5349 94.3184 31.3212 94.3184 30.1076C94.3184 29.5008 94.4704 29.1973 95.0785 29.1973C97.9676 29.1973 100.704 29.1973 103.593 29.1973C104.202 29.1973 104.354 29.3491 104.354 29.9559C104.202 33.7485 104.354 37.5412 104.354 41.4855Z" fill="white"/>
<path d="M202.427 41.4848C202.427 45.2776 202.427 49.0703 202.427 52.8629C202.427 53.4697 202.579 53.773 203.187 53.773C204.555 53.773 204.555 53.7732 204.555 55.1385C204.555 56.5039 204.555 57.8692 204.555 59.3863C204.555 59.8414 204.404 59.9931 203.947 59.9931C200.297 59.9931 196.497 59.9931 192.847 59.9931C192.392 59.9931 192.238 59.9931 192.238 59.3863C192.238 57.7175 192.238 56.0488 192.238 54.2284C192.238 53.7732 192.392 53.6214 192.847 53.6214C193.455 53.6214 194.215 53.9249 194.672 53.4697C195.128 53.0146 194.823 52.2561 194.823 51.6493C194.823 46.4912 194.823 41.1815 194.823 36.0234C194.823 35.4166 194.672 35.265 194.063 35.265C192.392 35.265 192.392 35.265 192.392 33.596C192.392 32.2308 192.392 31.0172 192.392 29.6517C192.392 29.1966 192.543 29.0449 192.998 29.0449C196.04 29.0449 198.928 29.0449 201.97 29.0449C202.579 29.0449 202.579 29.3482 202.579 29.8034C202.427 33.7479 202.427 37.5405 202.427 41.4848Z" fill="white"/>
<path d="M33.8018 44.5182C33.8018 48.3109 30.7608 51.3451 26.9595 51.3451C23.1583 51.3451 20.1172 48.3109 20.1172 44.5182C20.1172 40.7256 23.1583 37.6914 26.9595 37.6914C30.7608 37.6914 33.8018 40.7256 33.8018 44.5182Z" fill="white"/>
<path d="M15.5557 28.438C15.5557 31.017 13.579 32.9891 10.9942 32.9891C8.56133 32.9891 6.43262 30.8652 6.43262 28.438C6.43262 26.0106 8.56133 23.8867 10.9942 23.8867C13.579 24.0386 15.5557 26.0106 15.5557 28.438Z" fill="white"/>
<path d="M54.1767 44.5181C54.1767 46.9453 52.2 49.0692 49.6153 49.0692C47.1824 49.0692 45.0537 47.0971 45.0537 44.5181C45.0537 41.939 47.0304 39.9668 49.6153 39.9668C52.2 39.9668 54.1767 41.939 54.1767 44.5181Z" fill="white"/>
<path d="M31.5215 21.9144C31.5215 24.4934 29.5448 26.4657 26.9599 26.4657C24.3751 26.4657 22.3984 24.4934 22.3984 21.9144C22.3984 19.3355 24.5271 17.3633 26.9599 17.3633C29.5448 17.3633 31.5215 19.4872 31.5215 21.9144Z" fill="white"/>
<path d="M10.9942 64.999C8.40928 64.999 6.43262 63.0268 6.43262 60.4478C6.43262 58.0204 8.56133 55.8965 10.9942 55.8965C13.579 55.8965 15.5557 58.0204 15.5557 60.4478C15.5557 63.0268 13.579 64.999 10.9942 64.999Z" fill="white"/>
<path d="M27.1114 62.5723C29.6963 62.5723 31.6728 64.5445 31.6728 67.1235C31.6728 69.7026 29.5441 71.6747 27.1114 71.6747C24.6785 71.6747 22.5498 69.5508 22.5498 67.1235C22.5498 64.5445 24.5265 62.5723 27.1114 62.5723Z" fill="white"/>
<path d="M47.4863 60.4478C47.4863 63.0268 45.5096 64.999 42.9247 64.999C40.3398 64.999 38.3633 63.0268 38.3633 60.4478C38.3633 58.0204 40.3398 55.8965 42.9247 55.8965C45.5096 55.8965 47.4863 57.8687 47.4863 60.4478Z" fill="white"/>
<path d="M-0.105469 44.5181C-0.105469 41.939 1.8712 39.9668 4.45607 39.9668C6.88887 39.9668 9.0176 41.939 9.0176 44.5181C9.0176 47.0971 7.04093 49.0692 4.45607 49.0692C1.8712 49.0692 -0.105469 46.9453 -0.105469 44.5181Z" fill="white"/>
<path d="M47.4863 28.5884C47.4863 31.1673 45.5096 33.1395 42.9247 33.1395C40.3398 33.1395 38.3633 31.0156 38.3633 28.5884C38.3633 26.0093 40.492 24.0371 42.9247 24.0371C45.5096 24.0371 47.4863 26.0093 47.4863 28.5884Z" fill="white"/>
<path d="M18.2926 48.0078C19.2048 49.9801 20.4213 51.4971 22.2458 52.5591C22.55 52.7108 23.3102 53.0142 23.3102 53.1659C23.3102 53.621 22.854 53.7727 22.55 54.2278C21.4857 55.2898 20.4213 56.3517 19.3569 57.5653C19.0528 57.8687 18.7488 57.8687 18.4446 57.5653C17.0761 56.0483 15.5556 54.683 14.0351 53.1659C13.883 53.0142 13.5789 52.8624 13.8831 52.5591C15.2515 51.042 16.772 49.5249 18.2926 48.0078Z" fill="white"/>
<path d="M35.7785 40.8784C35.4743 40.2716 35.1703 39.8165 34.8661 39.2097C33.9539 37.6926 32.5854 36.6307 31.0649 35.8722C30.7609 35.7205 30.6087 35.5689 30.9129 35.2654C32.2814 33.9 33.6497 32.5347 35.0183 31.1693C35.3223 30.8659 35.4745 31.0176 35.6265 31.1693C37.147 32.6864 38.6675 34.2034 40.1881 35.7205C40.3401 35.8722 40.4921 36.0239 40.1881 36.3273C38.8195 37.8443 37.299 39.3614 35.7785 40.8784Z" fill="white"/>
<path d="M35.9308 48.1602C36.0828 48.1602 36.0828 48.3118 36.235 48.4636C37.6034 49.8289 38.9719 51.1943 40.3403 52.408C40.6444 52.7114 40.6444 52.8631 40.3403 53.0148C38.8197 54.5318 37.2994 56.0489 35.7788 57.566C35.6267 57.7177 35.4747 57.8693 35.1707 57.566C33.8021 56.2006 32.4338 54.8353 31.0652 53.4699C30.9132 53.3182 30.7611 53.1664 31.0652 53.0148C33.194 52.1045 34.7145 50.4357 35.6268 48.4636C35.6268 48.3118 35.6267 48.312 35.9308 48.1602Z" fill="white"/>
<path d="M23.4628 35.7192C21.03 36.7811 19.3573 38.4499 18.293 40.8773C16.7725 39.3602 15.252 37.8431 13.8836 36.4778C13.5795 36.1743 13.7315 36.1743 13.8836 35.8708C15.4041 34.3539 16.9246 32.8368 18.4452 31.3197C18.5972 31.1681 18.7492 31.0162 19.0533 31.3197C20.4217 32.685 21.9422 34.2021 23.4628 35.7192Z" fill="white"/>
<path d="M39.2756 45.885C38.5154 45.885 37.6031 45.885 36.8429 45.885C36.5387 45.885 36.3867 45.7332 36.3867 45.4298C36.5387 44.823 36.5387 44.2162 36.3867 43.6094C36.3867 43.306 36.3867 43.1543 36.8429 43.1543C38.5154 43.1543 40.34 43.1543 42.0127 43.1543C42.4687 43.1543 42.4689 43.306 42.4689 43.6094C42.4689 44.2162 42.4689 44.823 42.4689 45.2782C42.4689 45.7333 42.3167 45.7332 42.0127 45.7332C41.1003 45.885 40.188 45.885 39.2756 45.885Z" fill="white"/>
<path d="M17.6849 43.1543C17.5328 44.0644 17.5328 44.9747 17.6849 45.885C15.7082 45.885 13.8836 45.885 12.059 45.885C11.7549 45.885 11.7549 45.7332 11.7549 45.4298C11.7549 44.823 11.7549 44.2162 11.7549 43.6094C11.7549 43.306 11.9069 43.1543 12.211 43.1543C13.8836 43.1543 15.7082 43.1543 17.6849 43.1543Z" fill="white"/>
<path d="M28.3277 32.2302C28.3277 32.9886 28.3277 33.8989 28.3277 34.6574C28.3277 34.9608 28.3277 35.2642 27.8715 35.1125C27.2634 35.1125 26.6552 35.1125 26.047 35.1125C25.7428 35.1125 25.5908 34.9608 25.5908 34.6574C25.5908 32.9886 25.5908 31.168 25.5908 29.4993C25.5908 29.1958 25.7428 29.0441 26.047 29.0441H26.199C28.4799 28.8925 28.4799 28.8925 28.4799 31.1682C28.3277 31.4715 28.3277 31.775 28.3277 32.2302Z" fill="white"/>
<path d="M25.5911 56.8081C25.5911 56.0497 25.5911 55.1394 25.5911 54.3809C25.5911 54.0774 25.7433 53.9258 26.0473 53.9258C26.3515 53.9258 26.6555 53.9258 26.9596 53.9258C28.176 53.9258 28.176 53.9258 28.176 55.1394C28.176 56.5048 28.176 57.8703 28.176 59.2355C28.176 59.6907 28.024 59.8423 27.5678 59.8423C25.2871 59.8423 25.2871 59.8423 25.2871 57.7184C25.5911 57.4151 25.5911 57.1116 25.5911 56.8081Z" fill="white"/>
</g>
<defs>
<clipPath id="clip0_2038_11898">
<rect width="228" height="89" fill="white"/>
</clipPath>
</defs>
</svg>
