<svg width="227" height="89" viewBox="0 0 227 89" fill="none" xmlns="http://www.w3.org/2000/svg">
<g clip-path="url(#clip0_2772_14289)">
<path d="M13.8794 40.9668L22.6971 32.1223L31.5184 40.974L36.6462 35.8249L22.6971 21.8242L8.74805 35.8213L13.8794 40.9668Z" fill="white"/>
<path d="M-0.00683594 44.6035L5.12268 39.4563L10.2522 44.6035L5.12268 49.7507L-0.00683594 44.6035Z" fill="white"/>
<path d="M13.8798 48.238L22.6974 57.086L31.5187 48.2344L36.6501 53.3762L36.6465 53.3798L22.6974 67.3805L8.74838 53.387L8.74121 53.3798L13.8798 48.238Z" fill="white"/>
<path d="M35.1338 44.6055L40.2633 39.4583L45.3928 44.6055L40.2633 49.7526L35.1338 44.6055Z" fill="white"/>
<path d="M27.8997 44.6016L22.6966 39.377L18.849 43.2379L18.4043 43.6804L17.4935 44.5944L17.4863 44.6016L17.4935 44.6124L22.6966 49.8298L27.8997 44.6052L27.9033 44.6016H27.8997Z" fill="white"/>
<path d="M53.3955 32.8633H64.5548C67.3231 32.8633 69.4172 33.5829 70.8372 35.0222C71.3722 35.5539 71.794 36.1891 72.0769 36.8893C72.3598 37.5894 72.498 38.34 72.4831 39.0954V39.1638C72.4928 39.7826 72.4069 40.3992 72.2285 40.9917C72.0697 41.5017 71.839 41.9864 71.5436 42.431C71.2682 42.8502 70.935 43.2282 70.5539 43.5536C70.1816 43.8752 69.7737 44.1529 69.3383 44.3812C70.5939 44.8201 71.723 45.5614 72.6266 46.5401C73.425 47.4517 73.8242 48.7111 73.8242 50.3183V50.3866C73.8469 51.3904 73.6293 52.385 73.1896 53.2868C72.7635 54.1178 72.1388 54.8298 71.3715 55.3594C70.504 55.943 69.5381 56.3636 68.5207 56.6008C67.3121 56.8884 66.073 57.0274 64.8309 57.0146H53.3955V32.8633ZM63.436 42.6289C64.4014 42.6757 65.3622 42.4672 66.2222 42.0244C66.5576 41.8278 66.8314 41.5409 67.0126 41.1963C67.1939 40.8516 67.2753 40.4629 67.2478 40.0741V40.0058C67.2655 39.6476 67.193 39.2907 67.0369 38.9681C66.8809 38.6454 66.6463 38.3675 66.3549 38.1599C65.7596 37.7353 64.9002 37.523 63.7766 37.523H58.5556V42.6289H63.436ZM64.8452 52.3621C65.8071 52.4162 66.7645 52.1953 67.6063 51.7252C67.9343 51.5138 68.1997 51.218 68.3751 50.8687C68.5504 50.5193 68.6292 50.1292 68.6032 49.739V49.6706C68.6161 49.2997 68.5382 48.9312 68.3763 48.5975C68.2144 48.2637 67.9734 47.9749 67.6745 47.7563C67.0577 47.2766 66.0608 47.0367 64.6839 47.0367H58.5556V52.3621H64.8452Z" fill="white"/>
<path d="M80.4727 32.8633H85.769V57.0218H80.4727V32.8633Z" fill="white"/>
<path d="M93.7822 32.8633H98.6662L109.955 47.7312V32.8633H115.183V57.0218H110.675L99.0176 41.6645V57.0218H93.7822V32.8633Z" fill="white"/>
<path d="M131.22 32.6895H136.096L146.413 57.0207H140.884L138.682 51.6017H128.501L126.3 57.0207H120.899L131.22 32.6895ZM136.792 46.9096L133.586 39.0727L130.395 46.9096H136.792Z" fill="white"/>
<path d="M152.141 32.8633H157.025L168.306 47.7312V32.8633H173.534V57.0218H169.027L157.369 41.6645V57.0218H152.141V32.8633Z" fill="white"/>
<path d="M192.595 57.4461C190.907 57.4606 189.234 57.1326 187.676 56.4818C186.208 55.8739 184.877 54.9775 183.761 53.8453C182.644 52.7132 181.765 51.3683 181.174 49.8898C180.551 48.3433 180.236 46.6895 180.246 45.0214V44.9531C180.218 41.6651 181.479 38.4978 183.756 36.1338C184.877 34.979 186.218 34.0635 187.701 33.4423C189.313 32.7722 191.044 32.438 192.789 32.46C193.821 32.4523 194.851 32.5451 195.866 32.7371C196.733 32.9017 197.582 33.1562 198.397 33.4963C199.137 33.8089 199.841 34.2022 200.495 34.6693C201.133 35.1249 201.733 35.6328 202.288 36.1878L198.921 40.0882C198.06 39.2917 197.095 38.6174 196.052 38.084C195.027 37.5924 193.903 37.346 192.767 37.3644C191.822 37.3543 190.886 37.546 190.02 37.927C189.155 38.3079 188.38 38.8692 187.747 39.5737C187.12 40.2764 186.629 41.0903 186.299 41.9737C185.953 42.9073 185.779 43.896 185.786 44.8919V44.9602C185.782 45.9547 185.956 46.9417 186.299 47.8748C186.624 48.7614 187.111 49.5799 187.733 50.2892C188.361 51.0025 189.134 51.572 190 51.9594C190.866 52.3468 191.805 52.5429 192.753 52.5345C193.961 52.5727 195.159 52.3119 196.242 51.7753C197.274 51.2113 198.227 50.5145 199.079 49.7027L202.449 53.121C201.854 53.7692 201.21 54.3707 200.524 54.9201C199.849 55.4554 199.116 55.9129 198.34 56.2839C197.512 56.6748 196.641 56.9635 195.744 57.1438C194.707 57.3523 193.652 57.4536 192.595 57.4461V57.4461Z" fill="white"/>
<path d="M208.7 32.8633H226.82V37.5914H213.91V42.4921H225.278V47.2202H213.928V52.2937H226.999V57.0218H208.711L208.7 32.8633Z" fill="white"/>
</g>
<defs>
<clipPath id="clip0_2772_14289">
<rect width="227" height="89" fill="white"/>
</clipPath>
</defs>
</svg>
