<svg width="227" height="88" viewBox="0 0 227 88" fill="none" xmlns="http://www.w3.org/2000/svg">
<g clip-path="url(#clip0_2790_14288)">
<path d="M0.899414 26.9658C1.76499 26.5595 2.56874 26.0472 3.39015 25.5703C12.4522 20.3327 21.5054 15.0951 30.5498 9.84862C30.8412 9.68081 31.0444 9.66314 31.3447 9.83979C41.1133 15.4572 50.8908 21.0658 60.6682 26.6743C60.9509 26.8333 61.0392 27.01 61.0392 27.3279C61.0304 38.6157 61.0304 49.9035 61.0392 61.1825C61.0392 61.4916 60.9685 61.6771 60.6771 61.8449C50.9438 67.4623 41.2105 73.0886 31.486 78.7325C31.1327 78.9356 30.8766 78.9533 30.5056 78.7413C20.7635 73.1151 11.0037 67.5065 1.24388 61.8979C1.12906 61.8361 1.01424 61.7743 0.899414 61.7125C0.899414 50.1244 0.899414 38.5451 0.899414 26.9658ZM48.3294 44.2596C48.3294 41.0535 48.3294 37.8473 48.3382 34.65C48.3382 34.3762 48.2764 34.1995 48.0202 34.0582C42.447 30.8697 36.8738 27.6812 31.3005 24.4751C31.0709 24.3426 30.9031 24.3338 30.6646 24.4662C25.1178 27.6989 19.5623 30.9227 14.0067 34.1465C13.7506 34.2967 13.6711 34.4557 13.6711 34.7383C13.6799 41.1506 13.6799 47.5541 13.6711 53.9664C13.6711 54.2579 13.7594 54.4081 14.0067 54.5494C19.5711 57.729 25.1355 60.9087 30.6911 64.0972C30.9207 64.2297 31.0797 64.2474 31.327 64.1149C36.8649 60.8999 42.4117 57.6937 47.9673 54.4876C48.2499 54.3286 48.3382 54.1519 48.3382 53.834C48.3206 50.6366 48.3294 47.4481 48.3294 44.2596Z" fill="white"/>
<path d="M226.992 56.1561C225.508 56.1561 224.015 56.1385 222.531 56.165C222.196 56.1738 222.01 56.0501 221.825 55.7852C220.376 53.7096 218.91 51.6604 217.462 49.5848C217.232 49.2492 217.108 49.2757 216.87 49.5495C216.393 50.0883 215.889 50.6094 215.386 51.1217C215.209 51.2983 215.13 51.4838 215.13 51.7399C215.139 53.0295 215.121 54.3278 215.139 55.6174C215.148 55.9707 215.077 56.1031 214.688 56.0943C213.646 56.0678 212.595 56.0766 211.553 56.0943C211.261 56.0943 211.146 56.0501 211.146 55.7145C211.155 47.6152 211.155 39.5247 211.146 31.4254C211.146 31.1163 211.252 31.0545 211.526 31.0633C212.586 31.0721 213.646 31.081 214.706 31.0633C215.068 31.0545 215.139 31.1869 215.139 31.5226C215.13 36.1508 215.13 40.7789 215.139 45.4071C215.139 45.5749 215.095 45.7516 215.183 45.9194C215.333 45.9282 215.386 45.8046 215.457 45.7251C217.409 43.6848 219.352 41.6445 221.295 39.5866C221.516 39.3481 221.737 39.2598 222.063 39.2598C223.503 39.2774 224.952 39.2686 226.391 39.2686C226.533 39.2686 226.683 39.2156 226.842 39.3481C226.276 39.931 225.711 40.5051 225.155 41.0792C223.503 42.7574 221.86 44.4355 220.2 46.1049C220.023 46.2815 219.952 46.4052 220.129 46.6525C222.372 49.7438 224.607 52.844 226.842 55.9353C226.877 55.9883 226.948 56.0236 227.001 56.0766C226.992 56.0943 226.992 56.1208 226.992 56.1561Z" fill="white"/>
<path d="M78.5189 43.8617C78.404 41.0089 79.1813 38.3415 80.9743 36.0274C83.6858 32.5386 87.2894 30.9311 91.7145 31.1696C94.1522 31.3021 96.3956 31.9998 98.3299 33.5367C100.052 34.9057 101.174 36.6722 101.801 38.7831C101.881 39.0569 101.81 39.1452 101.571 39.2247C100.494 39.5692 99.4163 39.9225 98.3564 40.3023C98.0738 40.3994 97.9943 40.3376 97.9148 40.0638C97.0934 37.3611 95.3004 35.6299 92.5182 35.1707C88.102 34.4376 84.1009 36.8046 83.0587 41.4505C82.6348 43.3495 82.6701 45.2396 83.2265 47.1121C84.2246 50.4684 87.0775 52.6323 90.5839 52.7295C94.2052 52.8266 96.8549 51.0248 98.1268 47.6067C98.1974 47.4212 98.2328 47.3417 98.4536 47.4212C99.54 47.7833 100.626 48.1366 101.722 48.4722C102.066 48.5782 101.951 48.7725 101.889 48.9757C101.077 51.5194 99.54 53.5244 97.2877 54.9641C95.2033 56.3066 92.8892 56.7835 90.4338 56.6864C86.8213 56.5451 83.783 55.1584 81.4247 52.4203C79.3314 49.9738 78.3952 47.1297 78.5189 43.8617Z" fill="white"/>
<path d="M109.546 40.8249C110.032 40.3479 110.447 39.9328 110.96 39.6413C113.132 38.4048 115.349 38.4048 117.531 39.5354C119.191 40.3921 119.96 41.9466 120.304 43.7219C120.419 44.3402 120.463 44.9761 120.463 45.6032C120.463 48.9419 120.454 52.2717 120.472 55.6103C120.472 55.9636 120.401 56.0961 120.022 56.0873C118.988 56.0608 117.964 56.0696 116.93 56.0873C116.657 56.0873 116.586 56.0078 116.586 55.7428C116.595 52.4837 116.551 49.2157 116.621 45.9565C116.665 44.1635 115.429 42.6885 113.883 42.4942C111.843 42.2381 110.103 43.3775 109.714 45.1881C109.644 45.5061 109.626 45.824 109.617 46.1508C109.599 49.3217 109.573 52.5013 109.555 55.6721C109.555 55.9901 109.493 56.1049 109.149 56.0961C108.089 56.0696 107.029 56.0696 105.969 56.0961C105.607 56.1049 105.537 55.9813 105.537 55.6545C105.545 49.039 105.545 42.4235 105.545 35.8169C105.545 34.3949 105.563 32.9641 105.537 31.542C105.528 31.1357 105.66 31.0563 106.031 31.0651C107.065 31.0916 108.089 31.0916 109.122 31.0651C109.485 31.0563 109.555 31.1799 109.555 31.5155C109.538 34.5716 109.546 37.6452 109.546 40.8249Z" fill="white"/>
<path d="M135.275 54.1694C134.427 55.2647 133.394 56.1126 132.043 56.4394C129.879 56.9693 127.812 56.8633 126.054 55.247C123.581 52.9771 123.643 48.1987 127.953 46.8121C129.181 46.4146 130.462 46.3351 131.716 46.1143C132.458 45.9818 133.2 45.8847 133.933 45.7522C134.684 45.6197 134.993 45.2311 134.984 44.4803C134.966 43.4557 134.436 42.6785 133.482 42.2987C132.626 41.9631 131.716 41.8836 130.841 42.0867C129.49 42.4047 128.651 43.2968 128.404 44.6834C128.351 45.0014 128.262 45.0809 127.927 45.0014C126.999 44.7629 126.072 44.5421 125.136 44.3831C124.685 44.3037 124.676 44.1093 124.765 43.756C125.189 41.8659 126.293 40.4792 128.006 39.649C130.594 38.3948 133.253 38.4389 135.841 39.6313C137.651 40.4616 138.561 42.0249 138.852 43.968C138.932 44.5068 138.941 45.0544 138.941 45.5932C138.941 47.9868 138.941 50.3803 138.941 52.7739C138.941 53.7896 138.941 54.8054 139.109 55.8034C139.153 56.0772 139.091 56.1921 138.782 56.1832C137.793 56.1656 136.812 56.1656 135.823 56.1832C135.531 56.1921 135.443 56.0861 135.408 55.8123C135.355 55.2647 135.302 54.7259 135.275 54.1694ZM135.037 49.4441C135.037 49.1968 135.028 48.9495 135.037 48.6934C135.046 48.4725 135.002 48.3754 134.745 48.4195C133.253 48.6492 131.76 48.8612 130.267 49.0996C129.119 49.2851 128.324 50.345 128.413 51.5109C128.492 52.6238 129.437 53.4893 130.594 53.5158C130.771 53.5158 130.947 53.5247 131.124 53.5247C133.456 53.5777 135.196 51.7759 135.037 49.4441Z" fill="white"/>
<path d="M195.115 41.4773C196.025 40.1171 197.137 39.2338 198.621 38.9335C202.101 38.2181 205.617 39.7814 206.155 44.2948C206.226 44.9219 206.235 45.5578 206.235 46.1849C206.235 49.3469 206.226 52.5089 206.244 55.6621C206.244 55.9801 206.173 56.0949 205.837 56.086C204.76 56.0595 203.691 56.0684 202.614 56.086C202.331 56.086 202.198 56.0419 202.198 55.7062C202.207 52.5619 202.172 49.4176 202.225 46.2732C202.243 45.2222 202.11 44.286 201.386 43.491C200.388 42.3958 199.116 42.2368 197.782 42.6166C196.431 43.0053 195.592 43.9503 195.3 45.3282C195.23 45.655 195.221 45.9994 195.221 46.3351C195.221 49.4352 195.221 52.5354 195.238 55.6356C195.238 55.9712 195.168 56.0949 194.806 56.086C193.746 56.0595 192.686 56.0684 191.626 56.086C191.335 56.086 191.22 56.0419 191.22 55.7151C191.229 50.3538 191.229 44.9837 191.22 39.6225C191.22 39.331 191.308 39.2515 191.591 39.2515C192.651 39.2692 193.71 39.2692 194.77 39.2515C195.079 39.2427 195.141 39.3575 195.132 39.6313C195.106 40.2054 195.115 40.7707 195.115 41.4773Z" fill="white"/>
<path d="M156.871 41.4771C157.78 40.1169 158.902 39.2248 160.377 38.9245C163.937 38.2179 167.381 39.8431 167.911 44.3034C167.982 44.9305 167.991 45.5665 167.991 46.1936C167.991 49.3556 167.982 52.5176 168 55.6707C168 55.9975 167.92 56.0947 167.584 56.0859C166.542 56.0594 165.491 56.0594 164.449 56.0859C164.087 56.0947 163.981 56.0064 163.981 55.6266C163.998 52.5971 163.99 49.5675 163.99 46.5469C163.99 45.9463 163.963 45.3457 163.822 44.7539C163.142 42.0247 159.865 41.901 158.355 43.1376C157.383 43.9413 156.977 44.9659 156.977 46.1936C156.977 49.3202 156.959 52.4557 156.977 55.5824C156.977 55.9975 156.853 56.0947 156.464 56.077C155.431 56.0505 154.406 56.0594 153.373 56.077C153.082 56.077 152.967 56.0329 152.967 55.6972C152.976 50.336 152.976 44.9659 152.967 39.6046C152.967 39.3131 153.055 39.2336 153.338 39.2336C154.398 39.2513 155.458 39.2513 156.517 39.2336C156.827 39.2248 156.88 39.3485 156.88 39.6223C156.862 40.2052 156.871 40.7705 156.871 41.4771Z" fill="white"/>
<path d="M176.841 43.5884C176.841 47.5718 176.832 51.5552 176.85 55.5298C176.85 56.0068 176.708 56.1039 176.267 56.0951C175.269 56.0598 174.262 56.0686 173.264 56.0951C172.911 56.1039 172.831 55.9979 172.831 55.6535C172.84 50.0979 172.84 44.5511 172.84 38.9956C172.84 36.5137 172.849 34.0318 172.831 31.5498C172.831 31.1436 172.946 31.0641 173.326 31.0729C174.359 31.0994 175.384 31.0994 176.417 31.0729C176.77 31.0641 176.85 31.1789 176.85 31.5145C176.841 35.5333 176.841 39.5608 176.841 43.5884Z" fill="white"/>
<path d="M143.808 47.6865C143.808 45.0102 143.816 42.3429 143.799 39.6666C143.799 39.3398 143.878 39.2339 144.214 39.2427C145.292 39.2604 146.36 39.2604 147.438 39.2427C147.72 39.2427 147.853 39.2869 147.853 39.6225C147.844 44.9837 147.844 50.345 147.853 55.7063C147.853 55.9801 147.791 56.0861 147.491 56.0861C146.404 56.0949 145.318 56.1126 144.223 56.1567C143.896 56.1656 143.799 56.0861 143.808 55.7504C143.816 53.0654 143.808 50.3803 143.808 47.6865Z" fill="white"/>
<path d="M182.043 47.6954C182.043 45.0368 182.052 42.3783 182.034 39.7197C182.034 39.3223 182.149 39.2339 182.529 39.2428C183.571 39.2693 184.613 39.2604 185.664 39.2428C185.947 39.2428 186.035 39.3223 186.035 39.6137C186.026 44.975 186.026 50.3363 186.035 55.6975C186.035 55.9537 186 56.0861 185.691 56.0861C184.631 56.0861 183.571 56.1038 182.52 56.1568C182.096 56.1833 182.052 56.0243 182.052 55.6622C182.043 53.0125 182.043 50.3539 182.043 47.6954Z" fill="white"/>
<path d="M148.427 33.3431C148.418 34.7651 147.216 35.9487 145.794 35.9399C144.346 35.931 143.162 34.721 143.189 33.2725C143.207 31.9123 144.364 30.7111 145.662 30.6934C147.208 30.6846 148.444 31.8593 148.427 33.3431Z" fill="white"/>
<path d="M184.022 30.7364C185.47 30.7275 186.636 31.8758 186.636 33.3243C186.636 34.764 185.479 35.9387 184.039 35.9387C182.608 35.9475 181.425 34.764 181.425 33.3419C181.416 31.8934 182.573 30.7452 184.022 30.7364Z" fill="white"/>
</g>
<defs>
<clipPath id="clip0_2790_14288">
<rect width="227" height="88" fill="white"/>
</clipPath>
</defs>
</svg>
