<svg width="227" height="88" viewBox="0 0 227 88" fill="none" xmlns="http://www.w3.org/2000/svg">
<g clip-path="url(#clip0_2807_14527)">
<path fill-rule="evenodd" clip-rule="evenodd" d="M18.0281 62.0561C27.9848 62.0561 36.0561 53.9848 36.0561 44.0281C36.0561 34.0715 27.9848 26 18.0281 26C8.07146 26 0 34.0715 0 44.0281C0 53.9848 8.07146 62.0561 18.0281 62.0561ZM14.1091 56.0222C15.3739 56.3706 16.677 56.5609 17.9887 56.5886C18.0879 56.5886 18.1877 56.5866 18.2878 56.5827C19.2722 56.5508 20.2495 56.4038 21.1997 56.1448C21.3675 56.0963 21.4892 56.0728 21.6173 56.048H21.6173L21.6376 56.0441C22.0886 55.9558 22.4336 55.863 23.1052 55.5404C23.7705 55.2208 23.9224 54.35 23.4417 53.79C22.972 53.2429 21.9816 53.089 21.331 53.3998C21.206 53.4595 21.108 53.5045 21.0625 53.5234C20.1488 53.9073 19.1797 53.9642 18.2003 53.9963C17.3569 54.0218 16.2832 53.8834 15.0766 53.5937V48.7011C15.0766 47.9409 14.4604 47.3246 13.7002 47.3246C12.9401 47.3246 12.3238 47.9409 12.3238 48.7011V52.4785L12.3211 52.4769C11.6507 52.0411 11.0482 51.509 10.5331 50.8976C10.0859 50.3753 9.70591 49.7992 9.40192 49.1826C9.00882 48.3605 8.71979 47.5549 8.53266 46.7451L11.4893 45.2888L13.054 46.5485C13.1696 46.6414 13.3116 46.6959 13.4598 46.704C13.6079 46.7121 13.755 46.6735 13.8802 46.5937L15.5455 45.5282L16.9861 46.6404C17.104 46.7312 17.2474 46.7828 17.3961 46.7877C17.5449 46.7927 17.6914 46.7509 17.8151 46.6681L19.6395 45.4404L20.0998 46.0345C20.1861 46.1461 20.3602 46.1252 20.4179 45.9964L21.5651 43.4313C21.626 43.295 21.5104 43.1459 21.3632 43.171L18.5948 43.6436C18.4559 43.6673 18.3923 43.8306 18.4786 43.9421L18.7679 44.3154L17.4415 45.1998L16.0111 44.0949C15.8956 44.0051 15.7551 43.9533 15.6089 43.9468C15.4628 43.9403 15.3183 43.9792 15.1952 44.0584L13.5385 45.118L12.0177 43.8934C11.9122 43.8088 11.7847 43.756 11.6503 43.7413C11.5159 43.7266 11.38 43.7505 11.2587 43.8102L8.30483 45.2724C8.21328 44.1167 8.32015 42.9283 8.61954 41.6497C9.21947 39.0852 11.2979 36.5002 13.5544 35.5107C16.053 34.4172 18.6827 34.5542 21.4651 34.6992L21.5194 34.702C22.1001 34.7335 22.6913 34.7655 23.2894 34.7867C24.0044 34.812 24.5845 34.2315 24.5845 33.5161C24.5845 32.8007 24.0044 32.2207 23.2895 32.1938C22.7656 32.1742 22.2413 32.1463 21.7263 32.1189L21.7262 32.1189L21.6653 32.1156L21.6634 32.1155C18.6835 31.955 15.6015 31.789 12.524 33.1373C9.47779 34.47 6.89869 37.6548 6.10176 41.06C5.32818 44.3631 5.63615 47.2983 7.06801 50.2977C7.94503 52.0816 9.28872 53.5947 10.9563 54.6764C11.9347 55.279 12.9972 55.7325 14.1091 56.0222ZM13.7215 43.0723C12.9204 43.0847 12.2271 42.4297 12.5099 41.6801C12.6802 41.2288 12.9396 40.8163 13.2726 40.4673C14.4884 39.2121 16.348 39.1537 16.5567 39.1537H23.046C23.8521 39.1537 24.5056 39.8072 24.5056 40.6133C24.5056 41.4194 23.8521 42.0729 23.046 42.0729H16.6005C16.2838 42.0924 15.9731 42.1675 15.6824 42.2947C15.5081 42.3776 15.3401 42.5003 15.1714 42.6235C14.8745 42.8405 14.5754 43.0591 14.2357 43.0643L13.7215 43.0723Z" fill="white"/>
<path fill-rule="evenodd" clip-rule="evenodd" d="M137.351 51.7718L135.158 48.1054H128.239L129.445 46.0417H133.931L130.672 40.5922L124.034 51.7718H121.117L129.526 37.8273C129.673 37.5735 129.848 37.3731 130.049 37.2262C130.25 37.0793 130.492 37.0059 130.773 37.0059C131.055 37.0059 131.289 37.0793 131.477 37.2262C131.678 37.3731 131.852 37.5735 132 37.8273L140.429 51.7718H137.351ZM109.662 51.7718V37.2062H122.075V39.7507H112.198V51.7718H109.662ZM114.068 45.7413V43.5173H121.471V45.7413H114.068ZM144.578 51.7718V41.1131L154.858 51.4112C155.22 51.7719 155.609 51.9522 156.025 51.9522C156.4 51.9522 156.702 51.8186 156.93 51.5515C157.171 51.2843 157.292 50.9103 157.292 50.4295V37.086H154.858V47.7448L144.538 37.5468C144.35 37.3598 144.169 37.2262 143.995 37.1461C143.821 37.0659 143.639 37.0259 143.452 37.0259C143.05 37.0259 142.728 37.1661 142.486 37.4466C142.258 37.7137 142.144 38.0811 142.144 38.5485V51.7718H144.578ZM164.656 51.7718V39.7507H159.104V37.2062H172.763V39.7507H167.211V51.7718H164.656ZM184.953 48.1054L187.146 51.7718H190.224L181.795 37.8273C181.648 37.5735 181.473 37.3731 181.272 37.2262C181.084 37.0793 180.85 37.0059 180.568 37.0059C180.287 37.0059 180.045 37.0793 179.844 37.2262C179.643 37.3731 179.468 37.5735 179.321 37.8273L170.912 51.7718H173.829L180.468 40.5922L183.726 46.0417H179.24L178.033 48.1054H184.953ZM192 51.7718V49.2273H202.963C203.647 49.2273 204.17 49.0537 204.532 48.7064C204.908 48.3592 205.096 47.8984 205.096 47.324C205.096 46.6962 204.908 46.2288 204.532 45.9215C204.17 45.6009 203.647 45.4407 202.963 45.4407H196.244C195.56 45.4407 194.937 45.3405 194.374 45.1402C193.823 44.9264 193.354 44.6393 192.965 44.2786C192.589 43.9047 192.294 43.4639 192.08 42.9563C191.879 42.4488 191.778 41.8944 191.778 41.2934C191.778 40.7057 191.872 40.1647 192.06 39.6705C192.261 39.163 192.549 38.7289 192.925 38.3682C193.313 38.0076 193.79 37.7271 194.353 37.5267C194.916 37.313 195.56 37.2062 196.284 37.2062H206.785V39.7507H196.284C195.694 39.7507 195.238 39.9109 194.917 40.2315C194.594 40.5388 194.433 40.9728 194.433 41.5338C194.433 42.0948 194.594 42.5289 194.917 42.8361C195.252 43.1433 195.701 43.2969 196.264 43.2969H202.963C204.452 43.2969 205.578 43.6442 206.343 44.3387C207.121 45.0333 207.509 46.0885 207.509 47.5044C207.509 48.1187 207.416 48.6864 207.228 49.2073C207.04 49.7282 206.758 50.1824 206.383 50.5697C206.007 50.9437 205.531 51.2375 204.955 51.4513C204.391 51.665 203.728 51.7718 202.963 51.7718H192ZM216.66 46.2421V51.7718H219.215V46.2421L227 37.2062H223.741L218.028 43.918L212.335 37.2062H208.895L216.66 46.2421ZM92.865 51.7522V41.0934L103.145 51.3915C103.506 51.7522 103.896 51.9325 104.311 51.9325C104.687 51.9325 104.989 51.7989 105.217 51.5317C105.458 51.2646 105.579 50.8907 105.579 50.4098V37.0663H103.145V47.7251L92.8247 37.5271C92.637 37.3401 92.4558 37.2066 92.2817 37.1264C92.107 37.0463 91.9265 37.0062 91.7388 37.0062C91.3361 37.0062 91.0146 37.1465 90.7729 37.4269C90.545 37.6941 90.4306 38.0614 90.4306 38.5289V51.7522H92.865ZM52.2199 51.1912C53.0916 51.5652 54.037 51.7522 55.0562 51.7522H62.9822V49.2077H55.0562C54.3991 49.2077 53.7889 49.0875 53.2257 48.847C52.6758 48.6066 52.1997 48.2794 51.7974 47.8653C51.3951 47.4379 51.0799 46.9303 50.8519 46.3426C50.6239 45.7549 50.5099 45.1205 50.5099 44.4393C50.5099 43.7447 50.6239 43.1103 50.8519 42.5359C51.0799 41.9616 51.3951 41.4674 51.7974 41.0533C52.1997 40.6393 52.6758 40.3187 53.2257 40.0916C53.7889 39.8512 54.3991 39.731 55.0562 39.731H62.9822V37.1865H55.0562C54.037 37.1865 53.0916 37.3602 52.2199 37.7074C51.3615 38.0414 50.6105 38.5222 49.9668 39.15C49.3364 39.7644 48.8402 40.5124 48.4781 41.3939C48.1295 42.2755 47.9551 43.2505 47.9551 44.3191C47.9551 45.3743 48.1295 46.356 48.4781 47.2643C48.8402 48.1725 49.3364 48.9606 49.9668 49.6284C50.6105 50.2829 51.3615 50.8038 52.2199 51.1912ZM69.0997 51.1912C69.9715 51.5652 70.917 51.7522 71.9359 51.7522H75.4972C76.5428 51.7522 77.5015 51.5652 78.3738 51.1912C79.2455 50.8038 79.9963 50.2829 80.6263 49.6284C81.2706 48.9606 81.7669 48.1725 82.1149 47.2643C82.4774 46.356 82.6586 45.3743 82.6586 44.3191C82.6586 43.2639 82.4839 42.3022 82.1351 41.434C81.7863 40.5524 81.2972 39.7978 80.6665 39.17C80.0365 38.5422 79.2786 38.0547 78.394 37.7074C77.5216 37.3602 76.5565 37.1865 75.4972 37.1865H71.9359C70.917 37.1865 69.9715 37.3602 69.0997 37.7074C68.2414 38.0414 67.4904 38.5222 66.8466 39.15C66.2164 39.7644 65.7202 40.5124 65.3581 41.3939C65.0093 42.2755 64.835 43.2505 64.835 44.3191C64.835 45.3743 65.0093 46.356 65.3581 47.2643C65.7202 48.1725 66.2164 48.9606 66.8466 49.6284C67.4904 50.2829 68.2414 50.8038 69.0997 51.1912ZM77.3476 48.847C76.7845 49.0875 76.1674 49.2077 75.4972 49.2077H71.9359C71.2791 49.2077 70.6689 49.0875 70.1055 48.847C69.5557 48.6066 69.0797 48.2794 68.6773 47.8653C68.275 47.4379 67.9598 46.9303 67.7318 46.3426C67.5038 45.7549 67.3898 45.1205 67.3898 44.4393C67.3898 43.7447 67.5038 43.1103 67.7318 42.5359C67.9598 41.9616 68.275 41.4674 68.6773 41.0533C69.0797 40.6393 69.5557 40.3187 70.1055 40.0916C70.6689 39.8512 71.2791 39.731 71.9359 39.731H75.4972C76.1674 39.731 76.7845 39.8512 77.3476 40.0916C77.9107 40.3187 78.394 40.6393 78.796 41.0533C79.2117 41.4674 79.5338 41.9683 79.7618 42.556C79.9898 43.1303 80.1034 43.7581 80.1034 44.4393C80.1034 45.1205 79.9898 45.7549 79.7618 46.3426C79.5338 46.9303 79.2117 47.4379 78.796 47.8653C78.394 48.2794 77.9107 48.6066 77.3476 48.847ZM85.0678 51.7522V37.1865H87.6223V51.7522H85.0678Z" fill="white"/>
</g>
<defs>
<clipPath id="clip0_2807_14527">
<rect width="227" height="88" fill="white"/>
</clipPath>
</defs>
</svg>
