<svg width="227" height="88" viewBox="0 0 227 88" fill="none" xmlns="http://www.w3.org/2000/svg">
<g clip-path="url(#clip0_2038_11934)">
<path d="M11.8047 53.8288C12.7408 51.3391 14.5636 49.3377 16.9284 48.0684L20.919 50.3627C22.5448 51.2902 22.1999 53.7799 20.7711 54.6097L12.593 59.2963C12.1003 59.5891 11.5091 59.4427 11.2627 58.9545C11.2135 58.8568 11.1642 58.7104 11.1642 58.6129C11.0164 57.0018 11.2135 55.3421 11.8047 53.8288Z" fill="white"/>
<path d="M24.6139 43.0899C24.6139 41.7231 23.9242 40.405 22.7417 39.6239L0.177734 26.7363C0.424066 34.1077 4.46391 40.8443 10.8193 44.6033L20.8696 50.3636C22.4462 51.2911 22.1506 53.8296 20.7218 54.6107L23.2345 53.1462C24.0227 52.7069 24.5153 51.8281 24.5153 50.9494V48.0204L24.6139 43.0899Z" fill="white"/>
<path opacity="0.2" d="M20.9182 50.3627L16.9277 48.0684C16.9277 48.0684 19.4896 50.2163 20.4749 51.3391C21.411 52.4131 20.7705 54.6587 20.7705 54.6587C22.15 53.8776 22.4948 51.2902 20.9182 50.3627Z" fill="white"/>
<path d="M38.8022 34.2535C37.8661 36.7432 36.0432 38.7936 33.7277 40.0139L29.7371 37.7194C28.1113 36.7919 28.4563 34.3024 29.8849 33.4724L38.0631 28.786C38.5558 28.5419 39.0977 28.7373 39.3441 29.1766C39.3933 29.2742 39.4425 29.4207 39.4425 29.5184C39.5905 31.0804 39.3441 32.7402 38.8022 34.2535Z" fill="white"/>
<path d="M25.9932 44.9934C25.9932 46.4092 26.6829 47.6783 27.8653 48.4594L50.4294 61.347C50.1831 53.9758 46.1924 47.239 39.7878 43.4313L29.6882 37.7197C28.1117 36.7922 28.4072 34.2537 29.836 33.4727L27.3234 34.9372C26.5351 35.3766 26.0425 36.2552 26.0425 37.134V40.063C26.0425 40.1117 25.9932 44.9934 25.9932 44.9934Z" fill="white"/>
<path opacity="0.2" d="M29.6881 37.7198L33.6787 40.0141C33.6787 40.0141 31.1167 37.8662 30.1315 36.7434C29.1954 35.6694 29.8359 33.4238 29.8359 33.4238C28.4071 34.2537 28.1116 36.7923 29.6881 37.7198Z" fill="white"/>
<path d="M52.0057 43.7431C52.0057 41.6439 52.3998 39.5935 53.1389 37.641C54.6661 33.5404 57.7206 30.2208 61.7113 28.4146C63.9281 27.3895 66.3422 26.9013 68.8056 26.9501C71.663 26.8524 74.4712 27.5847 76.9345 29.0005C79.1022 30.2696 80.8759 32.1246 82.0581 34.3215L76.9838 37.7874C76.5897 36.9087 76.0478 36.0788 75.3579 35.3954C74.7668 34.7608 74.0771 34.2725 73.2888 33.8332C72.5499 33.4427 71.8108 33.1986 70.9733 33.0034C70.185 32.857 69.3967 32.7593 68.6085 32.7593C67.0813 32.7105 65.6033 33.0522 64.2731 33.7356C63.0907 34.3702 62.0068 35.249 61.2185 36.3229C60.381 37.3969 59.7405 38.6173 59.3464 39.9353C58.9523 41.2534 58.7059 42.5715 58.7059 43.9383C58.7059 45.4028 58.9523 46.8673 59.3956 48.2341C59.8391 49.5522 60.5288 50.7727 61.4155 51.8954C62.3024 52.9206 63.337 53.7992 64.5686 54.4339C65.8003 55.0685 67.2291 55.4101 68.6085 55.4101C69.3967 55.4101 70.2342 55.3126 71.0225 55.1173C71.86 54.9221 72.6483 54.6292 73.3874 54.1898C74.1263 53.7505 74.816 53.2135 75.4073 52.6278C76.0478 51.9442 76.5897 51.1633 76.9345 50.2845L82.3539 53.3599C81.8119 54.6292 81.0237 55.7519 80.0382 56.7282C79.053 57.7047 77.9199 58.5345 76.6389 59.1691C75.3579 59.8526 73.9785 60.3408 72.5991 60.6824C71.2197 61.0242 69.7909 61.2194 68.3621 61.2194C66.0466 61.2194 63.7804 60.7313 61.7113 59.7061C59.7405 58.7297 57.967 57.3629 56.489 55.7519C55.0602 54.141 53.8778 52.2372 53.0895 50.2357C52.3998 48.0877 51.9565 45.891 52.0057 43.7431Z" fill="white"/>
<path d="M109.499 43.45C108.908 41.9366 108.021 40.5208 106.888 39.3494C105.706 38.1288 104.327 37.2013 102.75 36.5179C101.026 35.7857 99.1535 35.4439 97.2322 35.4929C95.36 35.4439 93.4385 35.8345 91.7143 36.5179C88.5612 37.836 86.1472 40.3257 84.9647 43.4988C83.7331 46.6719 83.7331 50.1866 84.9647 53.3109C86.1472 56.4351 88.6104 58.9736 91.7143 60.2429C95.2614 61.6586 99.2027 61.6586 102.75 60.2429C104.327 59.6082 105.706 58.6319 106.888 57.4116C108.021 56.191 108.859 54.8242 109.45 53.3109C110.731 50.1378 110.731 46.6229 109.499 43.45ZM103.292 51.407C102.996 52.2857 102.504 53.0668 101.912 53.799C100.09 55.8494 97.1828 56.484 94.6703 55.3612C93.882 54.9706 93.143 54.4826 92.601 53.799C92.0099 53.1156 91.5172 52.3345 91.2216 51.4559C90.5811 49.5032 90.5319 47.404 91.1724 45.4515C91.468 44.5727 91.9605 43.7429 92.5518 43.0595C93.143 42.4248 93.8327 41.8878 94.6209 41.4973C95.4092 41.1067 96.2961 40.9114 97.1828 40.9114C98.9565 40.9114 100.681 41.6437 101.863 43.0105C102.454 43.6939 102.947 44.524 103.243 45.4026C103.587 46.379 103.735 47.3553 103.735 48.3805C103.785 49.4055 103.637 50.4307 103.292 51.407Z" fill="white"/>
<path d="M118.17 35.9336H111.766V60.83H118.17V35.9336Z" fill="white"/>
<path d="M143.148 60.8294H136.744V46.8678C136.892 45.3546 136.498 43.7924 135.709 42.4743C135.02 41.5468 133.936 41.0586 132.753 41.1075C132.064 41.1075 131.423 41.2539 130.783 41.498C130.093 41.742 129.452 42.1325 128.861 42.572C128.27 43.06 127.728 43.597 127.236 44.2317C126.743 44.8663 126.398 45.5497 126.201 46.3308V60.8783H119.747V35.9329H125.56V40.5705C126.497 38.9596 127.925 37.6903 129.6 36.8604C131.472 35.9329 133.492 35.4934 135.562 35.5424C136.892 35.4934 138.222 35.7865 139.404 36.3722C140.34 36.9092 141.129 37.6903 141.72 38.6178C142.311 39.5941 142.656 40.6193 142.853 41.742C143.05 42.9136 143.148 44.1342 143.148 45.3056V60.8294Z" fill="white"/>
<path d="M227 27.097H216.9L210.742 37.788L204.534 27.097H194.434L196.307 29.9285C195.815 29.538 195.273 29.2449 194.729 28.952C192.118 27.5365 189.163 26.8529 186.157 26.9506C183.646 26.9018 181.132 27.3899 178.816 28.4151C176.748 29.3426 174.925 30.6607 173.349 32.2716C172.905 32.7598 172.511 33.248 172.117 33.785C170.442 31.393 168.077 29.5867 165.367 28.5128C163.002 27.5852 160.49 27.1459 157.928 27.1947H144.823V60.927H157.928C160.342 60.9758 162.707 60.5365 164.973 59.7066C166.993 58.9743 168.865 57.8027 170.393 56.2894C171.082 55.606 171.723 54.8249 172.265 54.0438C172.659 54.6297 173.151 55.1667 173.595 55.7037C175.122 57.3634 176.945 58.7302 179.013 59.6577C181.182 60.6829 183.546 61.1711 185.96 61.1222C187.438 61.1222 188.916 60.927 190.395 60.5852C191.873 60.2436 193.301 59.7554 194.681 59.072C195.468 58.6814 196.209 58.1932 196.898 57.7052L194.779 60.8783H204.879L210.692 50.7243L216.506 60.8783H226.555L215.57 44.2317L227 27.097ZM165.022 47.4537C164.727 48.4787 164.234 49.4552 163.544 50.285C162.904 51.0661 162.066 51.7008 161.18 52.14C160.145 52.5793 159.061 52.8235 157.928 52.8235H154.184V35.2006H157.928C159.012 35.2006 160.145 35.3959 161.13 35.8352C162.066 36.2258 162.904 36.8604 163.544 37.6415C164.234 38.4714 164.727 39.3989 165.072 40.3752C165.416 41.5468 165.614 42.7184 165.614 43.9388C165.564 45.1104 165.367 46.2821 165.022 47.4537ZM200.001 52.9211L192.907 48.7228C192.66 49.4552 192.267 50.0897 191.724 50.6756C191.232 51.2125 190.69 51.6031 190.049 51.9447C189.459 52.2865 188.768 52.5306 188.079 52.6283C187.438 52.7747 186.799 52.8235 186.108 52.8235C184.976 52.8235 183.843 52.5793 182.807 52.0911C181.871 51.6518 180.985 50.9684 180.344 50.1386C179.655 49.3087 179.163 48.3323 178.816 47.3071C178.472 46.2331 178.274 45.0617 178.274 43.9388C178.274 42.8648 178.424 41.7909 178.719 40.7657C179.013 39.7405 179.457 38.7642 180.099 37.9344C180.738 37.1045 181.576 36.3722 182.513 35.884C183.596 35.347 184.779 35.0541 186.01 35.1031C186.651 35.1031 187.34 35.1518 187.98 35.2983C188.671 35.4447 189.31 35.6401 189.951 35.9817C190.593 36.3235 191.182 36.714 191.676 37.251C192.218 37.8367 192.66 38.5201 192.957 39.3012L199.459 34.7125L205.765 44.2317L200.001 52.9211Z" fill="white"/>
<path d="M118.17 27.0977H111.766V33.4439H118.17V27.0977Z" fill="white"/>
</g>
<defs>
<clipPath id="clip0_2038_11934">
<rect width="227" height="88" fill="white"/>
</clipPath>
</defs>
</svg>
