<svg width="227" height="88" viewBox="0 0 227 88" fill="none" xmlns="http://www.w3.org/2000/svg">
<g clip-path="url(#clip0_2038_11931)">
<path d="M121.78 52.8027C120.587 52.2983 119.504 51.5709 118.588 50.6603C117.681 49.7429 116.95 48.6697 116.431 47.4928C115.782 45.9764 115.522 44.3237 115.675 42.6832C115.829 41.0427 116.39 39.4656 117.308 38.0933C118.227 36.7211 119.475 35.5964 120.94 34.8206C122.404 34.0446 124.04 33.6414 125.7 33.6474C127.047 33.6486 128.38 33.9123 129.625 34.4234C130.808 34.9375 131.886 35.6631 132.805 36.5639C133.719 37.4662 134.444 38.54 134.936 39.7229C135.467 40.9517 135.741 42.2747 135.741 43.6116C135.741 44.9485 135.467 46.2717 134.936 47.5004C134.432 48.6808 133.706 49.7558 132.799 50.6687C131.875 51.5702 130.793 52.2963 129.607 52.8111C128.361 53.3154 127.029 53.5752 125.684 53.5759C124.343 53.5783 123.015 53.3156 121.777 52.8027H121.78ZM120.347 31.0266C117.039 32.4054 114.408 35.0156 113.017 38.2975C112.308 39.9809 111.943 41.7872 111.943 43.6116C111.943 45.436 112.308 47.2423 113.017 48.9258C114.408 52.2085 117.04 54.8197 120.348 56.1995C122.044 56.9039 123.864 57.2666 125.702 57.2666C127.541 57.2666 129.361 56.9039 131.057 56.1995C134.366 54.8211 136.998 52.2094 138.388 48.9258C139.096 47.2432 139.46 45.4378 139.46 43.6144C139.46 41.7911 139.096 39.9857 138.388 38.3031C136.995 35.0197 134.362 32.4078 131.053 31.0266C129.356 30.327 127.537 29.9671 125.699 29.9671C123.862 29.9671 122.043 30.327 120.346 31.0266H120.347ZM91.0596 31.0181C89.4246 31.7124 87.9356 32.7056 86.6704 33.9459C85.4185 35.1965 84.4189 36.6728 83.7254 38.2956C83.0114 39.979 82.6436 41.787 82.6436 43.6136C82.6436 45.4399 83.0114 47.248 83.7254 48.9314C84.4194 50.5518 85.4182 52.0262 86.6686 53.2754C87.9299 54.5169 89.4162 55.511 91.0493 56.2051C92.7474 56.9076 94.5692 57.2684 96.409 57.2666C100.054 57.2687 103.552 55.8377 106.136 53.2867C107.392 52.0316 108.395 50.5508 109.092 48.923C109.241 48.5692 109.375 48.2033 109.502 47.827H105.5C105.002 48.8781 104.329 49.8378 103.508 50.6659C102.58 51.5994 101.471 52.3379 100.249 52.8372C99.0268 53.3367 97.7158 53.587 96.3939 53.5731C95.0746 53.5782 93.7673 53.3231 92.5481 52.8226C91.3289 52.322 90.2219 51.586 89.2919 50.6574C88.385 49.7396 87.6539 48.6656 87.1345 47.4882C86.1065 44.9983 86.1098 42.2066 87.1439 39.7192C87.9123 37.9129 89.202 36.3724 90.8505 35.2918C92.4992 34.2109 94.4332 33.6382 96.409 33.6455C97.7566 33.6463 99.0906 33.9119 100.334 34.4271C101.518 34.9422 102.599 35.6656 103.523 36.5621C104.347 37.3907 105.02 38.3556 105.51 39.4132H109.504C109.384 39.034 109.245 38.6644 109.097 38.304C107.7 35.0227 105.069 32.4112 101.763 31.0246C100.067 30.3254 98.2488 29.9648 96.4122 29.9632C94.5756 29.9618 92.7568 30.3196 91.0596 31.0162V31.0181ZM143.608 57.2666H147.325V29.9651H143.608V57.2666ZM189.509 39.5872C189.509 38.7317 189.68 37.8846 190.008 37.0942C190.339 36.3039 190.822 35.5857 191.433 34.9808C192.042 34.3759 192.765 33.8959 193.563 33.5685C194.358 33.2412 195.213 33.0726 196.074 33.0726C196.937 33.0726 197.79 33.2412 198.587 33.5685C199.383 33.8959 200.108 34.3759 200.717 34.9808C201.326 35.5857 201.81 36.3039 202.14 37.0942C202.47 37.8846 202.639 38.7317 202.639 39.5872C202.639 41.315 201.948 42.972 200.717 44.1938C199.486 45.4155 197.817 46.1019 196.074 46.1019C194.333 46.1019 192.664 45.4155 191.433 44.1938C190.2 42.972 189.509 41.315 189.509 39.5872ZM186.166 39.6397C186.166 44.9684 190.6 49.1384 196.248 49.1384H198.492L194.108 57.3882H197.849L204.666 44.4189C205.516 42.9275 205.984 41.2522 206.03 39.5395C205.962 36.9624 204.879 34.5142 203.014 32.72C201.147 30.9259 198.648 29.9283 196.049 29.9415C193.451 29.9546 190.962 30.9771 189.115 32.7901C187.268 34.6031 186.209 37.062 186.166 39.6397ZM212.442 49.187C212.469 47.6961 213.085 46.2752 214.158 45.2305C215.229 44.1856 216.673 43.6002 218.176 43.6002C219.678 43.6002 221.12 44.1856 222.193 45.2305C223.264 46.2752 223.881 47.6961 223.909 49.187C223.909 50.6958 223.305 52.1429 222.229 53.2098C221.154 54.2767 219.696 54.876 218.176 54.876C216.655 54.876 215.197 54.2767 214.12 53.2098C213.046 52.1429 212.442 50.6958 212.442 49.187ZM214.351 36.6941C214.351 35.6927 214.747 34.7314 215.453 34.0145C216.156 33.2979 217.115 32.8823 218.124 32.8564C219.151 32.8564 220.135 33.2611 220.861 33.9813C221.586 34.7015 221.994 35.6783 221.994 36.6969C221.994 37.7155 221.586 38.6923 220.861 39.4124C220.135 40.1326 219.151 40.5373 218.124 40.5373C217.115 40.5112 216.156 40.0957 215.453 39.379C214.747 38.6622 214.353 37.701 214.351 36.6998V36.6941ZM211.264 36.6998C211.248 38.1873 211.721 39.6398 212.609 40.8379L213.374 41.8515L212.399 42.6734C211.44 43.471 210.671 44.468 210.145 45.5939C209.618 46.7198 209.348 47.9467 209.353 49.1878C209.353 51.51 210.282 53.7369 211.937 55.379C213.591 57.0209 215.836 57.9433 218.176 57.9433C220.517 57.9433 222.76 57.0209 224.415 55.379C226.071 53.7369 227 51.51 227 49.1878C227.007 47.9331 226.732 46.6927 226.197 45.5561C225.66 44.4195 224.877 43.4152 223.902 42.6162L222.906 41.786L223.707 40.7638C224.614 39.6002 225.099 38.1665 225.083 36.695C225.053 34.8968 224.312 33.1822 223.021 31.921C221.728 30.6598 219.989 29.953 218.176 29.953C216.364 29.953 214.623 30.6598 213.332 31.921C212.039 33.1822 211.298 34.8968 211.268 36.695L211.264 36.6998ZM177.252 29.9651V51.1451C177.282 51.3956 177.26 51.6497 177.185 51.891C177.111 52.1321 176.986 52.3553 176.819 52.5457C176.652 52.736 176.447 52.8896 176.216 52.9963C175.986 53.103 175.736 53.1605 175.481 53.1651C175.05 53.1412 174.633 53.0004 174.277 52.7576C173.921 52.5151 173.639 52.18 173.462 51.7891L164.967 33.6502C164.525 32.5523 163.758 31.6128 162.767 30.9553C161.777 30.2976 160.609 29.9524 159.418 29.9651C158.033 29.9495 156.686 30.4129 155.608 31.2754C155.558 31.3115 155.511 31.3502 155.465 31.3916C154.899 31.8527 154.444 32.4332 154.132 33.0909C153.82 33.7486 153.66 34.4668 153.664 35.1937V57.2666H157.603V35.7656C157.59 35.5204 157.628 35.2752 157.714 35.045C157.8 34.8148 157.932 34.6043 158.102 34.4265C158.273 34.2486 158.478 34.1071 158.706 34.0105C158.933 33.9139 159.178 33.8642 159.425 33.8646C159.858 33.8799 160.276 34.0212 160.629 34.271C160.981 34.5205 161.251 34.8674 161.406 35.2685L161.483 35.4473C163.479 39.8278 167.944 49.4603 170.558 54.569C171.437 56.2847 172.939 57.0559 175.434 57.0682C176.844 57.0932 178.218 56.6342 179.326 55.769C179.937 55.3822 180.435 54.8392 180.761 54.197C181.088 53.5548 181.236 52.8368 181.188 52.1186V29.9651H177.252Z" fill="white"/>
<path d="M54.0578 11.1973H12.0422C8.84678 11.2005 5.7834 12.4625 3.52532 14.7059C1.26725 16.9494 -0.000751214 19.9906 5.931e-07 23.1614V64.8371C-0.00100112 68.008 1.26692 71.0492 3.52505 73.2927C5.78319 75.5364 8.8467 76.7983 12.0422 76.8011H54.0578C57.2534 76.7983 60.317 75.5364 62.5753 73.2929C64.8336 71.0494 66.1016 68.008 66.1009 64.8371V23.1614C66.1016 19.9904 64.8336 16.9491 62.5753 14.7056C60.317 12.4621 57.2534 11.2002 54.0578 11.1973ZM43.854 27.5915C46.1973 27.5947 48.4437 28.5197 50.1008 30.1637C51.7578 31.8077 52.6903 34.0368 52.6937 36.3619C52.6958 37.8284 52.3233 39.2714 51.6109 40.5562C50.5075 39.6646 49.2519 38.9766 47.9036 38.525C48.2615 37.8592 48.4496 37.1164 48.4517 36.3619C48.4604 35.7574 48.348 35.157 48.1208 34.5961C47.8938 34.035 47.5565 33.5244 47.1288 33.0938C46.7011 32.6633 46.1913 32.3213 45.6291 32.0879C45.0671 31.8546 44.4638 31.7344 43.8545 31.7344C43.2453 31.7344 42.6419 31.8546 42.0799 32.0879C41.5177 32.3213 41.0081 32.6633 40.5803 33.0938C40.1525 33.5244 39.8152 34.035 39.5882 34.5961C39.3611 35.157 39.2486 35.7574 39.2573 36.3619C39.252 37.1187 39.4413 37.8646 39.8072 38.5287C38.4591 38.9805 37.2035 39.6683 36.1001 40.5599C35.3877 39.2751 35.015 37.832 35.0172 36.3656C35.017 34.0394 35.9477 31.8084 37.6049 30.163C39.2619 28.5178 41.5097 27.5927 43.854 27.5915ZM22.2458 60.4079C19.9026 60.4048 17.6564 59.4797 15.9995 57.8355C14.3426 56.1915 13.4104 53.9626 13.4071 51.6375H17.652C17.652 52.2366 17.7708 52.8299 18.0019 53.3834C18.233 53.9369 18.5717 54.4398 18.9986 54.8634C19.4256 55.287 19.9323 55.623 20.4902 55.8523C21.0479 56.0817 21.6458 56.1996 22.2496 56.1996C22.8535 56.1996 23.4513 56.0817 24.0091 55.8523C24.567 55.623 25.0737 55.287 25.5007 54.8634C25.9276 54.4398 26.2663 53.9369 26.4974 53.3834C26.7285 52.8299 26.8473 52.2366 26.8473 51.6375H31.0921C31.0917 52.7898 30.8624 53.9306 30.4176 54.9949C29.9727 56.0593 29.321 57.0263 28.4995 57.8406C27.6782 58.6551 26.7031 59.3009 25.63 59.7414C24.557 60.1819 23.4071 60.4084 22.2458 60.4079ZM22.2458 48.09C20.203 48.0885 18.2065 47.4857 16.5088 46.3582C14.8112 45.2306 13.4886 43.6288 12.7083 41.7554C11.9281 39.8821 11.7252 37.8211 12.1253 35.8332C12.5254 33.8455 13.5106 32.02 14.9562 30.5877C16.4019 29.1556 18.2431 28.1807 20.2471 27.7869C22.251 27.393 24.3275 27.5975 26.2144 28.3745C28.1011 29.1517 29.7132 30.4666 30.847 32.1529C31.9807 33.8391 32.585 35.8211 32.5836 37.8482C32.5825 39.1943 32.3143 40.527 31.7942 41.77C31.2741 43.0133 30.5125 44.1427 29.5525 45.0936C28.5926 46.0447 27.4531 46.7989 26.1995 47.313C24.9458 47.8271 23.6023 48.0911 22.2458 48.09ZM43.854 60.4079C41.8103 60.4093 39.812 59.8093 38.1122 58.6836C36.4122 57.5578 35.087 55.9571 34.3042 54.0837C33.5214 52.2104 33.3163 50.1489 33.7145 48.1597C34.1129 46.1708 35.0969 44.3437 36.542 42.9097C37.9872 41.4758 39.8286 40.4993 41.833 40.104C43.8376 39.7087 45.9153 39.9124 47.8032 40.6891C49.691 41.4659 51.3043 42.7808 52.4388 44.4676C53.5732 46.1544 54.178 48.1372 54.1766 50.1652C54.1713 52.88 53.0821 55.4824 51.1475 57.4022C49.2126 59.3218 46.5902 60.4026 43.854 60.4079ZM49.9496 50.1652C49.9496 51.3615 49.5922 52.5309 48.9224 53.5256C48.2526 54.5202 47.3006 55.2955 46.1867 55.7532C45.073 56.211 43.8472 56.3309 42.6648 56.0975C41.4824 55.8641 40.3962 55.2881 39.5438 54.4421C38.6912 53.5962 38.1108 52.5185 37.8756 51.3452C37.6404 50.1719 37.761 48.9558 38.2225 47.8505C38.6838 46.7452 39.4651 45.8006 40.4675 45.1361C41.47 44.4715 42.6485 44.1167 43.854 44.1167C44.6547 44.1161 45.4476 44.2722 46.1874 44.576C46.9272 44.88 47.5993 45.3254 48.1654 45.8872C48.7315 46.4488 49.1805 47.1159 49.4867 47.85C49.7928 48.5841 49.9501 49.3708 49.9496 50.1652ZM28.3414 37.8482C28.3414 39.0445 27.9841 40.2139 27.3142 41.2086C26.6444 42.2032 25.6924 42.9785 24.5785 43.4362C23.4647 43.8942 22.2391 44.0139 21.0566 43.7805C19.8742 43.5471 18.7881 42.9711 17.9357 42.1252C17.0831 41.2792 16.5026 40.2015 16.2674 39.0283C16.0322 37.8549 16.1529 36.6388 16.6143 35.5337C17.0756 34.4284 17.857 33.4838 18.8593 32.819C19.8618 32.1545 21.0403 31.7998 22.2458 31.7998C23.8618 31.8023 25.4107 32.4403 26.5533 33.5741C27.696 34.7079 28.3389 36.2449 28.3414 37.8482Z" fill="white"/>
</g>
<defs>
<clipPath id="clip0_2038_11931">
<rect width="227" height="88" fill="white"/>
</clipPath>
</defs>
</svg>
