<svg width="227" height="88" viewBox="0 0 227 88" fill="none" xmlns="http://www.w3.org/2000/svg">
<g clip-path="url(#clip0_2799_14440)">
<path d="M20.7691 23.0977C31.7039 23.0977 40.5288 31.9358 40.5288 42.8706C40.5288 53.8055 31.6907 62.6304 20.7558 62.6304C9.82095 62.6171 0.996094 53.7922 0.996094 42.8574C1.00936 31.9225 9.83422 23.0977 20.7691 23.0977ZM20.7558 49.2272C22.3615 49.2272 23.9805 49.2272 25.5863 49.2272C26.6479 49.2272 27.1256 48.7495 27.1256 47.7011C27.1256 44.4764 27.1256 41.2649 27.1256 38.0402C27.1256 36.9786 26.6612 36.5008 25.5995 36.5008C22.3748 36.5008 19.1634 36.5008 15.9386 36.5008C14.877 36.5008 14.3993 36.9786 14.3993 38.0269C14.3993 41.2517 14.3993 44.4631 14.3993 47.6878C14.3993 48.7495 14.8637 49.2139 15.9254 49.2272C17.5444 49.2272 19.1501 49.2272 20.7558 49.2272Z" fill="white"/>
<path d="M100.434 40.8289C100.434 37.8857 100.47 34.9425 100.397 31.9994C100.361 30.873 100.87 30.6913 101.814 30.764C102.65 30.8003 103.558 30.546 103.449 31.9631C103.34 33.4528 103.486 34.9789 103.413 36.4686C103.34 37.8494 103.522 38.3217 105.157 37.922C108.536 37.0863 111.77 38.7578 112.969 41.6282C114.35 44.8984 113.333 48.8953 110.535 50.6394C107.555 52.5288 104.322 52.1655 101.088 51.3298C100.252 51.1117 100.434 50.4577 100.434 49.8763C100.434 46.8242 100.434 43.8084 100.434 40.8289ZM103.413 45.1528C103.413 46.0975 103.413 47.0785 103.413 48.0232C103.413 48.4956 103.413 48.9316 103.995 49.2223C105.63 49.949 108.609 49.0406 109.663 47.4782C110.826 45.7341 110.535 42.791 109.081 41.5192C107.919 40.5018 105.521 40.1748 104.14 40.8652C102.795 41.5556 103.668 42.791 103.449 43.7357C103.34 44.1717 103.413 44.6804 103.413 45.1528Z" fill="white"/>
<path d="M150.031 48.3139C150.285 50.9301 150.067 51.1844 147.742 51.7295C144.145 52.5652 140.802 51.4388 139.239 48.8953C137.641 46.2792 137.859 42.5003 139.784 40.1022C141.529 37.8857 144.799 37.0863 147.488 38.2127C149.668 39.1211 151.048 42.0279 150.721 44.7167C150.612 45.5888 150.14 45.6251 149.486 45.5888C147.124 45.5888 144.762 45.6251 142.401 45.5888C141.129 45.5525 141.129 46.1338 141.529 47.0422C142.328 48.8226 144.581 49.731 147.161 49.2223C148.105 49.0406 149.014 48.641 150.031 48.3139ZM144.508 43.554C145.126 43.554 145.707 43.554 146.325 43.554C147.778 43.5177 148.069 43.009 147.342 41.7009C146.398 39.9932 143.854 39.8115 142.364 41.3376C141.856 41.8463 141.238 42.5003 141.492 43.1907C141.747 43.9537 142.655 43.445 143.236 43.554C143.636 43.6267 144.072 43.554 144.508 43.554Z" fill="white"/>
<path d="M71.1836 37.7406C75.2531 37.7769 78.1599 40.7201 78.1963 44.826C78.2326 49.0045 75.2168 52.0203 71.0382 51.9477C66.896 51.9113 64.0255 49.0045 64.0619 44.8623C64.0982 40.5747 66.9687 37.7042 71.1836 37.7406ZM75.0715 44.8986C75.0715 42.2098 73.4 40.284 71.0746 40.3204C68.8218 40.3567 67.1504 42.2098 67.114 44.7896C67.0777 47.4784 68.7491 49.3679 71.1109 49.3315C73.4727 49.2952 75.0715 47.5148 75.0715 44.8986Z" fill="white"/>
<path d="M85.8631 45.1167C85.8631 43.7359 86.0084 42.3189 85.8267 40.9744C85.6087 39.2304 86.2628 38.4673 87.9342 38.213C89.6783 37.9223 91.386 37.6316 93.1301 37.7769C96.1096 37.995 97.672 39.521 97.8174 42.4642C97.9264 45.153 97.781 47.8781 97.8537 50.567C97.89 52.0204 96.909 51.6207 96.146 51.6934C95.2739 51.766 94.6562 51.657 94.6925 50.4943C94.7652 48.0235 94.6925 45.5527 94.7289 43.1182C94.7289 41.9918 94.3292 41.0471 93.1665 40.7564C91.8221 40.4294 90.405 40.3567 89.0969 41.0108C88.6245 41.2651 88.8789 41.8828 88.8789 42.3552C88.8789 45.0077 88.8062 47.6601 88.9152 50.2763C88.9879 51.5843 88.3702 51.6934 87.3165 51.7297C86.2628 51.7297 85.7541 51.548 85.8267 50.3489C85.9357 48.6049 85.8631 46.8608 85.8631 45.1167Z" fill="white"/>
<path d="M115.84 41.2294C115.585 38.5406 115.622 38.4679 118.165 37.9229C119.11 37.7412 120.091 37.7048 121.036 37.7412C123.688 37.8865 125.214 39.3036 125.323 41.8834C125.469 44.6812 125.36 47.5154 125.36 50.3495C125.36 51.0762 125.142 51.4396 124.379 51.5486C122.089 51.9119 119.837 52.1299 117.547 51.5122C115.404 50.9309 114.423 49.6591 114.459 47.6607C114.495 45.8076 115.513 44.5359 117.584 44.0272C118.565 43.7728 119.619 43.7728 120.6 43.5912C121.181 43.4821 122.053 44.0272 122.198 42.9735C122.344 41.9561 122.089 41.0477 120.999 40.6117C120.309 40.3573 119.582 40.2483 118.856 40.3936C117.947 40.6843 116.966 40.9387 115.84 41.2294ZM122.271 47.6607C122.162 46.825 122.852 45.5533 120.999 45.6623C118.856 45.7713 117.438 46.4616 117.547 47.7334C117.729 49.4775 119.146 49.5501 120.491 49.6955C122.053 49.8408 122.598 49.1504 122.271 47.6607Z" fill="white"/>
<path d="M127.721 48.1317C129.138 48.9674 130.446 49.5488 131.936 49.4398C132.772 49.4035 133.716 49.3671 133.898 48.2407C134.116 47.1143 133.426 46.5693 132.481 46.315C131.682 46.0606 130.846 45.8789 130.047 45.5883C128.121 44.8616 127.212 43.5171 127.358 41.5914C127.467 39.7383 128.593 38.4302 130.519 37.8852C131.536 37.5945 132.554 37.6308 133.571 37.7762C136.151 38.1032 136.442 38.5392 136.042 41.2644C134.988 40.901 134.007 40.2106 132.844 40.2106C131.827 40.2106 130.664 40.1016 130.41 41.4824C130.192 42.7541 131.282 43.0448 132.154 43.3718C132.844 43.6262 133.571 43.6988 134.225 43.9532C136.151 44.6799 137.132 46.2423 136.95 48.1317C136.769 50.0938 135.57 51.3656 133.498 51.7653C132.445 51.9833 131.355 51.9833 130.265 51.8016C127.576 51.4382 127.394 51.1839 127.721 48.1317Z" fill="white"/>
<path d="M185.458 49.4036C186.257 46.3878 186.984 43.2993 187.892 40.3198C188.146 39.5204 187.747 37.7037 189.309 38.2123C190.363 38.5394 189.346 39.8838 189.164 40.6831C188.365 43.9533 187.42 47.1508 186.548 50.3847C186.366 51.075 186.366 51.7654 185.276 51.7654C184.077 51.8017 184.077 50.966 183.895 50.2393C183.096 47.0782 182.333 43.917 181.097 40.7195C180.334 43.8443 179.535 47.0055 178.772 50.1303C178.663 50.53 178.59 50.966 178.409 51.3294C178.154 51.9107 177.573 51.6564 177.137 51.6927C176.41 51.7291 176.338 51.1477 176.192 50.639C175.175 46.8238 174.085 43.0086 173.067 39.1934C172.958 38.8301 172.486 38.2123 173.358 38.067C173.976 37.958 174.339 38.176 174.484 38.8664C175.029 41.1918 175.647 43.5173 176.265 45.8428C176.592 47.1145 176.955 48.3499 177.464 50.1303C178.445 46.1698 179.317 42.7906 180.189 39.3751C180.334 38.7574 180.298 38.067 181.279 38.0307C182.369 37.9943 182.369 38.6847 182.551 39.3751C183.387 42.7179 184.222 46.0244 185.058 49.3673C185.167 49.4036 185.312 49.4036 185.458 49.4036Z" fill="white"/>
<path d="M63.6984 38.6494C63.1534 39.9938 62.5357 40.8295 60.6826 40.5388C57.9574 40.1028 56.1043 42.0649 56.068 44.8264C56.0316 47.5878 57.9937 49.5863 60.7916 49.2229C62.4993 49.0049 63.3714 49.4046 63.8437 50.967C61.0096 52.7111 56.7947 52.1661 54.6509 49.6953C52.4344 47.1881 52.3981 42.8642 54.5056 40.2118C56.5403 37.6683 60.5735 36.9779 63.6984 38.6494Z" fill="white"/>
<path d="M83.1741 45.0082C83.1741 46.825 83.1014 48.6054 83.2104 50.4222C83.2831 51.7302 82.5201 51.6939 81.6117 51.6939C80.6306 51.7302 80.0493 51.6212 80.0856 50.3858C80.1583 46.6433 80.1583 42.9371 80.0856 39.1946C80.0493 37.9592 80.7396 38.0318 81.5753 38.0682C82.4111 38.0682 83.2831 37.8502 83.2104 39.2672C83.1014 41.1567 83.1741 43.0824 83.1741 45.0082Z" fill="white"/>
<path d="M218.814 49.7684C219.141 50.5314 218.995 51.0764 218.341 51.3308C216.343 52.1665 214.345 52.2392 212.455 51.0038C210.82 49.95 210.057 47.6246 210.493 45.5535C210.965 43.4097 212.164 41.9563 214.381 41.5203C216.089 41.1932 217.651 41.5929 218.705 43.119C219.395 44.1001 219.759 45.3355 219.359 46.3528C218.995 47.2612 217.76 46.6799 216.924 46.7525C215.544 46.8252 214.127 46.8252 212.746 46.7525C211.837 46.7162 211.765 47.0795 211.91 47.8426C212.455 50.2771 215.144 51.3671 217.905 50.2044C218.196 50.0954 218.487 49.9137 218.814 49.7684ZM215.035 45.6261C215.58 45.6261 216.125 45.6261 216.67 45.6261C218.051 45.5898 218.305 45.1174 217.578 43.9184C216.634 42.356 214.09 42.247 212.782 43.773C212.382 44.2091 211.91 44.7541 212.164 45.3355C212.419 45.9168 213.109 45.5535 213.618 45.6261C214.054 45.6625 214.526 45.6261 215.035 45.6261Z" fill="white"/>
<path d="M198.211 47.3332C198.211 47.9872 198.211 48.6412 198.211 49.2953C198.211 51.8024 198.175 51.8388 195.595 51.8751C194.505 51.8751 193.451 51.8388 192.397 51.4027C191.344 50.9304 190.799 50.131 190.762 49.0409C190.726 47.9145 191.307 47.1152 192.288 46.5701C193.233 46.0614 194.251 46.0251 195.268 45.9524C195.886 45.8798 196.867 46.2795 196.83 45.0804C196.794 44.063 196.54 43.1183 195.341 42.9003C194.432 42.7549 193.56 42.8276 192.688 43.191C192.434 43.3 192.034 43.7723 191.816 43.191C191.671 42.8276 191.598 42.3189 192.107 42.1009C193.524 41.4832 194.977 41.1925 196.503 41.7739C197.811 42.2826 198.211 43.3726 198.211 44.6807C198.211 45.5164 198.211 46.4248 198.211 47.3332ZM196.794 49.0046C196.867 47.9509 197.085 46.8608 195.377 47.0788C194.033 47.2605 192.288 47.0425 192.252 48.8956C192.216 50.6397 193.924 50.567 195.195 50.7124C196.612 50.894 197.085 50.24 196.794 49.0046Z" fill="white"/>
<path d="M202.826 44.0274C202.826 46.1712 202.826 48.3513 202.826 50.4951C202.826 50.9675 203.044 51.6942 202.172 51.6942C201.3 51.6942 201.518 51.0038 201.518 50.4951C201.518 46.0622 201.518 41.593 201.518 37.1601C201.518 36.6514 201.373 35.9973 202.281 36.07C203.008 36.1427 202.826 36.7241 202.863 37.1601C202.826 39.4492 202.826 41.7383 202.826 44.0274Z" fill="white"/>
<path d="M224.955 51.9114C223.174 51.875 222.375 51.0757 222.302 49.2589C222.229 47.5875 222.302 45.8797 222.266 44.2083C222.266 43.5543 222.52 42.6822 221.285 42.8276C220.921 42.8639 220.74 42.6459 220.776 42.2825C220.776 42.0282 220.812 41.7012 221.103 41.7375C222.447 41.8828 222.338 41.0108 222.302 40.1751C222.302 39.7027 222.229 39.194 222.992 39.2304C223.719 39.2304 223.828 39.6664 223.719 40.1751C223.429 41.7012 224.301 41.8465 225.463 41.7375C225.899 41.7012 226.553 41.5558 226.517 42.3189C226.481 43.0819 225.827 42.9002 225.427 42.8276C223.865 42.5732 223.647 43.3362 223.719 44.6443C223.828 46.0977 223.756 47.5148 223.719 48.9682C223.683 50.4216 224.41 50.8576 225.79 50.7123C226.154 50.676 226.808 49.7676 226.989 50.8576C227.098 51.5843 226.408 51.657 225.899 51.8024C225.536 51.875 225.173 51.875 224.955 51.9114Z" fill="white"/>
<path d="M206.278 43.7C206.278 41.5926 206.242 39.5215 206.278 37.414C206.278 36.9053 205.915 36.1059 206.932 36.0696C207.913 36.0333 207.731 36.7963 207.731 37.3413C207.731 41.7016 207.731 46.0981 207.731 50.4584C207.731 51.0034 207.949 51.7665 206.968 51.7301C205.951 51.6938 206.314 50.8581 206.314 50.3857C206.278 48.1329 206.278 45.9165 206.278 43.7Z" fill="white"/>
<path d="M162.021 64.3016C162.182 64.3016 162.312 55.4031 162.312 44.4262C162.312 33.4493 162.182 24.5508 162.021 24.5508C161.861 24.5508 161.73 33.4493 161.73 44.4262C161.73 55.4031 161.861 64.3016 162.021 64.3016Z" fill="white"/>
<path d="M83.5005 33.7437C83.4642 34.9428 82.8465 35.7422 81.6474 35.7422C80.4847 35.7785 79.7217 35.0881 79.7217 33.8891C79.7217 32.7627 80.3757 32.0723 81.4658 31.9996C82.6648 31.9269 83.3915 32.581 83.5005 33.7437Z" fill="white"/>
</g>
<defs>
<clipPath id="clip0_2799_14440">
<rect width="227" height="88" fill="white"/>
</clipPath>
</defs>
</svg>
