<svg width="227" height="89" viewBox="0 0 227 89" fill="none" xmlns="http://www.w3.org/2000/svg">
<g clip-path="url(#clip0_2810_14642)">
<path d="M26.557 18C26.6537 21.2729 26.7505 24.5212 26.823 27.7942C26.8472 28.7785 26.823 29.7382 26.823 30.6488C36.5449 33.1834 40.8255 37.5884 40.9948 45.0447C41.1641 52.9441 37.2463 57.2259 26.557 60.425C26.557 64.5101 26.557 68.7673 26.557 73C26.4119 73 26.2668 73 26.0975 73C25.4445 72.8524 24.8158 72.6063 24.1628 72.5571C11.1035 71.4005 0.897912 60.5727 0.0514767 46.9888C-0.770775 33.774 8.34654 21.5682 21.0189 18.9105C22.5425 18.5906 24.0902 18.3199 25.6138 18C25.9524 18 26.2668 18 26.557 18ZM26.7505 30.8702C21.3333 31.2148 17.1978 33.4295 14.5376 38.0313C11.5388 43.2483 11.6839 48.5391 14.9487 53.5839C17.6815 57.8166 21.6477 59.8591 26.7747 60.0805C26.7505 50.2371 26.7505 40.689 26.7505 30.8702Z" fill="white"/>
<path d="M84 56.8563C78.3412 58.3304 73.0425 58.5176 67.7953 56.5989C66.9208 56.2713 66.072 55.8034 65.3518 55.2418C60.5418 51.4513 60.4903 46.4909 61.5707 41.4368C62.5481 36.8742 65.8919 34.277 70.8305 33.458C75.1775 32.7327 79.4987 32.7327 83.8714 34.4642C83.3055 35.8915 82.7911 37.155 82.3281 38.3249C79.8331 38.1377 77.5438 37.8101 75.2546 37.8101C70.779 37.8101 68.0525 40.1031 67.5638 44.0574C67.0237 48.5499 69.1586 52.0362 73.4541 52.7148C76.3606 53.1594 79.4215 52.8084 82.6882 52.8084C83.0997 53.9783 83.5113 55.2652 84 56.8563Z" fill="white"/>
<path d="M145.614 56.8214C142.649 57.2804 140.19 58.0294 137.756 57.9086C134.695 57.7394 133.128 55.6376 133.007 52.6178C132.887 49.7187 134.237 47.7618 137.153 47.0129C138.648 46.6263 140.263 46.6022 141.805 46.4814C142.673 46.4089 143.565 46.4572 144.385 46.4572C144.674 43.8722 144.12 43.0025 141.902 43.0025C139.757 43.0025 137.611 43.3407 135.297 43.5582C134.96 42.3261 134.598 41.0698 134.213 39.6203C138.503 37.9291 142.697 37.446 147.012 38.7264C149.23 39.3787 150.218 41.094 150.266 43.3407C150.314 45.4426 150.218 47.5444 150.314 49.6462C150.387 51.1441 149.615 52.9077 151.761 53.9465C152.219 54.1639 151.929 56.3382 151.64 57.5462C151.568 57.8602 150.17 58.1018 149.471 57.9569C147.952 57.6187 146.458 57.063 145.614 56.8214ZM144.794 49.767C142.914 49.912 141.54 49.8395 140.287 50.1536C139.66 50.3227 139.009 51.1199 138.768 51.7722C138.648 52.1346 139.347 53.2217 139.708 53.2459C141.203 53.2942 142.794 53.2942 144.192 52.8352C144.626 52.6902 144.553 51.0716 144.794 49.767Z" fill="white"/>
<path d="M186 49.8301C183.419 49.8301 181.378 49.8301 179.338 49.8301C177.298 49.8301 175.233 49.8301 173.192 49.8301C173.315 53.2391 174.151 53.4537 184.181 52.8815C184.451 54.1927 184.697 55.5277 184.992 57.0534C180.469 58.1024 176.216 58.4838 171.963 57.125C171.471 56.9581 170.955 56.7197 170.537 56.4336C166.604 53.6206 166.727 49.5917 167.292 45.5628C167.882 41.3194 170.07 39.1739 173.93 38.3633C179.412 37.2429 183.517 38.7209 184.845 42.7021C185.557 44.8715 185.607 47.2554 186 49.8301ZM173.34 45.9204C175.528 45.9204 177.494 45.9204 179.51 45.9204C179.363 43.2981 178.379 42.0584 176.585 42.0823C174.692 42.13 173.487 43.5126 173.34 45.9204Z" fill="white"/>
<path d="M96.2941 57.9999C90.4341 58.0238 87.0462 54.4874 87.0004 48.3466C86.9546 42.0147 90.6172 38.0244 96.5231 38.0005C102.658 37.9527 105.977 41.4412 106 47.9166C106.023 54.2246 102.383 57.9999 96.2941 57.9999ZM100.3 48.036C100.3 47.582 100.323 47.1519 100.3 46.698C100.071 44.0457 98.8808 42.6598 96.7062 42.5404C94.5315 42.397 93.1123 43.6395 92.7689 46.244C92.5858 47.6776 92.6774 49.1829 92.9063 50.6166C93.2039 52.337 94.4171 53.221 96.0652 53.4122C98.9266 53.7467 100.346 51.9786 100.3 48.036Z" fill="white"/>
<path d="M194.813 58C192.627 58 190.888 58 189 58C189 51.5003 189 45.0994 189 38.3773C191.112 38.9457 193.571 37.1911 195.111 39.5636C197.447 39.0199 199.856 38.1055 202.291 38.0066C205.868 37.883 207.657 39.4894 207.856 43.0482C208.129 47.9168 207.93 52.8348 207.93 57.9012C206.142 57.9012 204.328 57.9012 202.092 57.9012C202.092 56.1465 202.092 54.3424 202.092 52.5383C202.092 50.7836 202.092 49.0042 202.092 47.2495C202.092 43.1471 199.384 41.6148 195.757 43.8143C195.211 44.1356 194.888 45.1736 194.863 45.8903C194.788 49.8939 194.813 53.8728 194.813 58Z" fill="white"/>
<path d="M108 39.4263C108.251 39.3082 108.302 39.2373 108.377 39.2373C114.21 38.7411 114.21 38.7411 115.895 43.868C116.8 46.6559 117.68 49.4674 118.585 52.2552C118.585 52.2789 118.686 52.3025 118.937 52.3734C120.144 49.0185 121.552 45.6872 122.533 42.2614C123.237 39.8043 124.368 38.5994 127.159 39.1192C127.989 39.2609 128.843 39.1428 130 39.1428C129.648 40.1114 129.397 40.8675 129.095 41.5763C127.083 46.4905 125.022 51.3811 123.061 56.3189C122.583 57.5002 121.954 57.9964 120.521 57.9964C115.065 58.02 115.065 58.0673 113.179 53.1767C111.671 49.2547 110.162 45.3328 108.654 41.4109C108.377 40.7494 108.201 40.0642 108 39.4263Z" fill="white"/>
<path d="M220.32 43.6232C220.32 46.6407 220.344 49.2271 220.32 51.8363C220.297 53.1068 220.906 53.6059 222.172 53.5606C223.531 53.5152 224.891 53.5606 226.437 53.5606C226.602 54.7857 226.766 56.0789 227 57.9167C224.047 57.9167 221.305 58.1435 218.609 57.8486C216.055 57.5763 214.859 56.0109 214.742 53.2429C214.602 50.1574 214.719 47.0718 214.719 43.8954C213.687 43.7593 212.938 43.6459 212 43.5097C212 42.2846 212 41.0821 212 39.7662C212.844 39.6755 213.617 39.5847 214.484 39.4713C214.578 38.3142 214.672 37.2252 214.789 36C216.594 36 218.305 36 220.156 36C220.25 37.1798 220.32 38.2688 220.414 39.6074C222.266 39.6074 224.047 39.6074 225.922 39.6074C225.922 41.0367 225.922 42.1938 225.922 43.6232C224.141 43.6232 222.359 43.6232 220.32 43.6232Z" fill="white"/>
<path d="M162 58C159.912 58 158.035 58 156 58C156 49.3333 156 40.7381 156 32C157.982 32 159.912 32 162 32C162 40.619 162 49.1905 162 58Z" fill="white"/>
<path d="M47.9994 65.3713C48.0473 69.0625 45.4078 71.9738 41.9764 71.9998C38.617 72.0258 36.0735 69.3224 36.0015 65.6313C35.9295 61.9661 38.4251 59.0808 41.7605 59.0028C45.1919 58.8988 47.9514 61.7062 47.9994 65.3713Z" fill="#C8C8C8"/>
<path d="M47.9994 24.3707C48.0473 28.0622 45.4078 30.9738 41.9764 30.9998C38.617 31.0258 36.0735 28.3222 36.0015 24.6307C35.9295 20.9652 38.4251 18.0796 41.7605 18.0016C45.1919 17.9236 47.9514 20.7052 47.9994 24.3707Z" fill="#B0B0B0"/>
</g>
<defs>
<clipPath id="clip0_2810_14642">
<rect width="227" height="89" fill="white"/>
</clipPath>
</defs>
</svg>
