<svg width="227" height="88" viewBox="0 0 227 88" fill="none" xmlns="http://www.w3.org/2000/svg">
<g clip-path="url(#clip0_2838_14328)">
<path d="M111.486 51.9189C112.905 50.2581 114.714 49.6641 116.831 49.8181C118.976 49.9721 120.626 50.9345 121.775 52.7439C121.968 52.7384 122.006 52.5789 122.094 52.4689C123.167 51.1105 124.531 50.1646 126.246 49.8896C128.309 49.5651 130.267 49.8896 131.938 51.2535C133.132 52.2214 133.742 53.5358 134.05 55.0097C134.199 55.7301 134.254 56.4616 134.254 57.193C134.254 60.1078 134.254 63.0225 134.254 65.9373C134.254 66.0308 134.254 66.1188 134.254 66.2122C134.248 66.7567 134.248 66.7622 133.698 66.7622C132.087 66.7622 130.476 66.7622 128.859 66.7622C128.347 66.7622 128.342 66.7567 128.342 66.2507C128.342 63.446 128.336 60.6412 128.342 57.8364C128.342 57.446 128.309 57.0665 128.199 56.698C127.94 55.8456 127.385 55.2792 126.527 55.0317C125.938 54.8612 125.339 54.8447 124.74 54.9932C123.651 55.2682 122.93 56.0876 122.837 57.2095C122.815 57.4625 122.815 57.721 122.815 57.9794C122.815 60.6357 122.815 63.2975 122.815 65.9538C122.815 66.0803 122.82 66.2122 122.815 66.3387C122.798 66.7347 122.776 66.7622 122.358 66.7622C120.708 66.7677 119.059 66.7677 117.409 66.7622C116.908 66.7622 116.908 66.7567 116.903 66.2342C116.903 63.468 116.903 60.6962 116.903 57.9299C116.903 57.5835 116.892 57.237 116.809 56.896C116.551 55.8236 115.907 55.1692 114.813 54.9657C113.828 54.7842 112.916 54.9162 112.146 55.6091C111.678 56.0326 111.442 56.5826 111.398 57.2095C111.381 57.446 111.381 57.688 111.381 57.9244C111.381 60.6027 111.381 63.2755 111.381 65.9538C111.381 66.0803 111.387 66.2122 111.381 66.3387C111.365 66.7182 111.343 66.7567 110.974 66.7567C109.269 66.7622 107.564 66.7567 105.86 66.7622C105.585 66.7622 105.442 66.6852 105.469 66.3882C105.48 66.2782 105.469 66.1683 105.469 66.0583C105.469 60.9052 105.469 55.7576 105.469 50.6046C105.469 49.8621 105.403 49.9336 106.157 49.9336C107.735 49.9336 109.308 49.9336 110.886 49.9336C111.37 49.9336 111.376 49.9391 111.381 50.4176C111.387 50.8905 111.381 51.369 111.381 51.842C111.414 51.8694 111.447 51.8969 111.486 51.9189Z" fill="white"/>
<path d="M143.301 52.1566C143.708 51.6616 144.015 51.2602 144.422 50.9412C145.412 50.1713 146.534 49.7973 147.772 49.7313C149.141 49.6543 150.428 49.9293 151.616 50.6222C153.018 51.4362 153.981 52.6351 154.586 54.1199C155.279 55.8248 155.493 57.6066 155.317 59.449C155.185 60.8349 154.866 62.1548 154.184 63.3702C153.178 65.1685 151.698 66.3784 149.658 66.8184C148.085 67.1593 146.567 66.9944 145.137 66.2134C144.78 66.0209 144.455 65.7845 144.164 65.4985C143.889 65.229 143.625 64.9595 143.383 64.5856C143.257 64.8055 143.306 64.987 143.306 65.1575C143.301 68.1273 143.306 71.0915 143.306 74.0613C143.306 74.1878 143.295 74.3197 143.306 74.4462C143.328 74.7102 143.202 74.7982 142.949 74.7927C142.344 74.7817 141.739 74.7872 141.134 74.7872C140.034 74.7872 138.934 74.7927 137.84 74.7872C137.427 74.7872 137.411 74.7597 137.394 74.3472C137.389 74.2373 137.394 74.1273 137.394 74.0173C137.394 66.2299 137.394 58.4426 137.394 50.6607C137.394 49.8358 137.328 49.9403 138.142 49.9403C139.698 49.9348 141.255 49.9348 142.811 49.9403C143.295 49.9403 143.295 49.9458 143.301 50.4242C143.301 50.9522 143.301 51.4857 143.301 52.1566ZM149.356 58.3821C149.356 58.1786 149.372 57.9751 149.35 57.7771C149.246 56.8532 148.916 56.0393 148.157 55.4508C146.82 54.4169 144.323 54.6314 143.526 56.8917C143.18 57.8761 143.196 58.877 143.548 59.856C144.34 62.0448 147.139 62.5342 148.619 60.7359C149.174 60.0649 149.4 59.262 149.356 58.3821Z" fill="white"/>
<path d="M221.026 51.9849C221.103 51.7704 221.076 51.5835 221.076 51.4075C221.076 49.3726 221.076 47.3378 221.076 45.303C221.076 45.1765 221.081 45.0445 221.076 44.918C221.07 44.665 221.186 44.5605 221.444 44.5605C223.188 44.566 224.925 44.566 226.669 44.5605C226.894 44.5605 227.015 44.632 226.999 44.874C226.993 44.984 226.999 45.094 226.999 45.204C226.999 52.1664 226.999 59.1343 226.999 66.0967C226.999 66.8117 227.048 66.7567 226.355 66.7567C224.777 66.7567 223.204 66.7567 221.626 66.7567C221.081 66.7567 221.081 66.7512 221.076 66.2012C221.07 65.7173 221.076 65.2278 221.076 64.7549C220.9 64.7219 220.856 64.8154 220.806 64.8868C220.009 65.9538 218.925 66.5587 217.644 66.8172C215.637 67.2242 213.789 66.8447 212.139 65.6128C210.874 64.6724 210.06 63.402 209.593 61.9171C208.773 59.2993 208.773 56.676 209.829 54.1242C210.852 51.6495 212.689 50.0931 215.378 49.7741C217.551 49.5156 219.492 50.0766 220.894 51.9079C220.916 51.9299 220.955 51.9409 221.026 51.9849ZM218.073 54.8777C216.88 54.8062 215.648 55.6201 215.252 56.896C214.955 57.8529 214.944 58.8044 215.252 59.7558C215.626 60.9217 216.643 61.7356 217.782 61.8126C219.134 61.9061 220.201 61.3066 220.757 60.1022C221.241 59.0573 221.252 57.9849 220.9 56.896C220.487 55.6421 219.305 54.8117 218.073 54.8777Z" fill="white"/>
<path d="M83.6092 29.5578C83.6422 29.8052 83.5487 30.0307 83.4772 30.2507C82.2728 34.1609 79.644 36.4707 75.6239 37.1911C73.7375 37.5266 71.8622 37.4331 70.0254 36.8612C66.9731 35.9097 64.8613 33.9244 63.7614 30.9326C62.711 28.0619 62.6945 25.1416 63.7724 22.2709C65.0648 18.8337 67.6056 16.8043 71.1803 16.0949C73.4956 15.6384 75.7834 15.8034 77.9777 16.7218C80.9639 17.9757 82.7513 20.2635 83.5707 23.3543C83.6697 23.7392 83.6532 23.7502 83.2517 23.7502C81.3984 23.7557 79.5506 23.7447 77.6972 23.7557C77.4167 23.7557 77.2792 23.6458 77.1473 23.4148C76.1298 21.5834 74.1335 20.951 72.2362 21.4459C71.0043 21.7649 70.1463 22.5513 69.5964 23.6788C69.0629 24.7787 68.9144 25.9501 68.9969 27.16C69.0464 27.8914 69.1784 28.6118 69.4754 29.2938C70.1628 30.8721 71.3287 31.8181 73.0776 31.9391C74.8429 32.0601 76.2288 31.4056 77.1363 29.8547C77.2847 29.6018 77.4332 29.4973 77.7357 29.4973C79.5891 29.5138 81.4369 29.5028 83.2902 29.5083C83.3947 29.5028 83.5102 29.4808 83.6092 29.5578Z" fill="white"/>
<path d="M80.4192 53.255C79.5558 53.255 78.6978 53.2385 77.8344 53.266C77.4769 53.277 77.2735 53.167 77.092 52.8536C76.3825 51.6162 75.2771 50.9507 73.8747 50.8352C71.7299 50.6647 70.1131 51.6877 69.3981 53.7115C68.7382 55.5813 68.7987 57.4512 69.7006 59.255C71.1745 62.2138 75.4641 62.1533 76.982 59.618C77.257 59.156 77.5704 59.0295 78.0764 59.0405C79.7428 59.0735 81.4091 59.0515 83.081 59.0515C83.6584 59.0515 83.6804 59.079 83.5154 59.6455C82.3715 63.5172 79.8362 65.8985 75.8656 66.6629C73.2038 67.1744 70.6135 66.9049 68.1882 65.6125C66.0984 64.4961 64.6575 62.7912 63.8106 60.5859C63.0681 58.6501 62.8867 56.6482 63.1121 54.5914C63.3211 52.6941 63.9151 50.9452 65.048 49.4053C66.4614 47.486 68.3477 46.2541 70.6685 45.7262C73.1763 45.1542 75.6511 45.2587 78.0434 46.2651C80.5017 47.299 82.1845 49.1029 83.158 51.5722C83.323 51.9956 83.4604 52.4356 83.5759 52.8811C83.6529 53.1725 83.5924 53.2385 83.279 53.2385C82.322 53.2605 81.3706 53.255 80.4192 53.255Z" fill="white"/>
<path d="M168.935 52.0138C168.935 51.4473 168.946 50.8809 168.929 50.3089C168.924 50.0175 169.034 49.9295 169.314 49.9295C171.035 49.9405 172.757 49.9405 174.484 49.9295C174.781 49.9295 174.874 50.0505 174.852 50.3254C174.841 50.4354 174.852 50.5454 174.852 50.6554C174.852 55.7865 174.852 60.9176 174.852 66.0541C174.852 66.1091 174.852 66.1641 174.852 66.2191C174.847 66.7581 174.847 66.7581 174.308 66.7581C172.696 66.7581 171.085 66.7581 169.468 66.7581C168.94 66.7581 168.935 66.7526 168.935 66.2081C168.935 65.6967 168.935 65.1907 168.935 64.6737C168.742 64.6792 168.709 64.8277 168.638 64.9157C167.686 66.0816 166.454 66.6976 164.969 66.9011C161.956 67.319 159.266 65.7516 157.957 63.2164C157.352 62.045 157.039 60.8021 156.907 59.4877C156.731 57.7828 156.907 56.1275 157.484 54.5161C158.073 52.8552 159.063 51.4803 160.619 50.6224C162.808 49.4125 165.052 49.3575 167.279 50.5564C167.813 50.8424 168.264 51.2549 168.627 51.7553C168.698 51.8543 168.775 51.9533 168.847 52.0523C168.874 52.0413 168.902 52.0303 168.935 52.0138ZM168.935 58.2833C168.968 57.7168 168.858 57.1064 168.577 56.5399C168.099 55.5665 167.318 54.9836 166.223 54.8901C165.041 54.7911 164.062 55.1705 163.396 56.2044C162.638 57.3923 162.682 59.4437 163.484 60.5931C164.513 62.067 166.68 62.2649 167.956 61C168.693 60.2686 168.957 59.3612 168.935 58.2833Z" fill="white"/>
<path d="M94.1956 20.1875C95.7409 20.2095 97.1763 20.457 98.5127 21.1224C101.054 22.3818 102.483 24.4551 102.929 27.2324C103.149 28.6073 103.094 29.9712 102.731 31.3186C101.988 34.0738 100.256 35.9382 97.5723 36.8731C95.224 37.6925 92.8482 37.6705 90.5274 36.7521C87.7226 35.6412 86.1002 33.5239 85.5723 30.5761C85.2753 28.9098 85.3523 27.2434 85.9243 25.6375C86.9252 22.8658 88.938 21.2049 91.7538 20.479C92.5787 20.2645 93.4201 20.2095 94.1956 20.1875ZM97.0883 28.7558C97.0608 28.0903 96.9783 27.4194 96.6594 26.8034C96.1479 25.819 95.334 25.3021 94.2231 25.3076C93.1122 25.3186 92.2817 25.841 91.8308 26.8529C91.2478 28.1783 91.2753 29.5312 91.8528 30.8511C92.1717 31.577 92.7437 32.05 93.5301 32.237C94.927 32.578 96.2414 31.8905 96.7749 30.5431C97.0003 29.9767 97.0718 29.3772 97.0883 28.7558Z" fill="white"/>
<path d="M85.4673 58.3108C85.4068 56.584 85.8138 54.9671 86.7377 53.4987C87.8211 51.7829 89.3885 50.6885 91.3298 50.1385C93.8596 49.4236 96.3399 49.55 98.6992 50.7489C101.207 52.0248 102.554 54.1422 102.956 56.8974C103.165 58.3328 103.088 59.7517 102.664 61.1321C101.883 63.6839 100.228 65.4492 97.7203 66.3511C94.987 67.3356 92.2702 67.2256 89.6799 65.8947C87.3316 64.6903 86.0447 62.6775 85.5718 60.1147C85.5278 59.8617 85.4838 59.6087 85.4673 59.3557C85.4508 59.0038 85.4673 58.6573 85.4673 58.3108ZM93.9366 61.8525C95.306 61.8305 96.1529 61.3576 96.6314 60.3566C97.2638 59.0478 97.2693 57.6949 96.6754 56.3805C96.2024 55.3301 95.306 54.7911 94.1731 54.8241C92.9852 54.8626 92.1437 55.4951 91.7203 56.6225C91.2803 57.7994 91.3188 58.9873 91.7423 60.1642C92.0832 61.0881 93.0127 61.902 93.9366 61.8525Z" fill="white"/>
<path d="M135.315 30.0033C133.632 30.0033 131.944 30.0033 130.261 30.0033C129.728 30.0033 129.695 30.0363 129.805 30.5643C129.992 31.4717 130.382 32.2361 131.323 32.5606C132.241 32.8741 133.511 32.7641 134.16 31.6422C134.281 31.4387 134.424 31.3782 134.65 31.3782C136.498 31.3837 138.351 31.3782 140.199 31.3837C140.567 31.3837 140.584 31.4112 140.485 31.7632C139.902 33.7815 138.675 35.2939 136.855 36.3223C135.062 37.3342 133.126 37.5762 131.114 37.3452C129.92 37.2077 128.787 36.8503 127.753 36.2288C125.856 35.0959 124.701 33.4131 124.195 31.2847C123.788 29.5634 123.783 27.831 124.25 26.1207C125.125 22.8979 127.264 21.0116 130.503 20.3681C132.219 20.0272 133.935 20.1097 135.601 20.6761C138.472 21.6605 140.155 23.6899 140.754 26.6431C140.947 27.6 140.991 28.568 140.892 29.5414C140.848 29.9978 140.853 30.0033 140.369 30.0033C138.686 30.0088 136.998 30.0033 135.315 30.0033ZM132.318 27.1436C133.066 27.1436 133.819 27.1491 134.567 27.1436C134.925 27.1381 134.974 27.0776 134.908 26.7201C134.82 26.2636 134.633 25.8457 134.276 25.5322C133.478 24.8228 132.544 24.7128 131.554 24.9768C130.619 25.2242 130.091 25.9007 129.849 26.8081C129.766 27.1271 129.772 27.1381 130.124 27.1436C130.855 27.1491 131.587 27.1436 132.318 27.1436Z" fill="white"/>
<path d="M201.964 59.5194C200.281 59.5194 198.593 59.5194 196.91 59.5194C196.393 59.5194 196.343 59.5799 196.448 60.0913C196.486 60.2728 196.53 60.4488 196.591 60.6193C196.904 61.5377 197.537 62.0932 198.494 62.2197C199.396 62.3406 200.177 62.0712 200.704 61.3067C200.913 61.0098 201.128 60.9218 201.469 60.9218C203.19 60.9383 204.912 60.9273 206.633 60.9273C206.688 60.9273 206.743 60.9273 206.798 60.9273C207.205 60.9383 207.216 60.9493 207.111 61.3232C207.001 61.7137 206.875 62.0932 206.693 62.4561C205.775 64.315 204.351 65.6294 202.409 66.3443C199.863 67.2847 197.35 67.1747 194.897 66.0088C192.989 65.1014 191.735 63.589 191.075 61.6147C190.376 59.5304 190.343 57.3966 190.992 55.2902C191.878 52.414 193.852 50.6541 196.75 49.9667C198.791 49.4827 200.831 49.5817 202.789 50.3901C205.363 51.457 206.853 53.4314 207.397 56.1317C207.59 57.0996 207.678 58.084 207.535 59.0794C207.48 59.4864 207.496 59.5029 207.078 59.5029C205.368 59.5249 203.669 59.5194 201.964 59.5194ZM198.95 56.6596C199.704 56.6596 200.452 56.6651 201.205 56.6596C201.557 56.6541 201.623 56.5771 201.546 56.2307C201.452 55.8182 201.298 55.4277 200.979 55.1252C200.204 54.3938 199.28 54.2343 198.279 54.4818C197.317 54.7183 196.756 55.3782 196.492 56.3131C196.404 56.6266 196.426 56.6596 196.756 56.6651C197.487 56.6651 198.219 56.6596 198.95 56.6596Z" fill="white"/>
<path d="M113.576 31.4673C113.922 30.2299 114.263 29.0145 114.599 27.8046C115.242 25.4948 115.897 23.1905 116.535 20.8807C116.7 20.2812 116.755 20.3912 117.15 20.3912C118.927 20.3912 120.703 20.3912 122.48 20.3912C122.606 20.3912 122.738 20.3692 122.859 20.4297C122.931 20.5617 122.854 20.6772 122.81 20.7927C120.978 26.1217 119.147 31.4508 117.321 36.7853C117.216 37.0823 117.095 37.2198 116.749 37.2143C114.588 37.1978 112.426 37.1978 110.265 37.2143C109.935 37.2143 109.787 37.1153 109.682 36.8018C107.856 31.4673 106.025 26.1382 104.194 20.8092C104.155 20.6937 104.084 20.5782 104.133 20.4407C104.271 20.3527 104.419 20.3912 104.562 20.3912C106.322 20.3857 108.082 20.3912 109.836 20.3912C110.32 20.3912 110.326 20.3912 110.463 20.8642C111.409 24.1749 112.344 27.4801 113.295 30.7908C113.35 31.0053 113.35 31.2638 113.576 31.4673Z" fill="white"/>
<path d="M15.1724 56.73C13.6216 55.7401 12.0652 54.7612 10.5693 53.6832C10.7508 53.3918 10.8168 53.0783 10.7893 52.7428C10.7783 52.5998 10.7673 52.4403 10.8058 52.3029C11.0148 51.5329 10.9103 50.741 10.9763 49.9656C11.0588 49.0416 11.1908 48.1122 11.1193 47.1773C11.1193 47.1388 11.1138 47.1003 11.1248 47.0673C11.3448 46.2864 11.2348 45.4724 11.3063 44.675C11.3888 43.7896 11.5263 42.8986 11.4493 41.9967C11.4438 41.9582 11.4438 41.9197 11.4548 41.8867C11.6692 41.0838 11.5703 40.2534 11.6362 39.4394C11.7077 38.5375 11.8507 37.6246 11.7792 36.7062C11.7737 36.6677 11.7737 36.6292 11.7847 36.5962C12.0047 35.7932 11.8837 34.9628 11.9662 34.1489C12.0542 33.2854 12.1807 32.4055 12.1092 31.5256C12.1037 31.4871 12.1092 31.4486 12.1147 31.4156C12.3402 30.6512 12.2137 29.8592 12.2962 29.0783C12.4117 27.9564 12.4832 26.829 12.5217 25.7016C12.5602 24.6622 12.7252 23.6283 12.6537 22.5833C13.1211 22.4019 13.6161 22.3744 14.1055 22.3689C15.6014 22.3469 17.0973 22.3634 18.5932 22.3634C18.6647 22.3634 18.7361 22.3854 18.8076 22.3964C18.8406 23.5953 18.6702 24.7832 18.6207 25.9766C18.5767 26.9555 18.4282 27.9289 18.4832 28.9133C17.4053 28.9188 16.3274 28.9298 15.2439 28.9353C14.738 28.9408 14.738 28.9408 14.738 29.4468C14.738 35.6667 14.738 41.8922 14.7325 48.1122C14.7325 48.4312 14.7875 48.6622 15.0845 48.8381C15.3044 48.9756 15.4749 49.2011 15.7389 49.2836C15.7334 49.4816 15.7664 49.6906 15.7224 49.8831C15.5464 50.6695 15.5959 51.4724 15.5464 52.2699C15.4859 53.1553 15.4254 54.0462 15.3759 54.9371C15.3484 55.5366 15.3924 56.1525 15.1724 56.73Z" fill="white"/>
<path d="M149.328 23.163C149.438 23.0365 149.553 22.9101 149.663 22.7726C150.774 21.4527 152.132 20.5508 153.87 20.2978C153.942 20.2868 154.013 20.2758 154.09 20.2703C154.64 20.2208 154.646 20.2208 154.646 20.7652C154.646 22.5031 154.646 24.2464 154.646 25.9843C154.646 26.5727 154.684 26.5178 154.123 26.5288C153.375 26.5398 152.622 26.4958 151.874 26.6002C150.169 26.8477 149.3 27.7771 149.251 29.4985C149.223 30.5599 149.24 31.6213 149.24 32.6827C149.24 34.0576 149.24 35.4325 149.24 36.8019C149.24 37.1869 149.229 37.1924 148.844 37.1979C147.139 37.2034 145.439 37.1924 143.735 37.2034C143.454 37.2034 143.317 37.1374 143.35 36.8349C143.361 36.7249 143.35 36.6149 143.35 36.5049C143.35 31.3574 143.35 26.2098 143.35 21.0622C143.35 20.9522 143.355 20.8422 143.35 20.7322C143.328 20.4793 143.421 20.3748 143.691 20.3748C145.428 20.3858 147.172 20.3858 148.91 20.3748C149.19 20.3748 149.251 20.4958 149.245 20.7377C149.234 21.4692 149.24 22.2006 149.245 22.9376C149.24 23.0145 149.212 23.0915 149.328 23.163Z" fill="white"/>
<path d="M184.069 52.6111C184.696 52.0172 185.241 51.4232 185.901 50.9613C186.83 50.3068 187.842 49.8669 189.002 49.8229C189.464 49.8064 189.475 49.8119 189.475 50.2628C189.481 52.0612 189.481 53.854 189.475 55.6524C189.475 56.0758 189.464 56.0813 189.046 56.0868C188.425 56.0923 187.798 56.0978 187.176 56.0978C186.786 56.0978 186.412 56.1693 186.044 56.2793C184.845 56.6313 184.163 57.4562 184.097 58.7101C184.053 59.5131 184.075 60.3215 184.069 61.1299C184.064 62.7798 184.069 64.4297 184.069 66.0795C184.069 66.206 184.069 66.338 184.064 66.4645C184.058 66.6625 183.97 66.7725 183.761 66.767C183.69 66.767 183.613 66.767 183.541 66.767C181.908 66.767 180.28 66.767 178.647 66.767C178.163 66.767 178.157 66.7615 178.157 66.283C178.157 61.0034 178.157 55.7239 178.157 50.4443C178.157 49.9439 178.163 49.9439 178.685 49.9439C180.319 49.9439 181.946 49.9439 183.58 49.9439C184.064 49.9439 184.064 49.9494 184.069 50.4278C184.069 51.1538 184.069 51.8797 184.069 52.6111Z" fill="white"/>
<path d="M26.1276 13.8678C34.19 13.8678 42.2523 13.8678 50.3146 13.8678C51.376 13.8678 52.1845 14.3023 52.7234 15.2207C52.9819 15.6607 53.0479 16.1447 53.0479 16.6451C53.0424 18.6084 53.0479 20.5663 53.0479 22.5296C53.0479 25.2244 53.0479 27.9192 53.0479 30.6139C53.0479 30.9054 53.0644 31.1804 53.2129 31.4554C53.4604 31.9283 53.2844 32.4783 52.8609 32.7588C52.4649 33.0227 51.882 32.9622 51.5465 32.6213C51.189 32.2583 51.1286 31.7029 51.464 31.2684C51.6345 31.0484 51.684 30.8284 51.684 30.5644C51.6785 25.9448 51.684 21.3252 51.6785 16.7056C51.6785 15.7267 51.222 15.2592 50.2431 15.2317C50.0781 15.2262 49.9132 15.2317 49.7482 15.2317C33.9865 15.2317 18.2303 15.2317 2.46862 15.2317C2.23214 15.2317 1.99016 15.2317 1.75368 15.2592C1.12123 15.3417 0.703266 15.8092 0.675768 16.4471C0.670269 16.5736 0.675768 16.7056 0.675768 16.8321C0.675768 21.3802 0.675768 25.9228 0.675768 30.471C0.675768 30.7844 0.708767 31.0594 0.917749 31.3344C1.23122 31.7413 1.13773 32.2803 0.774763 32.6323C0.428292 32.9677 -0.149161 33.0117 -0.539629 32.7423C-0.946595 32.4618 -1.11708 31.9338 -0.880604 31.4774C-0.737616 31.1969 -0.715618 30.9219 -0.715618 30.6304C-0.715618 26.0108 -0.715618 21.3912 -0.715618 16.7716C-0.715618 16.3646 -0.682615 15.9687 -0.545127 15.5837C-0.176658 14.5663 0.763758 13.8788 1.84167 13.8623C2.77659 13.8513 3.71151 13.8568 4.64643 13.8568C11.8013 13.8678 18.9672 13.8678 26.1276 13.8678Z" fill="white"/>
<path d="M12.6591 22.5898C12.7306 23.6348 12.5657 24.6687 12.5272 25.7081C12.4832 26.8355 12.4117 27.9629 12.3017 29.0848C12.2247 29.8657 12.3457 30.6577 12.1202 31.4221C12.1092 31.4551 12.1092 31.4936 12.1147 31.5321C12.1917 32.412 12.0597 33.2864 11.9717 34.1554C11.8892 34.9693 12.0102 35.7997 11.7902 36.6027C11.7792 36.6357 11.7792 36.6742 11.7847 36.7127C11.8617 37.6311 11.7132 38.5385 11.6417 39.4459C11.5757 40.2599 11.6747 41.0903 11.4602 41.8932C11.4492 41.9262 11.4492 41.9647 11.4547 42.0032C11.5317 42.8996 11.3942 43.7961 11.3118 44.6815C11.2403 45.4789 11.3503 46.2929 11.1303 47.0738C11.1193 47.1068 11.1248 47.1453 11.1248 47.1838C11.1908 48.1187 11.0588 49.0481 10.9818 49.9721C10.9158 50.753 11.0203 51.5449 10.8113 52.3094C10.7728 52.4468 10.7838 52.6008 10.7948 52.7493C10.8223 53.0903 10.7563 53.4038 10.5748 53.6897C9.27143 52.7823 8.56748 51.4954 8.26501 49.9666C8.18252 49.5541 8.16602 49.1306 8.16602 48.7072C8.17152 41.9317 8.16052 35.1508 8.17702 28.3754C8.18252 26.291 9.07345 24.6302 10.7838 23.4313C11.3448 23.0298 11.9717 22.7273 12.6591 22.5898Z" fill="white"/>
<path d="M44.2157 26.9899C44.2102 29.9597 41.7904 32.3685 38.8097 32.3355C35.9664 32.3025 33.5081 30.1027 33.4971 27.0064C33.4861 23.9212 35.8234 21.6169 38.8482 21.6114C42.1149 21.6004 44.2322 24.2511 44.2157 26.9899Z" fill="white"/>
<path d="M3.11197 31.1925C3.11197 27.6343 3.11197 24.0816 3.11197 20.5234C3.11197 20.0229 3.16697 19.5334 3.40345 19.0825C3.9094 18.1146 4.72333 17.6361 5.80124 17.6251C7.30262 17.6141 8.80949 17.6196 10.3109 17.6196C14.2485 17.6196 18.1917 17.6196 22.1294 17.6196C22.4374 17.6196 22.7288 17.6086 23.0258 17.4491C23.4658 17.2181 24.0157 17.4106 24.2852 17.8066C24.5547 18.1971 24.4997 18.7855 24.1642 19.121C23.8122 19.4784 23.2623 19.5719 22.8663 19.253C22.5913 19.033 22.3164 19.011 22.0029 19.011C16.7068 19.011 11.4108 19.011 6.11472 19.011C5.93324 19.011 5.74625 19.0055 5.56477 19.0275C5.02581 19.0935 4.58585 19.5334 4.52535 20.0779C4.50336 20.2594 4.51436 20.4464 4.51436 20.6279C4.51436 27.7058 4.50886 34.7782 4.51986 41.8561C4.51986 42.6205 4.34937 43.308 3.82691 43.8799C3.10098 44.6773 2.02306 44.9468 1.01664 44.5784C-0.0337679 44.1989 -0.70471 43.264 -0.721209 42.0871C-0.737708 40.5307 -0.726707 38.9688 -0.726707 37.4125C-0.726707 37.1045 -0.737705 36.813 -0.897192 36.5105C-1.13367 36.0651 -0.941189 35.5261 -0.534223 35.2511C-0.132757 34.9817 0.433697 35.0311 0.780168 35.3721C1.13764 35.7241 1.22563 36.263 0.906653 36.67C0.692171 36.945 0.670177 37.22 0.670177 37.5334C0.675677 39.0348 0.664676 40.5417 0.675675 42.0431C0.681175 42.725 1.11014 43.242 1.72059 43.3245C2.40803 43.4179 3.04048 42.923 3.10097 42.2245C3.11747 42.0596 3.10647 41.8946 3.10647 41.7296C3.11197 38.2319 3.11197 34.7122 3.11197 31.1925Z" fill="white"/>
<path d="M49.0606 31.1371C49.0606 34.6898 49.0606 38.248 49.0606 41.8007C49.0606 41.9657 49.0496 42.1307 49.0716 42.2957C49.1541 42.9006 49.682 43.3516 50.287 43.3516C50.8919 43.3516 51.4089 42.8951 51.4859 42.2847C51.5079 42.1197 51.5024 41.9547 51.5079 41.7897C51.5079 40.2883 51.5079 38.787 51.5079 37.2801C51.5079 37.0381 51.4804 36.8236 51.3649 36.5981C51.1174 36.0977 51.2549 35.5807 51.6729 35.2783C52.0853 34.9813 52.6738 35.0363 53.0313 35.3992C53.3942 35.7732 53.4437 36.3067 53.0973 36.7521C52.9323 36.9611 52.8938 37.1591 52.8993 37.4011C52.9048 38.9574 52.9048 40.5138 52.8993 42.0757C52.8938 43.4011 52.0358 44.4405 50.76 44.688C49.1761 44.9959 47.7517 43.83 47.6637 42.1527C47.6527 41.9877 47.6637 41.8227 47.6637 41.6577C47.6637 34.6953 47.6637 27.7329 47.6637 20.765C47.6637 20.6 47.6692 20.435 47.6637 20.27C47.6362 19.5111 47.1742 19.0436 46.4208 19.0161C46.2558 19.0106 46.0908 19.0161 45.9259 19.0161C40.7398 19.0161 35.5537 19.0161 30.3732 19.0161C30.0432 19.0161 29.7517 19.0326 29.4602 19.2636C29.0643 19.5771 28.5033 19.4726 28.1623 19.1096C27.8214 18.7521 27.7829 18.1967 28.0633 17.7952C28.3438 17.3937 28.8828 17.2178 29.3282 17.4542C29.6087 17.6027 29.8837 17.6192 30.1697 17.6192C35.5372 17.6192 40.9048 17.6247 46.2723 17.6192C47.0863 17.6192 47.7847 17.8612 48.3457 18.4552C48.8296 18.9721 49.0606 19.5936 49.0606 20.303C49.0606 21.4194 49.0606 22.5413 49.0606 23.6577C49.0606 26.1545 49.0606 28.6458 49.0606 31.1371Z" fill="white"/>
<path d="M52.8998 52.6173C52.8998 53.6787 52.8888 54.7457 52.9053 55.8071C52.9218 56.896 52.4654 57.6989 51.5634 58.2874C47.7193 60.8062 43.8861 63.3414 40.0474 65.8712C39.5799 66.1792 39.085 66.4322 38.7605 66.9491C38.513 67.3451 37.9301 67.3891 37.5176 67.1691C37.1272 66.9601 36.9017 66.4762 36.9897 66.0527C37.0887 65.5798 37.4791 65.1838 37.9521 65.2388C38.4085 65.2938 38.7165 65.0848 39.052 64.8648C42.9182 62.313 46.7843 59.7557 50.6615 57.226C51.2665 56.8355 51.5304 56.368 51.5194 55.6421C51.4864 53.6238 51.5084 51.6109 51.5084 49.5926C51.5084 49.4441 51.5084 49.3011 51.4974 49.1526C51.437 48.5312 50.942 48.0692 50.3315 48.0527C49.6936 48.0307 49.1491 48.4872 49.0667 49.1141C49.0502 49.2571 49.0557 49.4056 49.0557 49.5541C49.0557 50.9455 49.0447 52.3424 49.0612 53.7337C49.0722 54.8172 48.6322 55.6311 47.7248 56.225C46.6689 56.918 45.6294 57.6384 44.5845 58.3424C44.3865 58.4743 44.2271 58.6228 44.1171 58.8538C43.8641 59.3708 43.3416 59.5688 42.8247 59.3873C42.4012 59.2388 42.0932 58.7493 42.1482 58.3039C42.2087 57.7704 42.6267 57.3744 43.2041 57.3909C43.4736 57.3964 43.6606 57.3029 43.8531 57.171C44.887 56.4725 45.9099 55.7631 46.9493 55.0811C47.4608 54.7457 47.6808 54.3167 47.6698 53.7007C47.6478 52.3094 47.6643 50.9125 47.6588 49.5211C47.6588 49.1691 47.6918 48.8227 47.7963 48.4927C48.1757 47.2773 49.4186 46.4908 50.656 46.6778C51.9264 46.8703 52.8833 47.9372 52.8998 49.2131C52.9108 50.346 52.8998 51.4789 52.8998 52.6173Z" fill="white"/>
<path d="M0.675937 52.6562C0.675937 53.6461 0.708937 54.6361 0.664941 55.626C0.637443 56.3464 0.906915 56.8194 1.51186 57.2153C5.20756 59.6241 8.88675 62.0604 12.5769 64.4857C12.8189 64.6452 13.0664 64.8047 13.3084 64.9697C13.5339 65.1237 13.7538 65.2392 14.0618 65.2282C14.5953 65.2117 14.9967 65.6186 15.0627 66.1411C15.1232 66.6141 14.8043 67.0815 14.3313 67.2355C13.8528 67.3895 13.3359 67.2135 13.1269 66.746C12.9839 66.4326 12.7529 66.2676 12.4945 66.0971C8.59528 63.5288 4.7071 60.944 0.791426 58.4032C-0.269985 57.7158 -0.742946 56.8139 -0.720947 55.56C-0.68795 53.5416 -0.70995 51.5288 -0.715449 49.5105C-0.715449 49.142 -0.682449 48.779 -0.561459 48.4271C-0.154493 47.2282 1.0609 46.4802 2.2818 46.6672C3.55219 46.8652 4.50912 47.9266 4.52562 49.208C4.54211 50.6544 4.55861 52.1063 4.52012 53.5526C4.50362 54.2731 4.75659 54.7625 5.36154 55.1475C6.39546 55.8075 7.40187 56.5114 8.41379 57.2043C8.61727 57.3418 8.79876 57.4188 9.06823 57.3858C9.62369 57.3198 10.0527 57.6498 10.1681 58.1558C10.2836 58.6562 10.0527 59.1457 9.60719 59.3492C9.14523 59.5636 8.58427 59.4207 8.3038 58.9642C8.14981 58.7167 7.94633 58.5572 7.71535 58.4032C6.62094 57.6663 5.53753 56.9184 4.43762 56.1924C3.5522 55.6095 3.12873 54.7955 3.13423 53.7396C3.14523 52.4197 3.13423 51.0999 3.13423 49.78C3.13423 49.6315 3.12873 49.4885 3.13423 49.34C3.16723 48.5481 2.51829 48.0201 1.87484 48.0421C1.1819 48.0696 0.692433 48.5866 0.686934 49.351C0.681434 50.1374 0.686934 50.9294 0.686934 51.7158C0.675934 52.0348 0.675937 52.3427 0.675937 52.6562Z" fill="white"/>
<path d="M41.9388 53.7006C41.0699 54.3716 40.1295 54.927 39.222 55.5375C39.013 55.6805 38.8261 55.8675 38.5621 55.917C38.2706 55.7135 38.3696 55.4055 38.4136 55.1635C38.5731 54.3166 38.5291 53.4587 38.5896 52.6062C38.6501 51.7373 38.7931 50.8629 38.7271 49.9885C38.7216 49.95 38.7271 49.917 38.7381 49.8785C38.9251 49.0535 38.8646 48.2121 38.9196 47.3762C38.98 46.5237 39.1285 45.6713 39.057 44.8134C39.0515 44.7749 39.057 44.7419 39.068 44.7034C39.244 43.84 39.1945 42.9655 39.255 42.0966C39.3155 41.2442 39.4585 40.3918 39.387 39.5338C39.3815 39.4953 39.387 39.4623 39.398 39.4238C39.574 38.5989 39.4805 37.7575 39.5905 36.9215C39.6565 36.4376 39.6015 35.9371 39.6015 35.4422C40.7289 35.4147 41.8233 35.2112 42.9012 34.8867C42.9012 35.3982 42.9782 35.9261 42.8792 36.4211C42.7197 37.2185 42.7802 38.0215 42.7142 38.8189C42.6372 39.7428 42.4998 40.6722 42.5712 41.6017C42.5767 41.6567 42.5712 41.7116 42.5602 41.7666C42.3513 42.5311 42.4558 43.3285 42.3843 44.1039C42.3018 44.9894 42.1643 45.8803 42.2413 46.7767C42.2468 46.8317 42.2413 46.8867 42.2303 46.9417C42.0543 47.8051 42.1038 48.6851 42.0433 49.554C41.9828 50.4064 41.8453 51.2588 41.9058 52.1223C41.9113 52.2268 41.8398 52.3368 41.8398 52.4413C41.8343 52.8592 41.6638 53.2992 41.9388 53.7006Z" fill="white"/>
<path d="M39.6012 35.4433C39.6012 35.9382 39.6562 36.4387 39.5902 36.9226C39.4747 37.7531 39.5737 38.6 39.3977 39.4249C39.3922 39.4579 39.3867 39.4964 39.3867 39.5349C39.4527 40.3928 39.3152 41.2453 39.2547 42.0977C39.1942 42.9666 39.2437 43.8466 39.0677 44.7045C39.0622 44.7375 39.0567 44.776 39.0567 44.8145C39.1282 45.6724 38.9797 46.5248 38.9193 47.3773C38.8588 48.2077 38.9247 49.0546 38.7378 49.8796C38.7323 49.9125 38.7268 49.951 38.7268 49.9895C38.7983 50.8695 38.6553 51.7384 38.5893 52.6073C38.5288 53.4598 38.5728 54.3177 38.4133 55.1646C38.3693 55.4066 38.2703 55.7146 38.5618 55.918C38.3088 56.2425 37.9128 56.358 37.5939 56.589C36.4555 57.4029 35.2676 58.1509 34.0961 58.9153C34.0357 58.9538 33.9642 58.9758 33.8982 59.0088C33.7442 58.7063 33.8982 58.3983 33.8817 58.0959C33.8267 57.1609 34.0632 56.2425 33.9972 55.3076C33.9972 55.2691 33.9972 55.2361 34.0027 55.1976C34.1401 54.1692 34.2006 53.1298 34.2061 52.0904C34.2116 51.7329 34.3656 51.3699 34.2061 51.0125C35.0201 50.391 35.9055 49.8741 36.7469 49.2911C37.0934 49.0546 37.5334 48.8841 37.7533 48.5597C37.9788 48.2297 37.8248 47.7402 37.8248 47.3278C37.8303 43.5771 37.8303 39.8264 37.8303 36.0702C37.8303 35.9217 37.8413 35.7787 37.8303 35.6302C37.8138 35.3718 37.9238 35.2618 38.1878 35.2893C38.6553 35.3498 39.1282 35.3938 39.6012 35.4433Z" fill="white"/>
<path d="M25.9792 69.8465C25.5118 69.852 25.0003 69.643 24.5109 69.324C21.6841 67.4927 18.8518 65.6668 16.0196 63.841C14.8647 63.0985 13.7098 62.3506 12.5604 61.6081C12.3294 61.4597 12.0984 61.3387 11.8124 61.2947C11.2735 61.2177 10.916 60.7722 10.927 60.2718C10.9325 59.8043 11.2845 59.3753 11.7299 59.2818C12.2799 59.1664 12.7858 59.4138 12.9508 59.9583C13.0278 60.2223 13.1763 60.3598 13.3743 60.4862C17.3285 63.038 21.2826 65.5843 25.2313 68.1416C25.8308 68.5321 26.3642 68.5211 26.9582 68.1361C30.9508 65.5458 34.9545 62.9665 38.9527 60.3928C39.1781 60.2498 39.3266 60.0848 39.4366 59.8318C39.6511 59.3478 40.1791 59.1499 40.685 59.2983C41.147 59.4358 41.433 59.8978 41.3835 60.4147C41.334 60.9152 40.9655 61.2947 40.4375 61.3112C40.1406 61.3222 39.9206 61.4212 39.6841 61.5752C35.6859 64.1599 31.6823 66.7337 27.6896 69.3185C27.2001 69.632 26.6887 69.841 25.9792 69.8465Z" fill="white"/>
<path d="M28.6075 62.3741C27.0566 63.0835 25.5002 63.045 23.9439 62.4071C23.5259 62.2366 23.1024 62.0551 22.7725 61.7252C22.811 61.5657 22.877 61.4062 22.8825 61.2467C22.9044 60.1028 23.0364 58.9699 23.0969 57.826C23.1574 56.6491 23.2069 55.4722 23.3444 54.3008C24.1308 54.7242 24.8458 55.2687 25.5992 55.7472C25.7202 55.8242 25.8522 55.9011 25.9622 55.9891C26.1822 56.1596 26.3747 56.1376 26.6001 55.9836C27.3096 55.4997 28.03 55.0377 28.7505 54.5703C28.844 54.5098 28.9429 54.4658 29.0364 54.4163C29.0694 55.0927 28.9704 55.7637 28.9539 56.4346C28.9319 57.364 28.7505 58.2879 28.822 59.2174C28.8275 59.2559 28.8219 59.2889 28.8165 59.3274C28.6955 60.3448 28.5965 61.3567 28.6075 62.3741Z" fill="white"/>
<path d="M28.6073 62.3741C28.5963 61.3512 28.6953 60.3393 28.8163 59.3274C28.8218 59.2889 28.8273 59.2559 28.8218 59.2174C28.7503 58.2825 28.9318 57.364 28.9537 56.4346C28.9702 55.7637 29.0692 55.0927 29.0362 54.4163C29.3442 54.1303 29.7182 53.9323 30.0702 53.7014C31.3186 52.8709 32.5725 52.0515 33.8263 51.2321C33.9473 51.1551 34.0793 51.0891 34.2058 51.0176C34.3653 51.375 34.2113 51.738 34.2058 52.0955C34.1948 53.1349 34.1343 54.1688 34.0023 55.2027C33.9968 55.2412 33.9968 55.2742 33.9968 55.3127C34.0683 56.2476 33.8263 57.1661 33.8813 58.101C33.8978 58.4035 33.7438 58.7114 33.8978 59.0139C33.2159 59.5639 32.446 59.9873 31.7255 60.4823C30.9886 60.9882 30.2406 61.4722 29.4872 61.9617C29.2122 62.1321 28.9373 62.3081 28.6073 62.3741Z" fill="white"/>
<path d="M41.9387 53.7012C41.6692 53.2997 41.8342 52.8597 41.8342 52.4308C41.8342 52.3263 41.9112 52.2163 41.9002 52.1118C41.8397 51.2484 41.9772 50.3959 42.0377 49.5435C42.0981 48.6746 42.0487 47.7946 42.2246 46.9312C42.2356 46.8762 42.2411 46.8212 42.2356 46.7662C42.1586 45.8698 42.3016 44.9734 42.3786 44.0935C42.4501 43.3125 42.3456 42.5206 42.5546 41.7562C42.5711 41.7067 42.5711 41.6462 42.5656 41.5912C42.4996 40.6562 42.6316 39.7268 42.7086 38.8084C42.7746 38.011 42.7141 37.208 42.8736 36.4106C42.9726 35.9156 42.8956 35.3877 42.8956 34.8762C43.3575 34.6617 43.8195 34.4473 44.276 34.2383C44.452 34.3153 44.397 34.4583 44.397 34.5738C44.397 39.2759 44.408 43.9835 44.3915 48.6856C44.386 50.5224 43.759 52.1228 42.3676 53.3767C42.2466 53.5032 42.1256 53.6517 41.9387 53.7012Z" fill="white"/>
<path d="M26.1988 74.3786C25.5883 74.4171 25.0604 74.1861 24.5599 73.8561C22.3711 72.4263 20.1713 71.0019 17.9824 69.5665C17.713 69.3905 17.46 69.286 17.1245 69.308C16.6131 69.3355 16.2281 68.9725 16.1236 68.4666C16.0356 68.0211 16.2941 67.5262 16.7175 67.3337C17.1685 67.1302 17.735 67.2457 17.9769 67.6802C18.1694 68.0266 18.4554 68.2191 18.7579 68.4171C20.9192 69.825 23.0915 71.2164 25.2418 72.6462C25.8963 73.0807 26.4517 73.0752 27.1062 72.6462C29.207 71.2494 31.3353 69.8855 33.4526 68.5106C33.7441 68.3236 33.9971 68.1366 34.1456 67.7791C34.3381 67.3172 34.8825 67.1467 35.361 67.3062C35.8339 67.4602 36.1364 67.9276 36.0759 68.4116C36.0154 68.9011 35.625 69.297 35.119 69.308C34.822 69.3135 34.5966 69.4235 34.3656 69.572C32.1768 71.0019 29.9769 72.4263 27.7881 73.8561C27.2987 74.1751 26.7927 74.4061 26.1988 74.3786Z" fill="white"/>
<path d="M15.1719 56.7326C15.3919 56.1607 15.3424 55.5392 15.3754 54.9563C15.4194 54.0653 15.4799 53.1744 15.5458 52.289C15.6008 51.4971 15.5458 50.6886 15.7218 49.9022C15.7658 49.7097 15.7328 49.5007 15.7383 49.3027C16.3213 49.6107 16.8547 50.0012 17.3992 50.3641C18.2681 50.9416 19.1645 51.4751 19.995 52.1075C19.8135 52.19 19.808 52.355 19.808 52.5255C19.808 52.7454 19.83 52.9654 19.797 53.1799C19.643 54.0928 19.6705 55.0223 19.599 55.9407C19.5385 56.7161 19.4285 57.4916 19.467 58.278C19.478 58.542 19.346 58.8059 19.3625 59.0809C19.3735 59.2404 19.247 59.2899 19.1095 59.3119C18.4771 58.9874 17.9051 58.553 17.3112 58.168C16.5908 57.695 15.8868 57.2111 15.1719 56.7326Z" fill="white"/>
<path d="M26.2929 22.4037C26.6009 22.3212 26.9089 22.3652 27.2223 22.3652C28.3387 22.3597 29.4551 22.3597 30.5715 22.3652C30.7475 22.3652 30.9345 22.3102 31.1435 22.4587C30.2966 24.5486 30.2141 26.6989 30.8355 28.9207C29.1362 28.9207 27.4973 28.9207 25.8529 28.9207C25.7979 28.5852 25.9849 28.2827 25.9629 27.9473C25.9024 27.0178 26.1444 26.0994 26.0729 25.17C26.0674 25.115 26.0729 25.06 26.0839 25.005C26.2654 24.1471 26.1499 23.2672 26.2929 22.4037Z" fill="white"/>
<path d="M19.1104 59.3099C19.2423 59.2879 19.3688 59.2384 19.3633 59.0789C19.3468 58.7984 19.4788 58.5399 19.4678 58.276C19.4348 57.4895 19.5393 56.7141 19.5998 55.9386C19.6713 55.0202 19.6383 54.0908 19.7978 53.1779C19.8363 52.9634 19.8088 52.7434 19.8088 52.5234C19.8088 52.353 19.8143 52.1935 19.9958 52.1055C21.1397 52.7929 22.2506 53.5354 23.3395 54.3108C23.202 55.4822 23.1525 56.6591 23.092 57.836C23.0315 58.9744 22.905 60.1128 22.8775 61.2567C22.872 61.4162 22.806 61.5757 22.7675 61.7352C22.2561 61.4987 21.8161 61.1467 21.3487 60.8332C20.6007 60.3273 19.8198 59.8708 19.1104 59.3099Z" fill="white"/>
<path d="M26.2923 22.4042C26.1493 23.2676 26.2593 24.1475 26.0888 25.0055C26.0778 25.0605 26.0723 25.1154 26.0778 25.1704C26.1493 26.0999 25.9018 27.0183 25.9678 27.9477C25.9898 28.2777 25.8029 28.5857 25.8579 28.9211C24.6095 28.9541 23.3666 28.9651 22.1182 28.9211C22.1182 27.7442 22.2667 26.5728 22.3161 25.3959C22.3546 24.4005 22.5196 23.4051 22.4481 22.4042C23.0256 22.3107 23.603 22.3657 24.1805 22.3657C24.8844 22.3712 25.5939 22.3217 26.2923 22.4042Z" fill="white"/>
<path d="M22.4482 22.404C22.5142 23.4049 22.3547 24.4004 22.3162 25.3958C22.2667 26.5672 22.1182 27.7386 22.1182 28.921C20.9083 28.954 19.6984 28.965 18.4885 28.921C18.428 27.9366 18.582 26.9631 18.626 25.9842C18.6755 24.7908 18.8515 23.6029 18.813 22.404C19.5004 22.3105 20.1879 22.3765 20.8753 22.371C21.3978 22.371 21.9257 22.3215 22.4482 22.404Z" fill="white"/>
</g>
<defs>
<clipPath id="clip0_2838_14328">
<rect width="227" height="88" fill="white"/>
</clipPath>
</defs>
</svg>
