<svg width="228" height="89" viewBox="0 0 228 89" fill="none" xmlns="http://www.w3.org/2000/svg">
<path d="M90.5664 62.1348C84.8841 62.1348 80.1728 60.2723 76.4325 56.5471C72.7281 52.7862 70.876 48.1118 70.876 42.5241C70.876 36.9364 72.7281 32.28 76.4325 28.5548C80.1728 24.7939 84.8841 22.9134 90.5664 22.9134C93.9831 22.9134 97.1479 23.7193 100.061 25.3311C102.974 26.943 105.258 29.11 106.912 31.8322L98.5505 36.614C97.8312 35.2887 96.7523 34.25 95.3137 33.4978C93.9111 32.7098 92.3287 32.3158 90.5664 32.3158C87.5454 32.3158 85.0999 33.265 83.2297 35.1634C81.3955 37.0259 80.4785 39.4795 80.4785 42.5241C80.4785 45.5687 81.3955 48.0402 83.2297 49.9386C85.0999 51.8011 87.5454 52.7324 90.5664 52.7324C92.3287 52.7324 93.9111 52.3563 95.3137 51.6041C96.7523 50.8161 97.8312 49.7416 98.5505 48.3805L106.912 53.216C105.258 55.974 102.974 58.159 100.061 59.7708C97.1839 61.3468 94.019 62.1348 90.5664 62.1348ZM119.684 39.4616C120.188 37.7065 121.195 36.3454 122.705 35.3783C124.216 34.4112 125.906 33.9276 127.776 33.9276V43.8136C125.726 43.4912 123.856 43.8673 122.166 44.9419C120.511 46.0164 119.684 47.7715 119.684 50.2072V61.3289H110.729V34.4649H119.684V39.4616ZM148.27 34.4649H157.226V61.3289H148.27V58.6425C146.652 60.9349 144.153 62.0811 140.772 62.0811C137.859 62.0811 135.467 61.0961 133.597 59.1261C131.763 57.1202 130.846 54.2547 130.846 50.5296V34.4649H139.801V49.4013C139.801 50.7982 140.16 51.8549 140.88 52.5712C141.635 53.2876 142.624 53.6458 143.847 53.6458C145.249 53.6458 146.328 53.2339 147.084 52.4101C147.875 51.5504 148.27 50.3326 148.27 48.7566V34.4649ZM170.502 30.7577C169.495 31.7606 168.291 32.2621 166.888 32.2621C165.485 32.2621 164.263 31.7606 163.22 30.7577C162.213 29.7189 161.709 28.5011 161.709 27.1042C161.709 25.7072 162.213 24.5073 163.22 23.5044C164.263 22.5015 165.485 22 166.888 22C168.291 22 169.495 22.5015 170.502 23.5044C171.545 24.5073 172.067 25.7072 172.067 27.1042C172.067 28.5011 171.545 29.7189 170.502 30.7577ZM162.41 61.3289V34.4649H171.366V61.3289H162.41ZM188.073 53.0548H198.161V61.3289H176.097V55.2039L185.646 42.739H176.637V34.4649H197.622V40.5899L188.073 53.0548ZM209.01 51.1743C209.91 53.3593 211.924 54.4517 215.052 54.4517C216.994 54.4517 218.631 53.8249 219.962 52.5712L226.435 57.0844C223.774 60.4155 219.908 62.0811 214.837 62.0811C210.269 62.0811 206.601 60.7558 203.832 58.1052C201.098 55.4188 199.732 52.034 199.732 47.9506C199.732 43.9031 201.08 40.5183 203.778 37.796C206.475 35.0738 209.91 33.7127 214.081 33.7127C218.109 33.7127 221.436 35.0559 224.061 37.7423C226.687 40.4287 228 43.7957 228 47.8432C228 49.0252 227.874 50.1356 227.622 51.1743H209.01ZM208.903 44.9956H219.26C218.541 42.4883 216.851 41.2346 214.189 41.2346C211.42 41.2346 209.658 42.4883 208.903 44.9956Z" fill="white"/>
<path fill-rule="evenodd" clip-rule="evenodd" d="M19.3904 24.7954C15.766 25.2585 11.4196 26.7194 8.49033 28.4594L7.78389 28.8789L8.64631 29.1072C9.12073 29.233 10.0627 29.2438 10.74 29.1314C11.956 28.9295 11.974 28.9391 12.2081 29.8872C12.496 31.0539 12.2027 31.0724 15.0199 29.7124C17.7515 28.3941 19.0894 28.1845 19.4707 29.0158C20.0312 30.2376 19.5672 30.6682 15.9495 32.2833C14.4912 32.9343 13.2545 33.5662 13.2015 33.6875C13.0498 34.0341 14.2937 39.7638 14.5209 39.7645C14.6328 39.7648 15.97 39.0491 17.4926 38.1742C23.6489 34.6367 32.52 30.972 37.9822 29.7104C39.3411 29.3965 40.3558 29.0967 40.237 29.0441C40.1181 28.9916 37.0578 28.0135 33.4361 26.8705C26.2346 24.5973 23.7799 24.2346 19.3904 24.7954ZM49.9416 29.4725C36.7911 31.0893 19.2682 38.5837 2.76198 49.6518L0 51.5039V55.1895C0 57.2165 0.0868065 58.8749 0.193005 58.8749C0.299196 58.8749 1.33929 58.1732 2.50407 57.3155C6.23898 54.5653 9.77455 53.2231 14.0919 52.9158C17.262 52.6903 19.624 53.1324 24.689 54.8988C34.0543 58.1653 40.0674 58.6924 45.7966 56.7493L47.2881 56.2431L50.6442 47.1405C52.4899 42.1341 54.7232 36.0616 55.6068 33.6462L57.2135 29.2547L54.0285 29.3082C52.2768 29.3378 50.4377 29.4118 49.9416 29.4725ZM31.4463 40.3916C32.7078 42.3605 30.6975 45.2002 29.3037 43.4183C28.7596 42.723 28.7235 41.1432 29.2333 40.3476C29.7329 39.568 30.9338 39.5919 31.4463 40.3916ZM26.8801 43.1348C27.2089 44.154 26.7247 45.7621 26.0132 46.0143C24.6484 46.4984 23.5991 45.0827 24.0324 43.3421C24.473 41.5722 26.3324 41.4369 26.8801 43.1348ZM21.768 44.6875C23.2397 46.766 21.2039 49.6853 19.6867 47.6721C19.3999 47.2911 19.1649 46.6395 19.1649 46.2242C19.1649 45.2907 20.1077 43.9055 20.7433 43.9055C21.0025 43.9055 21.4636 44.2575 21.768 44.6875ZM12.505 54.7701C9.803 55.1717 6.5596 56.4396 4.22145 58.0083C2.28402 59.3081 -0.668065 61.7694 0.338207 61.2461C7.77644 57.3764 14.7767 56.9247 22.4171 59.8214C23.7907 60.3422 25.6754 61.0629 26.6055 61.4232C35.6098 64.9097 45.3628 62.959 51.5763 56.4282C52.9192 55.0166 53.3873 54.1589 52.2723 55.1532C51.264 56.0524 47.5758 57.9474 45.496 58.6354C43.6932 59.2316 42.7311 59.3281 38.5554 59.3326C33.0185 59.3386 31.1706 58.971 24.2159 56.481C20.6855 55.2173 16.2704 54.2853 14.6555 54.4634C14.4695 54.4838 13.5019 54.6217 12.505 54.7701ZM9.24427 60.4989C6.5456 60.8457 3.80409 62.0455 1.66687 63.8148C0.425465 64.8426 0.409905 65.0308 1.61688 64.4295C6.2651 62.1127 11.7404 62.1713 17.6994 64.6011C22.9544 66.7443 27.2977 66.9708 31.453 65.319L32.8059 64.7811L31.7913 64.5556C31.2332 64.4317 29.3055 64.1728 27.5073 63.9801C23.3269 63.5323 22.1217 63.2622 17.5867 61.7573C13.5539 60.4193 11.8557 60.1629 9.24427 60.4989ZM17.6994 60.4727C18.6829 60.94 23.9362 62.4331 24.0468 62.2768C24.1975 62.064 19.6238 60.5237 18.2631 60.3288C17.2388 60.182 17.1407 60.2072 17.6994 60.4727Z" fill="white"/>
</svg>
