<svg width="228" height="88" viewBox="0 0 228 88" fill="none" xmlns="http://www.w3.org/2000/svg">
<path d="M9.56136 25.2181C9.56136 25.2181 6.19775 28.301 5.63631 28.7672C5.07487 29.2334 5.25534 29.3738 6.42834 29.2334C9.53206 28.7528 12.6051 28.0917 15.6319 27.2533C18.4792 26.3861 20.2587 25.3535 20.8152 24.7068C21.3716 24.0602 21.3164 23.3484 20.8152 23.1629C20.3139 22.9774 20.349 23.584 18.2486 24.1905C15.4042 24.878 12.4877 25.223 9.56136 25.2181V25.2181Z" fill="white"/>
<path d="M22.078 23.1266C23.0555 23.307 25.0206 24.9362 22.7748 26.5102C20.5291 28.0843 17.5414 29.3274 12.8293 30.6809C9.63561 31.5358 6.36738 32.083 3.06937 32.3151C2.79867 32.3602 2.13197 34.0445 1.66577 35.1624C1.26875 36.1053 0.933849 37.0732 0.663209 38.0598C0.38249 39.0624 0.708324 38.9471 2.25228 38.6664C3.79623 38.3856 14.0725 35.9093 17.4813 34.6009C20.89 33.2926 25.8878 30.5506 27.2864 29.2873C28.6849 28.0241 28.4092 25.7332 27.7876 24.9412C27.166 24.1492 25.963 23.6028 24.5594 23.2118C24.4742 23.1817 20.3987 22.8108 22.078 23.1266Z" fill="white"/>
<path d="M27.4015 23.3485C28.5745 23.8498 32.4946 25.5441 31.7477 28.9077C31.0459 31.7099 26.4291 35.0735 20.2182 37.3643C14.0073 39.6552 14.1326 39.6502 9.1398 40.9134C6.33047 41.6418 3.47733 42.1893 0.597934 42.5526C-0.244221 42.688 -0.00360542 43.8058 0.171844 45.3047C0.314761 46.7622 0.533955 48.2112 0.828525 49.6458C1.01901 50.112 1.01901 49.9265 2.60307 49.6458C4.18712 49.3651 16.1026 46.3774 19.9324 44.7884C23.7622 43.1993 29.928 40.5876 32.4043 38.392C34.8807 36.1964 36.8407 33.8153 36.8407 31.5695C36.8407 29.3238 35.1614 27.5141 33.3869 25.9652C32.2257 24.9285 30.8593 24.148 29.3766 23.6743C28.5695 23.3836 26.6997 23.0026 27.4015 23.3485Z" fill="white"/>
<path d="M3.11368 53.1936C4.20146 53.1936 12.8737 51.3289 18.1071 49.5994C23.1461 48.0379 27.9528 45.8073 32.3986 42.9675C35.1156 41.238 38.2837 37.7341 38.9855 35.9144C39.6873 34.0948 38.9855 32.0646 38.3338 30.9317C37.6822 29.7988 39.5018 32.1297 40.1084 33.2476C40.7149 34.3655 42.4895 37.5937 41.6122 41.0977C40.735 44.6017 37.9579 47.3086 32.5791 50.5318C27.2003 53.7551 20.2475 55.8605 14.8387 57.2139C9.42985 58.5674 8.01623 58.7529 7.12896 58.8932C6.47729 58.8932 5.44966 57.635 4.51727 56.467C3.58489 55.299 1.85045 53.4293 3.11368 53.1936Z" fill="white"/>
<path d="M12.9992 60.3826C10.3273 60.8137 8.66807 60.9541 10.0265 61.696C11.0291 62.3026 13.9967 63.8465 15.7712 63.8465C17.5458 63.8465 25.9072 61.5657 29.0703 60.4278C32.425 59.1115 35.5473 57.2669 38.319 54.9638C40.0985 53.3296 42.1638 49.57 42.6049 46.6124C43.0461 43.6548 42.7453 42.547 42.6049 41.9856C42.4646 41.4241 42.7954 43.715 41.4369 46.6124C40.0785 49.5098 35.5318 52.728 30.5741 55.1543C25.6164 57.5805 17.9468 59.5956 12.9992 60.3826Z" fill="white"/>
<path d="M18.8691 64.4991C16.8038 64.7648 25.6916 64.6194 29.0752 63.1958C32.4589 61.7721 36.2536 59.0452 38.1535 56.7894C40.0533 54.5336 36.6496 58.6291 31.0302 61.1806C27.1754 62.917 23.0716 64.0369 18.8691 64.4991V64.4991Z" fill="white"/>
<path d="M62.3508 51.2187C63.3741 51.2553 64.3876 51.0082 65.2794 50.5049C66.1711 50.0015 66.9063 49.2614 67.4038 48.3664L65.8347 47.3939C65.5172 48.0557 65.0196 48.6146 64.3989 49.0065C63.7783 49.3984 63.0598 49.6074 62.3258 49.6096C59.8193 49.6096 58.2854 47.6446 58.2854 45.0279C58.2854 42.4112 59.8344 40.4462 62.3258 40.4462C63.0577 40.4493 63.7741 40.6571 64.3941 41.0459C65.0142 41.4348 65.5132 41.9893 65.8347 42.6468L67.4038 41.6693C66.9056 40.7752 66.1701 40.0362 65.2785 39.5337C64.3868 39.0313 63.3736 38.785 62.3508 38.822C58.6363 38.822 56.4307 41.5991 56.4307 45.0279C56.4307 48.4567 58.6463 51.2187 62.3508 51.2187ZM69.3688 51.0734H71.0832V46.7423H73.3941L74.0608 46.7072L76.4168 51.0734H78.1663L75.6198 46.3613C76.3599 46.1194 77.0046 45.6498 77.4619 45.0196C77.9192 44.3895 78.1658 43.6309 78.1663 42.8523C78.1663 40.7068 76.4519 38.9724 73.5996 38.9724H69.3588L69.3688 51.0734ZM71.0832 45.1181V40.5715H73.5896C75.324 40.5715 76.4068 41.574 76.4068 42.8423C76.4068 44.1105 75.324 45.1181 73.5896 45.1181H71.0832ZM88.5028 38.9624H86.4976L83.4899 43.4739L80.4572 38.9624H78.5072L82.6428 45.083V51.0734H84.3571V45.058L88.5028 38.9624ZM90.0066 51.0734H91.721V46.7423H94.2274C97.0797 46.7423 98.7941 44.9928 98.7941 42.8423C98.7941 40.6918 97.0797 38.9624 94.2274 38.9624H89.9765L90.0066 51.0734ZM91.721 45.1181V40.5715H94.2274C95.9618 40.5715 97.0446 41.574 97.0446 42.8423C97.0446 44.1105 95.9618 45.1181 94.2274 45.1181H91.721ZM109.998 38.9624H100.368V40.6767H104.303V51.0734H106.018V40.6767H109.968L109.998 38.9624ZM111.582 51.0734H113.286V38.9624H111.582V51.0734ZM120.966 51.2187C124.665 51.2187 126.851 48.4366 126.851 45.0279C126.851 41.6192 124.665 38.822 120.966 38.822C117.266 38.822 115.066 41.5991 115.066 45.0279C115.066 48.4567 117.246 51.2187 120.966 51.2187ZM120.966 49.6096C118.459 49.6096 116.905 47.6446 116.905 45.0279C116.905 42.4112 118.474 40.4462 120.966 40.4462C123.457 40.4462 125.026 42.4112 125.026 45.0279C125.026 47.6446 123.437 49.6096 120.966 49.6096ZM136.295 38.9624V48.3865L130.33 38.9624H128.595V51.0734H130.315V41.6542L136.28 51.0734H138.009V38.9624H136.295ZM152.512 38.9624V48.3865L146.521 38.9624H144.787V51.0734H146.501V41.6542L152.492 51.0734H154.226V38.9624H152.512ZM164.773 40.6767V38.9624H156.452V51.0734H164.773V49.359H158.166V45.8049H161.851V44.0905H158.166V40.6767H164.773ZM176.142 38.9624H166.543V40.6767H170.478V51.0734H172.192V40.6767H176.142V38.9624ZM192.815 38.9624L189.747 48.3464L186.589 38.9624H185.02L181.862 48.3464L178.794 38.9624H177.024L180.959 51.0734H182.714L185.782 41.4387L188.865 51.0734H190.629L194.564 38.9624H192.815ZM200.765 51.2187C204.465 51.2187 206.645 48.4366 206.645 45.0279C206.645 41.6192 204.465 38.822 200.765 38.822C197.066 38.822 194.865 41.5991 194.865 45.0279C194.865 48.4567 197.046 51.2187 200.765 51.2187V51.2187ZM200.765 49.6096C198.259 49.6096 196.705 47.6446 196.705 45.0279C196.705 42.4112 198.274 40.4462 200.765 40.4462C203.256 40.4462 204.825 42.4112 204.825 45.0279C204.825 47.6446 203.236 49.6096 200.765 49.6096V49.6096ZM208.37 51.0734H210.084V46.7423H212.395L213.062 46.7072L215.428 51.0734H217.177L214.631 46.3613C215.371 46.12 216.016 45.6506 216.474 45.0203C216.931 44.39 217.177 43.6311 217.177 42.8523C217.177 40.7068 215.463 38.9724 212.61 38.9724H208.37V51.0734ZM210.084 45.1181V40.5715H212.59C214.325 40.5715 215.408 41.574 215.408 42.8423C215.408 44.1105 214.325 45.1181 212.59 45.1181H210.084ZM228 38.9624H225.995L220.852 45.3186V38.9624H219.137V51.0734H220.852V47.825L222.566 45.7146L225.96 51.0734H227.839L223.594 44.4163L228 38.9624Z" fill="white"/>
</svg>
