<svg width="227" height="89" viewBox="0 0 227 89" fill="none" xmlns="http://www.w3.org/2000/svg">
<path d="M18.2148 9.93164H85.4022L33.3897 62.4958L26.4622 55.5534L48.1247 33.4038L23.9328 33.8445L32.51 24.6982L56.372 25.1389L61.1004 19.9596H25.2526L18.2148 9.93164Z" fill="white"/>
<path d="M68.9082 33.4043H81.5539L53.4034 63.8188H39.8779L68.9082 33.4043Z" fill="white"/>
<path d="M34.7096 38.584H19.0949L0.0712891 58.1991L19.9745 79.0265H81.5538L71.5472 68.5576H27.7818L17.0055 56.8767L35.5893 38.584H34.7096Z" fill="white"/>
<path d="M115.212 54.4062V49.9952H121.067V53.7004C121.067 57.5821 119.247 59.523 115.608 59.523H110.062C106.424 59.523 104.604 57.5821 104.604 53.7004V35.9241C104.604 32.0423 106.424 30.1016 110.062 30.1016H115.608C119.247 30.1016 121.067 32.0423 121.067 35.9241V38.6148H115.212V35.1742C115.212 34.9389 115.124 34.7331 114.948 34.5565C114.802 34.3801 114.611 34.292 114.376 34.292H111.603C111.368 34.292 111.163 34.3801 110.987 34.5565C110.84 34.7331 110.767 34.9389 110.767 35.1742V54.4062C110.767 54.6415 110.84 54.8473 110.987 55.0237C111.163 55.2003 111.368 55.2884 111.603 55.2884H114.376C114.611 55.2884 114.802 55.2003 114.948 55.0237C115.124 54.8473 115.212 54.6415 115.212 54.4062ZM141.27 30.5426L135.152 48.6719V59.0819H128.99V48.6719L122.872 30.5426H128.682L132.071 42.4523L135.46 30.5426H141.27ZM157.802 43.4669C159.709 44.1433 160.663 45.7018 160.663 48.1426V53.2594C160.663 57.141 158.843 59.0819 155.205 59.0819H143.893V30.5426H154.853C158.491 30.5426 160.311 32.4834 160.311 36.3652V38.9676C160.311 41.3202 159.474 42.82 157.802 43.4669ZM153.312 34.7331H150.055V42.3642H153.312C153.547 42.3642 153.738 42.2759 153.884 42.0995C154.06 41.9231 154.148 41.7171 154.148 41.482V35.6153C154.148 35.38 154.06 35.1742 153.884 34.9978C153.738 34.8212 153.547 34.7331 153.312 34.7331ZM154.5 53.9651V47.5691C154.5 47.3339 154.412 47.128 154.236 46.9516C154.09 46.7752 153.899 46.6869 153.664 46.6869H150.055V54.8473H153.664C153.899 54.8473 154.09 54.7592 154.236 54.5826C154.412 54.4062 154.5 54.2004 154.5 53.9651ZM171.031 53.9651H177.854V59.0819H164.869V30.5426H177.854V35.5711H171.031V42.2759H177.414V47.128H171.031V53.9651ZM187.581 47.3927V59.0819H181.417V30.5426H192.378C196.018 30.5426 197.837 32.4834 197.837 36.3652V39.6733C197.837 42.026 197 43.5258 195.327 44.1726C196.794 44.702 197.528 45.9076 197.528 47.7898V59.0819H191.366V48.2748C191.366 47.6867 191.087 47.3927 190.529 47.3927H187.581ZM187.581 34.7331V43.0699H190.838C191.073 43.0699 191.263 42.9816 191.41 42.8052C191.586 42.6288 191.673 42.4229 191.673 42.1878V35.6153C191.673 35.38 191.586 35.1742 191.41 34.9978C191.263 34.8212 191.073 34.7331 190.838 34.7331H187.581ZM207.956 47.8779V59.0819H201.792V30.5426H214.645V35.88H207.956V42.717H214.206V47.8779H207.956ZM224.418 30.5426V59.0819H218.256V30.5426H224.418Z" fill="white"/>
</svg>
