<svg width="227" height="88" viewBox="0 0 227 88" fill="none" xmlns="http://www.w3.org/2000/svg">
<g clip-path="url(#clip0_2838_14383)">
<path d="M20.315 25.7773C22.9995 25.7773 25.6841 25.7773 28.3687 25.7773C29.9794 25.7773 31.1509 26.4119 31.9807 27.8274C34.7141 32.6108 37.4474 37.3454 40.2296 42.1289C40.9618 43.3979 40.9618 44.7158 40.2296 46.0337C37.4474 50.8659 34.7141 55.6494 31.9319 60.4816C31.1509 61.8483 29.9794 62.434 28.4175 62.434C22.9507 62.434 17.484 62.3852 12.066 62.434C10.5041 62.434 9.3326 61.7507 8.60045 60.4328C5.81825 55.6494 3.08486 50.8171 0.302666 45.9849C-0.429491 44.667 -0.380681 43.3979 0.351477 42.1289C3.08486 37.3454 5.81825 32.6108 8.60045 27.8274C9.38141 26.4607 10.6017 25.7773 12.2124 25.8262C14.897 25.8262 17.5816 25.7773 20.315 25.7773ZM15.922 46.5218C14.8482 44.5694 15.0434 42.7634 16.2149 41.1526C17.3375 39.5907 18.9483 38.8098 20.9007 39.1026C23.4388 39.4443 25.1472 41.3967 25.2448 43.8372C25.3424 46.3266 23.8781 48.4254 21.34 48.9135C19.9245 49.2064 20.2173 50.085 20.2662 50.9636C20.315 51.9886 21.1447 51.5493 21.6328 51.5005C25.6353 50.9148 28.5639 46.5706 27.7342 42.617C26.8068 38.3216 22.5602 35.6371 18.4602 36.7597C13.7255 38.0776 11.4315 43.0563 13.6767 47.5468C14.4089 48.9623 13.1886 49.3528 12.6029 49.7921C11.8708 50.329 11.7731 49.2552 11.5291 48.8647C9.38141 45.1551 10.1136 40.1764 13.1886 37.0038C16.1661 33.9287 21.0471 33.1477 24.7567 35.1002C28.8568 37.2478 30.858 41.2015 30.1747 45.9361C29.589 49.9874 26.1234 53.3553 21.6817 53.9898C20.2662 54.1851 20.2173 54.8684 20.315 55.9422C20.4126 57.3089 21.4376 56.4303 21.9745 56.5768C22.2674 56.6744 22.6579 56.528 22.9995 56.4303C29.3937 54.966 33.4938 49.2064 32.8593 42.6658C32.2247 36.5645 27.002 31.781 20.7054 31.537C15.7268 31.3417 11.041 34.3192 8.94212 38.9562C6.89208 43.3979 7.81948 48.9623 10.9922 52.4767C11.9196 53.4529 12.6029 53.5017 13.5303 52.5255C15.1899 50.8171 16.947 49.2064 18.6554 47.498C19.2411 46.9123 19.8269 46.6194 20.6566 46.5706C21.9257 46.5218 22.9019 45.3992 22.9019 44.1301C22.9507 42.861 21.9745 41.7384 20.7543 41.592C19.3388 41.3967 18.0209 42.1777 17.9721 43.4956C17.7768 44.9111 16.8494 45.5944 15.922 46.5218Z" fill="#F9FBFD"/>
<path d="M50.4316 44.0821C50.4316 40.5678 50.4805 37.0534 50.4316 33.5391C50.4316 32.5141 50.7245 32.1724 51.7495 32.2212C55.1174 32.3676 58.4854 31.8795 61.8045 32.7093C67.9546 34.1736 71.3225 38.6154 71.0785 44.7655C70.8832 50.2323 66.832 54.6252 61.0235 55.6502C57.802 56.236 54.5317 55.7967 51.2614 55.9431C50.2852 55.9919 50.4804 55.3086 50.4804 54.7716C50.4316 51.2085 50.4316 47.6453 50.4316 44.0821ZM55.2639 44.0821C55.2639 45.4 55.2639 46.7179 55.2639 48.0358C55.2639 51.599 55.2639 51.599 58.827 51.5501C62.7807 51.4525 65.7581 48.6703 66.0998 44.7655C66.4415 40.6166 64.0986 37.5903 60.0473 36.8582C58.7782 36.6141 57.5092 36.7118 56.2889 36.6629C55.5079 36.6141 55.3127 36.9558 55.3127 37.688C55.3127 39.8356 55.2639 41.9345 55.2639 44.0821Z" fill="#FBFCFE"/>
<path d="M188.662 39.7364C188.662 36.5149 188.711 33.5374 188.613 30.6088C188.564 29.4374 188.857 28.998 190.126 28.998C193.543 29.0469 193.543 28.998 193.543 32.4148C193.543 39.7852 193.543 47.1067 193.592 54.4771C193.592 55.5998 193.348 56.0879 192.176 55.9414C191.786 55.8926 191.395 55.8926 191.005 55.9414C189.736 56.0879 188.711 55.9414 189.15 53.745C186.856 56.1855 184.367 56.7712 181.682 56.1367C179.779 55.6974 178.021 54.8188 176.801 53.1592C174.019 49.4496 174.116 43.7876 177.094 40.615C179.534 37.9792 184.464 36.3684 188.662 39.7364ZM188.808 47.1556C188.808 44.2757 187.002 42.2257 184.416 42.1769C181.731 42.1281 179.779 44.2269 179.779 47.0579C179.779 49.8889 181.633 51.8902 184.269 51.939C186.905 51.9878 188.808 49.9866 188.808 47.1556Z" fill="#F8FAFD"/>
<path d="M155.862 55.9428C154.056 55.9428 152.592 55.894 151.127 55.9428C150.395 55.9916 150.102 55.5523 149.761 55.0642C148.199 52.9165 146.588 50.7201 145.026 48.5724C144.44 47.7426 141.951 47.2057 141.072 47.6938C140.633 47.9379 140.731 48.3772 140.731 48.7188C140.731 50.7689 140.682 52.8189 140.731 54.869C140.731 55.6499 140.535 55.9428 139.657 55.9428C135.898 56.0404 135.898 56.0892 135.898 52.282C135.898 46.0343 135.898 39.7865 135.898 33.5388C135.898 32.5626 136.094 32.1233 137.168 32.2209C140.389 32.4161 143.611 31.928 146.783 32.465C150.102 33.0507 152.445 35.1983 153.08 38.371C153.714 41.5925 152.689 44.2771 149.907 46.0831C149.077 46.62 149.37 46.9617 149.761 47.4986C151.762 50.2808 153.714 52.9654 155.862 55.9428ZM143.318 43.3497C143.952 43.3497 144.587 43.3497 145.221 43.3497C146.832 43.3009 148.101 42.1294 148.296 40.5675C148.54 38.6639 147.662 37.0531 146.002 36.7115C144.343 36.3698 142.439 36.0769 141.024 36.8091C140.096 37.2484 140.828 39.2496 140.731 40.5187C140.731 40.5675 140.731 40.6163 140.731 40.6651C140.731 43.3497 140.731 43.3497 143.318 43.3497Z" fill="#FAFCFE"/>
<path d="M96.9476 40.1778C101.048 36.9075 105.245 37.0539 108.711 40.3731C111.835 43.3505 112.176 49.2566 109.443 52.8685C106.514 56.7246 102.317 57.3103 97.3869 54.4793C97.3869 56.8222 97.3381 59.0187 97.3869 61.2151C97.3869 62.0449 97.2404 62.3866 96.2642 62.4354C92.457 62.4842 92.457 62.533 92.457 58.677C92.457 52.3316 92.5058 45.9862 92.4082 39.6897C92.4082 38.5182 92.7011 38.0789 93.8725 38.2254C94.263 38.2742 94.6535 38.2742 95.044 38.2254C96.3619 38.0301 97.3381 38.2742 96.9476 40.1778ZM97.2893 46.9625C97.2404 49.9399 98.9488 51.8923 101.585 51.9411C104.318 51.9899 106.222 49.9887 106.319 47.1089C106.368 44.3755 104.416 42.2278 101.829 42.179C99.1929 42.1302 97.3381 44.0827 97.2893 46.9625Z" fill="#F7F9FD"/>
<path d="M118.961 54.5261C118.961 56.7714 118.912 58.9679 118.961 61.1156C119.01 62.1406 118.668 62.4334 117.643 62.4334C114.031 62.4334 114.031 62.4823 114.031 58.7727C114.031 52.4761 114.08 46.1795 113.982 39.9318C113.982 38.4675 114.422 38.0282 115.788 38.2234C116.032 38.2722 116.277 38.2722 116.521 38.2234C117.838 38.0282 118.863 38.2723 118.473 40.3711C120.523 38.2234 122.72 37.4913 125.306 37.9306C127.454 38.2723 129.26 39.2485 130.676 40.8592C133.507 44.0807 133.604 49.5963 130.871 53.013C127.991 56.6738 124.135 57.2107 118.961 54.5261ZM118.863 46.8629C118.863 49.8891 120.621 51.8904 123.305 51.9392C125.99 51.9392 127.942 49.938 127.942 47.0093C127.942 44.2271 126.039 42.1771 123.403 42.1771C120.816 42.1771 118.863 44.1783 118.863 46.8629Z" fill="#F8FAFD"/>
<path d="M84.4517 54.1844C82.3041 55.9904 80.3516 56.5273 78.1552 56.2833C74.8849 55.9416 72.786 53.9404 72.8348 51.0606C72.8348 48.2784 75.0313 46.2283 78.204 46.0331C79.7659 45.9355 81.3278 45.9355 82.8898 45.9843C83.7196 45.9843 84.0124 45.7402 83.9636 44.9104C83.866 43.2509 82.5481 41.933 80.9374 42.0306C79.3754 42.1282 77.8135 42.4699 76.7397 43.739C76.1539 44.4223 75.8123 44.2271 75.2753 43.6414C73.2741 41.3961 73.2741 41.0056 75.8611 39.3949C78.6433 37.6865 81.7183 37.1984 84.7446 38.5163C87.3315 39.6389 88.6982 41.7866 88.747 44.6176C88.7959 47.9855 88.747 51.3534 88.7958 54.7214C88.7958 55.7952 88.4542 56.0881 87.478 55.9904C86.8922 55.9416 86.3065 55.9416 85.7208 55.9904C84.7934 55.9904 83.8172 56.088 84.4517 54.1844ZM80.3028 52.7689C82.0112 52.7689 83.4755 51.6951 83.8172 50.0844C83.9148 49.5963 84.0124 49.0593 83.2315 49.1081C81.8159 49.157 80.4004 49.1081 79.0337 49.2546C78.3504 49.3034 77.8135 49.7915 77.7159 50.6213C77.6182 51.4999 77.9111 52.1344 78.7409 52.5249C79.2778 52.7201 79.7659 52.7689 80.3028 52.7689Z" fill="#F6F9FC"/>
<path d="M167.723 54.2353C165.722 55.8949 163.818 56.4806 161.622 56.2853C158.205 55.9437 156.155 53.9913 156.204 51.0138C156.253 48.1828 158.4 46.1816 161.768 45.9863C163.281 45.8887 164.795 45.8887 166.308 45.9375C167.284 45.9863 167.43 45.547 167.333 44.7173C167.138 43.0089 165.82 41.8374 164.16 41.9839C162.549 42.0815 161.085 42.5208 160.011 43.7899C159.523 44.3756 159.181 44.3756 158.791 43.7411C158.693 43.6434 158.596 43.497 158.498 43.3994C156.594 41.2029 156.594 40.9589 159.181 39.3969C162.305 37.4933 165.673 36.9564 168.992 38.9088C171.53 40.3731 172.263 42.8625 172.263 45.6447C172.263 48.7197 172.214 51.7948 172.263 54.8698C172.263 55.7484 171.97 55.9925 171.14 55.8949C170.457 55.8461 169.773 55.8461 169.09 55.8949C168.016 56.0413 167.333 55.8461 167.723 54.2353ZM163.623 52.771C165.136 52.8198 166.21 52.0876 166.893 50.7698C167.577 49.4031 167.382 49.0614 165.868 49.0614C164.746 49.0614 163.623 49.0614 162.549 49.2078C161.72 49.3054 161.134 49.7936 161.085 50.721C161.036 51.5995 161.476 52.1853 162.256 52.5269C162.647 52.771 163.135 52.7222 163.623 52.771Z" fill="#F6F9FC"/>
<path d="M207.894 54.4301C205.942 55.8944 203.989 56.529 201.744 56.2849C198.425 55.9432 196.326 53.9908 196.326 51.111C196.326 48.3288 198.571 46.2299 201.842 46.0347C203.355 45.9371 204.868 45.9371 206.381 45.9859C207.309 46.0347 207.553 45.693 207.455 44.8144C207.26 43.1549 206.088 41.9346 204.478 42.0323C202.867 42.1299 201.256 42.5204 200.133 43.7894C199.548 44.4728 199.206 44.2775 198.815 43.6918C198.718 43.5454 198.571 43.3989 198.425 43.2525C196.814 41.3489 196.863 41.056 199.06 39.5917C203.111 36.8583 208.138 37.2488 210.823 40.5679C211.75 41.6906 212.238 43.0085 212.287 44.4728C212.336 47.9871 212.287 51.5015 212.336 55.0158C212.336 55.8456 212.043 56.1385 211.262 56.0409C210.579 55.992 209.895 55.992 209.212 56.0409C208.187 56.0409 207.553 55.8456 207.894 54.4301ZM205.112 49.061C204.331 49.061 203.55 49.1098 202.818 49.2074C201.988 49.305 201.354 49.7931 201.256 50.6717C201.158 51.5991 201.695 52.2336 202.525 52.5753C203.843 53.161 205.698 52.6729 206.625 51.5503C207.113 50.9646 207.65 50.2324 207.357 49.4514C207.064 48.6217 206.186 49.2074 205.551 49.061C205.405 49.061 205.258 49.061 205.112 49.061Z" fill="#F8FAFD"/>
<path d="M220.585 40.0305C222.147 38.4685 223.904 37.834 226.003 38.0781C226.443 38.1269 226.931 38.0781 226.979 38.7126C227.028 39.7864 226.979 40.8603 226.979 41.9341C226.979 42.6662 226.394 42.5198 226.003 42.471C222.831 42.1781 220.634 44.277 220.829 47.9866C220.976 50.3295 220.829 52.6724 220.878 55.0153C220.878 55.7963 220.634 55.9915 219.902 55.9915C216.095 56.1379 216.095 56.1379 216.095 52.4283C216.095 48.133 216.144 43.8377 216.095 39.5912C216.095 38.615 216.29 38.1269 217.364 38.2733C217.803 38.3221 218.242 38.3221 218.682 38.2733C219.902 38.0781 220.927 38.2245 220.585 40.0305Z" fill="#FBFCFE"/>
</g>
<defs>
<clipPath id="clip0_2838_14383">
<rect width="227" height="88" fill="white"/>
</clipPath>
</defs>
</svg>
