<svg width="227" height="88" viewBox="0 0 227 88" fill="none" xmlns="http://www.w3.org/2000/svg">
<g clip-path="url(#clip0_2807_14546)">
<path d="M4.08002 32.3789C8.07839 27.9052 15.2824 23.996 26.8331 23.0993C50.3725 21.2237 58.7048 32.2645 58.7048 32.2645C58.7048 32.2645 50.7422 23.4224 28.4042 25.1868C16.7849 26.1136 8.23621 32.113 9.04488 40.851C9.77072 48.6942 17.5488 54.0673 30.9763 52.9791C35.9381 52.3714 36.0864 47.4286 30.4966 47.7975C29.8961 47.853 29.3275 47.87 28.7922 47.8602C23.2629 47.9205 16.4948 45.8864 15.9389 39.8805C15.1025 32.5109 25.4853 29.7743 31.075 29.4055C48.5848 28.0878 59.126 36.4953 60.3467 46.4126C60.9602 53.0428 54.1963 64.1445 33.8325 65.8747C10.2931 67.7503 1.96092 56.7095 1.96092 56.7095C1.96092 56.7095 9.9234 65.5516 32.2614 63.7871C43.8808 62.8603 52.4809 56.9037 51.6723 48.1657C50.9464 40.3225 43.1684 34.9494 29.7409 36.0376C24.4792 36.679 24.2966 41.5715 29.8864 41.2027C30.487 41.1471 31.0555 41.1302 31.5909 41.14C37.12 41.0795 43.8883 43.1136 44.4442 49.1197C45.2805 56.4893 34.8705 58.9314 29.308 59.5947C11.6593 61.0795 1.25704 52.5048 0.0363577 42.5874C-0.231758 39.6904 0.969817 35.8617 4.08002 32.3789Z" fill="white"/>
<path d="M106.958 57.0537H107.548V55.2092H108.818C109.93 55.2092 110.871 54.6266 110.871 53.4991C110.871 52.4534 110.095 51.8262 108.915 51.8262H106.958V57.0537ZM107.548 54.6715V52.3713H108.87C109.714 52.3713 110.274 52.7597 110.274 53.5065C110.274 54.2084 109.706 54.6715 108.84 54.6715H107.548Z" fill="white"/>
<path d="M117.81 57.0537H118.399V55.0224H119.893L121.409 57.0537H122.134L120.528 54.9178C121.349 54.7686 121.947 54.2607 121.947 53.3945C121.947 52.9688 121.797 52.6028 121.544 52.349C121.215 52.0204 120.7 51.8262 120.057 51.8262H117.81V57.0537ZM118.399 54.4923V52.3713H120.013C120.856 52.3713 121.349 52.7597 121.349 53.4019C121.349 54.0889 120.789 54.4923 120.005 54.4923H118.399Z" fill="white"/>
<path d="M131.495 57.1432C133.086 57.1432 134.169 55.8811 134.169 54.4398C134.169 52.9835 133.101 51.7363 131.51 51.7363C129.92 51.7363 128.837 52.9984 128.837 54.4398C128.837 55.896 129.905 57.1432 131.495 57.1432ZM131.51 56.598C130.316 56.598 129.449 55.6271 129.449 54.4398C129.449 53.2375 130.301 52.2815 131.495 52.2815C132.69 52.2815 133.557 53.2524 133.557 54.4398C133.557 55.6422 132.705 56.598 131.51 56.598Z" fill="white"/>
<path d="M142.3 57.0537H142.897V52.3713H144.653V51.8262H140.545V52.3713H142.3V57.0537Z" fill="white"/>
<path d="M153.693 57.1432C155.284 57.1432 156.367 55.8811 156.367 54.4398C156.367 52.9835 155.299 51.7363 153.708 51.7363C152.117 51.7363 151.034 52.9984 151.034 54.4398C151.034 55.896 152.102 57.1432 153.693 57.1432ZM153.708 56.598C152.513 56.598 151.646 55.6271 151.646 54.4398C151.646 53.2375 152.498 52.2815 153.693 52.2815C154.888 52.2815 155.755 53.2524 155.755 54.4398C155.755 55.6422 154.903 56.598 153.708 56.598Z" fill="white"/>
<path d="M165.862 57.1432C166.811 57.1432 167.408 56.8071 167.953 56.2545L167.564 55.8437C167.064 56.3217 166.595 56.598 165.877 56.598C164.727 56.598 163.854 55.6496 163.854 54.4398C163.854 53.2226 164.719 52.2815 165.877 52.2815C166.587 52.2815 167.079 52.5803 167.52 52.9984L167.908 52.5803C167.386 52.0874 166.833 51.7363 165.884 51.7363C164.345 51.7363 163.24 52.9612 163.24 54.4398C163.24 55.9557 164.354 57.1432 165.862 57.1432Z" fill="white"/>
<path d="M177.131 57.1432C178.72 57.1432 179.803 55.8811 179.803 54.4398C179.803 52.9835 178.735 51.7363 177.145 51.7363C175.555 51.7363 174.472 52.9984 174.472 54.4398C174.472 55.896 175.54 57.1432 177.131 57.1432ZM177.145 56.598C175.949 56.598 175.084 55.6271 175.084 54.4398C175.084 53.2375 175.934 52.2815 177.131 52.2815C178.325 52.2815 179.191 53.2524 179.191 54.4398C179.191 55.6422 178.34 56.598 177.145 56.598Z" fill="white"/>
<path d="M186.909 57.0537H190.442V56.5085H187.501V51.8262H186.909V57.0537Z" fill="white"/>
<path d="M71.9879 34.9587V39.9914H82.5897C83.0571 39.9914 83.4422 39.9089 83.7447 39.744C84.0472 39.5651 84.2809 39.3521 84.446 39.1045C84.6247 38.8569 84.7416 38.5888 84.7966 38.3C84.8654 37.9976 84.8997 37.7225 84.8997 37.4751C84.8997 37.2276 84.8654 36.9594 84.7966 36.6706C84.7416 36.3681 84.6247 36.0931 84.446 35.8456C84.2809 35.5982 84.0472 35.3919 83.7447 35.2268C83.4422 35.0481 83.0571 34.9587 82.5897 34.9587H71.9879ZM86.8179 37.4751C86.8179 37.9838 86.7355 38.4995 86.5705 39.022C86.4055 39.5445 86.1647 40.0189 85.8485 40.4452C85.546 40.8714 85.1748 41.229 84.7348 41.5177C84.2948 41.7928 83.7928 41.944 83.229 41.9716H70.9979C70.7228 41.9716 70.4891 41.8752 70.2966 41.6827C70.104 41.4903 70.0078 41.2564 70.0078 40.9815V33.9686C70.0078 33.6936 70.104 33.4598 70.2966 33.2673C70.4891 33.0749 70.7228 32.9785 70.9979 32.9785H83.0227C83.6141 32.9785 84.1435 33.1161 84.611 33.3911C85.0786 33.6661 85.4773 34.0236 85.8073 34.4637C86.1373 34.8899 86.3849 35.3711 86.5498 35.9075C86.7285 36.4301 86.8179 36.9526 86.8179 37.4751Z" fill="white"/>
<path d="M108.888 36.485C109.163 36.485 109.397 36.5812 109.589 36.7737C109.782 36.9663 109.878 37.2 109.878 37.4751C109.878 37.7501 109.782 37.9838 109.589 38.1764C109.397 38.3688 109.163 38.4651 108.888 38.4651H98.6164C98.3414 38.4651 98.1077 38.3688 97.9151 38.1764C97.7227 37.9838 97.6264 37.7501 97.6264 37.4751C97.6264 37.2 97.7227 36.9663 97.9151 36.7737C98.1077 36.5812 98.3414 36.485 98.6164 36.485H108.888ZM98.3895 34.9587C97.9082 34.9587 97.5164 35.0481 97.2138 35.2268C96.9252 35.3919 96.6913 35.5982 96.5126 35.8456C96.3475 36.0931 96.2307 36.3681 96.1619 36.6706C96.107 36.9594 96.0794 37.2276 96.0794 37.4751C96.0794 37.7225 96.107 37.9976 96.1619 38.3C96.2307 38.5888 96.3475 38.8569 96.5126 39.1045C96.6913 39.3521 96.9252 39.5651 97.2138 39.744C97.5164 39.9089 97.9082 39.9914 98.3895 39.9914H109.754C110.029 39.9914 110.263 40.0876 110.456 40.2802C110.648 40.4726 110.745 40.7065 110.745 40.9815C110.745 41.2564 110.648 41.4903 110.456 41.6827C110.263 41.8752 110.029 41.9716 109.754 41.9716H97.7295C97.1657 41.9716 96.6639 41.8341 96.2239 41.559C95.7837 41.284 95.4057 40.9334 95.0895 40.5071C94.7869 40.067 94.5531 39.5789 94.388 39.0427C94.2231 38.5063 94.1406 37.9838 94.1406 37.4751C94.1406 36.9526 94.2231 36.4301 94.388 35.9075C94.5669 35.3711 94.8212 34.8899 95.1513 34.4637C95.4814 34.0236 95.8801 33.6661 96.3475 33.3911C96.8151 33.1161 97.3445 32.9785 97.9358 32.9785H109.754C110.029 32.9785 110.263 33.0749 110.456 33.2673C110.648 33.4598 110.745 33.6936 110.745 33.9686C110.745 34.2436 110.648 34.4774 110.456 34.6699C110.263 34.8625 110.029 34.9587 109.754 34.9587H98.3895Z" fill="white"/>
<path d="M120.816 38.4651C120.43 38.4651 120.073 38.3964 119.743 38.2589C119.413 38.1076 119.124 37.9081 118.877 37.6607C118.629 37.4131 118.43 37.1245 118.279 36.7944C118.141 36.4643 118.072 36.1068 118.072 35.7218C118.072 35.3369 118.141 34.9793 118.279 34.6493C118.43 34.3192 118.629 34.0306 118.877 33.783C119.124 33.5355 119.413 33.343 119.743 33.2055C120.073 33.0542 120.43 32.9785 120.816 32.9785H133.335C133.611 32.9785 133.844 33.0749 134.037 33.2673C134.229 33.4598 134.326 33.6936 134.326 33.9686C134.326 34.2436 134.229 34.4774 134.037 34.6699C133.844 34.8625 133.611 34.9587 133.335 34.9587H120.774C120.568 34.9587 120.382 35.0344 120.217 35.1856C120.066 35.323 119.99 35.5018 119.99 35.7218C119.99 35.9281 120.066 36.1068 120.217 36.2582C120.382 36.4094 120.568 36.485 120.774 36.485H132.181C132.566 36.485 132.923 36.5607 133.253 36.7119C133.597 36.8494 133.892 37.042 134.14 37.2894C134.387 37.5369 134.58 37.8326 134.717 38.1764C134.869 38.5063 134.944 38.8638 134.944 39.2488C134.944 39.6339 134.869 39.9914 134.717 40.3215C134.58 40.6514 134.387 40.9402 134.14 41.1878C133.892 41.4352 133.597 41.6278 133.253 41.7653C132.923 41.9027 132.566 41.9716 132.181 41.9716H119.681C119.406 41.9716 119.172 41.8752 118.98 41.6827C118.787 41.4903 118.691 41.2564 118.691 40.9815C118.691 40.7065 118.787 40.4726 118.98 40.2802C119.172 40.0876 119.406 39.9914 119.681 39.9914H132.263C132.469 39.9914 132.648 39.9227 132.799 39.7852C132.95 39.6339 133.026 39.4551 133.026 39.2488C133.026 39.0288 132.95 38.8432 132.799 38.6919C132.648 38.5407 132.469 38.4651 132.263 38.4651H120.816Z" fill="white"/>
<path d="M142.267 33.9686C142.267 33.6936 142.363 33.4598 142.555 33.2673C142.748 33.0749 142.982 32.9785 143.257 32.9785H155.611C155.997 32.9785 156.355 33.0542 156.684 33.2055C157.028 33.343 157.324 33.5355 157.572 33.783C157.832 34.0306 158.032 34.3192 158.169 34.6493C158.321 34.9793 158.397 35.3369 158.397 35.7218C158.397 36.1068 158.321 36.4643 158.169 36.7944C158.032 37.1245 157.832 37.4131 157.572 37.6607C157.324 37.9081 157.028 38.1076 156.684 38.2589C156.355 38.3964 155.997 38.4651 155.611 38.4651H144.887C144.708 38.4926 144.556 38.5751 144.432 38.7126C144.309 38.8501 144.246 39.022 144.246 39.2283V40.9815C144.246 41.2564 144.143 41.4903 143.938 41.6827C143.744 41.8752 143.518 41.9716 143.257 41.9716C142.982 41.9716 142.748 41.8752 142.555 41.6827C142.363 41.4903 142.267 41.2564 142.267 40.9815V39.0014C142.267 38.6576 142.328 38.3344 142.452 38.0319C142.576 37.7157 142.748 37.4476 142.968 37.2276C143.202 36.9938 143.463 36.815 143.752 36.6913C144.054 36.5537 144.385 36.485 144.742 36.485H155.695C155.9 36.485 156.079 36.4162 156.231 36.2787C156.395 36.1275 156.478 35.9418 156.478 35.7218C156.478 35.5156 156.395 35.3369 156.231 35.1856C156.079 35.0344 155.9 34.9587 155.695 34.9587H143.257C142.982 34.9587 142.748 34.8625 142.555 34.6699C142.363 34.4774 142.267 34.2436 142.267 33.9686Z" fill="white"/>
<path d="M170.793 39.7443C170.793 39.3867 170.917 39.0841 171.164 38.8367C171.413 38.5892 171.715 38.4654 172.073 38.4654C172.43 38.4654 172.732 38.5892 172.98 38.8367C173.227 39.0841 173.351 39.3867 173.351 39.7443C173.351 40.1018 173.227 40.4043 172.98 40.6517C172.732 40.8993 172.43 41.0231 172.073 41.0231C171.715 41.0231 171.413 40.8993 171.164 40.6517C170.917 40.4043 170.793 40.1018 170.793 39.7443ZM166.441 41.6006C166.235 41.8481 165.98 41.9719 165.678 41.9719C165.402 41.9719 165.17 41.8755 164.976 41.6831C164.784 41.4906 164.688 41.2568 164.688 40.9818C164.688 40.7342 164.758 40.5349 164.895 40.3836L169.907 33.639C170.141 33.3226 170.449 33.0684 170.835 32.8758C171.219 32.6695 171.632 32.5664 172.073 32.5664C172.485 32.5664 172.877 32.6558 173.248 32.8345C173.619 33.0133 173.921 33.2608 174.155 33.5771L179.167 40.2805C179.251 40.3768 179.319 40.4868 179.374 40.6105C179.429 40.7205 179.456 40.8443 179.456 40.9818C179.456 41.2568 179.359 41.4906 179.167 41.6831C178.975 41.8755 178.741 41.9719 178.466 41.9719C178.136 41.9719 177.874 41.8413 177.682 41.58L172.877 35.1653C172.78 35.0553 172.656 34.9383 172.506 34.8147C172.368 34.6771 172.223 34.6084 172.073 34.6084C171.921 34.6084 171.77 34.6771 171.618 34.8147C171.481 34.9383 171.371 35.0553 171.289 35.1653L166.441 41.6006Z" fill="white"/>
<path d="M186.263 37.4751C186.263 36.9526 186.345 36.4301 186.51 35.9075C186.689 35.3711 186.943 34.8899 187.273 34.4637C187.603 34.0236 188.002 33.6661 188.47 33.3911C188.936 33.1161 189.467 32.9785 190.058 32.9785H202.083C202.357 32.9785 202.591 33.0749 202.785 33.2673C202.977 33.4598 203.072 33.6936 203.072 33.9686C203.072 34.2436 202.977 34.4774 202.785 34.6699C202.591 34.8625 202.357 34.9587 202.083 34.9587H190.491C190.009 34.9587 189.617 35.0481 189.315 35.2268C189.026 35.3919 188.793 35.5982 188.615 35.8456C188.449 36.0931 188.332 36.3681 188.263 36.6706C188.208 36.9594 188.181 37.2276 188.181 37.4751C188.181 37.7225 188.208 37.9976 188.263 38.3C188.332 38.5888 188.449 38.8569 188.615 39.1045C188.793 39.3521 189.026 39.5651 189.315 39.744C189.617 39.9089 190.009 39.9914 190.491 39.9914H202.083C202.357 39.9914 202.591 40.0876 202.785 40.2802C202.977 40.4726 203.072 40.7065 203.072 40.9815C203.072 41.2564 202.977 41.4903 202.785 41.6827C202.591 41.8752 202.357 41.9716 202.083 41.9716H189.851C189.288 41.9716 188.786 41.8341 188.345 41.559C187.906 41.284 187.527 40.9334 187.212 40.5071C186.909 40.067 186.675 39.5789 186.51 39.0427C186.345 38.5063 186.263 37.9838 186.263 37.4751Z" fill="white"/>
<path d="M210.396 33.9686C210.396 33.6936 210.492 33.4598 210.685 33.2673C210.878 33.0749 211.111 32.9785 211.386 32.9785H226.01C226.285 32.9785 226.519 33.0749 226.711 33.2673C226.903 33.4598 227 33.6936 227 33.9686C227 34.2436 226.903 34.4774 226.711 34.6699C226.519 34.8625 226.285 34.9587 226.01 34.9587H211.386C211.111 34.9587 210.878 34.8625 210.685 34.6699C210.492 34.4774 210.396 34.2436 210.396 33.9686ZM212.912 41.9716C212.61 41.9716 212.308 41.9096 212.005 41.7858C211.703 41.6483 211.435 41.4627 211.201 41.229C210.967 40.9952 210.775 40.7134 210.623 40.3833C210.472 40.0533 210.396 39.682 210.396 39.2695V37.4131C210.396 37.042 210.499 36.7944 210.705 36.6706C210.925 36.5468 211.262 36.485 211.716 36.485H225.557C225.831 36.485 226.065 36.5812 226.257 36.7737C226.451 36.9663 226.546 37.2 226.546 37.4751C226.546 37.7501 226.451 37.9838 226.257 38.1764C226.065 38.3688 225.831 38.4651 225.557 38.4651H212.376V39.4757C212.376 39.6133 212.431 39.737 212.541 39.847C212.665 39.9433 212.823 39.9914 213.015 39.9914H226.01C226.285 39.9914 226.519 40.0876 226.711 40.2802C226.903 40.4726 227 40.7065 227 40.9815C227 41.2564 226.903 41.4903 226.711 41.6827C226.519 41.8752 226.285 41.9716 226.01 41.9716H212.912Z" fill="white"/>
</g>
<defs>
<clipPath id="clip0_2807_14546">
<rect width="227" height="88" fill="white"/>
</clipPath>
</defs>
</svg>
