<svg width="227" height="89" viewBox="0 0 227 89" fill="none" xmlns="http://www.w3.org/2000/svg">
<path d="M89.9712 60.7264C87.1471 60.7264 84.3831 60.7264 81.5589 60.7264C80.5373 60.7264 79.636 60.9672 80.1769 59.2209C83.4817 47.2378 86.6665 35.2547 89.851 23.2716C90.0314 22.4888 90.2117 22.007 91.113 22.007C96.5209 22.1275 101.929 21.4651 107.277 22.3683C120.737 24.5963 123.26 36.3386 119.535 46.0334C115.809 55.7284 107.938 59.7628 98.0832 60.6058C95.3793 60.8468 92.6753 60.6661 89.9712 60.6661C89.9712 60.6661 89.9712 60.6661 89.9712 60.7264ZM90.5121 52.597C94.0573 53.1992 98.7442 52.9583 101.628 52.055C104.633 51.0916 107.277 49.5259 109.2 46.9366C113.226 41.6978 113.887 32.2438 105.474 30.0761C102.89 29.4137 100.307 29.7749 97.7228 29.6545C96.5209 29.5943 96.5209 30.4975 96.3407 31.2202C94.3578 38.3859 92.4348 45.4915 90.5121 52.597Z" fill="white"/>
<path d="M157.871 50.1284C160.875 44.6487 164 39.1689 166.884 33.6291C167.965 31.5214 169.228 30.7386 171.511 30.9796C173.313 31.1602 175.115 31.0398 176.979 31.0398C176.979 31.401 177.159 31.7624 177.039 31.943C170.549 42.6013 164.24 53.3801 157.57 63.8578C153.544 70.2408 147.656 70.8429 141.887 68.916C140.325 68.374 139.784 67.5913 141.106 66.146C141.767 65.4234 142.428 64.6406 142.909 63.7373C143.69 62.2921 144.531 61.69 146.394 62.3523C149.458 63.4363 151.021 62.1717 150.66 59.0405C149.759 50.9714 148.797 42.9627 147.776 34.8936C147.295 30.9796 147.175 30.9796 151.141 30.9796C155.828 30.9796 155.888 30.9796 156.308 35.7366C156.729 40.4938 157.029 45.2508 157.33 50.008C157.51 50.008 157.69 50.0682 157.871 50.1284Z" fill="white"/>
<path d="M192.241 60.425C193.683 55.0658 195.066 49.7065 196.508 44.287C197.109 42.059 197.469 39.831 194.946 38.5063C192.783 37.4223 189.598 38.4461 188.035 40.6138C186.112 43.2633 185.933 46.5752 184.971 49.5861C184.069 52.4163 183.167 55.3066 182.687 58.2573C182.326 60.425 181.306 60.7864 179.443 60.666C177.579 60.5454 175.657 60.666 173.494 60.666C176.017 51.1516 178.421 41.8784 180.884 32.605C181.186 31.4006 181.786 30.678 183.167 30.9792C185.452 31.4608 187.975 29.8953 190.079 31.9426C190.258 32.1232 191.099 31.521 191.641 31.2802C194.225 30.1361 196.929 30.0759 199.632 30.6178C204.379 31.521 206.903 36.0976 205.702 41.6374C204.8 45.6118 203.658 49.5861 202.637 53.5001C202.576 53.6807 202.456 53.8615 202.397 54.0421C200.414 61.5692 200.414 61.5692 192.241 60.425Z" fill="white"/>
<path d="M126.986 60.727C121.878 60.727 121.878 60.727 123.14 56.3914C124.642 51.0322 126.085 45.6728 127.527 40.3135C127.707 39.6511 128.548 38.2662 126.866 38.3867C123.801 38.6275 124.823 36.9414 125.303 35.4962C125.964 33.4489 125.544 30.3778 129.329 30.98C130.471 31.1606 130.231 29.7757 130.411 29.1735C132.454 21.2249 139.424 18.5151 146.635 20.2614C148.257 20.6227 148.377 21.1647 147.897 22.4292C147.596 23.1518 147.356 23.9347 147.296 24.7175C147.055 27.066 146.214 28.21 143.63 27.066C142.669 26.6444 141.467 27.0056 140.506 27.668C139.484 28.3907 138.463 29.3541 138.763 30.5585C139.064 31.7628 140.506 31.0402 141.407 31.1004C145.613 31.2208 145.493 31.1004 144.652 35.1951C144.111 37.7844 142.969 39.0491 140.265 38.4469C137.441 37.8447 136.3 39.1093 135.699 41.8792C134.557 46.9374 132.995 51.8752 131.793 56.8731C131.012 59.6431 130.171 61.8711 126.986 60.727Z" fill="white"/>
<path d="M50.9139 60.3043C45.9867 66.326 39.8576 71.1434 34.2093 76.5628C34.8102 71.6852 35.8918 66.9282 37.5743 62.3516C37.9949 63.7367 36.6129 65.6636 38.7159 66.5066C40.8792 67.4098 40.9393 64.9409 42.141 64.2185C42.2011 64.1581 42.3212 64.1581 42.4415 64.1581C43.9436 65.7238 44.9651 65.4829 46.1069 63.0743C48.3901 58.1365 48.7508 52.9578 46.888 47.8394C45.2656 43.4436 42.8621 39.8307 38.115 37.7232C34.0291 35.9165 29.7628 36.2177 25.6768 35.2543C26.2175 34.1703 26.8184 33.0262 27.4794 31.7617C28.6211 32.8456 29.8229 33.9896 31.0847 33.809C35.4111 33.267 38.8361 35.4951 42.5617 36.8801C43.2828 37.121 44.1239 37.6628 44.4244 38.265C47.1284 43.6243 52.1758 48.0202 51.0942 54.8849C50.7937 56.6914 50.9739 58.4978 50.9139 60.3043Z" fill="white"/>
<path d="M50.9137 60.3044C50.9137 58.4978 50.7334 56.6913 51.0338 54.9451C52.1155 48.0202 47.0681 43.6244 44.3641 38.3253C44.0636 37.7231 43.2224 37.1813 42.5013 36.9403C38.7758 35.5554 35.2907 33.3273 31.0244 33.8693C29.7025 34.05 28.5007 32.9059 27.4191 31.8219C26.7582 33.1467 26.2174 34.2306 25.6165 35.3144C25.4362 35.3144 25.2559 35.3144 25.0757 35.3144C24.9555 32.9059 25.9169 30.738 26.7582 28.5703C26.6981 30.1358 27.5393 30.5574 28.9814 30.5574C32.8872 30.4972 36.7329 30.5574 40.6386 30.5574C40.8188 30.5574 41.0592 30.5574 41.2395 30.5574C41.2395 31.5209 41.0592 32.6047 42.261 33.1467C45.1453 34.6522 47.669 36.3984 48.9909 39.5898C49.2913 40.3124 50.1926 40.1318 50.9137 40.1318C51.6948 43.2631 52.9568 46.2739 54.0383 49.2848C54.9997 52.0547 55.4203 54.102 53.4374 56.3903C53.0169 56.8721 52.9568 57.6549 52.7764 58.3172C52.4159 59.2806 51.815 59.8829 50.9137 60.3044Z" fill="white"/>
<path d="M25.0759 35.3145C25.2562 35.3145 25.4365 35.3145 25.6167 35.3145C29.7027 36.2779 33.969 35.9167 38.1151 37.7834C42.8621 39.8909 45.2656 43.5038 46.888 47.8998C48.7507 53.018 48.3903 58.1968 46.1069 63.1344C44.9652 65.5431 44.0038 65.784 42.4415 64.2184C43.1025 64.1582 43.463 63.7969 43.6432 63.1344C44.3042 60.9667 44.6647 58.7386 45.0253 56.5107C46.2871 48.1406 39.8577 40.1317 31.6256 40.1317C30.3036 39.4092 29.2821 41.5769 27.9001 40.5533C25.5566 38.8672 24.5351 39.7102 24.415 42.42C24.3549 43.5038 23.9343 44.2867 22.6123 43.6846C23.093 40.7941 23.6939 37.964 25.0759 35.3145Z" fill="white"/>
<path d="M58.1251 19.478C60.6488 22.7898 60.5888 26.6438 60.3483 30.4976C60.1681 30.4374 59.8677 30.4374 59.8076 30.3169C58.8462 28.8115 58.1852 26.2222 56.5027 30.0159C56.0221 31.0396 54.7602 30.618 54.5199 29.2331C54.3995 28.3901 54.7602 27.3062 53.4984 27.005C50.9146 26.3426 48.6312 24.6565 46.7082 23.1512C43.2832 20.3812 39.6178 19.5984 35.4717 19.7188C30.845 19.8393 30.4844 19.4177 30.3643 14.8413C30.5445 13.9983 29.8835 12.6133 31.6261 12.6133C31.4458 14.2391 31.9866 15.0219 33.7292 14.9617C36.0126 14.8413 38.296 14.9015 40.5792 14.9617C41.2402 14.9617 42.0815 14.6606 42.5022 15.323C43.103 16.2865 40.9999 15.9252 41.5406 16.9489C44.3649 18.2736 47.4293 18.6349 50.7342 18.7554C49.7728 20.2608 48.0302 19.1167 47.4895 20.5619C50.6741 21.164 53.7988 22.6092 56.5628 24.8975C57.2238 25.4394 57.8247 25.9814 58.6059 25.3189C59.3869 24.6565 59.2668 23.9943 58.6059 23.2716C57.6444 22.0673 58.1852 20.7425 58.1251 19.478Z" fill="white"/>
<path d="M41.2401 30.4979C41.0599 30.4979 40.8196 30.4979 40.6393 30.4979C40.6393 29.5946 40.2187 28.872 39.4976 28.571C35.3515 26.7645 31.1453 25.8011 26.879 28.0892C26.6987 26.7043 27.3597 25.6203 27.8404 24.416C31.4457 24.7773 34.9909 24.717 38.5962 25.4397C43.2832 26.4031 45.867 30.2571 50.0732 31.5817C50.3135 31.6419 50.5539 31.9431 50.674 32.2442C51.8759 34.6528 54.4597 35.5561 56.3224 37.1819C56.5026 38.025 56.7429 38.8078 56.9233 39.6508C57.3439 39.8917 57.7043 40.0723 58.125 40.3133C57.9448 42.3606 58.125 44.2875 59.3267 46.0337C60.4084 47.5994 60.7088 49.2855 60.4685 51.1521C59.6273 52.2964 58.7259 53.3802 57.464 54.1028C57.1035 49.7069 55.8416 45.6123 53.4983 41.8186C52.7171 40.5541 52.1162 40.1325 50.8542 40.1927C50.8542 35.3153 46.0473 30.4979 41.2401 30.4979Z" fill="white"/>
<path d="M31.6253 40.1328C39.8575 40.1328 46.2268 48.1416 45.0251 56.5117C44.6645 58.8 44.3641 60.9677 43.643 63.1356C43.4027 63.798 43.1022 64.1592 42.4413 64.2194C42.3212 64.2194 42.2609 64.2194 42.1408 64.2796C40.9391 65.0023 40.879 67.4712 38.7157 66.5679C36.6127 65.7249 38.0549 63.7378 37.5741 62.4129C38.4153 58.6796 39.2566 54.946 40.218 51.2127C40.6385 49.647 39.6171 49.8878 38.7758 49.7072C39.4368 45.6125 36.6127 44.047 33.6684 42.6017C32.5868 42.0597 31.4451 41.6985 31.6253 40.1328Z" fill="white"/>
<path d="M58.1241 19.4779C58.1842 20.7425 57.5834 22.1274 58.6049 23.2114C59.2659 23.934 59.386 24.6566 58.6049 25.2587C57.8237 25.9211 57.2228 25.3791 56.5618 24.8372C53.7977 22.549 50.6732 21.1038 47.4885 20.5016C48.0292 19.0564 49.7718 20.2005 50.7333 18.6951C47.4284 18.5747 44.3639 18.2134 41.5397 16.8886C40.9989 15.8649 43.1021 16.2262 42.5011 15.2628C42.0804 14.6004 41.2394 14.9015 40.5783 14.9015C38.2949 14.8413 36.0115 14.781 33.7282 14.9015C31.9256 14.9617 31.3848 14.1788 31.6251 12.553C36.0716 12.4928 40.6384 11.9508 44.9648 12.553C50.0122 13.2756 55.4201 14.0584 58.1241 19.4779Z" fill="white"/>
<path d="M31.6254 40.1327C31.4452 41.6984 32.5868 42.0598 33.7285 42.6016C36.6729 43.9867 39.497 45.6125 38.8361 49.7073C32.8873 49.7073 26.8784 49.7675 20.9297 49.7675C21.17 48.5631 21.3503 47.419 21.5906 46.2146C22.3718 45.5523 21.7709 44.2877 22.6122 43.6855C23.9341 44.2877 24.3547 43.5049 24.4148 42.421C24.535 39.7715 25.5565 38.8683 27.8999 40.5543C29.282 41.578 30.3035 39.4103 31.6254 40.1327Z" fill="white"/>
<path d="M30.364 14.7812C30.4842 19.3577 30.8447 19.7792 35.4715 19.6588C39.6177 19.5986 43.2229 20.3212 46.7081 23.0911C48.6309 24.6567 50.9143 26.2826 53.4981 26.945C54.76 27.246 54.3393 28.3301 54.5195 29.1731C54.7599 30.6182 56.0819 31.0398 56.5026 29.9558C58.185 26.1622 58.8459 28.7515 59.8074 30.2569C59.8675 30.3774 60.1679 30.3774 60.3481 30.4376C60.2881 31.7624 60.1078 33.0269 59.3267 34.1107C58.0647 33.9301 57.464 35.3754 56.202 35.2549C54.0389 32.1236 51.395 29.4139 48.3305 27.1256C45.6866 25.1385 42.5019 24.2353 39.4374 23.3321C37.5746 22.79 36.7935 20.4416 34.5702 20.8029C32.5873 21.104 30.6644 20.6223 28.9219 19.5384C29.4026 17.9727 29.4627 16.2264 30.364 14.7812Z" fill="white"/>
<path d="M28.9811 19.5996C30.7236 20.6835 32.5864 21.1653 34.6294 20.8642C36.8527 20.5029 37.6338 22.8514 39.4966 23.3932C42.5611 24.2965 45.7457 25.1997 48.3897 27.1869C51.4542 29.4751 54.098 32.1246 56.2613 35.3161C56.2613 35.9183 56.2613 36.5205 56.2613 37.1226C54.3986 35.4967 51.8146 34.5935 50.6129 32.1849C50.4928 31.944 50.2525 31.6429 50.012 31.5225C45.8659 30.1977 43.222 26.3439 38.5352 25.3805C34.8698 24.6578 31.3245 24.7783 27.7793 24.3567C28.1999 22.7912 28.6205 21.2255 28.9811 19.5996Z" fill="white"/>
<path d="M50.8535 40.1306C52.1153 40.0704 52.7162 40.4919 53.4974 41.7564C55.8409 45.55 57.1627 49.6448 57.4633 54.0406C56.0211 55.6664 54.8193 57.5332 52.7162 58.3159C52.9565 57.6537 52.9565 56.8708 53.3772 56.389C55.3601 54.1009 54.9396 52.0534 53.9782 49.2835C52.8965 46.2726 51.6347 43.2619 50.8535 40.1306Z" fill="white"/>
<path d="M26.8187 28.089C31.1451 25.8007 35.2912 26.7643 39.4373 28.5708C40.1584 28.8718 40.579 29.6546 40.579 30.4977C36.6733 30.4977 32.8276 30.4375 28.9218 30.4977C27.4196 30.4977 26.6384 30.0761 26.6985 28.5106C26.6985 28.39 26.7586 28.2094 26.8187 28.089Z" fill="white"/>
<path d="M60.4677 51.0929C60.6479 49.2261 60.4076 47.5402 59.326 45.9745C58.1242 44.2283 57.944 42.3012 58.1242 40.2539C59.7466 40.2539 61.3089 40.2539 62.9313 40.2539C62.2102 41.6991 64.6138 42.6626 63.4121 44.2283C62.4505 45.4927 62.8712 46.8176 63.5923 48.082C62.691 49.2261 61.6694 50.2499 60.4677 51.0929Z" fill="white"/>
<path d="M63.5322 48.0215C62.8712 46.757 62.3904 45.4322 63.3518 44.1677C64.5536 42.6021 62.1501 41.6386 62.8712 40.1934C65.515 40.1934 68.219 40.1934 71.8845 40.1934C68.7598 43.1439 66.176 45.6128 63.5322 48.0215Z" fill="white"/>
<path d="M56.2617 37.1213C56.2617 36.519 56.2617 35.917 56.2617 35.3148C57.4636 35.4352 58.1244 33.9297 59.3864 34.1707C59.2061 36.2782 58.2446 38.0245 56.9227 39.6504C56.6824 38.8073 56.442 37.9643 56.2617 37.1213Z" fill="white"/>
<path d="M41.2399 30.498C46.047 30.498 50.8541 35.3153 50.8541 40.1327C50.1331 40.1327 49.2317 40.2531 48.9312 39.5907C47.6694 36.3993 45.0856 34.653 42.2013 33.1476C41.0596 32.5454 41.2399 31.5217 41.2399 30.498Z" fill="white"/>
</svg>
