<svg width="227" height="89" viewBox="0 0 227 89" fill="none" xmlns="http://www.w3.org/2000/svg">
<path d="M0.955821 44.9226C2.72959 44.978 4.66965 44.5345 6.16627 45.1443C8.10632 45.9757 6.88686 48.2484 7.21944 49.8558C10.1018 62.2722 17.7512 69.9216 30.0567 72.9703C30.1676 72.9703 30.223 73.0257 30.3339 73.0811C31.9413 73.58 34.214 72.1942 35.0454 74.0789C35.7106 75.5201 35.2117 77.5155 35.2672 79.2893C33.6042 79.2893 31.9413 79.2893 30.2784 79.2893C29.2253 78.4579 27.8949 78.4579 26.6755 78.1807C17.3632 75.6863 10.3235 70.3096 5.44567 61.9396C3.22846 58.1704 2.50787 53.9577 0.900391 49.9667C0.955821 48.2484 0.955821 46.5855 0.955821 44.9226Z" fill="white"/>
<path d="M227 44.9227C221.125 44.9227 221.513 44.8672 220.238 38.9916C218.076 28.9587 211.979 21.9745 202.278 18.3716C199.95 17.4847 197.622 16.5978 195.073 16.7641C193.077 16.875 192.412 16.1544 192.578 14.2143C192.689 13.0503 192.578 11.8308 192.578 10.6113C193.853 10.6113 195.183 10.6113 196.458 10.6113C196.735 10.9993 197.179 11.1102 197.678 11.1656C209.595 13.1611 218.187 19.5356 223.619 30.3999C225.337 33.8366 225.615 37.6059 226.945 41.0425C227 42.3174 227 43.6478 227 44.9227Z" fill="white"/>
<path d="M63.0376 34.3361C63.0376 41.0431 63.0376 47.5839 63.0376 54.1801C63.0376 55.1224 63.5919 56.5082 62.3725 56.8962C60.8204 57.3396 59.1021 57.3396 57.4946 56.8408C56.8849 56.6745 56.9957 55.8984 57.0512 55.3441C58.1043 45.3113 57.2175 35.2784 57.55 25.2455C57.6055 24.0261 56.4969 22.1414 58.8804 21.698C62.6496 21.0328 64.368 21.698 65.4211 24.1369C68.7469 31.7309 72.0728 39.2694 75.454 46.8633C75.5649 47.085 75.842 47.2513 76.3409 47.6948C77.9484 44.2581 79.5558 40.9877 81.0525 37.6619C83.1588 32.9503 85.376 28.2942 87.3161 23.5272C88.4801 20.6448 90.8636 21.7534 92.7482 21.7534C94.91 21.7534 94.0786 23.638 94.0786 24.7466C94.134 33.5046 94.134 42.2626 94.134 51.0206C94.134 51.852 94.0786 52.6835 94.1894 53.5149C94.6883 57.2288 94.6883 57.1179 90.8636 57.1733C88.979 57.1733 88.5356 56.5082 88.5356 54.7344C88.591 48.0274 88.591 41.2649 88.591 34.3915C87.5378 34.6687 87.4269 35.5555 87.1498 36.2207C84.6 41.93 82.1056 47.6948 79.5558 53.4041C79.0015 54.6235 78.7244 56.1202 77.5049 56.9516C75.842 58.0048 73.4031 56.8962 72.5716 55.0116C69.8001 48.5817 67.0286 42.2072 64.2571 35.7773C63.9799 35.223 63.8691 34.6132 63.0376 34.3361Z" fill="white"/>
<path d="M40.0347 46.0309C36.8752 46.0309 33.7711 46.0864 30.6116 46.0309C28.6161 45.9755 28.5052 46.7515 29.2258 48.359C31.3322 52.9043 36.4318 53.8466 41.0879 50.4653C42.3074 49.5785 45.7995 50.6316 46.2429 52.0728C46.5755 53.1814 45.6332 53.7912 44.968 54.3455C37.0969 60.6091 26.2326 57.505 23.2948 48.1373C22.6851 46.0863 21.8536 45.9755 20.3016 46.0309C18.6941 46.1418 17.4746 46.0864 17.4746 43.8137C17.4746 41.5411 18.6941 41.4856 20.3016 41.5965C22.0199 41.7628 23.0176 41.2639 23.7937 39.4347C25.4566 35.7209 28.1172 32.6722 32.4962 32.2288C37.7067 31.7299 42.7508 32.0625 45.744 37.3838C46.0766 37.9935 46.5201 38.7141 46.6309 39.3793C46.9635 41.2639 48.0721 41.6519 49.7904 41.6519C50.6773 41.6519 52.4511 40.9313 52.2294 42.7605C52.0631 44.2017 51.8968 46.1972 49.4024 46.0864C46.2983 45.9201 43.1388 46.0309 40.0347 46.0309ZM34.7688 41.5965C36.21 41.5965 37.7067 41.6519 39.1478 41.5965C39.813 41.5965 40.7553 41.9291 41.1433 41.0976C41.5868 40.2107 40.9216 39.5456 40.4782 38.8804C38.8153 36.4415 36.3209 36.4969 33.8265 36.6632C31.5539 36.8295 30.279 38.3815 29.1704 40.0999C28.5607 41.0976 28.9487 41.5965 30.1127 41.5965C31.6648 41.5965 33.2168 41.5965 34.7688 41.5965Z" fill="white"/>
<path d="M161.038 46.0321C161.704 51.9077 167.801 54.5684 172.79 50.7991C175.506 48.7482 176.725 50.7437 178.166 51.7414C179.33 52.5174 178.056 53.7369 177.28 54.3466C173.122 57.6725 166.471 59.0582 161.038 55.6215C156.382 52.6837 154.387 48.3047 154.997 42.928C155.551 38.161 158.045 34.2809 162.812 32.7843C171.127 30.1236 179.663 34.2255 179.386 43.704C179.33 45.4778 178.887 46.143 177.002 46.0875C171.681 45.9767 166.36 46.0321 161.038 46.0321ZM167.468 41.5977C169.02 41.5977 170.572 41.5423 172.125 41.5977C173.677 41.6531 173.787 40.988 173.233 39.7685C171.958 37.1078 169.741 36.609 167.08 36.5535C164.42 36.5535 162.535 37.6621 161.371 40.0456C160.817 41.1542 161.482 41.5422 162.48 41.5422C164.143 41.5977 165.805 41.5977 167.468 41.5977Z" fill="white"/>
<path d="M111.206 32.1738C118.634 32.1738 124.066 37.1071 123.9 44.0359C123.734 52.7384 118.967 57.1174 110.985 57.5055C104.111 57.838 97.9032 51.7407 98.3466 44.0913C98.7901 36.9408 103.502 32.1738 111.206 32.1738ZM104.001 44.4794C103.945 48.8029 106.994 52.1287 110.985 52.1287C115.087 52.1287 118.468 48.8583 118.412 44.8674C118.357 40.4329 115.308 37.1626 111.151 37.1626C106.883 37.1626 104.056 40.1004 104.001 44.4794Z" fill="white"/>
<path d="M133.434 35.1115C136.095 32.728 138.589 32.0074 141.527 32.1183C147.236 32.34 151.061 35.8321 151.117 41.5969C151.172 46.0313 151.006 50.4657 151.172 54.8447C151.227 57.1173 150.008 57.1173 148.401 57.0619C146.848 57.0619 145.463 57.2282 145.574 54.9001C145.74 51.2417 145.574 47.5279 145.629 43.8141C145.629 41.2088 144.798 39.0471 142.414 37.883C140.197 36.7744 136.206 37.883 134.488 39.6568C133.601 40.5437 133.434 41.486 133.434 42.65C133.49 46.641 133.323 50.5765 133.49 54.5675C133.601 56.7847 132.658 57.1728 130.718 57.1173C128.944 57.0619 127.78 57.0065 127.836 54.6784C128.002 48.0268 127.891 41.3751 127.891 34.7789C127.891 33.504 127.67 32.0074 129.721 32.2291C131.328 32.3954 133.711 31.2314 133.434 35.1115Z" fill="white"/>
<path d="M192.634 48.9687C194.574 44.0354 196.514 39.7119 198.011 35.1666C198.898 32.4505 200.45 31.9516 202.944 32.1179C204.884 32.2288 205.106 33.0048 204.441 34.5568C202.113 40.0444 199.84 45.5875 197.567 51.0751C195.794 55.2878 193.964 59.5559 192.135 63.7686C191.415 65.4869 187.424 66.7618 186.038 65.7087C185.262 65.1544 185.816 64.4892 186.038 63.9903C186.869 61.8285 187.756 59.7222 188.754 57.6713C189.53 56.0084 189.419 54.5672 188.698 52.9043C185.927 46.5852 183.266 40.2107 180.495 33.8917C179.94 32.5614 180.051 32.1733 181.603 32.0625C185.705 31.8408 186.038 31.9516 187.479 35.6654C189.142 39.989 190.749 44.1463 192.634 48.9687Z" fill="white"/>
</svg>
