<svg width="228" height="88" viewBox="0 0 228 88" fill="none" xmlns="http://www.w3.org/2000/svg">
<g clip-path="url(#clip0_2622_15993)">
<path d="M23.6724 14.1016C29.1911 16.6637 34.4406 19.6305 39.8247 22.4624C40.9016 23.0018 41.3053 23.8109 41.3053 25.0246C41.3053 37.5658 41.3053 50.107 41.3053 62.6482C41.3053 63.8619 40.767 64.671 39.8247 65.3453C34.8444 67.9075 29.9987 70.6046 25.0184 73.1667C23.4032 73.9759 21.6533 73.9759 20.0381 73.1667C15.1924 70.6046 10.3467 68.0423 5.50097 65.615C4.28955 64.9407 3.88574 63.9968 3.88574 62.6482C3.88574 50.2419 3.88574 37.7007 3.88574 25.2943C3.88574 23.811 4.42416 23.0018 5.63558 22.3276C10.8851 19.6305 16 16.9335 21.2495 14.2365C22.0571 14.1016 22.8648 14.1016 23.6724 14.1016ZM6.17399 54.692C6.17399 57.1194 6.17399 59.5466 6.17399 61.974C6.17399 62.7831 6.44319 63.3226 7.1162 63.7271C11.4235 65.8847 15.7308 68.1772 19.9035 70.4697C21.7879 71.4137 23.2686 71.4137 25.153 70.4697C29.4603 68.1772 33.7676 65.8847 38.0749 63.5922C38.7479 63.3225 39.0171 62.918 39.0171 62.1089C39.0171 57.1194 39.0171 52.1298 39.0171 47.1403C39.0171 46.0615 38.7479 46.0615 37.9403 46.466C33.9022 48.6236 29.9987 50.6464 25.9606 52.8041C23.6724 54.0177 21.5187 54.0177 19.2305 52.8041C15.1924 50.6464 11.1543 48.6236 7.1162 46.466C6.30859 46.0615 6.17399 46.1963 6.17399 47.1403C6.17399 49.7025 6.17399 52.2647 6.17399 54.692ZM6.44319 24.4852C6.57779 24.8897 6.98161 25.0246 7.25082 25.1594C11.6927 27.4519 16 29.7444 20.4419 32.1717C21.7879 32.846 23.134 32.846 24.3454 32.1717C28.7873 29.8793 33.0946 27.5868 37.5365 25.1594C37.8057 25.0246 38.2095 24.8897 38.3441 24.4852C33.4984 21.923 28.6527 19.3608 23.6724 16.7986C22.7302 16.2592 21.5187 16.3941 20.5765 16.9335C19.2305 17.6078 17.8844 18.282 16.5384 19.0911C13.4425 20.8442 9.94287 22.5972 6.44319 24.4852ZM21.2495 51.3207C21.3841 51.1859 21.3841 51.051 21.3841 51.051C21.3841 46.1963 21.3841 41.2068 21.3841 36.3521C21.3841 35.4082 20.8457 35.8128 20.5765 36.0825C18.1536 37.2962 15.7308 38.6447 13.4426 39.8583C11.1543 41.072 8.86606 42.2856 6.3086 43.6342C11.4235 46.1963 16.2692 48.7585 21.2495 51.3207ZM38.7479 43.4993C33.633 40.8023 28.6527 38.2401 23.6724 35.543C23.6724 40.9371 23.6724 46.0615 23.6724 51.3207C28.7873 48.7585 33.633 46.1964 38.7479 43.4993ZM25.6914 34.0597C29.9987 36.3522 34.1714 38.5098 38.3441 40.6674C39.2863 41.2068 39.0171 40.3977 39.0171 39.9931C39.0171 36.6218 39.0171 33.1157 39.0171 29.7444C39.0171 28.9353 39.0171 28.1262 39.0171 27.0474C34.4406 29.4747 30.2679 31.6324 25.6914 34.0597ZM6.17399 27.1822C6.17399 31.902 6.17399 36.3521 6.17399 41.0719C10.6159 38.7795 14.9232 36.487 19.3651 34.1945C14.9232 31.7672 10.6159 29.4747 6.17399 27.1822Z" fill="white"/>
<path d="M228 61.8379C226.654 61.5682 225.443 61.7031 224.097 61.7031C223.154 61.7031 222.885 61.4334 222.885 60.4894C222.885 55.7696 222.885 51.0498 222.885 46.3299C222.885 45.6557 222.885 44.8466 222.75 44.1724C222.212 39.8571 218.174 38.104 214.54 40.5313C212.655 41.8799 211.848 43.7678 211.848 45.9254C211.713 50.7801 211.713 55.4999 211.713 60.3546C211.713 61.4334 211.444 61.8379 210.232 61.7031C209.29 61.5682 208.348 61.5682 207.406 61.7031C206.598 61.7031 206.329 61.4333 206.329 60.6242C206.329 55.7695 206.329 51.0498 206.329 46.1951C206.329 45.386 206.329 44.5769 206.194 43.9026C205.656 40.2616 202.964 38.6434 199.33 39.8571C196.907 40.6662 195.157 43.0935 195.157 46.0602C195.022 50.9149 195.022 55.6347 195.157 60.4894C195.157 61.4334 194.888 61.8379 193.945 61.7031C192.734 61.5682 190.984 62.2425 190.311 61.4334C189.638 60.7591 190.177 59.006 190.177 57.7924C190.042 51.3195 190.311 44.9814 190.042 38.5086C190.042 38.2389 190.042 37.9691 190.042 37.6994C189.907 35.9463 189.907 35.9463 191.657 35.9463C194.618 35.9463 194.618 35.9464 194.888 38.9131C194.888 39.1828 194.888 39.4525 195.157 39.7222C196.907 36.6206 199.733 35.2721 203.233 35.2721C206.733 35.2721 209.559 36.6206 210.905 40.1268C212.251 37.9692 213.867 36.4857 216.155 35.6766C218.174 35.0024 220.058 35.0024 222.077 35.407C225.173 36.0812 226.789 38.2388 227.596 41.0707C227.731 41.6101 227.731 42.1495 228 42.6889C228 49.2967 228 55.4999 228 61.8379Z" fill="white"/>
<path d="M99.05 39.5897C99.05 38.6458 99.05 37.7018 99.05 36.7579C99.05 36.2185 99.1846 35.9488 99.8576 36.0836C101.069 36.0836 102.146 36.0836 103.357 36.0836C104.03 36.0836 104.299 36.3533 104.299 37.0275C104.299 39.9943 104.299 42.9611 104.299 45.9278C104.299 50.7825 104.299 55.6371 104.299 60.4918C104.299 61.7054 103.896 61.9752 102.819 61.8403C101.877 61.7054 100.934 61.8403 99.9922 61.8403C99.3192 61.8403 99.05 61.7054 99.05 60.8963C99.05 59.9524 99.05 58.8735 99.05 57.525C97.704 59.6827 96.0887 61.0312 94.0697 61.5706C88.1471 63.4585 82.3592 60.6266 80.2056 54.828C78.3211 49.4339 78.5903 44.1747 82.09 39.4549C85.5897 34.7351 92.9928 33.9259 97.3001 37.7018C97.8385 38.2412 98.2424 38.9155 99.05 39.5897ZM99.05 48.7597C99.05 47.6808 99.05 46.4672 98.7808 45.3884C98.1078 42.0171 95.9541 39.8595 92.8582 39.4549C89.4932 39.0504 86.6665 40.3988 85.4551 43.3656C83.9744 46.8717 83.9744 50.3779 85.4551 53.884C86.6665 56.7159 89.0894 57.9296 92.0506 57.7947C95.0119 57.7947 97.1655 56.3114 98.2424 53.6144C98.7808 52.131 99.05 50.5127 99.05 48.7597Z" fill="white"/>
<path d="M172.005 61.9738C164.467 61.9738 159.486 57.254 159.083 50.2417C158.813 47.1401 159.217 44.1734 160.698 41.4763C163.121 37.0262 167.159 35.1383 172.139 35.408C179.677 35.6777 184.523 41.2066 184.253 49.1628C184.119 52.1296 183.446 54.9615 181.696 57.3888C179.004 60.6253 175.504 61.9738 172.005 61.9738ZM178.869 48.4886C178.869 47.6795 178.735 46.6007 178.6 45.5219C177.927 42.0157 175.773 39.7233 172.543 39.4536C169.043 39.049 166.217 40.5323 165.005 43.6339C163.659 47.0052 163.659 50.5113 165.14 53.8826C166.351 56.7145 168.64 57.7934 171.601 57.7934C174.562 57.7934 176.716 56.5797 177.927 53.8826C178.6 52.2644 178.869 50.5113 178.869 48.4886Z" fill="white"/>
<path d="M116.683 39.9933C117.222 39.319 117.76 38.6448 118.299 37.9705C121.26 35.0038 127.048 34.3295 130.682 36.4872C133.239 38.1054 134.182 40.5327 134.451 43.4995C134.855 47.9496 134.586 52.3997 134.586 56.8498C134.586 58.0634 134.586 59.4119 134.586 60.6256C134.586 61.2999 134.451 61.5696 133.643 61.5696C132.566 61.5696 131.355 61.5696 130.278 61.5696C129.471 61.5696 129.336 61.2999 129.336 60.6256C129.336 55.7709 129.336 50.9163 129.336 46.0616C129.336 44.7131 129.336 43.4995 128.798 42.2858C128.394 41.0721 127.452 40.1281 126.24 39.7236C121.933 38.375 116.953 40.5327 116.818 46.1965C116.683 50.9163 116.818 55.6362 116.818 60.356C116.818 61.2999 116.683 61.5696 115.741 61.5696C114.395 61.4347 112.645 62.109 111.972 61.2999C111.299 60.6256 111.838 58.8726 111.703 57.6589C111.568 51.186 111.838 44.5783 111.568 38.1054C111.568 37.4312 111.03 36.4871 111.568 35.9477C112.107 35.4083 113.049 35.8129 113.857 35.8129C116.28 35.8129 116.28 35.8129 116.549 38.375C116.414 38.9145 116.279 39.4539 116.683 39.9933Z" fill="white"/>
<path d="M64.4576 50.781C64.4576 47.5445 64.4576 44.1732 64.4576 40.9368C64.4576 40.1277 64.1884 39.858 63.3808 39.858C62.304 39.858 61.2272 39.858 60.1503 39.858C59.6119 39.858 59.4773 39.7232 59.4773 39.1837V39.0488C59.3427 35.8124 59.3427 35.8124 62.5732 35.8124C64.323 35.8124 64.4576 35.8124 64.323 33.9245C64.323 32.3063 64.3231 30.6881 64.7269 29.0699C65.6691 25.8334 68.0919 23.9455 71.5916 23.6758C71.9954 23.6758 72.2646 23.6758 72.6684 23.6758C76.1681 23.6758 76.7065 24.35 76.3027 27.8562C76.3027 28.3956 76.0335 28.3955 75.6297 28.2607C74.9567 27.991 74.1491 27.9911 73.4761 27.9911C71.1878 27.9911 69.8417 29.2047 69.5725 31.4972C69.4379 32.7108 69.5726 33.7896 69.438 35.0033C69.438 35.5427 69.7071 35.6775 70.2455 35.6775C71.7262 35.6775 73.2068 35.6775 74.6875 35.6775C75.3605 35.6775 75.4951 35.9473 75.4951 36.4867C75.6297 39.5883 75.6297 39.5883 72.5338 39.5883C71.5916 39.5883 70.2456 39.1837 69.7071 39.858C69.1687 40.3974 69.5725 41.7459 69.5725 42.6899C69.5725 48.4885 69.5725 54.422 69.5725 60.2206C69.5725 61.1646 69.4379 61.4343 68.3611 61.4343C67.4189 61.2995 66.3421 61.2995 65.3999 61.4343C64.4577 61.5692 64.323 61.1646 64.323 60.3555C64.4576 57.3888 64.4576 54.0174 64.4576 50.781Z" fill="white"/>
<path d="M148.584 27.7207C148.584 30.148 148.584 32.4405 148.584 34.733C148.584 35.677 148.719 36.0815 149.796 35.9466C151.546 35.8118 153.161 35.9466 154.911 35.9466C155.584 35.9466 155.718 36.0815 155.718 36.7558C155.853 39.8574 155.853 39.8574 152.757 39.8574C151.68 39.8574 150.604 39.8574 149.661 39.8574C148.854 39.8574 148.584 39.9922 148.584 40.8014C148.584 44.7121 148.584 48.7576 148.584 52.6683C148.584 56.579 150.604 58.1972 154.372 57.3881C155.449 57.1184 155.718 57.3881 155.584 58.3321C155.584 58.6018 155.584 59.0063 155.584 59.276C155.584 61.4336 155.584 61.4337 153.43 61.7034C151.95 61.8382 150.469 61.8382 149.123 61.4337C145.758 60.4897 143.604 57.7926 143.604 53.8819C143.47 49.5667 143.604 45.1166 143.604 40.8014C143.604 39.8574 143.335 39.5877 142.393 39.5877C141.316 39.7225 140.239 39.5877 139.162 39.5877C138.624 39.5877 138.489 39.4528 138.489 38.9134C138.489 37.9694 138.489 37.1603 138.489 36.2164C138.489 35.6769 138.758 35.5421 139.162 35.5421C140.239 35.5421 141.316 35.5421 142.393 35.5421C143.2 35.5421 143.604 35.4073 143.47 34.4633C143.335 32.9799 143.47 31.3617 143.47 29.8783C143.47 29.4737 143.47 29.0692 144.008 28.9343C145.489 28.7995 146.969 28.2601 148.584 27.7207Z" fill="white"/>
<path d="M0.251478 62.5128C1.0591 62.3779 1.4629 62.5128 1.4629 63.4568C1.4629 65.4795 2.53973 66.828 4.28957 67.6371C5.36639 68.1765 4.82797 68.5811 4.55877 69.2554C4.15496 69.9296 3.88575 70.1993 3.07813 69.6599C0.789877 68.3114 -0.690755 66.4235 -0.959961 63.7265C-0.959961 62.7825 -0.825346 62.2431 0.251478 62.5128Z" fill="white"/>
<path d="M44.9392 25.2936C43.997 25.5633 43.7278 25.1587 43.7278 24.2147C43.7278 22.1919 42.6509 20.8435 40.9011 20.0343C39.9589 19.6298 40.2281 19.0904 40.6319 18.4161C41.0357 17.7418 41.3049 17.4722 42.2471 18.0116C44.5354 19.3601 46.016 21.248 46.1506 24.0799C46.016 25.0239 46.016 25.5633 44.9392 25.2936Z" fill="white"/>
</g>
<defs>
<clipPath id="clip0_2622_15993">
<rect width="228" height="88" fill="white"/>
</clipPath>
</defs>
</svg>
