<svg width="227" height="88" viewBox="0 0 227 88" fill="none" xmlns="http://www.w3.org/2000/svg">
<g clip-path="url(#clip0_2807_14483)">
<path d="M0.140625 57.0205C0.187044 56.185 0.744064 55.5816 1.39392 55.1638C5.71085 52.5179 10.0742 49.8721 14.3911 47.2262C18.8009 47.5047 23.1642 47.087 27.574 46.9941C22.1894 50.3363 16.8049 53.6784 11.4203 57.0205C10.2134 56.2778 8.8673 56.3707 7.66042 56.5564C5.15382 57.067 2.64723 57.067 0.140625 57.0205Z" fill="white"/>
<path d="M19.6826 29.6812C25.0207 26.3391 30.3125 22.9041 35.6506 19.6084C37.3681 18.5408 39.2712 19.0978 40.2924 20.676C41.3601 22.3471 41.1744 24.111 39.6426 25.1786C36.7646 27.2211 33.8867 29.2171 30.6374 30.656C26.9703 30.5168 23.2568 30.8881 19.6826 29.6812Z" fill="white"/>
<path d="M216.219 35.1129C213.294 35.1129 210.37 34.9737 207.446 35.1593C205.403 35.2986 205.357 34.231 205.496 32.7456C205.589 31.4923 204.893 29.9605 207.353 30.0069C213.294 30.1461 219.236 30.1461 225.131 30.0069C227.823 29.9605 226.756 31.7244 226.941 32.9777C227.174 34.4631 226.756 35.2058 224.992 35.1129C222.067 35.0201 219.143 35.1129 216.219 35.1129Z" fill="white"/>
<path d="M19.6827 29.6816C23.257 30.8885 26.9704 30.4708 30.6375 30.7029C26.2742 33.488 22.0965 36.6444 17.5011 39.0118C14.9016 38.037 12.1629 38.6404 9.47066 38.4083C8.49587 38.3155 7.33541 39.1046 6.68555 37.7121C11.0025 35.0662 15.3658 32.3739 19.6827 29.6816Z" fill="white"/>
<path d="M167.757 48.2031C172.214 48.2495 176.67 48.296 181.126 48.3888C183.308 48.4352 184.793 51.0346 183.679 52.9378C183.215 53.7269 182.426 53.3556 181.776 53.3556C176.206 53.402 170.682 53.3092 165.158 53.402C163.255 53.4484 162.419 52.9842 162.744 51.0346C162.837 50.4312 162.837 49.8278 162.884 49.2243C164.462 48.5745 166.086 48.296 167.757 48.2031Z" fill="white"/>
<path d="M121.107 36.0859C121.757 37.8963 120.504 39.4281 120.411 41.1456C119.854 42.3989 118.601 42.306 117.533 42.6774C116.698 43.0023 115.491 42.7702 115.212 44.0699C112.381 44.4877 109.456 43.745 106.625 44.4877C105 44.6269 103.422 44.8126 101.797 44.9519C101.426 39.0103 101.426 39.0103 107.182 39.0103C109.271 39.0103 111.313 38.9639 113.402 39.0103C115.166 39.0567 116.187 38.4069 116.233 36.5501C117.905 36.8751 119.483 36.318 121.107 36.0859Z" fill="white"/>
<path d="M59.788 35.0198C56.8637 35.0198 53.9393 34.9734 51.0149 35.0198C49.8545 35.0198 49.5295 34.7413 49.6224 33.4415C49.9009 30.0994 49.808 30.053 53.1502 30.053C58.1634 30.053 63.1766 30.0994 68.1898 30.0066C69.6752 29.9602 70.5571 30.2387 70.2786 31.9562C70.0465 33.2095 71.207 35.2054 68.3754 35.0198C65.4975 34.8805 62.666 35.0198 59.788 35.0198Z" fill="white"/>
<path d="M49.8077 44.5343C49.0186 38.4535 49.0186 38.4535 55.0066 38.4535C58.9522 38.4535 62.8977 38.5463 66.8433 38.407C68.9786 38.3142 68.6072 39.6139 68.5144 40.8208C68.4215 41.9348 69.2571 43.5595 66.8897 43.5131C62.8049 43.4202 58.7201 43.5595 54.6352 43.6059C52.9642 43.7916 51.4324 44.6271 49.8077 44.5343Z" fill="white"/>
<path d="M122.685 46.8555C121.339 52.0079 119.621 53.3541 114.423 53.4005C111.22 53.4005 107.97 53.4005 104.767 53.4005C101.657 53.4005 101.657 53.4005 101.843 50.1048C103.746 50.1048 105.51 49.8263 106.903 48.3409C109.595 48.3409 112.287 48.2944 114.98 48.3409C116.047 48.3409 116.976 48.2016 117.672 47.3197C119.343 47.134 121.014 46.9947 122.685 46.8555Z" fill="white"/>
<path d="M162.883 44.9537C162.234 38.4551 162.234 38.4551 168.639 38.4551C171.982 38.4551 175.277 38.4551 178.619 38.4551C181.729 38.4551 181.729 38.4551 181.59 41.7044C179.733 41.7972 177.83 41.6115 176.484 43.329C174.21 43.3754 171.935 43.3754 169.707 43.4683C169.011 43.4683 168.175 43.1433 167.711 44.0253C166.086 44.3502 164.508 44.6287 162.883 44.9537Z" fill="white"/>
<path d="M6.68527 37.7109C7.33513 39.1035 8.49559 38.3144 9.47038 38.4072C12.1627 38.6393 14.8549 38.0359 17.5008 39.0107C13.4159 41.6101 9.37754 44.2559 5.24629 46.7625C3.43597 47.8766 1.43998 47.2732 0.418767 45.6021C-0.648859 43.931 -0.231092 42.0743 1.57923 40.821C3.2503 39.7533 4.96778 38.7786 6.68527 37.7109Z" fill="white"/>
<path d="M194.076 48.2949C198.022 48.2949 201.921 48.4342 205.867 48.3413C208.373 48.2485 207.491 49.9196 207.631 51.1265C207.77 52.3798 207.863 53.4938 205.867 53.401C201.086 53.2617 196.304 53.2153 191.523 53.401C189.342 53.4938 188.645 52.7975 188.97 50.7551C189.017 50.3838 189.017 50.0124 189.063 49.5946C190.734 49.1769 192.405 48.7591 194.076 48.2949Z" fill="white"/>
<path d="M177.413 30.1922C179.084 30.1458 180.801 30.1458 182.472 30.0994C183.958 30.0066 183.865 31.0742 183.726 31.9562C183.494 33.0238 184.747 35.0198 182.612 35.0662C176.252 35.2054 169.847 35.0662 163.487 35.0198C163.302 35.0198 163.116 34.6484 162.884 34.4163C167.386 33.2094 171.889 31.8169 176.531 31.1206C177.088 30.9814 177.366 30.7028 177.413 30.1922Z" fill="white"/>
<path d="M27.5276 47.041C23.1178 47.1338 18.7545 47.5516 14.3447 47.2731C16.7121 45.5556 19.1723 43.9774 21.7717 42.6312C24.4175 42.6312 27.0634 42.8633 29.7093 42.3527C31.0554 42.0742 32.7265 41.7028 34.0726 42.7705C31.8445 44.0702 29.9413 45.9269 27.5276 47.041Z" fill="white"/>
<path d="M130.994 44.117C130.298 43.0957 129.926 41.9817 129.602 40.8212C131.133 40.3571 132.712 39.8929 134.243 39.4287C134.336 39.6608 134.336 39.8929 134.476 40.0786C134.893 40.5892 134.8 41.6104 135.59 41.6568C136.425 41.6568 136.332 40.682 136.657 40.125C136.982 39.6144 137.261 39.0573 137.539 38.5467C140.371 38.9181 143.017 37.5719 145.755 37.6184C146.127 38.9181 147.287 39.8465 147.241 41.3318C145.662 41.6568 144.131 41.9353 142.552 42.2602C142.042 41.5175 141.578 40.9605 141.067 42.2602C137.678 42.2602 134.29 42.9565 130.994 44.117Z" fill="white"/>
<path d="M121.107 36.0872C119.482 36.3193 117.904 36.8299 116.279 36.6442C115.722 35.4374 114.794 35.066 113.494 35.066C110.198 35.066 106.949 35.2981 103.653 34.9268C103.7 34.4626 103.839 33.9984 104.442 33.952C107.599 33.7199 110.616 32.6058 113.68 32.0488C114.794 31.8167 116.001 31.8167 116.697 30.6562C119.343 31.4454 120.689 33.3949 121.107 36.0872Z" fill="white"/>
<path d="M142.646 42.2142C144.224 41.8892 145.756 41.6107 147.334 41.2858C148.262 42.5391 148.448 41.3322 148.819 40.8216C150.629 40.6824 152.486 40.4967 154.297 40.3574C153.693 42.307 152.811 44.1173 151.836 45.8812C149.423 45.8348 147.241 46.856 144.92 47.2738C143.945 45.6956 143.156 44.0245 142.646 42.2142Z" fill="white"/>
<path d="M218.261 42.214C218.308 45.4633 218.308 48.7126 218.4 51.9155C218.447 53.0295 218.075 53.3544 216.961 53.4009C213.434 53.5401 213.434 53.5865 213.434 50.0587C213.434 47.5985 213.526 45.1384 213.573 42.6782C215.151 42.7246 216.683 41.9355 218.261 42.214Z" fill="white"/>
<path d="M116.65 30.6096C116.001 31.8165 114.747 31.8165 113.633 32.0021C110.523 32.6056 107.552 33.6732 104.396 33.9053C103.839 33.9517 103.7 34.4159 103.607 34.8801C102.261 35.3907 101.657 35.0193 101.704 33.4411C101.843 29.0778 101.286 30.0061 105.231 29.9133C108.249 29.8669 111.219 29.8669 114.237 29.9597C115.072 30.0061 115.954 29.9597 116.65 30.6096Z" fill="white"/>
<path d="M34.1183 42.7709C32.7722 41.7032 31.1475 42.0746 29.755 42.3531C27.1091 42.8637 24.4632 42.6316 21.8174 42.6316C24.3704 40.9605 26.9234 39.2895 29.5693 37.6648C31.1939 36.6436 32.865 36.7829 34.1647 38.2683C35.3716 39.6608 35.5108 41.239 34.1183 42.7709Z" fill="white"/>
<path d="M89.7282 41.7031C91.3064 44.0705 92.6061 46.5771 93.813 49.1301C92.0491 49.3622 90.2852 49.8264 88.6606 50.5691C87.0823 48.2017 85.6898 45.6951 84.5293 43.1421C86.2468 42.5386 88.1035 42.5851 89.7282 41.7031Z" fill="white"/>
<path d="M79.5159 45.9271C78.3554 48.1088 77.1949 50.244 76.0809 52.4257C75.7095 53.122 75.2454 53.4005 74.4562 53.4005C72.8316 53.3541 71.2534 53.4005 69.2109 53.4005C70.6035 51.0332 71.8104 48.9443 73.0173 46.8555C75.2454 46.8555 77.2878 45.7415 79.5159 45.9271Z" fill="white"/>
<path d="M49.8084 44.5358C51.4795 44.6286 52.9649 43.7931 54.5895 43.6074C54.5895 46.3925 54.5895 49.1312 54.636 51.9163C54.6824 54.1444 53.0113 53.2625 52.0365 53.3089C51.0617 53.3553 49.5764 53.9123 49.6692 51.8699C49.762 49.4562 49.762 46.996 49.8084 44.5358Z" fill="white"/>
<path d="M0.140308 57.022C2.64691 57.0684 5.10709 57.0684 7.61369 56.6042C8.86699 56.3721 10.2131 56.3257 11.3736 57.0684C9.19192 58.4609 7.01025 59.9463 4.73574 61.246C3.20393 62.128 1.6257 61.6638 0.650915 60.2713C0.0474739 59.3893 -1.57718 58.4145 0.140308 57.022Z" fill="white"/>
<path d="M193.937 31.1208C193.937 33.7202 193.937 36.3661 193.891 38.9655C192.266 39.1047 190.642 39.2904 189.063 39.4297C189.063 36.9695 189.063 34.4629 189.063 32.0027C190.781 32.2348 192.22 30.8887 193.937 31.1208Z" fill="white"/>
<path d="M81.6974 38.0835C79.3301 35.7626 79.8871 33.4417 81.6046 30.9815C82.4865 29.7282 83.1364 29.5425 83.8791 30.9815C84.9003 32.8847 85.9215 34.7878 86.8963 36.691C85.3645 37.7586 83.4613 37.6193 81.6974 38.0835Z" fill="white"/>
<path d="M177.413 30.1924C177.32 30.703 177.088 30.9815 176.531 31.0744C171.889 31.7242 167.433 33.1632 162.884 34.3701C162.837 34.2308 162.791 34.0916 162.745 33.9523C162.512 30.0996 162.512 30.0996 166.365 30.0996C170.079 30.0996 173.746 30.146 177.413 30.1924Z" fill="white"/>
<path d="M79.5162 45.9284C77.2881 45.7892 75.1992 46.9032 73.0176 46.8568C74.503 44.0717 75.9884 41.2866 77.4738 38.4551C78.3093 41.0081 82.4405 42.5863 79.5162 45.9284Z" fill="white"/>
<path d="M19.9148 68.9513C17.8724 68.6728 16.9905 67.2338 17.0369 65.4699C17.0369 63.9381 17.9653 62.6848 19.5435 62.2206C21.1681 61.7564 22.8392 62.0349 23.5355 63.6132C24.1389 65.0521 24.6031 66.8625 22.9785 68.1622C21.7252 67.6516 20.5183 67.0481 19.9148 68.9513ZM20.704 64.9129C20.379 65.0057 19.6827 64.6808 19.5899 65.5163C19.4971 66.259 20.0077 66.3983 20.6111 66.3518C21.1217 66.3054 21.7716 66.4911 21.8644 65.702C22.0037 64.9593 21.4002 64.9129 20.704 64.9129Z" fill="white"/>
<path d="M130.994 44.118C134.29 42.9575 137.632 42.2613 141.16 42.2148C140.464 43.7002 139.814 45.2321 139.117 46.7174C138.7 45.8355 137.957 45.8819 137.168 46.114C135.636 46.5318 134.058 46.9031 132.48 47.3209C131.969 46.2533 131.505 45.1856 130.994 44.118Z" fill="white"/>
<path d="M81.6973 38.0835C83.4612 37.6193 85.3643 37.7586 86.9426 36.6445C87.8709 38.3156 89.1242 39.8474 89.7277 41.7042C88.103 42.5397 86.2463 42.5397 84.5288 43.1431C83.4147 41.5649 82.44 39.8938 81.6973 38.0835Z" fill="white"/>
<path d="M127.745 36.691C126.538 34.7415 125.795 32.6062 124.728 30.0996C126.491 30.0996 127.977 30.0996 129.416 30.0996C130.159 30.0996 130.437 30.7031 130.669 31.2601C131.226 32.6062 131.783 33.9059 132.387 35.2521C130.716 35.4377 129.044 35.4377 127.745 36.691Z" fill="white"/>
<path d="M189.11 39.429C190.735 39.2898 192.359 39.1041 193.937 38.9648C193.937 40.9608 193.937 42.9568 193.937 44.9528C192.313 45.0457 190.735 45.6955 189.063 45.417C189.063 43.421 189.063 41.425 189.11 39.429Z" fill="white"/>
<path d="M154.296 40.3571C152.485 40.4963 150.629 40.682 148.818 40.8212C149.654 38.9645 150.257 36.9685 151.418 35.251C153.135 35.5295 154.899 34.6476 156.617 35.2974C156.013 37.0613 155.271 38.7788 154.296 40.3571Z" fill="white"/>
<path d="M132.479 47.3194C134.058 46.9017 135.59 46.5768 137.168 46.1126C138.003 45.8805 138.7 45.8341 139.117 46.716C138.282 48.6192 137.446 50.5223 136.657 52.4255C136.471 52.8433 136.286 53.3074 135.729 53.3539C135.033 53.4003 134.847 52.8897 134.615 52.3791C133.918 50.6616 133.176 48.9905 132.479 47.3194Z" fill="white"/>
<path d="M144.92 47.3199C147.241 46.9021 149.423 45.8809 151.836 45.9273C150.908 48.109 149.98 50.2907 149.051 52.4259C148.865 52.8437 148.726 53.3079 148.123 53.3543C147.427 53.4471 147.194 52.8901 147.009 52.3795C146.312 50.7084 145.616 48.9909 144.92 47.3199Z" fill="white"/>
<path d="M156.571 35.2519C154.853 34.6485 153.136 35.5304 151.372 35.2055C151.465 34.8342 151.558 34.4628 151.697 34.1379C153.647 29.6353 153.647 29.6353 158.799 30.2851C158.288 32.049 157.592 33.7201 156.571 35.2519Z" fill="white"/>
<path d="M145.802 37.5722C143.017 37.5722 140.371 38.8719 137.586 38.5006C138.05 36.8295 138.886 35.3441 139.675 33.8123C141.114 33.9051 142.553 33.9051 143.945 33.3945C144.549 34.7871 145.152 36.1796 145.802 37.5722Z" fill="white"/>
<path d="M122.685 46.8564C121.014 46.9957 119.343 47.1813 117.672 47.3206C118.229 45.2318 117.161 44.3498 115.258 44.1177C115.49 42.7716 116.697 43.0037 117.579 42.7252C118.6 42.3538 119.9 42.4467 120.457 41.1934C122.267 42.5859 123.01 44.5355 122.685 46.8564Z" fill="white"/>
<path d="M106.903 48.3415C105.557 49.8269 103.747 50.1054 101.844 50.1054C101.844 48.3879 101.844 46.7168 101.844 44.9993C103.468 44.8601 105.047 44.6744 106.671 44.5352C106.764 45.7885 106.811 47.0418 106.903 48.3415Z" fill="white"/>
<path d="M127.745 36.6909C129.045 35.4376 130.716 35.3912 132.341 35.252C132.898 36.6445 133.919 37.8978 134.197 39.4296C132.665 39.8938 131.087 40.358 129.555 40.8222C128.766 39.5689 128.116 38.1763 127.745 36.6909Z" fill="white"/>
<path d="M88.6602 50.6167C90.2848 49.874 92.0487 49.4098 93.8126 49.1777C94.6017 50.431 95.3908 51.7308 96.2264 53.0305C91.0739 54.0981 90.0063 53.7268 88.6602 50.6167Z" fill="white"/>
<path d="M162.884 44.9523C164.462 44.6738 166.087 44.3488 167.665 44.0703C167.99 45.4629 167.804 46.8554 167.711 48.2016C166.04 48.2944 164.415 48.5729 162.884 49.1763C162.605 47.7838 162.605 46.3448 162.884 44.9523Z" fill="white"/>
<path d="M189.063 45.4642C190.735 45.7427 192.313 45.0928 193.937 45C193.984 46.114 194.03 47.2281 194.077 48.3421C192.406 48.7599 190.735 49.2241 189.063 49.6419C189.063 48.2029 189.063 46.8567 189.063 45.4642Z" fill="white"/>
<path d="M218.261 42.2154C216.637 41.9369 215.151 42.7724 213.573 42.6796C213.527 42.3082 213.48 41.9369 213.434 41.5191C213.387 38.5947 214.733 37.62 217.658 38.4555C218.261 38.6412 218.401 38.9197 218.354 39.4303C218.354 40.3587 218.308 41.287 218.261 42.2154Z" fill="white"/>
<path d="M143.898 33.3947C142.506 33.9053 141.067 33.9054 139.628 33.8125C139.674 33.6733 139.674 33.4876 139.767 33.3947C140.463 32.2807 140.324 30.2383 141.856 30.2383C143.434 30.2383 143.295 32.2807 143.898 33.3947Z" fill="white"/>
<path d="M193.937 31.1207C192.22 30.8887 190.781 32.2348 189.063 32.0491C189.11 31.1672 188.414 29.6818 190.038 29.9603C191.338 30.0995 193.38 28.4285 193.937 31.1207Z" fill="white"/>
<path d="M176.484 43.3746C177.831 41.6572 179.734 41.7964 181.59 41.75C181.915 42.9569 181.59 43.6532 180.151 43.5603C178.898 43.4211 177.691 43.4211 176.484 43.3746Z" fill="white"/>
<path d="M19.915 68.9515C20.5185 67.0483 21.7254 67.6518 22.9322 68.1624C22.4681 68.7658 21.911 69.2764 21.0291 69.23C20.797 68.6265 20.4256 68.5337 19.915 68.9515Z" fill="white"/>
<path d="M19.915 68.9517C20.4256 68.5339 20.797 68.6267 21.0291 69.2302C20.6113 69.4623 20.1936 69.5551 19.915 68.9517Z" fill="white"/>
<path d="M20.7041 64.9141C21.4004 64.9141 21.9574 64.9605 21.8646 65.7496C21.7717 66.4923 21.1219 66.353 20.6113 66.3994C20.0078 66.4459 19.4972 66.3066 19.5901 65.5639C19.6829 64.7284 20.3792 65.0069 20.7041 64.9141Z" fill="white"/>
</g>
<defs>
<clipPath id="clip0_2807_14483">
<rect width="227" height="88" fill="white"/>
</clipPath>
</defs>
</svg>
