<svg width="228" height="88" viewBox="0 0 228 88" fill="none" xmlns="http://www.w3.org/2000/svg">
<path d="M77.5576 30.894C79.2997 30.894 80.9856 30.9221 82.6434 30.894C83.4864 30.8659 83.4583 31.5122 83.5707 32.018C84.8913 37.8905 86.2119 43.7631 87.5607 49.6076C87.6731 50.0572 87.7854 50.5067 88.0102 51.3497C88.7689 48.5398 89.4152 46.0953 90.0614 43.6507C91.073 39.7731 92.1407 35.8956 93.096 32.018C93.3208 31.0626 93.7423 30.8378 94.6134 30.8659C96.1869 30.9502 98.1538 30.3883 99.2777 31.1469C100.402 31.8775 100.261 34.013 100.655 35.5303C101.947 40.588 103.183 45.6457 104.476 50.9563C105.178 49.6919 105.235 48.5117 105.516 47.3878C106.724 42.302 107.876 37.2162 109 32.1023C109.196 31.175 109.562 30.7816 110.573 30.8659C111.725 30.9783 112.905 30.9221 114.086 30.8659C114.985 30.8378 115.21 31.0064 114.929 31.9618C113.13 38.2277 111.416 44.5218 109.674 50.8158C109.112 52.7827 108.55 54.7777 108.044 56.7446C107.848 57.4751 107.511 57.8123 106.696 57.7842C104.982 57.6999 102.874 58.3181 101.61 57.5313C100.317 56.7446 100.486 54.4124 100.036 52.7546C98.8 48.3151 97.6761 43.8474 96.496 39.3517C95.8497 39.6326 95.934 40.2508 95.8216 40.7004C94.3605 45.9548 92.8994 51.2092 91.5225 56.4917C91.2697 57.4751 90.8482 57.8685 89.8085 57.7842C88.4598 57.6999 87.083 57.728 85.7343 57.7561C85.088 57.7561 84.7227 57.6156 84.526 56.9132C82.2781 48.4275 80.0022 39.9698 77.7262 31.5122C77.6138 31.3717 77.5857 31.2031 77.5576 30.894Z" fill="white"/>
<path d="M172.22 44.2422C172.22 40.2242 172.248 36.2061 172.192 32.188C172.164 31.1203 172.501 30.8393 173.541 30.8674C177.418 31.036 181.296 30.5302 185.145 31.2046C191.524 32.3004 195.542 37.2457 195.767 43.7365C196.02 51.1263 191.72 56.2964 184.893 57.4485C180.959 58.1228 176.969 57.7014 172.979 57.7576C171.995 57.7857 172.22 56.9989 172.22 56.4369C172.192 52.3908 172.22 48.3165 172.22 44.2422ZM177.671 44.186C177.671 46.7711 177.727 49.328 177.643 51.9131C177.615 52.9246 177.952 53.2056 178.908 53.1213C179.975 53.037 181.071 53.1494 182.139 53.0651C185.426 52.8403 188.264 51.6321 189.444 48.3446C190.737 44.748 190.653 41.1795 188.068 38.0325C187.197 36.9647 186.016 36.3185 184.668 35.897C182.701 35.2788 180.678 35.4755 178.683 35.4193C177.896 35.3912 177.615 35.6441 177.643 36.459C177.699 39.044 177.671 41.6291 177.671 44.186Z" fill="white"/>
<path d="M204.141 63.8823C204.141 60.9319 203.916 58.1221 204.197 55.3684C204.478 52.7834 206.613 51.2661 208.496 49.7488C210.378 48.2034 212.233 46.6298 214.144 45.1687C215.127 44.4101 215.183 43.9324 214.144 43.1456C211.671 41.263 209.254 39.24 206.838 37.2731C205.012 35.8119 204.028 33.9293 204.028 31.5972C204 29.3212 204.028 27.0452 204.028 24.4883C206.894 26.7924 209.535 28.8716 212.12 30.979C217.094 34.9971 222.067 39.0433 227.013 43.0613C228.305 44.1291 228.333 44.1291 227.069 45.1968C219.595 51.3504 212.149 57.4758 204.674 63.6013C204.562 63.6575 204.45 63.7137 204.141 63.8823Z" fill="white"/>
<path d="M47.9692 44.2691C47.9411 52.1085 42.0123 58.0654 34.229 58.0373C26.3615 58.0092 20.4046 52.0242 20.4327 44.1286C20.4608 36.3453 26.4458 30.4447 34.2852 30.4728C42.1247 30.4728 47.9692 36.4015 47.9692 44.2691ZM42.3495 44.3253C42.3495 41.2907 41.5065 38.5651 38.8934 36.7949C36.1959 34.9685 33.2737 34.9123 30.3796 36.2891C27.4011 37.7222 26.2491 40.3915 26.0805 43.4823C25.8838 47.1351 26.8673 50.4226 30.3796 52.2209C35.1844 54.6936 42.2933 52.4176 42.3495 44.3253Z" fill="white"/>
<path d="M166.348 57.7845C164.494 57.7845 162.639 57.7845 160.785 57.7845C160.11 57.7845 159.97 57.2225 159.745 56.8011C158.144 53.9912 156.486 51.2376 155.025 48.3715C154.35 47.0509 153.367 47.2476 152.327 47.3038C151.681 47.3319 151.878 47.9219 151.878 48.2872C151.85 51.0409 151.821 53.8226 151.878 56.5763C151.906 57.5878 151.597 57.925 150.613 57.8126C149.264 57.6721 147.494 58.4027 146.708 57.5035C146.033 56.7449 146.483 55.0028 146.483 53.7102C146.483 46.5451 146.511 39.38 146.455 32.2149C146.455 31.1753 146.708 30.8662 147.775 30.8943C151.203 30.9786 154.603 30.8381 158.031 30.9786C164.747 31.2877 168.456 38.0594 165 43.5386C164.157 44.8873 163.005 45.927 161.487 46.4046C160.195 46.798 160.391 47.3038 160.953 48.231C162.667 51.0128 164.297 53.8507 165.955 56.6606C166.124 56.9415 166.433 57.1944 166.348 57.7845ZM151.962 39.3238C151.934 39.3238 151.906 39.3238 151.85 39.3238C151.85 40.3635 151.878 41.375 151.85 42.4147C151.85 42.9766 151.99 43.2857 152.636 43.2576C154.266 43.1733 155.896 43.3981 157.525 43.089C159.745 42.6675 160.729 41.3469 160.616 38.8743C160.532 36.9074 159.183 35.5867 157.104 35.4463C156.682 35.4182 156.261 35.4182 155.84 35.4463C154.547 35.5306 152.833 34.8843 152.102 35.7272C151.484 36.4016 151.962 38.0875 151.962 39.3238Z" fill="white"/>
<path d="M74.0727 57.7842C72.0777 57.7842 70.3075 57.7561 68.5373 57.8123C67.8068 57.8404 67.582 57.3347 67.3291 56.857C65.6994 53.9628 64.0135 51.1249 62.4681 48.1746C61.7937 46.882 60.7822 47.2473 59.8268 47.3316C59.2368 47.3878 59.4896 48.006 59.4896 48.3994C59.4615 51.1249 59.4334 53.8224 59.4896 56.5479C59.5177 57.5032 59.293 57.9247 58.2814 57.8404C57.2137 57.7561 56.1178 57.7842 55.0501 57.8404C54.3195 57.8685 54.0947 57.5875 54.0947 56.857C54.1228 48.5398 54.0947 40.1946 54.0947 31.8775C54.0947 31.3998 54.0386 30.9221 54.7691 30.9502C58.8715 31.0907 63.0019 30.5288 67.0762 31.2593C70.8976 31.9337 73.3984 34.603 73.7636 38.031C74.1851 42.0772 72.443 45.0837 68.5654 46.6573C67.6101 47.0506 68.0035 47.3878 68.2845 47.8655C70.1109 50.9563 71.9372 54.0471 73.7636 57.1661C73.8479 57.2223 73.9041 57.3909 74.0727 57.7842ZM59.4334 39.2955C59.4334 40.3351 59.4334 41.3466 59.4334 42.3863C59.4334 42.9202 59.5177 43.2854 60.1921 43.2573C61.8218 43.173 63.4515 43.3978 65.0812 43.0607C67.2729 42.6392 68.2845 41.3186 68.1721 38.9583C68.0878 36.9352 66.7952 35.5865 64.716 35.446C63.2267 35.3617 61.7375 35.446 60.2202 35.4179C59.6301 35.4179 59.3773 35.5865 59.4053 36.2046C59.4615 37.2443 59.4334 38.2558 59.4334 39.2955Z" fill="white"/>
<path d="M128.922 30.8941C132.153 30.8941 132.153 30.8941 133.249 33.9006C135.946 41.4029 138.616 48.9333 141.341 56.4074C141.706 57.419 141.763 57.9248 140.442 57.8124C139.009 57.6719 137.295 58.3181 136.199 57.5595C135.159 56.8289 135.103 55.0868 134.682 53.7662C134.401 52.9513 134.035 52.5861 133.108 52.5861C130.355 52.6423 127.573 52.6423 124.819 52.5861C123.976 52.558 123.527 52.8108 123.302 53.6257C123.049 54.5248 122.628 55.3678 122.431 56.295C122.178 57.5314 121.504 57.9529 120.267 57.8124C119.396 57.7 118.469 57.7281 117.598 57.8124C116.221 57.9529 116.249 57.4471 116.643 56.3512C118.553 51.1811 120.38 46.011 122.234 40.8128C123.246 38.003 124.285 35.2212 125.213 32.3833C125.606 31.2032 126.14 30.6693 127.404 30.8941C127.882 30.9503 128.416 30.8941 128.922 30.8941ZM132.771 48.3151C131.507 44.6061 130.27 41.0938 128.95 37.2443C127.685 40.9252 126.561 44.2689 125.353 47.6126C125.044 48.4837 125.578 48.3151 126.027 48.3151C128.191 48.3151 130.355 48.3151 132.771 48.3151Z" fill="white"/>
<path d="M0.202168 44.2699C0.202168 40.1957 0.230266 36.1214 0.174069 32.0471C0.174069 31.148 0.398857 30.8389 1.3261 30.867C6.13094 30.9232 10.9639 30.8951 15.7687 30.867C16.5835 30.867 16.8926 31.0356 16.9207 31.9347C16.9769 35.3065 17.005 35.3065 13.6613 35.3065C11.4134 35.3065 9.16556 35.3346 6.91769 35.2784C6.04664 35.2503 5.65326 35.4751 5.70946 36.4305C5.79375 37.9197 5.79375 39.437 5.70946 40.9262C5.65326 41.9659 6.07474 42.1625 7.00199 42.1344C9.05317 42.0782 11.1325 42.1344 13.1836 42.1063C13.9423 42.1063 14.2233 42.3311 14.2514 43.146C14.3638 46.4335 14.3919 46.4335 11.0763 46.4335C9.61514 46.4335 8.18212 46.4897 6.721 46.4054C5.90615 46.3773 5.70946 46.6864 5.70946 47.445C5.73756 50.3954 5.68136 53.3457 5.73756 56.296C5.76566 57.42 5.51277 57.9539 4.30454 57.8134C2.98391 57.6448 1.24181 58.3753 0.398857 57.4762C-0.3598 56.6613 0.202167 54.9754 0.174069 53.6829C0.174069 50.5359 0.202168 47.3889 0.202168 44.2699Z" fill="white"/>
</svg>
