<svg width="227" height="89" viewBox="0 0 227 89" fill="none" xmlns="http://www.w3.org/2000/svg">
<path d="M33.606 10.9645C35.3873 12.7458 37.0795 14.5716 38.9053 16.2193C40.0632 17.288 40.1077 17.956 38.9499 19.1584C31.0676 26.9516 23.2745 34.8783 15.3922 42.6715C14.1899 43.8739 14.1899 44.4973 15.3922 45.6997C21.0033 51.1772 26.5253 56.7437 32.0028 62.3103C33.0716 63.3791 33.6505 63.3345 34.6302 62.2658C38.9944 57.768 43.4922 53.3593 47.9009 48.906C48.6134 48.1935 49.2368 47.3919 50.3501 48.4607C50.9291 49.0396 51.508 48.6388 51.5525 47.7927C51.5971 45.1653 51.5525 42.5824 51.5525 39.955C51.5525 39.2425 51.1072 38.9753 50.4838 38.9753C47.9899 38.9753 45.4961 38.9753 43.0023 38.9753C42.6015 38.9753 42.2007 38.9753 41.9781 39.3761C41.7554 39.866 42.0671 40.2222 42.3789 40.534C43.314 41.291 42.9132 41.9145 42.2453 42.5824C39.7069 45.0763 37.2131 47.6146 34.7193 50.1084C34.1849 50.6428 33.5169 51.0881 33.9622 52.0678C34.3185 52.8694 33.6505 53.1366 32.938 53.1366C30.4442 53.1366 27.9504 53.1366 25.4566 53.1366C24.744 53.1366 24.2987 52.8694 24.2987 52.0678C24.2987 49.5295 24.2987 46.9466 24.2987 44.4083C24.2987 43.4286 24.8331 42.9387 25.6347 43.6958C26.6144 44.6755 27.1488 44.052 27.8168 43.384C33.7396 37.4612 39.6624 31.5384 45.5407 25.5711C46.6094 24.4578 47.2329 24.4578 48.3462 25.5711C54.1799 31.5384 60.0582 37.4167 65.981 43.2504C67.0943 44.3192 67.0943 44.9872 65.981 46.056C55.5604 56.432 45.1399 66.8526 34.8084 77.3177C33.7396 78.3865 33.1607 78.5201 32.0474 77.3622C21.7158 66.8971 11.2953 56.4765 0.874682 46.145C-0.238628 45.0317 -0.327688 44.4083 0.830154 43.2504C11.2062 32.9189 21.5377 22.5429 31.9137 12.1668C32.3145 11.766 32.6263 11.3652 32.9825 10.9199C33.2052 10.9645 33.4279 10.9645 33.606 10.9645Z" fill="white"/>
<path d="M87.3984 38.1937C88.4061 37.258 88.4781 35.8185 89.0539 34.6668C92.5087 28.1891 99.8502 26.2457 105.896 30.3483C106.76 30.9241 107.12 31.4999 107.911 29.9885C108.847 28.1171 111.15 28.6209 112.446 29.3407C114.317 30.3483 113.957 32.4356 113.022 34.0911C110.646 38.4815 110.071 43.088 112.158 47.5504C113.813 51.1492 113.669 54.604 113.31 58.2747C112.734 63.6009 109.927 66.9837 104.816 68.4952C104.457 68.5672 104.097 68.6392 104.025 69.071C101.865 69.071 99.7062 69.071 97.547 69.071C97.1151 68.2073 96.1794 68.2793 95.5316 67.9914C92.8686 66.8398 90.8533 65.0404 89.6297 62.3773C89.1258 61.3697 88.4781 60.2181 89.1978 59.0665C90.0615 57.7709 91.4291 58.2747 92.6526 58.2028C94.1641 58.1308 94.6679 59.3544 95.3157 60.434C96.8272 63.0971 99.3463 63.8168 102.225 63.4569C104.816 63.169 106.472 61.6576 107.12 59.1384C107.695 56.9792 107.911 54.8199 107.48 52.4447C107.12 52.5887 106.832 52.6607 106.688 52.8046C99.4183 57.9868 91.573 55.6116 88.2621 47.3345C88.0462 46.8307 88.1182 46.0389 87.3984 45.823C87.3984 43.2319 87.3984 40.7128 87.3984 38.1937ZM107.839 42.0083C107.839 37.042 105.032 33.7312 100.714 33.7312C96.3953 33.7312 93.5163 36.9701 93.5163 41.9364C93.5163 46.7587 96.3234 50.0695 100.498 50.1415C104.888 50.2135 107.839 46.9746 107.839 42.0083Z" fill="white"/>
<path d="M133.606 52.7314C126.049 56.834 120.435 56.1862 116.404 50.86C112.302 45.3899 112.662 36.8248 117.196 31.9305C121.371 27.3961 127.273 27.1082 133.39 31.3547C133.75 29.6993 134.758 28.9795 136.485 28.9795C138.789 28.9795 139.724 29.7713 139.652 32.1464C139.58 39.4159 139.652 46.6854 139.58 53.9549C139.58 55.1785 140.156 56.834 137.853 56.69C135.91 56.546 133.678 57.1219 133.606 54.0269C133.678 53.6671 133.606 53.3072 133.606 52.7314ZM119.715 41.9351C119.787 46.8294 122.738 50.2122 126.985 50.1402C131.303 50.0683 134.182 46.6855 134.11 41.7911C134.038 36.9688 131.015 33.6579 126.697 33.7299C122.594 33.8019 119.643 37.2567 119.715 41.9351Z" fill="white"/>
<path d="M172.257 45.2466C169.738 45.2466 167.219 45.3186 164.771 45.2466C163.332 45.1746 163.116 45.6784 163.476 46.974C164.34 50.1409 166.643 52.0123 170.17 52.1562C173.481 52.2282 176.791 52.2282 180.102 52.2282C181.182 52.2282 181.974 52.3721 181.254 53.7397C181.038 54.0995 180.822 54.6753 180.966 55.0352C182.261 58.49 179.742 57.6983 178.015 57.6263C174.272 57.4824 170.53 57.8423 166.787 57.1945C162.828 56.4747 159.949 54.2435 158.294 50.5008C156.278 45.8944 156.35 41.216 158.438 36.6815C161.029 31.2114 167.291 28.8362 173.552 30.7076C178.591 32.2191 182.118 37.8331 181.614 43.3752C181.47 44.7428 180.822 45.2466 179.526 45.2466C177.079 45.2466 174.704 45.2466 172.257 45.2466ZM169.594 40.3523C170.889 40.3523 172.257 40.2803 173.552 40.3523C175.28 40.4243 175.352 39.7045 174.632 38.4089C173.481 36.3217 171.609 35.458 169.306 35.5299C166.859 35.6019 165.131 36.7535 163.98 38.9847C163.332 40.2083 164.052 40.3523 164.987 40.2803C166.571 40.3523 168.082 40.3523 169.594 40.3523Z" fill="white"/>
<path d="M212.564 58.8492C204.862 58.8492 199.032 53.0192 198.888 45.2459C198.816 37.6165 204.934 31.6426 212.78 31.6426C220.553 31.7146 226.455 37.5445 226.455 45.2459C226.455 53.0192 220.481 58.8492 212.564 58.8492ZM220.265 45.1739C220.265 40.1356 217.314 36.9687 212.636 37.0407C208.101 37.0407 205.006 40.4236 205.078 45.3179C205.15 50.3561 208.029 53.4511 212.78 53.4511C217.386 53.3791 220.265 50.2842 220.265 45.1739Z" fill="white"/>
<path d="M161.676 28.9813C160.021 30.5648 158.437 31.7883 157.358 33.5877C156.35 35.1712 154.767 34.5234 153.471 34.4514C151.456 34.3794 150.664 34.8833 150.736 37.1145C150.88 42.2967 150.808 47.5509 150.808 52.7331C150.808 56.1879 149.224 57.3395 145.77 56.6918C144.402 56.4039 144.69 55.4682 144.69 54.6765C144.69 48.8465 144.69 43.0165 144.69 37.1865C144.69 35.9629 145.05 34.8113 143.035 34.4514C141.451 34.1635 142.387 32.3641 142.243 31.2125C142.171 30.4928 141.667 29.1253 143.107 29.1253C144.762 29.0533 144.69 28.1176 144.69 26.966C144.69 25.7424 144.762 24.4469 144.69 23.2233C144.546 20.992 145.122 19.6965 147.785 19.7685C150.448 19.7685 150.88 21.136 150.808 23.2953C150.736 29.1253 150.808 29.1253 156.638 29.1253C158.293 28.9813 160.021 28.9813 161.676 28.9813Z" fill="white"/>
<path d="M196.368 44.6726C196.368 48.0555 196.368 51.5103 196.368 54.8931C196.368 56.0447 196.08 57.1244 194.856 57.4842C193.489 57.8441 192.049 57.8441 190.61 57.4842C190.466 57.4842 190.322 57.0524 190.322 56.8365C190.25 49.423 190.25 42.0815 190.178 34.6681C190.178 32.3649 191.401 31.7891 193.417 31.7891C195.504 31.7891 196.368 32.6528 196.296 34.7401C196.368 38.0509 196.368 41.3618 196.368 44.6726Z" fill="white"/>
<path d="M193.202 19.6233C195.433 19.5513 197.161 21.2787 197.161 23.438C197.161 25.5972 195.649 27.2527 193.562 27.3966C191.331 27.5406 189.531 25.8851 189.459 23.7259C189.387 21.5666 191.043 19.6952 193.202 19.6233Z" fill="white"/>
<path d="M185.716 57.7705C183.773 57.6266 182.693 56.475 182.765 54.6036C182.837 52.8762 183.917 51.7246 185.716 51.7246C187.659 51.7246 188.811 52.8762 188.811 54.7476C188.811 56.6189 187.659 57.6266 185.716 57.7705Z" fill="white"/>
</svg>
