<svg width="228" height="88" viewBox="0 0 228 88" fill="none" xmlns="http://www.w3.org/2000/svg">
<g clip-path="url(#clip0_2636_14271)">
<g clip-path="url(#clip1_2636_14271)">
<path d="M53.0143 48.2748C57.4562 48.2748 61.057 44.6739 61.057 40.2321C61.057 35.7903 57.4562 32.1895 53.0143 32.1895C48.5725 32.1895 44.9717 35.7903 44.9717 40.2321C44.9717 44.6739 48.5725 48.2748 53.0143 48.2748Z" fill="white"/>
<path d="M62.1929 17.9923C47.7014 4.19434 24.7835 4.75512 10.9855 19.2467C9.50982 20.8109 8.15216 22.4932 6.97159 24.2936L6.88305 24.4264C6.46985 25.0462 6.08616 25.6808 5.71723 26.3301L5.64344 26.4777C5.28927 27.1122 4.94986 27.7468 4.63996 28.3961L4.56617 28.5584C4.27103 29.193 3.97588 29.8275 3.71026 30.4769C3.6955 30.5359 3.66598 30.5949 3.63647 30.6392C3.3856 31.2738 3.14948 31.9083 2.92813 32.5429C2.91337 32.6019 2.88385 32.6609 2.8691 32.72C2.6625 33.3545 2.47065 33.9891 2.29357 34.6236L2.2493 34.8155C2.08697 35.45 1.92464 36.0698 1.79182 36.7044C1.77707 36.7782 1.76231 36.8372 1.74755 36.911C1.61474 37.5455 1.51144 38.1801 1.40814 38.8147C1.39338 38.8885 1.37862 38.9622 1.37862 39.036C1.29008 39.6706 1.21629 40.3051 1.15726 40.9397C1.15726 41.0135 1.14251 41.102 1.14251 41.1758C1.08348 41.8251 1.05396 42.4597 1.02445 43.109C1.02445 43.1975 1.02445 43.2713 1.00969 43.3599C0.994936 44.0387 0.994936 44.7323 1.02445 45.4111C1.02445 45.4997 1.02445 45.5882 1.03921 45.6915C1.06872 46.3408 1.11299 46.9754 1.17202 47.6099L1.20154 47.9051C1.27532 48.5987 1.36387 49.2923 1.48192 50.0006C1.49668 50.1039 1.51144 50.222 1.52619 50.3253C1.64425 51.0631 1.79182 51.7862 1.96891 52.5093C1.99842 52.6274 2.02794 52.7454 2.05745 52.8635C2.2493 53.6456 2.47065 54.413 2.70677 55.1951C2.75104 55.3279 2.79531 55.4608 2.83958 55.5936C3.11997 56.4347 3.42987 57.2759 3.76928 58.1023C3.82831 58.2499 3.9021 58.3974 3.96113 58.545C4.35957 59.4747 4.80229 60.3896 5.27452 61.2751C5.36306 61.4374 5.4516 61.6145 5.5549 61.7768C6.11567 62.7803 6.72072 63.7543 7.37003 64.6987C7.48809 64.8758 7.62091 65.0529 7.73896 65.23C8.46206 66.2482 9.24419 67.2222 10.0706 68.1519C10.2329 68.329 10.3953 68.5209 10.5576 68.6979C11.1036 69.2882 11.6644 69.8638 12.2547 70.4245C12.7121 70.8672 13.1844 71.2804 13.6566 71.6936C13.8927 71.9002 14.1288 72.0921 14.3649 72.2839C15.6783 73.3612 17.0655 74.3352 18.5117 75.2058C18.8659 75.4124 19.22 75.619 19.5742 75.8109C21.4041 76.8291 23.3078 77.6851 25.2852 78.3786C25.8017 78.5557 26.3182 78.7181 26.8347 78.8804C36.8696 81.8761 47.7014 80.4004 56.5557 74.8222C56.9836 74.5565 57.3968 74.2761 57.81 73.9958C58.0757 73.8187 58.3265 73.6268 58.5774 73.4497C58.9021 73.2136 59.2415 72.9628 59.5661 72.6971C59.6842 72.6086 59.8023 72.5053 59.9203 72.4167L60.1417 72.2397L60.2892 72.1216L60.5696 71.8855L60.7172 71.7674L60.8648 71.6346L60.9681 71.5461L61.1304 71.3985C61.2042 71.3395 61.278 71.2657 61.3518 71.2067L61.5141 71.0591H61.5288L61.5584 71.0443L61.6912 70.9115L61.883 70.7344C61.942 70.6754 62.0158 70.6164 62.0749 70.5573L62.1191 70.5131C62.2224 70.4098 62.3405 70.3065 62.4438 70.2032L62.5176 70.1294L62.5619 70.0851L62.7094 69.9375L62.7389 69.908L62.8422 69.8047L62.8717 69.7752L62.8865 69.7605L62.9455 69.7014L62.9603 69.6867L62.9751 69.6719L63.0636 69.5834L63.0931 69.5539L63.1079 69.5391L63.2259 69.421L63.2407 69.4063L63.2702 69.3768L63.2997 69.3473C63.3587 69.2882 63.403 69.244 63.462 69.1849L63.5063 69.1406C63.5801 69.0669 63.6391 68.9931 63.6981 68.9341C77.2452 54.4278 76.5959 31.687 62.1929 17.9923ZM7.35528 24.5297C17.8476 26.8466 22.1862 35.9223 26.7314 45.4259C28.4433 49.0119 30.1846 52.6569 32.3096 56.0068C30.406 53.1291 28.7679 50.0154 27.1446 46.9606C23.2783 39.6411 19.6185 32.72 12.8745 28.8978C10.7937 27.7173 8.53585 26.8761 6.18946 26.4334C6.55839 25.7841 6.94208 25.1495 7.35528 24.5297ZM59.7432 72.0331H59.7137L59.7727 72.0183L59.7432 72.0331ZM58.8283 71.8412C59.0054 71.7969 59.1825 71.7527 59.3595 71.6936L59.5366 71.7232L59.0201 71.8855L58.8283 71.8412ZM57.9429 71.6346L58.4594 71.5166L58.6364 71.5461C58.4741 71.5903 58.3118 71.6346 58.1347 71.6789L57.9429 71.6346ZM57.0279 71.4133L57.5297 71.31L57.692 71.3395L57.205 71.4428L57.0279 71.4133ZM56.1277 71.1919L56.6147 71.1181L56.7623 71.1476C56.6147 71.1771 56.4524 71.2067 56.3048 71.2362L56.1277 71.1919ZM55.2128 70.9558L55.6703 70.9115L55.8031 70.941L55.3604 71.0001L55.2128 70.9558ZM54.2831 70.7049L54.7258 70.6754L54.8291 70.7049L54.4159 70.7492L54.2831 70.7049ZM53.3681 70.454H53.7813L53.8551 70.4688L53.4714 70.4836L53.3681 70.454ZM52.4237 70.1737H52.7778H52.8074H52.4827H52.4237ZM60.2745 71.0738L59.8318 71.2067L59.7432 71.1919L60.2155 71.0738H60.2745ZM58.9611 71.4575L58.8135 71.428L59.3448 71.2952L59.4628 71.31L58.9611 71.4575ZM57.9281 71.2509L58.4446 71.1476L58.5479 71.1624L58.0609 71.2804L57.9281 71.2509ZM57.0427 71.0591L57.5444 70.9705L57.633 70.9853L57.1607 71.0738L57.0427 71.0591ZM56.1425 70.8525L56.6147 70.7935L56.6737 70.8082L56.2458 70.882L56.1425 70.8525ZM55.2275 70.6459L55.6703 70.6164H55.685L55.2866 70.6606L55.2275 70.6459ZM54.3126 70.4245H54.4897H54.3421H54.3126ZM59.3595 70.9558L58.9316 71.0591L58.8578 71.0443C59.0054 71.0148 59.1529 70.9853 59.3005 70.941L59.3595 70.9558ZM58.0019 70.8968L58.4151 70.823H58.4298L58.0462 70.8968H58.0019ZM47.1849 68.5209L47.539 68.6684L47.3915 68.6389C47.1406 68.5799 46.8897 68.5209 46.6389 68.4618L47.1849 68.5209ZM45.8715 68.0634C45.9896 68.0781 46.1076 68.1076 46.2257 68.1224L46.4618 68.2257C45.9158 68.1519 45.3697 68.0634 44.8532 67.9453C44.4696 67.8125 44.0859 67.6797 43.7169 67.5469C44.4253 67.7535 45.1336 67.9306 45.8715 68.0634ZM44.6762 68.1224C44.8975 68.1962 45.1041 68.27 45.3255 68.329C45.9895 68.5208 46.6536 68.6979 47.3472 68.8455C47.6719 68.9193 47.9965 68.9783 48.3064 69.0374L48.1293 69.0078C46.6979 68.7717 45.296 68.4028 43.9383 67.9306C44.1892 68.0044 44.4253 68.0634 44.6762 68.1224ZM59.8465 71.6346L59.699 71.6051L60.245 71.4428L60.3778 71.4575L59.8465 71.6346ZM60.6877 70.9558H60.6582L61.0419 70.8525L60.6877 70.9558ZM61.4698 69.5981C60.909 69.6424 60.3335 69.6867 59.7727 69.7309C59.1972 69.7605 58.6217 69.7752 58.0609 69.79C57.4264 69.79 56.7918 69.7752 56.1572 69.7605C54.8586 69.6867 53.5747 69.5686 52.3351 69.4358C51.2874 69.2292 50.2544 68.9931 49.2656 68.7422C50.2544 68.8308 51.2579 68.9045 52.2761 68.9488C55.3161 69.244 58.5627 69.4358 61.8978 69.5539L61.4698 69.5981ZM6.10092 26.5662C8.44731 27.0089 10.7199 27.8501 12.8007 29.0307C19.5004 32.838 23.1454 39.7296 27.0118 47.0344C29.1664 51.0926 31.3504 55.2394 34.1395 58.8401C31.5865 55.6526 29.4763 52.0518 27.3955 48.5101C23.4996 41.8546 19.4562 34.963 12.6236 31.1705C10.2772 29.8718 7.72421 28.9569 5.08267 28.4699C5.40733 27.8353 5.74674 27.186 6.10092 26.5662ZM5.02364 28.6322C7.66518 29.1044 10.2034 30.0194 12.5498 31.318C19.3381 35.0959 23.3668 41.9579 27.2479 48.5839C29.8157 52.9668 32.4425 57.4235 35.8809 61.098C32.7081 57.8219 30.1403 53.8965 27.6464 50.0449C23.5439 43.7288 19.3086 37.2061 12.3875 33.4578C9.81972 32.0559 7.04538 31.0819 4.16773 30.5507C4.43336 29.9013 4.71374 29.2668 5.02364 28.6322ZM3.75453 31.5837C3.85783 31.2885 3.97588 30.9934 4.09394 30.713C6.97159 31.2442 9.73118 32.2182 12.2989 33.6054C19.1758 37.3242 23.3963 43.8321 27.4841 50.1334C30.7897 55.2246 34.1838 60.4487 38.9946 64.138C34.5823 60.8619 31.2766 56.2872 27.853 51.5353C23.5586 45.5882 19.1167 39.4345 12.1366 35.7452C9.37701 34.2842 6.42557 33.2365 3.37084 32.6314C3.50365 32.2772 3.62171 31.9231 3.75453 31.5837ZM3.31181 32.8085C6.36655 33.3988 9.30322 34.4465 12.0481 35.9075C18.9839 39.582 23.4111 45.7063 27.6907 51.6387C32.5605 58.3827 37.1648 64.7578 45.1041 67.6502C45.1927 67.6797 45.296 67.7092 45.3845 67.7535C43.348 67.3255 41.3853 66.5581 39.5849 65.4956L39.4078 65.3923L39.2012 65.2595C39.0242 65.1415 38.8323 65.0382 38.6552 64.9201H38.6405C38.5077 64.8316 38.3748 64.743 38.242 64.6545C34.051 61.7768 30.7897 57.4825 27.4103 53.0406C23.1159 47.3738 18.674 41.53 11.8857 38.0178C8.99332 36.5125 5.90907 35.391 2.72153 34.7122C2.91337 34.0776 3.10521 33.4431 3.31181 32.8085ZM2.67725 34.904C5.85004 35.5828 8.91954 36.6896 11.7972 38.1949C18.5412 41.6776 22.9684 47.5066 27.2479 53.1586C29.5501 56.1986 31.8079 59.1648 34.3314 61.6588C33.1803 60.6553 32.044 59.6075 30.9225 58.5155C29.7714 57.2316 28.6351 55.874 27.4988 54.5163C23.0421 49.2037 18.4379 43.714 11.6496 40.3051C8.65391 38.7556 5.49587 37.5898 2.21978 36.8077C2.3526 36.1731 2.51492 35.5386 2.67725 34.904ZM42.374 67.2075C38.9209 65.9383 36.058 63.7543 33.3869 61.1127C36.1318 63.5624 39.0242 65.717 42.374 67.2075ZM2.17551 37.0143C5.31879 37.7522 8.35876 38.8737 11.5463 40.4822C18.2903 43.8764 22.8798 49.3513 27.3365 54.6491C27.8825 55.2984 28.4138 55.933 28.9598 56.5675L28.1629 55.7707C23.3668 50.9746 18.4232 46.0309 11.3987 42.5777C8.93429 41.3677 5.74674 39.9362 1.83609 38.918C1.93939 38.2834 2.0427 37.6489 2.17551 37.0143ZM1.80658 39.1541C5.68772 40.1723 8.84575 41.5743 11.3102 42.7843C18.2903 46.2228 23.234 51.1664 28.0153 55.933C28.9745 56.8922 29.9337 57.8514 30.8782 58.7664C32.2506 60.3159 33.7116 61.7768 35.2758 63.1492C32.8114 61.3194 30.465 59.2238 28.0743 57.084C23.175 52.7159 18.1133 48.1855 11.1626 44.8503C8.44731 43.537 5.25976 42.135 1.59998 41.0578C1.64425 40.4232 1.71804 39.7886 1.80658 39.1541ZM1.57047 41.3086C5.20073 42.3711 8.35876 43.7731 11.0593 45.0717C17.9657 48.3921 23.0274 52.9078 27.912 57.2611C33.1951 61.9834 38.2273 66.4696 44.8828 68.4913C45.9453 68.816 47.0226 69.0669 48.0998 69.244C48.6754 69.3473 49.2509 69.421 49.8412 69.4948H49.8559C49.5313 69.4653 49.2066 69.421 48.882 69.3915C40.4556 68.3733 34.597 63.7248 27.8087 58.3384C22.8503 54.3982 17.7148 50.3253 10.9118 47.1377C8.41779 45.9719 5.23024 44.4667 1.46717 43.2418C1.48192 42.6073 1.51144 41.9579 1.57047 41.3086ZM1.46717 45.1012C1.45241 44.57 1.45241 44.0387 1.46717 43.5074C5.18597 44.7323 8.34401 46.208 10.8232 47.3738C17.5968 50.5466 22.7175 54.6048 27.6759 58.545C33.1803 62.9131 38.0797 66.809 44.2482 68.6832C45.7534 69.1407 47.3029 69.4653 48.8672 69.6571C49.5313 69.7309 50.1953 69.8047 50.8742 69.8638L50.948 69.8785C50.5052 69.8638 50.0625 69.8342 49.6346 69.8047C40.9574 69.1554 34.6413 64.6987 27.3217 59.5485C22.3633 56.0658 17.2426 52.4503 10.6756 49.4546C8.21119 48.333 5.09743 46.9606 1.48192 45.6177C1.48192 45.4259 1.46717 45.2635 1.46717 45.1012ZM1.49668 45.8538C5.05316 47.182 8.13741 48.5396 10.5723 49.6464C17.1098 52.6421 22.2305 56.2429 27.1742 59.7108C32.6933 63.6067 37.6517 67.0894 43.4956 68.875C45.4878 69.4801 47.539 69.8638 49.6051 70.0261C50.3577 70.0851 51.1103 70.1146 51.8777 70.1441L51.9957 70.1737C51.4497 70.1737 50.9037 70.1589 50.3724 70.1441C41.3558 69.8638 34.4642 65.5694 26.4806 60.5815C21.8616 57.7038 16.6375 54.4425 10.4395 51.6829C9.64264 51.3287 8.83099 50.9451 7.96032 50.5466C6.02713 49.6612 3.93161 48.6872 1.64425 47.7723C1.57047 47.1525 1.52619 46.5032 1.49668 45.8538ZM1.65901 48.0969C3.88734 48.9971 5.93859 49.9416 7.82751 50.8122C8.69818 51.2107 9.52458 51.5944 10.3067 51.9485C16.4752 54.7081 21.4779 57.8219 26.3182 60.8324C31.8669 64.2855 36.8844 67.4141 42.4773 69.1111C45.0303 69.8933 47.6719 70.336 50.3429 70.4245C51.1693 70.454 52.0105 70.454 52.8516 70.454L52.9992 70.4983C52.3646 70.5278 51.7301 70.5426 51.0955 70.5573C41.5919 70.6606 33.9625 66.4401 25.1229 61.5702C20.7695 59.1648 15.8259 56.4347 10.1887 53.985C8.97856 53.4538 7.67993 52.8487 6.32227 52.2142C4.96462 51.5796 3.4889 50.886 1.95415 50.2072C1.83609 49.5136 1.74755 48.8053 1.65901 48.0969ZM2.01318 50.5466C3.4889 51.1959 4.87607 51.86 6.18946 52.465C7.56188 53.1144 8.84575 53.7194 10.0706 54.2507C15.6931 56.7004 20.4154 59.2976 24.9901 61.8211C30.5683 64.8906 35.6595 67.7092 41.0607 69.3473C44.3072 70.3655 47.7014 70.8672 51.0955 70.8377C52.0105 70.823 52.9107 70.7935 53.8404 70.7492L54.0027 70.7935C53.2796 70.8525 52.5565 70.9115 51.8334 70.941C41.6362 71.487 33.3869 67.4583 22.9684 62.3524C18.9101 60.3601 14.7339 58.3089 9.93778 56.2872C8.31449 55.5936 6.52887 54.7229 4.63996 53.808C3.94637 53.4685 3.22327 53.1291 2.48541 52.7749C2.29357 52.0223 2.146 51.2845 2.01318 50.5466ZM2.57395 53.1291C3.23803 53.4538 3.88734 53.7637 4.50714 54.0588C6.39606 54.9738 8.18168 55.8444 9.81972 56.538C14.601 58.5598 18.7921 60.611 22.8355 62.6032C28.6646 65.4661 33.8149 67.9896 39.0094 69.5539C43.1414 70.8082 47.2882 71.4723 51.8481 71.2214C52.8369 71.1624 53.8108 71.0886 54.7996 71.0001L54.9767 71.0443C54.1798 71.1476 53.3681 71.2362 52.5712 71.3247C41.341 72.3872 31.7046 68.1519 19.4857 62.7803C16.3867 61.4227 13.1696 60.006 9.68691 58.5598C7.73896 57.7481 5.5549 56.6561 3.26754 55.4903C3.01667 54.7081 2.78055 53.926 2.57395 53.1291ZM3.40035 55.8887C5.59917 57.0103 7.67993 58.0433 9.56885 58.8254C13.0515 60.2716 16.2538 61.6735 19.3529 63.0459C25.3738 65.7022 30.7749 68.0781 36.058 69.6719C41.5181 71.3247 46.8455 72.1659 52.586 71.6199C53.6338 71.5166 54.6815 71.3985 55.7293 71.2509L55.9359 71.31C55.0652 71.4575 54.1945 71.6051 53.3091 71.7232C40.4999 73.4645 29.2254 68.8898 13.6123 62.5442C12.2547 61.9982 10.8675 61.4374 9.45079 60.8471C7.88653 60.2126 6.18946 59.3862 4.40384 58.4565C4.03491 57.6005 3.6955 56.7446 3.40035 55.8887ZM4.59569 58.8992C6.26325 59.7551 7.85702 60.5372 9.33274 61.1275C10.7642 61.703 12.1514 62.2638 13.4943 62.8098C20.3268 65.5842 26.333 68.0339 31.9998 69.7457C39.3193 71.974 46.0928 72.9923 53.3534 72.0035C54.4749 71.856 55.5817 71.6789 56.6737 71.4723L56.8803 71.5313C55.9359 71.7379 54.9914 71.9298 54.0322 72.0921C39.9391 74.586 26.5544 69.9523 9.18517 63.1197C8.15216 62.7065 7.08965 62.2195 5.9681 61.6588C5.48112 60.7586 5.02364 59.8436 4.59569 58.8992ZM6.26325 62.1605C7.23722 62.6327 8.16692 63.0607 9.08186 63.4149C15.3979 65.8941 21.1975 68.0929 26.6872 69.7605C36.3384 72.6971 45.0746 74.0105 54.106 72.402C55.2866 72.1954 56.4524 71.9593 57.6182 71.6936L57.8396 71.7527C56.8361 72.0183 55.8326 72.2544 54.7996 72.4758C40.3228 75.6191 26.0083 71.915 8.96381 65.3923C8.69818 65.289 8.43255 65.1857 8.16692 65.0677C7.47333 64.138 6.85353 63.164 6.26325 62.1605ZM8.52109 65.5842C8.62439 65.6284 8.72769 65.6727 8.83099 65.7022C13.2139 67.3845 17.4049 68.875 21.4779 70.0999C33.2984 73.6859 44.0121 75.1321 54.8586 72.7857C56.0982 72.52 57.3231 72.2101 58.5331 71.9002L58.7545 71.9445C57.692 72.2692 56.6147 72.5643 55.5374 72.8447C42.5954 76.1651 28.7679 74.8222 10.9708 68.4766C10.1001 67.5764 9.28847 66.6024 8.52109 65.5842ZM12.5646 70.1294C12.1956 69.7752 11.8267 69.4063 11.4725 69.0521C13.4352 69.7457 15.3389 70.3655 17.2131 70.941C32.0883 75.4567 44.1892 76.1355 55.6112 73.1989C56.8951 72.8742 58.179 72.5053 59.4333 72.1068L59.5957 72.1364L59.5071 72.2101C58.4446 72.5791 57.3526 72.9185 56.2605 73.2431C43.4218 77.0357 30.0961 76.6816 14.7486 72.0478C13.996 71.4428 13.2729 70.8082 12.5646 70.1294ZM51.0955 77.2128C44.1301 80.12 36.4269 80.7693 29.0778 79.0575C30.2436 79.1165 31.4095 79.146 32.5605 79.146C39.703 79.1017 46.816 77.9802 53.6338 75.8404C53.9437 75.7371 54.2388 75.6486 54.5487 75.5453C53.4124 76.1503 52.2761 76.7111 51.0955 77.2128ZM27.2922 78.6C25.1524 77.9802 23.0864 77.1686 21.109 76.1651C33.623 78.6 45.4878 77.8769 57.0722 74.0105C56.7328 74.2466 56.3786 74.468 56.0244 74.6893C47.5391 77.6408 37.9764 79.3969 27.2922 78.6ZM58.1642 73.2431C57.7805 73.376 57.3968 73.5088 56.9984 73.6416C45.0894 77.626 32.8704 78.2753 19.9431 75.56C18.3936 74.7041 16.9179 73.7301 15.516 72.6676C30.5683 77.08 43.7022 77.3604 56.3638 73.6121C57.1312 73.3907 57.8986 73.1398 58.6512 72.889C58.4889 72.9923 58.3265 73.1103 58.1642 73.2431ZM62.6799 69.3768C60.7467 69.3177 58.843 69.2292 56.9984 69.1259C58.9316 69.1702 60.8943 69.1702 62.9013 69.1554L62.6799 69.3768ZM63.1521 68.8898L63.1079 68.9341C59.271 68.9636 55.5227 68.9193 52.0252 68.7127C50.2691 68.5356 48.5868 68.3143 46.9783 68.0486C46.6831 67.9453 46.388 67.8568 46.1076 67.7535C45.2812 67.4288 44.4991 67.1042 43.7465 66.7352C43.4808 66.6024 43.2152 66.4696 42.9643 66.3368C41.9018 65.776 40.8983 65.1267 39.9391 64.4036C33.7411 59.6813 30.2584 52.4208 26.8938 45.3669C22.319 35.8337 17.9804 26.7433 7.45858 24.3969C8.59488 22.6703 9.89351 21.047 11.3102 19.5566C24.8573 5.18307 47.5095 4.50424 61.883 18.0661C76.2565 31.6279 76.9353 54.2654 63.3735 68.6389C63.2997 68.7127 63.2259 68.8012 63.1521 68.8898Z" fill="white"/>
<path d="M91.3954 37.7489C89.9388 37.7489 88.7989 37.4323 87.9123 36.799C87.0256 36.1657 86.3923 35.279 86.0124 34.0758C85.6957 32.8725 85.4424 31.4792 85.4424 29.8326V22.043C85.4424 20.3331 85.6324 18.8764 85.949 17.6732C86.329 16.4699 86.9623 15.5833 87.8489 14.95C88.7356 14.3167 90.0022 14 91.6488 14C93.1054 14 94.2453 14.2533 95.1319 14.76C96.0186 15.2666 96.6519 15.9633 97.0952 16.9765C97.4752 17.9898 97.6652 19.2564 97.6652 20.7764V21.663H94.6253V20.9663C94.6253 19.9531 94.562 19.1298 94.4353 18.4964C94.3086 17.8631 94.0553 17.3565 93.612 17.0399C93.232 16.7232 92.5354 16.5965 91.6488 16.5965C90.6988 16.5965 90.0022 16.7865 89.5589 17.2298C89.1155 17.6732 88.8622 18.2432 88.7356 19.0031C88.6089 19.7631 88.6089 20.5864 88.6089 21.5363V30.1493C88.6089 31.2259 88.6722 32.1759 88.8622 32.9358C89.0522 33.6958 89.3055 34.2657 89.8122 34.5824C90.2555 34.9624 90.8888 35.1524 91.7754 35.1524C92.5987 35.1524 93.2954 34.9624 93.7387 34.5824C94.182 34.2024 94.4986 33.5691 94.6886 32.8092C94.8786 32.0492 94.942 31.0359 94.942 29.8959V28.3127H91.9654V26.0328H97.8552V37.4323H95.8286L95.5119 34.7724C95.1953 35.659 94.752 36.3556 94.0553 36.8623C93.4854 37.4323 92.5987 37.7489 91.3954 37.7489Z" fill="white"/>
<path d="M110.711 37.4309V14.252H119.704V16.6585H113.941V24.3215H118.627V26.6014H113.941V35.0876H119.767V37.4309H110.711Z" fill="white"/>
<path d="M131.927 37.4309V14.252H134.143L140.73 29.6412V14.252H143.453V37.4309H141.363L134.713 21.5983V37.4309H131.927Z" fill="white"/>
<path d="M156.562 37.4309V14.252H165.555V16.6585H159.792V24.3215H164.479V26.6014H159.792V35.0876H165.619V37.4309H156.562Z" fill="white"/>
<path d="M183.161 37.6828C181.832 37.6828 180.692 37.3662 179.805 36.7962C178.918 36.2262 178.222 35.4029 177.778 34.3896C177.335 33.3764 177.082 32.1731 176.955 30.8431L179.805 30.0832C179.868 30.9065 179.995 31.6664 180.185 32.4897C180.375 33.2497 180.692 33.883 181.198 34.3896C181.642 34.8963 182.275 35.1496 183.098 35.1496C183.921 35.1496 184.555 34.8963 184.998 34.453C185.441 34.0096 185.631 33.313 185.631 32.4264C185.631 31.3498 185.378 30.5265 184.935 29.8932C184.428 29.2599 183.858 28.6266 183.161 27.9299L179.235 24.5101C178.475 23.8134 177.905 23.1168 177.525 22.2935C177.145 21.4702 176.955 20.5203 176.955 19.3803C176.955 17.6704 177.462 16.3405 178.412 15.4538C179.362 14.5039 180.692 14.0605 182.402 14.0605C183.288 14.0605 184.111 14.1872 184.808 14.4406C185.505 14.6939 186.075 15.0739 186.581 15.5172C187.025 16.0238 187.405 16.6571 187.721 17.4171C187.975 18.1771 188.165 19.0637 188.291 20.0769L185.568 20.8369C185.505 20.0769 185.378 19.3803 185.251 18.747C185.061 18.1137 184.808 17.6071 184.365 17.2271C183.921 16.8471 183.288 16.6571 182.528 16.6571C181.768 16.6571 181.072 16.8471 180.628 17.2904C180.185 17.7337 179.932 18.367 179.932 19.1903C179.932 19.887 180.058 20.4569 180.312 20.9636C180.565 21.4702 180.945 21.9135 181.452 22.3569L185.378 25.7767C186.265 26.5366 187.025 27.4233 187.721 28.4999C188.418 29.5765 188.735 30.8431 188.735 32.2364C188.735 33.3763 188.481 34.3896 188.038 35.2129C187.531 36.0362 186.898 36.6695 186.075 37.1128C185.251 37.5562 184.238 37.6828 183.161 37.6828Z" fill="white"/>
<path d="M200.957 37.4309V14.252H204.124V37.4309H200.957Z" fill="white"/>
<path d="M222.869 37.6828C221.54 37.6828 220.4 37.3662 219.513 36.7962C218.626 36.2262 217.93 35.4029 217.486 34.3896C217.043 33.3764 216.79 32.1731 216.663 30.8431L219.513 30.0832C219.576 30.9065 219.703 31.6664 219.893 32.4897C220.083 33.2497 220.4 33.883 220.906 34.3896C221.35 34.8963 221.983 35.1496 222.806 35.1496C223.629 35.1496 224.263 34.8963 224.706 34.453C225.149 34.0096 225.339 33.313 225.339 32.4264C225.339 31.3498 225.086 30.5265 224.643 29.8932C224.136 29.2599 223.566 28.6266 222.869 27.9299L218.943 24.5101C218.183 23.8134 217.613 23.1168 217.233 22.2935C216.853 21.4702 216.663 20.5203 216.663 19.3803C216.663 17.6704 217.17 16.3405 218.12 15.4538C219.07 14.5039 220.4 14.0605 222.11 14.0605C222.996 14.0605 223.819 14.1872 224.516 14.4406C225.213 14.6939 225.783 15.0739 226.289 15.5172C226.733 16.0238 227.113 16.6571 227.429 17.4171C227.683 18.1771 227.873 19.0637 227.999 20.0769L225.276 20.8369C225.213 20.0769 225.086 19.3803 224.959 18.747C224.769 18.1137 224.516 17.6071 224.073 17.2271C223.629 16.8471 222.996 16.6571 222.236 16.6571C221.476 16.6571 220.78 16.8471 220.336 17.2904C219.893 17.7337 219.64 18.367 219.64 19.1903C219.64 19.887 219.766 20.4569 220.02 20.9636C220.273 21.4702 220.653 21.9135 221.16 22.3569L225.086 25.7767C225.973 26.5366 226.733 27.4233 227.429 28.4999C228.126 29.5765 228.443 30.8431 228.443 32.2364C228.443 33.3763 228.189 34.3896 227.746 35.2129C227.239 36.0362 226.606 36.6695 225.783 37.1128C224.959 37.5562 223.946 37.6828 222.869 37.6828Z" fill="white"/>
<path d="M95.4798 74.761C94.1499 74.761 93.0099 74.4443 92.1233 73.8743C91.2367 73.3043 90.54 72.4811 90.0967 71.4678C89.6534 70.4545 89.4001 69.2512 89.2734 67.9212L92.1233 67.1613C92.1866 67.9846 92.3133 68.7446 92.5033 69.5679C92.6933 70.3278 93.0099 70.9611 93.5166 71.4678C93.9599 71.9744 94.5932 72.2277 95.4165 72.2277C96.2398 72.2277 96.8731 71.9744 97.3164 71.5311C97.7597 71.0878 97.9497 70.3911 97.9497 69.5045C97.9497 68.4279 97.6964 67.6046 97.2531 66.9713C96.7464 66.338 96.1764 65.7047 95.4798 65.0081L91.5533 61.5882C90.7934 60.8916 90.2234 60.1949 89.8434 59.3716C89.4634 58.5483 89.2734 57.5984 89.2734 56.4584C89.2734 54.7485 89.7801 53.4186 90.73 52.5319C91.68 51.582 93.0099 51.1387 94.7199 51.1387C95.6065 51.1387 96.4298 51.2654 97.1264 51.5187C97.823 51.772 98.393 52.152 98.8997 52.5953C99.343 53.1019 99.723 53.7353 100.04 54.4952C100.356 55.2552 100.483 56.1418 100.61 57.1551L97.8864 57.915C97.8231 57.1551 97.6964 56.4584 97.5697 55.8251C97.3797 55.1918 97.1264 54.6852 96.6831 54.3052C96.2398 53.9252 95.6065 53.7352 94.8465 53.7352C94.0865 53.7352 93.3899 53.9252 92.9466 54.3685C92.5033 54.8119 92.25 55.4452 92.25 56.2685C92.25 56.9651 92.3766 57.5351 92.6299 58.0417C92.8833 58.5484 93.2633 58.9917 93.7699 59.435L97.6964 62.8548C98.583 63.6148 99.343 64.5014 100.04 65.578C100.736 66.6547 101.053 67.9212 101.053 69.3145C101.053 70.4545 100.8 71.4678 100.356 72.2911C99.8496 73.1144 99.2163 73.7477 98.393 74.191C97.5697 74.6343 96.5564 74.761 95.4798 74.761Z" fill="white"/>
<path d="M113.022 74.5071V51.3281H116.252V61.3343H122.205V51.3281H125.435V74.5071H122.205V63.6776H116.252V74.5071H113.022Z" fill="white"/>
<path d="M137.341 74.5071L142.281 51.3281H145.384L150.324 74.5071H147.284L146.207 68.6806H141.457L140.317 74.5071H137.341ZM141.964 66.3374H145.827L143.864 55.8879L141.964 66.3374Z" fill="white"/>
<path d="M162.229 74.5071V51.3281H166.915C168.435 51.3281 169.765 51.5181 170.778 51.9614C171.791 52.3414 172.551 53.038 173.058 53.9247C173.565 54.8113 173.818 56.0145 173.818 57.4711C173.818 58.3578 173.691 59.1811 173.501 59.941C173.311 60.701 172.995 61.271 172.615 61.7776C172.171 62.2843 171.665 62.6642 170.968 62.8542L174.135 74.5071H171.031L167.992 63.6142H165.458V74.5071H162.229ZM165.458 61.3343H166.662C167.548 61.3343 168.308 61.2077 168.878 61.0177C169.448 60.7644 169.892 60.3844 170.145 59.8144C170.398 59.2444 170.525 58.4844 170.525 57.4711C170.525 56.1412 170.271 55.1279 169.765 54.558C169.258 53.9247 168.308 53.6713 166.788 53.6713H165.332V61.3343H165.458Z" fill="white"/>
<path d="M186.613 74.5071V51.3281H191.68C193.39 51.3281 194.783 51.5814 195.733 52.0881C196.746 52.5947 197.443 53.418 197.886 54.4313C198.329 55.5079 198.519 56.7745 198.519 58.3578V66.9074C198.519 68.554 198.329 69.9472 197.886 71.0872C197.443 72.2271 196.746 73.0504 195.796 73.6204C194.846 74.1904 193.516 74.5071 191.933 74.5071H186.613ZM189.843 72.1638H191.68C192.883 72.1638 193.706 71.9105 194.213 71.4672C194.72 71.0239 195.036 70.3272 195.1 69.4406C195.226 68.554 195.226 67.4774 195.226 66.2741V58.7378C195.226 57.5345 195.163 56.5845 194.973 55.8246C194.846 55.0646 194.466 54.558 193.96 54.178C193.453 53.8613 192.63 53.6713 191.553 53.6713H189.78V72.1638H189.843Z" fill="white"/>
<path d="M216.696 74.761C215.366 74.761 214.226 74.4443 213.339 73.8743C212.453 73.3043 211.756 72.4811 211.313 71.4678C210.869 70.4545 210.616 69.2512 210.489 67.9212L213.339 67.1613C213.402 67.9846 213.529 68.7446 213.719 69.5679C213.909 70.3278 214.226 70.9611 214.732 71.4678C215.176 71.9744 215.809 72.2277 216.632 72.2277C217.456 72.2277 218.089 71.9744 218.532 71.5311C218.976 71.0878 219.166 70.3911 219.166 69.5045C219.166 68.4279 218.912 67.6046 218.469 66.9713C217.962 66.338 217.392 65.7047 216.696 65.0081L212.769 61.5882C212.009 60.8916 211.439 60.1949 211.059 59.3716C210.679 58.5483 210.489 57.5984 210.489 56.4584C210.489 54.7485 210.996 53.4186 211.946 52.5319C212.896 51.582 214.226 51.1387 215.936 51.1387C216.822 51.1387 217.646 51.2654 218.342 51.5187C219.039 51.772 219.609 52.152 220.115 52.5953C220.559 53.1019 220.939 53.7353 221.255 54.4952C221.572 55.2552 221.699 56.1418 221.825 57.1551L219.102 57.915C219.039 57.1551 218.912 56.4584 218.786 55.8251C218.596 55.1918 218.342 54.6852 217.899 54.3052C217.456 53.9252 216.822 53.7352 216.062 53.7352C215.302 53.7352 214.606 53.9252 214.162 54.3685C213.719 54.8119 213.466 55.4452 213.466 56.2685C213.466 56.9651 213.592 57.5351 213.846 58.0417C214.099 58.5484 214.479 58.9917 214.986 59.435L218.912 62.8548C219.799 63.6148 220.559 64.5014 221.255 65.578C221.952 66.6547 222.269 67.9212 222.269 69.3145C222.269 70.4545 222.015 71.4678 221.572 72.2911C221.065 73.1144 220.432 73.7477 219.609 74.191C218.786 74.6343 217.772 74.761 216.696 74.761Z" fill="white"/>
</g>
</g>
<defs>
<clipPath id="clip0_2636_14271">
<rect width="228" height="88" fill="white"/>
</clipPath>
<clipPath id="clip1_2636_14271">
<rect width="227.296" height="88.9265" fill="white" transform="translate(0.704102 -0.462891)"/>
</clipPath>
</defs>
</svg>
