<svg width="227" height="89" viewBox="0 0 227 89" fill="none" xmlns="http://www.w3.org/2000/svg">
<g clip-path="url(#clip0_2811_14728)">
<path d="M0.305682 43.9836C0.305682 40.2824 0.322278 36.5979 0.289084 32.8968C0.289084 32.3989 0.438459 32.1499 0.903174 31.901C3.90722 30.2247 6.89468 28.4986 9.88213 26.7725C12.5376 25.2456 15.1766 23.6855 17.8321 22.1586C20.9357 20.3661 24.0559 18.6068 27.1596 16.7977C27.5911 16.5488 27.84 16.5654 28.255 16.7977C32.288 19.1545 36.3543 21.4781 40.4205 23.8017C44.1383 25.9427 47.856 28.1169 51.5737 30.2579C52.5197 30.8056 53.4824 31.3533 54.4616 31.8346C54.9429 32.0835 55.1089 32.3989 55.1089 32.93C55.0923 40.3156 55.0923 47.7179 55.1089 55.1035C55.1089 55.5848 54.9927 55.9002 54.528 56.1657C49.5821 58.9872 44.6694 61.8419 39.7401 64.6966C35.9228 66.904 32.1055 69.0948 28.3048 71.3188C27.8566 71.5677 27.4915 71.5179 27.0766 71.269C23.2261 69.0284 19.359 66.8044 15.5085 64.5638C11.1601 62.0411 6.86148 59.3855 2.4135 57.0454C0.65422 56.1159 0.189502 55.0537 0.289084 53.2115C0.42186 50.1576 0.305682 47.0706 0.305682 43.9836ZM5.84907 43.0873C5.51713 45.9918 5.73289 48.7801 5.6665 51.5518C5.64991 51.9833 5.78268 52.2654 6.18101 52.4812C10.4464 54.9376 14.7118 57.3939 18.9773 59.8503C21.6494 61.3938 24.3215 62.9539 26.9936 64.514C27.4583 64.7961 27.8732 64.9289 28.3877 64.4974C28.8691 64.0991 29.4831 63.8833 30.0308 63.568C32.9685 61.8751 35.9062 60.1988 38.8438 58.4893C42.213 56.5475 45.5656 54.6056 48.9182 52.6472C49.1174 52.531 49.4493 52.531 49.4493 52.2157C49.4493 51.9169 49.1505 51.8671 48.9348 51.7343C47.2917 50.8049 45.6486 49.8921 44.0055 48.9461C40.4039 46.8714 36.819 44.7802 33.2175 42.689C32.8855 42.5064 32.5702 42.4068 32.2714 42.772C30.8607 44.4815 29.4665 46.2076 28.0392 47.9004C27.7073 48.2988 27.8069 48.4315 28.2218 48.6639C30.8109 50.1244 33.3834 51.6348 35.9892 53.0953C36.6032 53.4438 36.6032 53.6264 36.0058 54.0081C34.4622 54.9873 32.9353 56.0164 31.425 57.0288C31.0599 57.2777 30.7113 57.3441 30.2964 57.0786C29.2674 56.4645 28.2052 55.9002 27.1596 55.2861C24.2053 53.5766 21.2511 51.8671 18.2802 50.1576C15.5749 48.5975 12.8862 47.0374 10.1809 45.4939C8.75354 44.7138 7.34279 43.9338 5.84907 43.0873ZM49.5821 44.8964C49.5987 44.7138 49.6319 44.6142 49.6319 44.5147C49.6319 41.7596 49.6153 39.0045 49.6485 36.2494C49.6485 35.7515 49.3829 35.5523 49.0676 35.3697C46.2295 33.7266 43.3914 32.0835 40.5367 30.457C36.5037 28.1335 32.454 25.8431 28.4541 23.4863C27.8898 23.1544 27.5081 23.1212 26.9936 23.4365C24.0891 25.146 21.1847 26.8389 18.2802 28.5152C14.2803 30.8222 10.2639 33.1291 6.26399 35.4361C6.11462 35.5191 5.93205 35.5855 5.89886 35.7349C5.86567 35.9838 6.14781 36.0004 6.29719 36.0834C8.02327 37.0792 9.78255 38.0253 11.5086 39.0211C14.828 40.9297 18.1474 42.855 21.4336 44.7968C22.0311 45.1453 22.3962 45.0624 22.8112 44.5479C24.0891 42.9711 25.3671 41.411 26.6783 39.8675C27.0932 39.3696 26.9936 39.1041 26.4791 38.8219C23.7904 37.295 21.1017 35.7681 18.413 34.2411C17.7657 33.876 17.7491 33.6934 18.3798 33.3117C19.7905 32.4321 21.2345 31.5856 22.6286 30.6728C23.3755 30.1915 24.0227 30.2081 24.7862 30.6562C29.4334 33.3781 34.1137 36.0502 38.7774 38.7389C42.3458 40.7637 45.9141 42.8052 49.5821 44.8964Z" fill="white"/>
<path d="M132.766 44.182C132.898 47.3354 132.45 50.2399 131.123 52.9618C129.38 56.5136 126.525 58.7541 122.691 59.5674C119.289 60.2811 115.87 60.2811 112.517 59.1525C108.318 57.7417 105.812 54.7709 104.584 50.6382C103.854 48.1985 103.621 45.6923 103.754 43.153C103.92 40.0162 104.468 36.9457 106.227 34.257C108.335 31.0538 111.422 29.3941 115.14 28.8464C117.513 28.4979 119.92 28.4979 122.293 28.9792C127.455 30.0248 130.658 33.1782 132.102 38.1573C132.666 40.1655 132.915 42.2402 132.766 44.182ZM125.944 44.182C126.044 42.6717 125.928 41.012 125.43 39.3855C124.915 37.7424 124.168 36.2487 122.675 35.2362C120.816 33.9749 118.741 33.7757 116.6 34.1574C114.277 34.5724 112.634 35.9001 111.688 38.0743C110.26 41.3771 110.293 44.7961 110.924 48.2317C111.306 50.3395 112.202 52.2647 114.127 53.4763C115.804 54.5219 117.646 54.7709 119.571 54.4887C121.828 54.1568 123.571 53.1112 124.65 51.0532C125.795 48.9453 126.044 46.6882 125.944 44.182Z" fill="white"/>
<path d="M72.3691 44.2984C72.3691 39.5019 72.3857 34.7054 72.3525 29.9089C72.3525 29.3114 72.4853 29.0956 73.116 29.1122C74.7757 29.162 76.4354 29.162 78.0951 29.1122C78.7424 29.0956 78.8751 29.3114 78.8751 29.9089C78.8419 33.361 78.8751 36.7966 78.8419 40.2488C78.8419 40.9293 79.0411 41.062 79.6718 41.062C83.1572 41.0288 86.6425 41.0288 90.1279 41.062C90.7586 41.062 90.9743 40.9293 90.9743 40.2488C90.9411 36.7966 90.9743 33.361 90.9411 29.9089C90.9411 29.3114 91.0739 29.0956 91.7046 29.1122C93.3975 29.162 95.0738 29.1454 96.7667 29.1122C97.2646 29.1122 97.4305 29.245 97.4305 29.7595C97.4139 39.5019 97.4139 49.2277 97.4305 58.9701C97.4305 59.551 97.2148 59.6506 96.7003 59.634C95.0738 59.6008 93.4307 59.5842 91.8042 59.634C91.1237 59.6506 90.9245 59.4847 90.9245 58.7876C90.9577 54.9869 90.9079 51.1696 90.9743 47.3689C90.9909 46.6552 90.6922 46.456 90.1279 46.4062C89.6632 46.3565 89.1819 46.3731 88.7171 46.3731C85.7795 46.3731 82.8584 46.4062 79.9207 46.3565C79.0909 46.3399 78.8088 46.5058 78.8254 47.4021C78.8751 51.2028 78.8419 55.0201 78.8585 58.8208C78.8585 59.4017 78.7424 59.6506 78.0951 59.6174C76.4354 59.5676 74.7757 59.5676 73.116 59.6174C72.4853 59.634 72.3359 59.4515 72.3359 58.8374C72.3691 54.0077 72.3691 49.1613 72.3691 44.2984Z" fill="white"/>
<path d="M218.722 47.0868C218.722 51.0037 218.705 54.9206 218.738 58.8209C218.738 59.4184 218.639 59.6341 217.975 59.6175C216.265 59.5677 214.556 59.5677 212.83 59.6175C212.183 59.6341 212.066 59.4184 212.066 58.8209C212.083 51.0203 212.066 43.2197 212.1 35.4191C212.1 34.7055 211.967 34.4233 211.17 34.4399C208.996 34.5063 206.805 34.4399 204.614 34.4731C204.083 34.4731 203.901 34.3237 203.917 33.776C203.95 32.4483 203.95 31.1371 203.917 29.8094C203.901 29.2783 204.05 29.0957 204.598 29.0957C211.817 29.1123 219.02 29.1123 226.24 29.0957C226.672 29.0957 226.838 29.1787 226.887 29.6766C227.02 31.0707 227.053 32.4483 226.887 33.859C226.821 34.4067 226.605 34.4565 226.174 34.4565C223.966 34.4399 221.759 34.4731 219.535 34.4399C218.821 34.4233 218.672 34.6557 218.689 35.3196C218.738 39.253 218.722 43.1699 218.722 47.0868Z" fill="white"/>
<path d="M144.517 47.0214C144.517 43.0879 144.5 39.1378 144.533 35.2044C144.533 34.6401 144.4 34.4575 143.803 34.4575C141.513 34.4907 139.222 34.4575 136.915 34.4741C136.401 34.4741 136.185 34.3579 136.202 33.7936C136.235 32.4659 136.235 31.1547 136.202 29.827C136.185 29.3124 136.318 29.1133 136.882 29.1133C144.151 29.1299 151.421 29.1299 158.69 29.1299C158.989 29.1299 159.321 29.0635 159.305 29.5448C159.222 30.9721 159.404 32.3995 159.205 33.8268C159.122 34.3911 158.939 34.4741 158.441 34.4741C156.234 34.4575 154.027 34.4907 151.803 34.4575C151.139 34.4409 150.989 34.6567 150.989 35.2874C151.006 43.1211 150.989 50.9383 151.023 58.7721C151.023 59.4525 150.873 59.6683 150.16 59.6517C148.533 59.6019 146.89 59.6019 145.263 59.6517C144.633 59.6683 144.483 59.4691 144.483 58.855C144.533 54.905 144.517 50.9715 144.517 47.0214Z" fill="white"/>
<path d="M192.681 44.3816C192.681 39.5518 192.697 34.7387 192.664 29.909C192.664 29.3115 192.78 29.0958 193.428 29.1124C195.12 29.1621 196.797 29.1455 198.49 29.1124C199.037 29.0958 199.187 29.2783 199.187 29.8094C199.17 39.5187 199.17 49.2113 199.187 58.9205C199.187 59.4516 199.054 59.6342 198.506 59.6342C196.813 59.601 195.137 59.5844 193.444 59.6342C192.813 59.6508 192.664 59.4516 192.664 58.8541C192.681 54.041 192.681 49.2113 192.681 44.3816Z" fill="white"/>
<path d="M164.197 59.373C163.885 59.373 163.63 59.2739 163.432 59.0756C163.233 58.8772 163.134 58.6222 163.134 58.3106V30.6867C163.134 30.375 163.233 30.1201 163.432 29.9217C163.63 29.7234 163.885 29.6242 164.197 29.6242H176.819C179.17 29.6242 181.097 29.9642 182.598 30.6442C184.1 31.3242 185.205 32.2875 185.913 33.5341C186.65 34.7807 187.018 36.2398 187.018 37.9114C187.018 38.9597 186.82 39.8805 186.423 40.6738C186.055 41.4671 185.587 42.1187 185.021 42.6287C184.482 43.1387 183.958 43.5212 183.448 43.7762C184.553 44.2862 185.517 45.1361 186.338 46.3261C187.188 47.4877 187.613 48.876 187.613 50.4909C187.613 52.2758 187.216 53.8341 186.423 55.1657C185.63 56.4973 184.454 57.5315 182.896 58.2681C181.338 59.0047 179.439 59.373 177.201 59.373H164.197ZM169.891 54.4007H176.394C177.782 54.4007 178.83 54.0183 179.538 53.2533C180.247 52.46 180.601 51.525 180.601 50.4484C180.601 49.3434 180.233 48.4227 179.496 47.686C178.788 46.921 177.754 46.5386 176.394 46.5386H169.891V54.4007ZM169.891 41.6513H176.011C177.343 41.6513 178.334 41.3254 178.986 40.6738C179.666 39.9938 180.006 39.1297 180.006 38.0814C180.006 37.0331 179.666 36.1973 178.986 35.574C178.334 34.9224 177.343 34.5965 176.011 34.5965H169.891V41.6513Z" fill="white"/>
</g>
<defs>
<clipPath id="clip0_2811_14728">
<rect width="227" height="89" fill="white"/>
</clipPath>
</defs>
</svg>
