<svg width="227" height="88" viewBox="0 0 227 88" fill="none" xmlns="http://www.w3.org/2000/svg">
<path d="M55.5217 3.89258C60.6392 6.1233 63.0668 10.5847 65.2319 15.4398C72.5801 31.9078 80.2564 48.1789 87.7359 64.5812C92.0661 74.029 90.9507 77.8999 82.3559 83.5423C80.1908 83.5423 77.9601 83.5423 75.795 83.5423C72.9738 81.5084 69.4309 81.7053 66.3472 80.5899C57.49 77.2438 48.6327 77.2438 39.7099 80.5243C36.2982 81.7709 32.4928 81.7053 29.278 83.6079C27.1129 83.6079 24.8821 83.6079 22.717 83.6079C19.8958 81.6397 17.5339 79.2121 15.5 76.4565C15.5 73.8322 15.5 71.2078 15.5 68.649C17.1402 67.9929 17.2715 66.2215 17.8619 64.9749C25.5382 48.6382 33.1489 32.3014 40.6284 15.8991C42.8591 11.1096 45.2867 6.64816 50.1417 4.02378C52.0444 3.89257 53.7502 3.89258 55.5217 3.89258ZM52.8973 40.0433C52.8973 31.1205 52.9629 22.2632 52.8317 13.3403C52.8317 11.9625 53.619 9.86303 51.5851 9.46937C49.8793 9.14133 48.6983 10.716 47.8454 12.1594C47.583 12.6186 47.3205 13.1435 47.1237 13.6028C41.9406 24.7563 36.7574 35.8443 31.6399 46.9979C28.097 54.6742 24.6197 62.4161 21.208 70.158C20.2895 72.2575 20.3551 74.4226 22.0609 76.2597C23.7668 78.0967 25.8007 78.556 28.2938 77.8999C34.9204 76.1941 41.6125 74.6195 48.2391 72.9792C52.2412 71.9951 52.8973 71.1422 52.8973 66.8119C52.8973 57.8891 52.8973 48.9662 52.8973 40.0433Z" fill="white"/>
<path d="M212 51.5247C210.228 53.8867 207.801 54.674 204.914 54.674C200.978 54.6084 197.041 54.7396 193.17 54.6084C190.939 54.5427 190.677 55.3957 191.792 57.1015C193.367 59.3979 195.598 59.8571 198.091 59.0698C199.337 58.6762 200.453 57.9544 201.634 57.4296C204.783 56.0518 207.21 56.6422 208.719 59.201C210.163 61.6286 209.441 64.3841 206.882 66.3524C198.812 72.7165 186.281 70.289 181.098 61.3005C176.636 53.6898 178.08 41.7489 184.116 36.1721C192.842 28.1022 206.817 31.7763 211.016 43.2579C211.278 44.0453 211.081 45.0294 212 45.5543C212 47.6538 212 49.5565 212 51.5247ZM195.335 46.4728C196.713 45.8167 199.14 47.457 199.337 45.2918C199.6 43.258 197.697 41.9458 195.466 41.8145C193.301 41.6833 190.677 43.7172 191.202 45.2918C191.858 47.3913 193.957 45.8167 195.335 46.4728Z" fill="white"/>
<path d="M136.09 46.6704C136.09 52.6409 136.09 57.6928 136.09 62.7447C136.09 67.0749 134.056 69.5025 130.382 69.6337C126.97 69.6993 124.477 67.3374 124.477 63.204C124.346 50.4758 124.346 37.7476 124.477 25.0193C124.477 22.3294 125.396 19.7706 128.479 19.0489C131.891 18.196 134.187 19.9018 135.828 22.6574C139.239 28.5623 142.585 34.5983 145.997 40.5688C147.9 43.9148 148.031 43.9149 149.934 40.6344C152.886 35.4512 155.839 30.2025 158.791 25.0193C159.513 23.7728 160.234 22.5918 161.087 21.4764C162.793 19.2457 165.024 18.3928 167.714 19.2457C170.404 20.0987 171.388 22.1982 171.454 24.7569C171.519 27.2501 171.454 29.7432 171.454 32.2364C171.454 42.4714 171.519 52.7065 171.454 62.8759C171.388 68.1247 167.714 70.8803 163.318 69.1744C160.431 67.9935 159.841 65.5003 159.775 62.7447C159.71 57.8896 159.775 53.1002 159.119 48.0482C157.544 50.935 156.035 53.8875 154.395 56.7743C150.721 63.204 145.407 63.204 141.733 56.7743C139.83 53.6907 138.19 50.5414 136.09 46.6704Z" fill="white"/>
<path d="M104.138 50.8686C104.138 46.8664 104.073 42.8642 104.138 38.8621C104.204 34.6631 106.369 32.1699 109.65 32.1699C113.061 32.1699 115.423 34.4662 115.489 38.6652C115.62 46.9976 115.62 55.3956 115.489 63.728C115.423 67.4677 113.127 69.6985 109.978 69.7641C106.632 69.8297 104.335 67.5334 104.138 63.6624C104.007 59.3322 104.138 55.1332 104.138 50.8686Z" fill="white"/>
<path d="M109.714 28.7579C106.303 28.6923 103.481 25.9367 103.481 22.525C103.481 19.0477 106.434 16.2265 110.042 16.2921C113.454 16.3577 116.275 19.1789 116.275 22.525C116.21 26.0023 113.257 28.8235 109.714 28.7579Z" fill="white"/>
</svg>
