<svg width="228" height="88" viewBox="0 0 228 88" fill="none" xmlns="http://www.w3.org/2000/svg">
<g clip-path="url(#clip0_2636_14301)">
<path d="M6.22367 34.2272C10.1927 34.2272 13.4102 31.0091 13.4102 27.0394C13.4102 23.0697 10.1927 19.8516 6.22367 19.8516C2.25464 19.8516 -0.962891 23.0697 -0.962891 27.0394C-0.962891 31.0091 2.25464 34.2272 6.22367 34.2272Z" fill="white"/>
<path d="M39.1352 34.2279H29.1819C27.9602 34.2279 26.9541 33.2217 26.9541 31.9998V22.0446C26.9541 20.8227 27.9602 19.8164 29.1819 19.8164H39.1352C40.3569 19.8164 41.3632 20.8227 41.3632 22.0446V31.9998C41.3632 33.2576 40.3569 34.2279 39.1352 34.2279Z" fill="#D0D0D0"/>
<path d="M13.4091 40.3691H12.9779H2.05429C0.365447 40.3691 -1 41.7349 -1 43.424V54.7808V66.1015C-1 67.7906 0.365447 69.1564 2.05429 69.1564H10.3548C12.0436 69.1564 13.4091 67.7906 13.4091 66.1015V57.8356C13.4091 56.1465 14.7745 54.7808 16.4633 54.7808H24.3326C26.0214 54.7808 27.3868 53.4152 27.3868 51.7259V43.424C27.3868 41.7349 26.0214 40.3691 24.3326 40.3691H13.4091Z" fill="#ADADAD"/>
<path d="M68.5273 15H72.7675V40.0855H68.5273V15Z" fill="white"/>
<path d="M77.3008 23.6613H81.5409V25.2786C82.5111 24.0567 83.9124 23.3379 85.5293 23.3379C87.398 23.3379 89.0868 24.3082 90.2366 25.9255C91.3146 24.3442 93.0035 23.3379 95.1235 23.3379C98.609 23.3379 101.196 26.1052 101.196 29.6991V40.0855H96.956V30.0226C96.956 28.4053 95.8063 27.1115 94.2252 27.1115C92.5003 27.1115 91.3864 28.5131 91.3864 30.2023V40.0855H87.1464V30.0226C87.1464 28.4053 85.9965 27.1115 84.3437 27.1115C82.6548 27.1115 81.5768 28.5131 81.5768 30.2023V40.0855H77.3008V23.6613Z" fill="white"/>
<path d="M105.106 23.6613H109.347V25.4224C110.64 24.1285 112.401 23.3379 114.557 23.3379C118.977 23.3379 122.642 27.1115 122.642 31.8914C122.642 36.6713 118.977 40.4449 114.557 40.4449C112.401 40.4449 110.64 39.6543 109.347 38.3605V47.6328H105.106V23.6613ZM118.437 31.8914C118.437 29.2678 116.353 27.1834 113.766 27.1834C111.179 27.1834 109.059 29.2678 109.059 31.8914C109.059 34.515 111.179 36.5994 113.766 36.5994C116.353 36.5634 118.437 34.479 118.437 31.8914Z" fill="white"/>
<path d="M124.764 31.8914C124.764 27.1474 128.501 23.3379 133.459 23.3379C138.346 23.3379 142.119 27.1115 142.119 31.8914C142.119 36.6713 138.346 40.4449 133.459 40.4449C128.501 40.4089 124.764 36.6354 124.764 31.8914ZM138.023 31.8914C138.023 29.3038 135.975 27.2912 133.459 27.2912C130.836 27.2912 128.788 29.3038 128.788 31.8914C128.788 34.479 130.836 36.5275 133.459 36.5275C135.975 36.4917 138.023 34.443 138.023 31.8914Z" fill="white"/>
<path d="M143.847 37.9659L146.218 35.0548C147.368 36.2409 148.877 36.9595 150.171 36.9595C151.464 36.9595 152.255 36.2768 152.255 35.3783C152.255 34.2282 150.925 33.9407 148.949 33.2579C146.398 32.3594 144.242 31.2093 144.242 28.3342C144.242 24.9919 147.117 23.3027 150.279 23.3027C152.65 23.3027 154.662 24.2371 155.92 25.6388L153.441 28.1545C152.507 27.2201 151.249 26.5732 150.135 26.5732C149.093 26.5732 148.41 27.1123 148.41 27.9748C148.41 29.0889 149.596 29.4124 151.5 30.0233C153.944 30.8499 156.423 31.964 156.423 35.2344C156.423 38.5769 153.836 40.3737 150.279 40.3737C147.476 40.4097 145.176 39.2598 143.847 37.9659Z" fill="white"/>
<path d="M157.898 37.9659L160.27 35.0548C161.42 36.2409 162.929 36.9595 164.222 36.9595C165.516 36.9595 166.307 36.2768 166.307 35.3783C166.307 34.2282 164.977 33.9407 163.001 33.2579C160.449 32.3594 158.294 31.2093 158.294 28.3342C158.294 24.9919 161.168 23.3027 164.33 23.3027C166.702 23.3027 168.714 24.2371 169.972 25.6388L167.492 28.1545C166.558 27.2201 165.3 26.5732 164.187 26.5732C163.145 26.5732 162.462 27.1123 162.462 27.9748C162.462 29.0889 163.648 29.4124 165.552 30.0233C167.995 30.8499 170.475 31.964 170.475 35.2344C170.475 38.5769 167.888 40.3737 164.33 40.3737C161.528 40.4097 159.228 39.2598 157.898 37.9659Z" fill="white"/>
<path d="M173.277 18.3071C173.277 16.9415 174.427 15.8633 175.757 15.8633C177.122 15.8633 178.236 16.9415 178.236 18.3071C178.236 19.6728 177.122 20.751 175.757 20.751C174.391 20.751 173.277 19.6728 173.277 18.3071ZM173.673 23.6621H177.841V40.0862H173.673V23.6621Z" fill="white"/>
<path d="M186.32 37.9651L186.212 40.0855H182.26V15H186.5V25.5301C187.757 24.0207 189.734 23.266 191.746 23.266C196.345 23.266 199.975 27.0755 199.975 31.8554C199.975 36.6353 196.345 40.4448 191.746 40.4448C189.482 40.4088 187.542 39.5105 186.32 37.9651ZM195.734 31.8554C195.734 29.16 193.687 27.0755 191.026 27.0755C188.404 27.0755 186.32 29.16 186.32 31.8554C186.32 34.5509 188.404 36.6713 191.026 36.6713C193.687 36.6713 195.734 34.5509 195.734 31.8554Z" fill="white"/>
<path d="M203.281 15H207.485V40.0855H203.281V15Z" fill="white"/>
<path d="M227.961 32.611H215.026C215.349 35.2704 217.253 36.9955 219.661 36.9955C221.385 36.9955 223.003 36.1329 223.865 34.6235L227.243 36.0252C225.913 38.7206 223.146 40.4097 219.696 40.4097C214.486 40.4097 210.893 36.6362 210.893 31.8562C210.893 27.0763 214.558 23.3027 219.553 23.3027C224.297 23.3027 227.924 26.6451 227.997 31.6765L227.961 32.611ZM215.457 29.4124H223.505C222.823 27.7592 221.53 26.7169 219.589 26.7169C217.576 26.681 216.175 27.7232 215.457 29.4124Z" fill="white"/>
<path d="M68.5273 46.877H84.1581V51.1177H72.7675V57.2994H82.8645V61.5402H72.7675V71.9624H68.5273V46.877Z" fill="white"/>
<path d="M86.8574 50.1842C86.8574 48.8184 88.0074 47.7402 89.3367 47.7402C90.7023 47.7402 91.8162 48.8184 91.8162 50.1842C91.8162 51.5499 90.7023 52.6281 89.3367 52.6281C87.9713 52.6281 86.8574 51.5499 86.8574 50.1842ZM87.2526 55.5391H91.421V71.9633H87.2526V55.5391Z" fill="white"/>
<path d="M95.8386 55.5384H100.043V57.0478C101.229 55.8617 102.774 55.2148 104.427 55.2148C107.732 55.2148 110.32 57.9104 110.32 61.3605V71.9984H106.079V61.8995C106.079 60.1745 104.786 58.9526 103.097 58.9526C101.336 58.9526 100.043 60.2104 100.007 61.8995V71.9984H95.8027V55.5384H95.8386Z" fill="white"/>
<path d="M113.269 63.734C113.269 58.99 116.97 55.1445 121.389 55.1445C123.725 55.1445 125.522 56.0071 126.743 57.4086V55.5398H130.983V71.9639H127.031L126.923 69.8435C125.701 71.3889 123.833 72.2875 121.389 72.2875C116.934 72.2875 113.269 68.5137 113.269 63.734ZM126.851 63.734C126.851 61.1104 124.803 59.026 122.18 59.026C119.557 59.026 117.473 61.1104 117.473 63.734C117.473 66.3576 119.521 68.478 122.18 68.478C124.803 68.442 126.851 66.3216 126.851 63.734Z" fill="white"/>
<path d="M135.362 55.5384H139.566V57.0478C140.752 55.8617 142.297 55.2148 143.95 55.2148C147.256 55.2148 149.843 57.9104 149.843 61.3605V71.9984H145.603V61.8995C145.603 60.1745 144.309 58.9526 142.621 58.9526C140.86 58.9526 139.566 60.2104 139.53 61.8995V71.9984H135.326V55.5384H135.362Z" fill="white"/>
<path d="M152.792 63.7683C152.792 59.0245 156.529 55.2148 161.488 55.2148C162.709 55.2148 163.931 55.4664 164.973 55.9337V60.6417C164.147 59.6714 162.925 59.0603 161.488 59.0603C158.829 59.0603 156.852 61.1449 156.852 63.7683C156.852 66.3919 158.793 68.4405 161.488 68.4405C162.925 68.4405 164.147 67.8294 164.973 66.8592V71.6031C163.931 72.0704 162.709 72.3218 161.488 72.3218C156.529 72.2858 152.792 68.5123 152.792 63.7683Z" fill="white"/>
<path d="M184.523 64.4878H171.587C171.911 67.1474 173.815 68.8724 176.223 68.8724C177.947 68.8724 179.564 68.0099 180.427 66.5005L183.805 67.902C182.475 70.5975 179.708 72.2866 176.259 72.2866C171.048 72.2866 167.455 68.5129 167.455 63.7332C167.455 58.9532 171.12 55.1797 176.115 55.1797C180.858 55.1797 184.487 58.5219 184.559 63.5533L184.523 64.4878ZM171.983 61.2892H180.032C179.349 59.6361 178.055 58.5939 176.115 58.5939C174.138 58.5579 172.701 59.6001 171.983 61.2892Z" fill="white"/>
</g>
<defs>
<clipPath id="clip0_2636_14301">
<rect width="228" height="88" fill="white"/>
</clipPath>
</defs>
</svg>
