<svg width="228" height="88" viewBox="0 0 228 88" fill="none" xmlns="http://www.w3.org/2000/svg">
<g clip-path="url(#clip0_2038_12168)">
<path d="M107.167 38.3742C107.54 38.006 107.353 37.4537 107.353 37.0857C107.353 33.7725 107.353 30.6435 107.353 27.3305C107.353 26.5941 107.353 26.2261 108.286 26.4102C109.219 26.4102 110.339 26.4102 111.271 26.4102C111.831 26.4102 112.018 26.5943 112.018 27.1464C112.018 33.0364 112.018 38.9263 112.018 45.0002C112.018 45.5523 111.831 45.7364 111.271 45.7364C111.271 45.7364 111.271 45.7364 111.085 45.7364C108.846 46.1046 107.353 45.3684 106.047 43.5278C103.435 40.2146 100.637 37.0857 97.838 33.7726C97.2783 33.9566 97.6514 34.5088 97.6514 34.6929C97.6514 38.006 97.6514 41.319 97.6514 44.8161C97.6514 45.5525 97.4648 45.7364 96.7185 45.7364C95.599 45.7364 94.1065 46.1046 93.3602 45.5525C92.8004 45.1843 93.1736 43.5278 93.1736 42.2393C93.1736 37.2698 93.1736 32.4841 93.1736 27.5144C93.1736 26.7782 93.3602 26.5941 94.1065 26.4102C96.3455 26.2261 97.6514 26.9623 98.9575 28.6188C101.383 31.7479 103.995 34.6928 106.607 37.6378C106.607 37.8219 106.98 38.006 107.167 38.3742Z" fill="white"/>
<path d="M216.5 35.9812C216.5 33.0364 216.5 30.0914 216.5 27.3305C216.5 26.5941 216.686 26.4102 217.433 26.4102C220.605 26.4102 223.59 26.4102 226.762 26.4102C227.508 26.4102 227.695 26.5941 227.695 27.3305C227.695 30.2753 227.695 30.2753 224.708 30.2753C224.335 30.2753 223.963 30.2753 223.59 30.2753C222.842 30.2753 221.536 29.9073 221.351 30.4594C220.978 31.3797 221.163 32.4841 221.163 33.5885C221.163 34.1406 221.536 33.9565 221.911 33.9565C223.402 33.9565 225.081 33.9565 226.574 33.9565C227.135 33.9565 227.32 34.1406 227.32 34.6929C227.507 37.6377 227.508 37.6377 224.523 37.6377C223.402 37.6377 221.911 37.2697 221.536 37.8218C220.978 38.558 221.351 39.8465 221.351 40.9509C221.351 41.6871 221.724 41.8712 222.284 41.8712C223.775 41.8712 225.456 41.8712 226.947 41.8712C227.695 41.8712 227.88 42.0553 227.88 42.7915C227.88 45.7365 227.88 45.7364 225.081 45.7364C222.657 45.7364 220.23 45.7364 217.806 45.7364C217.06 45.7364 216.873 45.5524 216.873 44.8161C216.5 41.6871 216.5 38.9262 216.5 35.9812Z" fill="white"/>
<path d="M132.167 35.9812C132.167 33.0364 132.167 30.0914 132.167 27.3305C132.167 26.5941 132.354 26.4102 133.1 26.4102C136.272 26.4102 139.257 26.4102 142.429 26.4102C142.988 26.4102 143.175 26.5943 143.361 27.1464C143.548 30.2755 143.548 30.2753 140.376 30.2753C139.444 30.2753 138.697 30.2753 137.764 30.2753C137.578 30.2753 137.205 30.2753 137.205 30.2753C136.458 31.1956 137.018 32.3 136.831 33.4044C136.831 33.9565 137.205 33.9565 137.764 33.9565C139.257 33.9565 140.749 33.9565 142.242 33.9565C142.988 33.9565 143.175 34.1406 143.175 34.8768C143.175 37.6377 143.175 37.6377 140.376 37.6377C140.376 37.6377 140.376 37.6377 140.19 37.6377C136.832 37.6377 136.832 37.6379 137.018 40.9509C137.018 41.6871 137.205 41.6871 137.951 41.6871C139.63 41.6871 141.123 41.6871 142.802 41.6871C143.362 41.6871 143.548 41.8712 143.735 42.4233C143.921 45.3683 143.921 45.3683 140.936 45.3683C138.511 45.3683 136.085 45.3683 133.66 45.3683C132.913 45.3683 132.727 45.1842 132.727 44.448C132.167 41.6871 132.167 38.7421 132.167 35.9812Z" fill="white"/>
<path d="M192.805 26.4097C192.992 26.4097 192.992 26.4097 192.992 26.4097C194.483 26.4097 196.35 25.8574 197.468 26.5936C198.401 27.1459 198.776 29.1706 199.149 30.4591C200.267 33.0359 201.2 35.6127 202.133 38.0054C202.133 38.0054 202.133 38.1895 202.321 38.1895C202.694 37.8215 202.694 37.4533 202.879 36.9012C204.185 33.588 205.491 30.275 206.797 26.9618C206.984 26.4097 207.357 26.0416 208.103 26.2256C209.411 26.2256 210.716 26.2256 212.208 26.2256C211.275 28.4344 210.342 30.4589 209.411 32.4836C207.73 36.533 206.051 40.3981 204.372 44.4475C204.185 45.1838 203.812 45.3678 203.066 45.3678C201.013 45.3678 201.013 45.3679 200.082 43.3433C197.655 38.0054 195.417 32.4838 192.992 27.1459C192.992 26.9619 192.805 26.7778 192.805 26.4097Z" fill="white"/>
<path d="M153.81 58.0684C153.81 53.0989 157.542 49.6016 162.579 49.6016C167.617 49.6016 171.348 53.0987 171.348 57.8843C171.348 62.6699 167.617 66.3511 162.766 66.3511C157.355 66.3511 153.624 62.854 153.81 58.0684ZM162.579 62.854C165.378 62.854 167.43 60.8293 167.43 58.0684C167.43 55.1236 165.378 53.0989 162.393 53.0989C159.594 53.0989 157.542 55.1234 157.542 57.8843C157.542 61.0134 159.594 62.854 162.579 62.854Z" fill="white"/>
<path d="M203.812 49.7871C208.851 49.7871 212.583 53.2842 212.583 58.0698C212.583 62.8555 208.851 66.5365 203.812 66.5365C198.776 66.5365 195.044 63.0394 195.044 58.2539C195.044 53.2842 198.776 49.7871 203.812 49.7871ZM203.812 62.8555C206.799 62.8555 208.851 60.8308 208.851 58.0698C208.851 55.3089 206.799 53.2842 204 53.1001C201.201 53.1001 199.149 55.1248 199.149 57.8857C198.962 60.8308 200.828 62.8555 203.812 62.8555Z" fill="white"/>
<path d="M134.407 58.0684C134.407 62.854 130.676 66.5352 125.638 66.3511C120.601 66.3511 116.869 62.854 116.869 58.0684C116.869 53.0989 120.414 49.6016 125.638 49.6016C130.489 49.6016 134.407 53.283 134.407 58.0684ZM125.452 62.854C128.25 62.854 130.489 61.0134 130.489 58.2525C130.489 55.3075 128.623 53.2828 125.638 53.2828C122.839 53.2828 120.787 55.3075 120.787 58.0684C120.601 60.8293 122.653 62.854 125.452 62.854Z" fill="white"/>
<path d="M162.766 32.115C159.407 29.7221 156.235 29.5381 154.183 31.9309C152.131 34.1397 152.131 37.8209 153.997 39.8456C156.236 42.4224 159.407 42.4224 162.952 40.0297C162.952 41.5021 162.952 43.1586 162.952 44.6312C162.952 45.1833 162.579 45.1833 162.206 45.3672C158.288 46.6557 154.556 46.2877 151.571 43.7109C148.399 40.95 147.28 37.4527 148.399 33.4035C149.519 29.5381 152.131 27.1454 156.236 26.2251C158.288 25.8569 160.154 26.041 162.206 26.7772C162.766 26.9613 163.139 27.1452 163.139 27.8816C162.766 29.17 162.766 30.4584 162.766 32.115Z" fill="white"/>
<path d="M107.167 59.5395C108.66 61.5642 110.339 63.5889 112.018 65.9816C110.526 65.9816 109.033 65.9816 107.727 65.9816C107.167 65.9816 107.167 65.6136 106.794 65.2454C105.675 63.5889 104.555 61.9324 103.436 60.2759C103.249 60.2759 103.249 60.2759 103.063 60.2759C103.063 61.5644 103.063 62.6686 103.063 63.9571C103.063 65.9818 103.063 65.9816 101.01 65.9816C100.637 65.9816 100.264 65.9816 99.8907 65.9816C99.3311 65.9816 99.3311 65.7977 99.3311 65.4295C99.3311 60.6439 99.3311 55.6744 99.3311 50.8888C99.3311 50.3365 99.5177 50.1525 100.077 50.3366C101.943 50.3366 103.809 50.3366 105.675 50.3366C108.1 50.3366 109.966 51.9932 110.526 54.0179C111.085 56.5947 110.152 58.4353 107.727 59.5395C107.354 59.3556 107.354 59.5395 107.167 59.5395ZM103.995 53.0976C103.249 52.9135 103.063 53.2815 103.063 54.2018C103.063 55.1221 103.063 56.0424 103.063 56.7788C103.063 57.1468 103.063 57.3309 103.622 57.3309C105.115 57.515 106.607 56.5947 106.794 55.3062C106.794 54.0179 105.861 53.0976 103.995 53.0976Z" fill="white"/>
<path d="M55.2992 55.8611C55.6725 56.4132 56.2321 56.9655 56.6052 57.7017C56.9784 58.2538 57.3516 58.0699 57.538 57.7017C57.7246 58.0699 58.0979 58.254 58.4709 58.4381C59.777 59.1743 61.0831 59.9105 62.389 60.8308C61.6427 62.3032 60.7099 63.7758 59.4038 64.88C53.9931 61.7511 48.3959 58.622 42.9853 55.6772C41.866 55.1249 40.7465 54.0205 39.4404 54.0205C39.2538 52.9161 39.8136 52.1799 40.1866 51.4437C40.7465 50.5234 41.1195 49.6031 41.8658 49.0508C42.239 49.2349 42.6122 49.2349 42.7987 49.419C45.5973 50.8916 48.2095 52.5479 51.0081 54.2046C52.5006 54.5726 53.6201 55.8611 55.2992 55.8611Z" fill="white"/>
<path d="M39.4404 54.0176C40.9331 54.0176 41.866 55.122 42.9855 55.6741C48.3961 58.8032 53.9934 61.7482 59.404 64.8771C58.0979 66.5338 56.792 68.0062 54.9262 69.1106C53.9934 69.6627 53.2469 70.583 52.3142 71.3193C51.7544 71.8715 51.3814 71.8714 50.8215 71.1352C48.3961 67.4539 45.7841 63.7727 43.1719 60.0915C42.0526 58.6191 41.1197 57.1467 40.0003 55.6741C39.627 55.122 39.4404 54.5697 39.4404 54.0176Z" fill="white"/>
<path d="M170.789 37.8223C170.789 35.6135 170.789 33.2208 170.789 31.012C170.789 30.2758 170.603 30.0917 169.856 30.0917C169.11 30.0917 168.177 30.0917 167.431 30.0917C166.685 30.0917 166.498 29.9078 166.498 29.1714C166.498 26.2266 166.498 26.2266 169.297 26.2266C172.282 26.2266 175.454 26.2266 178.438 26.2266C179.186 26.2266 179.371 26.4107 179.371 27.1469C179.371 30.0919 179.371 30.0917 176.386 30.0917C175.267 30.0917 175.08 30.4599 175.08 31.3802C175.08 35.7976 175.08 40.0309 175.08 44.4484C175.08 45.1848 174.894 45.5528 174.147 45.3687C173.028 45.3687 171.535 45.7369 170.789 45.1848C170.23 44.6326 170.603 42.976 170.603 41.8717C170.789 40.5832 170.789 39.2947 170.789 37.8223Z" fill="white"/>
<path d="M81.9795 58.0669C81.9795 55.6742 81.9795 53.4654 81.9795 51.0726C81.9795 50.3364 81.9795 50.1523 82.9124 50.1523C84.7781 50.1523 86.4572 50.1523 88.323 50.1523C91.4948 50.1523 93.5472 52.1769 93.5472 55.4901C93.5472 58.619 91.4948 60.6437 88.323 60.6437C85.8976 60.6437 85.8976 60.6439 85.8976 63.0366C85.8976 63.4048 85.8976 63.7728 85.8976 64.3249C85.8976 66.3496 85.8976 66.3496 83.8452 66.3496C81.9795 66.3496 81.9795 66.3496 81.9795 64.509C81.9795 62.1163 81.9795 60.0916 81.9795 58.0669ZM85.711 55.306C85.711 55.8583 85.711 56.4104 85.711 56.7786C85.711 57.1466 85.711 57.3307 86.2708 57.3307C87.0171 57.3307 87.7633 57.3307 88.5096 57.1466C89.4425 56.7786 90.0023 55.6742 89.6291 54.5698C89.2559 53.4654 88.1364 52.9133 86.4572 53.0974C85.1513 53.2813 86.0842 54.2018 85.8976 54.7539C85.5244 54.938 85.711 55.1221 85.711 55.306Z" fill="white"/>
<path d="M25.2601 29.9073C25.82 30.6435 26.3796 31.3795 26.9393 32.1159C28.0587 33.7724 28.0587 35.0607 26.5662 36.7174H26.3796C20.969 33.5883 15.5583 30.6433 10.1476 27.5144C8.84162 26.7782 7.53562 25.6738 5.85645 25.3058C6.78932 23.6491 7.90875 22.3606 9.21477 21.0723C9.58792 21.6244 10.1477 21.8085 10.7074 22.1767C14.6255 24.3855 18.73 26.7782 22.6481 28.987C23.581 29.5391 24.1408 30.0912 25.2601 29.9073Z" fill="white"/>
<path d="M189.26 61.5665C189.26 62.855 189.26 63.9594 189.26 65.0638C189.26 65.6159 189.072 65.8 188.514 65.9841C185.715 67.0883 181.61 66.3521 179.371 64.3274C176.946 61.9347 176.013 58.2534 177.319 55.1243C178.625 51.9954 181.424 49.9707 184.969 49.9707C185.155 49.9707 185.155 49.9707 185.342 49.9707C188.887 49.9707 189.26 50.3389 189.26 53.6519C189.26 54.0199 189.26 54.3881 189.26 54.9404C186.088 52.9157 183.663 52.9157 181.983 54.9404C180.491 56.781 180.304 59.5419 181.797 61.3825C183.476 63.4071 185.902 63.4071 189.26 61.5665Z" fill="white"/>
<path d="M117.988 40.5829C118.361 40.9511 118.548 41.3191 118.734 41.5032C119.481 42.4235 120.786 42.0553 121.16 41.135C121.533 40.3988 121.346 39.8467 121.346 39.1105C121.346 35.2452 121.346 31.3799 121.346 27.3305C121.346 26.5943 121.533 26.2262 122.279 26.4102C123.398 26.5943 125.078 25.8581 125.637 26.5943C126.197 27.1464 125.824 28.8031 125.824 29.9075C125.824 33.5887 126.01 37.2699 125.637 40.9511C125.451 43.3438 124.331 45.0003 122.093 45.7365C119.667 46.4728 117.428 46.2888 115.562 44.2641C115.003 43.8959 115.003 43.5279 115.562 42.9756C116.495 42.2394 117.242 41.5032 117.988 40.5829Z" fill="white"/>
<path d="M55.4858 26.594C56.4187 28.4347 57.5382 30.2753 57.9114 32.4841C57.5382 32.4841 57.3516 32.4841 56.9785 32.3C54.7395 31.0116 52.5006 29.7231 50.2618 28.4346C48.396 27.5143 46.7169 26.0419 44.4779 25.4896C40.0002 19.2316 33.4701 15.9186 26.1937 14.0779C26.0071 14.0779 25.6339 13.8939 25.4474 13.8939C24.8876 13.7099 24.7012 13.5258 24.7012 12.9736C24.7012 12.4214 25.0742 12.2374 25.4474 12.0533C26.94 11.8693 28.4325 11.6851 29.7386 11.8692C29.7386 12.4214 30.1116 12.6054 30.4848 12.7895C37.5746 16.8388 44.6646 20.8883 51.9409 24.9375C52.8738 25.4898 53.9933 26.594 55.4858 26.594Z" fill="white"/>
<path d="M5.85701 25.3066C7.53618 25.6748 8.84219 26.7791 10.1482 27.5153C15.5589 30.4603 20.9695 33.5894 26.3801 36.7183H26.5667C26.0071 38.0068 25.0742 39.1112 24.3278 40.3995C22.2756 39.6633 20.5963 38.1909 18.5441 37.2706C16.8649 36.5344 15.5588 35.2459 13.6931 34.8777C12.5737 33.4053 11.4542 31.9329 10.5214 30.2762C10.1482 29.7241 9.96165 29.7241 9.5885 30.2762C9.21535 30.8285 8.84219 31.1967 8.46904 31.7488C6.78986 31.0126 5.29727 30.0923 3.80469 29.172C4.17784 27.6994 4.92414 26.411 5.85701 25.3066Z" fill="white"/>
<path d="M142.057 59.5419C142.057 57.8852 142.057 56.2287 142.057 54.5722C142.057 53.2837 141.683 52.9157 140.564 53.0998C140.377 53.0998 140.377 53.0998 140.191 53.0998C138.512 53.0998 138.512 53.0996 138.512 51.4431C138.512 49.9707 138.512 49.9707 140.191 49.9707C142.989 49.9707 145.601 49.9707 148.4 49.9707C149.146 49.9707 149.333 50.1548 149.333 50.891C149.333 53.0996 149.333 53.2837 146.908 53.0998C145.975 53.0998 145.788 53.4678 145.788 54.204C145.788 57.7011 145.788 61.3825 145.788 64.8797C145.788 65.6159 145.601 65.8 144.855 65.8C142.057 65.8 142.057 65.8 142.057 63.0391C142.057 62.1187 142.057 60.8303 142.057 59.5419Z" fill="white"/>
<path d="M86.6438 35.9812C86.6438 38.7421 86.6438 41.503 86.6438 44.2639C86.6438 45.3683 86.2705 45.5524 85.3377 45.5524C84.5914 45.5524 83.6585 45.5524 82.9123 45.5524C82.166 45.5524 82.166 45.3683 82.166 44.8161C82.166 38.9262 82.166 33.2203 82.166 27.3305C82.166 26.7782 82.166 26.4102 82.9123 26.4102C83.8451 26.4102 84.9646 26.4102 85.8975 26.4102C86.6438 26.4102 86.6438 26.5943 86.6438 27.1464C86.6438 30.0914 86.6438 33.0364 86.6438 35.9812Z" fill="white"/>
<path d="M183.848 35.7976C183.848 32.8526 183.848 30.0919 183.848 27.1469C183.848 26.4107 184.036 26.2266 184.782 26.2266C185.902 26.4107 187.581 25.6745 188.141 26.4107C188.699 26.9628 188.326 28.6193 188.326 29.7237C188.326 34.5093 188.326 39.479 188.326 44.2645C188.326 45.1848 188.141 45.3689 187.208 45.3689C186.087 45.1848 184.596 45.9211 183.848 45.1848C183.29 44.6326 183.663 43.1601 183.663 42.0558C183.848 40.0311 183.848 38.0064 183.848 35.7976Z" fill="white"/>
<path d="M23.5819 63.7747C28.2463 69.2965 34.4034 72.2413 41.3065 73.898C41.8664 74.0819 42.6126 74.0821 42.6126 75.0024C42.6126 75.9227 41.8664 75.9225 41.1199 76.1066C40.0006 76.2907 38.8811 76.2907 37.7616 76.2907C37.7616 75.3704 37.0154 75.1865 36.4555 75.0024C28.8061 70.7689 21.3431 66.3515 13.6935 62.1181C12.9472 61.5659 12.2009 60.8297 11.0815 61.0138C10.3352 59.7253 9.58892 58.621 9.40234 57.1484C9.77549 57.1484 10.1487 57.1484 10.7084 57.5166C14.4399 59.7253 18.1713 61.75 21.9028 63.9588C22.4626 63.7747 22.8357 64.5109 23.5819 63.7747Z" fill="white"/>
<path d="M218.925 58.0693C218.925 55.6766 218.925 53.2837 218.925 50.891C218.925 50.1548 219.112 49.9707 219.858 49.9707C222.843 49.9707 222.843 49.9707 222.843 52.7316C222.843 55.8605 222.843 58.8055 222.843 61.9347C222.843 62.6709 223.03 62.855 223.776 62.855C224.896 62.855 226.015 62.855 227.135 62.855C227.693 62.855 227.881 63.0391 227.881 63.5912C228.066 65.9841 228.066 65.9841 225.454 65.9841C223.59 65.9841 221.724 65.9841 219.858 65.9841C219.112 65.9841 218.925 65.8 218.925 65.0638C218.925 62.855 218.925 60.4622 218.925 58.0693Z" fill="white"/>
<path d="M25.2612 29.907C24.3284 29.907 23.5819 29.3547 22.8357 28.9867C18.9177 26.7779 14.813 24.3852 10.8949 22.1764C10.3352 21.8084 9.77549 21.6241 9.40234 21.072C11.0815 19.2314 13.1338 17.759 15.1862 16.2865C15.9325 15.7343 16.119 16.4705 16.3056 16.8386C18.9177 20.7038 21.5298 24.5691 24.1418 28.4344C24.3282 28.9865 24.888 29.5388 25.2612 29.907Z" fill="white"/>
<path d="M55.2996 55.8594C53.6204 55.8594 52.5009 54.5711 51.1949 54.0188C48.3962 52.5464 45.7842 50.8899 42.9856 49.2334C42.6126 49.0493 42.2393 49.0493 42.0527 48.8652C42.9856 47.3928 44.1051 45.7361 45.038 44.2637C45.2246 44.2637 45.5976 44.2637 45.7842 44.4478C48.0232 45.7361 50.262 46.8405 52.3143 48.129C53.0606 48.497 53.9935 48.497 54.1801 49.6014C53.9935 49.7855 53.9935 49.9696 53.8069 50.1537C52.874 51.074 53.0606 52.1782 53.8069 53.0985C54.1801 54.0188 54.7399 54.9391 55.2996 55.8594Z" fill="white"/>
<path d="M53.9937 49.6012C53.8071 48.4968 52.6876 48.497 52.1279 48.1288C50.0756 46.8403 47.8366 45.552 45.5978 44.4476C45.4112 44.2635 45.038 44.2637 44.8516 44.2637C45.7844 42.607 46.5307 40.7664 47.0904 38.9258C47.6502 39.1099 48.2098 39.294 48.5831 39.6622C51.3817 41.1346 53.9937 42.9752 56.9787 44.2637C56.2325 46.2882 55.2996 48.1288 53.9937 49.6012Z" fill="white"/>
<path d="M11.2676 60.8288C12.387 60.6447 13.1333 61.565 13.8796 61.9332C21.5292 66.1665 28.9922 70.5839 36.6416 74.8174C37.2015 75.1854 37.9477 75.3695 37.9477 76.1057C36.2686 76.1057 34.5895 75.9216 33.0968 75.7377C32.9101 74.8174 32.1639 74.6333 31.4176 74.2651C26.38 71.3203 21.156 68.3753 16.1185 65.4303C15.5588 65.0623 14.9991 64.6941 14.2528 64.8782C12.7602 63.5897 11.8273 62.3014 11.2676 60.8288Z" fill="white"/>
<path d="M9.96094 43.7114C10.5207 42.0549 11.4536 40.3982 12.573 38.9258C12.7596 39.1099 12.9462 39.4781 13.3193 39.6622C15.1851 40.7664 16.8642 41.6867 18.73 42.607C19.8493 43.1591 20.5958 44.0796 21.9017 44.2637C21.1554 45.7361 20.4092 47.3926 20.036 49.0491C19.2897 48.865 18.5434 48.497 17.9836 48.1288C15.1851 46.6564 12.573 45.184 9.96094 43.7114Z" fill="white"/>
<path d="M55.4856 26.5941C53.9929 26.5941 52.8736 25.4897 51.7541 24.9376C44.6642 20.8882 37.3878 16.8388 30.298 12.7894C29.9248 12.6054 29.5518 12.4213 29.5518 11.8691C31.0443 11.8691 32.537 12.0532 34.0295 12.2373C34.2161 12.7895 34.5892 12.9735 34.9624 13.1576C40.1864 16.1026 45.597 19.2316 50.8212 22.1767C51.3809 22.5447 51.9405 23.0968 52.8734 22.9129C53.9929 24.0171 54.5527 25.3056 55.4856 26.5941Z" fill="white"/>
<path d="M19.4766 51.8114C19.4766 53.4679 19.6632 55.1244 19.8499 56.597C19.29 56.597 18.917 56.4129 18.5438 56.2288C16.678 55.1244 14.9989 54.02 13.1331 53.0997C11.6405 52.3635 10.1479 51.0752 8.46875 50.707C8.46875 49.2346 8.46873 47.5779 9.02846 46.1055C11.2674 47.0258 13.1331 48.4982 15.1854 49.4185C16.678 50.3388 17.9841 51.4432 19.4766 51.8114Z" fill="white"/>
<path d="M58.4708 37.4538C58.6574 39.1105 58.0977 40.5829 57.7245 42.0553C56.232 41.5032 54.7394 40.3988 53.2467 39.6626C51.1944 38.7423 49.5152 37.2699 47.4629 36.5335C47.6495 34.877 47.2765 33.2205 47.0898 31.748C47.6495 31.748 48.0227 31.932 48.3958 32.1161C50.2615 33.2205 52.1273 34.3249 53.993 35.2452C55.4857 36.1655 56.7916 37.2699 58.4708 37.4538Z" fill="white"/>
<path d="M21.7154 44.2641C20.4093 44.08 19.4765 43.1597 18.5436 42.6076C16.6779 41.6873 14.9987 40.5829 13.133 39.6626C12.9464 39.4785 12.7599 39.2944 12.3867 38.9264C12.5733 38.5582 12.9464 38.0061 13.133 37.822C14.0659 36.9017 14.0659 35.9814 13.5062 34.877C15.3719 35.2451 16.6779 36.5336 18.357 37.2698C20.2227 38.1902 22.0887 39.6626 24.1408 40.3988C23.3946 41.6873 22.6483 42.9758 21.7154 44.2641Z" fill="white"/>
<path d="M13.8799 64.879C14.6262 64.695 15.1859 65.0631 15.7456 65.4312C20.7832 68.3762 26.0072 71.3212 31.0448 74.266C31.6044 74.6342 32.5373 74.8183 32.7239 75.7386C26.567 75.0022 21.1562 72.2413 16.6785 68.008C15.7456 67.0877 14.6262 66.1675 13.8799 64.879Z" fill="white"/>
<path d="M53.0597 22.9139C52.3135 23.0978 51.7538 22.5457 51.0075 22.1777C45.7833 19.2326 40.3727 16.1036 35.1487 13.1586C34.7755 12.9745 34.2158 12.7905 34.2158 12.2383C41.8654 13.3426 48.0223 17.0238 53.0597 22.9139Z" fill="white"/>
<path d="M23.5822 63.7742C23.0224 64.3263 22.4627 63.7742 22.0895 63.5901C18.358 61.5654 14.6265 59.3568 10.895 57.148C10.5219 56.9639 10.1488 56.7798 9.58907 56.7798C9.02935 55.6756 8.84277 54.5712 8.84277 53.4668C9.21592 53.4668 9.4025 53.4668 9.77565 53.6509C12.5743 55.3074 15.3729 56.9639 18.1716 58.4365C19.1044 58.9886 19.8507 59.7248 21.1566 59.7248C21.7164 61.1972 22.6493 62.4857 23.5822 63.7742Z" fill="white"/>
<path d="M59.9639 53.8345C61.0834 51.81 61.8296 49.6012 62.7625 47.3926C63.6954 48.4968 65.1879 49.0489 66.494 49.6012C66.1208 51.8098 65.5611 53.8345 64.6282 55.8592C64.4416 55.6751 64.0684 55.6751 63.882 55.491C62.5759 55.3069 61.4564 54.2027 59.9639 53.8345Z" fill="white"/>
<path d="M44.4775 25.3066C46.5299 25.8589 48.209 27.3313 50.2614 28.2516C52.5002 29.54 54.7391 30.8285 56.9781 32.1168C57.3512 32.3009 57.5378 32.3011 57.911 32.3011C58.4706 33.2214 58.0974 34.1415 58.4706 34.8777C57.911 34.8777 57.5378 34.6938 57.1647 34.5097C55.4854 33.5894 53.6197 32.485 51.9405 31.5647C50.0748 30.6444 48.3956 29.356 46.5299 28.6198C45.7836 27.6995 45.0372 26.5951 44.4775 25.3066Z" fill="white"/>
<path d="M20.969 59.7258C19.8495 59.7258 18.9166 58.9898 17.9837 58.4375C15.1852 56.9651 12.3866 55.3084 9.58797 53.6519C9.21482 53.4678 9.02824 53.4679 8.65509 53.4679C8.28194 52.5476 8.46852 51.6273 8.46852 50.707C10.3343 51.075 11.6403 52.3635 13.1329 53.0998C14.9986 54.0201 16.6778 55.1245 18.5436 56.2289C18.9166 56.4128 19.2898 56.5969 19.8495 56.5969C20.2227 57.7013 20.5959 58.8055 20.969 59.7258Z" fill="white"/>
<path d="M19.4764 51.8112C17.9839 51.443 16.6778 50.3386 15.3718 49.6024C13.3195 48.498 11.2671 47.2097 9.21484 46.2894C9.40142 45.3691 9.58798 44.6329 9.96112 43.8965C12.5732 45.3691 15.1852 46.8415 17.7973 48.3141C18.5436 48.6821 19.1032 49.0503 19.8497 49.2344C19.663 49.9706 19.663 50.8909 19.4764 51.8112Z" fill="white"/>
<path d="M46.3438 28.8027C48.3959 29.355 50.0752 30.6435 51.7544 31.7479C53.6201 32.6682 55.2993 33.7724 56.9784 34.6928C57.3516 34.8768 57.7248 35.0609 58.2845 35.0609C58.4711 35.7971 58.4709 36.7175 58.4709 37.4537C56.7918 37.2696 55.4859 35.9812 53.9932 35.2449C52.1274 34.1406 50.2617 33.0362 48.3959 32.1159C48.0229 31.9318 47.6497 31.5638 47.09 31.7479C46.9034 30.6435 46.5302 29.723 46.3438 28.8027Z" fill="white"/>
<path d="M59.9635 53.8359C61.4562 54.204 62.5755 55.1243 63.8816 55.6765C64.0682 55.8606 64.4412 55.8605 64.6278 56.0446C64.0682 57.7011 63.3218 59.1735 62.3889 60.6461C61.083 59.9099 59.7769 59.1737 58.471 58.2534C58.0977 58.0693 57.7245 57.8852 57.5381 57.5172C58.2843 56.4128 59.2172 55.1243 59.9635 53.8359Z" fill="white"/>
<path d="M47.4629 36.5332C49.5152 37.2694 51.381 38.742 53.2467 39.6623C54.7394 40.3985 56.0454 41.5029 57.7245 42.055C57.5379 42.7912 57.3514 43.5276 56.9782 44.2638C54.1796 42.7914 51.381 41.1347 48.5824 39.6623C48.0227 39.2941 47.6495 39.11 47.0898 38.9261C47.2765 38.1897 47.4629 37.2694 47.4629 36.5332Z" fill="white"/>
<path d="M3.6177 28.9863C5.1103 29.9066 6.60289 31.011 8.28206 31.5631C7.53577 32.8516 6.7895 34.3241 6.0432 35.6126C5.67005 35.4285 5.29689 35.2444 4.92374 35.0604C3.80429 34.5082 2.8714 33.7719 1.75195 33.4038C2.1251 31.9313 2.8714 30.4589 3.6177 28.9863Z" fill="white"/>
<path d="M1.75228 33.5879C2.87171 33.9559 3.80462 34.6921 4.92405 35.2444C5.2972 35.4283 5.67037 35.6124 6.04352 35.7965C5.4838 37.453 4.7375 38.9256 4.17777 40.5821C3.2449 39.4777 1.75231 38.9256 0.446289 38.3733C0.819438 36.7168 1.00598 35.0603 1.75228 33.5879Z" fill="white"/>
<path d="M6.6031 61.0131C8.46885 64.142 10.7078 66.9031 13.3198 69.4799C14.0661 70.032 14.8124 70.5841 15.1855 71.5044C10.8943 68.5596 7.16283 65.0623 4.55078 60.4609C5.29708 60.4609 5.8568 61.1971 6.6031 61.0131Z" fill="white"/>
<path d="M60.3364 26.5937C58.284 23.4646 56.0451 20.5197 53.2464 17.9429C52.6868 17.5748 52.3137 17.0225 51.7539 16.6544C52.5002 16.4704 52.8734 16.8385 53.2464 17.2066C56.7915 19.7834 59.9632 22.9125 62.2021 26.7778C61.4557 26.9619 60.896 26.4096 60.3364 26.5937Z" fill="white"/>
<path d="M3.24497 45.7358C3.24497 47.2082 3.24497 48.8647 3.24497 50.3373C2.31211 49.9691 1.37923 49.6011 0.446361 49.0488C0.0732128 47.5764 -0.113384 45.9199 0.07319 44.4473C1.19264 44.6314 2.12554 45.5517 3.24497 45.7358Z" fill="white"/>
<path d="M66.8671 42.6072C67.0536 43.8957 67.0536 45.1842 66.8671 46.4725C66.3073 46.4725 65.9343 46.2884 65.5611 45.9202C64.8148 45.5522 64.2551 44.9999 63.3223 44.9999C63.5087 43.7116 63.6953 42.4231 63.8819 41.1348C65.0014 41.3189 65.7477 42.2392 66.8671 42.6072Z" fill="white"/>
<path d="M66.8671 42.6078C65.7478 42.2398 65.0015 41.3195 63.6954 41.1354C63.6954 39.663 63.5088 38.1904 63.5088 36.718C64.6283 36.5339 65.1879 37.6383 66.3074 37.6383C66.8672 39.2948 66.494 40.9513 66.8671 42.6078Z" fill="white"/>
<path d="M0.446289 49.0508C1.37916 49.419 2.31203 49.7872 3.2449 50.3393C3.61805 51.9958 3.80462 53.6523 4.17777 55.1249C3.2449 55.1249 2.68514 54.3887 1.75228 54.3887C1.19255 52.7322 0.632864 50.8914 0.446289 49.0508Z" fill="white"/>
<path d="M63.3214 45C64.2542 45 64.8141 45.5521 65.5603 45.9203C65.9336 46.1042 66.3066 46.4726 66.8663 46.4726C67.0529 47.5768 66.4932 48.6812 66.4932 49.7856C65.1871 49.0494 63.8812 48.6812 62.7617 47.5768C62.9483 46.6565 63.1349 45.9203 63.3214 45Z" fill="white"/>
<path d="M66.3068 37.822C65.1873 37.822 64.6275 36.7176 63.5082 36.9017C63.1349 35.2452 62.7617 33.5887 62.3887 31.748C63.3215 31.748 63.6948 32.6682 64.6275 32.4843C65.5603 34.1408 65.9336 35.9814 66.3068 37.822Z" fill="white"/>
<path d="M1.75195 54.3887C2.68482 54.3887 3.24458 55.1247 4.17746 55.1247C4.92376 57.1494 5.67002 58.99 6.60289 61.0147C5.85659 61.1988 5.29687 60.6467 4.55057 60.4626C3.43112 58.622 2.49825 56.5973 1.75195 54.3887Z" fill="white"/>
<path d="M3.2448 45.7353C2.12535 45.5512 1.19245 44.6309 0.0730051 44.4468C0.0730051 43.1585 -0.113558 42.0541 0.259591 40.7656C0.63274 40.9497 1.0059 41.1338 1.37905 41.3177C2.12535 41.6859 2.87161 42.238 3.80449 42.238C3.61791 43.5265 3.43137 44.6309 3.2448 45.7353Z" fill="white"/>
<path d="M64.8147 32.4844C63.8818 32.6685 63.5086 31.7482 62.5757 31.7482C61.8294 30.0917 61.0832 28.435 60.3369 26.5944C60.8966 26.4105 61.4562 26.7787 62.2027 26.7787C63.322 28.4352 63.8818 30.4597 64.8147 32.4844Z" fill="white"/>
<path d="M3.80474 42.4244C2.87187 42.4244 2.12559 41.8723 1.3793 41.5041C1.00615 41.32 0.632986 41.1361 0.259837 40.952C0.073263 40.0317 0.446378 39.1112 0.632952 38.375C1.93898 38.9273 3.43158 39.4794 4.36443 40.5838C4.17786 41.1359 3.99132 41.6882 3.80474 42.4244Z" fill="white"/>
</g>
<defs>
<clipPath id="clip0_2038_12168">
<rect width="228" height="88" fill="white"/>
</clipPath>
</defs>
</svg>
