<svg width="228" height="88" viewBox="0 0 228 88" fill="none" xmlns="http://www.w3.org/2000/svg">
<path d="M82.1934 54.3085V37.8164H85.7422V45.2853L91.2749 37.8164H95.3775L89.4378 45.3296L95.5938 54.3085H91.3199L85.7422 45.6796V54.309L82.1934 54.3085Z" fill="white"/>
<path d="M97.2354 54.3085V37.8164H100.92L108.266 47.4142C108.533 47.7737 108.766 48.1564 108.963 48.5577C109.216 49.05 109.479 49.63 109.752 50.2977C109.669 49.8099 109.608 49.3255 109.57 48.8445C109.532 48.3636 109.513 47.7627 109.514 47.0418V37.8164H112.903V54.3085H109.423L101.874 44.5313C101.607 44.1725 101.376 43.7897 101.181 43.3878C100.931 42.8955 100.667 42.3076 100.388 41.624C100.471 42.0969 100.531 42.5759 100.569 43.0611C100.607 43.5444 100.627 44.1555 100.627 44.8911V54.3085H97.2354Z" fill="white"/>
<path d="M116.667 54.3085V37.8164H120.216V54.3085H116.667Z" fill="white"/>
<path d="M130.203 40.8126V54.3085H126.643V40.8126H122.585V37.8164H134.261V40.8126H130.203Z" fill="white"/>
<path d="M143.716 54.3085V37.8164H153.488V40.7898H147.265V44.1803H153.488V47.178H147.265V54.3085H143.716Z" fill="white"/>
<path d="M155.79 38.7181C155.793 38.2231 155.992 37.7493 156.345 37.3992C156.697 37.0491 157.174 36.851 157.672 36.8478C157.921 36.8443 158.168 36.8907 158.399 36.9845C158.63 37.0782 158.839 37.2173 159.015 37.3933C159.192 37.5662 159.333 37.7725 159.43 38.0002C159.526 38.228 159.576 38.4725 159.576 38.7196C159.576 38.9666 159.526 39.2112 159.43 39.4389C159.333 39.6667 159.192 39.873 159.015 40.0458C158.84 40.2237 158.631 40.3645 158.401 40.4595C158.17 40.5545 157.922 40.6019 157.672 40.5986C157.424 40.6013 157.177 40.5526 156.949 40.4557C156.72 40.3588 156.514 40.2157 156.344 40.0356C156.168 39.8643 156.027 39.6594 155.932 39.433C155.837 39.2066 155.789 38.9635 155.79 38.7181V38.7181ZM156.073 54.3089V43.2574H159.293V54.3084L156.073 54.3089Z" fill="white"/>
<path d="M162.567 54.3076V43.2567H165.731V44.9932C166.236 44.3366 166.876 43.7932 167.607 43.3986C168.292 43.0754 169.039 42.9012 169.797 42.8876C170.556 42.874 171.308 43.0214 172.005 43.3199C172.592 43.6107 173.077 44.0724 173.393 44.6437C173.566 44.9704 173.687 45.3219 173.751 45.6855C173.837 46.2881 173.873 46.8967 173.859 47.5052V54.3091H170.628V48.8436C170.628 47.4853 170.469 46.5882 170.152 46.1522C169.954 45.919 169.702 45.7374 169.417 45.6233C169.133 45.5092 168.825 45.4661 168.519 45.4979C168.093 45.4938 167.672 45.5885 167.289 45.7745C166.953 45.9407 166.658 46.1774 166.423 46.4684C166.188 46.7593 166.02 47.0975 165.929 47.4595C165.826 47.9668 165.782 48.4843 165.798 49.0016V54.3076H162.567Z" fill="white"/>
<path d="M188.063 54.309H184.932L184.977 52.7211C184.597 53.3643 184.051 53.8951 183.396 54.2589C182.698 54.6043 181.925 54.7726 181.145 54.7489C180.464 54.7699 179.788 54.6333 179.169 54.3498C178.551 54.0663 178.007 53.6437 177.581 53.1154C176.629 51.882 176.149 50.353 176.226 48.8007C176.226 46.9387 176.669 45.4872 177.557 44.4462C178.015 43.9244 178.586 43.5129 179.227 43.2428C179.869 42.9727 180.564 42.851 181.259 42.887C182.02 42.8708 182.77 43.0617 183.43 43.4388C184.088 43.8423 184.629 44.4094 185 45.084V43.258H188.06L188.063 54.309ZM185.118 48.7662C185.165 47.9159 184.896 47.0781 184.363 46.4117C184.111 46.1246 183.797 45.8976 183.445 45.7475C183.093 45.5974 182.712 45.5282 182.329 45.5449C181.941 45.5257 181.554 45.5931 181.196 45.7422C180.838 45.8913 180.518 46.1183 180.26 46.4064C179.726 47.0746 179.457 47.9147 179.506 48.7667C179.454 49.6092 179.718 50.4409 180.249 51.1003C180.802 51.6349 181.543 51.9341 182.315 51.9341C183.087 51.9341 183.828 51.6349 184.381 51.1003C184.908 50.4391 185.17 49.6079 185.118 48.7662V48.7662Z" fill="white"/>
<path d="M191.103 54.3082V43.2572H194.265V44.9938C194.771 44.3371 195.41 43.7937 196.141 43.3991C196.831 43.0526 197.596 42.877 198.369 42.8872C199.117 42.8636 199.86 43.0118 200.541 43.3204C201.128 43.6118 201.612 44.0734 201.93 44.6442C202.102 44.971 202.222 45.3225 202.286 45.6861C202.372 46.2886 202.409 46.8973 202.394 47.5058V54.3096H199.163V48.8442C199.163 47.4858 199.004 46.5887 198.687 46.1528C198.489 45.9195 198.236 45.7379 197.952 45.6239C197.667 45.5098 197.358 45.4667 197.053 45.4984C196.627 45.4942 196.206 45.5889 195.824 45.775C195.453 45.9566 195.132 46.2257 194.89 46.5587C194.689 46.8284 194.544 47.1347 194.463 47.4601C194.361 47.9675 194.317 48.4849 194.333 49.0022V54.3082H191.103Z" fill="white"/>
<path d="M213.65 53.9811C213.22 54.2409 212.754 54.4365 212.267 54.5616C211.748 54.6902 211.215 54.7528 210.68 54.7478C209.89 54.778 209.101 54.646 208.363 54.3601C207.626 54.0741 206.956 53.6403 206.395 53.0856C205.839 52.5142 205.406 51.8366 205.121 51.094C204.837 50.3514 204.707 49.5591 204.739 48.7651C204.709 47.9822 204.842 47.2016 205.129 46.4719C205.415 45.7421 205.85 45.0788 206.406 44.5233C206.977 43.9744 207.654 43.5462 208.397 43.2647C209.139 42.9832 209.931 42.8542 210.725 42.8854C211.259 42.8792 211.792 42.936 212.312 43.0546C212.781 43.1672 213.231 43.3452 213.65 43.5836L213.627 46.8049C213.29 46.4608 212.886 46.1878 212.441 46.0021C211.995 45.8164 211.517 45.7219 211.034 45.7241C210.633 45.7051 210.233 45.7688 209.858 45.911C209.483 46.0532 209.142 46.271 208.857 46.5506C208.406 46.9801 208.098 47.536 207.974 48.1441C207.85 48.7522 207.915 49.3834 208.162 49.9535C208.408 50.5235 208.824 51.0052 209.354 51.3341C209.883 51.6629 210.501 51.8234 211.125 51.7939C211.603 51.8028 212.077 51.7065 212.513 51.5119C212.945 51.3028 213.325 51.0028 213.628 50.6329L213.65 53.9811Z" fill="white"/>
<path d="M226.947 49.5783H218.593C218.663 50.2572 218.972 50.8897 219.466 51.364C219.988 51.781 220.646 51.9912 221.315 51.9542C221.844 51.9677 222.367 51.8508 222.839 51.6139C223.282 51.3735 223.652 51.0196 223.911 50.589L226.518 51.8847C225.986 52.7823 225.227 53.5258 224.316 54.0413C223.369 54.5314 222.311 54.774 221.244 54.7462C220.459 54.7862 219.674 54.6648 218.939 54.3895C218.204 54.1143 217.534 53.6912 216.971 53.1468C216.431 52.5706 216.014 51.8927 215.743 51.1533C215.472 50.414 215.353 49.6281 215.393 48.8423C215.366 48.0556 215.498 47.2715 215.781 46.5365C216.065 45.8015 216.494 45.1307 217.044 44.564C218.18 43.5053 219.673 42.9071 221.23 42.8872C222.788 42.8673 224.296 43.4272 225.459 44.4566C226.486 45.5054 227 46.9346 227 48.7441C227 48.8413 226.997 48.9487 226.989 49.0649C226.981 49.1811 226.971 49.3518 226.947 49.5783ZM223.751 47.6395C223.707 47.0349 223.433 46.4695 222.986 46.0575C222.498 45.6781 221.887 45.488 221.268 45.5227C220.643 45.4909 220.026 45.6804 219.528 46.0575C219.065 46.4661 218.769 47.0289 218.696 47.6395H223.751Z" fill="white"/>
<path d="M50.589 48.8862L37.534 69.8223H20.5006L5.041 44.0231L6.63392 41.1752L4.54981 36.998L0 44.2127L17.9859 74.4034H39.988L52.9036 53.7094L50.589 48.8862Z" fill="#D1D1D1"/>
<path d="M36.5696 63.8239L38.8054 59.5749H26.8809L11.6777 32.975L19.8654 18.5845H22.7548L25.4945 14.002H17.3077L6.63574 32.8126L24.3282 63.8239H36.5696Z" fill="white"/>
<path d="M52.4659 14H30.4644L17.5488 35.3396L19.8673 39.842L32.9203 18.5826H49.9538L65.4134 45.026L63.8204 48.1962L65.9045 52.2124L70.4543 44.8368L52.4659 14Z" fill="#D1D1D1"/>
<path d="M33.8847 24.582L31.6494 28.8311H43.5733L58.7761 55.4305L50.5884 69.821H47.7019L44.9623 74.4035H53.15L63.822 55.5919L46.1261 24.582H33.8847Z" fill="white"/>
</svg>
