<svg width="227" height="89" viewBox="0 0 227 89" fill="none" xmlns="http://www.w3.org/2000/svg">
<g clip-path="url(#clip0_2934_14803)">
<path d="M24.3591 71.0476C18.3687 70.9821 11.8709 68.5107 6.68244 63.2077C-0.371875 55.9897 -2.64693 47.3477 0.184612 37.6419C2.59061 29.3928 8.1064 23.7788 16.0936 20.7345C23.8681 17.772 31.5771 18.2957 38.8279 22.3221C46.7169 26.7085 51.3325 33.5173 52.2654 42.5685C53.3457 53.1581 47.6171 63.3222 38.0913 68.0688C34.0159 70.0983 30.1368 71.0312 24.3591 71.0476ZM15.6681 50.5557C16.241 49.2463 16.7483 48.0843 17.2721 46.9385C19.3998 42.1593 21.544 37.3964 23.6881 32.6171C23.9009 32.1425 23.8354 32.0116 23.3116 32.0116C21.6422 32.0279 19.9891 32.0443 18.3196 31.9952C17.7304 31.9788 17.4685 32.208 17.2394 32.7153C15.6026 36.4307 13.9495 40.1461 12.2801 43.8615C10.7088 47.3477 9.13754 50.834 7.56627 54.3202C7.10799 55.335 7.10799 55.3513 8.18823 55.3513C13.9495 55.3513 19.6945 55.335 25.4558 55.3677C26.1595 55.3677 26.5196 55.1877 26.7324 54.4839C27.0761 53.3218 27.5671 52.1925 27.96 51.0467C28.0745 50.703 28.2218 50.5885 28.5819 50.6048C30.3823 50.6212 32.1827 50.6212 33.9831 50.6048C34.425 50.6048 34.5887 50.703 34.6215 51.1777C34.6869 52.3725 34.8506 53.5509 34.8997 54.7458C34.9161 55.2695 35.0797 55.3677 35.5708 55.3677C37.3712 55.335 39.1716 55.335 40.972 55.3677C41.5448 55.3841 41.6921 55.2695 41.5939 54.6476C41.0865 51.6687 40.6446 48.6898 40.1863 45.711C39.4989 41.3737 38.8115 37.0199 38.1404 32.6826C38.0586 32.1589 37.8786 32.0279 37.3712 32.0279C35.2434 32.0606 33.1157 32.0606 30.9879 32.0279C30.4805 32.0279 30.2186 32.1589 30.0059 32.6335C29.1384 34.614 28.2218 36.5944 27.338 38.5585C25.6522 42.2902 23.9827 46.022 22.2805 49.7537C22.1332 50.0811 22.1168 50.5721 21.5276 50.5721C19.6126 50.5394 17.714 50.5557 15.6681 50.5557Z" fill="white"/>
<path d="M212.092 38.5916C212.518 42.6344 212.665 46.6771 212.6 50.7198C212.567 52.6021 212.583 54.4843 212.6 56.3666C212.6 56.8248 212.534 57.0704 211.978 57.054C210.586 57.0213 209.195 57.0049 207.804 57.054C207.084 57.0867 207.1 56.7103 207.1 56.2029C207.117 50.4743 207.1 44.7458 207.1 39.0336C207.1 36.9549 207.133 34.8926 207.084 32.814C207.067 32.1429 207.297 31.9956 207.919 32.012C209.964 32.0447 212.01 32.0447 214.056 32.012C214.58 32.012 214.793 32.1757 214.989 32.6667C217.199 38.4116 219.441 44.1402 221.667 49.8687C221.716 49.9833 221.798 50.0979 221.994 50.1797C221.88 49.1322 221.782 48.0683 221.667 47.0208C221.438 45.0076 221.438 42.9945 221.438 40.9813C221.438 38.2479 221.454 35.531 221.422 32.7976C221.405 32.1266 221.618 31.9793 222.24 31.9956C223.517 32.0447 224.81 32.0447 226.086 31.9956C226.725 31.9629 226.888 32.1593 226.888 32.7976C226.872 39.9992 226.872 47.2009 226.872 54.3861C226.872 55.2536 227.248 56.3993 226.708 56.8903C226.234 57.3159 225.104 57.0213 224.27 57.0376C222.764 57.054 221.274 57.0213 219.768 57.054C219.294 57.0704 219.097 56.8903 218.95 56.4811C217.133 51.6691 215.284 46.8408 213.451 42.0288C212.992 40.8994 212.534 39.7537 212.092 38.5916ZM222.044 50.4252C222.027 50.4416 221.994 50.458 221.994 50.4743C221.994 50.5234 222.011 50.5725 222.027 50.6216C222.044 50.6053 222.076 50.5889 222.076 50.5725C222.076 50.5234 222.06 50.4743 222.044 50.4252Z" fill="white"/>
<path d="M144.708 57.6257C139.372 57.642 136.23 56.4636 133.971 53.4193C132.678 51.6843 132.023 49.6875 131.729 47.5434C131.287 44.2863 131.385 41.0783 132.662 38.0176C134.429 33.7785 137.735 31.6671 142.253 31.4216C144.413 31.307 146.525 31.5689 148.521 32.5346C150.764 33.6148 152.368 35.317 153.284 37.5593C155.117 42.044 155.199 46.6432 153.366 51.1278C151.533 55.678 147.867 57.5929 144.708 57.6257ZM148.194 44.4991C148.26 42.6005 148.112 40.751 147.49 38.9506C146.787 36.921 145.264 35.7917 143.153 35.7753C140.927 35.7589 139.356 36.7901 138.717 38.9014C137.588 42.6005 137.604 46.3486 138.717 50.064C139.356 52.2244 140.943 53.2229 143.3 53.2065C145.346 53.1901 146.836 52.0771 147.523 50.0312C148.112 48.2308 148.26 46.3813 148.194 44.4991Z" fill="white"/>
<path d="M98.6012 32.028C99.6323 32.028 100.68 32.0443 101.711 32.0116C102.12 31.9952 102.349 32.1098 102.48 32.519C104.166 38.0184 105.852 43.5015 107.538 48.9845C108.291 51.4232 109.027 53.862 109.796 56.2843C109.976 56.8408 109.944 57.0536 109.273 57.0536C107.554 57.0209 105.836 57.0209 104.117 57.0536C103.642 57.0536 103.446 56.8899 103.348 56.4316C103.02 55.0241 102.644 53.6492 102.349 52.2416C102.251 51.7506 102.038 51.636 101.58 51.636C99.5014 51.6524 97.4391 51.6688 95.3605 51.636C94.8531 51.6197 94.7221 51.8652 94.6239 52.2743C94.2966 53.6656 93.9365 55.0732 93.6255 56.4644C93.5437 56.8736 93.4127 57.07 92.9381 57.0536C91.2195 57.0209 89.501 57.0372 87.7824 57.0536C87.3077 57.0536 87.1441 56.9718 87.3077 56.448C88.388 53.0109 89.4355 49.5574 90.4994 46.1202C91.8742 41.6683 93.2491 37.2164 94.6076 32.7481C94.7712 32.1916 95.0167 31.9625 95.6223 31.9952C96.6371 32.0771 97.6191 32.028 98.6012 32.028ZM98.4866 36.4635C97.6028 40.0643 96.7844 43.4524 95.9497 46.824C95.8351 47.266 96.0315 47.3314 96.408 47.3314C97.7992 47.315 99.1904 47.315 100.565 47.3314C101.056 47.3478 101.122 47.1514 101.007 46.7586C100.827 46.0875 100.663 45.4001 100.5 44.7126C99.8615 42.0284 99.2068 39.3605 98.4866 36.4635Z" fill="white"/>
<path d="M185.676 44.4836C185.676 40.5882 185.692 36.6928 185.659 32.7973C185.659 32.2081 185.774 32.0117 186.412 32.0117C191.159 32.0445 195.905 32.0445 200.652 32.0117C201.323 32.0117 201.421 32.2245 201.306 32.7973C201.143 33.6976 200.946 34.6141 200.897 35.5307C200.864 36.2509 200.504 36.2836 199.964 36.2836C197.509 36.2672 195.054 36.3 192.599 36.2509C191.944 36.2345 191.781 36.4473 191.797 37.0692C191.846 38.5423 191.83 40.0153 191.797 41.4884C191.781 42.0449 191.928 42.2249 192.517 42.2086C194.612 42.1758 196.723 42.2413 198.819 42.1758C199.588 42.1595 199.735 42.405 199.686 43.0924C199.621 43.878 199.621 44.68 199.686 45.4657C199.735 46.1858 199.555 46.4641 198.753 46.4313C196.691 46.3659 194.612 46.4313 192.533 46.3986C191.977 46.3822 191.781 46.5132 191.797 47.1024C191.846 48.7391 191.846 50.3758 191.797 52.0126C191.781 52.6018 191.977 52.7327 192.533 52.7327C195.234 52.7 197.935 52.7327 200.635 52.7C201.257 52.7 201.437 52.8637 201.405 53.4693C201.355 54.4513 201.372 55.4333 201.405 56.4154C201.421 56.8409 201.339 57.0537 200.832 57.0537C195.987 57.0373 191.126 57.0373 186.265 57.0537C185.594 57.0537 185.676 56.6609 185.676 56.2517C185.676 52.3399 185.676 48.4118 185.676 44.4836Z" fill="white"/>
<path d="M122.662 46.874C122.662 50.0001 122.645 53.1427 122.678 56.2688C122.694 56.9563 122.433 57.0708 121.827 57.0545C120.387 57.0217 118.93 57.0054 117.49 57.0545C116.769 57.0872 116.524 56.9235 116.54 56.1379C116.573 49.9019 116.557 43.666 116.573 37.4137C116.573 36.7426 116.426 36.5462 115.722 36.5626C114.003 36.6117 112.285 36.5626 110.566 36.5953C110.124 36.5953 109.944 36.4971 109.944 36.0061C109.977 34.8604 109.977 33.7147 109.944 32.5689C109.928 32.0616 110.141 31.9961 110.566 31.9961C116.671 32.0125 122.776 32.0125 128.881 31.9961C129.389 31.9961 129.552 32.127 129.47 32.6344C129.29 33.7638 129.143 34.8931 129.029 36.0225C128.979 36.4971 128.783 36.5789 128.357 36.5789C126.753 36.5626 125.133 36.6117 123.529 36.5462C122.825 36.5298 122.596 36.6771 122.613 37.43C122.694 40.6053 122.662 43.7478 122.662 46.874Z" fill="white"/>
<path d="M69.1072 44.4836C69.1072 40.5882 69.1236 36.6928 69.0908 32.7974C69.0908 32.1427 69.2872 31.979 69.9092 32.0117C71.3495 32.0609 72.8062 32.0609 74.2465 32.0117C74.9503 31.979 75.1958 32.1427 75.1958 32.9283C75.1631 39.1152 75.1795 45.302 75.1631 51.4725C75.1631 52.1436 75.3104 52.34 75.9978 52.34C78.8294 52.2909 81.6609 52.34 84.4925 52.3072C85.049 52.3072 85.1635 52.4545 85.0817 52.9946C84.9017 54.124 84.7543 55.2533 84.6398 56.3827C84.5907 56.8901 84.427 57.0701 83.8869 57.0701C79.1731 57.0537 74.4593 57.0374 69.7455 57.0701C69.1399 57.0701 69.1072 56.8082 69.1072 56.3499C69.1236 52.3891 69.1072 48.4445 69.1072 44.4836Z" fill="white"/>
<path d="M166.329 43.5179C166.656 43.698 166.689 43.3706 166.787 43.2233C169.259 39.688 171.73 36.1526 174.185 32.6009C174.464 32.2081 174.726 32.0117 175.233 32.0117C177.115 32.0445 178.997 32.0281 181.06 32.0281C180.438 32.8956 179.93 33.6648 179.374 34.4177C177.377 37.1511 175.38 39.9008 173.351 42.6177C172.991 43.0924 173.023 43.4197 173.351 43.9108C176.1 48.1499 178.817 52.389 181.534 56.6445C181.583 56.7264 181.616 56.8409 181.714 57.0373C180.127 57.0373 178.605 56.9064 177.115 57.0701C175.315 57.2829 174.316 56.6609 173.416 55.0405C171.387 51.3906 169.112 47.8716 166.918 44.3199C166.787 44.1235 166.755 43.698 166.329 43.8289C166.329 43.7307 166.329 43.6325 166.329 43.5179Z" fill="white"/>
<path d="M166.33 43.5179C166.33 43.6325 166.33 43.7307 166.33 43.8453C166.346 48.0681 166.346 52.2908 166.379 56.5136C166.379 56.9555 166.215 57.0701 165.806 57.0701C164.137 57.0537 162.483 57.0373 160.814 57.0701C160.094 57.0864 160.274 56.6282 160.274 56.2517C160.274 49.3611 160.274 42.4704 160.274 35.5798C160.274 34.5978 160.29 33.6157 160.274 32.6337C160.258 32.2081 160.339 32.0117 160.847 32.0117C162.516 32.0445 164.169 32.0281 165.839 32.0117C166.183 32.0117 166.395 32.0281 166.395 32.4864C166.346 36.169 166.33 39.8517 166.33 43.5179Z" fill="white"/>
<path d="M222.044 50.4238C222.061 50.4729 222.077 50.522 222.077 50.5711C222.077 50.5875 222.044 50.6039 222.028 50.6202C222.011 50.5711 221.995 50.522 221.995 50.4729C221.995 50.4729 222.028 50.4402 222.044 50.4238Z" fill="white"/>
<path d="M33.4431 36.1523C33.6068 38.1819 33.7704 40.2278 33.9341 42.2574C34.016 43.3049 34.1142 44.3687 34.2124 45.4162C34.2615 45.94 34.1469 46.2019 33.5249 46.1855C32.4938 46.1364 31.4463 46.12 30.4151 46.1855C29.5968 46.2346 29.7768 45.8418 29.9405 45.3671C31.0535 42.3228 32.1664 39.2621 33.2794 36.2014C33.3449 36.1851 33.394 36.1687 33.4431 36.1523Z" fill="white"/>
</g>
<defs>
<clipPath id="clip0_2934_14803">
<rect width="227" height="89" fill="white"/>
</clipPath>
</defs>
</svg>
