<svg width="228" height="88" viewBox="0 0 228 88" fill="none" xmlns="http://www.w3.org/2000/svg">
<path d="M50.2665 67.6655H70.4186V77.3668H38V16.3621H50.2665V67.6655ZM82.2457 23.1792C80.0844 23.1792 78.2735 22.5091 76.8134 21.169C75.4115 19.7706 74.7106 18.0518 74.7106 16.0125C74.7106 13.9731 75.4115 12.2834 76.8134 10.9433C78.2735 9.5449 80.0844 8.8457 82.2457 8.8457C84.4068 8.8457 86.1885 9.5449 87.5904 10.9433C89.0505 12.2834 89.7808 13.9731 89.7808 16.0125C89.7808 18.0518 89.0505 19.7706 87.5904 21.169C86.1885 22.5091 84.4068 23.1792 82.2457 23.1792ZM88.2913 28.9476V77.3668H76.0248V28.9476H88.2913ZM120.475 38.9985H111.976V77.3668H99.5344V38.9985H94.0145V28.9476H99.5344V26.5004C99.5344 20.5572 101.228 16.1873 104.616 13.3905C108.004 10.5937 113.115 9.2827 119.949 9.4575V19.7706C116.97 19.7124 114.897 20.2076 113.729 21.2564C112.56 22.3052 111.976 24.1989 111.976 26.9374V28.9476H120.475V38.9985ZM171.357 52.1084C171.357 53.8564 171.24 55.4296 171.007 56.828H135.521C135.813 60.3239 137.04 63.0624 139.201 65.0435C141.363 67.0246 144.02 68.0151 147.175 68.0151C151.731 68.0151 154.973 66.0632 156.9 62.1593H170.131C168.729 66.8205 166.042 70.6661 162.07 73.696C158.098 76.6676 153.22 78.1534 147.438 78.1534C142.764 78.1534 138.559 77.1337 134.821 75.0944C131.141 72.9968 128.249 70.0543 126.146 66.2671C124.102 62.4798 123.08 58.1099 123.08 53.1572C123.08 48.1464 124.102 43.7471 126.146 39.9599C128.191 36.1726 131.053 33.2592 134.733 31.2199C138.413 29.1806 142.648 28.161 147.438 28.161C152.052 28.161 156.17 29.1515 159.792 31.1325C163.472 33.1137 166.304 35.9395 168.291 39.6103C170.335 43.2227 171.357 47.3888 171.357 52.1084ZM158.653 48.6124C158.594 45.466 157.455 42.9605 155.236 41.0961C153.016 39.1733 150.3 38.2119 147.087 38.2119C144.05 38.2119 141.48 39.1442 139.377 41.0087C137.332 42.815 136.076 45.3496 135.609 48.6124H158.653ZM183.552 77.9786C181.333 77.9786 179.493 77.3085 178.033 75.9684C176.631 74.57 175.93 72.8511 175.93 70.8118C175.93 68.7726 176.631 67.0827 178.033 65.7427C179.493 64.3443 181.333 63.6451 183.552 63.6451C185.714 63.6451 187.495 64.3443 188.897 65.7427C190.299 67.0827 191 68.7726 191 70.8118C191 72.8511 190.299 74.57 188.897 75.9684C187.495 77.3085 185.714 77.9786 183.552 77.9786Z" fill="white"/>
</svg>
