<svg width="227" height="88" viewBox="0 0 227 88" fill="none" xmlns="http://www.w3.org/2000/svg">
<g clip-path="url(#clip0_2799_14403)">
<path d="M148.533 49.139C149.803 45.3821 151.047 41.6253 152.317 37.8684C152.423 37.5774 152.502 37.2864 152.608 36.9954C153.163 35.2757 153.931 34.8524 155.65 35.2492C156.232 35.3815 156.206 35.8577 156.338 36.2281C157.74 40.3818 159.116 44.5355 160.492 48.6892C160.545 48.8744 160.518 49.139 160.915 49.2977C161.418 47.7368 161.947 46.2023 162.45 44.6414C163.349 41.8369 164.249 39.059 165.122 36.2546C165.333 35.5667 165.677 35.3286 166.418 35.3286C169.09 35.3286 169.064 35.3021 168.217 37.7362C166.339 43.1069 164.46 48.4776 162.635 53.8748C162.317 54.8007 161.815 54.9595 160.995 54.8801C160.174 54.8008 159.354 55.1447 158.931 53.8748C157.582 49.6681 156.074 45.488 154.539 40.9903C153.931 42.71 153.401 44.2181 152.872 45.6996C151.92 48.4776 150.888 51.2291 150.015 54.0335C149.592 55.3828 148.613 54.7214 147.872 54.8536C147.237 54.9859 146.761 54.8536 146.496 54.0599C144.512 48.1601 142.475 42.2867 140.411 36.4133C140.094 35.4873 140.279 35.3286 141.205 35.3286C143.718 35.3551 143.718 35.3021 144.486 37.6568C145.623 41.1226 146.734 44.5885 147.846 48.0278C147.978 48.3982 148.11 48.7686 148.242 49.1126C148.348 49.1126 148.454 49.1125 148.533 49.139Z" fill="white"/>
<path d="M68.0525 40.9914C68.0525 45.4361 68.026 49.484 68.0789 53.5319C68.1054 54.5108 67.8673 54.8018 66.8619 54.7753C64.6925 54.696 64.6925 54.7753 64.6925 52.553C64.6925 47.2352 64.7189 41.9174 64.666 36.5996C64.666 35.6207 64.9041 35.409 65.883 35.3032C67.6556 35.1444 68.7668 35.6471 69.6663 37.2874C71.0156 39.7479 72.6559 42.0232 74.2698 44.4837C75.9366 41.8909 77.6298 39.4569 79.1378 36.8906C79.8522 35.6736 80.6459 35.1974 82.0481 35.3032C83.7942 35.4355 83.8207 35.3297 83.8207 37.0493C83.8207 42.4994 83.7942 47.9495 83.8471 53.3996C83.8471 54.4049 83.609 54.8812 82.5508 54.696C82.2862 54.643 82.0216 54.643 81.7571 54.696C80.7517 54.8547 80.4078 54.5108 80.4342 53.4261C80.5136 49.3517 80.4607 45.2774 80.4607 40.8062C78.9526 43.0021 77.6827 44.8541 76.4128 46.706C75.8308 47.5791 75.1958 48.4257 74.6402 49.3253C74.2698 49.9602 74.0317 49.8808 73.6613 49.2988C72.0474 46.8383 70.3807 44.4043 68.7404 41.9703C68.6081 41.7586 68.4229 41.5205 68.0525 40.9914Z" fill="white"/>
<path d="M119.087 42.3146C120.49 40.542 122.024 39.6954 124.008 39.8277C126.813 40.0129 128.665 41.7325 128.797 44.6163C128.929 47.7382 128.85 50.8601 128.876 53.982C128.876 54.564 128.691 54.6963 128.109 54.7228C125.543 54.855 125.569 54.8815 125.543 52.3152C125.516 50.1987 125.543 48.1086 125.437 45.9921C125.331 43.8491 124.273 42.8437 122.341 42.8702C120.49 42.8702 119.167 44.1401 119.087 46.1243C119.034 47.6059 119.061 49.1139 119.061 50.5955C119.061 51.4421 118.955 52.2888 119.087 53.1089C119.273 54.5111 118.743 54.7757 117.394 54.8021C115.965 54.8286 115.701 54.3788 115.727 53.056C115.807 47.3414 115.807 41.6267 115.727 35.912C115.701 34.6421 116.124 34.2717 117.262 34.4569C117.526 34.4834 117.791 34.5098 118.056 34.4569C118.902 34.3246 119.087 34.6686 119.061 35.4623C119.034 37.6317 119.087 39.8012 119.087 42.3146Z" fill="white"/>
<path d="M204.753 48.6367C205.097 51.9174 208.907 53.4519 211.976 51.3353C212.32 51.0972 212.558 50.5152 213.061 50.8326C213.643 51.203 214.198 51.6792 214.622 52.2084C214.86 52.5259 214.384 52.8169 214.145 53.0286C210.256 56.8912 203.245 55.1186 201.605 49.8538C199.832 44.192 204.224 38.98 209.965 39.9589C213.325 40.541 216.236 44.9063 215.442 48.1605C215.283 48.8484 214.78 48.6103 214.41 48.6367C212.77 48.6632 211.156 48.6367 209.516 48.6367C207.981 48.6367 206.394 48.6367 204.753 48.6367ZM208.299 46.3085C209.304 46.3085 210.309 46.2821 211.315 46.3085C211.976 46.335 212.135 46.1233 211.976 45.4884C211.553 43.8216 210.336 42.6575 208.722 42.5517C207.002 42.4194 205.6 43.3718 204.939 45.0122C204.568 45.9117 204.489 46.4937 205.785 46.335C206.632 46.2556 207.478 46.3085 208.299 46.3085Z" fill="white"/>
<path d="M179.118 53.0555C177.054 54.8546 174.885 55.3837 172.477 54.6958C170.466 54.1138 169.223 52.5528 169.17 50.595C169.117 48.4785 170.175 46.9704 172.265 46.2297C174.514 45.4095 176.736 45.727 178.985 46.2561C179.197 44.2454 178.139 43.0019 176.102 42.8432C174.779 42.7374 173.456 42.8697 172.212 43.3988C171.498 43.6898 171.26 43.584 171.022 42.8432C170.387 40.9648 170.36 40.9648 172.318 40.4092C174.25 39.88 176.207 39.7213 178.192 40.1711C180.493 40.7002 181.948 42.2612 182.266 44.6158C182.689 47.7642 182.372 50.939 182.478 54.0873C182.504 54.59 182.319 54.8017 181.79 54.7487C181.446 54.7223 181.075 54.6958 180.731 54.7487C179.567 54.9604 178.747 54.7223 179.118 53.0555ZM176.022 47.8171C174.99 47.8435 174.011 47.9493 173.165 48.6372C172.107 49.5103 172.133 51.0977 173.191 51.9443C174.832 53.2407 178.006 52.4999 178.879 50.6215C179.647 49.0076 179.303 48.3462 177.583 48.0287C177.054 47.9229 176.551 47.8964 176.022 47.8171Z" fill="white"/>
<path d="M97.2599 53.1359C96.1487 53.9826 95.1698 54.5646 93.9792 54.8292C90.8044 55.5171 87.7884 53.8767 87.3915 51.2046C86.9418 48.1356 89.0318 45.9133 92.63 45.7545C93.9528 45.6752 95.2756 45.7545 96.5455 46.1514C97.207 46.3366 97.3128 46.1249 97.2863 45.5429C97.207 44.1142 96.0164 43.003 94.3761 42.8708C92.9474 42.7649 91.5452 42.9237 90.2488 43.4528C89.6139 43.7174 89.4287 43.5851 89.217 43.003C88.4762 41.0188 88.4763 41.0188 90.5663 40.4103C92.286 39.9076 94.0322 39.8018 95.7783 40.0663C98.6621 40.5426 100.382 42.2887 100.514 45.1989C100.673 48.1886 100.567 51.1782 100.593 54.1413C100.593 54.6704 100.408 54.8292 99.9055 54.7763C99.6145 54.7234 99.297 54.7498 98.9796 54.7763C97.8948 54.9086 96.9424 54.8556 97.2599 53.1359ZM94.2438 47.8181C93.3443 47.8181 92.4712 47.9504 91.704 48.4002C90.3811 49.1675 90.2224 51.0459 91.4129 51.9454C93.0003 53.1889 96.1487 52.501 97.0747 50.7284C97.8948 49.141 97.5244 48.3208 95.8048 48.0298C95.2756 47.924 94.7465 47.8975 94.2438 47.8181Z" fill="white"/>
<path d="M112.182 51.5731C112.42 54.5362 111.996 55.0124 109.113 54.9595C106.599 54.9066 105.197 53.6367 105.118 51.0704C105.038 48.7422 105.065 46.414 105.091 44.0858C105.091 43.3185 105.038 42.7894 104.059 42.9746C103.319 43.1069 103.054 42.6836 103.239 42.0751C103.451 41.4137 102.551 40.1702 103.874 40.1437C105.065 40.1173 105.144 39.6146 105.065 38.7415C105.038 38.5563 105.065 38.3976 105.065 38.2124C105.065 36.0165 105.065 36.0694 107.261 35.99C108.24 35.9636 108.531 36.2281 108.504 37.2335C108.451 40.0115 108.504 40.1173 111.335 40.0379C112.658 40.0115 112.446 40.7522 112.446 41.5195C112.446 42.3132 112.658 43.0275 111.335 43.0011C108.478 42.9482 108.478 43.0275 108.478 45.8319C108.478 47.1019 108.478 48.3718 108.478 49.6417C108.478 51.6524 109.192 52.208 111.203 51.8111C111.494 51.7847 111.785 51.6789 112.182 51.5731Z" fill="white"/>
<path d="M226.607 51.5477C226.819 54.5108 226.29 55.0399 223.38 54.9606C221.025 54.8812 219.623 53.5848 219.517 51.2037C219.411 48.8491 219.437 46.468 219.49 44.0869C219.49 43.2932 219.385 42.8169 218.432 42.9757C217.824 43.0815 217.533 42.8434 217.612 42.182C217.718 41.2031 217.03 39.7215 219.094 40.039C219.57 40.1184 219.464 39.6421 219.464 39.3776C219.464 38.5045 219.49 37.6314 219.464 36.7319C219.437 36.1499 219.649 36.0176 220.231 35.9911C222.877 35.8588 222.956 35.8324 222.85 38.5574C222.797 39.8538 223.194 40.3036 224.438 40.0654C224.597 40.039 224.782 40.0654 224.967 40.0654C226.872 40.0654 227.242 40.5681 226.872 42.4466C226.766 42.9492 226.475 42.9492 226.131 42.9492C225.39 42.9492 224.623 43.0021 223.882 42.9492C223.036 42.8699 222.85 43.2138 222.877 44.0075C222.93 45.8595 222.903 47.685 222.903 49.5369C222.903 51.6799 223.644 52.262 225.761 51.7858C225.999 51.7593 226.237 51.6799 226.607 51.5477Z" fill="white"/>
<path d="M189.886 44.5622C189.886 47.5783 189.859 50.6208 189.912 53.6369C189.939 54.5364 189.648 54.7216 188.801 54.7216C186.473 54.6951 186.473 54.7216 186.473 52.3405C186.473 46.811 186.499 41.2816 186.446 35.7521C186.446 34.7732 186.605 34.3499 187.716 34.4028C189.859 34.4822 189.886 34.4293 189.886 36.5194C189.886 39.1915 189.886 41.8901 189.886 44.5622Z" fill="white"/>
<path d="M194.41 44.5631C194.41 41.5735 194.436 38.5839 194.383 35.5943C194.357 34.7212 194.568 34.3773 195.521 34.4038C197.77 34.4567 197.77 34.4037 197.77 36.5732C197.77 42.1556 197.743 47.7379 197.796 53.2939C197.796 54.3521 197.585 54.8548 196.447 54.6696C196.103 54.6167 195.733 54.6167 195.389 54.6696C194.542 54.8019 194.357 54.405 194.383 53.6113C194.436 50.6217 194.41 47.6056 194.41 44.5631Z" fill="white"/>
<path d="M34.9282 41.918C36.4098 41.9444 37.6797 43.2144 37.6797 44.7224C37.6797 46.1775 36.3304 47.5268 34.8753 47.5003C33.3144 47.4739 32.018 46.151 32.0709 44.6166C32.1503 43.135 33.4202 41.918 34.9282 41.918Z" fill="white"/>
<path d="M34.9541 37.6312C33.3138 37.6576 32.0703 36.4671 32.0703 34.8532C32.0703 33.3717 33.3667 32.0753 34.8483 32.0488C36.3034 32.0488 37.6527 33.3452 37.6791 34.8003C37.732 36.3348 36.4886 37.6047 34.9541 37.6312Z" fill="white"/>
<path d="M12.9961 39.7476C13.0225 41.2292 11.7526 42.552 10.271 42.5785C8.78945 42.6049 7.46662 41.3614 7.4137 39.8799C7.36079 38.3189 8.63071 37.0226 10.2181 36.9961C11.6997 36.9961 12.9696 38.2395 12.9961 39.7476Z" fill="white"/>
<path d="M30.0072 36.9965C31.5681 37.023 32.7586 38.24 32.7322 39.7745C32.7057 41.3354 31.4887 42.5789 30.0072 42.5789C28.4991 42.5789 27.1234 41.1767 27.1763 39.6951C27.2292 38.2135 28.5256 36.9701 30.0072 36.9965Z" fill="white"/>
<path d="M20.1124 36.9965C21.6205 37.023 22.8639 38.2664 22.8904 39.7745C22.8904 41.309 21.5411 42.6318 20.0066 42.5789C18.5515 42.526 17.2816 41.2031 17.308 39.7215C17.3345 38.2135 18.5779 36.9701 20.1124 36.9965Z" fill="white"/>
<path d="M42.5739 39.827C42.5474 41.3615 41.304 42.6049 39.7959 42.6049C38.235 42.6049 36.9915 41.3085 37.018 39.6947C37.0444 38.2131 38.3408 36.9961 39.8753 36.9961C41.3834 37.0226 42.6268 38.2925 42.5739 39.827Z" fill="white"/>
<path d="M15.1388 47.5261C13.6837 47.5526 12.3608 46.2562 12.3344 44.7746C12.3079 43.293 13.5779 41.9702 15.0594 41.9438C16.6204 41.9173 17.9432 43.1872 17.9168 44.7482C17.9168 46.2297 16.6468 47.4997 15.1388 47.5261Z" fill="white"/>
<path d="M17.9164 34.9055C17.89 36.4929 16.6465 37.6834 15.0062 37.6305C13.5511 37.6041 12.3076 36.3606 12.3076 34.9319C12.3076 33.371 13.6569 32.0482 15.1649 32.0746C16.673 32.1011 17.9429 33.4239 17.9164 34.9055Z" fill="white"/>
<path d="M27.0973 44.7744C27.0708 45.9121 26.0919 46.8381 24.9543 46.8116C23.8166 46.7851 22.8907 45.8063 22.9436 44.6686C22.9965 43.4781 23.9225 42.605 25.0866 42.6314C26.1977 42.6579 27.1237 43.6368 27.0973 44.7744Z" fill="white"/>
<path d="M7.36003 44.6432C7.38648 45.7808 6.51341 46.7597 5.37577 46.8126C4.26459 46.8655 3.28569 45.966 3.20632 44.8019C3.15341 43.6643 4.05294 42.6854 5.19058 42.606C6.30176 42.5796 7.33357 43.532 7.36003 44.6432Z" fill="white"/>
<path d="M10.2442 51.7068C9.05361 51.7333 8.12763 50.8602 8.10117 49.6961C8.07471 48.532 8.94779 47.6325 10.1383 47.6061C11.3289 47.5796 12.2813 48.4527 12.2813 49.5903C12.3078 50.7279 11.3818 51.6804 10.2442 51.7068Z" fill="white"/>
<path d="M41.8863 49.6418C41.8863 50.8059 40.9339 51.7055 39.7698 51.7055C38.6057 51.679 37.6797 50.7266 37.7326 49.5889C37.7855 48.5042 38.6851 47.6311 39.7963 47.6311C41.0133 47.5782 41.9128 48.4777 41.8863 49.6418Z" fill="white"/>
<path d="M44.6909 42.6314C45.8285 42.605 46.8074 43.5309 46.8339 44.6686C46.8603 45.8062 45.9608 46.7851 44.8232 46.838C43.6855 46.8645 42.7331 45.965 42.7066 44.8009C42.6802 43.6103 43.5533 42.6579 44.6909 42.6314Z" fill="white"/>
<path d="M32.0706 49.6961C32.0442 50.8602 31.0917 51.7333 29.9012 51.6804C28.7635 51.6539 27.9434 50.7808 27.9434 49.6432C27.9434 48.4527 28.8429 47.5796 30.0334 47.6061C31.1975 47.6061 32.0971 48.532 32.0706 49.6961Z" fill="white"/>
<path d="M22.1233 49.6952C22.0968 50.8858 21.1973 51.7324 19.9803 51.6795C18.8162 51.6266 18.0225 50.78 18.0225 49.6423C18.0225 48.4253 18.8955 47.5523 20.0861 47.5787C21.3031 47.6316 22.1497 48.5047 22.1233 49.6952Z" fill="white"/>
<path d="M51.0669 49.7206C50.9611 50.5672 50.4849 51.0963 49.6118 51.0434C48.8181 50.9905 48.3154 50.4878 48.3154 49.6677C48.3419 48.821 48.8446 48.2655 49.7176 48.2919C50.5643 48.2919 51.0669 48.7946 51.0669 49.7206Z" fill="white"/>
<path d="M46.146 54.5906C46.0402 55.5166 45.4846 55.9928 44.6645 55.9663C43.8972 55.9399 43.3416 55.4372 43.3681 54.6171C43.3681 53.744 43.8972 53.2148 44.7703 53.2148C45.6169 53.2148 46.0931 53.744 46.146 54.5906Z" fill="white"/>
<path d="M3.89453 54.5636C4.02681 53.7434 4.45012 53.1614 5.34965 53.2143C6.19627 53.2672 6.7254 53.7699 6.69894 54.6694C6.67249 55.4896 6.1169 55.9922 5.34965 55.9658C4.50304 55.9393 3.94744 55.4631 3.89453 54.5636Z" fill="white"/>
<path d="M26.4086 54.6418C26.2499 55.6207 25.6149 56.0175 24.8212 55.9117C24.054 55.8059 23.5778 55.2503 23.6836 54.4037C23.7894 53.61 24.2657 53.0808 25.1123 53.1602C25.9589 53.2925 26.3822 53.8481 26.4086 54.6418Z" fill="white"/>
<path d="M0.481577 48.2676C1.22236 48.3734 1.7515 48.7967 1.72504 49.6169C1.69859 50.4635 1.19591 51.0191 0.29638 50.9926C-0.523779 50.9661 -1 50.437 -1 49.6169C-1 48.7702 -0.470865 48.294 0.481577 48.2676Z" fill="white"/>
</g>
<defs>
<clipPath id="clip0_2799_14403">
<rect width="227" height="88" fill="white"/>
</clipPath>
</defs>
</svg>
