<svg width="227" height="89" viewBox="0 0 227 89" fill="none" xmlns="http://www.w3.org/2000/svg">
<path d="M63.4268 45.0576L85.0728 7.73071C87.1424 4.19192 91.6957 2.95577 95.2749 5.01602C98.8542 7.07627 100.072 11.6088 98.002 15.1719L76.356 52.4988C74.2863 56.0618 69.7331 57.2737 66.1539 55.2135C62.599 53.1532 61.3572 48.5964 63.4268 45.0576Z" fill="#C2C2C2"/>
<path d="M71.7534 84.3713L71.6073 61.1752L60.5043 79.7902H52.9075L41.8045 61.9751V84.3713H26.0996V33.4709H40.2706L56.9251 60.5935L73.1413 33.4709H87.3122L87.4583 84.3713H71.7534ZM128.145 84.3713L119.306 70.7736L110.687 84.3713H91.0376L109.518 58.7029L91.695 33.4709H111.052L119.745 46.2687L128.218 33.4709H146.772L129.022 58.0485L147.867 84.3713H128.145ZM176.063 85.5347C170.658 85.5347 165.788 84.4197 161.454 82.1413C157.242 80.0084 153.711 76.712 151.276 72.6884C148.817 68.6406 147.575 64.0596 147.575 58.9211C147.575 53.7826 148.793 49.2015 151.276 45.1295C153.711 41.1059 157.242 37.8095 161.454 35.6766C165.788 33.4224 170.658 32.2832 176.063 32.2832C181.03 32.2832 185.462 33.1558 189.358 34.9009C193.156 36.5734 196.467 39.1669 199 42.4633L188.116 52.1344C184.951 48.1593 181.225 46.1717 176.94 46.1717C173.336 46.1717 170.439 47.3352 168.247 49.6136C166.056 51.892 164.96 54.9945 164.96 58.8726C164.96 62.7507 166.056 65.8532 168.247 68.1316C170.439 70.41 173.336 71.5734 176.94 71.5734C181.225 71.5734 184.951 69.5859 188.116 65.6108L199 75.2819C196.467 78.5783 193.156 81.1718 189.358 82.8442C185.462 84.6621 181.03 85.5347 176.063 85.5347Z" fill="white"/>
<path d="M56.1212 57.4204L77.7671 20.0934C79.8368 16.5304 84.39 15.3185 87.9693 17.3787C91.5485 19.439 92.7659 23.9715 90.6963 27.5346L69.0503 64.8615C66.9807 68.4245 62.4275 69.6365 58.8482 67.5762C55.2933 65.5159 54.0515 60.9592 56.1212 57.4204Z" fill="white"/>
</svg>
