<svg width="228" height="89" viewBox="0 0 228 89" fill="none" xmlns="http://www.w3.org/2000/svg">
<path d="M24.8811 44.4827C24.7903 43.5994 25.335 43.0332 25.9025 42.467C35.913 32.5018 45.9009 22.514 55.9114 12.5261C56.3654 12.0731 56.8194 11.6202 57.2733 11.1672C58.3175 10.1707 59.6341 10.1254 60.7237 11.0766C60.9506 11.2805 61.155 11.5069 61.3593 11.7108C71.5287 21.8572 81.6754 31.981 91.8449 42.1273C93.6835 43.9618 93.6835 45.0036 91.8222 46.8834C90.3694 48.3329 88.9393 49.7597 87.4865 51.2092C86.011 52.6814 84.7626 52.6814 83.2871 51.2319C75.9097 43.8713 68.5324 36.5106 61.1323 29.1498C59.4753 27.4966 58.4765 27.4966 56.8194 29.1498C49.4648 36.4879 42.11 43.826 34.7554 51.1639C33.1891 52.7267 32.0541 52.7267 30.5106 51.2092C28.8762 49.5786 27.2645 47.9479 25.6074 46.3398C25.1535 45.7963 24.813 45.2302 24.8811 44.4827Z" fill="white"/>
<path d="M59.2481 78.5922C58.3627 78.5922 57.7953 78.3657 57.3186 77.8901C51.2804 71.8657 45.2424 65.8412 39.2044 59.7942C38.1828 58.775 38.1601 57.4161 39.1817 56.3743C45.2197 50.3273 51.2577 44.3028 57.3186 38.2784C58.3627 37.2365 59.7021 37.2365 60.7461 38.2557C66.807 44.2801 72.8451 50.3046 78.8831 56.3516C79.9954 57.4841 79.9046 58.7977 78.6789 60.0433C75.3193 63.4179 71.9371 66.7698 68.5776 70.1217C66.0806 72.6131 63.6063 75.0818 61.1321 77.573C60.5192 78.1618 59.9063 78.6148 59.2481 78.5922Z" fill="white"/>
<path d="M125.44 36.8047C125.44 32.864 125.463 29.0365 125.417 25.1862C125.395 24.2577 125.69 24.0311 126.552 24.0991C127.574 24.1671 128.595 24.1671 129.617 24.0991C130.411 24.0538 130.638 24.2803 130.638 25.0956C130.593 28.3796 130.615 31.6636 130.615 34.9476C130.615 38.2768 130.593 41.5835 130.638 44.9128C130.638 45.7055 130.388 45.8413 129.639 45.9319C128.028 46.0905 126.915 45.5243 125.826 44.3467C122.466 40.8135 118.971 37.4162 115.543 33.9737C115.293 33.7246 115.134 33.3623 114.93 33.0451C114.816 33.1131 114.703 33.2037 114.59 33.2717C114.59 35.4232 114.59 37.5975 114.59 39.749C114.59 41.5156 114.59 43.3048 114.635 45.0713C114.658 45.6829 114.499 45.9319 113.84 45.9093C112.637 45.864 111.412 45.864 110.209 45.9093C109.641 45.9319 109.414 45.7962 109.414 45.162C109.437 38.4128 109.437 31.6636 109.414 24.9144C109.414 24.3256 109.596 24.1897 110.163 24.1217C111.775 23.9858 113.023 24.3936 114.226 25.6392C117.836 29.4214 121.626 33.0225 125.44 36.8047Z" fill="white"/>
<path d="M145.801 46.0911C141.148 46.0233 137.221 44.5285 135.155 40.0441C132.273 33.8385 134.701 24.3942 144.984 23.8733C146.392 23.8053 147.776 23.8733 149.138 24.213C154.859 25.6398 157.991 30.2148 157.446 36.3298C156.97 41.8106 152.725 45.7968 147.05 46.0911C146.641 46.1138 146.233 46.0911 145.801 46.0911ZM139.491 35.0163C139.491 38.051 140.853 40.3611 143.191 41.335C147.844 43.2828 152.452 39.8629 152.135 34.6991C151.976 32.2306 151.181 30.1242 148.866 28.8786C145.302 26.9987 139.468 28.5615 139.491 35.0163Z" fill="white"/>
<path d="M182.938 34.8808C182.938 31.5966 182.938 28.3127 182.938 25.0513C182.938 24.6437 182.757 24.1001 183.529 24.1228C187.07 24.2361 190.633 23.8284 194.174 24.3267C199.781 25.1193 203.276 29.649 202.983 35.3337C202.755 39.6142 201.12 42.9662 197.103 44.8686C195.718 45.5253 194.243 45.8425 192.722 45.8425C189.771 45.8652 186.819 45.8198 183.891 45.865C183.143 45.865 182.938 45.6386 182.961 44.9138C182.961 41.5845 182.938 38.2327 182.938 34.8808ZM188.159 34.9712C188.159 36.8963 188.182 38.8214 188.136 40.7239C188.113 41.3581 188.272 41.5845 188.953 41.562C189.998 41.5167 191.065 41.5393 192.131 41.5393C194.265 41.5393 195.832 40.5881 196.739 38.6857C197.897 36.3301 197.897 33.8842 196.876 31.4835C196.013 29.4678 194.379 28.4486 192.155 28.4033C191.132 28.3806 190.111 28.4486 189.09 28.3806C188.363 28.3353 188.113 28.5392 188.136 29.3092C188.204 31.2117 188.159 33.0914 188.159 34.9712Z" fill="white"/>
<path d="M180.124 45.8651C178.308 45.8651 176.538 45.8425 174.767 45.8878C174.199 45.9105 173.994 45.5708 173.745 45.1856C172.543 43.1927 171.293 41.1996 170.113 39.1839C169.727 38.5271 169.319 38.346 168.592 38.346C166.14 38.3913 166.14 38.346 166.14 40.8372C166.14 42.2641 166.118 43.7135 166.164 45.1403C166.186 45.7519 165.982 45.9105 165.392 45.8878C164.189 45.8425 162.963 45.8425 161.76 45.8878C161.147 45.9105 160.92 45.7519 160.92 45.0952C160.943 38.3686 160.943 31.6647 160.943 24.9382C160.943 24.5985 160.784 24.1229 161.419 24.1456C165.165 24.2587 168.91 23.8511 172.633 24.372C175.584 24.7796 177.718 26.7953 178.331 29.4904C179.012 32.48 178.035 35.13 175.471 36.8965C174.948 37.2588 174.902 37.508 175.244 38.0288C176.9 40.5428 178.512 43.1021 180.146 45.6386C180.146 45.6386 180.124 45.6839 180.124 45.8651ZM166.14 31.0985C166.14 31.8458 166.14 32.616 166.14 33.3633C166.14 33.6578 166.072 34.0655 166.504 34.0428C168.184 33.9748 169.909 34.3825 171.544 33.6352C172.633 33.1369 173.223 32.1177 173.11 31.0079C172.973 29.8076 172.36 29.0148 171.18 28.6072C170.409 28.3355 169.615 28.4487 168.819 28.4261C166.14 28.4261 166.14 28.4261 166.14 31.0985Z" fill="white"/>
<path d="M139.741 63.3042C139.741 61.198 139.718 59.1143 139.764 57.0079C139.764 56.6229 139.446 55.9889 140.195 55.9436C140.989 55.8983 140.671 56.5776 140.671 56.9401C140.694 59.4993 140.694 62.0586 140.671 64.6404C140.671 64.9349 140.876 65.3878 140.422 65.5238C140.036 65.6369 139.832 65.2746 139.605 65.0255C137.902 63.0098 136.2 60.9941 134.497 58.9783C134.202 58.6387 133.907 58.299 133.408 57.7327C133.408 60.0428 133.43 62.1039 133.385 64.1421C133.362 64.6177 133.816 65.4785 132.976 65.5011C132 65.5238 132.5 64.5952 132.477 64.0969C132.409 61.6962 132.454 59.2728 132.454 56.8495C132.454 56.555 132.25 56.102 132.704 55.9662C133.113 55.8529 133.294 56.2379 133.498 56.4871C135.11 58.3896 136.722 60.292 138.333 62.1718C138.697 62.6021 139.06 63.0098 139.423 63.4401C139.537 63.3948 139.65 63.3495 139.741 63.3042Z" fill="white"/>
<path d="M165.006 57.8006C165.006 60.2466 165.006 62.4209 165.006 64.5951C165.006 64.9574 165.233 65.5237 164.528 65.5237C163.802 65.5237 164.075 64.9574 164.075 64.5951C164.052 62.0585 164.052 59.5446 164.075 57.008C164.075 56.6683 163.87 56.17 164.256 55.9888C164.755 55.7624 164.982 56.2606 165.233 56.5777C166.867 58.5028 168.501 60.4279 170.135 62.3756C170.452 62.7606 170.816 63.1456 171.338 63.7345C171.338 61.2658 171.316 59.0917 171.361 56.94C171.361 56.5777 171.065 55.9208 171.861 55.9661C172.542 56.0114 172.269 56.5777 172.291 56.94C172.315 59.4993 172.315 62.0585 172.291 64.6404C172.291 64.9348 172.496 65.3878 172.042 65.5237C171.634 65.6596 171.451 65.2746 171.248 65.0254C169.363 62.8059 167.502 60.5865 165.619 58.3668C165.482 58.2084 165.323 58.0951 165.006 57.8006Z" fill="white"/>
<path d="M156.925 65.1603C156.993 65.3189 156.97 65.4775 156.789 65.5001C156.539 65.5454 156.221 65.6133 156.04 65.4095C155.881 65.2283 155.745 64.9566 155.676 64.7074C155.381 63.2579 154.473 62.7822 153.066 63.0314C152.771 63.0768 152.453 63.0768 152.158 63.0314C150.546 62.7596 149.366 63.1447 149.048 64.9566C148.957 65.4322 148.571 65.7039 148.117 65.5001C147.641 65.2962 148.004 64.9339 148.117 64.662C149.275 62.0123 150.433 59.3625 151.59 56.7126C151.749 56.3502 151.84 55.9199 152.408 55.9199C152.975 55.9199 153.043 56.3502 153.202 56.7126C154.36 59.3625 155.54 62.0123 156.698 64.662C156.811 64.8206 156.857 65.0019 156.925 65.1603ZM152.43 57.1655C151.727 58.7736 151.159 60.1098 150.569 61.446C150.41 61.8084 150.206 62.1708 150.887 62.1708C152.067 62.1482 153.248 62.1708 154.564 62.1708C153.86 60.4722 153.202 58.9547 152.43 57.1655Z" fill="white"/>
<path d="M194.947 60.6763C194.947 59.3627 194.969 58.0265 194.924 56.7129C194.901 56.0561 195.151 55.875 195.787 55.875C197.217 55.8975 198.669 55.8749 200.099 55.8975C200.417 55.8975 200.827 55.807 200.827 56.3505C200.827 56.9167 200.372 56.7356 200.077 56.7583C199.055 56.7809 198.033 56.7583 197.012 56.7583C196.785 56.7583 196.445 56.6676 196.354 56.7809C195.582 57.6189 196.15 58.6834 195.991 59.6346C195.899 60.178 196.309 60.2233 196.717 60.2233C197.784 60.2233 198.829 60.2233 199.895 60.2233C200.19 60.2233 200.531 60.2007 200.553 60.6536C200.576 61.1292 200.214 61.0841 199.941 61.0841C198.873 61.0841 197.83 61.1067 196.763 61.0841C196.172 61.0614 195.991 61.2425 195.968 61.8541C195.833 64.7304 195.833 64.7304 198.715 64.7304C199.328 64.7304 199.918 64.7304 200.531 64.7304C200.849 64.7304 201.03 64.8663 201.008 65.206C200.985 65.5004 200.803 65.591 200.553 65.591C198.851 65.591 197.149 65.591 195.447 65.591C194.856 65.591 194.924 65.1607 194.924 64.7984C194.947 63.3942 194.947 62.0353 194.947 60.6763Z" fill="white"/>
<path d="M187.32 64.0734C187.547 64.7076 187.274 64.9567 186.797 65.1832C184.936 66.1118 182.303 65.5456 181.009 63.9375C179.625 62.2163 179.625 59.204 181.009 57.5055C182.303 55.8974 184.914 55.3312 186.797 56.2598C187.251 56.4863 187.547 56.758 187.32 57.3696C186.094 56.7127 184.8 56.3957 183.437 56.8713C182.711 57.1204 182.121 57.5961 181.69 58.2528C180.714 59.7476 180.85 62.2616 181.962 63.5752C183.188 64.9794 185.027 65.1606 187.32 64.0734Z" fill="white"/>
<path d="M110.277 60.6301C110.277 59.3165 110.3 57.9803 110.277 56.6668C110.254 56.0779 110.459 55.874 111.049 55.874C112.365 55.8966 113.705 55.874 115.021 55.874C115.362 55.874 115.748 55.8287 115.725 56.3722C115.702 56.8705 115.316 56.7121 115.044 56.7347C114.068 56.7572 113.069 56.7799 112.093 56.7347C111.503 56.7121 111.344 56.9385 111.321 57.5047C111.185 60.4943 111.185 60.4943 114.091 60.4943C114.318 60.4943 114.545 60.4943 114.772 60.4943C115.021 60.4943 115.203 60.5396 115.226 60.8566C115.248 61.219 115.044 61.3096 114.749 61.3096C114.022 61.3096 113.296 61.3776 112.592 61.2869C111.48 61.151 111.208 61.6266 111.299 62.6232C111.367 63.3253 111.299 64.05 111.321 64.7748C111.321 65.1825 111.321 65.5448 110.754 65.5221C110.232 65.4995 110.277 65.1372 110.277 64.7975C110.277 63.4385 110.277 62.0343 110.277 60.6301Z" fill="white"/>
<path d="M124.147 60.8108C124.147 62.1244 124.147 63.4379 124.147 64.7741C124.147 65.1366 124.238 65.5669 123.625 65.5443C123.08 65.5216 123.216 65.0913 123.216 64.7968C123.216 62.0791 123.216 59.384 123.216 56.6661C123.216 56.3491 123.125 55.9641 123.67 55.9414C124.192 55.9414 124.17 56.2811 124.17 56.6434C124.147 58.025 124.147 59.4066 124.147 60.8108Z" fill="white"/>
</svg>
