<svg width="228" height="88" viewBox="0 0 228 88" fill="none" xmlns="http://www.w3.org/2000/svg">
<g clip-path="url(#clip0_2038_11613)">
<path d="M81.3573 26.4589C81.3496 26.7242 81.342 26.9892 81.3343 27.2543C81.3343 27.2958 81.3305 27.3338 81.3305 27.3754C81.3229 27.5535 81.3152 27.7351 81.3113 27.9132C80.866 27.7958 80.82 28.0646 80.8276 28.394C80.3286 28.3902 79.8336 28.3865 79.3346 28.3826C79.3383 28.1176 79.3729 27.8337 78.9506 27.8791C78.916 27.8828 78.8354 27.7995 78.8393 27.7617C78.8893 27.2958 78.5016 27.4283 78.2713 27.3527V27.3565C78.4094 26.9021 78.1023 26.887 77.7876 26.8831C77.7837 26.6407 77.8337 26.3605 77.419 26.4211C77.2885 26.4401 77.277 26.3151 77.2886 26.2204C77.3154 25.9932 77.2194 25.9061 76.993 25.9288C76.8931 25.9403 76.7895 25.9061 76.7934 25.785C76.8048 25.5122 76.7051 25.4138 76.4134 25.3911C76.1408 25.3684 76.3251 25.0731 76.233 24.9254C76.3058 24.505 76.0678 24.4406 75.711 24.4293C75.3271 24.4179 75.2348 24.5845 75.2811 24.9101L75.2848 24.914C74.7705 24.933 74.2599 25.4328 74.2254 25.9515C73.8492 25.891 73.6918 26.0501 73.7418 26.4174L73.7379 26.4211C73.4692 26.4135 73.2735 26.4135 73.1275 26.7581C73.0432 26.9551 72.7475 27.2504 72.5518 27.3263C72.2025 27.4625 72.2025 27.6594 72.2025 27.9245L72.1986 27.932C71.8339 27.8828 71.6728 28.0343 71.7226 28.3979L71.7149 28.4016C71.3465 28.3599 71.0855 28.4395 71.1622 28.8902C71.1622 28.9205 71.1662 28.9507 71.1662 28.981C71.1662 29.106 71.1699 29.2271 71.1699 29.3522C71.1776 29.5338 71.1815 29.7119 71.1892 29.8936C71.0816 30.3026 71.2812 30.4351 71.6652 30.401C71.6882 30.5601 71.7073 30.7192 71.7303 30.8744C71.6766 31.2266 71.8109 31.4045 72.1909 31.3515C72.2063 31.5295 72.2179 31.7074 72.2332 31.8855C72.1411 32.268 72.3022 32.4269 72.6899 32.3854C72.6976 32.5367 72.7054 32.6846 72.7131 32.8359C72.7208 33.0177 72.6285 33.2335 72.7975 33.3736C73.1085 33.6274 73.2044 33.9606 73.1928 34.3318C73.1814 34.6991 73.3348 34.8921 73.7264 34.8582C73.7379 35.0095 73.7455 35.1648 73.7571 35.3163C73.7609 35.4981 73.7685 35.6836 73.7725 35.8654C73.6842 36.2403 73.8415 36.3994 74.2215 36.3614C74.2292 36.5129 74.2369 36.6682 74.2445 36.8197C74.2445 37.0052 74.2599 37.1907 74.2408 37.3764C74.2024 37.7323 74.3521 37.8989 74.7168 37.8687C74.7205 38.0239 74.7244 38.1754 74.7282 38.3307C74.7282 38.3722 74.7321 38.4139 74.7321 38.4517C74.7321 38.5352 74.7321 38.6184 74.7321 38.7055C74.7321 38.7471 74.7359 38.7851 74.7359 38.8266C74.7398 38.9706 74.7474 39.1146 74.7514 39.2583C74.7437 39.4439 74.7474 39.6295 74.7244 39.815C74.6668 40.2278 74.8548 40.3869 75.258 40.3415C75.2695 40.4967 75.2811 40.648 75.2925 40.8035C75.2925 41.1481 75.2925 41.4964 75.2925 41.841C75.2964 42.1514 75.2964 42.4658 75.3001 42.7762C75.2964 43.2914 75.3117 43.8064 75.2848 44.3213C75.2695 44.6696 75.4 44.8173 75.7494 44.7795C75.7494 46.0708 75.7531 47.3584 75.7531 48.6497C75.4921 48.6421 75.2811 48.6685 75.2887 49.0207C75.3117 49.7592 75.3078 50.4975 75.3155 51.2397C75.3078 51.5768 75.3001 51.9138 75.2925 52.2508C75.2925 52.5652 75.2925 52.8795 75.2925 53.1975C75.2848 53.3794 75.2811 53.5612 75.2734 53.7467C75.1658 53.8678 74.8934 53.7808 74.8934 54.0383C74.8934 54.4623 74.6975 54.8676 74.7474 55.2955C74.7435 55.4129 74.7435 55.5303 74.7398 55.6438C74.7398 55.6818 74.7359 55.7196 74.7359 55.7575C74.7282 55.9127 74.7205 56.0642 74.7128 56.2195C74.2254 56.1589 74.2178 56.4579 74.2599 56.7989C74.2599 57.0827 74.1832 57.3631 74.2445 57.647C74.2331 57.8288 74.2254 58.0106 74.2138 58.1961C73.8071 58.1166 73.6958 58.325 73.7341 58.6771C73.6189 58.8475 73.7648 59.105 73.5575 59.2336C73.1775 59.4723 73.1429 59.8055 73.2581 60.1918C73.2465 60.3433 73.2351 60.4947 73.2198 60.6424C72.8319 60.6387 72.6632 60.828 72.6976 61.2105C72.7131 61.377 72.7015 61.5475 72.7054 61.7179C72.6976 61.8694 72.6938 62.0208 72.6862 62.1723C72.2792 62.1079 72.1488 62.2897 72.2295 62.6646C72.2218 62.8161 72.2102 62.9675 72.2025 63.1151C71.8186 63.1115 71.6306 63.2743 71.6575 63.6757C71.6689 63.8195 71.7112 64.0694 71.5729 64.1073C70.9396 64.2739 71.2122 64.7511 71.1738 65.1223C71.1738 65.1487 71.1662 65.1752 71.1508 65.1979C70.7362 65.1223 70.6326 65.3343 70.6939 65.6902C70.6863 65.8417 70.6825 65.9931 70.6748 66.1446C70.3216 66.1068 70.1296 66.2279 70.1989 66.6103C70.0299 66.7467 70.145 66.9361 70.1106 67.0952C69.9685 67.167 69.6959 67.0686 69.6883 67.2883C69.6729 67.6896 69.4119 67.6556 69.1509 67.6669C69.0012 67.6593 68.8516 67.6517 68.7017 67.6442C68.7249 67.2353 68.5176 67.0875 68.1299 67.1482C68.1222 67.1292 68.1107 67.114 68.0991 67.0989C68.1913 66.6748 67.957 66.5915 67.6001 66.6369C67.4504 66.6293 67.2969 66.6256 67.1473 66.6181C67.1894 66.2469 67.0627 66.0538 66.652 66.1636C66.6251 66.1561 66.5983 66.1483 66.5714 66.1332C66.629 65.7471 66.4333 65.6297 66.0801 65.6788C65.7117 65.7244 65.5043 65.6145 65.6157 65.2055C66.0224 65.2206 66.1568 65.0124 66.0954 64.6375C66.0993 64.4897 66.107 64.3383 66.1107 64.1907C66.441 64.1868 66.7287 64.1453 66.583 63.6984L66.606 63.7097C67.0474 63.7363 67.2047 63.5203 67.1317 63.1076C67.1394 62.9599 67.1471 62.8084 67.1548 62.6607C67.5656 62.7327 67.6846 62.5358 67.6154 62.1684C67.6231 62.0208 67.6309 61.8694 67.6423 61.7216C68.0109 61.7367 68.2566 61.6383 68.126 61.2029C68.2104 61.0628 68.1759 60.9076 68.1836 60.756C68.575 60.7485 68.744 60.5667 68.6596 60.1767C68.6673 60.0251 68.6787 59.8775 68.6864 59.7261C69.1816 59.8018 69.2085 59.5064 69.1547 59.1467C69.1586 59.0254 69.1623 58.9005 69.1663 58.7794C69.5423 58.7604 69.765 58.624 69.6383 58.2037C69.6499 58.0522 69.6653 57.9045 69.6767 57.7531C70.0759 57.738 70.3255 57.6167 70.1143 57.1623C70.0606 56.8404 70.2449 56.5451 70.218 56.227C70.6518 56.3103 70.7439 56.0945 70.6709 55.7309C70.6786 55.5795 70.6863 55.428 70.6939 55.2728C71.0548 55.2765 71.1662 55.0948 71.1776 54.7502C71.1853 54.398 71.0932 53.9436 71.3542 53.7201C71.7226 53.4096 71.7381 53.0802 71.6958 52.6864C71.6996 52.3758 71.7035 52.0653 71.7073 51.7549L71.738 51.7661C72.0949 51.8154 72.2639 51.679 72.2218 51.308C72.1986 51.1111 72.2102 50.9104 72.2063 50.7135C72.2063 50.3992 72.2102 50.0887 72.2102 49.7744C72.2179 49.4334 72.2255 49.0888 72.2332 48.7481C72.5711 48.7747 72.7092 48.6383 72.6976 48.2861C72.6746 47.6159 72.6938 46.9455 72.6938 46.2792C72.6938 45.1165 72.6938 43.9577 72.6899 42.7952C72.6938 42.2764 72.6822 41.7614 72.7054 41.2426C72.7208 40.8943 72.5902 40.7427 72.2371 40.792C72.2255 40.3224 72.2139 39.8568 72.2025 39.3872C72.2063 39.2015 72.2063 39.016 72.2102 38.8266C72.1142 38.2965 72.5518 37.63 71.7918 37.2666C71.7458 37.2439 71.7649 37.0886 71.7611 36.9939C71.7535 36.7743 71.7303 36.5546 71.7458 36.335C71.7726 35.9411 71.6229 35.7329 71.2006 35.7746C71.1853 35.6231 71.1699 35.4715 71.1585 35.3163C71.1585 35.1572 71.1585 35.002 71.1622 34.843C71.2429 34.4719 71.1009 34.3015 70.7093 34.3545C70.7016 34.1727 70.6939 33.9871 70.6863 33.8053C70.763 32.9382 70.7439 32.9003 70.2103 32.8511C70.2026 32.7034 70.1949 32.552 70.1873 32.4042C70.2219 31.6659 70.1489 31.5258 69.6767 31.4121C69.669 31.3818 69.6576 31.3515 69.6499 31.3213C69.7573 30.954 69.623 30.7836 69.2316 30.8478C68.9782 30.8895 68.6212 30.7836 68.6403 31.2379C68.6443 31.3174 68.5406 31.3552 68.46 31.3552C68.2489 31.3552 68.1376 31.4462 68.1337 31.662C68.1337 31.7643 68.076 31.8665 67.9763 31.8665C67.581 31.859 67.627 32.1355 67.6232 32.3815C67.2317 32.3171 67.0704 32.4725 67.1473 32.8586C67.151 33.1995 67.1549 33.5403 67.1587 33.8812C67.1587 34.0401 67.1548 34.1992 67.1548 34.3545C67.0857 34.7181 67.224 34.8921 67.6077 34.843C67.6193 34.9983 67.627 35.1496 67.6386 35.305C67.6386 35.4867 67.6423 35.6723 67.6423 35.854C67.6347 36.0245 67.6386 36.1949 67.6193 36.3614C67.577 36.7364 67.7537 36.8651 68.1107 36.8158H68.1413C68.1337 36.9712 68.126 37.1265 68.1183 37.2817C68.057 37.6376 68.1376 37.986 68.1797 38.3382C68.0991 38.501 68.0876 38.6601 68.199 38.8115C68.1529 39.1448 68.2603 39.3416 68.6443 39.2886C68.6557 39.3833 68.6673 39.4743 68.6787 39.5688C68.6826 40.3188 68.6903 41.0685 68.694 41.822C68.694 43.3141 68.698 44.806 68.698 46.298C68.694 46.7978 68.6903 47.3015 68.6864 47.8014C68.6826 48.3051 68.6826 48.8049 68.6787 49.3085L68.6519 49.2972C68.337 49.2706 68.2143 49.4146 68.172 49.7214C68.0991 50.2515 68.103 50.7777 68.1222 51.308C68.1337 51.4632 68.1413 51.6185 68.1529 51.7776L68.126 51.7813C67.7767 51.7359 67.5924 51.8571 67.6347 52.232C67.6539 52.3985 67.6463 52.5689 67.65 52.7355C67.6463 52.9211 67.6463 53.1029 67.6423 53.2885C67.6347 53.4438 67.627 53.5951 67.6193 53.7504C67.3007 53.7315 67.1203 53.8414 67.151 54.1935C67.1664 54.3905 67.1473 54.5911 67.1433 54.7881C67.1357 54.9433 67.128 55.0985 67.1203 55.2576C66.7403 55.2047 66.6097 55.3863 66.6636 55.7348C66.6559 55.89 66.6481 56.0415 66.6443 56.1968C66.4947 56.3406 66.606 56.5262 66.56 56.6852C66.0378 56.6019 66.0917 56.9465 66.1107 57.2684C66.1031 57.4161 66.0917 57.5676 66.0801 57.7153C65.6617 57.6357 65.5541 57.8403 65.6194 58.2037C65.6117 58.3552 65.6003 58.5066 65.5927 58.6581C65.1704 58.6164 65.0591 58.8436 65.1167 59.2072C65.0667 59.4382 65.2087 59.7639 64.7481 59.7791C64.6791 59.7828 64.6214 60.1803 64.5638 60.4C64.537 60.4947 64.6061 60.6689 64.4448 60.6538C64.0341 60.616 64.0841 60.8847 64.0764 61.1271C63.6925 61.1271 63.5082 61.2976 63.5928 61.6913C63.5697 61.9375 63.6311 62.2063 63.1935 62.1875C62.9286 62.176 63.1244 62.5018 63.0245 62.6419C62.6485 62.6002 62.4604 62.729 62.5601 63.1303C62.5525 63.153 62.5409 63.1796 62.5295 63.2023C62.1418 63.1379 62.0112 63.3197 62.0572 63.6757C61.7195 63.6606 61.5545 63.8158 61.5852 64.1528C61.4815 64.3496 61.6044 64.7208 61.1552 64.6564C61.0095 64.6337 61.0325 64.8079 61.0248 64.9102C61.0171 65.0161 61.0362 65.1789 60.8905 65.1638C60.4719 65.1184 60.5488 65.4176 60.5142 65.6448C60.1419 65.5955 59.9462 65.7205 60.0345 66.1219H60.0382C59.6736 66.0917 59.3972 66.1561 59.4855 66.6142L59.4816 66.6181C59.2092 66.6066 58.9213 66.5725 58.9826 66.993C58.9903 67.0611 58.9328 67.1216 58.8675 67.1104C58.3953 67.0194 58.5259 67.436 58.4069 67.6405C58.1803 67.6366 57.9539 67.5722 57.9463 67.9509C57.9423 68.269 57.6239 68.0417 57.4703 68.1289C57.098 68.0683 56.9176 68.2047 56.979 68.5947C56.9597 68.6174 56.9406 68.6326 56.9176 68.6477C56.5299 68.5418 56.4186 68.7083 56.4953 69.0643L56.503 69.0719C56.077 69.0189 55.8964 69.2649 55.8197 69.6286C55.697 69.6323 55.574 69.6361 55.4513 69.6361C55.0943 69.583 54.8984 69.7004 54.96 70.0906L54.9676 70.1057C54.5991 70.0564 54.315 70.1057 54.3918 70.579C54.2383 70.5865 54.0885 70.5904 53.935 70.598C53.5857 70.5563 53.3361 70.6207 53.436 71.0524C53.2134 71.1735 52.8371 71.0031 52.7911 71.4991C52.7758 71.6621 52.2231 71.6128 51.9121 71.624C51.5512 71.5711 51.2711 71.6279 51.3209 72.086L51.3325 72.1051C51.1751 72.1051 51.0178 72.1051 50.8604 72.1012C50.4803 72.0255 50.3115 72.1732 50.3613 72.5556L50.3729 72.5746C49.9622 72.6163 49.4209 72.3928 49.3172 73.0669C49.1638 73.0783 49.0063 73.0896 48.8529 73.101C48.5266 73.0403 48.0929 73.0745 47.9583 73.2714C47.7666 73.5592 47.5476 73.5516 47.2943 73.597C47.137 73.6009 46.9757 73.6009 46.8183 73.6046C46.4729 73.5667 46.1659 73.5819 46.235 74.059C46.0776 74.0666 45.924 74.078 45.7666 74.0856C45.448 74.0893 45.1333 74.0893 44.8147 74.0931C44.4654 74.0477 44.1507 74.0439 44.2197 74.54C44.0624 74.5437 43.905 74.5476 43.7477 74.5551C43.713 74.5551 43.6784 74.5551 43.6401 74.5588C43.4904 74.5627 43.3368 74.5703 43.1871 74.574C42.5231 74.5779 41.8591 74.5815 41.1911 74.5815C40.8302 74.574 40.4695 74.5664 40.1125 74.5551C39.7594 74.5476 39.5866 74.7104 39.6096 75.0626C38.4312 75.1043 37.2566 75.1118 36.0783 75.055C36.132 74.6423 35.9323 74.4983 35.537 74.5476C35.3834 74.5664 35.2299 74.5664 35.0726 74.5779C34.374 74.574 33.6791 74.5703 32.9806 74.5627C32.6657 74.5551 32.3548 74.5476 32.0401 74.5361C32.1054 74.0514 31.7944 74.0439 31.449 74.0856C31.1304 74.0856 30.8157 74.0856 30.4971 74.0856C30.3089 74.078 30.1208 74.0704 29.9365 74.0666C29.8445 73.4381 29.3571 73.6197 28.9655 73.6084C28.7812 73.597 28.6008 73.5857 28.4165 73.5782C28.2938 72.9798 27.8139 73.1086 27.4032 73.0935C27.2535 73.0859 27.0999 73.0783 26.9502 73.0708C26.7775 72.5292 26.313 72.5973 25.8909 72.5822C25.7373 72.5746 25.5837 72.5632 25.4302 72.5556C25.4839 72.1656 25.3226 72.0104 24.9312 72.1089C24.7507 72.0975 24.5703 72.086 24.3939 72.0748C24.4783 71.6469 24.2594 71.5484 23.887 71.624C23.7374 71.6165 23.5916 71.6089 23.4417 71.6013C23.4994 71.1129 23.1807 71.0788 22.82 71.1015C22.6817 71.0902 22.5397 71.0827 22.4016 71.0712C22.3863 71.0334 22.3747 70.9917 22.3594 70.9538C22.4744 70.4806 22.0946 70.6358 21.8757 70.5828C21.8987 70.2307 21.7874 70.0186 21.3767 70.1284C21.1425 70.0677 20.7933 70.2307 20.801 69.7421C20.8048 69.5414 20.5054 69.6891 20.3557 69.6247C20.3518 69.3067 20.3097 69.0265 19.8644 69.159L19.8721 69.1439C19.8911 68.7234 19.707 68.5227 19.2694 68.6099C19.0468 68.5833 18.7704 68.697 18.7858 68.2653C18.7934 67.9963 18.4825 68.1933 18.3289 68.1252C18.3558 67.7313 18.1754 67.5609 17.7762 67.6329V67.629C17.8337 67.258 17.7032 67.0723 17.2964 67.1633V67.1519C17.3347 66.777 17.2273 66.5422 16.782 66.6332L16.7782 66.6293C16.8127 66.281 16.7244 66.0575 16.3022 66.1598C16.2792 66.1483 16.2561 66.1371 16.2331 66.1295C16.3214 65.7244 16.1141 65.6145 15.7533 65.6599H15.7494C15.7878 65.3153 15.7111 65.0767 15.2773 65.1828L15.2735 65.1865C15.2389 64.9404 15.3771 64.5844 14.8896 64.6224C14.7322 64.6337 14.7706 64.4709 14.7591 64.3725C14.7476 64.2627 14.7591 64.1414 14.5864 64.1641C14.1603 64.2322 14.2294 63.9256 14.2064 63.6833C14.2524 63.3311 14.1258 63.1454 13.7381 63.2061C13.7265 63.1834 13.715 63.1569 13.7112 63.1342C13.8187 62.7214 13.5999 62.6153 13.2352 62.6531C13.17 62.4374 13.2659 62.1382 12.8283 62.1533C12.5942 62.1609 12.7746 61.8353 12.6786 61.6876C12.7554 61.2976 12.5827 61.1195 12.1911 61.1346L12.1758 61.1422C12.2833 60.7409 12.1029 60.6045 11.7152 60.6538C11.7075 60.5061 11.696 60.3546 11.6883 60.2069C11.7727 59.7942 11.5731 59.6465 11.1778 59.6844C11.1662 59.5291 11.1586 59.3739 11.1471 59.2185C11.2046 58.8512 11.0933 58.6279 10.6711 58.6657C10.6634 58.5142 10.6519 58.3628 10.6442 58.2113C10.7133 57.8478 10.5866 57.6546 10.1836 57.7229C10.1759 57.5713 10.1682 57.4237 10.1567 57.2721C10.2297 56.8594 10.1145 56.6019 9.62317 56.6739C9.61164 56.5224 9.60014 56.3747 9.58479 56.2232C9.57327 56.0035 9.72682 55.6665 9.27771 55.7423C9.00134 55.7877 9.14335 56.0415 9.10112 56.2043C8.87849 56.2346 8.54838 56.1096 8.61747 56.5489C8.63667 56.6739 8.52534 56.7042 8.42554 56.6927C8.19908 56.67 8.20293 56.8518 8.09928 56.9654C7.86898 57.2267 7.62332 57.5069 7.33543 57.6926C7.18956 57.7834 7.08208 57.8098 7.09744 57.9916C7.10511 58.0863 7.10511 58.2037 6.97075 58.1924C6.69439 58.1659 6.55236 58.2454 6.58306 58.5483C6.59459 58.6657 6.47559 58.6923 6.37579 58.6808C6.14933 58.662 6.05335 58.7604 6.06869 58.98C6.08021 59.1087 6.03031 59.2034 5.88445 59.1921C5.62726 59.1694 5.53899 59.2868 5.56969 59.5216C5.57353 59.5367 5.56586 59.567 5.56586 59.567C5.11674 59.548 5.18202 60.1691 4.7713 60.1879C4.63311 60.1957 4.56018 60.2411 4.57552 60.3812C4.59855 60.6008 4.50642 60.7068 4.2761 60.6804C4.2454 60.6765 4.18399 60.6841 4.18399 60.6879C4.19167 61.1234 3.60438 61.1007 3.55446 61.4868C3.54295 61.5663 3.53528 61.6876 3.4585 61.6725C3.01324 61.5891 3.0593 61.9375 2.9787 62.176C2.55645 62.0776 2.44515 62.2783 2.50272 62.6495C2.27242 62.6683 1.95766 62.5548 2.00756 62.9826C2.01908 63.066 1.973 63.1493 1.88087 63.1417C1.45097 63.1 1.4932 63.3841 1.50856 63.653L1.50471 63.6567C1.10167 63.5886 0.944275 63.7817 0.959629 64.1565C0.80225 64.1528 0.644882 64.149 0.491342 64.1453C0.537404 63.7741 0.380016 63.6189 0.00384227 63.687L0 63.6908C0.00383851 63.3424 0.00384602 62.9941 0.00768454 62.6456C0.414568 62.7327 0.537401 62.5396 0.487499 62.1723C0.852158 62.2177 1.06712 62.1193 0.971155 61.7028H0.974998C1.32814 61.7292 1.58915 61.6498 1.54309 61.218C1.96149 61.2483 2.08433 61.0287 2.02675 60.6575H2.03059C2.41061 60.7143 2.56798 60.5554 2.50657 60.1842H2.51041C3.02093 60.1691 3.54297 59.6578 3.566 59.1467V59.1428C3.94984 59.2034 4.0842 59.0217 4.04197 58.6657C4.04964 58.4043 4.0151 58.109 4.44502 58.1886C4.53329 58.2037 4.57554 58.1241 4.57937 58.037C4.58321 57.9765 4.58319 57.8591 4.59088 57.8591C5.02463 57.8439 5.0323 57.3592 5.35473 57.1889C5.63112 57.0412 5.78465 56.689 6.07638 56.4997C6.10324 56.4845 6.06871 56.3823 6.06487 56.3217C6.31439 56.1816 6.76348 56.227 6.61762 55.7309L6.62144 55.7272C6.99762 55.7953 7.18571 55.6665 7.10894 55.2689C7.46208 55.2538 7.71543 55.1478 7.61179 54.7236L7.58876 54.7009L7.61563 54.7236C7.86512 54.7085 8.19524 54.8108 8.14534 54.3639C8.13767 54.2958 8.18755 54.2314 8.25281 54.2389C8.77484 54.2882 8.62516 53.9246 8.629 53.6559C8.629 53.508 8.629 53.3603 8.62516 53.209C8.629 53.0272 8.61747 52.8417 8.63667 52.6636C8.67504 52.3038 8.48313 52.2054 8.16454 52.2433C8.14918 52.0766 8.13767 51.9101 8.12231 51.7434C8.19908 51.4254 8.07241 51.1072 8.10313 50.7892C8.18374 50.4219 8.14151 50.0582 8.09159 49.6872C8.04938 49.3768 7.88434 49.3048 7.62332 49.3009C7.60796 48.8049 7.59261 48.3051 7.57725 47.809C7.57725 47.4643 7.57342 47.1197 7.57342 46.7751C7.56956 45.1279 7.56956 43.4806 7.56573 41.8334C7.56956 41.4888 7.57342 41.1442 7.57725 40.7996C7.57725 40.4852 7.57725 40.1709 7.57725 39.8568C7.57725 39.5121 7.58107 39.1637 7.58107 38.8191L7.60794 38.8305C7.91119 38.8418 8.05322 38.7207 8.09544 38.4026C8.14534 38.0239 8.1607 37.6527 8.13 37.2778C8.12617 37.1226 8.11848 36.9712 8.11462 36.8158C8.12998 36.6645 8.14534 36.5129 8.16069 36.3614C8.5407 36.407 8.6789 36.2327 8.64434 35.873C8.62516 35.6875 8.63667 35.4981 8.63667 35.3087C8.63283 35.1535 8.629 34.9983 8.629 34.843C8.64052 34.6876 8.64817 34.5363 8.6597 34.381C9.03586 34.4189 9.20861 34.2712 9.11267 33.8888C9.1165 33.707 9.12417 33.5215 9.12801 33.3396C9.14719 33.1049 9.17022 32.8701 9.19325 32.6353C9.20092 32.5596 9.18942 32.4308 9.27002 32.4345C9.7153 32.4574 9.58478 32.1089 9.65387 31.8855C9.72297 31.6659 9.60399 31.3933 10.0185 31.2834C10.2335 31.2266 10.1682 30.7229 10.1913 30.4124C10.5751 30.4578 10.7555 30.3216 10.6519 29.9238C10.6672 29.7459 10.6788 29.568 10.6941 29.39C11.1048 29.4618 11.2238 29.2688 11.1547 28.9015C11.1624 28.7538 11.1739 28.6098 11.1816 28.4622C11.5386 28.4622 11.8188 28.3903 11.696 27.9359L11.7152 27.9435C12.0721 27.9699 12.2871 27.8639 12.1835 27.4588C12.195 27.2807 12.2027 27.099 12.2142 26.9209C12.5942 26.9741 12.7861 26.8452 12.6863 26.4401L12.7055 26.4477C13.17 26.4969 13.3158 26.2697 13.2467 25.8493C13.2544 25.7055 13.2621 25.5578 13.2698 25.4138C13.7073 25.5122 13.7918 25.2852 13.7381 24.9254L13.7496 24.933C14.1296 24.986 14.3023 24.842 14.2217 24.452L14.2255 24.4557C14.5864 24.4823 14.7898 24.3649 14.6862 23.9634L14.69 23.9673C15.1353 24.0317 15.3503 23.8613 15.2735 23.3993C15.2812 23.1607 15.2082 22.8615 15.6305 22.9335C15.6381 22.5208 16.1371 22.5093 16.2561 22.1988C16.3022 22.0739 16.3022 21.9451 16.4749 21.9604C16.7244 21.9831 16.7283 21.7141 16.8165 21.6612C17.1313 21.4718 17.2349 21.0742 17.5958 20.9568C17.6649 20.9341 17.8031 20.9568 17.7877 20.8734C17.6879 20.3887 18.1524 20.5212 18.3405 20.3584C18.8125 20.6159 18.8471 20.3471 18.8125 19.9835L18.8088 19.976C19.2079 20.0289 19.3921 19.8661 19.327 19.4649L19.3231 19.4495C19.7261 19.5291 19.9104 19.3626 19.8874 18.9648C20.0141 18.9612 20.1407 18.9611 20.2635 18.9573C20.7701 19.0331 20.8661 18.3627 21.346 18.3818C21.3574 18.3818 21.3844 18.2985 21.3844 18.2529C21.3921 18.0371 21.5457 18.0372 21.7068 17.9993C22.01 17.9236 22.3824 17.9046 22.3863 17.4578L22.3824 17.4502C22.7586 17.5184 22.9583 17.4048 22.8814 16.9958C23.0617 16.9844 23.2423 16.9731 23.4226 16.9617C23.8066 17.045 23.9753 16.8936 23.9216 16.5073C24.0713 16.4997 24.2249 16.4922 24.3746 16.4846C24.7737 16.5527 25.0194 16.4354 24.9963 15.9885C25.1193 15.9847 25.242 15.9771 25.3649 15.9734C25.791 16.0983 26.0136 15.9734 25.9522 15.5038C26.1326 15.4849 26.3169 15.4697 26.4973 15.4508C26.8889 15.553 27.0615 15.4091 27.0039 15.0077C27.3188 15.0001 27.6296 14.9926 27.9445 14.985C28.2861 15.0153 28.6199 15.038 28.5318 14.5306C28.6852 14.523 28.8388 14.5117 28.9924 14.5041C29.1881 14.5268 29.3838 14.5457 29.5719 14.4776C29.9365 14.4283 30.4202 14.6177 30.5085 14.0232L30.5162 14.0156C30.8808 14.008 31.2455 13.9777 31.6101 14.0042C31.9978 14.0307 32.1168 13.8565 32.0977 13.5157C32.4394 13.5082 32.781 13.4968 33.1264 13.4892C33.4489 13.5725 33.7674 13.4854 34.086 13.4779C34.4353 13.4741 34.7846 13.4741 35.13 13.4703C35.4909 13.4703 35.8556 13.4513 36.2163 13.4779C36.5733 13.5044 36.7077 13.3567 36.6809 13.0234C38.0205 13.0234 39.3602 13.0234 40.6998 13.0234C40.6691 13.3605 40.815 13.493 41.1642 13.4779C41.6824 13.4551 42.2045 13.4741 42.7227 13.4779C42.9147 13.4779 43.1066 13.4741 43.2984 13.4741C43.6784 13.4854 44.0624 13.4779 44.4424 13.5195C44.7571 13.5536 45.1563 13.4438 45.306 13.8906C45.3406 13.9891 45.475 13.9512 45.5633 13.9588C45.878 13.9853 46.1966 13.9929 46.5113 14.0345C46.8183 14.0724 47.1753 13.9929 47.3173 14.4246C47.375 14.5987 47.6399 14.4549 47.801 14.523C47.7435 14.985 48.0313 15.0304 48.3845 14.9888C48.5458 14.9888 48.7032 14.9888 48.8643 14.985C49.0216 14.9926 49.1752 15.0001 49.3326 15.0077C49.3058 15.3334 49.4362 15.4811 49.7895 15.5C49.9852 15.5114 50.2885 15.4432 50.3805 15.6969C50.4803 15.9771 50.6876 15.9166 50.8834 15.9279C51.0715 16.0074 51.2749 15.9809 51.4707 15.9923C51.6204 16.0112 51.7739 16.0302 51.9235 16.0529C51.7969 16.5224 52.1002 16.5111 52.4188 16.4846C52.6605 16.5224 52.9485 16.4429 52.9561 16.8746C52.9601 17.064 53.294 16.9125 53.4591 16.9958C53.3938 17.3858 53.5857 17.507 53.9465 17.4502C54.0961 17.4578 54.2497 17.4653 54.3994 17.4729C54.3573 17.9122 54.6413 18.003 54.9944 18.022L54.9867 18.0371C54.9177 18.4499 55.1594 18.5219 55.4973 18.4801C55.647 18.484 55.8004 18.4916 55.9503 18.4953C55.8964 18.874 56.027 19.0558 56.4377 18.9536C56.4607 18.9687 56.4837 18.9802 56.5107 18.9839C56.4186 19.4004 56.6334 19.5027 57.002 19.4495L56.9982 19.461C57.0327 19.9533 57.5393 20.4228 58.0806 20.4682C58.2879 20.4797 58.5603 20.3887 58.5182 20.7636C58.5029 20.9038 58.5719 20.9719 58.7102 20.9529C58.9596 20.919 59.0633 21.0174 59.0286 21.2636C59.0172 21.3393 59.0286 21.4452 59.1323 21.4339C59.4472 21.3998 59.5623 21.5438 59.5316 21.8354C59.9845 21.8125 59.9653 22.3958 60.3492 22.4526C60.4796 22.4715 60.5718 22.498 60.5488 22.6418C60.5142 22.8918 60.6216 22.9486 60.8673 22.96C61.1898 22.9713 60.9709 23.2554 61.0478 23.3993C60.9672 23.8423 61.1706 24.0203 61.6044 23.9824L61.6121 23.9749C61.4969 24.3915 61.7464 24.4634 62.0804 24.4557L62.0879 24.4481C61.9998 24.8459 62.1725 24.9897 62.5641 24.9291C62.5678 25.0502 62.5755 25.1715 62.5794 25.2889C62.5755 25.3267 62.5678 25.3646 62.5641 25.4024C62.5448 25.7584 62.6101 26.0349 63.0784 25.9364L63.0938 25.9327C62.9748 26.3832 63.2358 26.4665 63.6042 26.4477C63.6118 26.5992 63.6234 26.7469 63.6311 26.8982C63.5735 27.258 63.7078 27.4398 64.0955 27.3868H64.1032C64.0457 27.7541 64.0917 28.0382 64.5831 27.9511C64.5868 28.0721 64.5945 28.1934 64.5984 28.3145C64.5447 28.7348 64.6751 28.9771 65.1588 28.8978C65.5848 29.0113 65.6847 28.7916 65.6501 28.4319C65.8997 28.4168 66.2183 28.5076 66.1607 28.0646C66.1568 28.0267 66.2337 27.9396 66.2643 27.9396C66.7134 27.9775 66.6174 27.6101 66.698 27.3792L66.702 27.3829C67.0204 27.4436 67.2547 27.4095 67.151 26.9968C67.1587 26.8111 67.1664 26.6256 67.174 26.4362C67.224 26.0689 67.0934 25.8795 66.6904 25.963L66.6674 25.9742C66.6866 25.6069 66.5867 25.3457 66.1414 25.3646C66.1338 25.2169 66.1261 25.0692 66.1184 24.9216C66.1914 24.5428 66.0264 24.3915 65.6501 24.4369L65.6348 24.4481C65.6847 24.0998 65.6157 23.8536 65.1741 23.9559C65.109 23.7022 65.1934 23.3652 64.7174 23.3728C64.5601 23.3765 64.6905 23.066 64.5907 22.9298C64.6751 22.5359 64.4832 22.4109 64.1185 22.4526L64.1108 22.4602C64.1685 22.0966 64.0648 21.8884 63.6427 21.9755C63.5851 21.7368 63.6502 21.4112 63.2204 21.4528C63.1052 21.4642 63.0707 21.3468 63.0784 21.2484C63.0975 21.0325 63.0285 20.9454 62.7865 20.9417C62.4219 20.9378 62.6561 20.631 62.5717 20.4797C62.5678 20.313 62.5601 20.1502 62.5564 19.9835L62.5601 19.9874C62.9095 19.9835 63.2511 19.8549 63.6081 19.9154L63.6158 19.9306C63.5888 20.2903 63.6771 20.5402 64.1224 20.4607V20.457C64.0534 20.8204 64.2031 20.9871 64.5791 20.9605C64.5677 21.3505 64.7904 21.4679 65.1434 21.4301L65.155 21.4415C65.109 21.8125 65.2394 22.0246 65.654 21.9792L65.6578 21.9755C65.5657 22.3807 65.7614 22.5017 66.1338 22.4488L66.1377 22.4451C66.0993 22.7897 66.176 23.0282 66.6097 22.9222L66.6251 22.9146C66.6328 23.2591 66.7134 23.528 67.1626 23.4296C67.1933 23.6832 67.082 24.0051 67.5694 23.9787C67.7421 23.971 67.6077 24.2741 67.673 24.4254C67.6117 24.8003 67.7499 24.9821 68.1529 24.9026L68.1644 24.895C68.2027 25.1298 68.0607 25.4858 68.5329 25.429C68.8592 25.3873 69.2813 25.4631 69.1893 24.9064L69.197 24.914C69.5616 24.9594 69.7536 24.8307 69.6767 24.4406C69.7459 24.2058 69.7075 23.8992 70.122 23.937C70.2526 23.9483 70.241 23.7779 70.2449 23.6681C70.2486 23.5734 70.241 23.4484 70.3676 23.456C70.6517 23.4711 70.7822 23.3765 70.74 23.0811C70.7209 22.9562 70.8245 22.9222 70.9282 22.9373C71.1585 22.9637 71.2506 22.8729 71.2236 22.6457C71.2083 22.5093 71.2812 22.4336 71.4195 22.4488C71.6689 22.479 71.7765 22.3768 71.7495 22.1307C71.7381 22.0246 71.7879 21.9338 71.9108 21.9528C72.3099 22.0133 72.2409 21.7256 72.2639 21.5059C72.4673 21.4794 72.7438 21.5589 72.7361 21.2104C72.7284 20.8507 72.4519 20.9605 72.2525 20.9417L72.2485 20.9454C72.2985 20.5819 72.1832 20.385 71.7726 20.4682L71.7688 20.4721C71.7495 20.2183 71.8072 19.9154 71.3926 19.9191C71.3082 19.9191 71.2313 19.8586 71.2352 19.7753C71.2466 19.3853 70.9626 19.4383 70.7169 19.4268C70.7899 19.0368 70.6326 18.8779 70.2372 18.9573L70.2296 18.9611C70.264 18.5787 70.1066 18.3893 69.6999 18.4537H69.692C69.7803 18.0523 69.5923 17.8856 69.197 17.8971C69.197 17.4313 69.197 16.9655 69.197 16.4997C69.3506 16.4467 69.6383 16.5679 69.6537 16.371C69.6843 15.9014 70.0453 15.9847 70.2986 15.962C70.6326 15.9355 70.7938 15.8257 70.7516 15.4848C71.3772 15.4773 72.0029 15.4659 72.6285 15.4584C72.6669 15.4962 72.7053 15.4924 72.7399 15.4546L72.7322 15.447C73.0815 15.4432 73.4308 15.4432 73.7801 15.4394C74.2907 15.4394 74.8051 15.4432 75.3155 15.4432C75.4884 15.4432 75.6611 15.4356 75.8337 15.4508C76.1868 15.4849 76.3251 15.3296 76.2828 14.9926C76.7934 14.9812 77.3 14.9736 77.8106 14.9623C78.325 14.9585 78.8431 14.9547 79.3576 14.9547C79.6992 14.9661 80.0446 14.9774 80.3863 14.9926C80.321 15.3826 80.4976 15.5265 80.8813 15.4546L80.8776 15.4621C80.8506 15.8067 80.9505 16.0226 81.3612 15.9279L81.3766 15.9166C81.4189 16.3445 81.4035 16.7989 81.9216 16.992C81.9178 17.1359 81.9102 17.2836 81.9063 17.4275C81.8103 17.7797 81.8065 18.128 81.9063 18.4801C81.9025 18.946 81.8986 19.408 81.8948 19.8737C81.6222 19.8851 81.4956 19.9835 81.461 20.2942C81.3189 21.5967 81.4073 22.8993 81.3842 24.1982C81.3189 24.9518 81.2613 25.7055 81.3573 26.4589ZM52.7335 42.2878C52.795 42.2991 52.8295 42.2803 52.8295 42.2122C52.8334 42.0872 52.8371 41.9659 52.8411 41.841L52.8448 41.8448C53.2594 41.8712 53.4514 41.6819 53.4168 41.273H53.413C53.8582 41.3904 53.9311 41.1481 53.889 40.7959L53.8928 40.7996C54.269 40.8526 54.4531 40.7163 54.3687 40.3224L54.3727 40.3263C54.7065 40.3376 54.96 40.2732 54.8486 39.8492L54.8563 39.8529C55.2747 39.887 55.5011 39.7355 55.4281 39.2886V39.2849C55.8274 39.3606 55.954 39.1712 55.9041 38.8078H55.908C56.2611 38.8456 56.4646 38.7319 56.3877 38.3382C56.476 38.0732 56.4876 37.7286 56.929 37.8459C57.2899 37.9065 57.4896 37.7891 57.4433 37.3991C57.4433 37.3649 57.4434 37.3347 57.4396 37.3005V37.2968C57.808 37.3422 57.9616 37.1794 57.9117 36.8197C58.2686 36.8538 58.4413 36.706 58.3876 36.3426C58.5643 36.2213 58.3147 35.8579 58.6065 35.8615C59.0096 35.8654 58.9712 35.6419 58.9596 35.392C59.2782 35.3504 59.5892 35.2975 59.4625 34.8506C59.8579 34.9112 60.0652 34.7711 60.0036 34.3508H60.0113C60.4068 34.4226 60.5642 34.2636 60.4835 33.8773L60.4873 33.8736C60.9172 33.9152 61.0823 33.7297 60.9709 33.3169C60.9709 33.1654 60.9709 33.0139 60.9672 32.8586C61.0439 32.4876 60.9019 32.3134 60.5103 32.3664C60.4989 32.215 60.4912 32.0635 60.4796 31.9082C60.5372 31.5522 60.4835 31.2796 60.0152 31.3288C60.0036 31.1773 59.9922 31.0259 59.9806 30.8744C60.0996 30.4314 59.8002 30.3329 59.4625 30.2648C59.4586 30.1435 59.4509 30.0261 59.4472 29.905C59.52 29.5263 59.3856 29.3142 58.9673 29.3332C58.9596 29.1816 58.9519 29.0303 58.9443 28.8788C59.0287 28.4924 58.8713 28.3335 58.476 28.394C58.4683 28.2501 58.4567 28.1024 58.449 27.9586C58.5259 27.5306 58.3455 27.3299 57.9079 27.3527L57.8963 27.3602C57.9002 27.2316 57.904 27.1027 57.9079 26.9741C57.8733 26.9475 57.8349 26.9209 57.8003 26.8982C57.6776 26.8907 57.5547 26.8831 57.4319 26.8755C57.405 26.6483 57.4972 26.3454 57.0673 26.3984C56.9023 26.4174 56.952 26.247 56.9406 26.1485C56.929 26.0576 56.9483 25.9024 56.8407 25.9175C56.3686 25.9857 56.5107 25.5615 56.3647 25.3721C56.4723 24.9557 56.2304 24.8799 55.8887 24.895L55.8811 24.9026C55.9617 24.5125 55.7967 24.3612 55.409 24.4254V24.4293C55.409 24.1604 55.4358 23.8802 55.0174 23.9104C54.9791 23.9143 54.8947 23.8309 54.8984 23.7894C54.9214 23.3728 54.5953 23.4409 54.3497 23.3918L54.3534 23.3879C54.4531 22.9713 54.2267 22.8805 53.8697 22.9183L53.8737 22.9146C53.935 22.5359 53.7968 22.3541 53.3861 22.4488L53.3938 22.4412C53.436 22.036 53.2441 21.8845 52.8487 21.9489L52.8334 21.9375C52.8678 21.5665 52.7374 21.3583 52.3228 21.4188C52.2921 21.4037 52.2614 21.4074 52.2384 21.4339C52.1118 21.4264 51.9851 21.4149 51.8584 21.4074C51.9544 20.9151 51.6358 20.9038 51.2865 20.9302L51.2941 20.919C51.3708 20.5175 51.1828 20.3887 50.8066 20.457C50.6032 20.3926 50.2578 20.5402 50.3076 20.1048C50.3268 19.9457 50.1655 19.9723 50.0619 19.9647C49.8278 19.9496 49.4516 19.9003 49.4286 19.779C49.3479 19.3587 49.0639 19.4268 48.7952 19.4117C48.8336 19.0407 48.6993 18.8589 48.2962 18.9611C48.1159 18.9497 47.9316 18.9384 47.7512 18.927C47.824 18.5182 47.6322 18.3969 47.2522 18.4764C46.9643 18.4764 46.5689 18.4574 46.4614 18.2719C46.2656 17.9349 45.9777 17.9954 45.7167 17.9122C45.7936 17.4805 45.5709 17.3858 45.1947 17.4654C44.8607 17.4502 44.5267 17.4351 44.1928 17.4199C44.2697 17.0072 44.0547 16.9125 43.6938 16.9731C43.5364 16.9731 43.3791 16.9769 43.2217 16.9769C43.0337 16.9655 42.8455 16.9579 42.6574 16.9466C42.6844 16.6209 42.5614 16.4467 42.2007 16.4846C42.0278 16.5035 41.8551 16.4922 41.6825 16.4959C41.4905 16.4959 41.3024 16.4959 41.1105 16.4922C40.7958 16.4808 40.4848 16.4694 40.1701 16.4619C40.0932 16.3217 40.1855 16.0832 39.9359 16.0491C39.3409 15.9658 38.7422 15.8673 38.1395 15.9999C36.9226 15.9999 35.7097 15.9999 34.493 15.9999C33.9633 15.8863 33.4373 15.962 32.9077 15.9999C32.5814 16.0226 32.47 16.174 32.4661 16.4581C32.1514 16.4656 31.8367 16.4732 31.5218 16.4808C31.1764 16.4922 30.831 16.5187 30.4855 16.5035C30.1478 16.4883 30.0057 16.6436 29.9788 16.9503C29.6334 16.9579 29.2918 16.9655 28.9462 16.9731C28.5855 16.9163 28.2938 16.9503 28.3512 17.4237C28.0711 17.4313 27.7909 17.4426 27.5106 17.4502C27.1921 17.4388 26.8236 17.3669 26.9195 17.8932C26.7622 17.9009 26.6048 17.9085 26.4473 17.9122C26.1212 17.95 25.7986 17.9993 25.8409 18.4462C25.6912 18.4537 25.5415 18.465 25.3879 18.4726C25.0233 18.4083 24.7892 18.4877 24.885 18.9233C24.7047 18.9346 24.5243 18.9497 24.3439 18.9611C23.9486 18.8628 23.795 19.0293 23.8449 19.4117C23.6913 19.4193 23.5416 19.4268 23.388 19.4344C23.1347 19.4459 22.82 19.3285 22.7893 19.7526C22.7854 19.8397 22.7049 19.8851 22.6204 19.8851C22.2673 19.8851 22.2443 20.0934 22.3094 20.3584C22.179 20.5251 21.9831 20.385 21.8334 20.457C21.442 20.3926 21.2384 20.5365 21.2731 20.9454L21.277 20.9529C20.8661 20.8507 20.7471 21.0476 20.7894 21.4112C20.6358 21.4869 20.4478 21.3734 20.302 21.4984C19.9604 21.4679 19.7952 21.6158 19.8144 21.9565L19.8068 21.9641C19.4498 21.9375 19.1888 22.0209 19.2578 22.4563V22.4526C18.8701 22.3882 18.7128 22.5473 18.7742 22.9259H18.7781C18.4095 22.8766 18.2138 23.0016 18.2944 23.3993H18.2982C18.0295 23.4069 17.7301 23.3689 17.7186 23.7742C17.7148 23.8536 17.661 23.937 17.5766 23.9407C17.2234 23.9597 17.2426 24.2058 17.2426 24.4444C17.235 24.5921 17.2273 24.7398 17.2234 24.8874C16.9662 24.8874 16.6592 24.8193 16.7091 25.251C16.7129 25.2889 16.6361 25.3797 16.6016 25.376C16.1486 25.3533 16.2561 25.713 16.187 25.9515L16.1755 25.9439C15.7418 25.838 15.665 26.0728 15.7034 26.4211L15.6919 26.4135C15.308 26.3605 15.1545 26.5272 15.2197 26.8982C15.212 27.0459 15.2044 27.1974 15.2005 27.3451C14.7668 27.3072 14.6363 27.5533 14.6363 27.9245C14.571 28.0721 14.7246 28.3638 14.5173 28.3638C14.0797 28.3599 14.214 28.663 14.1564 28.8712C13.7688 28.8258 13.5999 28.9734 13.6958 29.3673C13.6843 29.5453 13.6728 29.7232 13.6574 29.9011C13.2467 29.8218 13.12 30.011 13.193 30.3858C13.1776 30.5374 13.1623 30.6889 13.1469 30.8403C12.7516 30.8176 12.5481 30.9577 12.6671 31.3781C12.6479 31.5522 12.6326 31.7226 12.6134 31.8968C12.2065 31.8287 12.0875 32.0218 12.1528 32.3854C12.1528 32.5406 12.1566 32.6958 12.1566 32.8511C12.1489 33.0026 12.1374 33.1578 12.1297 33.3094C11.6768 33.2677 11.6 33.5215 11.6653 33.8849C11.6653 34.044 11.6653 34.1992 11.6691 34.3583C11.6614 34.506 11.6537 34.6574 11.6499 34.805C11.3927 34.8694 11.243 35.0058 11.1855 35.2897C11.1164 35.6458 11.1048 35.998 11.1202 36.3538L11.0933 36.3426C10.7363 36.2971 10.5636 36.4297 10.6097 36.8007C10.6289 36.9674 10.625 37.1377 10.6288 37.3044C10.6288 37.4899 10.6288 37.6793 10.6288 37.8648C10.6288 38.02 10.6327 38.1791 10.6327 38.3343C10.6212 38.8342 10.6097 39.334 10.5982 39.8377C10.245 39.7999 10.1299 39.9551 10.1337 40.3036C10.149 41.6403 10.1452 42.9732 10.1299 44.3099C10.126 44.6584 10.2488 44.8097 10.5982 44.7643C10.6058 45.2642 10.6174 45.764 10.625 46.264C10.625 46.5782 10.625 46.8888 10.625 47.203C10.6212 47.3999 10.6327 47.6007 10.6097 47.7975C10.5713 48.1611 10.7287 48.3088 11.0895 48.2595C11.1087 48.4149 11.1279 48.5663 11.1471 48.7215C11.1432 48.8769 11.1394 49.0283 11.1355 49.1835C11.1048 49.388 11.0319 49.5925 11.1816 49.7856C11.1317 50.1492 11.2891 50.3045 11.6576 50.2552L11.6653 50.2515C11.6806 50.4333 11.5655 50.6945 11.8841 50.7096C12.2487 50.7286 12.1182 50.4333 12.1489 50.2476L12.1451 50.2439C12.5136 50.293 12.7132 50.1795 12.6287 49.7744L12.6326 49.778C13.0817 49.8349 13.2621 49.6343 13.2007 49.2025V49.2062C13.5884 49.2782 13.7304 49.1003 13.6843 48.7367C14.0605 48.7898 14.2179 48.6344 14.1641 48.2634C14.6862 48.2483 15.1967 47.737 15.2159 47.2144C15.2927 47.0705 15.07 46.7866 15.3886 46.7714C15.6266 46.7563 15.7456 46.7107 15.7072 46.4571C15.688 46.3094 15.7801 46.2563 15.9107 46.2753C16.1755 46.317 16.2446 46.1806 16.2293 45.9534C16.2216 45.8474 16.283 45.764 16.3982 45.7755C16.6822 45.802 16.759 45.6581 16.7398 45.4081C16.7359 45.3249 16.7935 45.249 16.8856 45.2605C17.3194 45.3286 17.2081 45.003 17.2465 44.7833C17.5037 44.7795 17.8107 44.8439 17.757 44.416C17.7493 44.3516 17.8107 44.2948 17.8759 44.3023C18.2944 44.3555 18.2752 44.079 18.2637 43.8064L18.2752 43.7988C18.5362 43.7912 18.8357 43.8442 18.7818 43.42C18.7704 43.3329 18.8471 43.2799 18.9354 43.2875C19.3615 43.3217 19.2464 43.0186 19.2617 42.7914H19.2655C19.6608 42.8521 19.8681 42.712 19.8068 42.2915H19.8144C20.2021 42.3598 20.3634 42.2044 20.2904 41.8183L20.2942 41.8144C20.6934 41.8522 20.8624 41.6743 20.8047 41.2843L20.8124 41.2806C21.181 41.3297 21.3574 41.1935 21.2807 40.811C21.3 40.7959 21.323 40.7883 21.346 40.7808C21.7606 40.8716 21.8757 40.6709 21.8297 40.3073V40.3112C22.2097 40.3717 22.39 40.2316 22.3094 39.8377V39.8416C22.7317 39.9059 22.8623 39.6938 22.8161 39.3152L22.8277 39.2962C23.2 39.3303 23.4264 39.2129 23.365 38.7963L23.3689 38.8002C23.7566 38.8645 23.914 38.7017 23.8526 38.3231C23.8563 38.3079 23.8603 38.2928 23.8603 38.2777C23.8833 37.7852 24.3553 37.6112 24.6394 37.3688C24.8966 37.1492 24.9657 36.7099 25.3919 36.6833C25.3919 36.6833 25.3919 36.653 25.3956 36.6379C25.4302 36.2364 26.0405 36.2933 26.0366 35.8579C26.0366 35.8579 26.098 35.8503 26.1289 35.854C26.3053 35.8654 26.3706 35.7934 26.4013 35.6155C26.4666 35.2482 27.0539 35.2822 27.0539 34.8392C27.4762 34.9148 27.4032 34.6158 27.4185 34.3772C27.7372 34.3772 28.0481 34.3735 27.9099 33.9076L27.9138 33.9115C28.3205 33.9303 28.5318 33.7599 28.4818 33.3396L28.4779 33.3358C28.9118 33.4419 28.9962 33.2108 28.9539 32.8549V32.8586C29.3185 32.904 29.5412 32.8095 29.4375 32.3891L29.4452 32.3929C29.8138 32.4193 30.0671 32.3285 29.9751 31.8855L29.9827 31.878C30.2207 31.8665 30.5238 31.9573 30.4971 31.5446C30.4894 31.4538 30.5661 31.397 30.6505 31.4045C31.0728 31.4424 31.0191 31.1206 31.069 30.8781C31.2225 30.8668 31.3721 30.8593 31.5257 30.8478C31.6831 30.8478 31.8405 30.8517 32.0017 30.8517C32.6811 30.8517 33.3606 30.8478 34.04 30.8478C34.2013 30.8478 34.3624 30.8478 34.5236 30.8478C34.7003 30.8593 34.8806 30.8705 35.0572 30.882C35.0226 31.2379 35.1379 31.4462 35.5486 31.3515V31.3477C35.5523 31.4992 35.56 31.6544 35.5639 31.806C35.6137 31.9878 35.4794 32.2717 35.748 32.3324C36.036 32.3966 36.0476 32.5748 36.036 32.783C36.013 33.1693 36.155 33.3812 36.5772 33.3396L36.6042 33.3358C36.6079 33.6804 36.6119 34.0213 36.6156 34.3659C36.4276 34.7181 36.6962 35.0627 36.6386 35.4147C36.581 35.7593 36.7499 35.9033 37.0877 35.8881L37.1032 35.8806C37.1069 36.3501 37.1109 36.8197 37.1146 37.2893C37.0646 37.6376 37.0762 37.9368 37.5713 37.8723C37.5792 38.0276 37.5829 38.1791 37.5906 38.3343C37.5906 38.3722 37.5945 38.4063 37.5945 38.4442C37.5983 38.5616 37.5983 38.6828 37.6022 38.8002C37.5676 38.9933 37.5636 39.1827 37.6175 39.372C37.5868 39.7318 37.6059 40.0877 37.6712 40.4474C37.7212 40.7163 37.8516 40.7844 38.0819 40.7844C38.0896 40.9397 38.1012 41.0988 38.1088 41.254C38.0551 41.4244 38.032 41.5986 38.1279 41.7653C38.1319 41.7917 38.1395 41.8183 38.1549 41.841C38.1472 42.0001 38.1433 42.1553 38.1356 42.3142C37.9859 42.6551 38.1549 42.9883 38.1509 43.3254C38.1472 43.6663 38.3161 43.761 38.6155 43.7419C38.6269 44.0827 38.6423 44.4197 38.6539 44.7606C38.6462 44.9234 38.6423 45.0862 38.6346 45.249C38.6346 45.6051 38.6578 45.9648 38.6346 46.317C38.6116 46.6767 38.7766 46.7941 39.1068 46.7639C39.1183 46.9455 39.1338 47.1312 39.1452 47.3128C39.1414 47.4946 39.1491 47.6801 39.1261 47.8619C39.0876 48.218 39.2565 48.3315 39.5905 48.2824C39.6404 48.6307 39.5598 48.9829 39.6635 49.3275C39.6058 49.479 39.6249 49.6343 39.6558 49.7856C39.5866 50.1227 39.6328 50.4521 39.6749 50.7892C39.7095 51.0884 39.8515 51.2209 40.1432 51.2285C40.1471 51.4064 40.1509 51.5882 40.1548 51.7661C40.1471 51.7776 40.1318 51.7927 40.1318 51.8003C40.1355 51.8267 40.1471 51.8533 40.1585 51.8798C40.1662 52.0009 40.1739 52.1222 40.1778 52.2433C40.0972 52.6106 40.1931 52.8302 40.6308 52.7431C40.6345 52.8947 40.6422 53.0499 40.6461 53.2014C40.5539 53.7277 40.8802 53.7542 41.2832 53.7655C41.6748 53.7769 41.7324 53.5839 41.6978 53.2808C41.7438 53.2732 41.7861 53.2657 41.8321 53.262C41.909 53.262 41.9818 53.262 42.0587 53.262C42.1277 53.2847 42.17 53.2657 42.1854 53.1939C42.2582 53.0499 42.0434 52.7621 42.3734 52.7583C42.6228 52.7546 42.7227 52.6826 42.692 52.4364C42.6767 52.3265 42.7341 52.2433 42.8531 52.2584C43.145 52.2963 43.2677 52.1864 43.2331 51.895C43.2217 51.7964 43.3024 51.7586 43.3907 51.7661C43.6401 51.7927 43.7437 51.6905 43.7168 51.4442C43.7014 51.3041 43.7821 51.236 43.9164 51.2512C44.1583 51.2777 44.2274 51.164 44.2044 50.9483C44.1928 50.8497 44.2313 50.7323 44.3503 50.755C44.8033 50.8384 44.6764 50.4597 44.7763 50.2591C45.1986 50.3537 45.3021 50.1454 45.2446 49.7819H45.2523C45.4787 49.7516 45.8013 49.8539 45.7513 49.4334C45.7397 49.3465 45.8013 49.2706 45.8896 49.2782C46.2963 49.3009 46.231 49.0131 46.2387 48.7747H46.2426C46.6266 48.8238 46.8299 48.68 46.7877 48.2747H46.7916C47.1869 48.3505 47.348 48.1953 47.2676 47.8014L47.2752 47.8051C47.7052 47.8582 47.824 47.6386 47.7742 47.2637L47.7856 47.2561C48.1812 47.3128 48.3806 47.169 48.3232 46.7563V46.76C48.7223 46.8395 48.8605 46.6616 48.8068 46.2867H48.8029C49.0332 46.2829 49.3058 46.3434 49.3096 45.9724C49.3096 45.8663 49.4018 45.8096 49.5053 45.802C49.7165 45.7906 49.8239 45.6959 49.8355 45.4838C49.8432 45.3664 49.9008 45.2566 50.0312 45.2529C50.3768 45.2339 50.3038 44.9727 50.3345 44.7682C50.3498 44.5334 50.2808 44.2457 50.7029 44.3023C50.8719 44.325 50.8374 44.1585 50.8335 44.06C50.8335 43.9123 50.8642 43.8064 51.0408 43.8252C51.2749 43.8479 51.3518 43.7381 51.3364 43.5223C51.3248 43.3632 51.4245 43.2914 51.5744 43.3027C51.8085 43.3217 51.8891 43.2194 51.8661 42.9998C51.8545 42.9051 51.8738 42.7838 52.0042 42.8067C52.4418 42.8748 52.3344 42.5605 52.3651 42.3371C52.4802 42.303 52.6068 42.2954 52.7335 42.2878ZM57.5317 41.8295C57.4664 41.8295 57.4434 41.8675 57.4549 41.9281C57.4473 42.0531 57.4396 42.1741 57.4319 42.2991C57.048 42.2349 56.8637 42.3674 56.9483 42.7687C56.622 42.7611 56.3303 42.7877 56.4607 43.2382L56.457 43.2345C56.077 43.2382 55.812 43.3556 55.885 43.8025L55.8887 43.8064C55.4704 43.7117 55.363 43.9199 55.409 44.2835C55.1594 44.2948 54.841 44.204 54.8831 44.6432C54.8908 44.7341 54.8024 44.7758 54.7181 44.7643C54.2958 44.7189 54.3803 45.0106 54.3803 45.249L54.3727 45.2566C53.9388 45.1924 53.816 45.4118 53.8658 45.7906C53.6278 45.7906 53.3361 45.6998 53.3668 46.1125C53.3745 46.1996 53.3171 46.2753 53.2287 46.264C52.7988 46.2072 52.8602 46.5139 52.8334 46.76L52.8295 46.7639C52.4381 46.688 52.2614 46.8244 52.3497 47.2296V47.2334C51.9467 47.1993 51.7739 47.3772 51.8468 47.7748H51.8431C51.4361 47.6991 51.2711 47.8846 51.2979 48.271V48.2747C50.8872 48.1838 50.7605 48.3732 50.8182 48.7442V48.7481C50.5878 48.7747 50.2655 48.6761 50.3192 49.104C50.3306 49.195 50.2655 49.2631 50.1771 49.2555C49.7741 49.2214 49.8009 49.4827 49.8202 49.7441L49.8086 49.7478C49.4171 49.6985 49.2213 49.8463 49.2789 50.2515V50.2552C48.8873 50.1795 48.7146 50.3272 48.7952 50.7248C48.5688 50.7626 48.2425 50.6566 48.2809 51.0769C48.2886 51.1565 48.2195 51.2436 48.135 51.236C47.705 51.1982 47.7666 51.5125 47.7359 51.7624H47.7396C47.3213 51.6678 47.206 51.8723 47.2599 52.2396V52.2357C46.8952 52.1903 46.6803 52.2963 46.78 52.7091V52.7053C46.35 52.6484 46.1889 52.8719 46.1927 53.262L46.1966 53.2657C45.736 53.1331 45.7129 53.4248 45.7206 53.7467C45.3253 53.671 45.1679 53.8299 45.237 54.2199C44.8991 54.1972 44.619 54.2351 44.7494 54.6895V54.6858C44.4308 54.6971 44.1161 54.72 44.1698 55.1666C43.2563 55.1629 43.2563 55.1629 43.2217 55.7158C43.0644 55.7233 42.9108 55.7348 42.7534 55.7423C42.5691 55.7499 42.3811 55.7575 42.1968 55.7612C41.5135 55.7612 40.8304 55.7575 40.1509 55.7575C39.9666 55.7499 39.7824 55.746 39.5982 55.7385C39.4715 55.7348 39.3486 55.7272 39.2219 55.7233C39.1912 55.6969 39.1568 55.6704 39.1261 55.6401C39.0646 55.5076 39.2372 55.2425 38.9495 55.2538C38.5656 55.2689 38.6193 55.0341 38.6309 54.8032C38.7038 54.3866 38.5388 54.1745 38.0935 54.2124L38.0628 54.2238C38.0666 54.0686 38.0705 53.9095 38.0782 53.7542C38.2585 53.2998 38.0282 53.1673 37.6136 53.1748C37.5983 52.8644 37.5829 52.5576 37.5676 52.2471C37.5713 52.088 37.5792 51.9252 37.5829 51.7661C37.5752 51.414 37.5483 51.0581 37.5713 50.7096C37.5945 50.3574 37.4293 50.24 37.1069 50.2552C37.0993 50.1 37.0953 49.9484 37.0877 49.7932C37.0877 49.4449 37.0839 49.1003 37.0839 48.7518C37.0839 48.5814 37.0723 48.4111 37.0877 48.2444C37.1223 47.8922 36.9496 47.7711 36.6195 47.7975C36.6119 47.4607 36.6003 47.1236 36.5926 46.7866C36.5926 46.298 36.5733 45.8096 36.6042 45.3249C36.6272 44.9271 36.4852 44.7341 36.0743 44.7568C36.0706 44.6054 36.0706 44.4539 36.0667 44.3062C36.0743 44.2948 36.0936 44.2835 36.0897 44.2721C36.0859 44.2457 36.0706 44.2228 36.0629 44.1964C36.0552 44.0751 36.0476 43.9502 36.0399 43.8291C36.0399 43.6397 36.0399 43.4542 36.0399 43.2648C36.0399 42.9392 36.0206 42.6134 36.0436 42.2878C36.0706 41.9357 35.917 41.8031 35.5793 41.8334C35.5677 41.4927 35.5562 41.1481 35.5486 40.8071C35.5523 40.648 35.5562 40.4928 35.56 40.3339C35.56 39.9741 35.5332 39.6181 35.56 39.2622C35.5869 38.8986 35.418 38.7851 35.0879 38.8154L35.0649 38.8266C35.0994 38.3307 35.0726 37.8384 35.0226 37.3461C35.1147 36.7023 35.011 36.4599 34.5966 36.3577C34.5773 36.3199 34.5583 36.2781 34.539 36.2403C34.5351 36.0926 34.5274 35.9411 34.5236 35.7934C34.612 35.3277 34.5006 34.8694 34.5006 34.4037C34.5006 34.097 34.3624 33.9152 34.0437 33.8888C34.0361 33.7107 34.0284 33.5327 34.017 33.3509C34.1014 32.9458 33.9247 32.802 33.5294 32.8738C33.1917 32.8738 32.85 32.8738 32.5123 32.8738C32.1321 32.802 31.9441 32.9306 32.021 33.3358L32.0287 33.3509C31.687 33.3282 31.4337 33.4002 31.5065 33.8243C31.1572 33.8471 30.8885 33.9454 30.9615 34.3735C30.5624 34.2939 30.4164 34.4682 30.4817 34.8467L30.4778 34.843C30.0211 34.8582 29.4798 35.3883 29.4184 35.8767L29.4222 35.8806C28.9924 35.7707 28.8964 35.9941 28.9425 36.3538L28.9385 36.3501C28.5662 36.3008 28.3819 36.4334 28.4588 36.8234L28.4549 36.8197C28.1862 36.8197 27.8906 36.778 27.8906 37.187C27.8906 37.2248 27.8062 37.3005 27.7639 37.2968C27.3265 37.2854 27.4185 37.6036 27.3955 37.8535L27.3993 37.8572C26.9925 37.774 26.8735 37.9709 26.9233 38.3307H26.9195C26.5663 38.2928 26.336 38.3798 26.4396 38.7963C26.4205 38.8078 26.3975 38.8191 26.3745 38.8266C25.9713 38.7434 25.8256 38.9176 25.8909 39.3001V39.3038C25.4532 39.2281 25.3342 39.4477 25.3765 39.8302L25.3726 39.8377C24.9887 39.7696 24.8313 39.9286 24.8966 40.3073L24.8889 40.3112C24.505 40.2656 24.2824 40.3869 24.3516 40.811H24.3477C23.96 40.7427 23.7834 40.8828 23.864 41.2806V41.2767C23.4419 41.2162 23.3074 41.4244 23.3574 41.8031L23.3536 41.822C23.0849 41.8144 22.8047 41.7917 22.8007 42.1856C22.8007 42.2234 22.7163 42.2915 22.6741 42.2915C22.275 42.2727 22.3324 42.5529 22.3287 42.7914L22.3248 42.7877C22.0677 42.7801 21.8067 42.7574 21.8067 43.1323C21.8067 43.174 21.7298 43.2534 21.6877 43.2534C21.2654 43.2572 21.2884 43.5564 21.277 43.8328V43.8291C20.8624 43.7305 20.7548 43.9426 20.7894 44.2986H20.7933C20.4055 44.2303 20.2481 44.3895 20.3097 44.7682C19.8221 44.7833 19.2924 45.3022 19.2541 45.8096V45.8057C18.8625 45.7376 18.7281 45.9155 18.7742 46.2792C18.5055 46.2716 18.3021 46.2565 18.1601 46.6123C18.0795 46.8054 17.7839 47.1122 17.5766 47.1879C17.2004 47.3243 17.2541 47.5476 17.2426 47.7975L17.2388 47.7938C16.8626 47.737 16.7014 47.8922 16.7551 48.2634L16.759 48.2671C16.3982 48.2255 16.2062 48.3542 16.2792 48.7405H16.2753C15.8339 48.68 15.6305 48.8579 15.6957 49.3009V49.3048C15.308 49.2404 15.1813 49.4259 15.2197 49.778H15.2159C14.9472 49.7744 14.6555 49.7251 14.6248 50.1265C14.6209 50.1681 14.5403 50.2364 14.4942 50.2364C14.1334 50.2591 14.1757 50.509 14.1872 50.7475C14.0106 50.7626 13.7649 50.6452 13.7073 50.9141C13.6613 51.1186 13.573 51.2133 13.3657 51.2246C13.2429 51.2322 13.1623 51.3117 13.1431 51.433C13.0817 51.823 12.6057 51.8647 12.4637 52.2169C12.4253 52.3114 12.1297 52.3418 12.1758 52.5918C12.2257 52.872 12.4675 52.7697 12.6364 52.8075C12.6441 52.9515 12.6556 53.0953 12.6633 53.2393C12.5635 54.1367 12.5903 54.1821 13.1776 54.2389L13.2045 54.2275C13.2045 54.3866 13.2084 54.5418 13.2084 54.7009C13.1623 55.0531 13.2429 55.2992 13.6766 55.2689C13.6306 55.6362 13.7956 55.7916 14.1641 55.7423C14.1718 55.89 14.1795 56.0415 14.1872 56.1892C14.1449 56.5338 14.2141 56.7762 14.6516 56.6776C14.7898 56.8216 14.6171 57.1623 14.8128 57.1623C15.2735 57.1547 15.1928 57.4578 15.2351 57.7114C15.1468 58.1053 15.3234 58.2454 15.7034 58.1961L15.7149 58.1886C15.6688 58.5407 15.7341 58.787 16.1832 58.6771C16.2945 58.8285 16.1333 59.158 16.3483 59.1694C16.7551 59.1921 16.7283 59.4496 16.7705 59.6995C16.6937 60.0895 16.8741 60.2296 17.2503 60.1767L17.2541 60.1728C17.2081 60.5325 17.3155 60.7409 17.7301 60.6499L17.734 60.6462C17.7608 60.8961 17.6994 61.2029 18.1139 61.2029C18.1562 61.2029 18.2368 61.2786 18.2368 61.3203C18.2291 61.7291 18.5248 61.68 18.7858 61.6876C18.7165 62.0738 18.8701 62.2329 19.2655 62.1572L19.2617 62.1648C19.2041 62.5889 19.4382 62.6949 19.8107 62.657L19.8221 62.6683C19.7761 63.028 19.9295 63.1871 20.2981 63.1266L20.3058 63.1303C20.2751 63.562 20.49 63.7287 20.9123 63.6681C21.0313 63.6757 21.1541 63.6833 21.2731 63.687C21.1924 64.1528 21.4497 64.2361 21.8374 64.1641L21.845 64.168C21.7913 64.5466 21.9601 64.6981 22.3363 64.6261C22.486 64.6337 22.6357 64.6412 22.7854 64.6488C22.7586 65.092 23.0311 65.1865 23.4034 65.1601L23.392 65.1865C23.3074 65.607 23.5186 65.7129 23.8947 65.6524C24.0444 65.6561 24.198 65.6599 24.3477 65.6675C24.3093 66.1029 24.555 66.1976 24.9273 66.1408C25.0809 66.1485 25.2383 66.1522 25.3919 66.1598C25.3457 66.5422 25.5069 66.6938 25.8909 66.6066C26.0712 66.6142 26.2516 66.6255 26.432 66.6332C26.5895 67.1292 26.9809 67.1482 27.4069 67.1026C27.5568 67.2049 27.7372 67.1292 27.8945 67.1709C27.8446 67.6329 28.1209 67.6859 28.4856 67.6253C28.6431 67.6253 28.8005 67.6253 28.9539 67.6253C29.1075 67.6366 29.2648 67.648 29.4184 67.6632C29.3569 68.1516 29.6641 68.163 30.0172 68.1137C30.332 68.1213 30.6428 68.1327 30.9577 68.1403C30.9308 68.4622 31.0382 68.644 31.4068 68.606C31.6101 68.5833 31.8137 68.6023 32.0171 68.5984C32.1783 68.5947 32.3394 68.5909 32.5046 68.5872C33.1687 68.6023 33.8366 68.6211 34.5006 68.6363C34.516 68.8332 34.4814 69.0604 34.7962 69.0719C35.7903 69.1058 36.7806 69.2459 37.7825 69.0946C38.1049 69.0453 38.1818 68.9091 38.1665 68.6401C38.8342 68.625 39.4983 68.6099 40.1662 68.5947C40.3275 68.5984 40.4888 68.6023 40.6498 68.606C41.0108 68.6023 41.3715 68.5757 41.7285 68.6023C42.0931 68.6287 42.2007 68.4583 42.1891 68.144C42.3465 68.1364 42.5001 68.1289 42.6574 68.1176C42.8455 68.1176 43.0298 68.1176 43.2178 68.1176C43.3867 68.1213 43.5594 68.1176 43.7284 68.1364C44.1046 68.1781 44.2427 68.0078 44.1967 67.6556L44.189 67.648C44.665 67.6707 45.1947 67.8145 45.379 67.1519C45.4519 67.1519 45.5287 67.1519 45.6016 67.1519C46.4192 67.22 46.615 67.1331 46.707 66.6484C46.7379 66.6408 46.7646 66.6293 46.7877 66.6142C47.2023 66.7277 47.3327 66.5385 47.2906 66.1598C47.444 66.1522 47.5939 66.1485 47.7473 66.1408C48.1119 66.1976 48.4076 66.1636 48.3308 65.6788C48.4843 65.6712 48.634 65.6636 48.7876 65.6524C49.133 65.6978 49.3979 65.6524 49.2905 65.2055C49.4286 65.1298 49.5745 65.1525 49.7203 65.1601C50.1349 65.2358 50.3959 65.1259 50.3459 64.6488L50.3382 64.6337C50.7491 64.7359 50.8758 64.5429 50.8335 64.1717C50.9871 64.168 51.1405 64.1641 51.2941 64.1565C51.6588 64.1944 51.9351 64.1338 51.8584 63.6718C52.2422 63.7399 52.4381 63.6189 52.3458 63.2061L52.3381 63.1796C52.5608 63.1151 52.914 63.225 52.8755 62.7932C52.8718 62.7554 52.9601 62.6722 52.9984 62.6797C53.4207 62.7327 53.3784 62.4259 53.413 62.176C53.9657 62.3048 53.9158 61.5436 54.3764 61.5324C54.3803 61.5324 54.3803 61.415 54.3841 61.3506C54.388 61.2635 54.4264 61.1726 54.5108 61.1839C54.9484 61.2408 54.8371 60.8696 54.9445 60.6651C55.386 60.7788 55.4627 60.544 55.4244 60.1879V60.1918C55.812 60.2562 55.9886 60.1085 55.9003 59.7147L55.9041 59.7184C56.215 59.7032 56.5337 59.6956 56.3724 59.2375L56.3877 59.249C56.8139 59.2754 57.0212 59.0974 56.9444 58.662C56.9483 58.5142 56.956 58.3628 56.9597 58.2151C57.3513 58.2718 57.5279 58.1317 57.428 57.7304L57.4433 57.7417C57.7927 57.7568 58.0192 57.6584 57.904 57.2494C58.023 57.0903 57.8503 56.7383 58.0767 56.7344C58.5143 56.7306 58.3762 56.4088 58.4799 56.2156C58.8752 56.2763 59.0326 56.1096 58.9519 55.7272C58.9635 55.5493 58.975 55.3712 58.9826 55.1932C59.3933 55.2652 59.5046 55.0644 59.4395 54.7046C59.4549 54.5533 59.4663 54.4017 59.4816 54.2465C59.9192 54.3071 60.1073 54.1481 59.9692 53.7013C59.9806 53.5612 59.9922 53.4211 60.0036 53.2808C60.4949 53.3452 60.5372 53.0613 60.4796 52.694C60.4912 52.3909 60.4989 52.088 60.5103 51.7851C60.9058 51.8343 61.0592 51.6715 60.9633 51.2853C60.9786 51.1072 60.9939 50.9256 61.0095 50.7475C61.1629 50.7059 61.3932 50.7892 61.4392 50.5544C61.5161 50.1492 61.6389 49.7402 61.5008 49.3199C61.5161 49.1305 61.5275 48.9375 61.5429 48.7481C61.8808 48.7784 62.0342 48.6421 62.0151 48.2937C61.9959 47.9339 62.0151 47.5742 62.0151 47.2183C62.0265 46.7524 62.0342 46.2904 62.0458 45.8247C62.5486 45.8928 62.5525 45.5861 62.4949 45.2415C62.4949 44.9271 62.4988 44.6167 62.4988 44.3023C62.4988 42.8255 62.4988 41.3448 62.4988 39.868C62.4988 39.5234 62.4988 39.1788 62.4988 38.8342C62.5025 38.6677 62.4949 38.4971 62.5102 38.3307C62.5448 37.9595 62.3759 37.8269 62.0151 37.8875C61.5506 37.7247 61.4931 38.0239 61.4662 38.3571L61.4585 38.3534C61.0248 38.2435 60.9518 38.4859 60.9825 38.8266C60.6102 38.7699 60.4068 38.8835 60.4989 39.2962L60.5026 39.3038C60.0575 39.2281 59.9769 39.5385 59.9039 39.8529C59.4586 39.7431 59.4549 40.0423 59.4433 40.3376C59.0363 40.2543 58.8982 40.4286 58.9635 40.811C58.6256 40.7883 58.3609 40.845 58.4799 41.2806L58.476 41.2767C58.0613 41.2426 57.8656 41.4283 57.9002 41.841L57.9079 41.8485C57.7812 41.8258 57.6583 41.8295 57.5317 41.8295Z" fill="white"/>
<path d="M166.22 37.0515C166.22 31.9695 166.22 27.0051 166.22 22.0407C166.22 21.4083 166.22 21.4083 166.88 21.4083C167.598 21.4083 168.319 21.4159 169.037 21.4044C169.287 21.4007 169.394 21.4725 169.363 21.7225C169.352 21.8172 169.363 21.9118 169.363 22.0065C169.363 34.8475 169.36 47.6923 169.375 60.5335C169.375 61.0409 169.229 61.1658 168.745 61.1356C168.093 61.0938 167.436 61.1128 166.78 61.1317C166.492 61.1392 166.404 61.0711 166.4 60.7719C166.381 59.7078 166.327 58.64 166.281 57.4813C165.897 57.9091 165.582 58.2879 165.241 58.6437C163.398 60.5562 161.08 61.4272 158.458 61.6051C156.501 61.7376 154.608 61.518 152.842 60.5979C150.393 59.3217 148.847 57.2806 147.818 54.8115C146.916 52.6455 146.586 50.3659 146.52 48.0408C146.444 45.2575 146.628 42.5045 147.626 39.8651C148.639 37.1726 150.236 34.927 152.919 33.6169C156.616 31.8143 162.761 32.2195 165.901 36.6388C165.974 36.7486 166.062 36.8507 166.22 37.0515ZM166.22 47.3364C166.22 45.2727 166.22 43.2089 166.22 41.1488C166.22 40.9784 166.246 40.8081 166.166 40.6375C165.556 39.3387 164.784 38.1572 163.671 37.218C161.855 35.6882 159.706 35.196 157.387 35.3399C155.629 35.4459 154.075 36.0746 152.804 37.3203C151.752 38.3504 151.027 39.5773 150.593 40.9594C149.457 44.5835 149.403 48.2604 150.167 51.9563C150.497 53.5429 151.138 55.0123 152.167 56.2922C153.787 58.3067 155.959 59.0566 158.5 58.9468C161.928 58.7992 164.477 57.2806 166.058 54.2473C166.181 54.0125 166.227 53.7854 166.227 53.5278C166.216 51.4603 166.22 49.3965 166.22 47.3364Z" fill="white"/>
<path d="M196.067 37.066C196.067 36.7669 196.067 36.6003 196.067 36.4336C196.067 31.5827 196.071 26.7281 196.06 21.8772C196.06 21.5289 196.117 21.3812 196.52 21.4C197.284 21.4379 198.056 21.4266 198.82 21.4039C199.146 21.3925 199.253 21.5023 199.207 21.8015C199.2 21.862 199.207 21.9264 199.207 21.9909C199.207 34.847 199.203 47.7032 199.223 60.5593C199.223 61.0555 199.08 61.1653 198.616 61.1348C197.98 61.0933 197.337 61.1046 196.7 61.1312C196.354 61.1463 196.233 61.0667 196.24 60.6994C196.267 59.6468 196.247 58.5939 196.247 57.5374C196.197 57.5261 196.147 57.5186 196.097 57.5071C195.748 57.901 195.418 58.3062 195.05 58.6811C193.257 60.5101 191.02 61.3811 188.487 61.5856C186.567 61.7369 184.69 61.5666 182.931 60.7146C180.484 59.5218 178.881 57.5601 177.811 55.1366C176.802 52.8532 176.429 50.4448 176.372 47.972C176.31 45.238 176.475 42.5304 177.443 39.9327C178.471 37.1721 180.107 34.8962 182.858 33.5595C184.644 32.6924 186.56 32.5181 188.505 32.6772C190.62 32.8476 192.536 33.5556 194.164 34.9378C194.861 35.5323 195.45 36.2254 196.067 37.066ZM196.067 47.3359C196.067 45.272 196.067 43.2082 196.067 41.1444C196.067 40.9589 196.087 40.7732 196.001 40.5877C195.004 38.4822 193.6 36.7442 191.323 35.9225C188.77 35.0022 186.217 34.9607 183.827 36.4072C181.857 37.5999 180.814 39.4858 180.237 41.6215C179.331 44.9766 179.288 48.3696 179.972 51.7627C180.348 53.6332 181.108 55.3601 182.457 56.7801C184.053 58.4614 186.08 59.0332 188.351 58.9424C191.784 58.8023 194.321 57.2687 195.914 54.2467C196.03 54.031 196.074 53.815 196.074 53.5727C196.064 51.4937 196.067 49.4148 196.067 47.3359Z" fill="white"/>
<path d="M115.934 47.0855C115.865 44.518 116.261 42.0339 117.382 39.7012C119.297 35.7138 122.437 33.3052 126.92 32.7372C133.507 31.9004 139.134 35.725 140.681 42.174C141.637 46.1729 141.603 50.1716 140.025 54.0456C138.516 57.7453 135.876 60.3203 131.88 61.2253C126.966 62.3387 122.59 61.3503 119.182 57.4385C117.577 55.5944 116.683 53.4093 116.238 51.0351C115.992 49.7286 115.904 48.4108 115.934 47.0855ZM119.048 47.4869C119.082 48.4903 119.128 49.7323 119.404 50.9555C119.973 53.47 121.116 55.6473 123.189 57.2833C126.533 59.9227 132.958 59.9796 136.148 54.9242C137.549 52.705 138.06 50.2702 138.129 47.6951C138.205 44.9119 137.791 42.2497 136.382 39.7883C134.413 36.3461 130.498 34.6231 126.609 35.4638C123.926 36.0432 122.084 37.6714 120.744 39.936C119.404 42.1967 119.071 44.6884 119.048 47.4869Z" fill="white"/>
<path d="M209.553 58.4986C209.801 58.4986 209.974 58.4986 210.147 58.4986C215.916 58.4986 221.686 58.5025 227.459 58.4911C227.869 58.4911 228.026 58.5743 227.996 59.006C227.953 59.5854 227.969 60.1724 227.993 60.7556C228.003 61.0395 227.93 61.1418 227.623 61.1305C226.87 61.1076 226.123 61.123 225.37 61.123C218.994 61.123 212.616 61.1152 206.24 61.1381C205.721 61.1381 205.674 60.9751 205.624 60.5209C205.498 59.3318 205.936 58.4229 206.647 57.4799C211.986 50.4024 217.276 43.2871 222.58 36.1831C222.653 36.0845 222.722 35.9785 222.803 35.8687C222.633 35.7323 222.453 35.8006 222.293 35.8006C217.099 35.7967 211.901 35.7892 206.707 35.8082C206.258 35.8082 206.14 35.6832 206.167 35.2591C206.2 34.6948 206.193 34.123 206.17 33.5587C206.154 33.2331 206.247 33.1233 206.593 33.1347C207.553 33.1574 208.511 33.1423 209.467 33.1423C215.08 33.1423 220.687 33.146 226.299 33.1309C226.74 33.1309 226.822 33.2558 226.856 33.6724C226.952 34.8349 226.626 35.774 225.896 36.7359C220.514 43.8248 215.199 50.9591 209.863 58.0783C209.774 58.1882 209.694 58.3017 209.553 58.4986Z" fill="white"/>
</g>
<defs>
<clipPath id="clip0_2038_11613">
<rect width="228" height="88" fill="white"/>
</clipPath>
</defs>
</svg>
