<svg width="228" height="88" viewBox="0 0 228 88" fill="none" xmlns="http://www.w3.org/2000/svg">
<g clip-path="url(#clip0_2038_11632)">
<path d="M192.578 35.752H190.093V52.9178H192.578V35.752Z" fill="white"/>
<path fill-rule="evenodd" clip-rule="evenodd" d="M194.405 41.5402V37.6281L204.76 50.0201V35.8301H207.348V52.8781H203.896L194.405 41.5402ZM172.026 50.3828H185.38V52.8294H172.023L172.026 50.3828ZM172.026 35.8301H185.38V38.2004L174.615 38.2657V42.6446H184.969V45.0664H174.611V48.4838H172.023L172.026 35.8301ZM100.345 35.8301H102.933V50.4317H111.141V52.8774H100.342L100.345 35.8301ZM117.352 44.3541L121.439 35.8301H124.029L132.224 52.8781H129.635L127.91 49.4609H117.489L115.828 52.8781H113.24L116.305 46.5381H126.586L122.735 38.7496L119.941 44.3534L117.352 44.3541ZM130.632 35.8301H133.667L138.474 41.5892L136.934 43.3608L130.632 35.8301ZM146.077 35.8301H149.09L140.461 46.1428V52.879H138.31V45.1276L146.077 35.8301ZM77.8769 41.6706H80.4653V38.5127H89.9568C90.312 38.4898 90.6681 38.5436 90.9999 38.6707C91.3317 38.7976 91.6316 38.9946 91.8782 39.2476C92.1247 39.5007 92.3122 39.804 92.4275 40.1359C92.5427 40.468 92.5829 40.8207 92.5452 41.1697C92.5452 43.9952 90.2388 43.9697 89.9568 43.9697H77.8769V52.8781H80.4653V46.539H90.8195C90.8195 46.539 95.1339 46.7797 95.1339 41.1324C95.1339 35.4853 90.703 35.8681 90.8195 35.8301H77.876L77.8769 41.6706Z" fill="white"/>
<path d="M151.563 44.1741C151.572 43.1355 151.762 42.1063 152.123 41.1314C152.494 40.1305 153.056 39.21 153.779 38.4201C154.516 37.6114 155.409 36.9562 156.405 36.4931C157.508 35.9845 158.714 35.7323 159.931 35.7559C161.347 35.7103 162.747 36.0651 163.967 36.7786C165.044 37.4161 165.919 38.3379 166.495 39.4406L164.354 40.8451C164.131 40.3746 163.836 39.9413 163.479 39.5608C163.157 39.2223 162.779 38.9407 162.361 38.7283C161.963 38.5226 161.539 38.3703 161.099 38.2758C160.682 38.2028 160.26 38.1632 159.838 38.1572C159.012 38.1359 158.194 38.3154 157.455 38.6799C156.789 39.0279 156.208 39.5152 155.752 40.1078C155.282 40.6953 154.927 41.3648 154.707 42.0816C154.205 43.5583 154.222 45.1597 154.755 46.6254C155.014 47.3511 155.41 48.0209 155.923 48.5993C156.404 49.1671 157.001 49.6289 157.674 49.9554C158.365 50.3093 159.133 50.4888 159.91 50.4781C160.353 50.4788 160.795 50.4228 161.224 50.3119C161.677 50.2125 162.111 50.0441 162.512 49.8124C162.931 49.5794 163.315 49.2906 163.655 48.9543C164.012 48.5877 164.301 48.161 164.506 47.6943L166.768 48.9543C166.505 49.5865 166.107 50.1546 165.6 50.6192C165.097 51.1122 164.524 51.5291 163.898 51.8567C163.27 52.1937 162.599 52.4498 161.905 52.6181C161.22 52.7853 160.519 52.8729 159.813 52.8796C158.657 52.8905 157.516 52.6295 156.482 52.118C155.492 51.6267 154.608 50.9482 153.88 50.1208C153.148 49.3015 152.572 48.3585 152.178 47.337C151.773 46.3305 151.567 45.2567 151.57 44.1734L151.563 44.1741ZM228 35.7534H211.004V38.687H228V35.7534ZM220.7 40.6812H218.11V52.9178H220.7V40.6812Z" fill="white"/>
<path d="M46.0614 23.9979C47.4079 24.4217 48.6677 23.8122 49.9613 23.6695C55.391 23.0695 58.3883 25.6407 58.3883 30.9545C58.3883 38.7252 58.3883 46.4958 58.3883 54.2666C58.3883 59.4089 55.5262 63.0087 50.3232 63.9418C42.5188 65.337 34.6708 66.4702 26.8615 67.8129C20.6934 68.8747 15.7559 71.9172 12.2277 77.0883C11.7257 77.8215 11.6582 79.2642 10.3164 78.8928C9.1146 78.5644 9.47176 77.3168 9.39453 76.3884C10.0316 75.8978 9.74688 75.2028 9.80962 74.5838C10.0123 72.5697 9.44281 70.6032 9.43316 68.6081C9.39937 58.8899 9.41867 49.1766 9.41867 39.4584C9.41867 34.3684 12.8696 29.7927 18.4104 28.8736C26.63 27.5024 34.859 26.1882 43.1027 24.936C44.0584 24.7931 45.3906 25.2216 46.0614 23.9979ZM35.0426 40.2107C33.5222 40.1679 32.0163 40.2821 30.6166 40.9106C28.4592 41.882 26.9388 43.4438 26.6685 45.8388C26.4273 47.9862 27.1946 49.7717 29.1494 50.9336C30.0568 52.3191 31.6592 52.2001 32.9865 52.5287C35.9933 53.2762 39.7387 51.5144 41.0466 48.9528C42.4464 46.2054 41.7609 43.8866 38.8892 41.4868C37.7647 40.544 36.3842 40.4536 35.0426 40.2107Z" fill="white"/>
<path d="M46.0615 23.998C45.3907 25.2218 44.0537 24.7932 43.098 24.9409C34.8593 26.1931 26.6301 27.5073 18.4057 28.8787C12.8746 29.7976 9.42363 34.3734 9.42363 39.4633C9.42363 49.1815 9.40433 58.8948 9.43812 68.613C9.44295 70.6081 10.0173 72.5746 9.81459 74.5887C9.75184 75.2077 10.0366 75.9027 9.39951 76.3932C7.69576 66.718 5.99684 57.0428 4.29308 47.3721C3.69942 44.001 3.08645 40.6299 2.49762 37.2588C1.51784 31.6403 5.02188 26.7551 10.7558 26.3123C22.5131 25.4075 34.2945 24.7552 46.0615 23.998Z" fill="#E2E2E2"/>
<path d="M29.1494 50.9337C30.9834 50.7861 32.8079 50.5766 34.3813 49.5004C36.9442 47.7483 38.8362 43.9486 35.0426 40.2109C36.3842 40.4536 37.7647 40.5441 38.8892 41.4822C41.761 43.8867 42.4464 46.2055 41.0466 48.9481C39.7387 51.5098 35.9933 53.2715 32.9865 52.5241C31.664 52.2002 30.0568 52.3192 29.1494 50.9337Z" fill="#E2E2E2"/>
</g>
<defs>
<clipPath id="clip0_2038_11632">
<rect width="228" height="88" fill="white"/>
</clipPath>
</defs>
</svg>
