<svg width="228" height="88" viewBox="0 0 228 88" fill="none" xmlns="http://www.w3.org/2000/svg">
<path fill-rule="evenodd" clip-rule="evenodd" d="M30.6144 10.0078L11.5254 34.5279L18.3381 65.1036L45.9234 78.7115L73.5083 65.1036L80.3207 34.5279L61.2312 10.0078H30.6144ZM36.1416 14.4341H55.7045L45.9234 26.9983L36.1416 14.4341ZM17.3361 34.1627L31.655 15.7705L43.1596 30.5482L34.5929 41.5516L17.3361 34.1627ZM61.2993 17.194L74.1063 33.6449L56.8067 37.3559L61.2993 17.194ZM48.6863 30.5482L55.978 21.1821L52.7336 35.746L48.6863 30.5482ZM45.9234 34.0977L49.6537 38.89L40.6965 40.8115L45.9234 34.0977ZM57.4074 41.7495L75.1261 37.9486L70.5249 58.5987L57.4074 41.7495ZM16.9039 38.7754L31.7919 45.1498L21.3214 58.5987L16.9039 38.7754ZM23.5913 62.7824L36.4691 46.2408L51.0935 43.1034L44.4198 73.0569L23.5913 62.7824ZM54.9494 45.6915L68.2544 62.7824L49.0278 72.2668L54.9494 45.6915Z" fill="#FDFDFD"/>
<path d="M192.143 59.062H185.924V25.2734H192.143V59.062Z" fill="#FDFDFD"/>
<path fill-rule="evenodd" clip-rule="evenodd" d="M118.047 27.1973C121.722 27.1973 124.502 28.0264 126.387 29.6845C128.271 31.3427 129.214 33.5639 129.214 36.3484C129.214 38.163 128.79 39.8055 127.941 41.2759C127.093 42.7151 125.821 43.857 124.125 44.7017C122.429 45.5465 120.356 45.9688 117.905 45.9688H109.754V59.0618H103.252V27.1973H118.047ZM117.01 40.9943C118.895 40.9943 120.324 40.5876 121.298 39.7742C122.272 38.9608 122.759 37.8657 122.759 36.4892C122.759 33.6109 120.827 32.1717 116.963 32.1717H109.754V40.9943H117.01Z" fill="#FDFDFD"/>
<path fill-rule="evenodd" clip-rule="evenodd" d="M143.114 59.6269C140.758 59.6269 138.638 59.1106 136.753 58.0781C134.868 57.0456 133.392 55.5753 132.324 53.6667C131.256 51.7269 130.722 49.4901 130.722 46.9559C130.722 44.4217 131.256 42.2005 132.324 40.2921C133.392 38.3524 134.868 36.8663 136.753 35.8338C138.638 34.7701 140.758 34.2383 143.114 34.2383C145.47 34.2383 147.574 34.7701 149.427 35.8338C151.312 36.8663 152.789 38.3524 153.857 40.2921C154.925 42.2005 155.459 44.4217 155.459 46.9559C155.459 49.4901 154.925 51.7115 153.857 53.6199C152.789 55.5282 151.312 57.0145 149.427 58.0781C147.574 59.1106 145.47 59.6269 143.114 59.6269ZM143.067 54.6053C144.888 54.6053 146.349 53.9169 147.449 52.5406C148.579 51.1639 149.145 49.3023 149.145 46.9559C149.145 44.6095 148.579 42.748 147.449 41.3715C146.349 39.9636 144.888 39.2597 143.067 39.2597C141.245 39.2597 139.768 39.9636 138.638 41.3715C137.538 42.748 136.988 44.6095 136.988 46.9559C136.988 49.3023 137.538 51.1639 138.638 52.5406C139.768 53.9169 141.245 54.6053 143.067 54.6053Z" fill="#FDFDFD"/>
<path fill-rule="evenodd" clip-rule="evenodd" d="M163.67 58.0781C165.555 59.1106 167.675 59.6269 170.031 59.6269C172.387 59.6269 174.491 59.1106 176.344 58.0781C178.229 57.0145 179.706 55.5282 180.774 53.6199C181.842 51.7115 182.376 49.4901 182.376 46.9559C182.376 44.4217 181.842 42.2005 180.774 40.2921C179.706 38.3524 178.229 36.8663 176.344 35.8338C174.491 34.7701 172.387 34.2383 170.031 34.2383C167.675 34.2383 165.555 34.7701 163.67 35.8338C161.785 36.8663 160.309 38.3524 159.241 40.2921C158.173 42.2005 157.639 44.4217 157.639 46.9559C157.639 49.4901 158.173 51.7269 159.241 53.6667C160.309 55.5753 161.785 57.0456 163.67 58.0781ZM174.366 52.5406C173.266 53.9169 171.805 54.6053 169.984 54.6053C168.162 54.6053 166.685 53.9169 165.555 52.5406C164.455 51.1639 163.905 49.3023 163.905 46.9559C163.905 44.6095 164.455 42.748 165.555 41.3715C166.685 39.9636 168.162 39.2597 169.984 39.2597C171.805 39.2597 173.266 39.9636 174.366 41.3715C175.496 42.748 176.062 44.6095 176.062 46.9559C176.062 49.3023 175.496 51.1639 174.366 52.5406Z" fill="#FDFDFD"/>
<path d="M215.999 59.0629V53.9477H203.701L215.858 39.6344V34.8008H196.21V39.916H207.895L195.738 54.1823V59.0629H215.999Z" fill="#FDFDFD"/>
</svg>
