<svg width="227" height="89" viewBox="0 0 227 89" fill="none" xmlns="http://www.w3.org/2000/svg">
<path d="M46.4828 44.6302C46.4828 48.3863 46.4828 52.0213 46.4828 55.7776C46.4828 57.3527 45.8784 58.3221 44.5483 59.0491C38.0191 62.8052 31.6109 66.4402 25.0819 70.3175C23.8729 71.0445 22.6638 71.0445 21.4547 70.3175C14.9255 66.5614 8.39644 62.684 1.86735 59.0491C0.658257 58.3221 0.0537109 57.3527 0.0537109 56.0199C0.0537109 48.3863 0.0537109 40.874 0.0537109 33.2405C0.0537109 31.7864 0.658246 30.817 1.98824 30.0901C8.39644 26.4551 14.9255 22.699 21.2128 18.9426C22.6638 18.0946 23.7519 18.0946 25.2029 18.9426C31.4901 22.5778 37.7774 26.2127 44.1856 29.8478C45.7574 30.817 46.6038 31.9076 46.4828 33.8462C46.3618 37.4813 46.4828 40.9951 46.4828 44.6302ZM8.51735 43.5396C8.51735 45.963 8.51735 48.3863 8.51735 50.8096C8.51735 52.2637 10.4519 54.2023 11.7819 53.96C13.4746 53.7176 12.6283 52.1425 12.6283 51.2943C12.7492 47.5382 12.6283 43.903 12.6283 40.1469C12.6283 37.8448 12.7492 37.7236 14.9256 38.9352C17.1019 40.1469 19.1574 41.4798 21.3338 42.6914C22.5428 43.4185 23.6309 43.4185 24.8402 42.6914C28.4674 40.5105 32.0946 38.3295 35.8428 36.1485C37.052 35.4215 37.2937 34.9368 35.9637 34.0887C32.2155 31.9076 28.4674 29.7266 24.7192 27.5456C23.6309 26.9398 22.6638 26.8186 21.5755 27.5456C17.8273 29.7266 13.9583 32.0288 10.2101 34.2097C9.1219 34.8156 8.51735 35.6638 8.51735 36.9966C8.51735 39.1777 8.51735 41.3587 8.51735 43.5396Z" fill="white"/>
<path d="M149.739 44.6301C149.739 52.6271 143.21 59.2912 135.23 59.2912C127.129 59.2912 120.721 52.8693 120.6 44.7511C120.479 36.6331 127.129 29.9688 135.23 29.9688C143.21 30.09 149.739 36.6331 149.739 44.6301ZM135.23 37.2388C131.119 37.2388 128.097 40.5104 128.218 44.7511C128.218 48.992 131.24 52.0212 135.23 52.0212C139.341 52.0212 142.364 48.8709 142.364 44.6301C142.364 40.3892 139.22 37.2388 135.23 37.2388Z" fill="white"/>
<path d="M91.582 44.6289C91.582 40.6305 91.7028 36.6319 91.582 32.6335C91.582 31.0582 91.9447 30.3312 93.6375 30.4524C97.3856 30.5735 101.013 30.4524 104.761 30.4524C108.751 30.4524 112.016 32.8757 113.467 36.6319C114.797 40.267 113.95 44.2654 110.927 46.8099C109.718 47.7793 109.718 48.5063 110.444 49.7179C111.895 52.1414 113.104 54.6857 114.434 57.1092C115.159 58.3208 115.038 59.0478 113.346 58.9266C113.225 58.9266 113.225 58.9266 113.104 58.9266C106.937 59.0478 106.937 59.0478 104.036 53.4741C103.552 52.5049 102.827 51.5355 102.464 50.5661C101.98 49.1122 100.771 49.3544 99.6828 49.4757C98.232 49.5967 98.9574 50.6873 98.9574 51.4143C98.8364 53.2318 98.8364 55.1704 98.9574 56.988C99.0784 58.4421 98.5947 58.9266 97.1437 58.9266C91.582 59.0478 91.582 59.0478 91.582 53.4741C91.582 50.4449 91.582 47.5369 91.582 44.6289ZM98.9574 39.7823C98.9574 43.175 98.9574 43.175 101.376 43.175C104.761 43.175 106.454 42.0844 106.454 39.7823C106.454 37.4801 104.882 36.3896 101.617 36.3896C98.9574 36.5109 98.9574 36.5107 98.9574 39.7823Z" fill="white"/>
<path d="M61.959 44.6297C61.959 40.5101 61.959 36.5117 61.959 32.3918C61.959 30.9379 62.4426 30.332 64.0144 30.332C67.6416 30.4532 71.269 30.332 74.8962 30.332C80.0954 30.4532 83.8435 34.5729 83.8435 39.9043C83.7226 44.9934 79.9744 48.7495 74.7752 48.8706C72.9617 48.8706 70.6644 48.0224 69.6971 49.234C68.8507 50.2034 69.4553 52.5057 69.4553 54.202C69.4553 58.6851 69.4553 58.6851 64.9816 58.6851C62.0798 58.6851 62.0798 58.6851 62.0798 55.6559C61.959 52.021 61.959 48.3859 61.959 44.6297ZM69.2134 39.4196C69.2134 42.9334 69.2134 42.9334 72.7198 42.8123C72.8408 42.8123 72.9617 42.8123 73.0825 42.8123C74.8962 42.6911 76.1053 41.4795 76.1053 39.9043C76.1053 38.0868 74.8962 36.7539 73.0825 36.6327C72.2362 36.5117 71.269 36.6327 70.4226 36.6327C69.4553 36.5117 69.0926 36.8751 69.2134 37.9656C69.3344 38.329 69.2134 38.9349 69.2134 39.4196Z" fill="white"/>
<path d="M175.25 43.7819C178.998 46.5687 180.207 49.7191 179.241 53.1118C178.273 56.3832 175.492 58.8067 171.986 58.8067C168.117 58.9278 164.248 58.8067 160.499 58.8067C159.29 58.8067 158.807 58.4431 158.807 57.1102C158.807 48.7497 158.807 40.268 158.807 31.9075C158.807 30.5747 159.29 30.2112 160.499 30.3324C163.764 30.4536 166.907 30.3324 170.172 30.3324C173.437 30.3324 176.097 31.5441 177.427 34.6943C178.756 37.8447 178.152 40.6317 175.734 42.9337C175.613 43.2972 175.492 43.5397 175.25 43.7819ZM166.907 56.5045C168.721 56.5045 170.172 56.5045 171.623 56.5045C174.888 56.5045 177.185 54.3234 177.185 51.1732C177.306 47.9015 174.767 45.357 171.623 45.236C169.809 45.236 167.875 45.236 166.061 45.236C160.983 45.236 160.983 45.2358 161.104 50.2038C161.104 52.1424 160.257 54.8081 161.467 56.0198C162.555 57.3526 165.215 56.262 166.907 56.5045ZM166.666 32.7557C165.215 32.7557 163.764 32.7557 162.313 32.7557C161.346 32.7557 160.983 32.9981 160.983 33.9674C160.983 36.5119 160.983 39.0564 160.983 41.6009C160.983 42.5703 161.467 42.9337 162.313 42.9337C165.094 42.9337 167.996 43.055 170.777 42.9337C173.678 42.8125 175.855 40.6315 175.734 37.7235C175.734 34.9367 173.678 32.8769 170.656 32.7557C169.447 32.7557 167.996 32.7557 166.666 32.7557Z" fill="white"/>
<path d="M215.392 45.5991C215.392 41.8429 215.392 38.208 215.392 34.4517C215.392 33.24 215.03 32.7555 213.82 32.7555C211.644 32.8765 209.468 32.7555 207.17 32.7555C206.324 32.7555 205.719 32.6343 205.719 31.5437C205.719 30.4532 206.324 30.332 207.17 30.332C213.216 30.332 219.261 30.332 225.307 30.332C226.152 30.332 227 30.332 227 31.5437C227 32.8765 226.152 32.7555 225.307 32.7555C223.493 32.7555 221.559 32.8765 219.746 32.7555C217.69 32.5131 217.447 33.3612 217.447 35.1788C217.568 42.0852 217.447 48.9918 217.447 55.8983C217.447 56.2618 217.447 56.7465 217.447 57.11C217.447 57.8369 217.69 58.8063 216.36 58.9274C215.03 58.9274 215.271 57.9582 215.271 57.2312C215.392 53.2326 215.392 49.4765 215.392 45.5991Z" fill="white"/>
<path d="M194.355 44.6295C194.355 48.8703 194.355 52.9901 194.355 57.231C194.355 57.9579 194.476 58.8061 193.266 58.8061C192.056 58.8061 191.936 58.0792 191.936 57.231C191.936 48.8703 191.936 40.3886 191.936 32.0281C191.936 31.18 192.056 30.3318 193.266 30.453C194.355 30.453 194.355 31.3012 194.355 32.0281C194.355 36.269 194.355 40.3886 194.355 44.6295Z" fill="white"/>
<path d="M23.1472 39.1778C20.729 38.3296 18.6736 36.9967 16.739 35.5426C16.1345 35.0581 16.86 34.5734 17.2227 34.331C18.7946 33.3618 20.2454 32.5136 21.8172 31.6654C22.6635 31.1807 23.5099 31.3018 24.3562 31.6654C25.8072 32.5136 27.379 33.3618 28.83 34.2099C29.3137 34.5734 30.16 35.0581 29.3137 35.6639C27.379 36.9967 25.3236 38.2084 23.1472 39.1778Z" fill="white"/>
</svg>
