<svg width="227" height="89" viewBox="0 0 227 89" fill="none" xmlns="http://www.w3.org/2000/svg">
<g clip-path="url(#clip0_2617_15471)">
<path d="M61.1039 48.8661C58.3286 47.8599 55.2261 49.2114 54.1815 51.8849C53.9476 52.4854 53.5109 53.2514 52.8873 54.0773C51.9675 55.3239 50.6422 56.6457 49.2234 57.8169C47.8046 58.9884 46.2768 60.0096 45.0293 60.6854C41.5371 62.5777 37.7952 63.4788 34.0688 63.4788C32.4319 63.4788 30.7947 63.2988 29.2046 62.9682C26.3044 62.3525 23.4358 64.1097 22.7809 66.9031C22.1418 69.6964 23.9658 72.4598 26.8657 73.0905C29.2201 73.6011 31.6367 73.8565 34.0688 73.8565C39.5879 73.8565 45.2009 72.5198 50.3303 69.7264C52.9028 68.3147 55.6313 66.3775 58.126 64.0196C59.3732 62.8481 60.5581 61.5566 61.6027 60.1599C62.6473 58.7632 63.5673 57.2462 64.2377 55.5491C65.2823 52.8609 63.879 49.8723 61.1039 48.8661Z" fill="white"/>
<path d="M66.9968 39.7499C66.6693 35.1846 65.2818 30.5888 62.7871 26.3538C60.5889 22.6142 57.6887 19.4453 54.3679 16.9373C51.0315 14.4442 47.2583 12.597 43.2825 11.4856C40.4294 10.6897 37.4515 12.2665 36.6253 15.0149C35.7991 17.7633 37.436 20.6318 40.2894 21.4277C42.9864 22.1786 45.5278 23.4252 47.7729 25.1072C50.0181 26.7893 51.9512 28.9068 53.4481 31.445C55.1476 34.3284 56.0518 37.3922 56.2857 40.4709C56.4883 43.3245 59.0608 45.4719 62.0232 45.2767C64.9699 45.0814 67.1994 42.6034 66.9968 39.7499Z" fill="white"/>
<path d="M28.6742 21.2023C31.5586 20.5114 33.3049 17.703 32.5877 14.9246C31.8703 12.1463 28.9549 10.4642 26.0705 11.1551C23.2329 11.8308 20.442 12.8821 17.7605 14.3389C12.4127 17.2525 8.20304 21.4275 5.3499 26.2334C2.49675 31.0394 1 36.4907 1 42.0475C1 42.2427 1 42.4383 1 42.6332V74.1417C1 76.9952 3.40101 79.3229 6.37893 79.3229C9.35685 79.3229 11.7579 77.0102 11.7579 74.1417V42.0175C11.7579 42.0026 11.7579 41.9726 11.7579 41.9576C11.7734 38.248 12.7869 34.5835 14.689 31.3697C16.6067 28.1257 19.413 25.3323 23.0458 23.3499C24.8698 22.3737 26.7564 21.6679 28.6742 21.2023Z" fill="white"/>
<path d="M93.8769 30.5435C94.0327 30.153 94.1108 29.7176 94.1108 29.2972V29.222C94.1108 28.8016 94.0327 28.3659 93.8769 27.9754C93.7211 27.5849 93.4714 27.2094 93.1753 26.9093L93.1598 26.894L93.1442 26.8791C92.8323 26.5787 92.4423 26.3234 92.0371 26.1582C91.6161 25.9931 91.1641 25.918 90.7276 25.918H88.654C86.5958 25.918 84.6469 26.2633 82.8539 26.9692C81.0609 27.675 79.4395 28.7414 77.9896 30.1381C76.5708 31.5347 75.4795 33.0967 74.7465 34.8087C74.0139 36.5207 73.6397 38.398 73.6084 40.3805V61.0757C73.6084 61.4962 73.6864 61.9319 73.8578 62.3224C74.0294 62.7126 74.2945 63.0731 74.6062 63.3735C74.9181 63.6738 75.2924 63.9293 75.6976 64.0943C76.1031 64.2596 76.5553 64.3347 76.9918 64.3347H77.1009C77.5374 64.3347 77.9896 64.2596 78.3949 64.0943C78.8004 63.9293 79.1746 63.6738 79.4862 63.3735C79.7982 63.0731 80.0633 62.7126 80.2347 62.3224C80.4063 61.9319 80.484 61.4962 80.484 61.0757V40.4107C80.4998 39.2991 80.7024 38.3082 81.0922 37.3919C81.4821 36.4758 82.0745 35.6346 82.8697 34.8539C83.6804 34.0729 84.5534 33.5022 85.5044 33.1267C86.4554 32.7512 87.4845 32.5562 88.6382 32.5562H90.7119C91.1641 32.5562 91.6161 32.481 92.0216 32.3157C92.4426 32.1504 92.8168 31.9103 93.1285 31.5949C93.4559 31.3095 93.7053 30.949 93.8769 30.5435Z" fill="white"/>
<path d="M126.134 31.5497C124.202 29.6877 122.05 28.2757 119.68 27.3297C117.31 26.3835 114.754 25.918 112.024 25.918C109.297 25.918 106.723 26.3835 104.37 27.3297C102 28.2757 99.8483 29.6877 97.9149 31.5497C95.9816 33.412 94.516 35.4846 93.5337 37.7674C92.5516 40.0501 92.0684 42.5132 92.0684 45.1413C92.0684 47.7696 92.5516 50.2476 93.5337 52.5154C94.516 54.7982 95.9816 56.8705 97.9149 58.7328C99.8483 60.5951 102 62.0068 104.37 62.953C106.739 63.899 109.297 64.3647 112.024 64.3647C114.754 64.3647 117.326 63.899 119.68 62.953C122.05 62.0068 124.202 60.5951 126.134 58.7328C128.068 56.8705 129.534 54.7982 130.515 52.5154C131.497 50.2324 131.981 47.7696 131.981 45.1413C131.981 42.5132 131.497 40.0352 130.515 37.7674C129.518 35.4846 128.052 33.412 126.134 31.5497ZM121.239 54.1373C119.961 55.3836 118.573 56.3 117.046 56.9157C115.518 57.5313 113.864 57.8317 112.024 57.8317C110.201 57.8317 108.533 57.5164 107.005 56.9157C105.477 56.3 104.074 55.3836 102.78 54.1373C101.5 52.8909 100.55 51.5392 99.9263 50.0673C99.3025 48.5955 98.9748 47.0036 98.9748 45.2616C98.9748 43.5044 99.2867 41.8975 99.9263 40.4257C100.55 38.9538 101.5 37.6021 102.78 36.3557C104.074 35.1091 105.477 34.193 107.005 33.5773C108.533 32.9616 110.201 32.6613 112.024 32.6613C113.864 32.6613 115.532 32.9766 117.046 33.5773C118.573 34.193 119.961 35.1091 121.223 36.3557C122.517 37.6021 123.469 38.9538 124.108 40.4406C124.747 41.9125 125.059 43.5194 125.059 45.2766C125.059 47.0186 124.732 48.6105 124.108 50.0823C123.484 51.5242 122.533 52.8757 121.239 54.1373Z" fill="white"/>
<path d="M168.37 31.5497C166.437 29.6877 164.285 28.2757 161.915 27.3297C159.546 26.3835 156.988 25.918 154.261 25.918C151.531 25.918 148.959 26.3835 146.605 27.3148C144.25 28.2458 142.099 29.6574 140.181 31.5048C138.247 33.3671 136.783 35.4397 135.8 37.7072C134.818 39.975 134.32 42.438 134.304 45.0661V75.4932C134.304 75.9139 134.382 76.3493 134.554 76.7398C134.724 77.1303 134.99 77.4908 135.302 77.7909C135.613 78.0913 135.987 78.3467 136.393 78.512C136.798 78.677 137.25 78.7522 137.687 78.7522H137.795C138.233 78.7522 138.685 78.677 139.089 78.512C139.495 78.3467 139.869 78.0913 140.181 77.7909C140.493 77.4908 140.759 77.1303 140.931 76.7398C141.101 76.3493 141.179 75.9139 141.179 75.4932V59.5287C142.988 60.8655 144.796 61.9469 146.636 62.7278C149.146 63.8092 151.687 64.3497 154.229 64.3497C156.958 64.3497 159.53 63.8841 161.884 62.9378C164.255 61.9918 166.406 60.5801 168.339 58.7178C170.272 56.8555 171.738 54.7832 172.72 52.5004C173.702 50.2174 174.185 47.7546 174.185 45.1263C174.185 42.4982 173.702 40.0202 172.72 37.7524C171.77 35.4846 170.304 33.412 168.37 31.5497ZM163.475 53.957C162.196 55.2036 160.808 56.1197 159.296 56.7354C157.768 57.3511 156.116 57.6517 154.276 57.6517C152.451 57.6517 150.783 57.3361 149.255 56.7354C147.728 56.1197 146.324 55.2036 145.03 53.957C143.752 52.7106 142.801 51.3589 142.177 49.8871C141.553 48.4152 141.226 46.8233 141.226 45.0813C141.226 43.3241 141.538 41.7172 142.177 40.2454C142.801 38.7736 143.752 37.4221 145.03 36.1754C146.324 34.9441 147.728 34.0277 149.255 33.427C150.783 32.8263 152.451 32.511 154.276 32.511C156.1 32.511 157.768 32.8113 159.28 33.427C160.808 34.0277 162.196 34.9441 163.491 36.1754C164.785 37.4221 165.735 38.7736 166.375 40.2604C167.014 41.7322 167.326 43.3391 167.326 45.0963C167.326 46.8386 166.998 48.4302 166.375 49.902C165.735 51.3589 164.785 52.6954 163.475 53.957Z" fill="white"/>
<path d="M215.799 49.4065C215.689 49.0909 215.533 48.8055 215.346 48.5354L215.331 48.5204L215.315 48.5051C214.987 48.0847 214.583 47.7242 214.099 47.484C213.615 47.2435 213.069 47.1387 212.525 47.1387C212.165 47.1387 211.807 47.1836 211.463 47.2738C210.949 47.4088 210.466 47.6792 210.076 48.0398C209.687 48.4 209.422 48.8657 209.234 49.3613C208.782 50.6229 208.174 51.7342 207.41 52.7404C206.646 53.7466 205.71 54.6327 204.604 55.4136C203.45 56.2246 202.235 56.8253 200.955 57.2308C199.677 57.6362 198.336 57.8315 196.918 57.8315C194.782 57.8315 192.832 57.3511 190.993 56.3899C189.511 55.6089 188.109 54.5126 186.767 53.0707C189.731 51.7944 194.142 49.8868 199.989 47.3337C205.524 44.9308 209.983 42.9936 213.381 41.5218H213.397H213.413C213.803 41.3415 214.177 41.1013 214.473 40.7857C214.769 40.4856 215.003 40.1101 215.159 39.7196V39.7044C215.299 39.3441 215.377 38.9536 215.377 38.5631C215.377 38.0977 215.253 37.6171 215.051 37.1964V37.1814C214.255 35.5143 213.257 33.9976 212.057 32.6458C210.856 31.2943 209.438 30.1079 207.832 29.0867C206.194 28.0503 204.448 27.2693 202.625 26.7438C200.799 26.2181 198.898 25.9629 196.918 25.9629C194.188 25.9629 191.617 26.4283 189.263 27.3744C186.893 28.3207 184.741 29.7324 182.808 31.5947C180.874 33.457 179.409 35.5293 178.427 37.8121C177.445 40.0951 176.961 42.5579 176.961 45.1862C176.961 47.8143 177.445 50.2923 178.427 52.5601C179.409 54.8429 180.874 56.9154 182.808 58.7778C184.741 60.6401 186.893 62.0517 189.263 62.9977C191.633 63.944 194.188 64.4097 196.918 64.4097C199.038 64.4097 201.095 64.1093 203.045 63.5086C204.994 62.9076 206.848 62.0065 208.596 60.8051C210.295 59.6336 211.745 58.2672 212.929 56.7202C214.115 55.1884 215.065 53.4612 215.736 51.5839V51.5689C215.877 51.2086 215.955 50.8181 215.955 50.4276C215.955 50.0371 215.907 49.7066 215.799 49.4065ZM183.946 46.4928C183.884 45.9522 183.868 45.5315 183.868 45.2464C183.868 43.4892 184.18 41.8823 184.819 40.4105C185.442 38.9386 186.394 37.5869 187.671 36.3405C188.967 35.0939 190.369 34.1778 191.897 33.5621C193.425 32.9464 195.094 32.6458 196.918 32.6458C198.944 32.6458 200.831 33.0965 202.639 34.0125C204.074 34.7336 205.446 35.7548 206.786 37.0913L184.008 47.0183C183.978 46.8231 183.962 46.6581 183.946 46.4928Z" fill="white"/>
<path d="M226.775 13.5561C226.604 13.1506 226.354 12.79 226.027 12.4897L226.011 12.4747L225.995 12.4597C225.684 12.1744 225.31 11.934 224.904 11.7838C224.498 11.6337 224.062 11.5586 223.626 11.5586H223.516C223.08 11.5586 222.644 11.6337 222.238 11.7838C221.832 11.934 221.458 12.1744 221.146 12.4597L221.13 12.4747L221.116 12.4897C220.804 12.79 220.538 13.1656 220.367 13.5561C220.196 13.9615 220.118 14.397 220.118 14.8175V61.0888C220.118 61.5092 220.196 61.9449 220.367 62.3354C220.538 62.7259 220.804 63.0862 221.116 63.3865C221.427 63.6872 221.802 63.9423 222.206 64.1076C222.612 64.2726 223.064 64.3478 223.5 64.3478H223.61C224.046 64.3478 224.498 64.2726 224.904 64.1076C225.31 63.9423 225.684 63.6872 225.995 63.3865C226.307 63.0862 226.572 62.7259 226.744 62.3354C226.915 61.9449 226.993 61.5092 226.993 61.0888V14.8175C227.025 14.397 226.947 13.9615 226.775 13.5561Z" fill="white"/>
<mask id="mask0_2617_15471" style="mask-type:alpha" maskUnits="userSpaceOnUse" x="19" y="28" width="29" height="28">
<path d="M43.6509 51.2258C48.9674 46.1195 48.9832 37.8146 43.6822 32.6782C38.3811 27.5419 29.7592 27.5419 24.427 32.6483C19.1104 37.7544 18.331 51.9316 20.9815 54.4848C23.6165 57.0377 38.3189 56.3319 43.6509 51.2258Z" fill="#14213D"/>
</mask>
<g mask="url(#mask0_2617_15471)">
<path d="M51.2221 39.6421C51.2221 51.9463 40.8671 61.9209 28.0933 61.9209C15.3199 61.9209 4.96484 51.9463 4.96484 39.6421C4.96484 27.338 15.3199 17.3633 28.0933 17.3633C40.8671 17.3633 51.2221 27.338 51.2221 39.6421Z" fill="white"/>
<path d="M51.2221 39.6421C51.2221 51.9463 40.8671 61.9209 28.0933 61.9209C15.3199 61.9209 4.96484 51.9463 4.96484 39.6421C4.96484 27.338 15.3199 17.3633 28.0933 17.3633C40.8671 17.3633 51.2221 27.338 51.2221 39.6421Z" fill="white"/>
<path d="M51.2221 39.6421C51.2221 51.9463 40.8671 61.9209 28.0933 61.9209C15.3199 61.9209 4.96484 51.9463 4.96484 39.6421C4.96484 27.338 15.3199 17.3633 28.0933 17.3633C40.8671 17.3633 51.2221 27.338 51.2221 39.6421Z" fill="white"/>
<path d="M51.2221 39.6421C51.2221 51.9463 40.8671 61.9209 28.0933 61.9209C15.3199 61.9209 4.96484 51.9463 4.96484 39.6421C4.96484 27.338 15.3199 17.3633 28.0933 17.3633C40.8671 17.3633 51.2221 27.338 51.2221 39.6421Z" fill="url(#paint0_radial_2617_15471)"/>
<path d="M51.2221 39.6421C51.2221 51.9463 40.8671 61.9209 28.0933 61.9209C15.3199 61.9209 4.96484 51.9463 4.96484 39.6421C4.96484 27.338 15.3199 17.3633 28.0933 17.3633C40.8671 17.3633 51.2221 27.338 51.2221 39.6421Z" fill="url(#paint1_radial_2617_15471)"/>
<path d="M51.2221 39.6421C51.2221 51.9463 40.8671 61.9209 28.0933 61.9209C15.3199 61.9209 4.96484 51.9463 4.96484 39.6421C4.96484 27.338 15.3199 17.3633 28.0933 17.3633C40.8671 17.3633 51.2221 27.338 51.2221 39.6421Z" fill="url(#paint2_radial_2617_15471)"/>
<g style="mix-blend-mode:soft-light" opacity="0.5" filter="url(#filter0_d_2617_15471)">
<path style="mix-blend-mode:soft-light" opacity="0.5" d="M51.2231 39.6421C51.2231 51.9463 40.868 61.9209 28.0943 61.9209C15.3209 61.9209 4.96582 51.9463 4.96582 39.6421C4.96582 27.338 15.3209 17.3633 28.0943 17.3633C40.868 17.3633 51.2231 27.338 51.2231 39.6421Z" fill="white"/>
<path style="mix-blend-mode:soft-light" opacity="0.5" d="M51.2231 39.6421C51.2231 51.9463 40.868 61.9209 28.0943 61.9209C15.3209 61.9209 4.96582 51.9463 4.96582 39.6421C4.96582 27.338 15.3209 17.3633 28.0943 17.3633C40.868 17.3633 51.2231 27.338 51.2231 39.6421Z" fill="white"/>
<path style="mix-blend-mode:soft-light" opacity="0.5" d="M51.2231 39.6421C51.2231 51.9463 40.868 61.9209 28.0943 61.9209C15.3209 61.9209 4.96582 51.9463 4.96582 39.6421C4.96582 27.338 15.3209 17.3633 28.0943 17.3633C40.868 17.3633 51.2231 27.338 51.2231 39.6421Z" fill="white"/>
<path style="mix-blend-mode:soft-light" opacity="0.5" d="M51.2231 39.6421C51.2231 51.9463 40.868 61.9209 28.0943 61.9209C15.3209 61.9209 4.96582 51.9463 4.96582 39.6421C4.96582 27.338 15.3209 17.3633 28.0943 17.3633C40.868 17.3633 51.2231 27.338 51.2231 39.6421Z" fill="white"/>
<path style="mix-blend-mode:soft-light" opacity="0.5" d="M51.223 39.6421C51.223 51.9463 40.868 61.9209 28.0943 61.9209C15.3208 61.9209 4.96582 51.9463 4.96582 39.6421C4.96582 27.338 15.3208 17.3633 28.0943 17.3633C40.868 17.3633 51.223 27.338 51.223 39.6421Z" fill="url(#paint3_radial_2617_15471)"/>
</g>
</g>
</g>
<defs>
<filter id="filter0_d_2617_15471" x="0.96582" y="17.3633" width="54.2568" height="52.5586" filterUnits="userSpaceOnUse" color-interpolation-filters="sRGB">
<feFlood flood-opacity="0" result="BackgroundImageFix"/>
<feColorMatrix in="SourceAlpha" type="matrix" values="0 0 0 0 0 0 0 0 0 0 0 0 0 0 0 0 0 0 127 0" result="hardAlpha"/>
<feOffset dy="4"/>
<feGaussianBlur stdDeviation="2"/>
<feComposite in2="hardAlpha" operator="out"/>
<feColorMatrix type="matrix" values="0 0 0 0 0 0 0 0 0 0 0 0 0 0 0 0 0 0 0.25 0"/>
<feBlend mode="normal" in2="BackgroundImageFix" result="effect1_dropShadow_2617_15471"/>
<feBlend mode="normal" in="SourceGraphic" in2="effect1_dropShadow_2617_15471" result="shape"/>
</filter>
<radialGradient id="paint0_radial_2617_15471" cx="0" cy="0" r="1" gradientUnits="userSpaceOnUse" gradientTransform="translate(-0.817313 15.5067) rotate(35.5861) scale(41.4752 33.2477)">
<stop stop-color="white" stop-opacity="0.79"/>
<stop offset="1" stop-color="white" stop-opacity="0"/>
</radialGradient>
<radialGradient id="paint1_radial_2617_15471" cx="0" cy="0" r="1" gradientUnits="userSpaceOnUse" gradientTransform="translate(8.81961 21.0764) rotate(43.9279) scale(16.7258 12.1394)">
<stop stop-color="white" stop-opacity="0.49"/>
<stop offset="1" stop-color="white" stop-opacity="0"/>
</radialGradient>
<radialGradient id="paint2_radial_2617_15471" cx="0" cy="0" r="1" gradientUnits="userSpaceOnUse" gradientTransform="translate(37.0295 39.6421) rotate(48.8392) scale(12.7784 10.6036)">
<stop stop-color="white" stop-opacity="0.15"/>
<stop offset="1" stop-color="white" stop-opacity="0"/>
</radialGradient>
<radialGradient id="paint3_radial_2617_15471" cx="0" cy="0" r="1" gradientUnits="userSpaceOnUse" gradientTransform="translate(8.82059 21.0764) rotate(42.4417) scale(23.9951 17.3816)">
<stop stop-color="white" stop-opacity="0.49"/>
<stop offset="1" stop-color="white" stop-opacity="0"/>
</radialGradient>
<clipPath id="clip0_2617_15471">
<rect width="227" height="89" fill="white"/>
</clipPath>
</defs>
</svg>
