<svg width="227" height="89" viewBox="0 0 227 89" fill="none" xmlns="http://www.w3.org/2000/svg">
<g clip-path="url(#clip0_2617_15407)">
<path d="M5.67226 43.9592C5.77405 44.4373 5.83542 44.9227 5.93683 45.4017C5.99895 45.6951 6.09334 45.6237 6.24136 45.4973C6.5148 45.2428 6.80757 45.0107 7.11693 44.803C7.19615 44.8292 7.26248 44.8853 7.30225 44.9597C8.11958 46.0277 9.26489 46.787 10.5558 47.1168C11.1601 47.2873 11.7779 47.404 12.4021 47.4654C12.2068 47.2426 12.0435 46.993 11.9169 46.7239C11.8112 46.5148 11.7752 46.2765 11.8143 46.0449C11.8534 45.8133 11.9655 45.6008 12.1337 45.4396C12.5721 45.0237 13.1186 44.7443 13.7084 44.6345C14.9127 44.3426 16.1559 44.2539 17.3884 44.3718C18.3848 44.4406 19.3718 44.6117 20.3343 44.8825C21.1448 45.0858 21.9214 45.4092 22.6393 45.8422C22.7394 45.9237 22.8081 46.0359 22.9043 46.1214C23.8195 47.0719 24.3501 48.337 24.3912 49.6663C24.4063 50.6046 24.1654 51.5288 23.6952 52.3363C22.8554 53.781 21.6378 54.9605 20.1778 55.7436C18.6931 56.5873 17.0546 57.1139 15.3627 57.2913C12.4228 57.6387 9.45504 56.9448 6.95995 55.3265C4.87125 53.9585 3.11648 52.1248 1.82876 49.9646C1.20457 48.9436 0.652759 47.8787 0.177534 46.7779C0.118039 46.6438 0.104092 46.4942 0.0434556 46.3835C0.0820005 46.5142 0.152887 46.6615 0.0124109 46.801C-0.0119302 46.2464 -0.000458445 45.6908 0.0467522 45.1377C0.119265 43.6124 0.352423 42.0995 0.742228 40.6248C1.61257 37.3489 3.22212 34.3243 5.44309 31.7912C7.66407 29.2581 10.4353 27.2861 13.5369 26.0319C15.4269 25.2672 17.4161 24.7853 19.4422 24.601C22.5959 24.3077 25.7745 24.7237 28.7523 25.8194C28.2931 26.7052 25.6709 29.0784 23.6343 30.4522C23.576 29.8529 23.4418 29.2638 23.2352 28.6994C23.2247 28.5492 23.3571 28.5022 23.4393 28.4303C23.8628 28.0603 24.2888 27.6932 24.7174 27.3292C24.7609 27.2951 24.8022 27.2581 24.841 27.2185C24.8893 27.1653 24.9707 27.1216 24.9539 27.0392C24.9356 26.9497 24.8405 26.9535 24.7726 26.9425C24.5755 26.899 24.375 26.8734 24.1734 26.8661C23.8967 26.8175 23.6177 26.7831 23.3375 26.763C23.1232 26.7303 22.9069 26.7132 22.6903 26.7117C22.5797 26.7126 22.4693 26.7046 22.36 26.6877C22.1769 26.6472 21.9885 26.6364 21.802 26.6558C21.6907 26.6503 21.5793 26.6508 21.4681 26.6574C21.1484 26.6444 20.8282 26.6528 20.5096 26.6824C20.4323 26.7003 20.3531 26.7084 20.2739 26.7065C20.1818 26.7081 20.0896 26.7108 19.9973 26.7095C19.8773 26.6968 19.7559 26.7085 19.6404 26.7439C19.3036 26.775 18.9664 26.8022 18.6333 26.8646C18.2321 26.9509 17.8201 26.9718 17.4213 27.0723C17.0552 27.1691 16.6788 27.2247 16.3198 27.3509C15.8424 27.4848 15.3706 27.6376 14.9007 27.7961C14.2076 28.0514 13.5293 28.3467 12.8692 28.6803C11.3929 29.4076 10.0198 30.3338 8.78693 31.4341C7.64441 32.4395 6.62044 33.5762 5.73554 34.8214C5.29289 35.4459 4.88796 36.0971 4.52299 36.7715C4.29075 37.2111 4.06669 37.6547 3.86481 38.1097C3.70145 38.4543 3.55516 38.807 3.4265 39.1665C3.2802 39.532 3.15939 39.9065 3.04406 40.283C2.90601 40.6602 2.82588 41.0543 2.71765 41.4401C2.67098 41.5913 2.64177 41.7469 2.60556 41.9008C2.55935 42.0865 2.53128 42.2757 2.49788 42.4639C2.44081 42.7806 2.38865 43.0979 2.34392 43.4165C2.2875 43.7444 2.24911 44.0751 2.22894 44.4073C2.17488 44.6267 2.21446 44.854 2.17503 45.0746C2.14096 45.3505 2.12813 45.6288 2.13667 45.9068C2.12874 46.1013 2.12525 46.2964 2.12999 46.4913C2.13194 46.5716 2.0944 46.6832 2.17713 46.722C2.27199 46.7665 2.34037 46.6647 2.40875 46.6079C2.64202 46.4141 2.86969 46.2134 3.09792 46.0136C3.86583 45.3416 4.64317 44.6809 5.41397 44.0123C5.4807 43.9545 5.55313 43.8041 5.67226 43.9592Z" fill="#F3F3F3"/>
<path d="M22.6339 45.9117C21.7233 45.3921 20.7399 45.0172 19.7179 44.7999C18.3815 44.4768 17.0067 44.3486 15.6347 44.4191C14.6629 44.4321 13.7034 44.6427 12.8128 45.0383C12.7056 45.0908 12.6022 45.1512 12.5036 45.2189C12.3414 45.3003 12.2004 45.4196 12.0924 45.5671C11.9843 45.7146 11.9122 45.886 11.882 46.0673C11.8518 46.2487 11.8643 46.4347 11.9185 46.6101C11.9728 46.7856 12.0672 46.9454 12.194 47.0766C12.302 47.2232 12.4223 47.3605 12.5678 47.5403C12.1306 47.5285 11.6957 47.4706 11.2701 47.3678C10.164 47.179 9.11979 46.7194 8.2275 46.0287C7.78816 45.6907 7.41208 45.2754 7.11719 44.8023C7.24707 44.6304 7.41817 44.4951 7.61413 44.4096C7.96788 44.2587 8.28841 44.0433 8.63806 43.881C10.1992 43.153 11.8702 42.6989 13.5804 42.5379C14.2625 42.4575 14.9492 42.4224 15.6358 42.4328C17.6615 42.5134 19.6675 42.8679 21.6011 43.4869C22.0992 43.6446 22.5923 43.8184 23.111 43.9966C23.0977 43.8739 23.0493 43.7578 22.9718 43.6628C22.763 43.301 22.5235 42.9585 22.2561 42.6391C22.1592 42.5231 22.0232 42.421 22.0261 42.2415C22.2996 42.3049 22.5734 42.3671 22.8463 42.4327C22.9173 42.4498 23.0052 42.4946 23.0522 42.4335C23.1145 42.3527 23.0207 42.2827 22.9804 42.2216C22.5689 41.6227 22.0841 41.0796 21.5377 40.6052C21.8228 40.4372 22.1162 40.5743 22.3939 40.6103C25.639 41.0067 28.6813 42.4236 31.0958 44.663C33.5103 46.9024 35.1765 49.8525 35.8616 53.1013C36.1268 54.3698 36.2102 55.6707 36.1094 56.9635C35.9746 59.1814 35.2259 61.3154 33.9497 63.1194C33.8505 63.2288 33.7618 63.3476 33.6849 63.4742C33.3632 63.8907 32.9817 64.2557 32.5532 64.5569C30.4036 66.2647 27.8418 67.3533 25.1361 67.7087C23.0178 68.0536 20.8621 68.0921 18.7332 67.8232C15.382 67.4031 12.1787 66.1726 9.3917 64.2349C8.70311 63.7779 8.05295 63.2638 7.44787 62.6977C7.43839 62.6892 7.43261 62.6772 7.43182 62.6644C7.43102 62.6516 7.43527 62.6389 7.44363 62.6293L7.45122 62.6222C7.57919 62.5708 7.65981 62.6646 7.74382 62.7292C9.16842 63.8172 10.7859 64.616 12.5078 65.0818C13.0846 65.2313 13.6689 65.3493 14.258 65.4355C14.3934 65.4652 14.5313 65.4817 14.6698 65.4847C14.6978 65.4885 14.7255 65.4944 14.7526 65.5022C16.0824 65.6446 17.4256 65.5872 18.739 65.3319C21.5936 64.8427 24.2554 63.5474 26.4205 61.5938C27.9455 60.292 29.0927 58.5923 29.7387 56.6774C30.3814 54.7817 30.2581 52.7044 29.396 50.901C29.1985 51.7209 28.7967 52.4754 28.2292 53.0917C27.6784 53.7179 27.0332 54.2511 26.3177 54.6712C26.2341 54.7203 26.1417 54.8133 26.0457 54.7385C25.9628 54.6739 26.0124 54.5618 26.0379 54.4764C26.2111 53.8873 26.3324 53.2837 26.4006 52.6728C26.5464 51.499 26.3677 50.3071 25.8846 49.2307C25.4015 48.1544 24.633 47.2361 23.6653 46.5787C23.337 46.3326 22.9923 46.1097 22.6339 45.9117Z" fill="#F8F8F8"/>
<path d="M14.2727 65.4898C13.5298 65.4141 12.7963 65.2618 12.0836 65.0354C10.7357 64.6207 9.45441 64.0089 8.2798 63.2192C8.01754 63.0058 7.74225 62.8095 7.45557 62.6315C7.28033 62.6057 7.20702 62.4315 7.06641 62.3552C4.15904 59.734 2.02992 56.3393 0.919165 52.5537C0.354458 50.6884 0.0496634 48.7519 0.0136719 46.8006L0.0396546 46.2787C0.183125 46.6038 0.295317 46.8616 0.410425 47.1182C1.42597 49.4984 2.88924 51.654 4.71799 53.4637C6.64608 55.3847 9.10751 56.6581 11.77 57.1121C14.8732 57.6786 18.0724 57.0382 20.7326 55.3181C22.1215 54.4966 23.2235 53.2549 23.885 51.7662C24.2649 50.9182 24.4002 49.9779 24.275 49.0548C24.1497 48.1317 23.7693 47.2637 23.1778 46.5519C23.0729 46.4115 22.9612 46.2762 22.8527 46.1386C22.9953 46.0147 23.0707 46.1578 23.1515 46.2269C23.8632 46.8321 24.4298 47.5943 24.8083 48.4555C25.1768 49.28 25.3729 50.1734 25.3841 51.0789C25.3974 52.0043 25.1978 52.92 24.8013 53.753C24.8878 53.7512 24.9712 53.7203 25.0386 53.6652C25.4194 53.4423 25.7792 53.1841 26.1133 52.894C26.2171 52.8025 26.309 52.6643 26.4803 52.6852C26.3902 53.3865 26.2408 54.0785 26.0338 54.7537C26.4774 54.5029 26.9009 54.2169 27.3003 53.8984C27.6181 53.6464 27.8744 53.3299 28.1861 53.0735C28.319 53.131 28.3188 53.2648 28.3495 53.3775C28.5783 54.2581 28.6286 55.1768 28.4973 56.0777C28.3659 56.9786 28.0556 57.843 27.5853 58.6182C26.4708 60.547 24.8904 62.1547 22.9938 63.289C21.4772 64.2555 19.8085 64.9501 18.0605 65.3424C16.9621 65.5926 15.8312 65.6605 14.7115 65.5434L14.7117 65.5435C14.5723 65.4669 14.4131 65.5582 14.2727 65.4898Z" fill="#E0DCDC"/>
<path d="M41.9972 51.6731C41.9021 49.5432 41.384 47.4549 40.4741 45.5339C39.8798 44.2806 39.1303 43.1098 38.2438 42.0498C37.4356 41.1074 36.5375 40.2488 35.5625 39.4867C35.6057 39.452 35.6566 39.4284 35.7107 39.418C35.7648 39.4076 35.8206 39.4107 35.8733 39.4269C37.2204 39.5867 38.5443 39.9064 39.8182 40.3795C40.1362 40.498 40.4435 40.6441 40.7369 40.8161C40.8422 40.8701 40.944 40.9308 41.0417 40.9978C41.0671 41.0122 41.0809 41.049 41.1184 41.041C41.1063 41.0273 41.0984 41.0104 41.0955 40.9923C41.0927 40.9741 41.0951 40.9556 41.1024 40.9388C40.2158 39.8157 39.2025 38.8024 38.0834 37.9196C36.7691 36.8406 35.3379 35.9177 33.8175 35.169C31.707 34.1111 29.4373 33.4195 27.1023 33.1229C26.8923 33.1232 26.6829 33.0989 26.4783 33.0506C26.4608 32.9094 26.5772 32.8625 26.6578 32.7943C28.0234 31.6583 29.1311 30.2356 29.905 28.6236C30.139 28.1284 30.3385 27.6171 30.502 27.0935C30.5238 26.9356 30.6017 26.7911 30.721 26.6875C33.1747 27.8869 35.3776 29.5566 37.2085 31.6051C39.604 34.2824 41.3053 37.5244 42.1586 41.038C43.0119 44.5516 42.9902 48.226 42.0956 51.729C42.0336 51.7634 42.0202 51.7096 41.9972 51.6731Z" fill="#F3F3F3"/>
<path d="M33.6853 63.474C33.6831 63.2547 33.8574 63.1316 33.9632 62.9779C34.9418 61.5369 35.6003 59.8967 35.8927 58.1711C36.0731 57.0987 36.1212 56.0076 36.0358 54.9231C35.9183 53.2643 35.5167 51.639 34.849 50.1207C34.3673 48.9951 33.7587 47.93 33.0355 46.9469C32.2633 45.9091 31.373 44.9678 30.3834 44.1426C28.8559 42.8635 27.0976 41.8996 25.207 41.3048C24.2006 40.9747 23.1617 40.7573 22.1087 40.6568C21.9201 40.6251 21.7293 40.6078 21.5381 40.6051C20.8827 40.085 20.175 39.6369 19.4268 39.2683L19.432 39.1928C19.7065 39.1928 19.9812 39.1971 20.2556 39.1921C24.0161 39.0225 27.719 40.1769 30.7394 42.4605C33.8839 44.8136 36.0193 48.3045 36.7046 52.2121C37.4068 55.5344 36.7857 59.0042 34.9771 61.862C34.6236 62.4587 34.1887 63.0014 33.6853 63.474V63.474Z" fill="#B0B0B0"/>
<path d="M30.7215 26.6885C30.357 27.8888 29.8321 29.0325 29.1615 30.0875C28.4616 31.1468 27.6111 32.0948 26.6376 32.9003C26.5817 32.9471 26.5316 33.0009 26.4788 33.0515C26.1587 33.2485 25.8503 33.4644 25.5551 33.6981C24.4162 34.4588 23.2025 35.0968 21.9335 35.6018C21.9026 35.6121 21.8709 35.62 21.8388 35.6256C21.7834 35.5419 21.8489 35.5115 21.883 35.4785C22.5739 34.7831 23.0779 33.9192 23.3469 32.9693C23.3596 32.9076 23.3876 32.8502 23.4283 32.8026C23.4689 32.755 23.5208 32.7187 23.5791 32.6971C25.761 31.7949 27.658 30.3021 29.064 28.3809C29.197 28.2064 29.3272 28.0296 29.4912 27.8103C29.0884 27.8629 28.6922 27.9582 28.3089 28.0948C28.2369 28.0991 28.1429 28.1603 28.1259 28.0218C29.5129 26.3721 30.5565 24.4536 31.1936 22.3823C31.2342 22.2493 31.1935 22.0668 31.3754 22C31.3815 22.0028 31.3866 22.0076 31.39 22.0135C31.3933 22.0195 31.3947 22.0264 31.394 22.0332C31.3916 22.0465 31.3884 22.0531 31.3844 22.0531C31.3657 23.5288 31.1598 24.9959 30.7718 26.418C30.7474 26.5059 30.7379 26.5982 30.7215 26.6885Z" fill="white"/>
<path d="M22.0261 42.2414C22.4808 42.7499 22.8761 43.3103 23.204 43.9113C23.2352 43.9699 23.3166 44.0359 23.2442 44.1053C23.1894 44.1579 23.1255 44.0933 23.0678 44.0715C21.5806 43.504 20.0446 43.0786 18.4797 42.8009C17.6914 42.6631 16.8914 42.6022 16.0906 42.5437C15.371 42.4984 14.6492 42.509 13.9312 42.5752C12.2907 42.6923 10.6805 43.0842 9.16576 43.7352C8.6879 43.9221 8.22491 44.1462 7.78088 44.4053C7.73114 44.4371 7.67137 44.4897 7.61426 44.4094C8.93633 43.4647 10.4031 42.7491 11.9551 42.2914C14.0769 41.6703 16.2939 41.4565 18.4927 41.6612C19.6215 41.7534 20.7424 41.9264 21.8472 42.1789C21.908 42.1962 21.9677 42.2171 22.0261 42.2414V42.2414Z" fill="#EFEFEF"/>
<path d="M21.4752 26.5748L21.8051 26.5742C21.9828 26.6521 22.1775 26.5534 22.3553 26.6293L22.6846 26.6301C22.7122 26.7923 22.5812 26.8603 22.4903 26.9383C20.9665 28.2469 19.4539 29.569 17.929 30.8762C17.4254 31.308 16.926 31.7451 16.4229 32.1774C16.3455 32.2281 16.2852 32.3017 16.2505 32.3883C15.5839 32.6074 14.9806 32.9898 14.4938 33.5018C14.2821 33.7658 14.0989 34.0523 13.9476 34.3562C13.5127 34.6777 13.0973 35.0256 12.7036 35.398C11.6204 36.3235 10.5511 37.2657 9.46509 38.188C9.37382 38.2655 9.31313 38.3745 9.20693 38.4347C9.05883 38.1584 9.02218 37.8345 9.10472 37.5312C9.25657 37.3214 9.44097 37.138 9.65072 36.9883C10.7039 36.0804 11.7559 35.1712 12.8068 34.2607C13.8326 33.3773 14.8569 32.4921 15.8798 31.6051C17.0584 30.5888 18.2358 29.5709 19.412 28.5517C20.0665 27.9849 20.7173 27.4138 21.3812 26.8587C21.482 26.7744 21.5525 26.7071 21.4752 26.5748Z" fill="#F3F3F3"/>
<path d="M40.7757 40.8906C39.486 40.2705 38.1138 39.8458 36.703 39.6302C36.327 39.5534 35.9458 39.5059 35.5627 39.4881C35.0698 39.1715 34.5866 38.8376 34.082 38.5416C32.4487 37.5765 30.6543 36.9257 28.7889 36.622C28.7473 36.6096 28.7069 36.5936 28.668 36.5742C29.9518 36.5768 31.2287 36.7642 32.4608 37.131C33.6922 37.4734 34.8839 37.9493 36.0153 38.5505C35.8793 38.2415 35.7227 37.9423 35.5466 37.6549C35.5337 37.5776 35.4275 37.5101 35.4985 37.4283C35.5746 37.3407 35.6501 37.4341 35.7172 37.465C35.9078 37.5531 36.0902 37.6592 36.2817 37.7462C37.8833 38.5874 39.3926 39.5991 40.7842 40.7642C40.8614 40.8691 40.8614 40.8691 40.7757 40.8906Z" fill="#F3F3F3"/>
<path d="M21.476 26.575C21.5102 26.6564 21.617 26.5968 21.6679 26.6883C21.3611 26.9586 21.0544 27.2329 20.7431 27.5018C20.1807 27.9877 19.6168 28.4719 19.0515 28.9544C18.2506 29.6415 17.4499 30.3288 16.6493 31.0163C16.0935 31.4964 15.5459 31.9865 14.9901 32.4667C14.3166 33.0486 13.6369 33.623 12.9627 34.204C12.4272 34.6655 11.8972 35.1337 11.3625 35.596C10.8002 36.0821 10.2364 36.5664 9.67116 37.0489C9.48308 37.2103 9.29451 37.3711 9.10547 37.5314L9.26665 36.8041C9.17517 36.5662 9.36578 36.459 9.49576 36.3489C10.0091 35.914 10.5138 35.4688 11.0233 35.0293C12.2095 34.0059 13.395 32.9815 14.5796 31.9561C15.5977 31.0764 16.6159 30.197 17.6345 29.3179C18.5816 28.497 19.5357 27.6843 20.4736 26.8526C20.5455 26.7888 20.6824 26.7133 20.4847 26.6291C20.8112 26.5656 21.1447 26.5474 21.476 26.575V26.575Z" fill="#F3F3F3"/>
<path d="M20.4844 26.6297C20.5612 26.6434 20.6455 26.602 20.7263 26.6658C20.5139 26.932 20.2681 27.1687 19.9951 27.3698C19.2749 28.008 18.544 28.6338 17.8143 29.2608C17.1472 29.834 16.4733 30.3989 15.8076 30.9737C15.1346 31.5548 14.4708 32.147 13.7978 32.7281C13.1321 33.3028 12.4571 33.8664 11.7914 34.4412C11.1184 35.0223 10.4512 35.6104 9.7829 36.1971C9.58192 36.3736 9.31636 36.4949 9.26643 36.8046C8.91142 36.8456 8.72389 37.1501 8.46393 37.3384C8.05376 37.6355 7.74197 38.0441 7.36359 38.3784C6.98321 38.6529 6.64727 38.9822 6.29253 39.2878C5.23782 40.1964 4.18826 41.1112 3.12954 42.0151C2.99148 42.1513 2.84399 42.2774 2.68821 42.3922C2.61413 42.439 2.54836 42.5257 2.44495 42.4527C2.43896 42.2601 2.47686 42.0686 2.55568 41.8933C3.06112 41.5251 3.54258 41.124 3.99705 40.6925C5.3086 39.5754 6.60863 38.4444 7.91149 37.3169C9.20728 36.1955 10.5026 35.0735 11.7975 33.9509C13.0667 32.8553 14.3363 31.76 15.6063 30.6651C16.9028 29.5447 18.2054 28.4314 19.4917 27.2989C19.7475 27.0737 20.017 26.8646 20.2656 26.6306L20.4844 26.6297Z" fill="#F3F3F3"/>
<path d="M23.3451 26.6855C23.6406 26.7018 23.9347 26.7391 24.2251 26.7973C24.3047 26.9754 24.1542 27.0451 24.0612 27.1277C23.6947 27.4535 23.3113 27.7594 22.9543 28.0966C22.9159 28.0449 22.8748 27.9949 22.8394 27.9411C22.7581 27.8177 22.7009 27.8508 22.6483 27.9654C22.1872 28.8591 21.5016 29.6128 20.661 30.1497C19.7495 30.8012 18.7685 31.3461 17.7369 31.7741C17.6815 31.6668 17.6766 31.6619 17.7713 31.5623C17.9689 31.3548 18.195 31.1793 18.4109 30.9927C19.9722 29.6434 21.5383 28.2999 23.0901 26.9393C23.1805 26.86 23.2581 26.7681 23.3451 26.6855Z" fill="#F3F3F3"/>
<path d="M23.3461 26.6867C23.3413 26.7325 23.3274 26.7769 23.3053 26.8171C23.2831 26.8573 23.2532 26.8926 23.2173 26.9207C22.2104 27.7869 21.2051 28.655 20.2014 29.5249C19.4327 30.1907 18.6661 30.8588 17.9015 31.5294C17.8325 31.5903 17.7033 31.6335 17.7379 31.7752C17.2546 32.009 16.7583 32.2141 16.2517 32.3894C16.081 32.342 16.2221 32.2801 16.2542 32.2512C16.554 31.9815 16.8567 31.7153 17.1624 31.4524C17.7234 30.9675 18.2854 30.4837 18.8484 30.001C19.4039 29.5238 19.9617 29.0493 20.5156 28.5701C21.0697 28.0907 21.6237 27.6108 22.1705 27.1227C22.3683 26.9896 22.5425 26.8234 22.6858 26.6312C22.9071 26.6282 23.1282 26.6468 23.3461 26.6867V26.6867Z" fill="#F3F3F3"/>
<path d="M19.4429 33.4019C20.0429 33.149 20.6117 32.8254 21.1374 32.4377C21.2427 32.4336 21.2311 32.495 21.2059 32.564C21.01 33.4949 20.5209 34.3355 19.8127 34.9584C19.1045 35.5813 18.2159 35.9525 17.2815 36.0159C16.9001 36.0672 16.5149 36.0818 16.1309 36.0597C16.1803 35.9159 16.3148 35.9281 16.4238 35.8979C16.8581 35.7913 17.28 35.6381 17.6825 35.4409C18.4192 35.074 18.9938 34.4397 19.293 33.6632C19.3209 33.5648 19.3724 33.475 19.4429 33.4019Z" fill="white"/>
<path d="M19.4432 33.4023C19.3269 33.8427 19.1206 34.2532 18.8378 34.6071C18.5549 34.9609 18.2019 35.2502 17.8017 35.4561C17.2699 35.7227 16.7093 35.9255 16.1314 36.0603C16.0755 35.8722 16.07 35.6725 16.1153 35.4815C16.1607 35.2906 16.2554 35.1155 16.3896 34.9741C16.6881 34.6224 17.0656 34.349 17.4901 34.177C18.1276 33.8849 18.7795 33.6263 19.4432 33.4023Z" fill="white"/>
<path d="M2.44435 42.4513C2.7411 42.2929 3.00908 42.0841 3.23676 41.8341C4.06475 41.1435 4.87803 40.4346 5.694 39.7292C6.12299 39.3584 6.54584 38.9801 6.97135 38.6051C7.07152 38.4848 7.21011 38.404 7.3629 38.377C6.90859 38.9259 6.51495 39.524 6.18905 40.1603C5.34611 40.8863 4.50438 41.6138 3.66384 42.3426C3.27515 42.6806 2.87834 43.0088 2.49569 43.354C2.43692 43.407 2.37069 43.4738 2.28027 43.4018C2.29722 43.0794 2.35231 42.7603 2.44435 42.4513V42.4513Z" fill="#F3F3F3"/>
<path d="M5.67258 43.9593C5.41277 43.9794 5.2955 44.216 5.12365 44.357C4.40122 44.9497 3.69723 45.5659 2.99413 46.1826C2.75959 46.3883 2.53205 46.6017 2.28384 46.7911C2.11999 46.9161 2.05829 46.8678 2.06061 46.6731C2.06339 46.4404 2.06125 46.2077 2.06125 45.9751C2.32684 45.7096 2.60794 45.4606 2.90302 45.2295C3.72274 44.5229 4.53359 43.8057 5.36351 43.1114C5.43498 43.0516 5.49479 42.9426 5.61776 43.0132L5.67258 43.9593Z" fill="#F3F3F3"/>
<path d="M9.20703 38.4352C9.21179 38.3886 9.22687 38.3438 9.25113 38.3041C9.2754 38.2644 9.30822 38.2308 9.34713 38.2058C10.0071 37.6392 10.6702 37.0764 11.3294 36.5089C11.8709 36.0428 12.4103 35.5741 12.9475 35.1027C13.2305 34.8557 13.5114 34.606 13.7923 34.3566C13.8461 34.3089 13.8959 34.2734 13.9477 34.3567C13.8719 34.6072 13.8296 34.8669 13.8219 35.1288C13.5122 35.4425 13.1836 35.7363 12.838 36.0084C11.8125 36.8993 10.7882 37.7917 9.75566 38.6742C9.71549 38.712 9.67905 38.7538 9.64685 38.7989C9.54906 38.7815 9.45728 38.739 9.38028 38.6753C9.30328 38.6116 9.24363 38.529 9.20703 38.4352Z" fill="#F3F3F3"/>
<path d="M2.28097 43.4037C2.51797 43.3295 2.65666 43.1196 2.83477 42.9699C3.80062 42.158 4.75153 41.3278 5.70772 40.5041C5.85781 40.3748 5.96368 40.1808 6.18975 40.1621C6.01496 40.6008 5.8674 41.0502 5.74792 41.5076C5.57634 41.4899 5.48887 41.6299 5.38364 41.7218C4.3879 42.5921 3.38284 43.4512 2.3825 44.316C2.32241 44.3679 2.26923 44.4437 2.1709 44.4101C2.15675 44.0709 2.19387 43.7315 2.28097 43.4037Z" fill="#F3F3F3"/>
<path d="M9.64678 38.7989C9.57858 38.6738 9.69484 38.6331 9.75487 38.5809C10.5958 37.8495 11.4388 37.1204 12.2837 36.3938C12.7612 35.9822 13.2402 35.5724 13.7205 35.1643C13.752 35.1466 13.7863 35.1346 13.8218 35.1289C13.8218 35.3566 13.8559 35.583 13.9228 35.8002C13.6177 36.1194 13.2897 36.4149 12.9414 36.6844C12.2009 37.3333 11.4565 37.9775 10.7082 38.617C10.6529 38.6512 10.6126 38.7056 10.5954 38.769C10.2952 38.9047 9.95467 38.9154 9.64678 38.7989V38.7989Z" fill="#F3F3F3"/>
<path d="M5.61716 43.0135C5.32341 43.2122 5.04677 43.4359 4.79022 43.6821C4.07494 44.2813 3.37008 44.8934 2.66791 45.5084C2.48947 45.6939 2.2848 45.8513 2.06067 45.9754C2.03556 45.6761 2.05402 45.3747 2.11544 45.0809C3.19944 44.1396 4.28605 43.2014 5.37526 42.2664C5.45009 42.2021 5.52657 42.1241 5.64241 42.1742L5.61716 43.0135Z" fill="#F3F3F3"/>
<path d="M5.64301 42.1726C5.31393 42.387 5.00635 42.6337 4.72469 42.9092C4.01516 43.502 3.32105 44.1139 2.61828 44.7152C2.46089 44.8498 2.35104 45.0546 2.11604 45.0795C2.14396 44.8566 2.0571 44.6241 2.17105 44.4086C2.85685 43.814 3.54274 43.2195 4.22872 42.6252C4.69361 42.2237 5.16262 41.8272 5.62704 41.4252C5.7755 41.2967 5.73482 41.4377 5.74811 41.5061L5.64301 42.1726Z" fill="#F3F3F3"/>
<path d="M10.5953 38.7696C10.4941 38.6967 10.5647 38.6398 10.6182 38.5942C11.265 38.0424 11.9152 37.4947 12.5612 36.942C12.9644 36.5971 13.3624 36.246 13.7617 35.8964C13.8102 35.8538 13.8521 35.8035 13.9226 35.8008L14.0877 36.1358C13.961 36.3342 13.7575 36.4584 13.6148 36.6413C12.858 37.5554 11.8945 38.2695 10.8068 38.7223C10.7376 38.7433 10.6668 38.7591 10.5953 38.7696V38.7696Z" fill="#F3F3F3"/>
<path d="M22.9541 28.0962C23.0532 27.7791 23.3772 27.6885 23.5686 27.465C23.7725 27.2269 24.106 27.1208 24.2248 26.7969C24.4611 26.8101 24.6955 26.8462 24.9249 26.9049C25.1259 26.9432 25.1345 27.0317 24.9959 27.1575C24.6966 27.4292 24.3949 27.6982 24.0909 27.9646C23.8079 28.2121 23.5203 28.4539 23.2347 28.6983L22.9541 28.0962Z" fill="#F3F3F3"/>
<path d="M9.38027 40.8456C9.42873 40.9695 9.28281 41.0317 9.29972 41.1456C9.29621 41.0752 9.27658 41.0066 9.2424 40.9453C9.20822 40.884 9.16043 40.8316 9.10284 40.7924C9.04524 40.7531 8.97943 40.7281 8.91065 40.7193C8.84186 40.7105 8.772 40.7181 8.70662 40.7415C8.34846 40.82 8.02401 41.0119 7.77996 41.2897C7.71136 41.3633 7.63615 41.4307 7.56397 41.5009C7.50337 41.424 7.56517 41.362 7.58783 41.2951C7.74189 40.8333 8.05173 40.4419 8.46246 40.1901C8.55293 40.1266 8.65379 40.0798 8.76034 40.0521C9.23142 39.9376 9.48934 40.1718 9.42443 40.6572C9.41959 40.722 9.40468 40.7856 9.38027 40.8456V40.8456Z" fill="#EFEFEF"/>
<path d="M9.38018 40.8454C9.38198 40.7715 9.38427 40.6976 9.38547 40.6237C9.39342 40.1361 9.12146 39.9505 8.67613 40.1576C8.18917 40.4007 7.8098 40.8209 7.61321 41.3349C7.56152 41.3447 7.53435 41.3296 7.55059 41.2708C7.69142 40.6723 8.04563 40.1482 8.54467 39.7999C8.67392 39.7127 8.82014 39.6548 8.97337 39.6302C9.09022 39.6039 9.21255 39.6251 9.31422 39.6892C9.41588 39.7534 9.48882 39.8555 9.51743 39.9736C9.55438 40.1208 9.56127 40.274 9.53766 40.424C9.51406 40.5739 9.46046 40.7174 9.38018 40.8454V40.8454Z" fill="#F8F8F8"/>
<path d="M13.6154 36.6403C13.5231 36.5645 13.604 36.5364 13.6533 36.5015C13.8084 36.3916 13.8933 36.1957 14.0882 36.1348C14.349 36.4951 14.7246 36.7524 15.1511 36.8628C15.2346 36.8931 15.322 36.9125 15.4581 36.9514C15.1751 37.0435 14.8752 37.069 14.5811 37.026C14.287 36.983 14.0063 36.8726 13.7604 36.7031C13.7215 36.6645 13.6697 36.642 13.6154 36.6403V36.6403Z" fill="#F3F3F3"/>
<path d="M36.2817 37.7454C36.0935 37.6902 35.9127 37.6118 35.7433 37.5118C35.6726 37.4852 35.6048 37.3894 35.5293 37.452C35.4665 37.5041 35.5689 37.5822 35.5466 37.6541C35.4476 37.5432 35.3757 37.4101 35.3369 37.2656C35.6682 37.3897 35.9851 37.5506 36.2817 37.7454V37.7454Z" fill="#F3F3F3"/>
<path d="M40.7754 40.8901C40.8353 40.852 40.7793 40.8057 40.7839 40.7637L41.1024 40.9397L41.2741 41.1633C41.0932 41.1031 40.9243 41.0106 40.7754 40.8901V40.8901Z" fill="#F3F3F3"/>
<path d="M7.06543 62.3555C7.23678 62.387 7.3144 62.5549 7.45459 62.6319L7.44792 62.6981C7.29447 62.6179 7.16303 62.5001 7.06543 62.3555V62.3555Z" fill="#424A7F"/>
<path d="M41.998 51.6738L42.0969 51.7297C42.0986 51.8513 42.0642 51.9706 41.998 52.0721V51.6738Z" fill="#F3F3F3"/>
<path d="M28.1258 28.0215C28.1632 28.107 28.2471 28.072 28.3088 28.0944L28.0148 28.2098C27.9919 28.0913 28.0713 28.0648 28.1258 28.0215Z" fill="#F3F3F3"/>
<path d="M7.55016 41.2695L7.61309 41.3336L7.56349 41.4995L7.44434 41.6541C7.453 41.5199 7.48903 41.389 7.55016 41.2695V41.2695Z" fill="#F8F8F8"/>
<path d="M21.2075 32.5641C21.1917 32.518 21.1982 32.4595 21.1387 32.4378C21.1562 32.3948 21.2038 32.3345 21.2259 32.3561C21.2924 32.4209 21.2646 32.4987 21.2075 32.5641Z" fill="#F3F3F3"/>
<path d="M2.66504 41.4445C2.72278 41.0396 2.83357 40.6445 2.99446 40.2695C3.64185 39.8109 4.21087 39.2552 4.81257 38.7406C5.85635 37.848 6.89585 36.95 7.93108 36.0469C8.87764 35.2247 9.82591 34.4046 10.7759 33.5865C11.8025 32.7019 12.8279 31.8159 13.8521 30.9283C14.7867 30.1208 15.7235 29.3157 16.6541 28.5032C17.3068 27.9334 17.9736 27.3803 18.6155 26.7975C18.9569 26.7123 19.3081 26.6743 19.6596 26.6847C19.6751 26.6716 19.6939 26.6634 19.7139 26.6609C19.7339 26.6585 19.7541 26.6619 19.7722 26.6709C19.8504 26.806 19.7509 26.8828 19.6706 26.9518C18.7836 27.7144 17.899 28.48 17.0168 29.2483C16.0767 30.0622 15.1363 30.8757 14.1955 31.6889C13.3255 32.4431 12.4542 33.1958 11.5817 33.9472C10.5206 34.8605 9.46077 35.7753 8.40215 36.6916C7.08371 37.8283 5.77124 38.9722 4.4498 40.1055C3.93946 40.5431 3.43712 40.9906 2.91934 41.4193C2.8549 41.4725 2.76754 41.6406 2.66504 41.4445Z" fill="#EDEDED"/>
<path d="M18.6151 26.7988C18.5226 27.1131 18.2242 27.2307 18.0124 27.4222C17.3178 28.0501 16.6 28.6514 15.8895 29.261C15.0954 29.9423 14.2969 30.6181 13.5055 31.3025C12.8178 31.8972 12.1401 32.5038 11.4529 33.099C10.7869 33.6758 10.1123 34.2423 9.44529 34.8179C8.77793 35.3938 8.11702 35.9775 7.45006 36.5538C6.78342 37.1299 6.11142 37.6995 5.4443 38.2751C4.89507 38.749 4.35035 39.2282 3.80218 39.7034C3.58023 39.8957 3.35409 40.0831 3.1306 40.2737C3.08273 40.3145 3.03845 40.3345 2.99414 40.2709C3.07345 39.8826 3.20294 39.5066 3.37923 39.1528C3.86578 38.8053 4.32793 38.4237 4.76234 38.0109C5.8052 37.1174 6.84445 36.2195 7.88008 35.3172C8.95146 34.3858 10.0248 33.4568 11.1002 32.5302C11.9858 31.7643 12.8721 30.9992 13.759 30.2348C14.9126 29.2434 16.0563 28.24 17.2148 27.2544C17.2995 27.1978 17.3655 27.1166 17.4043 27.0214C17.8003 26.9098 18.2057 26.8353 18.6151 26.7988V26.7988Z" fill="#EDEDED"/>
<path d="M17.4038 27.0215C17.5748 27.0672 17.4351 27.13 17.4026 27.1595C17.0903 27.4439 16.7763 27.7264 16.4569 28.0024C15.9019 28.482 15.3423 28.956 14.7855 29.4334C13.9712 30.1318 13.1574 30.8309 12.3443 31.5306C11.6782 32.1066 11.0187 32.6907 10.3529 33.2671C9.6666 33.8613 8.97469 34.4488 8.28812 35.0426C7.62205 35.6187 6.96137 36.2013 6.29512 36.7772C5.62918 37.3528 4.95937 37.9238 4.29107 38.4966C4.04741 38.7054 3.80459 38.9153 3.55803 39.1205C3.5095 39.1609 3.45718 39.2519 3.37891 39.1529C3.47913 38.7812 3.62675 38.4244 3.818 38.0916C4.72236 37.3055 5.63118 36.5247 6.5359 35.7391C7.46851 34.9293 8.40255 34.1211 9.33802 33.3147C10.2303 32.5429 11.1233 31.7718 12.0168 31.0014C12.9581 30.1878 13.8996 29.3745 14.8412 28.5612C15.3295 28.1409 15.8017 27.7012 16.3042 27.2981C16.657 27.1565 17.0268 27.0634 17.4038 27.0215V27.0215Z" fill="#EDEDED"/>
<path d="M16.3056 27.2969C15.9286 27.7257 15.5111 28.1159 15.0591 28.4617C14.5043 28.9566 13.9354 29.4349 13.3719 29.9196C12.8223 30.3922 12.2708 30.8625 11.7222 31.3363C11.1734 31.8104 10.6284 32.289 10.0794 32.7629C9.5237 33.2425 8.96381 33.7171 8.40828 34.1969C7.86636 34.6649 7.32889 35.1383 6.78714 35.6065C6.09983 36.2006 5.41124 36.7931 4.7214 37.3841C4.47784 37.5935 4.23383 37.8023 3.98934 38.0105C3.94504 38.0586 3.88406 38.0872 3.81934 38.0904C3.99447 37.6216 4.21597 37.1721 4.48043 36.7489C5.73591 35.7113 6.95654 34.6314 8.18827 33.5654C9.61517 32.3304 11.0484 31.103 12.4669 29.8579C13.2692 29.1537 14.1024 28.4859 14.8756 27.7472C15.338 27.5537 15.8166 27.403 16.3056 27.2969Z" fill="#EDEDED"/>
<path d="M14.8757 27.748C14.9309 27.8476 14.8322 27.8778 14.789 27.9163C14.1792 28.4594 13.5668 28.9994 12.9517 29.5364C12.4126 30.0064 11.8687 30.4708 11.3266 30.9374C10.6526 31.5175 9.97853 32.0976 9.30438 32.6776C8.75598 33.1512 8.21111 33.629 7.66261 34.1025C6.97552 34.6956 6.2874 35.2874 5.59825 35.878C5.3133 36.1235 5.02968 36.3706 4.74738 36.6193C4.67446 36.6907 4.58089 36.7365 4.48047 36.7497C4.82024 36.0589 5.2259 35.4037 5.69163 34.7935C6.11729 34.4746 6.50595 34.1101 6.90864 33.7634C7.9543 32.863 8.99836 31.9607 10.0408 31.0564C10.8475 30.3576 11.6538 29.6583 12.4598 28.9586C12.5987 28.8697 12.7252 28.7621 12.8357 28.6386C13.4847 28.2731 14.1681 27.9748 14.8757 27.748V27.748Z" fill="#EDEDED"/>
<path d="M26.4802 52.6849C25.9326 53.1928 25.3139 53.6152 24.6442 53.9382C24.8546 53.5044 25.0178 53.0484 25.1307 52.5785C25.3444 51.6662 25.3574 50.7172 25.1688 49.7992C24.9802 48.8812 24.5946 48.0168 24.0396 47.2677C23.7399 46.8929 23.4125 46.5419 23.0602 46.2177C23.0071 46.1618 22.9486 46.0916 22.8526 46.1384C22.7537 46.0888 22.7052 45.9893 22.6348 45.9116C22.6826 45.8498 22.732 45.8842 22.779 45.9112C24.1168 46.6176 25.2052 47.7296 25.8933 49.0932C26.2263 49.7953 26.4295 50.5536 26.4929 51.3304C26.5354 51.7811 26.5312 52.2351 26.4802 52.6849Z" fill="#EFEFEF"/>
<path d="M2.66444 41.4457C2.88397 41.5265 2.96125 41.3036 3.07017 41.2119C4.18584 40.2734 5.28591 39.3156 6.38726 38.3596C7.42647 37.4575 8.45873 36.5471 9.50008 35.6476C10.6591 34.6465 11.8279 33.6571 12.9869 32.656C14.0283 31.7565 15.0611 30.8467 16.0996 29.9439C17.2211 28.9689 18.344 27.9956 19.4682 27.0238C19.5834 26.9242 19.7487 26.8729 19.7695 26.6867C19.8324 26.6256 19.9261 26.6926 19.9891 26.6321L20.2649 26.6309C20.1806 26.9276 19.897 27.0323 19.6996 27.2129C19.1307 27.7331 18.5378 28.2262 17.9531 28.7285C17.2849 29.3026 16.6142 29.8736 15.9469 30.4488C15.4045 30.9163 14.8672 31.3899 14.3248 31.8575C13.5256 32.5466 12.7226 33.2313 11.9236 33.9207C11.3814 34.3885 10.8446 34.8629 10.3028 35.3311C9.6154 35.9252 8.92415 36.5146 8.23682 37.1087C7.69503 37.577 7.15811 38.0511 6.61633 38.5195C6.06101 38.9996 5.50089 39.474 4.94581 39.9545C4.39042 40.4352 3.83979 40.9215 3.28473 41.4026C3.09064 41.5708 2.88962 41.7306 2.69218 41.8948C2.64526 41.9338 2.60019 41.9578 2.55496 41.8936C2.55109 41.737 2.58892 41.5823 2.66444 41.4457V41.4457Z" fill="#EDEDED"/>
<path d="M12.8355 28.6387C12.7892 28.9032 12.5354 28.9728 12.3742 29.1204C11.8129 29.6339 11.2284 30.1211 10.6515 30.6169C9.97736 31.1963 9.30065 31.7725 8.62751 32.3531C8.08597 32.8202 7.54795 33.2916 7.00872 33.7614C6.61469 34.1048 6.22101 34.4485 5.82769 34.7927C5.78151 34.8331 5.73725 34.8576 5.69141 34.7935C5.98021 34.3439 6.30237 33.9173 6.65508 33.5175C7.93406 31.9872 9.43603 30.665 11.1088 29.5969C11.6536 29.2233 12.2317 28.9025 12.8355 28.6387V28.6387Z" fill="#EDEDED"/>
<path d="M22.3559 26.6299C22.1731 26.6054 21.9799 26.6874 21.8057 26.5749C21.9885 26.5988 22.1816 26.517 22.3559 26.6299Z" fill="#F3F3F3"/>
<path d="M19.9893 26.6312C19.931 26.7111 19.8453 26.6773 19.7698 26.6859L19.6592 26.6849C19.7567 26.5875 19.8787 26.6457 19.9893 26.6312Z" fill="#F3F3F3"/>
<path d="M14.71 65.5444C16.5033 65.6257 18.2943 65.3388 19.9761 64.7009C21.6127 64.1001 23.1396 63.2266 24.4941 62.1162C25.8394 61.0642 26.9421 59.7258 27.7249 58.1948C28.1369 57.3544 28.391 56.4432 28.4744 55.508C28.5295 54.6855 28.4312 53.8598 28.1845 53.0744C28.2095 52.88 28.384 52.7912 28.4863 52.6547C28.8875 52.1449 29.1638 51.5455 29.2924 50.9059C29.3166 50.8189 29.3464 50.7335 29.3816 50.6504C29.6298 51.1544 29.8268 51.6829 29.9696 52.2276C30.1752 52.9892 30.2576 53.7797 30.2137 54.5682C30.1139 55.9417 29.7115 57.2747 29.0363 58.4686C28.3627 59.6533 27.5058 60.72 26.4985 61.6277C25.621 62.4276 24.6517 63.1169 23.6117 63.6806C22.3585 64.3723 21.0204 64.8914 19.6326 65.2244C18.7643 65.4317 17.8798 65.5613 16.9892 65.6118C16.5619 65.6494 16.1327 65.6609 15.704 65.6463C15.3699 65.653 15.0361 65.6188 14.71 65.5444Z" fill="#D0CECE"/>
<path d="M14.2715 65.4901C14.4175 65.5101 14.5751 65.4331 14.7104 65.5438C14.5648 65.5205 14.4074 65.596 14.2715 65.4901Z" fill="#424A7F"/>
<path d="M74.0108 34.8594H82.2037V35.8525H81.9446C81.6123 35.8459 81.2821 35.9072 80.9735 36.0329C80.6649 36.1585 80.3843 36.3458 80.1483 36.5837C79.791 37.3685 79.6469 38.2362 79.7312 39.0967V48.0972C79.6147 49.8778 80.099 51.6455 81.1042 53.1086C81.5853 53.6545 82.174 54.0914 82.832 54.391C83.4901 54.6906 84.2027 54.8461 84.9237 54.8475C85.6447 54.8489 86.358 54.6961 87.0171 54.399C87.6763 54.1019 88.2666 53.6673 88.7497 53.1232C89.7684 51.6606 90.2587 49.8851 90.1376 48.0972V39.0967C90.2192 38.2377 90.0804 37.3719 89.7348 36.5837C89.4976 36.3432 89.2148 36.1544 88.9035 36.0286C88.5922 35.9029 88.2589 35.843 87.9241 35.8525H87.665V34.8594H95.8867V35.8525L95.3115 35.9401C95.0205 35.9492 94.7355 36.0266 94.4787 36.1661C94.222 36.3056 94.0004 36.5035 93.8312 36.7444C93.5149 37.4845 93.3816 38.2921 93.4428 39.0967V48.3601C93.4831 49.4348 93.2989 50.506 92.9026 51.5032C92.5062 52.5003 91.9066 53.4009 91.1432 54.1455C89.4429 55.6895 87.2112 56.4878 84.9344 56.3664C82.658 56.4879 80.4264 55.6909 78.725 54.1486C77.9618 53.4056 77.3622 52.5065 76.9658 51.5107C76.5695 50.5149 76.3852 49.445 76.4254 48.3715V39.1207C76.4888 38.3185 76.3607 37.5126 76.0518 36.7715C75.876 36.5343 75.6509 36.3394 75.3926 36.2008C75.1343 36.0621 74.849 35.9831 74.5572 35.9693L74.0107 35.8525L74.0108 34.8594Z" fill="white"/>
<path d="M96.8066 35.7648V34.8301H104.626V35.8232L104.137 35.8816C103.892 35.8965 103.653 35.966 103.437 36.0852C103.221 36.2043 103.033 36.3702 102.887 36.5711C102.615 37.2019 102.501 37.8917 102.556 38.5782V52.3261C102.485 53.0022 102.624 53.684 102.953 54.2758C103.418 54.6826 104.012 54.9061 104.626 54.9058H104.856V55.8989H96.8066V54.9059H97.0688C97.7226 54.9161 98.3561 54.6755 98.8431 54.232C99.1891 53.5348 99.3305 52.7512 99.2505 51.9746V38.3445C99.3128 37.7004 99.1443 37.0551 98.7759 36.5273C98.2794 36.0918 97.6613 35.8252 97.0083 35.7648H96.8066Z" fill="white"/>
<path d="M124.432 34.0996H125.352V39.885H124.488L124.432 39.5022C123.971 37.5786 122.953 36.5138 121.379 36.308C119.804 36.1014 118.795 35.9982 118.354 35.9982C117.282 35.958 116.214 36.1521 115.223 36.5675C114.232 36.9829 113.34 37.6098 112.607 38.4058C111.062 40.2259 110.272 42.5846 110.404 44.9851C110.257 47.5254 110.999 50.0365 112.498 52.0744C113.168 52.9102 114.019 53.5769 114.984 54.0223C115.95 54.4677 117.004 54.6797 118.063 54.6417C119.596 54.7173 121.117 54.3343 122.438 53.5401C122.947 53.2274 123.387 52.8107 123.73 52.3164C124.074 51.8222 124.312 51.261 124.432 50.6683H125.352V56.1908H124.459L124.432 55.9572C124.24 55.4116 123.951 55.139 123.567 55.1393C123.479 55.136 123.392 55.1455 123.307 55.1675L122.816 55.2812L122.528 55.3667L121.403 55.6787C120.981 55.7746 120.524 55.865 120.033 55.9499C119.543 56.0344 119.158 56.0911 118.88 56.1199C118.602 56.1481 118.352 56.1669 118.131 56.1773C117.91 56.1856 117.655 56.1908 117.366 56.1908C113.636 56.1908 111.002 55.1452 109.465 53.054C108.25 51.6052 107.355 49.9084 106.84 48.0781C106.655 47.1064 106.549 46.1207 106.523 45.1312C106.479 43.6993 106.738 42.2744 107.282 40.9528C107.825 39.6312 108.642 38.4436 109.676 37.4701C111.926 35.4199 114.877 34.3464 117.896 34.4794C118.715 34.4816 119.532 34.5402 120.343 34.6546L122.186 35.0051C122.562 35.1096 122.948 35.1685 123.338 35.1804C123.469 35.1963 123.602 35.1852 123.729 35.1477C123.855 35.1101 123.973 35.0469 124.075 34.9619C124.178 34.8768 124.262 34.7717 124.323 34.6527C124.384 34.5338 124.421 34.4035 124.432 34.2697V34.0996Z" fill="white"/>
<path d="M126.701 55.899V54.9644L126.989 54.8767C127.69 54.834 128.348 54.5197 128.828 53.9984C129.178 53.1378 129.316 52.2037 129.231 51.2768V38.9256C129.29 38.1553 129.182 37.3812 128.915 36.6578C128.753 36.435 128.547 36.2503 128.309 36.1164C128.071 35.9824 127.807 35.9024 127.535 35.8817L126.989 35.7941H126.902V34.8594H134.952V35.7659L134.75 35.7941L134.262 35.8525C133.991 35.8738 133.728 35.9558 133.492 36.0925C133.256 36.2292 133.052 36.4172 132.896 36.6432C132.598 37.374 132.475 38.1663 132.537 38.9549V51.6273C132.458 52.4618 132.571 53.3036 132.867 54.086C133.378 54.5579 134.033 54.8371 134.722 54.8767H134.952V55.899H126.701ZM132.787 44.54L138.831 38.1902C139.142 37.8881 139.417 37.5499 139.65 37.1825C139.791 36.9884 139.885 36.7633 139.924 36.5253C139.924 36.2718 139.744 36.0768 139.383 35.9401C139.072 35.8115 138.735 35.7614 138.401 35.7941V34.8594H145.213V35.7398L144.841 35.7941C144.244 35.8847 143.667 36.0799 143.135 36.3709C142.579 36.7238 142.073 37.1527 141.631 37.6457L136.036 43.3539L143.636 51.9225L144.38 52.7142C144.921 53.2781 145.513 53.7887 146.148 54.2394C146.579 54.5401 147.061 54.7562 147.57 54.8767V55.899H138.89V54.9644L139.27 54.8767C140.147 54.7036 140.586 54.3764 140.585 53.8951C140.552 53.6671 140.468 53.4499 140.34 53.2598C140.066 52.8259 139.752 52.4196 139.402 52.0466L132.787 44.54Z" fill="white"/>
<path d="M147.456 56.2493V51.2525H148.436C148.764 51.8981 149.16 52.5054 149.618 53.0634C150.101 53.7447 150.815 54.2194 151.622 54.3955C152.206 54.5202 152.799 54.5928 153.396 54.6125C154.185 54.6391 154.968 54.4633 155.673 54.1014C156.252 53.7966 156.726 53.3171 157.027 52.7286C157.304 52.202 157.452 51.6157 157.46 51.0188C157.46 49.7722 156.72 48.7398 155.24 47.9216L153.222 46.8107L152.818 46.577C151.402 45.9344 150.128 45.0104 149.069 43.8595C148.308 42.946 147.898 41.7831 147.916 40.5861V39.8266C147.974 39.5929 148.075 39.0766 148.219 38.2775C148.544 37.2283 149.233 36.3351 150.158 35.7645C151.49 34.8328 153.085 34.3711 154.7 34.4501C155.142 34.4514 155.584 34.4807 156.023 34.5377C156.255 34.5405 156.486 34.5699 156.712 34.6254C156.961 34.6838 157.153 34.7227 157.288 34.7422L157.862 34.859L158.006 34.8882H158.322C158.547 34.8708 158.763 34.7869 158.941 34.6468C159.12 34.5067 159.255 34.3165 159.329 34.0996H160.133V38.8335H159.155C158.96 38.1654 158.575 37.5707 158.049 37.1238C157.637 36.7635 157.171 36.4723 156.669 36.261C156.193 36.0949 155.692 36.0158 155.189 36.0274C154.172 35.98 153.168 36.284 152.343 36.8901C151.987 37.1665 151.693 37.5165 151.48 37.9169C151.267 38.3174 151.14 38.7592 151.107 39.2132C151.07 40.0064 151.298 40.789 151.754 41.4341C152.498 42.2308 153.392 42.867 154.384 43.3045L155.362 43.7719C156.141 44.1162 156.895 44.5164 157.618 44.9695C158.348 45.4641 159.027 46.032 159.645 46.6646C160.051 47.1328 160.359 47.6796 160.552 48.2721C160.744 48.8646 160.817 49.4905 160.766 50.1123C160.765 51.2056 160.456 52.2757 159.875 53.1959C159.374 54.0715 158.635 54.7817 157.748 55.2416C157.073 55.5847 156.365 55.8539 155.635 56.0448C154.978 56.1883 154.308 56.2569 153.637 56.2493C152.53 56.2233 151.431 56.0665 150.36 55.7819L149.698 55.5775L149.526 55.5482C149.387 55.503 149.241 55.4832 149.095 55.4898C148.924 55.4975 148.759 55.5565 148.621 55.6594C148.483 55.7622 148.378 55.9043 148.319 56.0677L148.233 56.2493H147.456Z" fill="white"/>
<path d="M161.283 34.8594H168.728V35.8514L168.297 35.9109C167.55 35.9881 167.176 36.2868 167.175 36.807C167.223 37.3074 167.322 37.8012 167.473 38.28L167.68 38.9737L171.633 50.4162L175.375 39.7706L174.91 38.4646C174.711 37.758 174.369 37.1012 173.907 36.5358C173.509 36.1707 173.003 35.9508 172.468 35.9109H172.121V34.8594H179.709V35.9109H179.192C178.444 35.9109 178.07 36.1877 178.07 36.7413C178.108 37.2593 178.214 37.7697 178.385 38.2591L178.529 38.7462L182.571 50.5455L186.347 39.1833C186.54 38.595 186.68 38.1186 186.766 37.7542C186.846 37.4412 186.889 37.1198 186.895 36.7965C186.914 36.6446 186.892 36.4903 186.831 36.3501C186.771 36.2099 186.674 36.0891 186.551 36.0006C186.18 35.8348 185.775 35.7639 185.372 35.7941H185.084V34.8594H190.978V35.8806L190.776 35.9109C190.237 35.935 189.728 36.1683 189.353 36.5628C188.844 37.3318 188.434 38.1637 188.132 39.0383L187.974 39.5004L182.153 56.6H181.233L176.202 42.1354L171.201 56.6H170.308L164.186 39.0091L163.956 38.3946C163.732 37.725 163.391 37.1017 162.95 36.5545C162.573 36.2073 162.103 35.9831 161.599 35.9108H161.341L161.283 34.8594Z" fill="white"/>
<path d="M189.77 55.8981V54.9634H189.999C190.55 54.8896 191.069 54.6568 191.494 54.2926C191.977 53.7034 192.374 53.0464 192.673 52.3419L192.903 51.8652L200.29 34.6539L201.009 34.5371L208.699 52.368L208.944 52.8593C209.15 53.3462 209.46 53.7799 209.853 54.1284C210.246 54.4768 210.711 54.7312 211.213 54.8726L211.501 54.9634H211.616V55.8981H203.884V54.9634H204.056C205.014 54.8236 205.494 54.454 205.494 53.8545C205.471 53.4145 205.384 52.9804 205.236 52.5662L205.065 52.0978L203.541 48.6512H196.102L194.591 52.3889C194.363 52.8601 194.228 53.3728 194.196 53.8973C194.196 54.4303 194.647 54.7857 195.547 54.9634H195.748V55.8981H189.77ZM196.785 47.1313L202.851 47.1302L199.695 39.9877L196.785 47.1313Z" fill="white"/>
<path d="M211.875 55.899V54.9059L212.221 54.8767C212.767 54.8033 213.262 54.5144 213.6 54.0724C213.921 53.4373 214.06 52.7236 214.002 52.0121V38.7461C214.059 38.0363 213.959 37.3226 213.711 36.6567C213.562 36.4537 213.374 36.2832 213.159 36.1551C212.944 36.027 212.706 35.944 212.459 35.9108L211.875 35.794V34.8301H218.73C219.536 34.8301 220.3 34.8349 221.019 34.8447C221.866 34.8766 222.705 35.029 223.511 35.2974C224.484 35.6124 225.339 36.2247 225.958 37.051C226.656 37.9471 227.024 39.0637 226.996 40.2066C226.996 40.5571 226.985 40.8304 226.967 41.0255C226.947 41.2195 226.837 41.755 226.635 42.6319C226.274 43.7084 225.514 44.5993 224.516 45.1157C223.033 45.9648 221.344 46.3702 219.643 46.2851C219.105 46.2851 218.548 46.2559 217.971 46.1975L217.309 46.1099V53.0229C217.29 53.2511 217.317 53.4806 217.388 53.6978C217.459 53.9151 217.572 54.1156 217.721 54.2873C218.155 54.6295 218.678 54.8345 219.226 54.8766H219.551V55.899L211.875 55.899ZM217.309 44.589L218.001 44.6777H218.983C220.169 44.7527 221.339 44.3722 222.262 43.6115C222.654 43.2433 222.962 42.7919 223.164 42.2894C223.366 41.7869 223.457 41.2454 223.431 40.7032C223.404 40.1681 223.337 39.6358 223.23 39.1113C223.131 38.6951 222.951 38.3032 222.701 37.9593C222.45 37.6153 222.133 37.3263 221.77 37.1095C220.685 36.4594 219.432 36.1539 218.175 36.2322H217.309V44.589Z" fill="white"/>
<path d="M56.1034 54.7891C57.2065 55.4422 58.4292 55.8596 59.6965 56.0158L60.559 56.8045C61.742 57.8753 63.0331 58.8159 64.4107 59.6106C65.3392 60.08 66.3635 60.3202 67.4005 60.3116C68.16 60.3122 68.9155 60.199 69.6426 59.9757C70.4176 59.7287 71.1534 59.3692 71.8274 58.9085L72.2297 58.6456L72.4308 58.4996L72.0285 57.711L71.5683 57.9738C70.9055 58.2601 70.1902 58.3995 69.4703 58.3827C68.315 58.3059 67.2066 57.8899 66.2794 57.1852L64.9279 56.2495L64.7555 56.1327L64.5256 56.0158L64.2096 55.8698C65.5714 55.5809 66.868 55.0356 68.0326 54.2623C69.2397 53.4838 70.2649 52.4467 71.0367 51.2235C71.6957 50.2756 72.1601 49.2024 72.4021 48.068C72.536 47.1906 72.6126 46.5769 72.6319 46.2268C72.6509 45.8763 72.6605 45.5352 72.6607 45.2035C72.7106 43.7761 72.4595 42.3543 71.9241 41.0338C71.3886 39.7133 70.5813 38.5246 69.5565 37.5476C67.3476 35.527 64.4473 34.4674 61.4785 34.5965C59.9254 34.5727 58.3856 34.8915 56.9654 35.5311C55.6352 36.1463 54.4494 37.0429 53.4872 38.1609C52.5669 39.1969 51.841 40.3954 51.3456 41.6973C50.8992 42.9021 50.6705 44.1789 50.6703 45.4663C50.5586 47.6499 51.2218 49.8017 52.539 51.5302C53.5346 52.8162 54.7403 53.9185 56.1034 54.7891V54.7891ZM56.247 38.3947C56.8496 37.5849 57.6401 36.9395 58.548 36.5162C59.456 36.093 60.4529 35.9051 61.4497 35.9693C62.4961 35.9445 63.5322 36.1839 64.4653 36.666C65.3984 37.148 66.1994 37.8577 66.7966 38.7316C68.1378 40.5718 68.8086 43.2065 68.8089 46.6357C68.9469 48.7844 68.285 50.9073 66.9546 52.5828C66.3374 53.2738 65.5787 53.8188 64.732 54.1797C63.8852 54.5405 62.971 54.7083 62.0536 54.6712C61.2885 54.6405 60.5256 54.5673 59.7683 54.4521C58.6662 54.3061 57.5116 53.4392 56.3044 51.8514C55.0198 50.0087 54.3819 47.7804 54.4933 45.5246C54.4933 42.3889 55.0779 40.0122 56.247 38.3947Z" fill="white"/>
</g>
<defs>
<clipPath id="clip0_2617_15407">
<rect width="227" height="46" fill="white" transform="translate(0 22)"/>
</clipPath>
</defs>
</svg>
