<svg width="228" height="89" viewBox="0 0 228 89" fill="none" xmlns="http://www.w3.org/2000/svg">
<path d="M108.597 45.9494C109.65 44.3141 110.177 42.4849 110.177 40.4616C110.177 38.6877 109.789 37.0801 108.985 35.5557C108.182 34.0591 106.934 32.8672 105.271 31.9249C103.581 30.9825 101.53 30.5391 99.0351 30.5391H87.4219V61.3875H93.6581V50.3563H97.7324L104.301 61.3875H110.787L103.802 49.4694C105.936 48.7488 107.516 47.5847 108.597 45.9494ZM102.472 44.1756C101.28 44.8962 99.8388 45.3397 98.1204 45.3397H93.7135V35.9715H98.1204C99.8388 35.9715 101.308 36.2487 102.5 36.9416C103.691 37.6345 104.273 38.8263 104.273 40.5447C104.273 42.2631 103.664 43.4549 102.472 44.1756Z" fill="white"/>
<path d="M123.093 30.5391L111.951 61.3598H118.132L120.599 53.8486H131.186L133.709 61.3598H139.889L128.803 30.5391H123.093ZM122.151 49.0814L125.726 38.0502H126.003L129.662 49.0814H122.151Z" fill="white"/>
<path d="M160.234 49.4971H160.123L153.277 30.5391H144.103V61.3598H150.145V39.2975H150.394L158.21 61.3598H162.174L169.962 39.2975H170.128V61.3598H176.17V30.5391H167.107L160.234 49.4971Z" fill="white"/>
<path d="M203.831 35.8887C203.027 34.2812 201.808 33.0062 200.117 31.9807C198.426 30.9552 196.375 30.5117 193.881 30.5117H182.406V61.3324H188.448V51.5485H193.881C196.375 51.5485 198.482 51.0496 200.145 50.0795C201.835 49.1095 203.055 47.8345 203.831 46.2547C204.607 44.6748 204.995 42.9564 204.995 41.0994C205.051 39.2701 204.635 37.524 203.831 35.8887ZM197.345 45.3123C196.154 46.1438 194.712 46.5873 192.966 46.5873H188.448V35.9719H192.966C194.74 35.9719 196.181 36.3045 197.373 37.1082C198.537 37.8843 199.119 39.2424 199.119 41.1826C199.119 43.095 198.537 44.4808 197.345 45.3123Z" fill="white"/>
<path d="M59.5389 50.4428L50.8082 55.5426L42.0498 50.4428V40.2154L50.8082 35.0879L59.5389 40.2154V50.4428Z" fill="#DADADA"/>
<path d="M50.8918 12.3047L22.4824 28.8237V61.8063L50.9195 78.3253L79.3566 61.8063V28.8237L50.8918 12.3047ZM37.0613 53.2973V37.2218L50.8087 29.2117L64.556 37.2218V53.2973L50.8087 61.3074L37.0613 53.2973ZM37.0613 62.5824V57.0114L55.659 67.8762L50.9195 70.6479L37.0613 62.5824ZM72.677 57.9814L58.8187 66.0469L53.9129 63.1644L67.688 55.0989V35.4479L50.8087 25.6086L33.9293 35.4479V36.1686V55.1266V60.7808L29.1344 57.9814V32.6486L50.8918 20.0099L72.6492 32.6486V57.9814H72.677Z" fill="white"/>
</svg>
