<svg width="228" height="89" viewBox="0 0 228 89" fill="none" xmlns="http://www.w3.org/2000/svg">
<g clip-path="url(#clip0_2762_14290)">
<path d="M122.316 45.1505C122.316 40.5339 122.316 35.9171 122.316 31.3003C122.316 30.531 122.471 30.2617 123.281 30.2617C126.907 30.3002 130.534 30.3002 134.16 30.2617C137.516 30.2617 140.487 31.2619 142.995 33.4549C145.078 35.3016 146.274 37.7254 146.891 40.38C147.701 44.1119 147.701 47.8821 146.351 51.4985C144.576 56.3076 141.104 59.1931 135.935 59.7318C131.614 60.1933 127.293 59.8086 122.934 59.924C122.162 59.9626 122.316 59.4624 122.316 59.0392C122.316 54.4226 122.316 49.7673 122.316 45.1505ZM131.691 36.1096C130.804 36.1096 130.071 36.148 129.338 36.1096C128.836 36.0711 128.759 36.2633 128.759 36.7251C128.759 42.3036 128.759 47.8437 128.759 53.4222C128.759 53.8839 128.913 54.0377 129.376 53.9993C130.765 53.9608 132.154 54.0377 133.504 53.9608C137.092 53.7684 139.407 51.7294 140.024 48.3054C140.41 46.1124 140.41 43.9195 140.024 41.7265C139.445 38.5718 137.632 36.802 134.469 36.2249C133.504 36.0711 132.54 36.148 131.691 36.1096Z" fill="white"/>
<path d="M81.7907 49.623C80.942 49.623 80.0548 49.623 79.2061 49.5845C78.6274 49.5461 78.5116 49.8154 78.5503 50.3156C78.5888 53.2782 78.5501 56.2024 78.5888 59.165C78.5888 59.8576 78.396 60.0116 77.7402 60.0116C76.0814 59.9731 74.384 59.9731 72.7253 60.0116C72.2238 60.0116 71.9922 59.9731 71.9922 59.3574C72.0309 49.8923 71.9922 40.4271 71.9922 31.0006C71.9922 30.5002 72.1465 30.3465 72.648 30.3465C76.5829 30.3849 80.479 30.2309 84.4139 30.4234C89.0817 30.6542 92.9778 33.0013 93.9036 38.2724C94.5981 42.0047 93.5179 46.1602 89.1202 48.3917C88.4644 48.7381 88.4644 48.9688 88.773 49.5076C90.7017 52.8549 92.5921 56.2024 94.4823 59.5498C94.5594 59.6652 94.5981 59.7807 94.6752 60.05C92.3991 60.05 90.2388 60.0885 88.04 60.0116C87.4229 59.9731 87.3071 59.2421 87.037 58.7804C85.5325 56.1255 84.028 53.4706 82.5235 50.8157C82.3307 50.508 82.1764 50.1616 81.9835 49.8154C81.9835 49.623 81.9064 49.5845 81.7907 49.623ZM78.5116 40.1578C78.5116 41.3121 78.5116 42.4665 78.5116 43.6206C78.5116 43.8901 78.4345 44.2363 78.8975 44.1979C80.7877 44.1208 82.6779 44.4287 84.5295 43.8901C85.7254 43.5437 86.8056 43.0051 87.3071 41.7354C88.2715 39.3499 87.23 37.1952 84.7996 36.4257C82.8709 35.81 80.8647 36.1564 78.8588 36.0793C78.396 36.0793 78.4731 36.4257 78.4731 36.695C78.5116 37.8493 78.5116 39.0035 78.5116 40.1578Z" fill="white"/>
<path d="M98.2979 45.1223C98.2979 40.5013 98.2979 35.88 98.2979 31.259C98.2979 30.5658 98.4136 30.2577 99.2243 30.2962C105.324 30.3348 111.423 30.3348 117.561 30.2962C118.256 30.2962 118.526 30.4117 118.487 31.1819C118.41 32.4913 118.41 33.8006 118.487 35.1098C118.526 35.8416 118.333 36.0726 117.561 36.0726C113.701 36.0342 109.84 36.0726 105.98 36.0342C105.169 36.0342 104.976 36.2652 104.976 37.0354C105.053 38.4988 105.015 40.0005 104.976 41.4639C104.938 42.157 105.131 42.3881 105.864 42.3881C109.03 42.3496 112.156 42.3881 115.322 42.3496C116.094 42.3496 116.403 42.4651 116.364 43.3124C116.287 44.4292 116.287 45.546 116.364 46.6627C116.403 47.3172 116.171 47.4714 115.553 47.4328C112.349 47.3943 109.107 47.4328 105.903 47.3943C105.169 47.3943 104.976 47.5483 104.976 48.28C105.015 49.936 105.015 51.6304 104.976 53.2863C104.938 53.9794 105.169 54.1334 105.825 54.1334C109.763 54.0949 113.662 54.1334 117.599 54.0949C118.256 54.0949 118.487 54.2105 118.487 54.9036C118.41 56.3285 118.449 57.7147 118.487 59.1396C118.487 59.6402 118.41 59.8712 117.831 59.8712C111.577 59.8328 105.285 59.8328 99.0313 59.8712C98.2979 59.8712 98.3749 59.5246 98.3749 59.0626C98.3364 54.48 98.2979 49.8204 98.2979 45.1223Z" fill="white"/>
<path d="M210.056 45.1289C210.056 40.4737 210.056 35.8186 210.056 31.2019C210.056 30.5479 210.211 30.3555 210.905 30.3555C216.345 30.3939 221.784 30.3939 227.185 30.3555C227.879 30.3555 228.034 30.5863 227.995 31.2019C227.955 33.0486 227.995 33.0486 226.104 33.0486C222.054 33.0486 218.004 33.0871 213.953 33.0102C213.143 33.0102 212.95 33.2408 212.95 34.0103C212.989 36.9342 212.989 39.8582 212.95 42.7436C212.95 43.4362 213.143 43.5899 213.799 43.5899C217.617 43.5515 221.437 43.5899 225.256 43.5515C225.95 43.5515 226.259 43.6284 226.22 44.4363C226.143 45.9753 226.22 45.9753 224.639 45.9753C221.089 45.9753 217.503 46.0138 213.953 45.9753C213.182 45.9753 212.911 46.0907 212.911 46.9371C212.95 50.0918 212.95 53.2851 212.911 56.4398C212.911 57.0553 213.066 57.2477 213.722 57.2477C218.158 57.2093 222.594 57.2477 227.03 57.2093C227.763 57.2093 227.955 57.3631 227.918 58.0941C227.879 59.9022 227.918 59.9022 226.143 59.9022C221.051 59.9022 215.92 59.9022 210.829 59.9022C210.135 59.9022 209.979 59.71 209.979 59.0558C210.095 54.4777 210.056 49.784 210.056 45.1289Z" fill="white"/>
<path d="M176.032 30.3555C173.986 32.5102 172.094 34.5493 170.202 36.5502C168.271 38.5894 166.341 40.6672 164.41 42.7064C164.14 43.0143 164.024 43.2067 164.333 43.5914C167.036 47.0159 169.7 50.4403 172.364 53.9031C173.909 55.904 175.492 57.9047 177.152 60.0209C175.955 60.0209 174.951 59.9825 173.947 60.0209C173.407 60.0209 173.252 59.5977 173.059 59.2899C170.82 56.4426 168.619 53.5953 166.379 50.748C165.144 49.132 163.908 47.5545 162.672 45.9385C162.364 45.5536 162.093 45.4767 161.785 45.9C161.785 45.9385 161.746 45.9385 161.707 45.9769C160.24 47.0928 159.738 48.478 159.854 50.3632C160.047 53.326 159.892 56.3271 159.931 59.2899C159.931 59.867 159.815 60.0594 159.198 60.0594C156.997 60.0594 156.997 60.0978 156.997 57.9047C156.997 49.0551 156.997 40.2055 156.958 31.3558C156.958 30.5479 157.151 30.3555 157.962 30.3939C159.892 30.4708 159.892 30.3939 159.892 32.3562C159.892 36.1654 159.892 39.9746 159.892 44.0147C160.858 43.1296 161.63 42.2062 162.402 41.3598C163.406 40.2439 164.449 39.0896 165.453 37.9739C167.538 35.6268 169.623 33.3181 171.708 30.9712C172.017 30.6248 172.364 30.4324 172.866 30.4324C173.793 30.3555 174.797 30.3555 176.032 30.3555Z" fill="white"/>
<path d="M195.577 46.4255C195.577 42.235 195.577 38.0445 195.577 33.8539C195.577 33.2004 195.461 32.9698 194.767 33.0082C192.295 33.0467 189.824 33.0082 187.353 33.0467C186.734 33.0467 186.541 32.8929 186.541 32.2392C186.541 30.3555 186.541 30.3555 188.434 30.3555C194.496 30.3555 200.597 30.3555 206.661 30.3555C207.395 30.3555 207.587 30.5093 207.55 31.2398C207.511 33.0467 207.55 33.0467 205.734 33.0467C203.611 33.0467 201.486 33.0851 199.363 33.0082C198.59 32.9698 198.474 33.2389 198.474 33.9308C198.512 42.2735 198.474 50.6544 198.512 58.9971C198.512 59.8043 198.319 59.9966 197.509 59.9966C195.54 59.9197 195.54 59.9966 195.54 57.9974C195.577 54.1146 195.577 50.2699 195.577 46.4255Z" fill="white"/>
<path d="M180.649 45.0714C180.649 40.4146 180.649 35.7964 180.649 31.1395C180.649 30.4468 180.842 30.293 181.502 30.293C183.634 30.3314 183.634 30.293 183.634 32.4096C183.634 41.2998 183.634 50.1515 183.673 59.0418C183.673 59.8114 183.479 59.9654 182.705 59.9654C180.649 59.9269 180.649 59.9654 180.649 57.9257C180.649 53.6537 180.649 49.3819 180.649 45.0714Z" fill="white"/>
<path d="M3.07811 73.1419C3.7711 72.724 4.41572 72.3222 5.07648 71.9363C6.88144 70.8754 8.70252 69.8306 10.5075 68.7697C12.3447 67.6928 14.1819 66.6319 16.003 65.5388C17.2439 64.7834 17.1311 62.8866 15.8741 62.1793C14.9716 61.681 14.0369 61.2469 13.1344 60.7647C11.1199 59.7198 9.12153 58.6589 7.10705 57.6143C6.88144 57.5016 6.84921 57.3088 6.81697 57.1481C6.73638 56.6337 6.70416 56.1192 6.63971 55.6048C6.57523 55.0261 6.49466 54.4637 6.43021 53.901C6.36575 53.3866 6.30127 52.8722 6.2368 52.3579C6.17234 51.7792 6.12399 51.2166 6.04343 50.6379C5.97895 50.1235 5.83391 49.6091 5.83391 49.0948C5.83391 48.7251 5.57606 48.3714 5.80169 47.9695C6.22069 48.2589 6.67194 48.5644 7.10705 48.8859C10.4753 51.297 13.8596 53.692 17.2278 56.1032C19.0649 57.4213 20.9021 58.7234 22.7233 60.0575C23.0457 60.2987 23.2551 60.2665 23.4808 60.0093C23.5452 59.945 23.6096 59.8807 23.6742 59.8163C23.5775 59.736 23.4646 59.6718 23.3841 59.5753C22.546 58.6589 21.5952 57.8553 20.7088 56.9873C19.758 56.071 18.7911 55.1869 17.8402 54.2707C17.0666 53.5153 16.277 52.7759 15.4873 52.0365C14.6492 51.2488 13.8112 50.445 12.9732 49.6573C12.1997 48.9341 11.41 48.2107 10.6687 47.4553C9.52442 46.3139 8.2835 45.2531 7.13929 44.1117C6.70416 43.6778 6.26904 43.2438 5.80169 42.8579C5.35044 42.4882 5.25374 41.9738 5.17317 41.4433C5.04424 40.6719 4.91531 39.8842 4.80249 39.1126C4.68968 38.4214 4.57688 37.7142 4.46407 37.0229C4.33514 36.2514 4.22234 35.4958 4.09342 34.7244C3.9806 34.001 3.86778 33.2776 3.73886 32.5544C3.64217 31.9757 3.51325 31.397 3.4649 30.7701C5.20539 32.5544 6.91368 34.3064 8.62195 36.0745C13.4406 41.0576 18.2593 46.0407 23.0778 51.0076C24.7216 52.7114 26.3654 54.4154 28.0254 56.1192C28.1221 56.2317 28.2188 56.4569 28.396 56.3765C28.6217 56.264 28.8151 56.087 28.9924 55.9103C29.0729 55.8138 28.9118 55.7013 28.8311 55.621C27.4774 53.9653 26.1237 52.3257 24.7699 50.6861C18.9845 43.6455 13.1988 36.6051 7.41326 29.5645C6.63971 28.6161 5.83391 27.6837 5.04422 26.7514C4.41571 25.9959 3.78721 25.2405 3.1748 24.4689C2.88472 24.0992 2.91695 23.633 2.83637 23.199C2.65911 22.2667 2.51405 21.3183 2.36901 20.3699C2.2562 19.6305 2.1434 18.8911 2.03059 18.1517C1.91777 17.4123 1.80496 16.6728 1.67605 15.9334C1.54712 15.1779 1.4343 14.4385 1.30537 13.683C1.17645 12.9114 1.0314 12.1399 0.918592 11.3522C0.805782 10.6128 0.709091 9.87339 0.580165 9.13397C0.435123 8.21774 0.257845 7.3015 0.112803 6.38526C0.0483396 5.99948 0 5.61369 0 5.17969C0.273969 5.59761 0.564045 6.01556 0.838014 6.43348C2.53018 9.03753 4.20623 11.6576 5.89838 14.2617C8.81534 18.7786 11.7484 23.2793 14.6815 27.7802C16.696 30.8826 18.6944 33.9849 20.7088 37.0711C23.5612 41.4755 26.4137 45.88 29.2662 50.2842C29.8626 51.2006 30.4589 52.1328 31.0551 53.0491C32.4572 55.1869 35.5354 55.6693 37.5337 54.0778C37.84 53.8367 38.1622 53.5956 38.3556 53.2419C38.5489 52.9204 38.839 53.0491 39.0808 53.0973C41.6271 53.5635 44.0122 54.4797 46.2845 55.6853C46.3652 55.7335 46.4456 55.7818 46.5423 55.8138C46.5907 55.83 46.6553 55.8138 46.6874 55.7818C46.7357 55.7495 46.7036 55.6853 46.6553 55.6531C46.2201 55.2191 45.93 54.6726 45.3982 54.2867C44.9631 53.9653 44.6084 53.5153 44.1089 53.2098C44.3346 53.0973 44.4796 53.2741 44.6247 53.3383C46.2524 54.0778 47.8317 54.8654 49.0566 56.2157C49.6689 56.9069 50.0717 57.6785 49.8139 58.6429C49.7816 58.7394 49.7495 58.8841 49.6849 58.9162C49.5561 58.9644 49.5561 58.8037 49.4915 58.7234C48.5729 57.7268 47.2838 57.2444 45.93 58.016C44.544 58.8037 43.0453 59.4146 41.6109 60.1218C40.1444 60.8451 38.6456 61.5685 37.2115 62.3722C36.1478 62.9669 35.0356 63.4653 33.9559 64.0118C32.7312 64.6227 31.4902 65.2174 30.2978 65.8763C29.0407 66.5515 27.7514 67.1463 26.4944 67.8053C24.0931 69.0591 21.6596 70.2485 19.2423 71.5186C17.9046 72.2097 16.5187 72.8044 15.2455 73.5921C15.1005 73.6724 14.9716 73.6563 14.8265 73.6563C13.7468 73.7206 12.667 73.6081 11.5873 73.5599C10.6042 73.5116 9.62112 73.4956 8.63806 73.4474C7.62276 73.3991 6.59136 73.3349 5.55995 73.3188C4.86696 73.3188 4.15788 73.2706 3.44878 73.2546C3.40043 73.2546 3.25539 73.1902 3.07811 73.1419Z" fill="white"/>
</g>
<defs>
<clipPath id="clip0_2762_14290">
<rect width="228" height="89" fill="white"/>
</clipPath>
</defs>
</svg>
