<svg width="227" height="88" viewBox="0 0 227 88" fill="none" xmlns="http://www.w3.org/2000/svg">
<g clip-path="url(#clip0_2790_14347)">
<path fill-rule="evenodd" clip-rule="evenodd" d="M133.401 55.0369C132.013 54.4625 130.904 53.6125 130.073 52.4868C129.242 51.3611 128.804 50.0056 128.759 48.4204H134.971C135.062 49.3164 135.37 49.9999 135.893 50.4708C136.416 50.9418 137.099 51.1773 137.941 51.1773C138.806 51.1773 139.489 50.9762 139.989 50.5742C140.49 50.1722 140.74 49.615 140.74 48.9029C140.74 48.3055 140.541 47.8116 140.143 47.421C139.745 47.0305 139.255 46.7089 138.675 46.4561C138.095 46.2034 137.27 45.9163 136.2 45.5946C134.653 45.1122 133.39 44.6297 132.411 44.1473C131.433 43.6648 130.591 42.9526 129.885 42.0107C129.18 41.0688 128.827 39.8397 128.827 38.3234C128.827 36.0719 129.635 34.3087 131.251 33.0337C132.866 31.7586 134.971 31.1211 137.566 31.1211C140.205 31.1211 142.333 31.7586 143.949 33.0337C145.565 34.3087 146.429 36.0834 146.543 38.3579H140.228C140.183 37.5767 139.898 36.9622 139.375 36.5142C138.851 36.0662 138.18 35.8422 137.361 35.8422C136.655 35.8422 136.086 36.0318 135.654 36.4108C135.222 36.7899 135.006 37.3355 135.006 38.0477C135.006 38.8288 135.37 39.4376 136.098 39.8741C136.826 40.3106 137.964 40.7816 139.511 41.287C141.059 41.8154 142.316 42.3208 143.283 42.8033C144.25 43.2858 145.087 43.9864 145.792 44.9054C146.498 45.8244 146.85 47.0075 146.85 48.4549C146.85 49.8333 146.503 51.0854 145.809 52.2111C145.115 53.3368 144.108 54.2328 142.788 54.899C141.468 55.5653 139.91 55.8984 138.112 55.8984C136.36 55.8984 134.789 55.6112 133.401 55.0369ZM161.051 50.6604V55.6572H158.081C155.965 55.6572 154.315 55.1345 153.131 54.0892C151.948 53.0439 151.356 51.3381 151.356 48.9718V41.3215H149.035V36.4281H151.356V31.7414H157.193V36.4281H161.017V41.3215H157.193V49.0407C157.193 49.615 157.33 50.0286 157.603 50.2813C157.876 50.534 158.331 50.6604 158.968 50.6604H161.051ZM167.929 54.7267C166.438 53.9226 165.266 52.774 164.413 51.2806C163.56 49.7873 163.133 48.0413 163.133 46.0426C163.133 44.0668 163.565 42.3266 164.43 40.8218C165.295 39.317 166.478 38.1626 167.98 37.3585C169.482 36.5544 171.166 36.1524 173.032 36.1524C174.898 36.1524 176.582 36.5544 178.084 37.3585C179.586 38.1626 180.769 39.317 181.634 40.8218C182.499 42.3266 182.931 44.0668 182.931 46.0426C182.931 48.0184 182.493 49.7586 181.617 51.2634C180.741 52.7682 179.546 53.9226 178.033 54.7267C176.52 55.5308 174.83 55.9329 172.964 55.9329C171.098 55.9329 169.42 55.5308 167.929 54.7267ZM175.814 49.5921C176.599 48.765 176.992 47.5819 176.992 46.0426C176.992 44.5034 176.611 43.3202 175.848 42.4932C175.086 41.6661 174.147 41.2526 173.032 41.2526C171.894 41.2526 170.95 41.6603 170.199 42.4759C169.448 43.2915 169.072 44.4804 169.072 46.0426C169.072 47.5819 169.442 48.765 170.182 49.5921C170.921 50.4191 171.849 50.8327 172.964 50.8327C174.079 50.8327 175.029 50.4191 175.814 49.5921ZM202.986 38.4095C204.317 39.8684 204.983 41.8728 204.983 44.423V55.6572H199.18V45.2156C199.18 43.929 198.85 42.9297 198.19 42.2175C197.53 41.5053 196.642 41.1492 195.527 41.1492C194.412 41.1492 193.525 41.5053 192.865 42.2175C192.205 42.9297 191.875 43.929 191.875 45.2156V55.6572H186.038V36.4281H191.875V38.9782C192.466 38.1281 193.263 37.4561 194.264 36.9622C195.266 36.4683 196.392 36.2213 197.644 36.2213C199.874 36.2213 201.655 36.9507 202.986 38.4095ZM226.898 47.4555H213.687C213.778 48.6501 214.159 49.5633 214.831 50.1951C215.502 50.8269 216.327 51.1428 217.306 51.1428C218.762 51.1428 219.775 50.5225 220.344 49.2819H226.556C226.238 50.5455 225.663 51.6827 224.832 52.6935C224.002 53.7044 222.961 54.497 221.709 55.0713C220.457 55.6457 219.058 55.9329 217.51 55.9329C215.644 55.9329 213.983 55.5308 212.527 54.7267C211.07 53.9226 209.932 52.774 209.113 51.2806C208.294 49.7873 207.884 48.0413 207.884 46.0426C207.884 44.0439 208.288 42.2979 209.096 40.8046C209.904 39.3113 211.036 38.1626 212.492 37.3585C213.949 36.5544 215.622 36.1524 217.51 36.1524C219.354 36.1524 220.992 36.5429 222.426 37.324C223.86 38.1051 224.98 39.2194 225.788 40.6667C226.596 42.1141 227 43.8027 227 45.7325C227 46.2838 226.966 46.8582 226.898 47.4555ZM221.026 44.1817C221.026 43.1709 220.685 42.3668 220.002 41.7695C219.32 41.1722 218.466 40.8735 217.442 40.8735C216.464 40.8735 215.639 41.1607 214.967 41.735C214.296 42.3094 213.881 43.1249 213.721 44.1817H221.026Z" fill="white"/>
<path fill-rule="evenodd" clip-rule="evenodd" d="M74.9057 55.5963L69.9304 46.4831H68.5332V55.5963H62.7061V31.4551H72.4862C74.3718 31.4551 75.9791 31.7875 77.3081 32.4524C78.6371 33.1172 79.631 34.0285 80.2898 35.1863C80.9487 36.3441 81.2781 37.6337 81.2781 39.0551C81.2781 40.6599 80.8294 42.0928 79.932 43.3537C79.0346 44.6147 77.7113 45.5088 75.962 46.0361L81.4825 55.5963H74.9057ZM68.5332 42.322H72.1454C73.2132 42.322 74.014 42.0584 74.5478 41.5311C75.0817 41.0038 75.3487 40.2587 75.3487 39.2958C75.3487 38.3788 75.0817 37.6566 74.5478 37.1293C74.014 36.602 73.2132 36.3383 72.1454 36.3383H68.5332V42.322Z" fill="white"/>
<path fill-rule="evenodd" clip-rule="evenodd" d="M102.838 47.4546H89.6309C89.7219 48.6493 90.103 49.5626 90.7742 50.1945C91.4454 50.8263 92.2701 51.1422 93.2485 51.1422C94.7046 51.1422 95.7171 50.5219 96.2859 49.2812H102.497C102.179 50.5449 101.604 51.6822 100.774 52.6931C99.9433 53.7041 98.9024 54.4967 97.651 55.0711C96.3996 55.6455 95.0004 55.9327 93.4532 55.9327C91.5876 55.9327 89.9267 55.5307 88.4705 54.7265C87.0144 53.9223 85.8768 52.7735 85.0577 51.2801C84.2386 49.7866 83.8291 48.0405 83.8291 46.0416C83.8291 44.0426 84.233 42.2965 85.0407 40.803C85.8484 39.3096 86.9803 38.1608 88.4364 37.3566C89.8925 36.5525 91.5648 36.1504 93.4532 36.1504C95.2962 36.1504 96.9343 36.541 98.3677 37.3222C99.8011 38.1034 100.922 39.2177 101.729 40.6652C102.537 42.1127 102.941 43.8014 102.941 45.7314C102.941 46.2828 102.907 46.8572 102.838 47.4546ZM96.9684 44.1805C96.9684 43.1696 96.6272 42.3654 95.9446 41.768C95.262 41.1706 94.4088 40.872 93.385 40.872C92.4066 40.872 91.5819 41.1592 90.9107 41.7336C90.2395 42.308 89.8243 43.1236 89.665 44.1805H96.9684Z" fill="white"/>
<path fill-rule="evenodd" clip-rule="evenodd" d="M106.063 40.642C106.803 39.1658 107.811 38.0302 109.086 37.2353C110.361 36.4404 111.784 36.0429 113.355 36.0429C114.608 36.0429 115.752 36.3041 116.788 36.8265C117.824 37.3489 118.638 38.0529 119.23 38.9387V30.1152H125.071V55.325H119.23V52.5997C118.684 53.5081 117.904 54.2349 116.891 54.78C115.877 55.325 114.699 55.5976 113.355 55.5976C111.784 55.5976 110.361 55.1945 109.086 54.3882C107.811 53.5819 106.803 52.435 106.063 50.9474C105.323 49.4598 104.953 47.7394 104.953 45.7862C104.953 43.833 105.323 42.1183 106.063 40.642ZM118.018 42.3795C117.209 41.5391 116.224 41.119 115.063 41.119C113.902 41.119 112.917 41.5335 112.109 42.3624C111.3 43.1914 110.896 44.3327 110.896 45.7862C110.896 47.2397 111.3 48.3923 112.109 49.244C112.917 50.0957 113.902 50.5216 115.063 50.5216C116.224 50.5216 117.209 50.1014 118.018 49.2611C118.826 48.4207 119.23 47.2738 119.23 45.8203C119.23 44.3667 118.826 43.2198 118.018 42.3795Z" fill="white"/>
<path fill-rule="evenodd" clip-rule="evenodd" d="M38.9988 42.755L32.7686 32.4518L35.9956 27.171L45.4189 42.755H38.9988ZM17.7915 57.2351H30.3874L33.5317 62.389H14.7037L17.7915 57.2351ZM30.3828 31.0574H17.7763L14.695 25.8914H33.5396L30.3828 31.0574ZM30.3733 54.4628H17.7728L11.5343 44.1463L17.7728 33.8297H30.3733L36.6115 44.1463L30.3733 54.4628ZM12.248 27.1821L15.3844 32.4403L9.14906 42.7518H2.83345L12.248 27.1821ZM2.83057 45.524H9.13878L15.3918 55.8647L12.2524 61.1054L2.83057 45.524ZM35.9914 61.1162L32.7709 55.8371L39.0051 45.5273H45.4178L35.9914 61.1162ZM37.1771 23.7856C36.9268 23.3718 36.4798 23.1191 35.998 23.1191H12.2524C11.7704 23.1191 11.3234 23.3718 11.0733 23.7856L-0.799388 43.4205C-1.06679 43.8627 -1.06691 44.4176 -0.799513 44.8598L11.0733 64.4947C11.3234 64.9086 11.7704 65.1613 12.2524 65.1613H35.998C36.4798 65.1613 36.9268 64.9086 37.1771 64.4947L49.0499 44.8598C49.3174 44.4176 49.3174 43.8627 49.0499 43.4205L37.1771 23.7856Z" fill="white"/>
<path fill-rule="evenodd" clip-rule="evenodd" d="M31.2132 46.3051C30.5696 45.8957 29.7171 46.0876 29.3094 46.7344L26.8676 50.6078C26.4599 51.2545 26.6512 52.1109 27.2949 52.5206C27.5239 52.6662 27.7794 52.7358 28.0319 52.7358C28.4888 52.7358 28.936 52.5078 29.1987 52.0912L31.6405 48.2178C32.0482 47.5711 31.8568 46.7147 31.2132 46.3051Z" fill="white"/>
<path fill-rule="evenodd" clip-rule="evenodd" d="M33.2219 42.7385C32.5654 42.3504 31.7195 42.5705 31.3332 43.2304L31.1536 43.5373C30.7673 44.1971 30.9865 45.0466 31.6433 45.4347C31.863 45.5646 32.1038 45.6264 32.3414 45.6264C32.8143 45.6264 33.2748 45.3819 33.5319 44.9428L33.7115 44.6361C34.0978 43.9762 33.8786 43.1267 33.2219 42.7385Z" fill="white"/>
</g>
<defs>
<clipPath id="clip0_2790_14347">
<rect width="227" height="88" fill="white"/>
</clipPath>
</defs>
</svg>
