<svg width="227" height="89" viewBox="0 0 227 89" fill="none" xmlns="http://www.w3.org/2000/svg">
<g clip-path="url(#clip0_2038_11760)">
<path d="M28.8151 17.0544C8.17067 29.705 1.58998 41.9855 0.0015351 70.9768C-0.0420254 71.7719 0.850577 72.2795 1.52013 71.8445C12.7746 64.5333 19.2545 62.9733 29.0855 65.0743C29.6997 65.2056 30.2882 64.745 30.2882 64.1191V17.8728C30.2882 17.1204 29.4587 16.6602 28.8151 17.0544Z" fill="white"/>
<path d="M34.6152 25.0274V66.2086C34.6152 66.6259 34.8897 66.9981 35.2891 67.126C48.2509 71.2797 55.2808 70.7594 65.9409 64.8772C66.5221 64.5564 66.599 63.7565 66.1018 63.3179C51.8418 50.7372 44.1704 42.0556 36.5556 24.6478C36.1291 23.6727 34.6152 23.9641 34.6152 25.0274Z" fill="white"/>
<path d="M87.8812 44.5678H85.8224V51.6196H81.9199V32.7121H89.6942C91.7223 32.7121 93.3305 33.2356 94.5186 34.2826C95.7067 35.3296 96.3009 36.8077 96.3009 38.7169C96.3009 40.195 95.9218 41.4165 95.1639 42.3814C94.406 43.3257 93.3509 43.9622 91.9989 44.2906L96.9769 51.6196H92.552L87.8812 44.5678ZM85.8224 36.0686V41.3344H89.4484C90.4113 41.3344 91.1488 41.0984 91.6608 40.6262C92.1729 40.1539 92.4291 39.5176 92.4291 38.7169C92.4291 37.8958 92.1729 37.2491 91.6608 36.7769C91.1488 36.3047 90.4113 36.0686 89.4484 36.0686H85.8224ZM102.891 37.8547V51.6196H99.081V37.8547H102.891ZM103.229 33.8823C103.229 34.5186 103.004 35.0421 102.553 35.4528C102.123 35.8634 101.601 36.0686 100.986 36.0686C100.351 36.0686 99.8083 35.8634 99.3575 35.4528C98.9273 35.0421 98.7122 34.5186 98.7122 33.8823C98.7122 33.2664 98.9376 32.7532 99.3883 32.3426C99.8391 31.9115 100.372 31.6959 100.986 31.6959C101.601 31.6959 102.123 31.9115 102.553 32.3426C103.004 32.7532 103.229 33.2664 103.229 33.8823ZM105.332 47.524H109.111C109.419 48.5299 110.187 49.0329 111.416 49.0329C112.707 49.0329 113.352 48.5813 113.352 47.678C113.352 47.37 113.239 47.134 113.014 46.9697C112.809 46.785 112.461 46.631 111.969 46.5078L109.204 45.8919C106.827 45.3376 105.639 44.0443 105.639 42.0119C105.639 40.6981 106.161 39.6304 107.206 38.8093C108.251 37.9675 109.552 37.5468 111.109 37.5468C112.809 37.5468 114.141 37.9266 115.103 38.6861C116.087 39.4252 116.701 40.4619 116.947 41.7963H113.321C113.035 40.893 112.317 40.4414 111.17 40.4414C110.679 40.4414 110.248 40.5542 109.88 40.7801C109.532 41.006 109.357 41.3241 109.357 41.7347C109.357 42.2479 109.767 42.6073 110.586 42.8125L113.413 43.4592C115.851 44.0546 117.07 45.3889 117.07 47.4624C117.07 48.8378 116.538 49.9259 115.472 50.7266C114.427 51.5272 113.086 51.9276 111.447 51.9276C109.747 51.9276 108.354 51.5477 107.268 50.7882C106.182 50.008 105.537 48.9201 105.332 47.524ZM128.579 51.6196L124.553 46.0767L123.447 47.2777V51.6196H119.637V31.6035H123.447V42.9665L128.149 37.8547H132.881L127.319 43.7056L133.096 51.6196H128.579ZM154.112 32.7121H158.045V51.6196H154.112V43.6748H145.57V51.6196H141.636V32.7121H145.57V40.2258H154.112V32.7121ZM172.806 51.6196H169.149V50.8806C168.903 51.1269 168.463 51.3528 167.828 51.558C167.193 51.7633 166.516 51.866 165.8 51.866C164.345 51.866 163.126 51.4656 162.143 50.665C161.18 49.8644 160.699 48.7762 160.699 47.4008C160.699 46.1075 161.2 45.0502 162.204 44.2291C163.229 43.4079 164.499 42.9973 166.015 42.9973C166.588 42.9973 167.182 43.0794 167.797 43.2436C168.412 43.4079 168.862 43.5927 169.149 43.7979V42.7817C169.149 42.1659 168.954 41.6628 168.565 41.2728C168.196 40.8622 167.643 40.657 166.906 40.657C165.882 40.657 165.205 41.0881 164.878 41.9503H161.252C161.457 40.6774 162.081 39.6304 163.126 38.8093C164.191 37.9675 165.492 37.5468 167.029 37.5468C168.852 37.5468 170.265 38.019 171.269 38.9633C172.293 39.8871 172.806 41.1805 172.806 42.8433V51.6196ZM169.149 47.8627V46.8773C168.985 46.5078 168.667 46.2203 168.196 46.0151C167.746 45.7892 167.234 45.6764 166.66 45.6764C166.004 45.6764 165.431 45.82 164.939 46.1075C164.468 46.395 164.232 46.8158 164.232 47.37C164.232 47.9243 164.468 48.3451 164.939 48.6326C165.41 48.9201 165.984 49.0637 166.66 49.0637C167.234 49.0637 167.746 48.961 168.196 48.7558C168.667 48.5299 168.985 48.2323 169.149 47.8627ZM184.23 37.7931V41.6116C183.717 41.3036 183.083 41.1497 182.324 41.1497C181.669 41.1497 181.106 41.3241 180.635 41.6732C180.163 42.0016 179.855 42.4738 179.713 43.0897V51.6196H175.902V37.8547H179.713V39.2096C180.369 38.1011 181.392 37.5468 182.786 37.5468C183.461 37.5468 183.943 37.6288 184.23 37.7931ZM190.486 50.4802V51.6196H186.644V31.6035H190.486V38.9941C190.813 38.6041 191.294 38.2653 191.93 37.9779C192.564 37.6904 193.23 37.5468 193.927 37.5468C195.852 37.5468 197.369 38.2345 198.476 39.61C199.602 40.9854 200.165 42.6997 200.165 44.7526C200.165 46.8054 199.602 48.5197 198.476 49.8952C197.369 51.2501 195.852 51.9276 193.927 51.9276C193.23 51.9276 192.564 51.7839 191.93 51.4964C191.294 51.209 190.813 50.8702 190.486 50.4802ZM190.486 42.4738V47.0005C190.712 47.4727 191.049 47.8627 191.5 48.1707C191.971 48.4582 192.493 48.6018 193.067 48.6018C194.071 48.6018 194.87 48.2426 195.463 47.524C196.058 46.8054 196.355 45.8816 196.355 44.7526C196.355 43.6235 196.058 42.6997 195.463 41.9811C194.87 41.242 194.071 40.8725 193.067 40.8725C192.513 40.8725 192.001 41.0265 191.531 41.3344C191.06 41.6219 190.712 42.0016 190.486 42.4738ZM215.328 44.7526C215.328 46.867 214.703 48.5915 213.454 49.9259C212.204 51.2604 210.586 51.9276 208.598 51.9276C206.612 51.9276 204.992 51.2604 203.744 49.9259C202.493 48.5915 201.87 46.867 201.87 44.7526C201.87 42.6174 202.493 40.8828 203.744 39.5484C204.992 38.2139 206.612 37.5468 208.598 37.5468C210.586 37.5468 212.204 38.2139 213.454 39.5484C214.703 40.8828 215.328 42.6174 215.328 44.7526ZM211.548 44.7526C211.548 43.5619 211.282 42.6073 210.749 41.8887C210.238 41.1497 209.52 40.7801 208.598 40.7801C207.676 40.7801 206.95 41.1497 206.417 41.8887C205.905 42.6073 205.65 43.5619 205.65 44.7526C205.65 45.9227 205.905 46.8773 206.417 47.6164C206.95 48.335 207.676 48.6942 208.598 48.6942C209.52 48.6942 210.238 48.335 210.749 47.6164C211.282 46.8773 211.548 45.9227 211.548 44.7526ZM226.092 37.7931V41.6116C225.579 41.3036 224.945 41.1497 224.186 41.1497C223.531 41.1497 222.968 41.3241 222.495 41.6732C222.025 42.0016 221.717 42.4738 221.573 43.0897V51.6196H217.763V37.8547H221.573V39.2096C222.229 38.1011 223.254 37.5468 224.646 37.5468C225.323 37.5468 225.804 37.6288 226.092 37.7931Z" fill="white"/>
</g>
<defs>
<clipPath id="clip0_2038_11760">
<rect width="227" height="89" fill="white"/>
</clipPath>
</defs>
</svg>
