<svg width="227" height="88" viewBox="0 0 227 88" fill="none" xmlns="http://www.w3.org/2000/svg">
<g clip-path="url(#clip0_2617_15687)">
<path d="M43.397 30.4157C46.3104 31.171 49.3316 31.7645 52.0832 33.1672C60.4456 37.4294 64.7078 45.7919 63.5209 55.665C62.4418 64.8907 55.6979 72.5518 46.7959 74.8178C45.7169 75.0875 44.53 74.9796 43.6128 75.8428C31.3658 75.8428 19.1728 75.8428 6.92578 75.8428C9.73126 69.3147 13.1302 63.1103 16.637 56.9598C19.6044 57.7152 22.6257 57.6612 25.6469 57.8231C24.0823 60.8443 22.5178 63.9196 20.8992 67.0488C21.3848 67.1567 21.5466 67.2106 21.7085 67.2106C27.2115 67.2106 32.6606 67.2106 38.1637 67.2106C41.6705 67.2106 44.9076 66.1316 47.767 64.2433C53.1082 60.6825 55.6979 55.2873 54.511 50.2699C52.9464 43.418 47.9289 39.2098 40.8073 38.94C35.7898 38.7782 30.7723 38.8321 25.7009 38.8321C24.6219 38.8321 23.5428 38.7242 23.8126 37.3215C24.2981 35.0555 22.5717 32.4119 24.7837 30.4697C25.1074 30.1999 25.8088 30.4157 26.3483 30.4157C28.7761 30.4157 31.2039 30.3618 33.6318 30.3618C36.9228 30.3618 40.1599 30.4157 43.397 30.4157Z" fill="white"/>
<path d="M43.397 30.4161C40.1599 30.3622 36.9228 30.3622 33.7397 30.3082C35.0345 27.7725 36.2214 25.2368 37.6242 22.755C38.5414 21.1365 38.0018 20.8667 36.3833 20.8667C32.8225 20.9206 29.2078 20.9206 25.647 20.8667C20.7374 20.8667 16.5831 22.755 13.1302 26.1C4.22823 34.6243 10.4326 46.4397 19.0649 48.6517C22.4099 49.5149 25.8088 49.2991 29.2077 49.2991C35.8438 49.3531 35.7898 49.2991 35.574 55.9351C35.5201 57.2839 35.1964 57.8234 33.7397 57.7695C31.0421 57.7155 28.3445 57.7695 25.647 57.8235C22.6257 57.6616 19.6044 57.7155 16.6371 56.9602C8.00483 54.3706 2.23202 49.0294 0.127912 40.1813C0.127912 40.1274 -0.0339392 40.0734 -0.0878906 40.0734C-0.0878906 36.8903 -0.0878906 33.6532 -0.0878906 30.4701C0.66743 30.2003 0.613478 29.445 0.721381 28.9055C3.20315 19.6258 11.5656 12.8819 22.7336 12.3963C32.4988 11.9647 42.318 12.2884 52.5687 12.2884C49.4396 18.4928 46.4183 24.4815 43.397 30.4161Z" fill="white"/>
<path d="M121.249 36.46C119.307 36.46 117.527 36.406 115.746 36.46C114.829 36.46 114.451 36.1363 114.074 35.273C111.646 30.2556 103.499 28.583 99.0212 32.0899C96.1617 34.3559 96.8631 38.4022 100.424 40.0208C103.283 41.3695 106.52 41.4774 109.542 42.1249C111.97 42.6644 114.397 43.3658 116.609 44.5527C122.22 47.574 124.109 54.5337 120.44 59.6051C115.962 65.8096 109.218 66.457 102.312 65.5938C96.2157 64.8384 91.6838 61.5474 89.7415 55.4509C88.6625 52.0519 88.6625 52.2138 92.1154 51.998C94.7051 51.8361 96.1078 52.4296 97.2408 55.0732C99.5607 60.4684 108.409 62.033 113.049 58.2564C116.124 55.7206 115.746 51.6743 112.185 49.6781C109.704 48.2753 106.952 48.0056 104.201 47.52C101.125 46.9805 98.05 46.3331 95.2985 44.7145C88.5546 40.7221 88.2309 31.6043 94.9209 27.558C101.125 23.7814 107.761 23.4577 114.397 26.6408C118.336 28.5291 120.386 31.982 121.249 36.46Z" fill="white"/>
<path d="M197.483 35.7029C194.03 39.3716 190.955 42.7166 187.718 45.8997C186.315 47.2485 186.153 48.1117 187.394 49.7303C191.224 54.6399 194.785 59.7113 198.778 65.1604C196.188 65.1604 193.976 65.1064 191.818 65.1604C190.901 65.1604 190.631 64.5669 190.199 63.9735C187.987 60.9522 185.775 57.9309 183.455 54.9636C182.808 54.1543 182.43 52.212 181.243 52.9134C179.949 53.6687 178.33 54.7478 178.33 56.744C178.33 58.902 178.222 61.0061 178.384 63.1642C178.438 64.6209 178.114 65.1064 176.496 65.1604C171.802 65.1604 171.802 65.2683 171.802 60.6824C171.802 49.7303 171.856 38.7781 171.748 27.826C171.694 25.5061 172.395 24.8047 174.607 25.1824C175.201 25.2903 175.848 25.2903 176.496 25.1824C178.114 24.9666 178.438 25.7219 178.384 27.1246C178.33 33.0593 178.33 39.0479 178.33 45.0365C178.33 45.63 178.33 46.2234 178.33 47.4643C181.405 44.1733 184.211 41.4757 186.693 38.5084C188.527 36.3503 190.469 35.1634 193.329 35.6489C194.569 35.8647 195.756 35.7029 197.483 35.7029Z" fill="white"/>
<path d="M168.835 65.1615C166.353 65.1615 164.249 65.1076 162.145 65.1615C160.85 65.2155 160.472 64.2444 159.933 63.489C157.235 59.8743 154.537 56.2056 151.84 52.5908C148.279 54.3173 148.171 57.3386 148.279 60.6296C148.441 65.2155 148.333 65.1076 143.639 65.1615C141.805 65.2155 141.697 64.5141 141.697 63.0035C141.751 52.8606 141.751 42.7177 141.751 32.5749C141.751 31.2261 141.913 29.8773 141.697 28.5824C141.319 25.8849 142.236 25.0756 145.096 25.0217C147.955 24.9677 148.441 25.9388 148.387 28.4745C148.225 34.5711 148.333 40.6676 148.333 47.5194C151.354 44.3363 154.052 41.8006 156.372 38.9411C158.53 36.2435 161.066 35.0566 164.464 35.5961C165.22 35.704 166.083 35.5961 167.486 35.5961C164.249 38.9951 161.497 42.2322 158.422 45.0376C156.318 46.9799 156.318 48.2747 158.044 50.4328C161.713 55.2345 165.112 60.0901 168.835 65.1615Z" fill="white"/>
<path d="M220.196 61.8151C216.042 66.347 208.057 67.2642 203.039 63.8113C198.022 60.3584 198.238 53.6684 203.471 50.5932C207.733 48.0574 212.589 47.5179 217.39 47.0324C219.602 46.8166 220.142 46.331 219.548 44.1729C218.685 41.2056 217.121 39.695 213.884 39.5331C210.808 39.3713 208.434 40.774 207.679 43.4716C207.409 44.5506 207.086 44.9822 205.953 44.8203C205.683 44.7664 205.413 44.8743 205.143 44.8203C203.795 44.6045 201.798 45.5757 201.205 44.3348C200.45 42.8241 201.691 41.0977 202.662 39.7489C205.791 35.3249 212.481 33.4905 218.685 35.3249C223.595 36.7816 226.292 40.774 226.4 46.7626C226.508 52.4275 225.861 58.1464 226.94 63.7573C227.102 64.5126 226.994 65.1601 225.915 65.1061C224.674 65.0521 223.379 65.16 222.138 65.0521C219.926 64.9982 221.275 62.8401 220.196 61.8151ZM219.926 53.5065C219.548 52.9131 220.681 51.2406 218.955 51.4024C215.448 51.7801 211.833 51.9959 208.596 53.7223C207.248 54.4237 206.33 55.4488 206.492 57.1213C206.6 58.7938 207.517 59.8728 209.028 60.5202C214.477 62.8941 219.872 59.4412 219.926 53.5065Z" fill="white"/>
<path d="M134.197 50.2166C134.197 54.4787 134.089 58.7409 134.251 63.0031C134.305 64.7835 133.766 65.2151 132.039 65.1611C127.669 65.0532 127.669 65.1611 127.669 60.845C127.669 53.1299 127.723 45.3609 127.615 37.6459C127.615 35.9734 128.047 35.5957 129.719 35.5957C134.197 35.6497 134.197 35.5418 134.197 40.0197C134.197 43.4726 134.197 46.8716 134.197 50.2166Z" fill="white"/>
<path d="M134.143 29.0677C135.276 32.3048 133.01 31.8732 130.744 32.1429C127.183 32.5745 127.939 30.4704 127.615 28.3663C127.129 25.0753 129.018 25.345 131.337 25.1292C134.682 24.8595 134.359 26.7478 134.143 29.0677Z" fill="white"/>
</g>
<defs>
<clipPath id="clip0_2617_15687">
<rect width="227" height="88" fill="white"/>
</clipPath>
</defs>
</svg>
