<svg width="227" height="88" viewBox="0 0 227 88" fill="none" xmlns="http://www.w3.org/2000/svg">
<path d="M9.17678 56.2364C9.13626 56.3249 9.09713 56.4139 9.05942 56.5036C8.59662 57.6051 8.3584 58.7858 8.3584 59.9782C8.3584 61.1705 8.59662 62.3512 9.05942 63.4527C9.52224 64.5542 10.2006 65.5551 11.0558 66.3982C11.9109 67.2414 12.9259 67.9102 14.0432 68.3665C15.1604 68.8229 16.3578 69.0578 17.5672 69.0578C18.7765 69.0578 19.9739 68.8229 21.0912 68.3665C22.2084 67.9102 23.2236 67.2414 24.0787 66.3982L41.0243 49.6916C42.7897 47.9508 43.7815 45.5899 43.7815 43.1283C43.7815 40.9172 43.0874 38.7868 41.5714 37.1151C40.8235 36.7965 39.9965 36.6988 39.1958 36.847C38.4796 36.9795 37.8231 37.3988 37.2766 37.8912L21.1785 54.1802C20.8799 54.4842 20.5364 54.7365 20.1627 54.9301C20.3602 54.8103 20.5548 54.6853 20.7466 54.555C20.7303 54.5615 20.7139 54.568 20.6975 54.5744C20.7135 54.5637 20.7294 54.5532 20.7454 54.5425C20.7618 54.5314 20.7782 54.5204 20.7946 54.5093C20.7623 54.5312 20.7299 54.5528 20.6975 54.5744C18.2577 56.1938 15.3459 56.9813 12.4076 56.8149C11.3037 56.7524 10.2192 56.5566 9.17678 56.2364Z" fill="white"/>
<path d="M20.6966 54.5741C20.729 54.5526 20.7614 54.5309 20.7937 54.509C20.1752 54.7562 19.5038 54.8468 18.8407 54.7727C18.1777 54.6985 17.544 54.4621 16.9975 54.0846C16.5127 53.7478 16.1081 53.311 15.8119 52.8047C15.5157 52.2983 15.3348 51.7343 15.2819 51.152C15.229 50.5697 15.3053 49.9829 15.5056 49.4327C15.7058 48.8825 16.0253 48.3817 16.4416 47.9655L21.8 42.6362L29.6257 34.9203C29.6368 34.9111 29.6478 34.9018 29.6587 34.8924C29.6807 34.8737 29.7025 34.855 29.7256 34.8376L30.9035 33.6755C31.4796 33.5582 32.0888 33.5078 32.7242 33.5078C34.1005 33.5078 35.2712 33.6404 36.4382 33.9731C38.1354 34.3345 39.6969 35.1734 40.9314 36.3956C41.1642 36.6275 41.3837 36.8741 41.5871 37.122C40.8347 36.7978 40.0015 36.6975 39.1949 36.8467C38.4786 36.9793 37.8221 37.3986 37.2756 37.8909L21.1776 54.18C20.8788 54.484 20.5355 54.7363 20.1616 54.9299C20.3591 54.8101 20.5539 54.6851 20.7457 54.5548C20.7293 54.5613 20.713 54.5678 20.6966 54.5741Z" fill="#7A7A7A"/>
<path d="M33.6852 23.5852C33.2561 22.5641 32.6269 21.6365 31.8338 20.8555C30.9163 19.9503 29.8269 19.2321 28.6279 18.7422C27.429 18.2522 26.1437 18 24.8458 18C23.5478 18 22.2626 18.2522 21.0636 18.7422C19.8646 19.2321 18.7752 19.9503 17.8578 20.8555L3.90588 34.6077C1.4561 37.0232 0.0558724 40.2839 0.00163613 43.6995C-0.0526002 47.1149 1.24342 50.4173 3.6153 52.9072L3.7606 53.0465L3.91121 53.2003C4.0485 53.3332 4.19266 53.4592 4.34309 53.5775C6.59322 55.5075 9.42967 56.6462 12.4072 56.8149C15.3847 56.9835 18.3348 56.1725 20.7943 54.5093C20.1758 54.7564 19.5045 54.8471 18.8414 54.7729C18.1784 54.6988 17.5447 54.4622 16.998 54.0847C16.5134 53.7481 16.1088 53.3113 15.8126 52.8048C15.5162 52.2984 15.3355 51.7344 15.2825 51.1521C15.2297 50.5699 15.306 49.9832 15.5062 49.4329C15.7065 48.8827 16.0258 48.382 16.4422 47.9657L21.8007 42.6364L29.6264 34.9206C29.6596 34.8929 29.6917 34.864 29.7263 34.8377L31.8338 32.7586C33.0281 31.5821 33.8414 30.0828 34.1711 28.4503C34.5007 26.8178 34.3315 25.1255 33.6852 23.5878V23.5852Z" fill="white"/>
<path d="M160.384 55.2876C159.089 55.2876 157.918 55.0657 156.87 54.6216C155.841 54.1777 155.024 53.5384 154.42 52.7036C153.817 51.8689 153.506 50.8832 153.488 49.7466H157.482C157.535 50.5103 157.801 51.1141 158.281 51.5581C158.778 52.0021 159.452 52.224 160.305 52.224C161.174 52.224 161.858 52.0199 162.355 51.6114C162.851 51.1851 163.1 50.6346 163.1 49.9597C163.1 49.4091 162.931 48.9563 162.594 48.601C162.257 48.2459 161.831 47.9706 161.317 47.7753C160.819 47.5621 160.127 47.3312 159.24 47.0827C158.033 46.7274 157.048 46.3811 156.284 46.0436C155.539 45.6885 154.89 45.1645 154.34 44.4719C153.808 43.7616 153.542 42.8203 153.542 41.6481C153.542 40.547 153.817 39.5879 154.366 38.771C154.917 37.9541 155.69 37.3325 156.684 36.9062C157.677 36.4622 158.813 36.2402 160.091 36.2402C162.009 36.2402 163.562 36.7109 164.75 37.6522C165.958 38.5757 166.624 39.8721 166.748 41.5415H162.648C162.612 40.9021 162.336 40.3783 161.822 39.9698C161.325 39.5436 160.659 39.3304 159.825 39.3304C159.098 39.3304 158.511 39.5169 158.067 39.8899C157.642 40.2629 157.429 40.8045 157.429 41.5149C157.429 42.0122 157.589 42.4296 157.908 42.7669C158.245 43.0866 158.654 43.3531 159.133 43.5662C159.63 43.7616 160.322 43.9925 161.21 44.2588C162.417 44.6141 163.402 44.9692 164.165 45.3244C164.928 45.6796 165.586 46.2124 166.135 46.9228C166.686 47.6331 166.961 48.5656 166.961 49.72C166.961 50.7145 166.703 51.638 166.188 52.4905C165.674 53.343 164.92 54.0268 163.926 54.5418C162.931 55.0391 161.751 55.2876 160.384 55.2876Z" fill="white"/>
<path d="M190.641 40.3418L186.328 55.1003H182.307L179.618 44.7907L176.929 55.1003H172.882L168.542 40.3418H172.323L174.932 51.5839L177.754 40.3418H181.695L184.463 51.5571L187.074 40.3418H190.641Z" fill="white"/>
<path d="M191.699 47.6692C191.699 46.1774 191.992 44.8543 192.577 43.6999C193.181 42.5455 193.989 41.6576 195.001 41.036C196.031 40.4144 197.175 40.1035 198.436 40.1035C199.536 40.1035 200.495 40.3255 201.311 40.7695C202.146 41.2135 202.811 41.773 203.309 42.4478V40.3433H207.062V55.1018H203.309V52.9439C202.829 53.6365 202.163 54.2137 201.311 54.6755C200.477 55.1194 199.509 55.3415 198.409 55.3415C197.166 55.3415 196.031 55.0218 195.001 54.3824C193.989 53.7431 193.181 52.8462 192.577 51.6919C191.992 50.5197 191.699 49.1788 191.699 47.6692ZM203.309 47.7224C203.309 46.8167 203.131 46.0442 202.775 45.4048C202.42 44.7478 201.941 44.2505 201.337 43.913C200.734 43.5578 200.086 43.3802 199.394 43.3802C198.702 43.3802 198.063 43.549 197.477 43.8864C196.892 44.2238 196.412 44.721 196.039 45.3782C195.685 46.0176 195.507 46.7813 195.507 47.6692C195.507 48.5572 195.685 49.3387 196.039 50.0135C196.412 50.6706 196.892 51.1768 197.477 51.532C198.08 51.8872 198.72 52.0648 199.394 52.0648C200.086 52.0648 200.734 51.8961 201.337 51.5586C201.941 51.2035 202.42 50.7062 202.775 50.0668C203.131 49.4097 203.309 48.6283 203.309 47.7224Z" fill="white"/>
<path d="M214.43 42.4745C214.91 41.7996 215.566 41.2401 216.4 40.7961C217.253 40.3344 218.22 40.1035 219.303 40.1035C220.563 40.1035 221.699 40.4144 222.711 41.036C223.74 41.6576 224.548 42.5455 225.133 43.6999C225.737 44.8365 226.039 46.1597 226.039 47.6692C226.039 49.1788 225.737 50.5197 225.133 51.6919C224.548 52.8462 223.74 53.7431 222.711 54.3824C221.699 55.0218 220.563 55.3415 219.303 55.3415C218.22 55.3415 217.262 55.1194 216.427 54.6755C215.61 54.2315 214.944 53.6721 214.43 52.9971V62.1347H210.702V40.3433H214.43V42.4745ZM222.231 47.6692C222.231 46.7813 222.046 46.0176 221.673 45.3782C221.317 44.721 220.839 44.2238 220.235 43.8864C219.649 43.549 219.01 43.3802 218.318 43.3802C217.643 43.3802 217.004 43.5578 216.4 43.913C215.815 44.2505 215.336 44.7478 214.963 45.4048C214.608 46.062 214.43 46.8345 214.43 47.7224C214.43 48.6105 214.608 49.3831 214.963 50.0402C215.336 50.6973 215.815 51.2035 216.4 51.5586C217.004 51.8961 217.643 52.0648 218.318 52.0648C219.01 52.0648 219.649 51.8872 220.235 51.532C220.839 51.1768 221.317 50.6706 221.673 50.0135C222.046 49.3564 222.231 48.575 222.231 47.6692Z" fill="white"/>
<path d="M66.2037 55.2876C64.9079 55.2876 63.7364 55.0657 62.689 54.6216C61.6596 54.1777 60.8431 53.5384 60.2395 52.7036C59.636 51.8689 59.3254 50.8832 59.3076 49.7466H63.3014C63.3548 50.5103 63.621 51.1141 64.1002 51.5581C64.5973 52.0021 65.2718 52.2242 66.1238 52.2242C66.9936 52.2242 67.677 52.0199 68.1739 51.6114C68.671 51.1851 68.9195 50.6346 68.9195 49.9597C68.9195 49.4091 68.7508 48.9563 68.4136 48.6011C68.0764 48.2459 67.6503 47.9706 67.1355 47.7753C66.6386 47.5621 65.9463 47.3312 65.0588 47.0827C63.8517 46.7274 62.8666 46.3811 62.1033 46.0436C61.3578 45.6885 60.7099 45.1645 60.1597 44.4719C59.6272 43.7616 59.3609 42.8203 59.3609 41.6481C59.3609 40.547 59.636 39.5879 60.1863 38.771C60.7365 37.9541 61.5087 37.3325 62.5027 36.9062C63.4967 36.4622 64.6328 36.2402 65.9108 36.2402C67.8278 36.2402 69.381 36.7109 70.5703 37.6522C71.7772 38.5757 72.443 39.8721 72.5671 41.5415H68.4668C68.4314 40.9021 68.1562 40.3783 67.6414 39.9698C67.1444 39.5436 66.4788 39.3304 65.6445 39.3304C64.9167 39.3304 64.331 39.5169 63.8873 39.8899C63.4612 40.2629 63.2482 40.8045 63.2482 41.5149C63.2482 42.0122 63.408 42.4296 63.7275 42.7669C64.0648 43.0866 64.473 43.3531 64.9523 43.5662C65.4493 43.7616 66.1415 43.9925 67.029 44.2588C68.2361 44.6141 69.2213 44.9692 69.9845 45.3244C70.7478 45.6796 71.4046 46.2124 71.9547 46.9228C72.505 47.6331 72.7802 48.5656 72.7802 49.72C72.7802 50.7145 72.5228 51.638 72.008 52.4905C71.4933 53.343 70.7388 54.0268 69.7448 54.5418C68.7508 55.0391 67.5705 55.2876 66.2037 55.2876Z" fill="white"/>
<path d="M77.9031 38.5837C77.2463 38.5837 76.696 38.3795 76.2523 37.971C75.8262 37.5448 75.6133 37.0208 75.6133 36.3993C75.6133 35.7777 75.8262 35.2626 76.2523 34.8541C76.696 34.428 77.2463 34.2148 77.9031 34.2148C78.5598 34.2148 79.1012 34.428 79.5272 34.8541C79.9709 35.2626 80.1928 35.7777 80.1928 36.3993C80.1928 37.0208 79.9709 37.5448 79.5272 37.971C79.1012 38.3795 78.5598 38.5837 77.9031 38.5837ZM79.7402 40.3419V55.1004H76.0127V40.3419H79.7402Z" fill="white"/>
<path d="M101.741 40.1289C103.552 40.1289 105.007 40.6884 106.108 41.8073C107.226 42.9084 107.785 44.4535 107.785 46.4426V55.1005H104.058V46.9488C104.058 45.7944 103.765 44.9153 103.179 44.3115C102.593 43.6899 101.795 43.379 100.783 43.379C99.7709 43.379 98.9633 43.6899 98.3598 44.3115C97.774 44.9153 97.4811 45.7944 97.4811 46.9488V55.1005H93.7535V46.9488C93.7535 45.7944 93.4607 44.9153 92.8749 44.3115C92.2892 43.6899 91.4904 43.379 90.4786 43.379C89.4491 43.379 88.6326 43.6899 88.0291 44.3115C87.4433 44.9153 87.1504 45.7944 87.1504 46.9488V55.1005H83.4229V40.342H87.1504V42.127C87.6297 41.5054 88.242 41.017 88.9876 40.6617C89.7509 40.3066 90.5851 40.1289 91.4904 40.1289C92.6442 40.1289 93.6736 40.3776 94.579 40.8748C95.4843 41.3544 96.1853 42.047 96.6824 42.9528C97.1617 42.1003 97.8539 41.4165 98.7592 40.9015C99.6822 40.3864 100.676 40.1289 101.741 40.1289Z" fill="white"/>
<path d="M115.05 42.4745C115.529 41.7996 116.186 41.2401 117.02 40.7962C117.873 40.3344 118.839 40.1035 119.922 40.1035C121.182 40.1035 122.318 40.4144 123.33 41.036C124.36 41.6576 125.168 42.5455 125.753 43.6999C126.357 44.8365 126.658 46.1597 126.658 47.6692C126.658 49.1788 126.357 50.5197 125.753 51.6919C125.168 52.8462 124.36 53.7431 123.33 54.3824C122.318 55.0218 121.182 55.3415 119.922 55.3415C118.839 55.3415 117.881 55.1195 117.047 54.6755C116.23 54.2315 115.565 53.6721 115.05 52.9972V62.1347H111.322V40.3433H115.05V42.4745ZM122.851 47.6692C122.851 46.7813 122.664 46.0176 122.292 45.3782C121.937 44.7212 121.457 44.2238 120.855 43.8864C120.268 43.549 119.629 43.3802 118.937 43.3802C118.263 43.3802 117.624 43.5578 117.02 43.913C116.435 44.2505 115.955 44.7478 115.582 45.4048C115.227 46.062 115.05 46.8345 115.05 47.7226C115.05 48.6105 115.227 49.3831 115.582 50.0402C115.955 50.6973 116.435 51.2035 117.02 51.5586C117.624 51.8961 118.263 52.0648 118.937 52.0648C119.629 52.0648 120.268 51.8872 120.855 51.532C121.457 51.1768 121.937 50.6706 122.292 50.0135C122.664 49.3564 122.851 48.575 122.851 47.6692Z" fill="white"/>
<path d="M133.095 35.3867V55.1002H129.367V35.3867H133.095Z" fill="white"/>
<path d="M150.49 47.9595C150.49 48.5329 150.454 49.0491 150.383 49.5078H139.599C139.688 50.6546 140.061 51.553 140.718 52.203C141.374 52.8528 142.182 53.1777 143.141 53.1777C144.525 53.1777 145.51 52.5374 146.097 51.2568H150.117C149.691 52.7859 148.874 54.0474 147.667 55.0413C146.46 56.0162 144.978 56.5036 143.22 56.5036C141.801 56.5036 140.523 56.169 139.387 55.5C138.268 54.8121 137.39 53.8467 136.751 52.6043C136.13 51.3618 135.818 49.9283 135.818 48.3036C135.818 46.6597 136.13 45.2167 136.751 43.9742C137.371 42.7318 138.242 41.7761 139.36 41.1071C140.478 40.4381 141.765 40.1035 143.22 40.1035C144.622 40.1035 145.875 40.4284 146.975 41.0784C148.093 41.7283 148.954 42.6553 149.557 43.8595C150.179 45.0446 150.49 46.4113 150.49 47.9595ZM146.629 46.8127C146.611 45.7805 146.265 44.9587 145.59 44.347C144.916 43.7162 144.09 43.4008 143.115 43.4008C142.191 43.4008 141.41 43.7065 140.772 44.3183C140.15 44.9108 139.768 45.7423 139.626 46.8127H146.629Z" fill="white"/>
</svg>
