<svg width="227" height="88" viewBox="0 0 227 88" fill="none" xmlns="http://www.w3.org/2000/svg">
<g clip-path="url(#clip0_2799_14438)">
<path d="M68.5727 50.278C68.5727 49.313 68.2322 48.5752 67.5511 48.0644C66.8701 47.5422 65.6441 46.9974 63.8733 46.4298C62.1025 45.8509 60.7006 45.2834 59.6676 44.7272C56.8525 43.206 55.4449 41.1572 55.4449 38.5804C55.4449 37.2409 55.8195 36.049 56.5687 35.0047C57.3293 33.949 58.4133 33.1261 59.8209 32.5358C61.2398 31.9455 62.829 31.6504 64.5884 31.6504C66.3593 31.6504 67.9371 31.9739 69.3219 32.6209C70.7068 33.2566 71.7795 34.159 72.54 35.3282C73.3119 36.4974 73.6979 37.8255 73.6979 39.3125H68.5898C68.5898 38.1774 68.2322 37.2977 67.5171 36.6733C66.8019 36.0377 65.7973 35.7198 64.5033 35.7198C63.2546 35.7198 62.2841 35.9866 61.5917 36.5201C60.8992 37.0423 60.553 37.7347 60.553 38.5974C60.553 39.4034 60.956 40.0788 61.7619 40.6236C62.5792 41.1685 63.7768 41.6793 65.3547 42.1561C68.2605 43.0301 70.3776 44.1141 71.7057 45.4082C73.0338 46.7023 73.6979 48.3142 73.6979 50.2439C73.6979 52.3892 72.8862 54.075 71.263 55.3009C69.6398 56.5154 67.4546 57.1227 64.7076 57.1227C62.8006 57.1227 61.0638 56.7765 59.4973 56.0842C57.9309 55.3804 56.7333 54.4212 55.9047 53.2066C55.0874 51.992 54.6787 50.5844 54.6787 48.9839H59.8038C59.8038 51.7195 61.4384 53.0873 64.7076 53.0873C65.9222 53.0873 66.8701 52.8433 67.5511 52.3552C68.2322 51.8558 68.5727 51.1633 68.5727 50.278Z" fill="white"/>
<path d="M89.3301 38.3601L89.4833 40.4203C90.7887 38.8198 92.5539 38.0195 94.7787 38.0195C97.1511 38.0195 98.78 38.956 99.6655 40.829C100.96 38.956 102.804 38.0195 105.199 38.0195C107.197 38.0195 108.684 38.6041 109.66 39.7733C110.636 40.9311 111.125 42.6793 111.125 45.0176V56.7833H106.187V45.0347C106.187 43.9903 105.982 43.2298 105.574 42.753C105.165 42.265 104.444 42.0209 103.411 42.0209C101.936 42.0209 100.914 42.7247 100.347 44.1323L100.364 56.7833H95.4428V45.0517C95.4428 43.9847 95.2328 43.2127 94.8128 42.736C94.3927 42.2593 93.6776 42.0209 92.6674 42.0209C91.2711 42.0209 90.2608 42.5998 89.6366 43.7576V56.7833H84.7158V38.3601H89.3301Z" fill="white"/>
<path d="M130.809 47.7419C130.809 50.5798 130.162 52.8558 128.868 54.5698C127.585 56.2724 125.848 57.1238 123.658 57.1238C121.796 57.1238 120.292 56.4767 119.145 55.1828V63.8665H114.225V38.3601H118.788L118.958 40.1649C120.15 38.7347 121.705 38.0195 123.623 38.0195C125.894 38.0195 127.659 38.8595 128.919 40.5395C130.179 42.2195 130.809 44.5352 130.809 47.4865V47.7419ZM125.888 47.3844C125.888 45.6703 125.582 44.3479 124.969 43.4171C124.367 42.4863 123.487 42.0209 122.329 42.0209C120.786 42.0209 119.724 42.6112 119.145 43.7917V51.3347C119.747 52.5493 120.82 53.1566 122.363 53.1566C124.713 53.1566 125.888 51.2324 125.888 47.3844Z" fill="white"/>
<path d="M138.369 56.7824H133.431V30.6289H138.369V56.7824Z" fill="white"/>
<path d="M150.221 57.1238C147.519 57.1238 145.317 56.2952 143.614 54.6379C141.923 52.9806 141.077 50.7727 141.077 48.0144V47.5376C141.077 45.6874 141.435 44.0358 142.15 42.5828C142.865 41.1184 143.875 39.9947 145.181 39.2114C146.497 38.4168 147.996 38.0195 149.676 38.0195C152.196 38.0195 154.177 38.8141 155.618 40.4033C157.071 41.9925 157.798 44.2457 157.798 47.163V49.1723H146.066C146.225 50.3754 146.702 51.3404 147.496 52.0668C148.302 52.7932 149.318 53.1566 150.544 53.1566C152.44 53.1566 153.921 52.4698 154.988 51.0963L157.406 53.8035C156.668 54.8479 155.669 55.6651 154.409 56.2554C153.149 56.8344 151.753 57.1238 150.221 57.1238ZM149.659 42.0039C148.683 42.0039 147.888 42.333 147.275 42.9914C146.673 43.6498 146.287 44.592 146.117 45.8179H152.962V45.4262C152.939 44.3366 152.644 43.4965 152.077 42.9062C151.509 42.3046 150.703 42.0039 149.659 42.0039Z" fill="white"/>
<path d="M81.3473 56.7825H76.4096V38.3593H81.3473V56.7825ZM76.1201 33.5917C76.1201 32.8539 76.3642 32.2466 76.8522 31.7698C77.3517 31.2931 78.0272 31.0547 78.8784 31.0547C79.7185 31.0547 80.3882 31.2931 80.8876 31.7698C81.3871 32.2466 81.6368 32.8539 81.6368 33.5917C81.6368 34.3409 81.3814 34.9539 80.8706 35.4306C80.3712 35.9074 79.7071 36.1458 78.8784 36.1458C78.0498 36.1458 77.3801 35.9074 76.8693 35.4306C76.3699 34.9539 76.1201 34.3409 76.1201 33.5917Z" fill="white"/>
<path d="M180.414 56.7835H175.305V46.1587H165.345V56.7835H160.237V31.9922H165.345V42.0381H175.305V31.9922H180.414V56.7835Z" fill="white"/>
<path d="M183.104 47.4015C183.104 45.5738 183.457 43.9449 184.161 42.5147C184.864 41.0844 185.875 39.9776 187.191 39.1944C188.52 38.4112 190.057 38.0195 191.806 38.0195C194.292 38.0195 196.318 38.7801 197.884 40.3011C199.462 41.8222 200.342 43.8882 200.523 46.499L200.558 47.759C200.558 50.5855 199.769 52.8558 198.19 54.5698C196.613 56.2724 194.496 57.1238 191.839 57.1238C189.184 57.1238 187.061 56.2724 185.472 54.5698C183.893 52.8671 183.104 50.5514 183.104 47.6228V47.4015ZM188.026 47.759C188.026 49.507 188.355 50.8466 189.013 51.7773C189.671 52.6967 190.613 53.1566 191.839 53.1566C193.031 53.1566 193.962 52.7025 194.631 51.7944C195.302 50.8749 195.636 49.4106 195.636 47.4015C195.636 45.6874 195.302 44.3592 194.631 43.4171C193.962 42.4749 193.02 42.0038 191.806 42.0038C190.602 42.0038 189.671 42.4749 189.013 43.4171C188.355 44.3479 188.026 45.7952 188.026 47.759Z" fill="white"/>
<path d="M208.085 56.7824H203.146V30.6289H208.085V56.7824Z" fill="white"/>
<path d="M210.689 47.4345C210.689 44.5626 211.331 42.2754 212.614 40.5727C213.907 38.87 215.673 38.0186 217.909 38.0186C219.702 38.0186 221.184 38.6883 222.353 40.0278V30.6289H227.291V56.7824H222.847L222.609 54.8243C221.383 56.3567 219.805 57.1229 217.875 57.1229C215.707 57.1229 213.964 56.2715 212.648 54.5689C211.342 52.8548 210.689 50.4766 210.689 47.4345ZM215.611 47.7921C215.611 49.5175 215.912 50.84 216.513 51.7594C217.115 52.6788 217.988 53.1386 219.135 53.1386C220.656 53.1386 221.729 52.4973 222.353 51.2145V43.944C221.74 42.6614 220.679 42.02 219.17 42.02C216.797 42.02 215.611 43.944 215.611 47.7921Z" fill="white"/>
<path d="M35.2914 31.938C35.3607 32.3538 35.7073 32.5444 35.9671 32.8043C38.8259 35.7843 38.8259 40.0637 35.9325 42.9918C31.9996 46.9767 28.032 50.9269 24.0471 54.8598C20.7552 58.0997 15.9214 58.0824 12.6295 54.8252C8.97382 51.2041 5.35277 47.5657 1.73171 43.9273C-0.0874754 42.0908 -0.520613 39.2148 0.657529 37.2223C0.674855 37.5342 0.674852 37.8461 0.692178 38.1579C0.778806 39.5786 2.07823 40.8607 3.46428 40.8087C4.46916 40.7741 5.31812 40.3236 6.04579 39.5959C9.19906 36.4254 12.3696 33.2721 15.5229 30.1015C17.0822 28.5422 18.6242 26.9656 20.1662 25.3889C21.1364 24.9211 22.0373 24.3321 23.1289 24.1242C26.1262 23.5871 28.3439 24.8345 30.1631 27.0522C29.0715 28.3516 27.7894 29.4605 26.6286 30.6732C25.3985 31.9553 25.3292 34.0691 26.4727 35.3685C27.7548 36.8065 29.7819 37.0491 31.2546 35.8709C32.7446 34.7274 34.0267 33.3414 35.2914 31.938Z" fill="white"/>
<path d="M20.1659 25.4241C18.6239 27.0007 17.0819 28.56 15.5226 30.1367C12.3693 33.3073 9.19875 36.4605 6.04549 39.6311C5.31781 40.3588 4.46886 40.8093 3.46397 40.8439C2.07792 40.8959 0.778503 39.6138 0.691875 38.1931C0.674549 37.8812 0.674552 37.5694 0.657227 37.2575C0.657227 37.2229 0.67455 37.1882 0.709201 37.1536C0.743853 37.0669 0.778505 36.9976 0.813156 36.911C0.986412 36.4779 1.26362 36.114 1.59281 35.8022C4.8327 32.5623 8.05526 29.3051 11.3298 26.0825C13.842 23.5703 17.3245 23.345 20.1659 25.4241Z" fill="#717171"/>
<path d="M35.2913 31.9383C34.0265 33.3416 32.7444 34.7277 31.2718 35.9058C29.7991 37.084 27.772 36.8414 26.4899 35.4034C25.3291 34.104 25.4157 31.9902 26.6458 30.7081C27.8066 29.4954 29.0887 28.3865 30.1802 27.0871C31.0985 26.498 32.1034 26.2555 33.1776 26.4114C35.6725 26.7579 36.7986 29.7033 35.2913 31.9383Z" fill="#7A7A7A"/>
<path d="M0.830517 36.875C0.795866 36.9616 0.761214 37.0309 0.726562 37.1176C0.761214 37.0309 0.795866 36.9443 0.830517 36.875Z" fill="white"/>
</g>
<defs>
<clipPath id="clip0_2799_14438">
<rect width="227" height="88" fill="white"/>
</clipPath>
</defs>
</svg>
