<svg width="228" height="88" viewBox="0 0 228 88" fill="none" xmlns="http://www.w3.org/2000/svg">
<path d="M43.9265 4.02039C49.2092 4.36746 54.2551 5.65527 59.0004 8.01169C67.5894 12.277 73.9195 18.78 77.9817 27.4841C79.6758 31.1101 80.7506 34.9187 81.2788 38.8826C81.6523 41.6501 81.7525 44.4358 81.543 47.2214C81.0329 54.0806 78.9654 60.4284 75.222 66.1916C70.3673 73.681 63.7549 79.0149 55.4209 82.175C52.479 83.2893 49.446 84.0291 46.3128 84.3945C45.6935 84.4675 45.065 84.5223 44.4457 84.5862C43.799 84.5588 43.1523 84.5863 42.5056 84.6867C41.695 84.6867 40.8753 84.6867 40.0647 84.6867C39.4271 84.5863 38.7804 84.5588 38.1337 84.5862C37.5599 84.5223 36.9861 84.4675 36.4123 84.4036C33.2882 84.0382 30.2461 83.2984 27.3042 82.1842C19.2982 79.1519 12.8588 74.092 8.03146 67.0044C3.9237 60.9672 1.64668 54.2724 1.17305 46.9748C1.21859 46.3812 1.16395 45.7966 1 45.2212C1 44.3718 1 43.5224 1 42.673C1.08197 42.5725 1.07286 42.4538 1.09108 42.3351C1.15484 41.6592 1.21859 40.9833 1.28235 40.3075C1.57381 37.2386 2.20227 34.2337 3.22238 31.3202C6.68346 21.4195 13.0045 13.921 22.1399 8.8337C27.3224 5.94754 32.9239 4.39486 38.8351 4.02039C39.4453 4.04779 40.0556 4.03866 40.6658 3.91992C41.1394 3.91992 41.613 3.91992 42.0867 3.91992C42.6969 4.03866 43.3072 4.03866 43.9265 4.02039ZM59.383 19.1271C59.2099 19.1727 58.8456 18.9535 58.6634 19.1819C58.4995 19.3828 58.5177 19.7207 58.4721 20.0039C57.8528 23.5476 57.2334 27.0914 56.6141 30.6352C55.9856 34.2429 55.3481 37.8597 54.7196 41.4674C54.2551 44.1435 53.7815 46.8196 53.317 49.4865C53.0801 50.8566 52.8342 52.2266 52.5974 53.5966C52.4972 54.1628 52.5154 54.1902 53.0437 54.3638C53.7359 54.5921 54.4281 54.8113 55.1295 55.0123C56.3864 55.3685 57.6615 55.6242 58.964 55.7247C59.4923 55.7612 59.4923 55.7521 59.5924 55.2589C59.7017 54.7108 59.811 54.1628 59.9294 53.6148C61.1317 47.7969 62.3431 41.988 63.5454 36.17C64.6474 30.8178 65.7495 25.4657 66.8516 20.1135C66.9882 19.4376 67.0064 19.4741 66.3415 19.4376C64.0554 19.328 61.7693 19.2367 59.383 19.1271ZM19.4075 19.0905C18.3601 19.0905 17.3035 19.0905 16.2561 19.0905C15.746 19.0905 15.746 19.0905 15.8371 19.5655C16.2925 21.8762 16.7479 24.1961 17.2124 26.5069C18.1506 31.2014 19.0887 35.896 20.0177 40.5815C21.0014 45.5226 21.9851 50.4638 22.9688 55.405C23.0507 55.7977 23.0507 55.7977 23.4697 55.7886C24.7813 55.7521 26.0655 55.5968 27.3315 55.2406C28.3061 54.9575 29.2716 54.6378 30.1642 54.1354C30.5194 53.9345 30.5103 53.9254 30.4374 53.5418C30.0731 51.8521 29.7179 50.1533 29.3535 48.4636C27.9782 42.0793 26.5938 35.6951 25.2185 29.3017C24.508 26.0319 23.8067 22.7622 23.0963 19.5015C23.0052 19.0814 23.0052 19.0814 22.568 19.0814C21.5115 19.0905 20.464 19.0905 19.4075 19.0905ZM48.18 52.1444C48.2255 51.9069 48.1253 51.7425 48.0707 51.5781C47.506 49.7788 46.9413 47.9887 46.3675 46.1894C45.3929 43.1023 44.4092 40.0152 43.4256 36.9281C43.298 36.5354 43.298 36.5353 42.9064 36.5353C41.7041 36.5353 40.5019 36.5445 39.2996 36.5262C39.0081 36.5262 38.8897 36.6267 38.8077 36.9007C38.5072 37.9784 38.1793 39.047 37.8605 40.1248C36.7402 43.9334 35.6108 47.7329 34.4905 51.5416C34.4359 51.7242 34.3266 51.916 34.3721 52.1626C34.4632 52.1535 34.5452 52.1535 34.6271 52.1352C36.1117 51.6968 37.6237 51.4228 39.163 51.3041C39.6002 51.2767 39.6002 51.2584 39.7186 50.8017C40.0647 49.4865 40.4108 48.1805 40.7569 46.8652C40.7842 46.7739 40.766 46.6552 40.8935 46.6095C40.9664 46.646 40.9573 46.7191 40.9755 46.7739C41.3398 48.1165 41.7132 49.4591 42.0776 50.7926C42.196 51.2128 42.196 51.2128 42.6149 51.231C44.1906 51.3132 45.7481 51.505 47.2783 51.9069C47.5789 51.9982 47.8703 52.0713 48.18 52.1444ZM51.9781 63.4333C51.7777 63.278 51.7777 63.1501 51.7413 63.0405C51.4407 62.0998 51.131 61.1682 50.8396 60.2274C50.7576 59.9534 50.621 59.8256 50.3204 59.7616C48.599 59.3872 46.8502 59.1588 45.1014 58.9944C44.9557 58.9853 44.8009 58.9305 44.6734 59.0401C44.6369 59.1771 44.7098 59.2776 44.7462 59.3872C45.8665 62.9492 46.9868 66.5112 48.1162 70.0733C48.262 70.5482 48.2073 70.4934 48.7174 70.4934C51.1219 70.4934 53.5356 70.4934 55.9401 70.4934C56.0221 70.4934 56.1131 70.4843 56.1951 70.4934C56.35 70.5025 56.4502 70.4477 56.4866 70.2742C56.5048 70.1737 56.5321 70.0733 56.5503 69.9728C56.8782 68.3744 57.2152 66.7852 57.5431 65.1869C57.7526 64.1913 57.9621 63.1958 58.1625 62.1911C58.2353 61.8166 58.208 61.7801 57.8983 61.7344C56.1951 61.5152 54.5466 61.0677 52.9435 60.4466C52.6521 60.3279 52.3515 60.2183 51.9781 60.2274C51.9781 61.296 51.9781 62.3281 51.9781 63.4333ZM31.166 63.3693C31.0112 63.1045 31.0385 62.8944 31.0294 62.6935C30.9839 61.9628 30.9566 61.2321 30.911 60.5014C30.8928 60.1726 30.8564 60.1452 30.5467 60.2274C30.3008 60.2914 30.0457 60.3553 29.8272 60.4649C28.1786 61.2686 26.4389 61.7344 24.6082 61.8623C24.2894 61.8806 24.2621 61.9171 24.3259 62.2459C24.845 64.8398 25.3642 67.4337 25.8833 70.0276C25.9744 70.4934 25.9835 70.5025 26.4663 70.5025C28.7888 70.5025 31.1114 70.5025 33.434 70.5025C33.4977 70.5025 33.5706 70.5025 33.6343 70.5025C33.8165 70.5117 33.9167 70.4386 33.9622 70.2559C33.9805 70.1555 34.026 70.0641 34.0533 69.9637C35.1007 66.4838 36.1391 63.0131 37.1774 59.5333C37.2138 59.3963 37.3049 59.2593 37.2412 59.104C37.0134 59.0492 36.7949 59.0949 36.5763 59.1132C35.2283 59.2684 33.8894 59.4694 32.5687 59.7342C32.2408 59.7982 32.0951 59.9534 32.0131 60.2731C31.7581 61.296 31.4575 62.3007 31.166 63.3693Z" fill="white"/>
<path d="M1.18184 46.9724C1.12719 46.9632 1.07255 46.9084 1.00879 46.9541C1.00879 46.3787 1.00879 45.7942 1.00879 45.2188C1.17273 45.7942 1.22738 46.3787 1.18184 46.9724Z" fill="#8C9093"/>
<path d="M38.1338 84.6945C38.1338 84.6579 38.1338 84.6214 38.1338 84.594C38.7805 84.5666 39.4271 84.594 40.0647 84.6945C39.418 84.6945 38.7714 84.6945 38.1338 84.6945Z" fill="#8C9093"/>
<path d="M42.5049 84.6937C43.1516 84.6024 43.7982 84.575 44.4449 84.5932C44.4267 84.6206 44.4176 84.6571 44.4358 84.6937C43.7891 84.6937 43.1424 84.6937 42.5049 84.6937Z" fill="#8C9093"/>
<path d="M38.8438 4.00867C38.8438 3.97214 38.8438 3.9356 38.8438 3.9082C39.454 3.9082 40.0642 3.9082 40.6745 3.9082C40.0642 4.02694 39.454 4.03607 38.8438 4.00867Z" fill="#8C9093"/>
<path d="M43.9264 4.01781C43.3162 4.03607 42.7059 4.03607 42.0957 3.9082C42.7059 3.9082 43.3162 3.9082 43.9264 3.9082C43.9264 3.94474 43.9264 3.98127 43.9264 4.01781Z" fill="#8C9093"/>
<path d="M122.711 31.9482C122.037 31.7747 121.372 31.592 120.698 31.4276C118.886 30.9801 117.046 30.7243 115.179 30.6147C113.876 30.5417 112.574 30.5051 111.271 30.633C110.306 30.7243 109.359 30.907 108.457 31.2724C105.469 32.4688 104.486 36.0309 106.435 38.6156C106.972 39.3372 107.655 39.8852 108.43 40.3327C109.896 41.1821 111.435 41.8854 112.993 42.5704C115.106 43.502 117.21 44.4336 119.195 45.6118C120.634 46.4612 121.982 47.4202 123.103 48.6715C124.915 50.6991 125.781 53.0829 125.762 55.7956C125.753 57.2843 125.544 58.7457 124.979 60.1248C124.05 62.3899 122.383 63.9426 120.206 64.9838C118.567 65.7601 116.827 66.1894 115.042 66.436C111.9 66.8653 108.758 66.8196 105.615 66.4634C103.994 66.2807 102.4 65.9976 100.833 65.5501C100.469 65.4496 100.469 65.4405 100.551 65.0751C100.843 63.769 101.125 62.4538 101.416 61.1478C101.498 60.7733 101.507 60.7733 101.89 60.892C103.648 61.4674 105.433 61.9241 107.264 62.2072C109.304 62.5178 111.344 62.5543 113.394 62.399C114.614 62.3077 115.816 62.125 116.982 61.7506C117.629 61.5496 118.257 61.2848 118.831 60.9286C120.707 59.7777 121.345 58.0059 121.09 55.96C120.899 54.4804 120.161 53.2839 119.086 52.2792C118.376 51.6125 117.556 51.101 116.709 50.6261C114.951 49.6305 113.12 48.7994 111.28 47.9682C109.532 47.1828 107.819 46.3334 106.198 45.3104C105.424 44.8172 104.677 44.2875 104.003 43.6664C102.172 41.9584 101.17 39.8395 101.016 37.3369C100.879 35.0353 101.325 32.8707 102.692 30.9618C103.839 29.3543 105.36 28.2309 107.164 27.4729C108.758 26.8061 110.433 26.4499 112.146 26.3768C115.079 26.2398 118.011 26.322 120.926 26.6874C121.7 26.7878 122.465 26.9248 123.212 27.1623C123.385 27.2171 123.467 27.2719 123.44 27.482C123.212 28.9251 122.993 30.3681 122.775 31.8112C122.757 31.8386 122.729 31.8843 122.711 31.9482Z" fill="white"/>
<path d="M157.039 41.7116C157.103 41.1635 157.167 40.6521 157.231 40.1315C157.313 39.4556 157.404 38.7797 157.467 38.1039C157.495 37.7842 157.613 37.6198 157.959 37.5285C159.945 37.0078 161.967 36.6882 164.016 36.5238C165.218 36.4233 166.421 36.3685 167.623 36.3594C169.545 36.3594 171.448 36.5238 173.279 37.154C173.662 37.2819 174.044 37.4371 174.409 37.6015C176.713 38.6427 178.061 40.4511 178.58 42.8989C178.771 43.8122 178.881 44.7439 178.89 45.6755C178.908 47.6665 178.817 49.6485 178.735 51.6396C178.617 54.7815 178.553 57.9234 178.808 61.0653C178.926 62.4901 179.09 63.9058 179.354 65.3123C179.427 65.7142 179.427 65.7233 179.008 65.7416C177.706 65.7964 176.403 65.842 175.101 65.906C174.818 65.9242 174.718 65.8146 174.673 65.5589C174.536 64.8556 174.418 64.1524 174.409 63.44C174.399 63.1203 174.272 63.0563 174.008 63.2207C173.953 63.2573 173.908 63.303 173.853 63.3486C172.013 64.9287 169.855 65.8055 167.486 66.2074C166.011 66.454 164.526 66.5636 163.033 66.4174C161.065 66.2348 159.326 65.495 157.868 64.1432C156.73 63.0929 156.083 61.7594 155.864 60.2341C155.473 57.4941 156.019 54.9915 157.886 52.8726C158.934 51.6761 160.2 50.7902 161.675 50.1965C163.37 49.5115 165.137 49.137 166.931 48.8722C169.144 48.5434 171.376 48.4246 173.616 48.3698C173.962 48.3607 174.008 48.4155 174.044 47.9953C174.163 46.7715 174.117 45.5567 173.826 44.3511C173.47 42.8624 172.587 41.8577 171.148 41.3279C169.864 40.853 168.525 40.6612 167.168 40.6247C163.861 40.5242 160.61 40.8896 157.395 41.675C157.304 41.7116 157.203 41.7572 157.039 41.7116ZM174.053 55.9323C174.035 55.9323 174.026 55.9323 174.008 55.9323C174.008 54.6901 174.008 53.448 174.008 52.215C174.008 51.7948 173.999 51.7857 173.589 51.7948C171.421 51.8314 169.253 51.8953 167.104 52.2698C165.811 52.489 164.563 52.8543 163.415 53.5119C161.475 54.6353 160.519 56.3159 160.592 58.5627C160.646 60.1428 161.411 61.2571 162.878 61.8599C163.37 62.0608 163.87 62.1978 164.39 62.2709C166.047 62.4992 167.705 62.4444 169.344 62.143C170.966 61.8416 172.459 61.2388 173.789 60.2433C174.035 60.0606 174.126 59.8779 174.117 59.5674C174.099 58.3435 174.09 57.1379 174.053 55.9323Z" fill="white"/>
<path d="M190.358 44.4352C190.349 41.5947 190.312 36.9641 190.176 32.3243C190.13 30.662 190.039 28.9997 189.975 27.3283C189.957 26.8077 189.884 26.8442 190.449 26.8442C195.13 26.8442 199.803 26.8442 204.484 26.8442C207.08 26.8442 209.667 26.8442 212.263 26.8442C212.363 26.8442 212.463 26.8534 212.563 26.8442C212.809 26.8168 212.891 26.9173 212.873 27.1639C212.818 27.995 212.782 28.8262 212.736 29.6573C212.718 30.0683 212.691 30.4702 212.673 30.8812C212.654 31.2739 212.654 31.2739 212.272 31.2648C211.698 31.2465 211.124 31.2374 210.541 31.21C205.395 31.0091 200.24 30.9269 195.085 30.936C194.666 30.936 194.657 30.9451 194.684 31.3013C194.985 35.5392 194.985 39.7954 195.03 44.0425C195.039 44.7001 194.967 44.6087 195.595 44.6087C199.712 44.6179 203.829 44.5357 207.946 44.3987C208.064 44.3987 208.182 44.4078 208.301 44.3895C208.583 44.3439 208.647 44.4717 208.638 44.7366C208.629 45.9422 208.638 47.1478 208.629 48.3534C208.629 48.6914 208.62 48.7005 208.246 48.6914C206.261 48.6457 204.284 48.6 202.299 48.5361C200.012 48.4722 197.726 48.4813 195.431 48.4722C195.021 48.4722 195.021 48.4722 195.021 48.8923C195.03 54.1988 195.048 59.4962 195.285 64.7936C195.285 64.8484 195.294 64.894 195.294 64.9488C195.285 65.1955 195.458 65.4969 195.276 65.6795C195.121 65.8348 194.821 65.7343 194.593 65.7343C193.19 65.7435 191.779 65.7343 190.376 65.7343C189.875 65.7343 189.939 65.7435 189.957 65.2959C190.23 58.9482 190.34 52.5913 190.358 44.4352Z" fill="white"/>
<path d="M150.191 61.6683C150.246 61.9605 150.164 62.2254 150.145 62.4903C150.063 63.3671 149.972 64.253 149.918 65.1298C149.899 65.413 149.799 65.5408 149.535 65.6322C147.586 66.3263 145.573 66.4998 143.524 66.2715C142.768 66.1893 142.021 66.0432 141.292 65.8148C139.279 65.1846 137.913 63.8877 137.203 61.8875C136.684 60.4353 136.438 58.9374 136.292 57.4121C136.101 55.3297 136.137 53.2381 136.146 51.1466C136.155 48.2421 136.174 45.3377 136.192 42.4333C136.192 41.8944 136.265 41.9401 135.709 41.9401C134.37 41.931 133.031 42.0406 131.692 42.0771C131.301 42.0862 131.292 42.0862 131.301 41.7209C131.337 40.5336 131.383 39.3462 131.437 38.1589C131.456 37.7844 131.465 37.7753 131.865 37.8027C133.232 37.9031 134.607 37.9397 135.982 37.9671C136.101 37.9671 136.219 37.9671 136.337 37.9671C136.465 37.9671 136.511 37.894 136.52 37.7753C136.52 37.7113 136.52 37.6383 136.529 37.5743C136.62 35.0078 136.72 32.4505 136.811 29.884C136.829 29.4456 136.793 29.4547 137.257 29.4091C138.441 29.2994 139.616 29.1624 140.791 29.0437C141.01 29.0254 141.229 29.0163 141.502 28.998C141.484 29.2994 141.474 29.5643 141.447 29.8292C141.238 32.3683 141.074 34.9074 141.001 37.4556C141.001 37.5378 141.001 37.6291 141.001 37.7113C140.983 37.9123 141.074 37.9853 141.274 37.9762C141.493 37.9671 141.711 37.9762 141.939 37.9671C144.161 37.9031 146.375 37.8483 148.597 37.7113C148.779 37.7022 148.97 37.6931 149.153 37.6839C149.581 37.6657 149.608 37.6291 149.581 38.1041C149.517 39.3097 149.471 40.5153 149.417 41.7209C149.398 42.1045 149.398 42.1045 149.007 42.0954C146.484 42.0406 143.961 41.9401 141.438 41.9492C141.301 41.9492 141.165 41.9584 141.028 41.9492C140.864 41.9401 140.764 41.9858 140.782 42.1776C140.791 42.2598 140.782 42.3511 140.782 42.4333C140.764 45.5935 140.728 48.7536 140.718 51.9138C140.709 53.5487 140.773 55.1744 140.992 56.791C141.083 57.4852 141.229 58.161 141.411 58.8369C141.912 60.6727 143.141 61.6865 144.963 62.061C146.511 62.3807 148.032 62.198 149.535 61.8235C149.736 61.7779 149.927 61.7231 150.127 61.6774C150.1 61.65 150.118 61.6591 150.191 61.6683Z" fill="white"/>
<path d="M224.658 36.7988C224.658 37.2829 224.676 37.703 224.658 38.1232C224.421 42.8086 224.366 47.4941 224.366 52.1886C224.366 55.6228 224.457 59.0478 224.594 62.482C224.63 63.4136 224.703 64.3452 224.758 65.2768C224.785 65.7335 224.776 65.7335 224.357 65.7335C222.845 65.7335 221.342 65.7335 219.83 65.7335C219.384 65.7335 219.375 65.7335 219.411 65.2951C219.785 59.8881 219.876 54.4629 219.767 49.0467C219.694 45.3294 219.448 41.6121 218.819 37.9405C218.792 37.7852 218.701 37.6026 218.992 37.566C220.86 37.3194 222.736 37.0546 224.658 36.7988Z" fill="white"/>
<path d="M225.988 28.4491C226.034 29.0519 225.888 29.6182 225.624 30.1662C224.759 31.9106 222.573 32.687 220.815 31.8558C219.813 31.39 219.285 30.5315 219.112 29.472C218.957 28.5587 219.103 27.6819 219.595 26.8781C220.505 25.362 222.546 24.6678 224.167 25.3711C225.287 25.8552 225.87 26.7777 225.998 27.9833C226.007 28.1385 225.988 28.2938 225.988 28.4491Z" fill="white"/>
<path d="M59.3828 19.1248C61.7691 19.2344 64.0552 19.3258 66.3414 19.4445C67.0154 19.481 66.9972 19.4445 66.8514 20.1204C65.7493 25.4726 64.6473 30.8247 63.5452 36.1769C62.3429 41.9949 61.1315 47.8038 59.9293 53.6217C59.82 54.1697 59.7107 54.7177 59.5923 55.2658C59.4921 55.759 59.4921 55.7772 58.9638 55.7316C57.6613 55.6311 56.3862 55.3754 55.1293 55.0192C54.428 54.8182 53.7357 54.599 53.0435 54.3707C52.5061 54.1971 52.497 54.1697 52.5972 53.6035C52.834 52.2335 53.0708 50.8634 53.3168 49.4934C53.7813 46.8173 54.2549 44.1413 54.7194 41.4743C55.3479 37.8666 55.9854 34.2589 56.6139 30.6421C57.2333 27.0983 57.8526 23.5545 58.472 20.0108C58.5175 19.7276 58.5084 19.3806 58.6632 19.1888C58.8363 18.9513 59.2006 19.1705 59.3828 19.1248Z" fill="#BBBBBB"/>
<path d="M19.4068 19.0898C20.4542 19.0898 21.5108 19.0898 22.5582 19.0898C22.9954 19.0898 22.9954 19.0898 23.0865 19.51C23.7969 22.7797 24.4982 26.0404 25.2087 29.3101C26.584 35.6944 27.9684 42.0787 29.3438 48.472C29.7081 50.1617 30.0724 51.8605 30.4276 53.5502C30.5096 53.9338 30.5187 53.943 30.1544 54.1439C29.2618 54.6462 28.3054 54.975 27.3218 55.249C26.0557 55.6052 24.7715 55.7696 23.4599 55.797C23.0409 55.8062 23.0409 55.797 22.959 55.4134C21.9753 50.4723 20.9916 45.5311 20.0079 40.5899C19.0698 35.8953 18.1317 31.2008 17.2026 26.5153C16.7381 24.2046 16.2827 21.8847 15.8273 19.5739C15.7362 19.099 15.7362 19.099 16.2463 19.099C17.3028 19.0898 18.3594 19.0898 19.4068 19.0898Z" fill="#BBBBBB"/>
<path d="M48.1797 52.1427C47.8701 52.0605 47.5786 51.9966 47.2871 51.9144C45.757 51.5125 44.1995 51.3116 42.6238 51.2385C42.2048 51.2203 42.2048 51.2203 42.0864 50.8001C41.7221 49.4575 41.3487 48.1149 40.9843 46.7814C40.9661 46.7266 40.9752 46.6536 40.9024 46.617C40.7748 46.6536 40.7931 46.7723 40.7657 46.8728C40.4196 48.188 40.0735 49.4941 39.7274 50.8093C39.609 51.2659 39.609 51.2842 39.1718 51.3116C37.6325 51.4212 36.1206 51.6952 34.636 52.1427C34.5631 52.161 34.4811 52.161 34.381 52.1701C34.3354 51.9235 34.4447 51.7409 34.4994 51.5491C35.6197 47.7404 36.74 43.9318 37.8694 40.1323C38.1881 39.0546 38.516 37.9859 38.8166 36.9082C38.8895 36.6342 39.0079 36.5246 39.3084 36.5337C40.5107 36.552 41.713 36.5429 42.9152 36.5429C43.3069 36.5429 43.3069 36.5429 43.4344 36.9356C44.4181 40.0227 45.3927 43.1098 46.3763 46.1969C46.941 47.987 47.5148 49.7863 48.0795 51.5856C48.116 51.7409 48.2253 51.9144 48.1797 52.1427Z" fill="#BBBBBB"/>
<path d="M51.9773 63.4319C51.9773 62.3268 51.9773 61.2856 51.9773 60.2352C52.3508 60.2261 52.6513 60.3448 52.9428 60.4544C54.5458 61.0755 56.1853 61.5322 57.8976 61.7422C58.2073 61.7788 58.2346 61.8244 58.1617 62.1989C57.9614 63.1945 57.7519 64.19 57.5424 65.1947C57.2145 66.793 56.8775 68.3822 56.5496 69.9806C56.5314 70.081 56.5041 70.1815 56.4858 70.282C56.4585 70.4464 56.3583 70.5103 56.1944 70.5012C56.1124 70.492 56.0213 70.5012 55.9394 70.5012C53.5348 70.5012 51.1212 70.5012 48.7166 70.5012C48.2066 70.5012 48.2612 70.556 48.1155 70.081C46.9861 66.519 45.8658 62.957 44.7455 59.395C44.7091 59.2854 44.6453 59.1758 44.6726 59.0479C44.8002 58.9383 44.9641 58.9931 45.1007 59.0022C46.8586 59.1575 48.5982 59.395 50.3197 59.7694C50.6111 59.8334 50.7477 59.9612 50.8388 60.2352C51.1303 61.176 51.44 62.1076 51.7405 63.0483C51.7678 63.1579 51.777 63.2767 51.9773 63.4319Z" fill="#BBBBBB"/>
<path d="M31.1658 63.3679C31.4573 62.2993 31.7578 61.2947 32.0129 60.2717C32.0948 59.952 32.2406 59.7968 32.5685 59.7328C33.8982 59.4588 35.2371 59.2579 36.576 59.1118C36.7946 59.0844 37.0132 59.0478 37.2409 59.1026C37.3138 59.2579 37.2227 59.3949 37.1772 59.5319C36.1388 63.0117 35.0914 66.4916 34.0531 69.9623C34.0258 70.0627 33.9802 70.1541 33.962 70.2545C33.9256 70.4372 33.8163 70.5103 33.6341 70.5011C33.5704 70.5011 33.4975 70.5011 33.4337 70.5011C31.1112 70.5011 28.7886 70.5011 26.466 70.5011C25.9833 70.5011 25.9742 70.5011 25.8831 70.0262C25.364 67.4323 24.8448 64.8384 24.3256 62.2445C24.2619 61.9157 24.2892 61.8792 24.608 61.8609C26.4387 61.7331 28.1784 61.2764 29.8269 60.4635C30.0546 60.3539 30.3005 60.29 30.5465 60.226C30.8653 60.1438 30.8926 60.1712 30.9108 60.5C30.9563 61.2307 30.9837 61.9614 31.0292 62.6921C31.0383 62.893 31.011 63.1031 31.1658 63.3679Z" fill="#BBBBBB"/>
</svg>
