<svg width="227" height="88" viewBox="0 0 227 88" fill="none" xmlns="http://www.w3.org/2000/svg">
<path fill-rule="evenodd" clip-rule="evenodd" d="M166.13 60.5891H191.145V52.8687H176.136V49.0083H188.922V41.7013H176.136V38.2546H190.589V30.6719H166.13V60.5891ZM210.184 52.5929L215.326 60.5891V60.727H227L215.882 45.2859L226.305 30.8097H215.326L210.323 38.3925L205.181 30.8097H193.786L204.347 45.5616L193.507 60.5891H205.042L210.184 52.5929Z" fill="white"/>
<path opacity="0.95" fill-rule="evenodd" clip-rule="evenodd" d="M6.82319 49.8816C7.03261 51.3851 7.44395 52.5092 8.0572 53.2533C9.17911 54.6083 11.1012 55.2854 13.8236 55.2854C15.454 55.2854 16.7778 55.1068 17.7951 54.7497C19.7246 54.0649 20.6895 52.792 20.6895 50.9311C20.6895 49.8442 20.2108 49.0033 19.2535 48.4077C18.2961 47.8272 16.7928 47.3134 14.7435 46.8669L11.2433 46.0852C7.80289 45.3111 5.42455 44.47 4.10823 43.5618C1.87942 42.0433 0.765014 39.6688 0.765014 36.4383C0.765014 33.4905 1.84201 31.0417 3.99602 29.0914C6.15002 27.1412 9.31364 26.166 13.487 26.166C16.9724 26.166 19.9453 27.0853 22.4054 28.9239C24.8661 30.7625 26.1565 33.431 26.2765 36.9296H19.6349C19.5152 34.9495 18.6476 33.5427 17.0322 32.709C15.9552 32.1582 14.6164 31.8827 13.0159 31.8827C11.2358 31.8827 9.81479 32.2401 8.75277 32.9546C7.69066 33.6692 7.15974 34.6666 7.15974 35.947C7.15974 37.1231 7.68328 38.0015 8.73028 38.582C9.40345 38.9691 10.8394 39.4231 13.0383 39.9442L18.7374 41.3064C21.235 41.9019 23.1203 42.6983 24.3914 43.6959C26.3666 45.2442 27.3536 47.4847 27.3536 50.4176C27.3536 53.4246 26.1983 55.922 23.8866 57.9094C21.5759 59.897 18.3111 60.8907 14.0929 60.8907C9.78487 60.8907 6.39685 59.9119 3.9287 57.9541C1.46058 55.9964 0.226562 53.3057 0.226562 49.8816H6.82319ZM29.4403 40.4578V35.9247H32.8508V29.1361H39.1783V35.9247H43.1491V40.4578H39.1783V53.3206C39.1783 54.3179 39.3047 54.9395 39.5587 55.1851C39.8139 55.4308 40.5909 55.5536 41.893 55.5536C42.0871 55.5536 42.2927 55.5499 42.5093 55.5425C42.727 55.535 42.9401 55.5237 43.1491 55.5088V60.2655L40.1203 60.3772C37.0992 60.4812 35.0349 59.9603 33.9279 58.8139C33.2098 58.0844 32.8508 56.9605 32.8508 55.4419V40.4578H29.4403ZM56.9029 40.3015C55.423 40.3015 54.2741 40.7631 53.4594 41.6861C52.6437 42.609 52.1315 43.8596 51.9224 45.4376H61.8619C61.7569 43.7554 61.2447 42.4788 60.325 41.6079C59.4055 40.737 58.264 40.3015 56.9029 40.3015ZM56.9029 35.0537C58.9372 35.0537 60.7699 35.4334 62.4 36.1926C64.0311 36.9519 65.3774 38.1503 66.4394 39.7879C67.3964 41.232 68.0171 42.9068 68.3009 44.8124C68.466 45.9289 68.5336 47.5368 68.5035 49.6359H51.765C51.8551 52.0773 52.6256 53.7893 54.0767 54.7719C54.9589 55.3823 56.0209 55.6875 57.2619 55.6875C58.5791 55.6875 59.6476 55.3153 60.4707 54.571C60.9199 54.1692 61.3164 53.6107 61.6606 52.8962H68.1897C68.0246 54.3402 67.269 55.8066 65.9229 57.2953C63.8285 59.6625 60.8973 60.846 57.1281 60.846C54.0168 60.846 51.2718 59.8486 48.8926 57.8536C46.5144 55.8588 45.326 52.6133 45.326 48.1173C45.326 43.9042 46.3987 40.6737 48.5455 38.4257C50.6921 36.1777 53.4775 35.0537 56.9029 35.0537ZM86.2957 48.2068C85.8927 48.4599 85.4845 48.6645 85.074 48.8209C84.6623 48.9771 84.0977 49.1222 83.3796 49.2563L81.9434 49.5242C80.5974 49.7625 79.6327 50.0526 79.0485 50.3951C78.0615 50.9756 77.5686 51.8764 77.5686 53.0972C77.5686 54.184 77.8708 54.9691 78.4774 55.453C79.083 55.9369 79.8192 56.1788 80.6873 56.1788C82.0633 56.1788 83.3312 55.777 84.4898 54.9728C85.6496 54.1692 86.2517 52.7027 86.2957 50.5738V48.2068ZM82.4149 45.2367C83.5961 45.0878 84.4416 44.9017 84.9496 44.6784C85.8629 44.2913 86.3183 43.6884 86.3183 42.8695C86.3183 41.8721 85.9711 41.1836 85.2754 40.8039C84.5799 40.4243 83.5584 40.2345 82.2123 40.2345C80.7021 40.2345 79.6327 40.6067 79.0045 41.3511C78.5556 41.9019 78.2566 42.6463 78.1064 43.5842H71.9363C72.0714 41.4552 72.6696 39.706 73.7316 38.3364C75.4217 36.1926 78.3229 35.1207 82.4375 35.1207C85.1147 35.1207 87.493 35.6492 89.572 36.7062C91.6513 37.7633 92.6909 39.7582 92.6909 42.691V53.8563C92.6909 54.6306 92.7058 55.5684 92.7359 56.6701C92.7808 57.5039 92.9075 58.0696 93.1175 58.3673C93.3263 58.6649 93.6405 58.9105 94.0596 59.1043V60.0421H87.1039C86.91 59.5508 86.7749 59.0892 86.6999 58.6575C86.6259 58.2257 86.5658 57.7345 86.5209 57.1836C85.6377 58.1365 84.6206 58.9478 83.4695 59.6178C82.0934 60.4069 80.5373 60.8013 78.8021 60.8013C76.589 60.8013 74.7595 60.1723 73.3156 58.9145C71.8733 57.6564 71.1509 55.8736 71.1509 53.5662C71.1509 50.5738 72.3105 48.4077 74.6287 47.0678C75.9007 46.3383 77.7699 45.8173 80.2383 45.5046L82.4149 45.2367ZM104.897 60.0421H98.502V27.1262H104.897V60.0421ZM108.622 40.4578V35.9247H112.032V29.1361H118.359V35.9247H122.33V40.4578H118.359V53.3206C118.359 54.3179 118.487 54.9395 118.741 55.1851C118.995 55.4308 119.773 55.5536 121.074 55.5536C121.269 55.5536 121.474 55.5499 121.691 55.5425C121.908 55.535 122.121 55.5237 122.33 55.5088V60.2655L119.302 60.3772C116.28 60.4812 114.216 59.9603 113.109 58.8139C112.391 58.0844 112.032 56.9605 112.032 55.4419V40.4578H108.622ZM139.922 35.0761C141.432 35.0761 142.805 35.3366 144.039 35.8577C145.273 36.3788 146.286 37.1752 147.079 38.2471C147.752 39.1552 148.164 40.0894 148.313 41.0496C148.463 42.0098 148.538 43.5767 148.538 45.7503V60.0421H142.009V45.2367C142.009 43.9266 141.784 42.8696 141.336 42.0657C140.751 40.9343 139.644 40.3685 138.014 40.3685C136.324 40.3685 135.041 40.9305 134.167 42.0545C133.291 43.1785 132.854 44.7826 132.854 46.8669V60.0421H126.481V27.2379H132.854V38.8723C133.781 37.458 134.855 36.4717 136.073 35.9135C137.293 35.3552 138.576 35.0761 139.922 35.0761Z" fill="white"/>
</svg>
