<svg width="227" height="88" viewBox="0 0 227 88" fill="none" xmlns="http://www.w3.org/2000/svg">
<path d="M12.0407 22.3223L53.73 50.7875L43.4198 66.0288L1.73047 37.3394L12.0407 22.3223Z" fill="#B5B5B5"/>
<path d="M53.7296 50.7868C50.1435 55.942 38.0401 53.9247 26.6092 45.8558C14.9541 38.0111 8.6783 27.4767 12.0403 22.3216C15.6265 17.1664 27.7299 19.1837 39.1608 27.2525C50.8159 34.8732 57.0917 45.6317 53.7296 50.7868Z" fill="#C6C6C6"/>
<path d="M43.4194 65.8039C39.8332 70.9591 27.7299 68.9418 16.299 60.8729C4.86802 52.804 -1.63193 42.4938 1.95425 37.1145C5.54043 31.9594 17.6438 33.9766 29.0747 42.0455C40.5056 50.1144 46.7814 60.6488 43.4194 65.8039Z" fill="#DADADA"/>
<path d="M53.73 50.787L43.4197 66.0283C39.8335 71.1834 27.7302 68.9421 16.2992 61.0973C14.0579 59.5284 12.0407 57.9594 10.0234 56.1663C11.5924 55.9422 13.6096 55.0456 15.6268 52.8043C19.213 48.994 21.0061 48.0974 22.5751 48.3215C24.144 48.3215 25.9371 49.8905 28.8509 53.7008C31.7646 57.5111 35.7991 58.6318 38.2646 56.6146C38.4887 56.3904 38.7128 56.3904 38.937 56.1663C40.9542 54.5974 41.6266 53.925 45.4369 46.7526C46.3335 44.9595 49.4714 42.0457 53.73 43.3906C54.8506 46.3043 54.8506 48.7698 53.73 50.787Z" fill="#BFBFBF"/>
<path fill-rule="evenodd" clip-rule="evenodd" d="M52.1601 49.8918C49.0222 54.3745 38.0396 52.1332 27.5052 44.7367C16.7467 37.3402 10.4708 27.9265 13.6087 23.4438C16.7467 18.9611 27.7293 21.2024 38.2637 28.5989C48.7981 35.9954 55.0739 45.4091 52.1601 49.8918ZM42.2982 43.1677C40.7292 45.4091 35.3499 44.2884 29.9707 40.7022C24.8156 37.1161 21.6776 32.4092 23.2466 30.1679C24.8156 27.9265 30.1948 29.0472 35.5741 32.6334C40.7292 36.2195 43.8671 40.9264 42.2982 43.1677Z" fill="white"/>
<path d="M11.1436 27.4771C11.1436 27.253 10.9195 27.0289 10.6953 27.253C10.4712 27.4771 10.2471 27.4771 10.2471 27.7013C10.4712 28.3737 10.6953 28.8219 10.6953 29.2702C10.6953 29.4944 10.9195 29.7185 11.1436 29.4944C11.3678 29.4944 11.5919 29.2702 11.3678 29.0461C11.3678 28.5978 11.3678 28.1495 11.1436 27.4771Z" fill="white"/>
<path d="M12.2642 31.065C12.2642 30.8409 12.0401 30.6168 11.8159 30.8409C11.5918 31.065 11.5918 31.065 11.5918 31.2892C14.0573 36.8926 19.2124 42.9442 25.9365 47.427C26.1606 47.6511 26.3848 47.427 26.6089 47.427C26.833 47.2028 26.6089 46.9787 26.6089 46.7545C19.6607 42.2718 14.7297 36.4443 12.2642 31.065Z" fill="white"/>
<path d="M39.3848 53.0293C39.1607 53.0293 38.9365 53.0293 38.9365 53.2534C38.9365 53.4776 38.9365 53.7017 39.1607 53.7017C39.8331 53.9258 40.7296 54.15 41.402 54.3741C41.6262 54.3741 41.8503 54.3741 41.8503 54.15C41.8503 53.9258 41.8503 53.7017 41.6262 53.7017C40.9537 53.4776 40.0572 53.2534 39.3848 53.0293Z" fill="white"/>
<path d="M43.419 53.9238C43.1948 53.9238 42.9707 54.148 42.9707 54.3721C42.9707 54.5962 43.1948 54.8204 43.419 54.8204C45.2121 55.0445 47.2293 55.2686 48.7982 55.0445C49.0224 55.0445 49.2465 54.8204 49.2465 54.5962C49.2465 54.3721 49.0224 54.148 48.7982 54.148C47.0052 54.3721 45.2121 54.148 43.419 53.9238Z" fill="white"/>
<path d="M78.3738 39.0744C78.2574 38.0414 77.7773 37.2412 76.9334 36.6738C76.0896 36.0991 75.0275 35.8118 73.7473 35.8118C72.8307 35.8118 72.0378 35.9573 71.3685 36.2483C70.6993 36.532 70.1792 36.9248 69.8082 37.4267C69.4445 37.9214 69.2626 38.4851 69.2626 39.118C69.2626 39.649 69.3863 40.1073 69.6336 40.4929C69.8882 40.8784 70.2192 41.2021 70.6266 41.464C71.0412 41.7186 71.4849 41.9332 71.9578 42.1078C72.4306 42.2751 72.8852 42.4133 73.3217 42.5224L75.504 43.0898C76.2169 43.2644 76.948 43.5008 77.6972 43.7991C78.4465 44.0973 79.1412 44.4901 79.7813 44.9775C80.4215 45.4649 80.938 46.0687 81.3308 46.7888C81.7309 47.509 81.9309 48.371 81.9309 49.3749C81.9309 50.6406 81.6036 51.7645 80.9489 52.7465C80.3015 53.7286 79.3594 54.5033 78.1228 55.0707C76.8934 55.6381 75.4058 55.9218 73.66 55.9218C71.9869 55.9218 70.5393 55.6563 69.3172 55.1252C68.0951 54.5942 67.1385 53.8413 66.4474 52.8665C65.7564 51.8845 65.3745 50.7206 65.3017 49.3749H68.6843C68.7498 50.1823 69.0117 50.8552 69.4699 51.3935C69.9355 51.9245 70.5284 52.321 71.2485 52.5828C71.976 52.8374 72.7725 52.9647 73.6381 52.9647C74.5911 52.9647 75.4385 52.8156 76.1805 52.5174C76.9298 52.2119 77.519 51.7899 77.9482 51.2516C78.3774 50.7061 78.592 50.0696 78.592 49.3421C78.592 48.6802 78.4028 48.1382 78.0246 47.7163C77.6536 47.2944 77.148 46.9452 76.5079 46.6688C75.875 46.3924 75.1585 46.1487 74.3583 45.9377L71.7177 45.2176C69.9282 44.7302 68.5097 44.0136 67.4622 43.068C66.422 42.1223 65.9019 40.8711 65.9019 39.3144C65.9019 38.0269 66.251 36.903 66.9494 35.9427C67.6477 34.9825 68.5934 34.2369 69.7864 33.7059C70.9794 33.1676 72.3251 32.8984 73.8236 32.8984C75.3367 32.8984 76.6716 33.1639 77.8282 33.695C78.9921 34.226 79.9086 34.9571 80.5779 35.8882C81.2471 36.812 81.5963 37.8741 81.6254 39.0744H78.3738ZM96.315 48.6001V38.7907H99.5885V55.5508H96.3805V52.6483H96.2059C95.8204 53.5431 95.2021 54.2887 94.351 54.8852C93.5071 55.4744 92.456 55.769 91.1975 55.769C90.1209 55.769 89.168 55.5326 88.3387 55.0598C87.5167 54.5797 86.8693 53.8704 86.3965 52.932C85.9309 51.9936 85.6981 50.8334 85.6981 49.4512V38.7907H88.9607V49.0584C88.9607 50.2005 89.2771 51.1098 89.91 51.7863C90.5428 52.4628 91.3648 52.8011 92.376 52.8011C92.987 52.8011 93.5944 52.6483 94.1982 52.3428C94.8093 52.0373 95.3148 51.5753 95.7149 50.957C96.1223 50.3387 96.3223 49.5531 96.315 48.6001ZM116.531 42.8825L113.574 43.4062C113.451 43.028 113.254 42.6679 112.985 42.326C112.723 41.9841 112.367 41.704 111.916 41.4858C111.465 41.2676 110.901 41.1585 110.225 41.1585C109.301 41.1585 108.53 41.3658 107.911 41.7804C107.293 42.1878 106.984 42.7152 106.984 43.3626C106.984 43.9227 107.191 44.3737 107.606 44.7156C108.02 45.0575 108.69 45.3376 109.613 45.5558L112.276 46.1669C113.818 46.5233 114.967 47.0725 115.724 47.8145C116.48 48.5565 116.859 49.5203 116.859 50.7061C116.859 51.7099 116.568 52.6047 115.986 53.3903C115.411 54.1687 114.607 54.7797 113.574 55.2234C112.549 55.6672 111.359 55.889 110.006 55.889C108.13 55.889 106.598 55.4889 105.413 54.6888C104.227 53.8813 103.499 52.7356 103.23 51.2516L106.384 50.7715C106.58 51.5935 106.984 52.2155 107.595 52.6374C108.206 53.052 109.002 53.2594 109.984 53.2594C111.054 53.2594 111.909 53.0375 112.549 52.5938C113.189 52.1427 113.509 51.5935 113.509 50.9461C113.509 50.4224 113.312 49.9823 112.92 49.6258C112.534 49.2694 111.941 49.0002 111.141 48.8184L108.304 48.1964C106.74 47.84 105.583 47.2726 104.834 46.4942C104.092 45.7158 103.721 44.7302 103.721 43.5372C103.721 42.5479 103.998 41.6822 104.551 40.9402C105.103 40.1982 105.867 39.6199 106.842 39.2053C107.817 38.7834 108.933 38.5724 110.192 38.5724C112.003 38.5724 113.429 38.9652 114.469 39.7509C115.509 40.5292 116.197 41.5731 116.531 42.8825ZM123.708 45.5995V55.5508H120.446V33.204H123.665V41.5185H123.872C124.265 40.6165 124.865 39.9 125.673 39.369C126.48 38.8379 127.535 38.5724 128.837 38.5724C129.986 38.5724 130.99 38.8088 131.848 39.2817C132.714 39.7545 133.383 40.4601 133.856 41.3985C134.336 42.3296 134.576 43.4935 134.576 44.8902V55.5508H131.314V45.283C131.314 44.0537 130.997 43.1007 130.364 42.4242C129.732 41.7404 128.851 41.3985 127.724 41.3985C126.953 41.3985 126.262 41.5622 125.651 41.8895C125.047 42.2169 124.57 42.697 124.221 43.3299C123.879 43.9555 123.708 44.712 123.708 45.5995ZM138.93 55.5508V38.7907H142.193V55.5508H138.93ZM140.578 36.2046C140.01 36.2046 139.523 36.0155 139.116 35.6372C138.715 35.2517 138.515 34.7934 138.515 34.2624C138.515 33.7241 138.715 33.2658 139.116 32.8875C139.523 32.502 140.01 32.3092 140.578 32.3092C141.145 32.3092 141.629 32.502 142.029 32.8875C142.436 33.2658 142.64 33.7241 142.64 34.2624C142.64 34.7934 142.436 35.2517 142.029 35.6372C141.629 36.0155 141.145 36.2046 140.578 36.2046ZM159.032 39.0744C158.915 38.0414 158.435 37.2412 157.592 36.6738C156.748 36.0991 155.686 35.8118 154.405 35.8118C153.489 35.8118 152.696 35.9573 152.027 36.2483C151.357 36.532 150.837 36.9248 150.466 37.4267C150.103 37.9214 149.921 38.4851 149.921 39.118C149.921 39.649 150.044 40.1073 150.292 40.4929C150.546 40.8784 150.877 41.2021 151.285 41.464C151.699 41.7186 152.143 41.9332 152.616 42.1078C153.089 42.2751 153.543 42.4133 153.98 42.5224L156.162 43.0898C156.875 43.2644 157.606 43.5008 158.355 43.7991C159.105 44.0973 159.799 44.4901 160.439 44.9775C161.08 45.4649 161.596 46.0687 161.989 46.7888C162.389 47.509 162.589 48.371 162.589 49.3749C162.589 50.6406 162.262 51.7645 161.607 52.7465C160.96 53.7286 160.018 54.5033 158.781 55.0707C157.551 55.6381 156.064 55.9218 154.318 55.9218C152.645 55.9218 151.197 55.6563 149.975 55.1252C148.753 54.5942 147.797 53.8413 147.106 52.8665C146.414 51.8845 146.033 50.7206 145.96 49.3749H149.342C149.408 50.1823 149.67 50.8552 150.128 51.3935C150.594 51.9245 151.186 52.321 151.907 52.5828C152.634 52.8374 153.431 52.9647 154.296 52.9647C155.249 52.9647 156.097 52.8156 156.839 52.5174C157.588 52.2119 158.177 51.7899 158.606 51.2516C159.035 50.7061 159.25 50.0696 159.25 49.3421C159.25 48.6802 159.061 48.1382 158.683 47.7163C158.312 47.2944 157.806 46.9452 157.166 46.6688C156.533 46.3924 155.817 46.1487 155.016 45.9377L152.376 45.2176C150.586 44.7302 149.168 44.0136 148.12 43.068C147.08 42.1223 146.56 40.8711 146.56 39.3144C146.56 38.0269 146.909 36.903 147.607 35.9427C148.306 34.9825 149.251 34.2369 150.444 33.7059C151.637 33.1676 152.983 32.8984 154.482 32.8984C155.995 32.8984 157.33 33.1639 158.486 33.695C159.65 34.226 160.567 34.9571 161.236 35.8882C161.905 36.812 162.254 37.8741 162.283 39.0744H159.032ZM169.99 55.5508L165.058 38.7907H168.429L171.714 51.0989H171.877L175.173 38.7907H178.544L181.818 51.0443H181.982L185.244 38.7907H188.616L183.695 55.5508H180.367L176.962 43.4499H176.711L173.307 55.5508H169.99ZM196.589 55.9218C195.527 55.9218 194.567 55.7254 193.709 55.3326C192.85 54.9325 192.17 54.3541 191.668 53.5976C191.174 52.8411 190.926 51.9136 190.926 50.8152C190.926 49.8695 191.108 49.0912 191.472 48.4801C191.836 47.8691 192.327 47.3853 192.945 47.0289C193.563 46.6724 194.254 46.4033 195.018 46.2214C195.782 46.0396 196.56 45.9013 197.353 45.8068C198.357 45.6904 199.172 45.5958 199.797 45.5231C200.423 45.4431 200.878 45.3158 201.161 45.1412C201.445 44.9666 201.587 44.6829 201.587 44.2901V44.2137C201.587 43.2608 201.318 42.5224 200.779 41.9987C200.248 41.4749 199.455 41.213 198.401 41.213C197.302 41.213 196.437 41.4567 195.804 41.9441C195.178 42.4242 194.745 42.9589 194.505 43.5481L191.439 42.8498C191.803 41.8313 192.334 41.0093 193.032 40.3837C193.738 39.7509 194.549 39.2926 195.465 39.0089C196.382 38.7179 197.346 38.5724 198.357 38.5724C199.026 38.5724 199.735 38.6524 200.485 38.8125C201.241 38.9652 201.947 39.2489 202.602 39.6636C203.264 40.0782 203.806 40.6711 204.227 41.4422C204.649 42.206 204.86 43.1989 204.86 44.421V55.5508H201.674V53.2594H201.543C201.332 53.6813 201.016 54.0959 200.594 54.5033C200.172 54.9106 199.63 55.2489 198.968 55.518C198.306 55.7872 197.513 55.9218 196.589 55.9218ZM197.299 53.303C198.201 53.303 198.972 53.1248 199.612 52.7683C200.259 52.4119 200.75 51.9463 201.085 51.3717C201.427 50.7897 201.598 50.1678 201.598 49.5058V47.3453C201.481 47.4617 201.256 47.5708 200.921 47.6727C200.594 47.7672 200.219 47.8509 199.797 47.9236C199.375 47.9891 198.964 48.0509 198.564 48.1091C198.164 48.16 197.83 48.2037 197.56 48.2401C196.928 48.3201 196.349 48.4546 195.826 48.6438C195.309 48.8329 194.894 49.1057 194.582 49.4621C194.276 49.8113 194.123 50.2769 194.123 50.8588C194.123 51.6663 194.422 52.2773 195.018 52.692C195.615 53.0993 196.375 53.303 197.299 53.303ZM209.206 61.8358V38.7907H212.392V41.5076H212.665C212.854 41.1585 213.127 40.7547 213.483 40.2965C213.84 39.8382 214.334 39.4381 214.967 39.0962C215.6 38.747 216.437 38.5724 217.477 38.5724C218.83 38.5724 220.037 38.9143 221.099 39.5981C222.161 40.2819 222.994 41.2676 223.598 42.5551C224.209 43.8427 224.515 45.3921 224.515 47.2035C224.515 49.0148 224.213 50.5678 223.609 51.8627C223.005 53.1502 222.176 54.1432 221.121 54.8415C220.066 55.5326 218.863 55.8781 217.509 55.8781C216.491 55.8781 215.658 55.7072 215.011 55.3653C214.371 55.0234 213.869 54.6233 213.505 54.165C213.141 53.7067 212.861 53.2994 212.665 52.9429H212.468V61.8358H209.206ZM212.403 47.1707C212.403 48.3492 212.574 49.3821 212.916 50.2696C213.258 51.1571 213.752 51.8518 214.4 52.3537C215.047 52.8484 215.84 53.0957 216.778 53.0957C217.753 53.0957 218.568 52.8374 219.223 52.321C219.877 51.7972 220.372 51.088 220.707 50.1932C221.048 49.2985 221.219 48.291 221.219 47.1707C221.219 46.065 221.052 45.0721 220.717 44.1919C220.39 43.3117 219.895 42.617 219.233 42.1078C218.579 41.5986 217.76 41.344 216.778 41.344C215.833 41.344 215.033 41.5877 214.378 42.075C213.73 42.5624 213.239 43.2426 212.905 44.1155C212.57 44.9884 212.403 46.0068 212.403 47.1707Z" fill="white"/>
</svg>
