<svg width="227" height="88" viewBox="0 0 227 88" fill="none" xmlns="http://www.w3.org/2000/svg">
<g clip-path="url(#clip0_2038_11764)">
<path d="M135.42 33.5616C136.735 33.3296 138.004 32.9104 139.337 32.6694C143.686 31.8753 147.477 32.9281 150.952 35.4441C151.564 35.8902 152.069 36.6664 152.915 36.3007C153.896 35.8635 153.779 34.8731 153.779 33.99C153.779 28.8865 153.77 23.7744 153.779 18.6709C153.788 15.8695 153.797 15.8784 156.706 15.8873C158.317 15.8963 159.929 15.8517 161.532 15.8695C162.801 15.8784 163.531 16.3156 163.531 17.7965C163.495 35.0961 163.486 52.3957 163.531 69.6865C163.531 71.0515 162.991 71.3905 161.784 71.3727C159.56 71.337 157.336 71.3458 155.121 71.337C154.473 71.337 154.031 71.2655 153.797 70.4626C153.203 68.4017 152.672 68.3481 150.907 69.6952C150.574 69.9452 150.34 70.5251 149.755 70.4536C149.178 70.4359 148.557 70.3289 148.413 71.1407C148.35 71.1853 148.278 71.212 148.197 71.203C146.909 71.3905 145.604 71.5332 144.676 72.595C144.379 72.6306 144.082 72.6573 143.785 72.6931C142.317 72.3541 140.85 72.3541 139.382 72.6841C139.202 72.6573 139.013 72.6396 138.824 72.6128C138.626 71.6314 137.941 71.7831 137.248 71.9436C137.086 71.9169 136.924 71.8901 136.762 71.8634C135.51 70.7391 133.952 70.2664 132.385 69.8292H132.395C131.512 68.4106 130.099 67.6522 128.703 66.8492C126.614 64.7704 125.281 62.2545 124.399 59.4887C123.634 57.0708 123.021 54.5906 123.183 52.0567C123.516 46.7482 125.146 41.8946 128.883 37.9067C128.973 37.8084 129.198 37.8174 129.351 37.7817C129.945 37.7907 130.099 37.407 130.144 36.9251L130.162 36.8716C131.341 36.4791 132.404 35.9349 133.088 34.8464C133.664 34.8821 134.249 34.9446 134.42 34.1862C134.97 34.3289 135.285 34.088 135.42 33.5616ZM154.257 52.4671C154.446 46.186 149.448 41.2167 143.398 41.4129C137.905 41.5914 132.755 46.6144 133.142 53.0648C133.493 58.8998 137.545 63.6106 143.875 63.6106C149.836 63.6016 154.383 58.9355 154.257 52.4671Z" fill="white"/>
<path d="M207.732 57.9976C207.732 62.405 207.695 66.0809 207.75 69.7657C207.768 70.8898 207.381 71.3627 206.237 71.3448C203.851 71.3092 201.455 71.327 199.07 71.3359C198.233 71.3447 197.755 71.1485 197.773 70.1404C197.791 68.8646 197.054 68.4719 195.901 69.141C194.657 69.8549 193.487 70.6756 192.217 71.3627C185.915 74.7887 176.136 71.9159 172.985 65.2958C170.581 60.255 171.661 53.4385 177.064 49.8787C181.737 46.8007 186.851 46.7649 192.073 47.2111C193.668 47.3449 195.206 48.0052 196.784 48.3887C197.556 48.5762 197.791 48.246 197.837 47.4341C198.007 44.1598 195.297 41.5279 191.984 40.6803C187.922 39.6452 184.293 40.6268 181.206 43.4282C180.233 44.3025 179.514 44.481 178.396 43.5441C177.073 42.4378 175.524 41.5814 174.029 40.6803C173.012 40.0646 172.967 39.3509 173.759 38.6283C176.263 36.3531 178.918 34.4349 182.295 33.4356C186.599 32.1598 190.894 32.1062 195.197 32.9271C200.979 34.0334 206.148 37.6112 207.281 44.9359C208.002 49.5486 207.398 54.1344 207.732 57.9976ZM196.531 55.5352C196.432 55.3567 196.368 55.0713 196.215 55.0088C192.938 53.6617 189.535 53.7152 186.103 54.2416C185.78 54.2951 185.446 54.4021 185.366 54.7948C184.835 54.7678 184.7 55.3032 184.331 55.5174C182.395 56.6505 181.521 58.4795 181.863 60.6207C182.224 62.8689 183.835 64.3144 185.798 64.7159C191.489 65.8667 195.514 63.779 197.674 58.2386C198.061 57.2392 198.116 55.9366 196.531 55.5352Z" fill="white"/>
<path d="M76.92 54.0622C76.92 50.2347 76.9021 47.2101 76.9291 44.1945C76.9382 42.758 76.4428 41.9463 74.8222 42.0623C73.7147 42.1426 72.5982 42.0711 71.4907 42.0711C70.4282 42.0621 69.8338 41.6161 69.852 40.4831C69.879 38.6718 69.8608 36.8608 69.8608 35.0406C69.8608 34.0415 70.3561 33.5418 71.3646 33.5328C72.5891 33.524 73.8136 33.4526 75.0293 33.5418C76.443 33.64 76.8931 32.9173 76.8931 31.695C76.9021 29.0006 76.9382 26.3061 76.8751 23.6207C76.8481 22.4251 77.2263 21.9701 78.4778 22.0147C80.6478 22.0949 82.8178 22.0861 84.9787 22.0147C86.4734 21.9701 86.8967 22.6749 86.8786 24.0132C86.8336 26.5381 86.9056 29.0719 86.8606 31.5968C86.8425 32.9441 87.1127 33.7203 88.7875 33.5685C90.7143 33.3991 92.6772 33.5328 94.6221 33.5328C95.7477 33.5328 96.2969 34.0592 96.2879 35.1833C96.2699 36.8876 96.2609 38.5916 96.2879 40.2956C96.3058 41.5982 95.6577 42.1246 94.388 42.1068C92.3891 42.0801 90.3813 42.1514 88.3823 42.0801C87.3198 42.0444 86.8606 42.3833 86.8695 43.4451C86.9056 48.7179 86.8967 53.9819 86.9326 59.2547C86.9596 62.5825 90.0301 64.0815 93.5235 63.1089C94.8562 62.7432 95.2795 63.3766 95.5676 64.242C96.1529 66.0354 96.414 67.9447 97.1524 69.6577C97.7376 71.0316 96.9182 71.4332 96.0717 71.7097C91.5697 73.1817 87.0587 73.4672 82.7727 71.0852C80.3146 69.7202 78.5678 67.7038 77.6314 64.9559C76.3257 61.0927 77.2803 57.1492 76.92 54.0622Z" fill="white"/>
<path d="M217.123 43.7404C217.123 35.1755 217.123 26.6015 217.123 18.0365C217.123 16.0826 217.366 15.8595 219.32 15.8774C221.04 15.8952 222.75 15.8952 224.471 15.8685C226.505 15.8417 226.937 16.2253 226.937 18.2149C226.947 35.3538 226.947 52.4839 227.001 69.623C227.001 70.8363 226.56 71.3627 225.398 71.3627C223.12 71.3627 220.842 71.2645 218.564 71.3537C217.132 71.4072 217.123 70.6311 217.123 69.605C217.123 60.9865 217.114 52.3679 217.123 43.7404Z" fill="white"/>
<path d="M34.5019 39.0224C31.5847 38.6031 28.5593 39.9057 25.4619 40.8871C21.1668 42.2522 16.818 42.3236 12.3699 41.6187C9.71372 41.1993 7.32766 40.0842 4.79752 39.3703C3.90611 39.1206 2.93367 39.1563 1.98824 39.0671C0.682651 38.9511 -0.13675 38.5049 -0.0106927 36.9436C0.124369 35.3109 0.0793659 33.6514 0.00733309 32.0098C-0.0376873 30.9838 0.358483 30.6983 1.34893 30.6715C4.28427 30.5913 7.11157 31.2604 9.74976 32.331C12.496 33.4374 15.2602 33.5534 18.1146 33.6158C21.2389 33.6871 24.0933 32.786 26.9475 31.6709C28.2172 31.1712 29.6308 30.9035 30.9994 30.8143C35.9606 30.4753 40.8588 30.5378 45.5679 32.6612C46.9637 33.2946 48.6294 33.7586 50.3312 33.5534C51.7809 33.3839 52.4021 34.1333 52.3211 35.5964C52.231 37.0774 52.2401 38.5674 52.3211 40.0395C52.4021 41.5562 51.7268 42.1004 50.2591 42.0202C47.7109 41.8774 45.1988 41.3868 42.8757 40.4321C40.3006 39.3793 37.6895 38.9601 34.5019 39.0224Z" fill="white"/>
<path d="M39.6976 46.3101C42.5068 47.1042 45.3251 47.8448 48.1074 48.7192C48.9268 48.9779 49.728 49.0849 50.5474 49.0582C51.8801 49.0225 52.3032 49.6916 52.2943 50.8872C52.2852 52.5287 52.3753 54.1793 52.3392 55.821C52.3122 56.9451 51.7991 57.6678 50.4754 57.4805C47.306 57.0343 44.1905 56.383 41.1651 55.3213C37.0233 53.8581 32.8634 53.876 28.6944 55.3303C24.3905 56.8381 19.9695 57.9087 15.3775 57.427C12.064 57.079 8.79548 56.4454 5.68908 55.0804C4.45552 54.5452 2.98783 54.4917 1.61921 54.34C0.493701 54.215 -0.0645248 53.8581 0.016512 52.609C0.124561 50.9139 0.106515 49.2099 0.0344828 47.5057C-0.0285458 46.0604 0.8629 45.8731 1.93438 45.9801C5.83315 46.3638 9.46177 47.8181 13.2165 48.7727C15.9807 49.4774 18.934 49.4329 21.7614 48.728C24.6157 48.0143 27.4339 47.131 30.2703 46.3191C33.4037 46.3013 36.546 46.3101 39.6976 46.3101Z" fill="white"/>
<path d="M26.0833 63.4128C34.2049 63.4128 42.3177 63.4485 50.4393 63.3771C51.8439 63.3683 52.3121 63.859 52.2942 65.1348C52.2672 66.7853 52.303 68.4269 52.3121 70.0776C52.3212 71.0054 51.8439 71.5049 50.9075 71.5317C50.0162 71.5586 49.1337 71.5496 48.2423 71.5496C33.1786 71.5496 18.1056 71.5496 3.04181 71.5496C2.65463 71.5496 2.26747 71.5317 1.87128 71.5317C0.538677 71.5229 -0.136644 71.0322 -0.00158269 69.5511C0.133479 68.0254 0.133487 66.4731 0.00743019 64.9385C-0.100619 63.6627 0.349576 63.3771 1.57413 63.386C9.74085 63.4395 17.9165 63.4128 26.0833 63.4128Z" fill="white"/>
<path d="M105.689 52.4127C105.689 46.7025 105.725 40.9926 105.662 35.2826C105.644 33.9443 106.013 33.4179 107.436 33.4981C109.426 33.6051 111.433 33.5159 113.432 33.5249C115.359 33.5339 115.611 33.7836 115.611 35.6841C115.611 44.0259 115.602 52.377 115.602 60.7188C115.602 63.6809 115.548 66.652 115.638 69.614C115.674 70.8364 115.224 71.3448 114.053 71.3448C111.667 71.3448 109.281 71.3181 106.904 71.3271C105.707 71.336 105.662 70.6044 105.662 69.7033C105.698 63.9396 105.689 58.1762 105.689 52.4127Z" fill="white"/>
<path d="M104.293 21.8018C104.131 17.5729 107.183 15.6547 110.199 15.3424C113.792 14.9677 117.007 18.1706 117.078 21.8108C117.142 24.5319 114.44 28.1274 110.506 28.0829C107.354 28.0382 103.933 25.4063 104.293 21.8018Z" fill="white"/>
</g>
<defs>
<clipPath id="clip0_2038_11764">
<rect width="227" height="88" fill="white"/>
</clipPath>
</defs>
</svg>
