<svg width="227" height="88" viewBox="0 0 227 88" fill="none" xmlns="http://www.w3.org/2000/svg">
<g clip-path="url(#clip0_2799_14442)">
<path d="M142.812 34.5547C144.231 34.5547 145.589 34.5747 146.947 34.5547C147.606 34.5347 147.586 35.0541 147.706 35.4336C148.945 39.2488 150.163 43.064 151.382 46.8792C151.482 47.2187 151.502 47.6182 151.861 47.8779C153.259 43.7231 154.678 39.5883 156.036 35.4336C156.256 34.7345 156.575 34.4748 157.294 34.5347C158.093 34.5946 158.892 34.5946 159.691 34.5347C160.33 34.4948 160.61 34.7145 160.81 35.3537C162.068 39.3287 163.367 43.3037 164.665 47.2786C164.725 47.4984 164.705 47.758 165.044 47.9378C165.803 45.6407 166.563 43.3836 167.302 41.1064C167.941 39.1489 168.62 37.2113 169.219 35.2338C169.399 34.6745 169.659 34.5147 170.218 34.5347C171.077 34.5747 171.956 34.5946 172.815 34.5347C173.634 34.4748 173.753 34.6945 173.494 35.4536C171.656 40.9666 169.878 46.4797 168.061 51.9927C167.421 53.9103 167.421 53.9303 165.384 53.9103C164.465 53.8903 163.307 54.2898 162.667 53.7505C162.088 53.2511 162.028 52.1325 161.749 51.2936C160.65 47.9378 159.551 44.5621 158.453 41.1664C158.013 41.3461 158.053 41.7257 157.953 42.0053C156.695 45.7006 155.437 49.4159 154.218 53.1313C154.018 53.7505 153.759 53.9702 153.119 53.9303C152.021 53.8703 150.922 53.8903 149.824 53.9303C149.364 53.9502 149.125 53.8304 148.965 53.351C146.967 47.2387 144.95 41.1264 142.952 35.0141C142.872 34.8943 142.872 34.7744 142.812 34.5547Z" fill="white"/>
<path d="M125.695 41.0646C125.316 41.7638 125.096 42.7425 124.557 42.9822C124.077 43.2019 123.238 42.5827 122.539 42.363C121.481 42.0434 120.382 42.0434 119.283 42.1633C119.084 42.1832 118.884 42.2232 118.704 42.3031C118.105 42.5028 117.566 42.8024 117.585 43.5215C117.605 44.2406 118.185 44.4404 118.744 44.5602C120.362 44.9198 122.02 45.1595 123.598 45.6189C126.195 46.358 127.293 48.7749 126.195 51.092C125.635 52.2705 124.697 53.0695 123.498 53.469C120.142 54.6275 116.826 54.3479 113.63 52.8498C113.231 52.67 113.071 52.4702 113.311 52.0108C113.69 51.2718 113.83 50.293 114.409 49.8136C115.129 49.2144 115.828 50.2131 116.587 50.3929C118.065 50.7524 119.523 50.9921 121.021 50.7324C121.68 50.6126 122.379 50.4328 122.399 49.5539C122.419 48.695 121.72 48.5752 121.121 48.4353C119.703 48.0758 118.225 48.0159 116.826 47.6164C114.609 46.9772 113.571 45.8786 113.451 43.981C113.331 42.0035 114.37 40.3655 116.327 39.5466C119.084 38.408 121.88 38.5878 124.617 39.4866C125.775 39.8661 126.754 39.0272 127.833 39.3268C127.992 39.3668 128.072 39.1471 128.072 38.9673C128.072 38.7675 128.072 38.5678 128.092 38.368C128.152 37.5291 127.713 36.3706 128.292 35.9111C128.831 35.4917 129.95 35.7513 130.809 35.7513C132.427 35.7314 132.427 35.7513 132.427 37.3493C132.427 39.3668 132.427 39.3668 134.464 39.3668C136.142 39.3668 136.142 39.3668 136.142 41.0047C136.142 42.6826 136.142 42.6826 134.484 42.6826C132.427 42.6826 132.427 42.6826 132.427 44.7001C132.427 45.9385 132.407 47.157 132.427 48.3954C132.447 50.3929 133.545 51.1719 135.443 50.4528C136.042 50.2131 136.182 50.4128 136.342 50.8723C136.482 51.2718 136.641 51.6912 136.781 52.0907C137.261 53.3691 137.261 53.4091 135.982 53.8086C134.484 54.268 132.966 54.288 131.468 53.8285C129.51 53.2493 128.412 51.891 128.192 49.8735C127.972 47.7562 128.132 45.6189 128.112 43.5016C128.112 43.0222 128.072 42.7026 127.433 42.6826C125.895 42.6027 125.895 42.5827 125.695 41.0646Z" fill="white"/>
<path d="M216 42.6443C215.601 42.9639 215.96 43.2635 216.06 43.5232C216.42 44.6018 216.579 45.7005 216.579 46.859C216.579 47.5581 216.3 47.7379 215.621 47.7379C212.465 47.6979 209.309 47.7179 206.133 47.7179C205.134 47.7179 205.094 47.8178 205.573 48.6967C206.692 50.7141 209.988 51.4133 212.205 49.9551C213.124 49.3359 213.623 49.4358 214.143 50.2747C214.202 50.3945 214.322 50.4744 214.402 50.5743C215.641 51.8727 215.641 51.9726 214.123 52.9313C210.407 55.2684 204.495 54.2697 202.158 50.834C200.48 48.3771 200.36 45.7204 201.598 43.0638C202.897 40.3272 205.254 38.9889 208.21 38.8291C211.226 38.6693 213.763 39.6481 215.441 42.3247C215.541 42.4845 215.561 42.9439 215.98 42.6643C216 42.6643 216 42.6443 216 42.6443ZM208.809 45.1611C209.828 45.1611 210.867 45.1412 211.885 45.1611C212.365 45.1811 212.445 45.0013 212.325 44.5619C211.965 43.1437 210.547 42.105 208.869 42.085C207.131 42.065 205.673 43.0438 205.254 44.482C205.094 45.0413 205.274 45.1811 205.813 45.1611C206.832 45.1412 207.83 45.1611 208.809 45.1611Z" fill="white"/>
<path d="M182.183 52.432C180.086 54.5094 177.609 54.5294 175.072 53.6505C173.195 53.0113 172.176 51.4133 172.216 49.5157C172.256 47.5981 173.335 46.2199 175.292 45.5807C177.13 44.9814 179.047 45.1812 180.925 45.1612C182.143 45.1412 182.323 44.9215 181.764 43.8029C181.085 42.4246 179.806 42.2249 178.468 42.2449C177.15 42.2648 175.891 42.5844 174.773 43.3035C174.413 43.5432 174.213 43.5432 174.034 43.1038C173.854 42.6843 173.634 42.2648 173.414 41.8653C172.655 40.4471 172.655 40.4272 174.114 39.8079C176.61 38.7692 179.187 38.4497 181.824 39.0888C184.74 39.8079 186.258 41.7455 186.378 44.9614C186.458 47.718 186.398 50.4745 186.398 53.231C186.398 53.7304 186.258 53.9701 185.719 53.9301C185.16 53.8902 184.58 53.9301 184.021 53.9301C182.443 53.9301 182.443 53.9301 182.183 52.432ZM178.868 51.1936C180.905 51.1936 182.223 49.9551 182.064 48.2373C182.024 47.8778 181.924 47.698 181.544 47.698C180.346 47.7379 179.147 47.698 177.969 47.7979C177.33 47.8378 176.73 48.1774 176.531 48.8565C176.351 49.4957 176.411 50.1149 176.93 50.6143C177.469 51.1337 178.168 51.2136 178.868 51.1936Z" fill="white"/>
<path d="M107.978 52.3715C105.381 54.369 102.245 54.6885 99.9077 53.2703C97.9102 52.0719 97.1712 50.1543 97.1112 47.957C97.0313 45.2005 97.1112 42.444 97.0713 39.6875C97.0713 39.0882 97.311 38.9684 97.8503 38.9884C98.8091 39.0283 99.7879 39.0283 100.747 38.9884C101.346 38.9684 101.466 39.2081 101.466 39.7474C101.446 41.9646 101.446 44.2018 101.466 46.419C101.466 46.8584 101.466 47.2779 101.526 47.7173C101.745 49.3353 102.624 50.2142 104.042 50.354C105.78 50.5138 107.099 49.7548 107.618 48.2966C107.838 47.6574 107.898 46.9983 107.898 46.3391C107.898 44.1818 107.918 42.0245 107.878 39.8672C107.858 39.2281 108.017 38.9684 108.697 39.0083C109.595 39.0683 110.494 39.0683 111.393 39.0083C112.132 38.9484 112.252 39.268 112.252 39.9272C112.232 44.3216 112.232 48.6961 112.252 53.0906C112.252 53.8097 112.032 54.0294 111.353 53.9695C110.834 53.9095 110.295 53.9495 109.755 53.9495C108.177 53.9295 108.177 53.9295 107.978 52.3715Z" fill="white"/>
<path d="M78.3943 34.5332C80.9112 34.5332 83.448 34.5532 85.9648 34.5132C86.604 34.5132 86.8836 34.673 86.8037 35.3522C86.7039 36.271 87.2032 37.4895 86.584 38.0088C86.0647 38.4683 84.8862 38.1487 83.9873 38.1686C83.1483 38.1886 82.3294 38.2286 81.4904 38.1487C80.7314 38.0887 80.5516 38.3484 80.5516 39.0875C80.5916 43.6617 80.5516 48.2559 80.5916 52.8301C80.5916 53.729 80.3519 54.0087 79.493 53.9088C78.3744 53.7889 76.9162 54.3682 76.2371 53.6891C75.5979 53.0499 76.0773 51.6117 76.0773 50.5131C76.0573 46.6979 76.0373 42.8827 76.0972 39.0675C76.0972 38.2885 75.8775 38.1287 75.1584 38.1487C73.6403 38.2086 72.1023 38.1487 70.5642 38.1686C70.0449 38.1686 69.8451 38.0488 69.8851 37.5095C69.945 36.5507 69.5855 35.3322 70.0649 34.713C70.5043 34.1138 71.8027 34.5532 72.7215 34.5332C74.6191 34.5132 76.5167 34.5332 78.3943 34.5332Z" fill="white"/>
<path d="M28.9767 72.8856C25.4811 72.8856 21.9855 72.9455 18.5099 72.8656C14.2952 72.7857 10.56 71.2876 7.28409 68.6509C3.54881 65.6347 1.29166 61.7396 0.332865 57.0655C0.153092 56.1866 0.0532173 55.2878 0.0532173 54.4089C0.0332425 47.4976 -0.0666318 40.5863 0.0731918 33.675C0.173066 29.1807 1.87092 25.1857 4.94704 21.81C7.70357 18.7938 11.0194 16.6765 15.0143 15.7576C16.3726 15.438 17.7309 15.2383 19.1292 15.2383C25.5411 15.2583 31.9729 15.2383 38.3849 15.2383C43.0789 15.2383 47.1937 16.7763 50.8092 19.7925C54.6843 23.0285 56.8416 27.2032 57.6605 32.097C57.8603 33.2356 57.8803 34.3941 57.8803 35.5527C57.9002 41.2255 57.9402 46.9183 57.8603 52.5912C57.8203 55.4276 57.4808 58.264 56.3023 60.9207C53.4259 67.3725 48.552 71.3275 41.6008 72.6858C40.8418 72.8256 40.0827 72.8656 39.3237 72.8656C35.908 72.8856 32.4523 72.8856 28.9767 72.8856ZM57.1212 44.1418C57.1212 41.4252 57.1212 38.6887 57.1212 35.9721C57.1212 34.3741 57.2011 32.7961 56.8815 31.2181C55.0638 22.3693 47.4734 15.8375 38.1851 15.8575C32.8718 15.8775 27.5385 15.8375 22.2252 15.8775C20.5074 15.8775 18.7896 15.7976 17.0518 16.0373C13.0169 16.5966 9.5013 18.2345 6.565 21.031C2.51012 24.8462 0.632487 29.6201 0.632487 35.1532C0.632487 41.1256 0.632487 47.1181 0.632487 53.0905C0.632487 57.5849 1.87092 61.6397 4.72732 65.1553C8.42266 69.7096 13.1767 72.2264 19.0892 72.2863C25.8806 72.3462 32.6521 72.2863 39.4435 72.3063C40.3224 72.3063 41.1614 72.1465 42.0003 71.9867C46.2949 71.0878 49.8704 69.0304 52.7268 65.6547C55.4833 62.3988 57.0014 58.6635 57.1212 54.4288C57.2011 50.9932 57.1212 47.5575 57.1212 44.1418Z" fill="white"/>
<path d="M216.001 42.6437L216.021 42.6637C216.021 41.8047 216.041 40.9258 216.001 40.0669C215.961 39.4877 216.18 39.2879 216.74 39.3478C216.999 39.3878 217.279 39.3279 217.539 39.3678C218.198 39.4477 218.338 39.1281 218.298 38.5488C218.258 37.8298 218.318 37.0907 218.278 36.3516C218.258 35.8722 218.438 35.7124 218.917 35.7124C219.956 35.7324 220.974 35.7324 222.013 35.7124C222.492 35.6925 222.652 35.8722 222.632 36.3316C222.592 37.0907 222.652 37.8697 222.612 38.6287C222.572 39.208 222.812 39.3878 223.371 39.3478C224.13 39.3079 224.909 39.3678 225.668 39.3279C226.248 39.2879 226.388 39.5276 226.388 40.0669C226.447 42.6637 226.467 42.7036 223.831 42.6437C222.892 42.6237 222.552 42.8235 222.612 43.8222C222.712 45.3403 222.632 46.8783 222.632 48.3964C222.652 50.314 223.791 51.1529 225.589 50.4139C226.228 50.1542 226.388 50.334 226.547 50.8533C226.647 51.1729 226.767 51.4725 226.887 51.7921C227.486 53.3502 227.426 53.49 225.768 53.8895C224.41 54.2091 223.052 54.1891 221.733 53.8296C219.556 53.2303 218.358 51.5325 218.318 48.9158C218.278 47.1979 218.258 45.4601 218.338 43.7423C218.378 42.8634 218.118 42.5238 217.239 42.6437C216.8 42.7436 216.4 42.6637 216.001 42.6437Z" fill="white"/>
<path d="M188.595 43.6823C188.595 40.5263 188.615 37.3702 188.575 34.2142C188.575 33.595 188.695 33.3154 189.394 33.3553C190.353 33.4152 191.332 33.3953 192.291 33.3553C192.81 33.3353 192.97 33.5151 192.97 34.0344C192.95 40.4064 192.95 46.7983 192.97 53.1703C192.97 53.7096 192.83 53.9493 192.251 53.9094C191.292 53.8694 190.313 53.8494 189.354 53.9094C188.715 53.9493 188.575 53.7096 188.575 53.1104C188.615 49.9943 188.595 46.8383 188.595 43.6823Z" fill="white"/>
<path d="M199.621 43.6626C199.621 46.7787 199.601 49.8948 199.641 53.0108C199.661 53.7699 199.422 53.9896 198.683 53.9297C197.864 53.8697 197.025 53.8697 196.186 53.9297C195.427 53.9896 195.227 53.7299 195.247 52.9909C195.287 48.2169 195.267 43.4429 195.267 38.649C195.267 37.1908 195.307 35.7326 195.247 34.2745C195.207 33.4955 195.487 33.2957 196.206 33.3556C197.065 33.4156 197.943 33.4156 198.802 33.3556C199.462 33.3157 199.641 33.5354 199.641 34.1946C199.601 37.3506 199.621 40.5066 199.621 43.6626Z" fill="white"/>
<path d="M91.039 40.9051C92.3174 39.4669 93.7755 38.9875 95.3735 38.8078C95.9328 38.7478 96.2524 38.8477 96.2125 39.5268C96.1525 40.3858 96.1725 41.2447 96.2125 42.1236C96.2324 42.6629 96.0327 42.7827 95.5134 42.7827C92.4372 42.8227 91.2587 44.0611 91.2387 47.0973C91.2387 49.0948 91.2188 51.0723 91.2587 53.0698C91.2787 53.689 91.1389 53.9686 90.4397 53.9287C89.5209 53.8688 88.5821 53.8688 87.6433 53.9287C87.0041 53.9686 86.8643 53.709 86.8643 53.1297C86.8842 48.6753 86.8842 44.2409 86.8643 39.7865C86.8643 39.1673 87.044 38.9676 87.6632 39.0075C88.4622 39.0475 89.2612 39.0674 90.0602 39.0075C90.8392 38.9476 91.1788 39.1873 91.039 39.9863C91.019 40.186 91.039 40.4257 91.039 40.9051Z" fill="white"/>
<path d="M44.157 37.3098C43.8973 40.8853 43.6976 44.4608 43.1782 48.0163C42.4592 52.8902 40.1421 56.4856 35.5878 58.583C33.7102 59.4419 31.9724 60.5405 30.2945 61.759C29.5954 62.2584 28.8363 62.3982 28.1572 61.9188C25.8201 60.2609 23.2833 58.9625 20.7865 57.5443C17.0712 55.4469 15.653 51.9713 15.0138 48.0163C14.2148 43.0825 14.1149 38.0888 14.015 33.1151C13.9951 31.6769 14.7341 30.9978 16.2922 31.0178C20.1074 31.0577 23.6828 30.2787 26.8588 28.0615C27.1585 27.8418 27.4381 27.622 27.7377 27.4023C28.7365 26.6233 29.4356 26.6033 30.4343 27.4023C33.5504 29.8992 37.1459 30.9578 41.0809 31.0178C41.5203 31.0178 41.9398 30.9978 42.3793 31.0377C43.4579 31.1176 44.137 31.8367 44.157 32.9353C44.177 34.3735 44.157 35.8517 44.157 37.3098ZM17.7503 38.8479C18.01 41.7043 18.1498 44.5407 18.6092 47.3771C19.1086 50.5132 20.1873 53.2497 23.2833 54.7878C25.161 55.7266 26.9987 56.7253 28.7165 57.9238C29.076 58.1635 29.2958 58.0037 29.5954 57.8439C31.2533 56.8652 32.8912 55.8265 34.6091 54.9875C37.3656 53.6093 38.8237 51.412 39.403 48.4358C40.242 44.0813 40.3019 39.6669 40.5216 35.2524C40.5416 34.6332 40.222 34.6332 39.8025 34.6132C36.1072 34.3935 32.6915 33.3548 29.6154 31.2974C29.3357 31.1176 29.096 30.9578 28.7365 31.2175C25.6204 33.3548 22.1248 34.4335 18.3695 34.6132C17.8902 34.6332 17.7503 34.813 17.7503 35.2924C17.7503 36.4709 17.7503 37.6694 17.7503 38.8479Z" fill="white"/>
</g>
<defs>
<clipPath id="clip0_2799_14442">
<rect width="227" height="88" fill="white"/>
</clipPath>
</defs>
</svg>
