<svg width="227" height="88" viewBox="0 0 227 88" fill="none" xmlns="http://www.w3.org/2000/svg">
<path d="M226.983 50.6968C226.175 50.6807 225.237 50.9233 224.606 50.5836C224.007 50.2601 223.959 49.2411 223.684 48.5132C222.438 45.3105 221.225 42.124 219.996 38.9213C219.931 38.7595 219.85 38.5978 219.769 38.4198C219.462 38.4845 219.494 38.7595 219.43 38.9213C218.022 42.5607 216.583 46.2001 215.224 49.8719C214.965 50.5513 214.658 50.8101 213.962 50.713C213.493 50.6483 212.992 50.6968 212.426 50.6968C213.283 48.5132 214.124 46.4104 214.965 44.3076C215.952 41.8166 216.955 39.3418 217.925 36.8347C218.119 36.3494 218.346 36.1715 218.864 36.2038C219.656 36.2685 220.643 35.8965 221.225 36.3494C221.759 36.7538 221.872 37.7243 222.163 38.436C223.684 42.2372 225.188 46.0546 226.692 49.8557C226.757 50.0337 226.741 50.2925 227 50.3572C226.983 50.4866 226.983 50.5836 226.983 50.6968Z" fill="white"/>
<path d="M33.6895 17.1655C34.11 16.5023 34.8864 16.4214 35.4687 16.0332C35.8408 16.0332 36.229 16.0332 36.601 16.0332C37.8141 16.5023 38.8655 17.1169 39.2214 18.4918C39.2861 18.7506 39.5125 18.7506 39.739 18.783C45.9179 19.4947 51.466 21.7592 56.3509 25.5928C56.6259 25.8192 56.8362 25.8839 57.192 25.6736C58.6478 24.8002 60.2168 24.9781 61.3167 26.078C62.449 27.2103 62.6269 28.7469 61.7373 30.2027C61.5108 30.5586 61.5755 30.7527 61.802 31.0276C62.0123 31.2703 62.174 31.5452 62.3519 31.804C61.4785 31.7717 60.8315 31.2217 60.1036 30.8335C59.7963 30.6718 59.4081 30.51 59.3757 30.0571C60.4109 29.491 60.7991 28.8602 60.605 28.0676C60.3786 27.0971 59.4728 26.5633 58.5346 26.8059C57.5803 27.0485 57.1597 27.922 57.4185 29.0866C56.7877 29.119 56.3509 28.4881 55.7039 28.6013C55.6878 28.4396 55.6231 28.2617 55.6878 28.1323C55.9627 27.4044 55.5745 27.0485 55.0407 26.6441C52.6145 24.8002 49.9941 23.3121 47.1311 22.2445C44.5107 21.274 41.8256 20.5461 39.0111 20.4167C38.7038 19.9638 38.2347 19.7859 37.7171 19.7535C37.6524 17.9095 36.4069 17.2463 34.8217 18.2007C34.7408 17.5375 34.1262 17.4566 33.6895 17.1655Z" fill="white"/>
<path d="M10.0905 29.5877C9.57285 28.2452 9.89636 26.8703 10.9316 25.9483C11.983 25.0101 13.5196 24.816 14.7328 25.5601C15.2504 25.8836 15.5577 25.8189 15.9621 25.4469C16.5767 24.8969 17.2561 24.4116 18.0001 24.0234C18.0001 24.3631 18.2266 24.541 18.5178 24.6543C18.7604 24.7675 19.003 24.8969 19.003 25.2204C18.1295 25.7057 17.3855 26.3527 16.6252 26.9997C16.0915 27.4688 16.3017 28.779 16.9488 29.0378C19.7632 30.17 22.5777 31.3023 25.3922 32.4507C25.8775 32.6448 26.1039 32.5316 26.3627 32.1272C27.0097 31.1405 27.7053 30.1862 28.3846 29.2319C28.8537 29.4421 29.161 29.9436 29.711 30.0406C29.1287 30.9141 28.5787 31.8037 27.9641 32.6448C27.6082 33.1301 27.5921 33.3565 28.2229 33.5992C29.4846 34.0521 30.7139 34.602 31.9594 35.1035C31.8785 35.4917 32.2343 35.6049 32.4608 35.7505C33.1402 36.171 33.8357 36.5592 34.5312 36.9636C34.3695 38.0959 34.5959 38.7429 35.34 39.1634C36.0679 39.5678 36.6825 39.4546 37.556 38.7267C37.9118 39.1149 38.6397 39.0664 38.7368 39.7619C38.5427 39.9399 38.3971 40.1501 38.1383 40.2634C37.1193 40.7163 36.6664 41.4765 36.8605 42.6088C36.3428 42.5764 35.8576 42.172 35.3076 42.447C35.3723 41.5089 35.2591 40.6677 34.1592 40.3442C34.046 40.3119 33.9327 40.1987 33.8519 40.0854C33.5445 39.6325 33.1725 39.7134 32.7358 39.8913C31.4418 40.4251 30.1477 40.9265 28.8537 41.428C28.9346 40.6839 27.9964 40.7001 27.867 40.1178C29.3066 39.5355 30.7462 38.9532 32.202 38.3709C32.5255 38.2415 32.8328 38.1444 32.8166 37.6753C32.8166 37.2224 32.574 37.093 32.2182 36.9636C30.9403 36.4622 29.6787 35.9446 28.4008 35.427C27.8347 35.2005 27.22 34.7476 26.6862 34.8123C26.1201 34.877 25.9584 35.7343 25.5378 36.171C25.5216 36.1872 25.4893 36.2034 25.4731 36.2196C25.1819 35.7181 24.7937 35.3784 24.1791 35.3784C24.3247 35.152 24.4217 34.8932 24.5996 34.6991C25.0202 34.23 24.9393 34.0035 24.3408 33.7771C21.6719 32.7419 19.0192 31.6581 16.3826 30.5744C15.9782 30.4126 15.7356 30.445 15.4121 30.7685C14.8945 31.2861 14.2637 31.6258 13.4873 31.642C13.4873 31.4479 13.5034 31.2052 13.3255 31.1405C12.2094 30.72 11.4007 29.6524 10.0905 29.5877ZM14.7975 28.3746C14.7813 27.4688 14.0534 26.757 13.1476 26.7409C12.2418 26.7409 11.4492 27.5335 11.4654 28.4393C11.4815 29.3127 12.2579 30.0568 13.1476 30.073C14.0696 30.073 14.7975 29.3289 14.7975 28.3746Z" fill="white"/>
<path d="M154.082 50.6798C154.001 50.6959 153.936 50.6959 153.888 50.7121C152.092 51.0194 150.798 50.5018 149.957 48.7549C149.375 47.5256 148.453 46.4742 147.709 45.3258C147.515 45.0184 147.288 44.889 146.932 44.9052C146.188 44.9699 145.234 44.6141 144.749 45.0508C144.296 45.4713 144.619 46.4257 144.603 47.1374C144.571 48.1241 144.587 49.1269 144.603 50.1136C144.619 50.5342 144.554 50.7283 144.053 50.7283C142.338 50.7445 142.338 50.7768 142.338 49.0784C142.338 45.0508 142.355 41.0232 142.322 36.9955C142.322 36.4132 142.419 36.1868 143.066 36.2191C145.331 36.3162 147.595 36.0574 149.844 36.3485C152.61 36.7205 154.292 39.1145 153.596 41.654C153.16 43.2553 152.044 44.2097 150.491 44.6302C149.795 44.8243 149.941 45.0184 150.248 45.439C151.445 46.9918 152.61 48.5608 153.79 50.1298C153.904 50.2916 154.082 50.3886 154.082 50.6798ZM146.997 42.9965C146.997 42.9804 146.997 42.9804 146.997 42.9965C147.692 42.9804 148.404 43.0127 149.1 42.9804C150.458 42.8833 151.494 41.8643 151.51 40.6188C151.542 39.3895 150.62 38.4351 149.213 38.2734C147.822 38.1116 146.415 38.241 145.024 38.2087C144.651 38.1925 144.587 38.3704 144.587 38.7101C144.603 39.9718 144.603 41.2334 144.587 42.4951C144.571 42.948 144.749 43.0451 145.153 43.0289C145.768 42.9804 146.382 42.9965 146.997 42.9965Z" fill="white"/>
<path d="M27.8505 40.1344C27.9799 40.7167 28.9181 40.7005 28.8372 41.4445C26.7991 42.2695 24.7772 43.0782 22.7391 43.9032C22.4318 44.0326 22.0759 44.0811 22.0921 44.5664C22.1083 45.0516 22.448 45.1001 22.7715 45.2134C25.9903 46.4589 29.2254 47.7044 32.4281 48.9822C33.0427 49.2248 33.4956 49.3219 33.9647 48.7396C34.2397 48.3837 34.6926 48.2058 35.1617 48.1249C35.194 48.4808 35.5175 48.5778 35.744 48.7234C36.941 49.4513 38.1541 50.1468 39.3672 50.8585C39.3834 52.4761 38.6717 53.6568 37.1998 54.3524C36.9086 54.4818 36.8763 54.6597 36.8763 54.9023C36.8601 55.5493 36.8439 56.1802 36.8277 56.811C36.2778 56.8919 35.841 56.3581 35.2749 56.4875C35.2587 56.3581 35.2102 56.2287 35.2264 56.0993C35.3234 55.1288 35.2102 54.3847 34.1265 53.8833C33.1883 53.4627 32.7678 52.4599 32.7516 51.4085C32.7354 50.9394 32.5575 50.7777 32.1531 50.6159C28.8048 49.3219 25.4566 48.0279 22.1083 46.7015C21.6877 46.5397 21.4128 46.5397 21.0892 46.9279C20.7981 47.2676 20.4261 47.5426 19.9408 47.6073C19.957 47.2029 19.5688 47.1382 19.3423 46.9441C19.0835 46.7338 18.7115 46.6368 18.6468 46.2324C18.7762 46.2162 18.9218 46.2162 19.0512 46.1839C20.054 46.006 20.6363 45.1649 20.4422 44.1943C20.2643 43.3209 19.407 42.7709 18.485 42.9327C17.2881 43.1429 16.8513 44.3884 17.5307 45.6663C16.8028 45.7148 16.3176 45.0031 15.5897 45.0193C15.2015 42.9003 16.9969 41.1534 18.6306 41.3151C19.8438 41.4446 20.4584 40.9755 20.9275 40.0373C20.9598 39.9726 21.0407 39.9241 21.0892 39.8594C21.6554 39.9403 21.9951 40.3608 22.3994 40.7005C22.1406 41.1049 21.8818 41.5092 21.623 41.9136C21.526 42.0916 21.2672 42.2533 21.4451 42.4636C21.623 42.69 21.8495 42.4474 22.0112 42.3827C23.9684 41.671 25.9095 40.9108 27.8505 40.1344ZM36.0675 52.929C36.9571 52.929 37.7497 52.104 37.7335 51.2306C37.7174 50.3571 36.941 49.5969 36.0837 49.5807C35.2102 49.5807 34.4015 50.3571 34.3853 51.2306C34.3529 52.1364 35.1617 52.9451 36.0675 52.929Z" fill="white"/>
<path d="M70.8276 49.5633C71.7334 51.0029 71.3614 52.2484 70.4071 53.5263C69.6792 54.4806 68.1587 54.8041 66.9456 54.3674C65.5869 53.8821 64.7134 52.7013 64.7619 51.2294C64.7781 50.7118 64.584 50.4853 64.1473 50.2751C61.8019 49.159 59.4726 47.9943 57.1434 46.8459C57.1596 46.5709 56.9816 46.4254 56.7714 46.2959C56.092 45.8916 55.4127 45.471 54.7495 45.0505C54.8627 44.727 55.0083 44.4034 54.9759 44.0476C54.9112 43.2712 54.4907 42.7698 53.7628 42.5271C53.0025 42.2845 52.3394 42.6242 51.7085 43.5138C51.4821 42.9639 50.7704 42.9477 50.5277 42.4301C50.738 42.1066 50.738 41.8316 50.4954 41.4919C49.0234 39.4215 47.5677 37.3349 46.1442 35.2321C45.8531 34.8115 45.6105 34.7792 45.1576 34.9571C43.5724 35.6041 41.971 36.2026 40.3859 36.8173C40.0624 36.3482 39.3183 36.2997 39.2051 35.6203C41.0491 34.8762 42.8769 34.1484 44.7208 33.4043C44.8179 34.0513 45.4487 34.0513 45.8531 34.2939C46.6295 34.7468 47.325 35.3777 48.2632 35.5071C49.444 37.1731 50.6248 38.8392 51.7894 40.5052C51.9673 40.764 52.0806 41.0067 52.5335 40.9258C54.895 40.5214 56.5449 41.9125 56.5773 44.274C56.5773 44.5976 56.6258 44.8078 56.9493 44.9696C59.6667 46.2636 62.368 47.59 65.0854 48.884C65.2472 48.9649 65.4413 49.159 65.603 48.981C66.0236 48.512 66.6383 48.334 67.075 47.9135C67.5279 47.8811 67.8837 48.0429 68.2881 48.2531C69.0807 48.7708 69.8571 49.3531 70.8276 49.5633ZM68.0293 49.5957C67.0912 49.5795 66.3794 50.2589 66.3471 51.2294C66.3147 52.1514 67.0912 52.9278 68.0131 52.944C68.8704 52.9601 69.6954 52.1514 69.6954 51.3264C69.6954 50.3883 68.9351 49.6119 68.0293 49.5957Z" fill="white"/>
<path d="M18.6629 46.2652C18.7276 46.6534 19.0997 46.7666 19.3585 46.9769C19.5849 47.171 19.9731 47.2357 19.9569 47.6401C18.7762 48.0768 17.6762 47.9151 16.7219 47.0901C16.3337 46.7504 16.0749 46.7181 15.6058 46.9445C13.0178 48.1577 10.3974 49.3385 7.79318 50.5031C7.42115 50.6648 7.37263 50.8913 7.35645 51.2471C7.3241 53.0749 6.09479 54.4337 4.39639 54.5792C2.61711 54.7087 1.17752 53.5926 0.805486 51.7971C0.514332 50.3899 1.37162 48.8532 2.85974 48.2709C3.31265 48.093 3.44205 47.8827 3.49057 47.4298C3.9273 44.0977 4.67136 40.8627 6.20801 37.8379C6.74179 37.9673 7.1947 38.2261 7.5182 38.679C6.43446 41.1053 5.75511 43.6448 5.28602 46.249C5.1081 47.268 4.81694 48.2386 6.15949 48.8209C6.61239 49.015 6.90354 49.1444 7.35645 48.9341C9.18425 48.0768 11.012 47.268 12.8398 46.4108C13.7618 45.9902 14.7323 45.6829 15.5735 45.0844C16.3013 45.052 16.7866 45.7638 17.5145 45.7314C17.8865 45.9579 18.2424 46.1843 18.6629 46.2652ZM5.7551 51.3119C5.77128 50.406 4.99487 49.5973 4.08905 49.5973C3.21559 49.5973 2.45536 50.3575 2.43918 51.2471C2.42301 52.1853 3.16707 52.9455 4.10523 52.9455C4.99487 52.9294 5.73893 52.2015 5.7551 51.3119Z" fill="white"/>
<path d="M111.444 41.8326C110.263 44.6633 109.066 47.5101 107.885 50.3408C107.627 50.9555 107.109 50.6158 106.689 50.6967C106.268 50.7775 106.09 50.5511 105.928 50.1791C104.375 46.5073 102.823 42.8355 101.254 39.1637C101.189 39.002 101.157 38.8079 100.882 38.6623C100.882 40.3445 100.882 41.9782 100.882 43.5957C100.542 43.6281 100.283 43.4016 99.992 43.3046C99.5552 43.1428 99.2479 42.6899 98.6979 42.787C98.6818 40.7813 98.6818 38.7755 98.6494 36.7698C98.6494 36.3492 98.795 36.2037 99.1994 36.2198C99.9758 36.2522 100.752 36.2684 101.529 36.2198C102.062 36.1875 102.273 36.4139 102.467 36.8668C103.809 40.0695 105.184 43.2722 106.543 46.4588C106.64 46.7014 106.689 46.9764 106.963 47.1705C107.853 45.1162 108.743 43.062 109.632 41.0239C110.36 41.1048 110.829 41.6224 111.444 41.8326Z" fill="white"/>
<path d="M90.5458 43.4505C90.7399 44.9225 90.5135 46.3783 90.0444 47.7532C89.5591 49.1442 88.4916 50.05 87.1005 50.5515C85.8226 51.0205 84.5124 51.0691 83.2023 50.7941C80.501 50.2118 78.9805 48.3516 78.8835 45.3592C78.8026 42.5124 78.8673 39.6655 78.8511 36.8187C78.8511 36.4305 78.932 36.2526 79.3849 36.2364C81.1642 36.1717 81.1642 36.1393 81.1642 37.9024C81.1642 40.3125 81.1642 42.7388 81.1642 45.1489C81.1804 47.8178 83.0082 49.306 85.6447 48.7722C87.2461 48.4487 88.2327 47.09 88.2974 45.1328C88.3136 44.3564 88.3136 43.5799 88.3298 42.8035C89.1871 42.6256 89.7532 43.4182 90.5458 43.4505Z" fill="white"/>
<path d="M54.7169 45.0516C55.3963 45.4721 56.0594 45.8927 56.7388 46.2971C56.9653 46.4265 57.1432 46.5559 57.1108 46.847C56.9653 46.7985 56.8035 46.75 56.6741 46.6691C56.108 46.3294 55.6874 46.2162 55.1051 46.8308C54.2478 47.7205 52.5171 47.6396 51.3848 46.7823C50.9481 46.4588 50.6084 46.4588 50.1555 46.6529C49.3629 46.9926 48.5541 47.2676 47.7616 47.5749C47.7292 46.847 46.8234 46.9117 46.6293 46.3456C47.616 45.9412 48.6027 45.5368 49.5894 45.1324C49.7996 45.0516 50.0584 45.003 50.0261 44.6634C49.9937 44.356 49.9776 44.081 49.6217 43.9678C49.4923 43.9355 49.3791 43.8708 49.2497 43.8222C46.0308 42.5282 42.7958 41.218 39.5607 39.924C39.3019 39.827 39.0431 39.6167 38.7196 39.7784C38.6387 39.0829 37.8947 39.1314 37.5388 38.7432C38.4446 37.3845 37.4418 36.1067 36.4227 35.9611C35.5331 35.8479 34.9508 36.2846 34.4979 36.9801C33.8023 36.5757 33.1068 36.1875 32.4275 35.767C32.201 35.6214 31.8613 35.5082 31.926 35.12C32.7995 35.6052 33.6244 35.7508 34.3523 34.8288C34.4655 34.6832 34.7243 34.6185 34.9184 34.5538C35.1934 34.4891 35.2096 34.2789 35.2743 34.0686C35.8566 33.9554 36.2933 34.4891 36.8595 34.3921C36.9242 34.4568 36.9889 34.5215 37.0697 34.57C37.3447 35.12 37.8462 35.1847 38.3799 35.1847C38.6711 35.2656 38.752 35.7508 39.1563 35.6214C39.2696 36.3008 40.0136 36.3493 40.3371 36.8184C40.0622 37.1095 39.4475 36.9478 39.4798 37.6757C39.5284 38.3712 40.0298 38.3227 40.4018 38.4682C42.5531 39.3579 44.7044 40.2637 46.8881 41.0886C48.0851 41.5415 49.2173 42.1724 50.479 42.415C50.7378 42.9326 51.4495 42.9488 51.6598 43.4987C51.5304 44.6148 51.7892 45.2457 52.5494 45.6177C53.3258 45.9897 53.9243 45.828 54.7169 45.0516Z" fill="white"/>
<path d="M166.392 50.7124C164.936 50.7124 163.48 50.6962 162.025 50.7285C161.539 50.7447 161.329 50.6477 161.329 50.0815C161.361 47.6714 161.361 45.2452 161.329 42.835C161.329 42.3498 161.442 42.188 161.96 42.2042C164.839 42.2366 167.718 42.2366 170.598 42.2042C171.115 42.2042 171.261 42.3983 171.196 42.8674C171.18 43.0291 171.18 43.1909 171.196 43.3527C171.293 43.9673 171.067 44.1614 170.42 44.1452C168.349 44.0967 166.279 44.1452 164.208 44.1129C163.707 44.1129 163.561 44.2423 163.577 44.7437C163.61 45.876 163.626 46.9921 163.577 48.1243C163.561 48.6905 163.788 48.7714 164.273 48.7714C166.424 48.7552 168.576 48.7714 170.727 48.7552C171.196 48.7552 171.439 48.7875 171.422 49.386C171.39 50.7286 171.439 50.7285 170.08 50.7285C168.867 50.7124 167.621 50.7124 166.392 50.7124Z" fill="white"/>
<path d="M196.105 43.4496C196.105 41.266 196.121 39.0985 196.089 36.9148C196.073 36.3325 196.251 36.2031 196.817 36.2031C198.37 36.2355 198.37 36.2031 198.37 37.7721C198.37 41.1527 198.386 44.5334 198.353 47.9302C198.353 48.5286 198.467 48.7551 199.13 48.7389C201.119 48.6904 203.109 48.7389 205.115 48.7066C205.665 48.6904 205.859 48.8036 205.843 49.4021C205.81 50.6961 205.843 50.6961 204.532 50.6961C201.944 50.6961 199.356 50.6799 196.768 50.7123C196.251 50.7123 196.089 50.5829 196.105 50.0491C196.121 47.8493 196.105 45.6495 196.105 43.4496Z" fill="white"/>
<path d="M179.283 43.499C179.283 41.2992 179.299 39.0993 179.267 36.8995C179.25 36.3496 179.428 36.2363 179.946 36.2363C181.547 36.2363 181.547 36.2202 181.547 37.8215C181.547 41.2345 181.564 44.6474 181.531 48.0604C181.531 48.6265 181.677 48.7883 182.243 48.7721C184.184 48.7398 186.125 48.8045 188.066 48.7398C188.891 48.7074 189.117 48.9824 188.988 49.7265C188.972 49.8235 188.972 49.9367 188.988 50.05C189.085 50.6161 188.859 50.7779 188.292 50.7617C185.494 50.7293 182.696 50.7293 179.897 50.7617C179.412 50.7617 179.267 50.6485 179.267 50.147C179.315 47.8987 179.299 45.6988 179.283 43.499Z" fill="white"/>
<path d="M37.7498 19.7535C38.2836 19.7858 38.7365 19.9638 39.0438 20.4167C39.0276 20.5784 39.0762 20.7887 38.9953 20.8858C38.4615 21.4681 38.785 21.9048 39.1409 22.4062C40.2893 24.0399 41.4054 25.6898 42.5377 27.3397C42.1333 27.3073 41.7774 27.1456 41.4216 26.9515C40.9687 26.6927 40.5319 26.3368 39.9496 26.3853C39.1247 25.2207 38.2998 24.0723 37.4748 22.9077C37.3778 22.7621 37.2807 22.5356 37.0543 22.5842C36.8278 22.6489 36.8763 22.8753 36.8763 23.0694C36.8602 23.8458 36.844 24.6222 36.8278 25.3987C36.3426 25.1722 35.8411 24.9943 35.2912 25.0751C35.275 24.4605 35.275 23.8458 35.2426 23.2473C35.2426 23.0209 35.3397 22.6974 35.0809 22.6003C34.7897 22.4871 34.725 22.843 34.5795 23.0209C34.3368 23.3282 34.1104 23.6517 33.8677 23.9752C33.3825 23.7488 32.8972 23.5385 32.412 23.312C32.6384 22.9562 32.8164 22.5356 33.1237 22.2445C33.7545 21.646 33.2207 21.1931 33.0105 20.7078C32.784 20.1902 32.3796 20.4652 32.0399 20.4976C30.4548 20.6431 28.9343 21.0799 27.3815 21.3872C27.3815 20.9828 27.0418 20.9019 26.783 20.7402C26.508 20.5946 26.1845 20.5137 26.0713 20.1741C27.9961 19.4462 30.018 19.0903 32.0561 18.8477C32.6223 18.783 32.9134 18.6051 33.059 18.0713C33.156 17.7154 33.3663 17.3919 33.6898 17.1816C34.1265 17.4728 34.7412 17.5537 34.8544 18.2169C34.2883 18.8477 34.2398 19.5432 34.6442 20.2711C35.0162 20.9181 35.6147 21.1607 36.3426 21.0637C37.0866 20.9181 37.4586 20.3682 37.7498 19.7535Z" fill="white"/>
<path d="M35.3068 56.5047C35.8729 56.3753 36.2934 56.9091 36.8596 56.8282C36.8758 59.1089 36.9081 61.3896 36.8919 63.6703C36.8919 64.1718 36.989 64.4629 37.5066 64.7055C39.0271 65.3687 39.7388 66.9701 39.3506 68.5714C38.9947 70.0434 37.6845 71.0139 36.067 71.0139C34.4009 71.0139 33.1878 70.0757 32.7834 68.4905C32.3952 66.9539 33.1393 65.3687 34.6436 64.6894C35.145 64.4629 35.2906 64.2041 35.2744 63.6703C35.2582 61.2764 35.2906 58.8986 35.3068 56.5047ZM36.0508 69.4287C37.0375 69.4287 37.7654 68.717 37.7654 67.7141C37.7654 66.7274 37.0537 65.9996 36.0508 65.9996C35.0803 65.9996 34.3201 66.7436 34.3201 67.7141C34.3362 68.6685 35.0803 69.4125 36.0508 69.4287Z" fill="white"/>
<path d="M123.479 43.1103C123.398 41.0722 123.414 39.0342 123.479 36.9961C124.384 37.1093 124.967 37.7725 125.662 38.2739C125.662 39.3415 125.711 40.4091 125.678 41.4766C125.662 42.0751 125.792 42.3339 126.471 42.3016C127.344 42.2369 128.234 42.2692 129.124 42.2854C129.981 42.3016 130.774 42.1236 131.485 41.6546C132.051 41.7678 132.715 41.784 132.779 42.5927C132.521 42.7383 132.278 42.8677 131.906 43.078C133.151 43.5632 134.187 44.2102 134.591 45.5043C134.995 46.7497 134.866 47.9144 134.009 48.9658C133.313 48.6746 132.747 48.1085 131.971 47.9629C133.248 46.1998 132.132 44.1779 129.916 44.097C128.638 44.0485 127.344 44.0808 126.067 44.0808C125.905 44.0808 125.743 44.0808 125.646 44.2588C124.87 43.9676 124.368 43.1912 123.479 43.1103Z" fill="white"/>
<path d="M59.3919 30.0724C59.4242 30.5253 59.7962 30.687 60.1198 30.8488C60.8315 31.237 61.4946 31.7869 62.3681 31.8193C64.4547 34.5044 66.0237 37.4483 67.0589 40.6833C66.3634 40.6671 65.9105 39.9878 65.1826 40.0686C65.0855 39.8584 64.9723 39.6481 64.8753 39.4216C63.7592 36.7851 62.3358 34.3426 60.5565 32.0943C60.2815 31.7384 60.0551 31.512 59.5051 31.6414C58.5831 31.8516 57.6449 31.6575 56.9494 30.9782C56.5127 30.5414 56.173 30.6061 55.6877 30.8002C54.5555 31.2208 53.5041 31.8516 52.2909 32.0296C52.2909 31.7222 52.0807 31.5767 51.8219 31.4634C51.5469 31.3502 51.3043 31.2046 51.2881 30.8488C52.5659 30.315 53.8599 29.7974 55.1378 29.2798C55.4451 29.1504 55.7363 29.0533 55.7039 28.6328C56.3509 28.5195 56.7877 29.1504 57.4185 29.118C57.8876 29.8297 58.5346 30.1694 59.3919 30.0724Z" fill="white"/>
<path d="M123.478 43.1113C124.368 43.176 124.869 43.9686 125.646 44.2436C125.662 45.5214 125.694 46.8155 125.662 48.0933C125.646 48.6756 125.84 48.8212 126.39 48.805C127.376 48.7727 128.379 48.7565 129.366 48.805C130.353 48.8535 131.226 48.6271 131.97 47.9639C132.73 48.1256 133.296 48.6756 134.008 48.9668C133.054 49.9858 131.922 50.6813 130.466 50.6975C128.314 50.7137 126.163 50.6975 124.012 50.7137C123.624 50.7137 123.413 50.649 123.43 50.1961C123.462 47.8345 123.462 45.4729 123.478 43.1113Z" fill="white"/>
<path d="M46.6294 46.3459C46.8235 46.9282 47.7293 46.8635 47.7616 47.5752C44.9633 48.6752 42.165 49.7589 39.3667 50.8588C38.1535 50.1471 36.9404 49.4516 35.7434 48.7237C35.517 48.5781 35.1935 48.4811 35.1611 48.1252C35.3229 47.8502 35.2582 47.5591 35.2582 47.2679C35.2744 45.6666 35.2905 44.0652 35.3067 42.48C35.8567 42.2051 36.3419 42.6095 36.8595 42.6418C36.8757 43.9843 36.9404 45.3107 36.8757 46.6533C36.8434 47.5267 36.8595 48.287 37.8947 48.5619C38.0403 48.5943 38.1859 48.7237 38.2668 48.8531C38.6065 49.3869 39.027 49.2736 39.5123 49.0795C41.89 48.1414 44.2516 47.2517 46.6294 46.3459Z" fill="white"/>
<path d="M132.762 42.6103C132.698 41.8015 132.034 41.8015 131.468 41.6721C132.552 40.2811 132.309 38.7606 130.821 38.3724C129.123 37.9357 127.376 38.0489 125.645 38.2753C124.966 37.7739 124.384 37.1107 123.462 36.9975C123.445 36.674 123.203 36.2211 123.801 36.2373C126.276 36.2858 128.751 36.027 131.193 36.3828C133.393 36.7063 134.59 38.2592 134.348 40.2972C134.25 41.3163 133.781 42.1574 132.762 42.6103Z" fill="white"/>
<path d="M111.444 41.8326C110.829 41.6224 110.344 41.1048 109.681 41.0239C110.279 39.5681 110.878 38.1123 111.476 36.6566C111.606 36.3493 111.8 36.2198 112.139 36.2198C112.964 36.2522 113.805 36.2522 114.63 36.2198C115.051 36.2037 115.18 36.3654 115.18 36.7698C115.148 38.9858 115.148 41.218 115.148 43.434C114.905 43.434 114.792 43.2561 114.646 43.0943C114.21 42.6091 113.692 42.237 112.964 42.3179C112.964 41.2018 112.964 40.1019 112.964 38.9858C112.9 38.9696 112.835 38.9535 112.77 38.9373C112.333 39.9078 111.897 40.8783 111.444 41.8326Z" fill="white"/>
<path d="M166.472 36.2348C167.895 36.2348 169.318 36.251 170.758 36.2186C171.243 36.2025 171.47 36.2833 171.454 36.8656C171.437 38.2567 171.47 38.2567 170.079 38.2567C167.41 38.2567 164.757 38.2405 162.088 38.2729C161.554 38.2729 161.344 38.192 161.36 37.5935C161.393 36.2348 161.36 36.2348 162.703 36.2348C163.932 36.2348 165.194 36.2348 166.472 36.2348Z" fill="white"/>
<path d="M112.965 42.3177C113.676 42.2369 114.194 42.6089 114.647 43.0941C114.792 43.2559 114.906 43.4338 115.148 43.4338C115.164 45.6822 115.164 47.9305 115.181 50.1789C115.181 50.5347 115.1 50.6803 114.695 50.7127C112.916 50.8097 112.916 50.8259 112.916 49.0466C112.932 46.8144 112.948 44.5661 112.965 42.3177Z" fill="white"/>
<path d="M7.5348 38.646C7.2113 38.1931 6.75839 37.9181 6.22461 37.8049C7.0819 35.6698 8.29504 33.7126 9.68611 31.8848C10.2522 31.1407 10.8022 30.5099 10.0905 29.5879C11.3845 29.6526 12.1933 30.7202 13.3255 31.1569C13.5196 31.2216 13.4873 31.4642 13.4873 31.6583C13.2285 31.6583 12.9212 31.7392 12.6947 31.6583C12.0477 31.4319 11.7727 31.7877 11.4169 32.2406C9.89639 34.2302 8.65089 36.3977 7.5348 38.646Z" fill="white"/>
<path d="M98.7296 42.8045C99.2634 42.7075 99.5869 43.1604 100.024 43.3221C100.315 43.4353 100.574 43.6456 100.913 43.6133C100.913 45.9263 100.913 48.2394 100.913 50.5524C100.865 50.601 100.832 50.6495 100.784 50.6818C98.6973 50.8274 98.6973 50.8274 98.6973 48.8217C98.6973 46.816 98.7134 44.8102 98.7296 42.8045Z" fill="white"/>
<path d="M90.5456 43.4507C89.753 43.4183 89.1869 42.6258 88.3296 42.8037C88.3134 40.798 88.3296 38.7922 88.2811 36.7865C88.2649 36.2851 88.4914 36.2366 88.9119 36.2204C90.578 36.188 90.578 36.188 90.578 37.8217C90.578 39.6981 90.5618 41.5744 90.5456 43.4507Z" fill="white"/>
<path d="M26.0706 20.1582C26.1838 20.5141 26.5235 20.5788 26.7823 20.7243C27.0573 20.8699 27.3969 20.9508 27.3808 21.3713C24.4045 22.2772 21.6224 23.6197 18.9697 25.2372C18.9697 24.9137 18.7432 24.7843 18.4844 24.6711C18.2094 24.5417 17.983 24.3799 17.9668 24.0403C20.474 22.2933 23.1752 21.0317 26.0706 20.1582Z" fill="white"/>
<path d="M65.1826 40.069C65.8943 39.9882 66.3634 40.6837 67.0589 40.6837C67.9001 42.835 68.3368 45.0672 68.6118 47.3479C68.6603 47.7846 68.725 48.0596 69.2264 48.2052C69.922 48.4155 70.4881 48.8845 70.8439 49.5639C69.8896 49.3536 69.1132 48.7551 68.2883 48.3022C67.9001 48.0758 67.528 47.914 67.0751 47.9625C67.0266 47.6229 66.9619 47.2832 66.9295 46.9435C66.6222 44.5658 65.8943 42.3174 65.1826 40.069Z" fill="white"/>
<path d="M100.769 50.6646C100.817 50.616 100.849 50.5675 100.898 50.5352C100.914 50.6322 100.882 50.6969 100.769 50.6646Z" fill="white"/>
<path d="M33.8839 23.9439C32.5414 26.0143 31.1503 28.0686 29.6945 30.0743C29.1446 29.9772 28.8372 29.4758 28.3682 29.2655C29.7269 27.276 31.0856 25.2864 32.4281 23.2969C32.9296 23.5072 33.4148 23.7336 33.8839 23.9439Z" fill="white"/>
<path d="M25.4724 36.2362C24.518 37.789 23.4828 39.2771 22.3991 40.7329C22.0109 40.3932 21.655 39.9727 21.0889 39.8918C22.0594 38.3551 23.0946 36.8509 24.1783 35.3789C24.793 35.3789 25.1812 35.7348 25.4724 36.2362Z" fill="white"/>
<path d="M44.689 33.4383C44.7052 33.0824 44.4302 32.8722 44.2523 32.6134C42.8288 30.5267 41.3892 28.4563 39.9658 26.3697C40.5481 26.3212 40.9849 26.677 41.4378 26.9358C41.7936 27.13 42.1495 27.2917 42.5539 27.3241C43.6699 28.9254 44.8184 30.5106 45.9021 32.1281C46.2256 32.6134 46.5006 32.7266 47.0667 32.5001C48.4578 31.9178 49.8974 31.4002 51.3046 30.8503C51.3046 31.2061 51.5635 31.3355 51.8384 31.4649C52.0972 31.5781 52.3075 31.7237 52.3075 32.031C51.0297 32.7589 49.6224 33.1957 48.2637 33.7618C47.3417 34.15 47.3417 34.1338 47.8917 34.9426C48.0211 35.1367 48.1343 35.347 48.2637 35.5572C47.3094 35.444 46.63 34.797 45.8536 34.3441C45.4169 34.1015 44.786 34.1015 44.689 33.4383Z" fill="white"/>
<path d="M36.8443 25.3828C36.8604 28.3914 36.8766 31.4 36.8928 34.4086C36.3267 34.5056 35.8899 33.9718 35.3076 34.0851C35.3076 31.0765 35.3076 28.0679 35.3076 25.0593C35.8576 24.9946 36.359 25.1563 36.8443 25.3828Z" fill="white"/>
<path d="M37.0869 34.6027C37.6692 34.5057 38.0413 34.8453 38.3971 35.2174C37.8633 35.2174 37.3619 35.1365 37.0869 34.6027Z" fill="white"/>
</svg>
