<svg width="227" height="88" viewBox="0 0 227 88" fill="none" xmlns="http://www.w3.org/2000/svg">
<path d="M59.6435 30.0815C60.5947 32.0633 60.7533 34.2829 61.0703 36.4232C61.9423 41.7343 64.3205 46.332 68.284 50.0578C68.9974 50.7712 69.3145 51.4847 69.156 52.5152C68.7596 54.8141 67.9669 56.7958 65.4302 57.5093C64.9546 57.6678 64.479 57.6678 64.0034 57.7471C62.735 57.8264 62.5765 57.7471 62.418 56.4788C62.3387 55.9239 62.2594 55.4482 61.7045 55.0519C61.7838 55.9239 61.9423 56.6373 61.7045 57.43C61.546 57.9056 61.4667 58.302 60.9911 58.5398C59.0886 59.4911 55.9177 59.6496 54.9665 56.4788C54.4909 54.9726 54.0945 53.4665 53.1432 52.1981C52.9054 51.881 52.9054 51.8018 53.6189 51.7225C53.4603 51.3261 53.1432 51.2469 52.8262 51.1676C50.5273 50.0578 48.1492 49.5029 45.6918 48.8687C41.8075 47.9175 39.033 45.6979 38.161 41.4965C38.0817 40.9416 38.0817 40.466 38.0025 39.8318C37.4476 40.7831 37.7647 41.7343 38.0025 42.6063C38.9537 46.015 41.1733 48.3931 43.71 50.692C47.1979 53.8628 50.2895 57.2715 52.7469 61.235C54.0945 63.4546 55.125 65.8327 55.3628 68.4487C55.7592 72.6501 53.936 75.8209 50.6066 78.2783C49.4968 79.071 48.3077 79.8637 46.8808 80.2601C46.8808 79.6259 47.1979 79.3088 47.4357 78.9125C48.7041 76.2965 49.4175 73.6806 48.5455 70.8268C47.9114 68.845 46.5637 67.3389 44.9783 66.0706C44.0271 65.3571 42.9173 64.6437 41.8075 64.2473C41.7282 64.168 41.4904 64.0888 41.4111 64.1681C41.3319 64.4059 41.5697 64.3266 41.6489 64.3266C42.6794 65.5949 43.71 66.784 44.2649 68.3694C44.7405 69.717 44.9783 71.0646 44.7405 72.4915C44.4234 72.5708 44.4234 72.333 44.3442 72.1744C43.4722 69.717 41.8867 67.8145 39.7464 66.3084C37.0512 64.3266 34.1182 62.7412 31.3437 60.9179C29.4412 59.6496 27.618 58.3812 26.1118 56.7166C24.4471 54.8933 23.4958 52.753 23.0202 50.2956C22.6239 53.3079 23.0202 56.1617 24.0508 59.0947C23.4959 59.0154 23.258 58.6983 23.0202 58.3813C20.0872 54.5762 17.9469 50.4541 17.4712 45.6186C17.0749 42.1307 17.7091 38.8806 19.2945 35.789C19.6909 35.0756 19.6908 34.7585 18.7396 34.8378C18.6603 34.8378 18.5811 34.8378 18.4225 34.8378C18.0262 34.7585 17.392 34.8378 17.3127 34.4414C17.1542 33.9658 17.8676 33.9658 18.1847 33.7279C19.2945 33.0145 20.0872 31.984 20.8799 30.9535C23.1788 28.0204 25.7154 25.2459 28.9656 23.1849C31.74 21.4409 34.7524 20.4897 38.0025 20.4104C39.033 20.4104 39.2708 19.9348 39.7464 19.3799C41.8075 16.9225 44.4234 15.4956 47.5943 14.9407C48.2284 14.8614 48.387 15.02 48.387 15.6541C48.3077 17.2396 48.1492 18.825 47.6735 20.3311C47.515 20.9653 47.7528 21.2031 48.3077 21.4409C48.0699 20.6482 48.5455 20.4104 49.0212 20.1726C51.5578 18.825 54.1738 18.6665 56.9483 19.3006C57.5824 19.4592 57.5824 19.7762 57.3446 20.2519C56.6312 21.5995 55.8385 22.8678 54.8872 24.0569C54.7287 24.2947 54.1738 24.374 54.4908 24.7703C54.8079 25.2459 55.2043 24.8496 55.4421 24.691C57.0275 23.7398 58.5337 22.7886 60.1191 21.758C60.9911 21.2031 61.0703 21.2031 61.0703 22.2336C61.2289 24.0569 61.3082 25.8801 61.3874 27.7034C61.4667 28.9717 60.7533 29.9229 59.7227 30.0022C59.6435 29.8437 59.4849 29.8437 59.3264 29.9229C59.4849 29.8437 59.5642 29.9229 59.6435 30.0815ZM53.4603 31.5084C53.7774 33.1731 54.3323 34.5999 55.6006 35.789C55.6006 34.9963 55.4421 34.4414 55.8385 33.9658C56.0763 33.6487 55.8385 33.4901 55.6006 33.3316C54.9665 32.6974 54.253 32.1425 53.4603 31.5084ZM53.7774 51.7225C53.8567 51.7225 53.8567 51.6432 53.7774 51.7225C53.7774 51.6432 53.7774 51.6432 53.6981 51.5639C53.6981 51.5639 53.6981 51.5639 53.6189 51.6432C53.6981 51.6432 53.7774 51.7225 53.7774 51.7225Z" fill="white"/>
<path d="M184.415 15.7271C184.415 16.5991 184.415 17.4711 184.415 18.5809C186 16.0442 188.299 15.4101 190.836 15.6479C193.293 15.8857 194.562 17.154 194.72 19.6907C194.958 23.2579 194.799 26.7458 194.799 30.313C194.799 30.6301 194.799 31.0264 194.879 31.3435C195.037 32.4533 195.354 32.8497 196.464 32.929C196.781 32.929 197.019 32.929 197.019 33.4046C197.019 33.8802 196.623 33.7217 196.385 33.7217C193.769 33.6424 191.232 33.6424 188.616 33.7217C188.378 33.7217 187.982 33.8802 187.982 33.4046C187.982 33.0082 188.22 33.0082 188.537 32.929C189.488 32.7704 189.805 32.2948 189.805 31.0264C189.805 28.8069 189.805 26.5873 189.805 24.3677C189.805 22.7823 189.805 21.1176 189.805 19.5321C189.805 18.6602 189.726 17.7089 188.695 17.3126C187.665 16.9162 186.634 17.154 185.762 17.8674C184.97 18.5016 184.494 19.3736 184.415 20.4041C184.256 24.1299 184.256 27.7763 184.415 31.5021C184.415 32.2948 184.811 32.8497 185.604 32.929C185.921 33.0082 186.159 32.929 186.159 33.4046C186.159 33.8802 185.762 33.7217 185.525 33.7217C183.384 33.7217 181.244 33.7217 179.104 33.7217C178.628 33.7217 178.152 33.7217 177.677 33.7217C177.439 33.7217 177.201 33.7217 177.201 33.3253C177.201 33.0875 177.28 33.0082 177.598 32.929C179.024 32.6119 179.262 32.4533 179.342 30.9472C179.421 26.9043 179.5 22.8615 179.342 18.8187C179.262 17.6296 178.866 17.0747 177.677 16.8369C177.36 16.7577 177.201 16.6784 177.201 16.282C177.201 15.8857 177.518 16.0442 177.677 16.0442C179.896 16.282 182.116 16.1235 184.415 15.7271Z" fill="white"/>
<path d="M100.388 18.1862C102.29 15.7288 104.747 15.3325 107.443 15.7288C109.504 16.0459 110.693 17.4728 110.693 19.9302C110.772 23.3388 110.693 26.8268 110.772 30.2354C110.772 30.711 110.851 31.1074 110.851 31.583C111.01 32.3758 111.485 32.8514 112.278 32.9306C112.595 32.9306 112.912 32.8514 112.912 33.4063C112.912 33.8819 112.516 33.7233 112.278 33.7233C109.662 33.6441 107.126 33.6441 104.51 33.7233C104.272 33.7233 103.955 33.8819 103.955 33.4063C103.875 33.0099 104.113 33.0099 104.43 32.9306C105.382 32.6928 105.699 32.2172 105.699 30.8696C105.699 27.3024 105.699 23.8145 105.699 20.2473C105.699 19.9302 105.699 19.6131 105.699 19.296C105.54 17.4728 104.272 16.6801 102.607 17.3142C101.101 17.9484 100.387 19.2167 100.308 20.7229C100.229 24.1315 100.308 27.6195 100.308 31.0281C100.308 31.9794 100.546 32.8514 101.735 32.8514C102.131 32.8514 102.131 33.0892 102.131 33.327C102.131 33.7233 101.735 33.5648 101.577 33.5648C99.357 33.5648 97.2167 33.5648 94.9971 33.5648C94.5215 33.5648 94.0458 33.5648 93.5702 33.5648C93.3324 33.5648 93.1738 33.5648 93.1738 33.2477C93.1738 33.0099 93.2531 32.8514 93.5702 32.8514C95.0763 32.5343 95.3142 32.2172 95.3934 30.6318C95.3934 26.906 95.3934 23.2596 95.3934 19.5338C95.3934 18.1862 95.2349 16.9179 93.4909 16.7593C93.1738 16.6801 93.2531 16.4422 93.2531 16.2837C93.2531 15.9666 93.4116 16.0459 93.6495 16.0459C95.7898 16.2044 97.9301 16.1252 100.07 15.7288C100.546 15.6496 100.388 15.9666 100.388 16.2045C100.388 16.9179 100.388 17.5521 100.388 18.1862Z" fill="white"/>
<path d="M116.004 44.3456C116.004 45.2176 116.004 46.0896 116.004 47.2787C117.193 45.2176 118.858 44.4249 120.919 44.2664C124.407 43.87 126.389 45.5347 126.468 49.0226C126.547 52.4313 126.468 55.7607 126.547 59.1693C126.547 60.9926 126.706 61.1511 128.45 61.6267C128.767 61.706 128.767 61.8645 128.767 62.1024C128.767 62.4194 128.529 62.4194 128.291 62.4194C127.34 62.4194 126.468 62.3402 125.517 62.3402C123.773 62.3402 122.108 62.4194 120.364 62.4194C120.126 62.4194 119.73 62.6573 119.651 62.1024C119.572 61.5475 119.968 61.706 120.285 61.6267C120.919 61.4682 121.315 61.1511 121.395 60.5169C121.474 60.1206 121.553 59.6449 121.553 59.1693C121.553 55.6814 121.553 52.1142 121.553 48.6263C121.553 48.4677 121.553 48.2299 121.553 48.0714C121.474 47.1994 121.316 46.3274 120.364 45.9311C119.413 45.614 118.462 45.7725 117.59 46.4067C116.559 47.1994 116.084 48.2299 116.084 49.419C116.004 52.8276 116.084 56.2363 116.084 59.6449C116.084 60.5962 116.321 61.4682 117.59 61.5474C117.907 61.5474 117.907 61.706 117.907 61.9438C117.907 62.2609 117.748 62.2609 117.51 62.2609C116.639 62.2609 115.767 62.1816 114.974 62.1816C113.151 62.1816 111.407 62.2609 109.583 62.2609C109.346 62.2609 108.949 62.4194 108.949 61.9438C108.949 61.4682 109.187 61.5474 109.504 61.5474C110.614 61.3889 111.01 60.9133 111.09 59.6449C111.169 58.2181 111.169 56.8705 111.169 55.4436C111.169 52.9862 111.169 50.5288 111.169 48.0714C111.169 46.803 110.931 45.5347 109.266 45.3762C108.949 45.3762 108.949 45.0591 109.028 44.9005C109.028 44.5834 109.346 44.6627 109.504 44.6627C111.248 44.742 113.071 44.742 114.815 44.5042C115.132 44.5042 115.529 44.4249 116.004 44.3456Z" fill="white"/>
<path d="M158.971 44.3457C158.971 44.7421 158.971 45.0591 158.971 45.3762C158.971 49.8947 158.971 54.4131 158.971 58.9316C158.971 60.6755 159.209 61.0719 160.794 61.6268C161.032 61.7061 161.111 61.8646 161.111 62.1024C161.111 62.3402 160.953 62.4195 160.715 62.3402C158.575 62.261 156.434 62.1817 154.294 62.6573C153.818 62.7366 153.977 62.4195 153.977 62.1817C153.977 61.4683 153.977 60.8341 153.977 59.9621C153.501 60.517 153.184 60.9926 152.709 61.389C150.648 63.0537 148.428 63.2122 146.05 62.4195C144.385 61.7853 143.91 60.3584 143.751 58.773C143.513 55.3644 143.672 51.8764 143.672 48.4678C143.672 48.0714 143.672 47.6751 143.592 47.2787C143.434 46.3275 143.038 45.614 141.928 45.5348C141.611 45.5348 141.452 45.4555 141.452 45.1384C141.452 44.7421 141.69 44.8213 141.928 44.8213C143.989 44.9006 146.129 44.9006 148.19 44.5042C148.904 44.3457 148.666 44.9799 148.666 45.2177C148.666 49.5776 148.666 53.8582 148.666 58.2181C148.666 58.6145 148.666 59.0108 148.666 59.3279C148.824 61.1512 150.013 61.8646 151.678 61.1512C153.264 60.517 153.898 59.1694 153.898 57.584C153.977 54.4131 153.977 51.2423 153.898 48.0714C153.898 46.8824 153.66 45.614 151.995 45.4555C151.678 45.4555 151.678 45.2177 151.678 44.9799C151.678 44.6628 151.995 44.7421 152.154 44.7421C153.898 44.8213 155.721 44.8213 157.465 44.5835C158.02 44.5042 158.495 44.425 158.971 44.3457Z" fill="white"/>
<path d="M159.129 25.006C159.208 26.4329 159.049 27.7805 158.574 29.1281C157.702 32.0611 155.72 33.7258 152.708 34.2014C151.202 34.4392 149.775 34.4392 148.269 34.1222C145.177 33.4087 143.354 31.427 142.64 28.4147C142.165 26.4329 142.165 24.4511 142.482 22.4693C143.274 17.3167 146.762 15.4935 151.281 15.7313C156.196 16.0484 158.732 18.7436 159.049 23.7377C159.208 24.0547 159.129 24.5304 159.129 25.006ZM153.976 24.4511C153.976 23.9755 153.976 22.9449 153.817 21.9937C153.659 20.4083 153.421 18.7436 152.549 17.396C151.598 15.9691 150.012 15.9691 149.061 17.3167C148.586 17.9509 148.348 18.6643 148.189 19.3778C147.476 22.6279 147.476 25.878 147.951 29.1281C148.11 30.1586 148.348 31.2684 148.903 32.1404C149.854 33.8051 151.519 33.8051 152.628 32.2989C152.945 31.8233 153.183 31.2684 153.342 30.7135C153.897 28.9695 153.976 26.9085 153.976 24.4511Z" fill="white"/>
<path d="M84.4572 56.9535C85.4877 54.179 86.4389 51.6423 87.3902 49.1056C88.1829 46.9653 89.1342 44.9043 89.5305 42.6847C89.9269 40.3858 89.372 39.5931 87.2316 38.9589C86.9938 38.8796 86.756 38.8004 86.756 38.4833C86.8353 38.1662 87.0731 38.1662 87.2316 38.1662C89.2134 38.2455 91.1952 38.3247 93.177 38.1662C93.4148 38.1662 93.5733 38.1662 93.5733 38.404C93.5733 38.6418 93.5733 38.8004 93.3355 38.9589C91.5916 39.9102 90.8781 41.6541 90.244 43.3188C88.0244 49.3434 85.7255 55.4473 83.5059 61.4719C83.2681 62.1061 83.0303 62.2646 82.2376 62.3439C80.9692 62.5024 80.4936 61.9475 80.018 60.8377C77.402 54.3375 74.7861 47.8373 72.0909 41.337C71.6945 40.3065 71.2982 39.276 70.0298 38.8796C69.7128 38.8004 69.792 38.5626 69.792 38.3248C69.8713 38.0077 70.1091 38.0869 70.3469 38.0869C73.0421 38.2455 75.8166 38.1662 78.5118 38.1662C78.9082 38.1662 79.3045 38.0869 79.7802 38.0869C80.018 38.0869 80.2558 38.0869 80.2558 38.404C80.2558 38.7211 80.1765 38.8004 79.8594 38.8004C79.7802 38.8004 79.7009 38.8004 79.5424 38.8004C77.7191 39.1175 77.402 39.5138 78.0362 41.2578C80.3351 46.4897 82.3168 51.6423 84.4572 56.9535Z" fill="white"/>
<path d="M102.289 51.8735C101.1 51.8735 99.9111 51.9528 98.7221 51.8735C97.7708 51.7943 97.4538 52.1906 97.4538 53.0626C97.533 54.5688 97.6123 55.9956 98.2465 57.4225C99.5148 60.2763 102.923 60.9897 105.222 58.7701C105.539 58.453 105.856 58.136 106.094 57.7396C106.253 57.5018 106.411 57.1847 106.808 57.4225C107.283 57.6603 106.887 57.9774 106.808 58.2152C105.698 61.069 103.082 62.9715 100.149 62.8922C96.7403 62.8922 94.1244 61.2275 93.0938 58.2152C91.9841 55.0444 91.984 51.7943 93.3317 48.7027C94.9963 44.8184 100.228 42.9952 104.033 44.8977C106.332 46.0867 106.887 48.1478 107.204 50.5259C107.363 51.8735 107.363 51.8735 105.936 51.8735C104.667 51.8735 103.478 51.8735 102.289 51.8735ZM100.149 51.1601C100.862 51.1601 101.576 51.1601 102.21 51.1601C102.448 51.1601 102.765 51.2394 102.765 50.843C102.765 49.099 102.686 47.3551 101.734 45.8489C101.179 44.8977 100.149 44.8184 99.277 45.5319C98.8014 45.9282 98.5635 46.4038 98.3257 46.8795C97.7708 48.1478 97.6916 49.4161 97.4538 50.7637C97.3745 51.1601 97.6123 51.2394 97.9294 51.2394C98.6428 51.1601 99.4355 51.1601 100.149 51.1601Z" fill="white"/>
<path d="M188.619 51.8795C187.192 51.8795 185.845 51.8795 184.418 51.8795C183.942 51.8795 183.704 52.038 183.704 52.5137C183.704 53.9405 183.704 55.3674 184.18 56.715C184.735 58.3004 185.607 59.5688 187.43 59.9651C189.253 60.2822 190.759 59.6481 191.948 58.2212C192.186 57.9041 192.345 57.0321 192.979 57.5077C193.534 57.9041 192.9 58.3797 192.741 58.7761C191.473 61.4713 188.698 63.136 185.924 62.8982C182.119 62.5811 179.82 60.8371 178.869 57.4285C178.076 54.4955 178.076 51.4832 179.344 48.6294C181.088 44.7451 186.162 43.0011 189.967 44.8244C191.631 45.6171 192.424 47.044 192.82 48.7087C193.613 51.8002 193.613 51.8002 190.522 51.8002C190.046 51.8795 189.333 51.8795 188.619 51.8795ZM186.32 51.1661C187.034 51.1661 187.747 51.1661 188.54 51.1661C188.857 51.1661 189.015 51.0868 189.015 50.6904C189.015 49.1843 188.936 47.7574 188.302 46.3305C187.589 44.6658 186.082 44.5073 185.052 46.0134C184.418 46.8854 184.18 47.9952 184.021 49.0257C183.625 51.1661 183.625 51.1661 185.765 51.1661C185.924 51.1661 186.082 51.1661 186.32 51.1661Z" fill="white"/>
<path d="M136.776 17.2366C135.428 16.1268 133.843 16.2853 132.654 17.4744C131.464 18.7427 130.989 20.3281 130.83 21.9136C130.513 23.9746 130.513 26.0357 131.068 28.0174C131.544 29.7614 132.574 31.0297 134.477 31.3468C136.3 31.6639 137.806 30.8712 138.995 29.5236C139.233 29.2065 139.312 28.4138 139.946 28.8101C140.581 29.2065 139.946 29.6821 139.788 30.0785C138.52 32.853 136.3 34.3591 133.208 34.2798C129.958 34.2006 127.422 32.7737 126.233 29.6821C124.964 26.1942 124.964 22.627 126.867 19.2976C129.403 14.9377 135.507 15.017 138.282 16.7609C139.55 17.5536 140.184 18.7427 140.026 20.3281C139.946 21.5172 139.154 22.3892 137.965 22.627C136.538 22.9441 135.269 22.3892 134.873 21.2794C134.318 20.0111 134.794 18.5842 135.983 17.7915C136.221 17.5537 136.459 17.3951 136.776 17.2366Z" fill="white"/>
<path d="M196.228 59.4069C196.228 58.2971 196.228 57.3459 196.228 56.3946C196.228 56.1568 196.069 55.8397 196.545 55.7605C196.941 55.7605 196.941 55.9983 197.021 56.3153C197.179 57.4251 197.417 58.5349 197.893 59.5655C198.448 60.6753 199.161 61.5472 200.35 61.8643C201.381 62.1814 202.411 62.1814 203.283 61.3094C204.076 60.4375 203.996 59.3276 203.6 58.2971C203.283 57.3459 202.57 56.7117 201.777 56.1568C200.588 55.1263 199.319 54.2543 198.21 53.2238C197.179 52.3518 196.386 51.242 196.149 49.8151C195.832 47.5163 196.862 45.693 199.002 44.821C201.301 43.8698 203.679 44.0283 205.899 45.2174C206.612 45.6137 207.167 45.693 207.326 44.7418C207.405 44.4247 207.564 44.2662 207.96 44.3454C208.356 44.4247 208.198 44.6625 208.198 44.9003C208.119 46.4857 208.119 48.1504 208.039 49.7358C208.039 49.9737 208.198 50.2907 207.722 50.37C207.326 50.37 207.326 50.1322 207.247 49.8151C207.009 48.7846 206.771 47.7541 206.137 46.8028C205.344 45.6137 204.314 44.9796 202.887 45.0589C201.222 45.1381 200.35 46.4857 200.826 48.0712C201.143 49.0224 201.856 49.7359 202.649 50.2908C203.917 51.242 205.265 52.1932 206.533 53.2238C207.881 54.3336 208.911 55.6019 208.991 57.4252C209.149 60.1996 207.247 62.2607 204.234 62.8156C202.411 63.1327 200.588 62.9741 198.923 62.0229C198.13 61.6265 197.258 60.9131 196.862 62.4985C196.783 62.7363 196.466 62.657 196.307 62.657C195.99 62.657 196.069 62.4192 196.069 62.1814C196.149 61.1509 196.149 60.1996 196.228 59.4069Z" fill="white"/>
<path d="M88.8954 19.8508C88.8954 17.6313 88.9747 15.4117 88.8954 13.1921C88.8162 11.3688 88.1027 10.6554 86.2795 10.4176C85.9624 10.3383 85.566 10.4969 85.6453 9.94196C85.6453 9.38706 86.1209 9.62488 86.3588 9.62488C88.182 9.62488 90.0052 9.62488 91.7492 9.62488C91.987 9.62488 92.3833 9.46633 92.3833 9.94196C92.3833 10.3383 92.1455 10.3383 91.8285 10.4176C90.7187 10.6554 90.1638 11.2896 90.0052 12.3994C89.9259 13.0335 89.8467 13.6677 89.8467 14.3019C89.8467 18.0276 89.8467 21.6741 89.7674 25.3998C89.7674 26.4303 89.6089 27.4609 89.3711 28.4914C88.6576 32.0586 86.6758 33.7233 82.7916 34.2782C80.8891 34.516 79.0658 34.3575 77.2426 33.7233C74.2303 32.6135 72.8827 30.3146 72.6448 27.3023C72.407 24.7657 72.4863 22.229 72.4863 19.6923C72.4863 19.296 72.6448 18.9789 72.9619 18.7411C74.3888 17.3142 75.895 15.8873 77.3218 14.4604C77.4804 14.3019 77.5597 14.0641 77.7975 14.0641C78.1146 14.1433 77.956 14.4604 77.956 14.6982C77.956 18.6618 77.956 22.7046 77.956 26.6682C77.956 27.9365 78.1145 29.1256 78.5109 30.3146C79.1451 32.0586 80.3341 33.0098 82.2367 33.0098C86.2795 33.0891 88.4991 30.9488 88.8161 26.5096C89.054 24.29 88.8954 22.0704 88.8954 19.8508Z" fill="white"/>
<path d="M168.405 18.3426C169.832 16.5194 171.338 15.3303 173.716 15.7267C175.539 15.9645 176.491 17.7085 176.094 19.6902C175.777 21.2757 174.112 22.0684 172.448 21.5927C171.179 21.1964 170.545 19.8488 171.1 18.4219C171.338 17.867 171.655 17.3914 172.21 16.9157C171.259 16.7572 170.624 17.0743 170.07 17.5499C168.881 18.5804 168.405 19.928 168.405 21.5135C168.405 24.3672 168.405 27.221 168.405 30.0747C168.405 32.2151 168.96 32.77 171.1 33.0078C171.417 33.0078 171.655 33.087 171.655 33.4834C171.655 33.8798 171.338 33.8005 171.1 33.8005C168.009 33.7212 164.917 33.7212 161.825 33.8005C161.588 33.8005 161.35 33.8798 161.271 33.4834C161.271 33.087 161.508 33.087 161.825 33.0078C162.935 32.8492 163.411 32.4529 163.411 31.2638C163.569 27.1417 163.569 23.0196 163.411 18.9768C163.332 17.7085 162.935 17.2328 161.746 16.9157C161.429 16.8365 161.35 16.7572 161.35 16.4401C161.35 16.0438 161.667 16.123 161.905 16.123C163.966 16.2816 166.027 16.2023 168.009 15.806C168.405 15.7267 168.484 15.806 168.484 16.2023C168.405 16.9157 168.405 17.6292 168.405 18.3426Z" fill="white"/>
<path d="M173.556 45.4575C171.495 45.6161 169.909 47.2015 169.83 49.4211C169.751 52.7505 169.751 56.0799 169.83 59.4092C169.83 60.8361 170.702 61.5496 172.287 61.7081C172.525 61.7081 173.001 61.4703 173.001 62.0252C173.001 62.6593 172.525 62.4215 172.287 62.4215C169.275 62.3423 166.263 62.3423 163.251 62.4215C163.013 62.4215 162.616 62.6594 162.537 62.1045C162.537 61.5496 162.933 61.7081 163.171 61.7081C164.043 61.5496 164.598 61.0739 164.677 60.1227C164.677 59.8849 164.757 59.647 164.757 59.4885C164.757 55.7628 164.757 51.9578 164.757 48.232C164.757 46.5673 164.519 46.171 162.854 45.6161C162.537 45.5368 162.616 45.299 162.616 45.1404C162.616 44.6648 162.933 44.9026 163.171 44.9026C164.915 44.9819 166.738 44.9819 168.482 44.7441C169.83 44.5856 169.83 44.5856 169.83 45.9332C169.83 46.3295 169.83 46.7259 169.83 47.4393C170.861 45.6953 172.05 44.6648 173.794 44.427C176.41 44.0306 178.233 46.2502 177.361 48.7076C177.044 49.6589 176.33 50.2931 175.3 50.4516C174.269 50.5309 173.239 50.4516 172.605 49.5004C172.05 48.5491 172.208 47.5186 172.763 46.6466C172.922 46.0917 173.239 45.8539 173.556 45.4575Z" fill="white"/>
<path d="M136.854 52.667C136.854 54.7281 136.854 56.7891 136.854 58.8502C136.854 59.7222 136.774 60.6734 137.805 60.9905C138.677 61.2283 139.549 60.832 140.183 59.8014C140.262 59.7222 140.342 59.5636 140.342 59.4843C140.5 59.2465 140.579 58.9294 140.976 59.1673C141.293 59.3258 141.134 59.5636 141.055 59.8014C140.342 61.7039 138.36 62.9723 136.299 62.893C133.445 62.7345 132.097 61.5454 131.939 58.6916C131.78 54.8866 131.86 51.0816 131.86 47.3559C131.86 45.4534 131.86 45.4534 130.036 45.4534C129.799 45.4534 129.561 45.4534 129.402 45.4534C129.164 45.4534 129.006 45.3741 129.006 45.057C129.006 44.7399 129.164 44.7399 129.402 44.7399C129.561 44.7399 129.799 44.7399 129.957 44.7399C131.86 44.7399 131.86 44.7399 131.86 42.7582C131.86 41.9655 131.622 40.9349 132.018 40.38C132.335 39.9837 133.445 40.1422 134.238 39.9837C134.951 39.8251 135.585 39.6666 136.22 39.3495C136.774 39.1117 136.854 39.2702 136.854 39.7458C136.854 41.1727 136.854 42.5996 136.854 44.0265C136.854 44.5814 136.933 44.7399 137.488 44.7399C138.439 44.6607 139.39 44.7399 140.342 44.7399C140.579 44.7399 140.897 44.5814 140.897 45.057C140.897 45.4534 140.659 45.4534 140.342 45.4534C139.47 45.4534 138.598 45.5326 137.805 45.4534C137.092 45.3741 136.854 45.6119 136.854 46.3254C136.933 48.4657 136.854 50.606 136.854 52.667Z" fill="white"/>
<path d="M121.318 23.7344C121.318 26.1125 121.318 28.5699 121.318 30.948C121.318 32.3749 121.635 32.692 123.062 32.9298C123.379 33.0091 123.458 33.1676 123.458 33.4055C123.458 33.7225 123.221 33.7225 122.983 33.7225C120.208 33.6433 117.434 33.6433 114.659 33.7225C114.421 33.7225 114.184 33.8018 114.184 33.3262C114.184 33.0091 114.421 32.9298 114.659 32.9298C115.769 32.9298 116.245 32.2164 116.324 31.2651C116.403 29.9175 116.403 28.5699 116.403 27.2223C116.403 24.8442 116.403 22.4661 116.403 20.0879C116.403 19.2952 116.324 18.5818 116.086 17.8683C115.848 17.3134 115.373 16.9963 114.818 16.8378C114.501 16.7585 114.184 16.8378 114.263 16.3622C114.342 15.8073 114.738 16.1244 114.976 16.1244C116.879 16.2829 118.861 16.2036 120.763 15.8073C121.318 15.728 121.477 15.8073 121.477 16.3622C121.318 18.8196 121.318 21.277 121.318 23.7344Z" fill="white"/>
<path d="M62.8927 27.3064C62.4963 25.6417 62.7341 24.1355 62.4963 22.6294C62.4171 22.233 62.4963 21.8367 62.4171 21.4403C62.3378 20.7269 62.5756 20.0927 63.2098 19.7756C64.2403 19.1415 65.2708 18.5073 66.3013 17.7939C66.777 17.556 67.0148 17.4768 67.094 18.1902C67.094 19.3793 67.2526 20.4891 67.2526 21.6781C67.2526 22.233 67.2526 22.8672 66.8562 23.2636C65.7464 24.6904 64.3988 25.8795 62.8927 27.3064Z" fill="white"/>
<path d="M121.712 9.94326C121.712 11.608 120.443 12.6385 118.541 12.6385C116.559 12.6385 115.37 11.5287 115.37 9.86401C115.37 8.27859 116.638 7.24805 118.541 7.24805C120.602 7.24805 121.712 8.27857 121.712 9.94326Z" fill="white"/>
<path d="M73.1186 15.6524C73.2771 16.6036 72.8808 17.5549 72.0088 18.2683C70.9783 19.2195 70.027 20.2501 69.0758 21.2013C68.9172 21.3599 68.7587 21.677 68.4416 21.5977C68.1245 21.5184 68.2038 21.1221 68.2038 20.8843C68.1245 19.8537 68.2038 18.7439 68.0453 17.7134C67.966 17.0792 68.3623 16.6036 68.9172 16.2865C69.9478 15.6523 70.9783 15.0182 71.9295 14.384C72.8808 13.8291 72.9601 13.8291 73.0393 14.9389C73.0393 15.0182 73.1186 15.256 73.1186 15.6524Z" fill="white"/>
<path d="M202.886 70.6649C202.886 70.0307 202.886 69.4758 202.886 68.9209C202.886 68.6039 202.965 68.4453 203.282 68.4453C203.599 68.4453 203.679 68.6039 203.679 68.9209C203.679 71.1405 203.679 73.3601 203.679 75.5797C203.679 75.8175 203.599 76.0553 203.441 75.9761C202.807 75.5797 202.252 76.2139 201.697 76.1346C200.746 76.0553 200.111 75.5004 200.032 74.3906C199.953 73.5979 199.953 72.8845 200.032 72.0918C200.191 70.5856 201.3 70.0307 202.886 70.6649ZM200.983 73.2016C200.983 73.5979 200.983 73.9943 200.983 74.3906C201.063 74.8663 201.3 75.1834 201.855 75.2626C202.41 75.3419 202.807 74.9455 202.886 74.4699C203.044 73.5979 203.044 72.8052 202.886 71.9332C202.807 71.4576 202.41 71.2198 201.935 71.2198C201.38 71.2198 201.142 71.5369 201.063 72.0125C200.983 72.4089 200.983 72.8052 200.983 73.2016Z" fill="white"/>
<path d="M172.921 75.9773C172.604 75.9773 172.446 75.8981 172.525 75.581C173.08 73.4407 173.635 71.3003 174.19 69.16C174.269 68.8429 174.507 68.7637 174.824 68.7637C175.22 68.7637 175.3 68.9222 175.379 69.2393C175.934 71.3004 176.409 73.3614 176.964 75.4224C177.044 75.6603 177.202 75.9773 176.726 75.9773C176.489 75.9773 176.172 76.0566 176.013 75.6603C176.013 75.581 176.013 75.5017 175.934 75.3432C175.696 74.4712 174.745 73.9956 173.873 74.3919C173.476 74.5505 173.556 74.9468 173.476 75.2639C173.556 75.6603 173.476 76.0566 172.921 75.9773ZM174.903 70.5869C174.824 70.5869 174.745 70.5869 174.745 70.5869C174.507 71.5381 174.269 72.5687 174.031 73.5992C174.586 73.5992 175.062 73.5992 175.617 73.5992C175.379 72.4894 175.141 71.5381 174.903 70.5869Z" fill="white"/>
<path d="M145.653 76.0574C144.543 76.0574 143.909 75.5025 143.671 74.5513C143.592 74.3134 143.434 73.9964 143.909 73.9964C144.147 73.9964 144.464 73.8378 144.543 74.3135C144.623 74.6305 144.702 74.9476 145.019 75.1062C145.574 75.4233 146.129 75.344 146.525 74.8684C146.921 74.3927 146.842 73.8378 146.446 73.4415C145.97 72.9658 145.415 72.728 144.86 72.3317C144.226 71.9353 143.751 71.4597 143.671 70.5877C143.592 69.6365 144.147 68.8438 145.098 68.6852C146.208 68.4474 147.159 68.923 147.476 69.9536C147.556 70.1914 147.793 70.5084 147.318 70.667C147.001 70.7463 146.684 70.7463 146.604 70.3499C146.525 70.1121 146.446 69.9535 146.287 69.795C145.812 69.4779 145.336 69.4779 144.86 69.8743C144.464 70.2706 144.464 70.8255 144.86 71.2219C145.177 71.539 145.653 71.7768 145.97 72.0146C146.367 72.2524 146.763 72.4902 147.08 72.8866C147.635 73.5208 147.793 74.3135 147.397 75.1062C147.239 75.7403 146.684 76.0574 145.653 76.0574Z" fill="white"/>
<path d="M180.768 70.7465C182.591 69.9538 183.463 70.4294 183.543 72.4112C183.622 73.4417 183.543 74.3929 183.543 75.4235C183.543 75.6613 183.543 75.8991 183.146 75.8991C182.75 75.8991 182.671 75.7405 182.671 75.3442C182.671 74.2344 182.671 73.2039 182.591 72.0941C182.591 71.5392 182.433 71.0636 181.719 71.0636C181.164 71.1428 180.847 71.5392 180.768 72.0941C180.689 73.1246 180.689 74.0759 180.689 75.1064C180.689 75.4235 180.768 75.8198 180.213 75.8198C179.658 75.8198 179.817 75.4235 179.817 75.1857C179.817 73.1246 179.817 71.0635 179.817 69.0025C179.817 68.7647 179.658 68.3683 180.213 68.2891C180.768 68.2891 180.689 68.6061 180.689 69.0025C180.768 69.7159 180.768 70.1916 180.768 70.7465Z" fill="white"/>
<path d="M110.536 72.3262C110.536 71.2956 110.536 70.2651 110.536 69.3139C110.536 68.8382 110.616 68.6797 111.091 68.6797C111.884 68.6797 112.756 68.6797 113.549 68.6797C113.866 68.6797 114.104 68.759 114.104 69.1553C114.104 69.5517 113.866 69.5517 113.628 69.5517C113.311 69.5517 112.994 69.6309 112.677 69.5517C111.726 69.3931 111.408 69.7895 111.408 70.7407C111.408 71.6127 111.567 72.0091 112.518 71.8505C112.835 71.7713 113.232 71.8505 113.549 71.8505C113.787 71.8505 113.866 71.9298 113.866 72.1676C113.866 72.4054 113.866 72.6432 113.549 72.6432C113.39 72.6432 113.311 72.6432 113.152 72.6432C111.329 72.7225 111.329 72.7225 111.408 74.4665C111.408 74.8628 111.488 75.1006 111.963 75.0214C112.518 75.0214 113.073 75.0214 113.549 75.0214C113.866 75.0214 114.104 75.1006 114.104 75.497C114.104 75.8141 113.945 75.8934 113.628 75.8934C112.756 75.8934 111.884 75.8934 110.933 75.8934C110.536 75.8934 110.378 75.6555 110.378 75.3385C110.536 74.3872 110.536 73.3567 110.536 72.3262Z" fill="white"/>
<path d="M87.7061 73.2038C87.7061 72.8867 87.7061 72.4904 87.7061 72.1733C87.7853 71.0635 88.4195 70.4293 89.45 70.4293C90.5598 70.3501 91.194 70.905 91.4318 71.9355C91.4318 72.094 91.5111 72.1733 91.5111 72.3318C91.6696 73.6795 91.6696 73.6795 90.322 73.6795C90.0842 73.6795 89.8464 73.6002 89.6878 73.6795C89.3707 73.7587 88.8951 73.3624 88.7366 73.9965C88.6573 74.4722 88.7366 74.9478 89.2122 75.1856C89.6878 75.4234 90.1635 75.3441 90.4805 74.9478C90.5598 74.7892 90.6391 74.6307 90.7184 74.4722C90.8769 74.2344 91.1147 74.3136 91.3525 74.3929C91.6696 74.4722 91.5111 74.71 91.5111 74.9478C91.2733 75.7405 90.6391 76.2161 89.6086 76.2161C88.6573 76.2161 88.0231 75.7405 87.8646 74.7893C87.7061 74.2344 87.7061 73.6795 87.7061 73.2038ZM89.6086 72.8868C89.8464 72.6489 90.6391 73.2831 90.6391 72.3318C90.6391 71.6977 90.4013 71.2221 89.6878 71.2221C88.9744 71.2221 88.7366 71.6977 88.7366 72.3318C88.5781 73.2038 89.2122 72.7282 89.6086 72.8868Z" fill="white"/>
<path d="M186.636 73.2787C186.636 72.8031 186.636 72.4068 186.715 71.9311C186.874 70.8213 187.508 70.3457 188.618 70.3457C189.648 70.3457 190.282 70.9799 190.441 72.0897C190.599 73.5958 190.599 73.5958 189.014 73.5958C188.855 73.5958 188.697 73.5958 188.538 73.5958C188.221 73.6751 187.666 73.2787 187.587 73.9129C187.508 74.3885 187.587 74.8642 188.142 75.102C188.617 75.3398 189.093 75.2605 189.41 74.8642C189.489 74.7849 189.569 74.6263 189.569 74.5471C189.727 74.1507 190.044 74.1507 190.282 74.3093C190.599 74.3885 190.441 74.7849 190.361 74.9434C190.044 75.8154 189.41 76.1325 188.538 76.1325C187.666 76.1325 187.111 75.7361 186.794 74.9434C186.556 74.3885 186.636 73.8336 186.636 73.2787ZM188.459 72.8824C188.697 72.486 189.41 73.2787 189.41 72.3275C189.41 71.6933 189.172 71.2177 188.459 71.1384C187.746 71.1384 187.508 71.614 187.428 72.2482C187.428 73.1995 188.063 72.7238 188.459 72.8824Z" fill="white"/>
<path d="M196.94 73.7556C196.94 74.1519 197.019 74.5483 196.94 74.8654C196.861 75.341 197.336 76.3715 196.068 75.7374C195.989 75.6581 195.751 75.8959 195.592 75.9752C194.958 76.1337 194.245 76.213 193.69 75.6581C193.135 75.1825 193.056 74.469 193.293 73.8349C193.531 73.2007 194.007 72.8044 194.72 72.8044C194.879 72.8044 195.117 72.8044 195.275 72.7251C195.513 72.6458 195.989 72.9629 196.068 72.408C196.147 72.0116 196.068 71.536 195.672 71.2982C195.354 71.1397 194.958 71.1396 194.641 71.3775C194.562 71.4567 194.482 71.6153 194.403 71.7738C194.245 72.0909 193.848 72.0116 193.69 71.9324C193.373 71.8531 193.531 71.536 193.61 71.2982C193.928 70.5055 194.641 70.1884 195.434 70.2677C196.226 70.3469 196.861 70.7433 196.94 71.536C196.94 72.3287 196.94 73.0422 196.94 73.7556ZM195.117 75.2618C195.909 75.1825 196.068 74.7861 196.068 74.0727C196.068 73.5178 195.83 73.4385 195.434 73.5178C194.879 73.5971 194.165 73.5178 194.165 74.3898C194.086 75.0239 194.483 75.2618 195.117 75.2618Z" fill="white"/>
<path d="M120.443 73.6797C120.443 74.3139 120.443 74.8688 120.443 75.5029C120.443 75.7407 120.443 76.1371 120.126 75.9786C119.492 75.6615 119.016 76.1371 118.461 76.1371C117.431 76.1371 116.797 75.5822 116.718 74.6309C116.638 73.6004 117.114 72.9663 118.065 72.8077C118.303 72.7284 118.541 72.8077 118.699 72.7284C119.016 72.6492 119.492 72.9663 119.492 72.4114C119.492 72.015 119.492 71.6186 119.096 71.3808C118.699 71.143 118.224 71.143 117.986 71.5394C117.669 71.9357 117.352 72.4906 116.955 71.9357C116.638 71.5394 117.114 70.9845 117.51 70.6674C118.144 70.271 118.858 70.271 119.492 70.5881C120.126 70.9052 120.285 71.4601 120.364 72.0943C120.443 72.5699 120.443 73.1248 120.443 73.6797ZM119.254 73.4419C118.382 73.5211 117.669 73.4419 117.669 74.3931C117.669 74.948 117.986 75.2651 118.541 75.2651C119.333 75.2651 119.571 74.8687 119.651 74.1553C119.651 73.6797 119.571 73.3626 119.254 73.4419Z" fill="white"/>
<path d="M79.1451 10.4936C79.0659 10.9692 79.0658 11.3655 78.6695 11.6826C77.3219 13.0302 75.9743 14.3778 74.6267 15.7254C74.4681 15.884 74.2303 16.1218 73.9925 16.0425C73.6754 15.9633 73.8339 15.6462 73.7547 15.4084C73.4376 13.3473 73.5169 13.1888 75.2608 12.1582C76.2121 11.6034 77.1634 11.0484 78.0353 10.4143C78.511 10.0972 78.828 10.0972 79.1451 10.4936Z" fill="white"/>
<path d="M159.367 73.7543C159.367 74.3092 159.367 74.8641 159.367 75.419C159.367 75.6569 159.287 75.9739 159.05 75.8947C158.415 75.5776 158.019 76.0532 157.464 76.0532C156.434 76.1325 155.72 75.5776 155.641 74.5471C155.482 73.5958 156.037 72.8824 157.147 72.7238C157.306 72.7238 157.543 72.7238 157.702 72.6446C157.94 72.5653 158.415 72.8824 158.495 72.4068C158.574 72.0104 158.574 71.5348 158.098 71.297C157.702 71.0592 157.306 71.1384 156.988 71.4555C156.909 71.5348 156.83 71.7726 156.751 71.8518C156.513 72.1689 156.196 72.0897 155.958 72.0104C155.641 71.9311 155.879 71.614 155.958 71.4555C156.275 70.5835 156.989 70.3457 157.86 70.3457C158.732 70.425 159.287 70.9799 159.367 71.8518C159.367 71.9311 159.367 72.0104 159.367 72.0104C159.367 72.6446 159.367 73.1995 159.367 73.7543ZM158.415 74.1507C158.415 73.7543 158.495 73.4373 157.86 73.5165C157.226 73.5958 156.513 73.5166 156.513 74.3885C156.513 75.0227 156.909 75.2605 157.464 75.2605C158.257 75.2605 158.495 74.8641 158.415 74.1507Z" fill="white"/>
<path d="M164.045 74.0718C164.362 72.8827 164.679 72.0107 164.917 71.0595C164.996 70.6631 165.234 70.346 165.71 70.5046C166.265 70.6631 165.868 71.0595 165.789 71.218C165.314 73.0413 164.679 74.8645 164.204 76.6084C164.045 77.2426 163.649 77.7975 162.935 77.8768C162.698 77.8768 162.38 78.0353 162.38 77.639C162.38 77.4012 162.301 77.1633 162.698 77.0048C163.49 76.6084 163.887 75.7365 163.57 74.8645C163.173 73.5962 162.698 72.4071 162.222 71.1387C162.143 70.9009 161.826 70.5839 162.301 70.5046C162.618 70.4253 162.935 70.5046 163.015 70.9009C163.252 71.8522 163.649 72.8827 164.045 74.0718Z" fill="white"/>
<path d="M78.6671 73.912C78.6671 74.3876 78.6671 74.8632 78.6671 75.3388C78.6671 75.6559 78.7463 75.973 78.1914 75.973C77.6365 75.973 77.7158 75.6559 77.7158 75.3388C77.7158 74.3876 77.7158 73.3571 77.7158 72.4058C77.7158 71.8509 77.6365 71.2168 76.9231 71.2168C76.1304 71.2168 75.8926 71.7717 75.8926 72.4058C75.8926 73.3571 75.8926 74.3083 75.8926 75.2596C75.8926 75.5767 75.9718 75.973 75.4169 75.973C74.9413 75.973 75.0206 75.6559 75.0206 75.3388C75.0206 73.912 75.0206 72.4851 75.0206 71.0582C75.0206 70.6619 75.2584 70.2655 75.4962 70.5033C75.9718 70.979 76.2889 70.5826 76.606 70.4241C77.6365 70.107 78.4292 70.5033 78.6671 71.6131C78.7463 71.8509 78.7463 72.0887 78.7463 72.2473C78.6671 72.8022 78.6671 73.3571 78.6671 73.912Z" fill="white"/>
<path d="M96.1095 76.0529C95.3167 76.0529 94.6826 75.8151 94.3655 75.0223C94.2862 74.7845 93.9691 74.4675 94.4448 74.3089C94.6826 74.2296 95.0789 74.1504 95.1582 74.626C95.2375 74.9431 95.4753 75.1016 95.7924 75.1809C96.268 75.3394 96.7436 75.2602 96.9814 74.7053C97.2193 74.2296 96.9022 73.9125 96.4265 73.754C95.9509 73.5162 95.4753 73.3577 95.0789 73.1198C94.2862 72.7235 94.1277 72.0101 94.4448 71.2173C94.7618 70.3454 95.5546 70.1868 96.3473 70.2661C97.14 70.3454 97.6156 70.821 97.7742 71.5344C97.8534 71.693 97.8534 71.9308 97.5363 71.9308C97.2985 71.9308 96.9814 72.0101 96.9022 71.693C96.7436 71.2966 96.5058 71.0588 96.0302 71.0588C95.6338 71.0588 95.3167 71.1381 95.1582 71.5344C94.9997 71.9308 95.2375 72.1686 95.5546 72.3271C95.9509 72.4857 96.3473 72.6442 96.7436 72.882C97.5363 73.2784 97.9327 73.8333 97.7742 74.7053C97.6949 75.6565 97.14 76.0529 96.1095 76.0529Z" fill="white"/>
<path d="M134.953 74.0719C135.27 72.9621 135.587 72.0902 135.825 71.2182C135.983 70.584 136.221 70.3462 136.934 70.6633C136.3 72.7243 135.666 74.7854 135.032 76.8464C134.873 77.4806 134.477 77.9562 133.764 77.9562C133.605 77.9562 133.288 78.1147 133.288 77.7184C133.288 77.4806 133.209 77.2428 133.526 77.0842C134.398 76.6086 134.715 75.7366 134.398 74.8647C134.001 73.6756 133.526 72.4865 133.129 71.2975C133.05 71.0596 132.575 70.7425 133.209 70.584C133.605 70.4255 133.843 70.6633 134.001 71.1389C134.239 72.0109 134.556 72.9621 134.953 74.0719Z" fill="white"/>
<path d="M72.5642 12.8763C72.4056 10.8945 72.4056 10.8945 70.3446 10.3396C70.1068 10.2603 69.9482 10.1811 69.9482 9.86398C69.9482 9.54689 70.1068 9.54688 70.3446 9.54688C72.6435 9.54688 74.9423 9.54689 77.3204 9.7847C75.8936 10.8152 74.3081 11.7665 72.5642 12.8763Z" fill="white"/>
<path d="M83.2651 74.3906C83.5821 73.2808 83.82 72.2502 84.0578 71.1404C84.137 70.7441 84.2956 70.427 84.7712 70.5063C85.3261 70.6648 84.9298 71.0612 84.9298 71.299C84.6127 72.6466 84.2163 73.9942 83.82 75.3418C83.7407 75.6589 83.6614 75.976 83.1858 75.976C82.7102 75.976 82.6309 75.7381 82.5516 75.3418C82.1553 73.9149 81.7589 72.5673 81.3626 71.1404C81.2833 70.9026 80.9662 70.5855 81.4418 70.5063C81.7589 70.427 82.076 70.427 82.1553 70.9819C82.3138 71.9331 82.6309 72.9637 82.8687 73.9149C83.0272 74.0735 82.948 74.3113 83.2651 74.3906Z" fill="white"/>
<path d="M150.966 73.0433C150.966 72.6469 150.966 72.2506 150.966 71.9335C150.966 71.6164 151.045 71.2201 150.49 71.2993C150.252 71.2993 150.173 71.1408 150.173 70.9822C150.173 70.8237 150.094 70.5066 150.411 70.5066C151.124 70.5859 150.966 70.1103 150.966 69.7139C150.966 69.4761 150.886 69.2383 151.362 69.2383C151.679 69.2383 151.917 69.3176 151.838 69.7139C151.838 70.1895 151.838 70.5859 152.472 70.5066C152.789 70.4274 152.868 70.5859 152.868 70.903C152.868 71.2201 152.789 71.3786 152.472 71.2993C151.838 71.2201 151.838 71.5371 151.838 72.0128C151.838 72.6469 151.838 73.3604 151.838 73.9945C151.838 74.6287 151.917 75.1836 152.71 75.1836C153.106 75.1836 153.027 75.4214 153.027 75.7385C153.027 76.0556 152.789 76.0556 152.551 76.0556C151.679 76.0556 151.045 75.5007 150.966 74.6287C150.966 74.0738 151.045 73.5982 150.966 73.0433C151.045 73.0433 151.045 73.0433 150.966 73.0433Z" fill="white"/>
<path d="M102.768 76.0556C101.896 75.9763 101.262 75.4214 101.262 74.4702C101.262 73.836 101.341 73.1226 101.262 72.4884C101.182 72.0128 101.737 71.2201 100.628 71.2201C100.469 71.2201 100.31 70.5066 100.707 70.5066C101.42 70.5066 101.262 70.1103 101.262 69.7139C101.262 69.4761 101.182 69.2383 101.658 69.2383C101.975 69.2383 102.213 69.3176 102.134 69.7139C102.134 70.1895 102.134 70.5859 102.768 70.5066C103.085 70.4274 103.164 70.5859 103.164 70.903C103.164 71.2201 103.085 71.3786 102.768 71.2993C102.134 71.2201 102.134 71.5371 102.134 72.0128C102.134 72.5677 102.134 73.1226 102.134 73.5982C102.134 74.3116 101.975 75.1043 103.085 75.2629C103.402 75.2629 103.323 75.58 103.243 75.8178C103.164 76.1349 102.847 75.9763 102.768 76.0556Z" fill="white"/>
<path d="M70.7443 72.3309C70.7443 71.3003 70.7443 70.3491 70.7443 69.3186C70.7443 69.0015 70.7443 68.7637 71.1407 68.7637C71.6163 68.7637 71.6163 69.0015 71.6163 69.3186C71.6163 71.3004 71.6163 73.3614 71.6163 75.3432C71.6163 75.6602 71.6163 75.9773 71.1407 75.9773C70.5858 75.9773 70.665 75.6602 70.665 75.3432C70.7443 74.3126 70.7443 73.2821 70.7443 72.3309Z" fill="white"/>
<path d="M123.694 73.2043C123.694 72.4909 123.694 71.7774 123.694 71.064C123.694 70.7469 123.773 70.3506 124.09 70.5091C124.645 70.9055 125.041 70.4298 125.517 70.4298C125.913 70.4298 126.468 70.1127 126.468 70.9055C126.468 71.2225 126.468 71.3018 126.072 71.3018C124.883 71.3018 124.565 71.6189 124.565 72.808C124.565 73.6799 124.565 74.4726 124.565 75.3446C124.565 75.5824 124.645 75.8995 124.169 75.9788C123.694 75.9788 123.614 75.8202 123.614 75.4239C123.694 74.7104 123.694 73.9177 123.694 73.2043Z" fill="white"/>
<path d="M130.116 72.2503C130.116 73.2808 130.116 74.3114 130.116 75.2626C130.116 75.5004 130.275 75.8968 129.72 75.9761C129.086 75.9761 129.323 75.5797 129.244 75.2626C129.244 73.2016 129.244 71.1405 129.244 69.0795C129.244 68.7624 129.165 68.4453 129.641 68.4453C130.195 68.4453 130.037 68.8417 130.037 69.0795C130.116 70.11 130.116 71.2198 130.116 72.2503Z" fill="white"/>
<path d="M79.1455 10.4989C79.2248 9.62691 80.7309 8.43784 82.0785 8.2793C81.3651 9.15128 80.5724 9.86472 79.7004 10.4989C79.6211 10.6574 79.304 10.5782 79.1455 10.4989Z" fill="white"/>
</svg>
