<svg width="227" height="89" viewBox="0 0 227 89" fill="none" xmlns="http://www.w3.org/2000/svg">
<path d="M110.17 32.8555H102.829C102.567 32.8555 102.436 32.9868 102.436 33.2495V47.4368C102.436 48.225 102.305 49.0132 101.649 49.5386C101.256 50.0641 100.469 50.3268 99.6829 50.3268C98.8964 50.3268 98.241 50.0641 97.7167 49.5386C97.3233 49.0132 96.9301 48.3564 96.9301 47.4368V33.2495C96.9301 32.9868 96.7991 32.8555 96.5369 32.8555H89.0651C88.8029 32.8555 88.6719 32.9868 88.6719 33.2495V47.3055C88.6719 50.4581 89.7204 52.9542 91.8178 54.9246C93.784 56.895 96.537 57.8145 99.5519 57.8145C102.96 57.8145 105.713 56.895 107.679 54.9246C109.776 52.9542 110.825 50.4581 110.825 47.3055V33.1182C110.694 32.9868 110.432 32.8555 110.17 32.8555Z" fill="white"/>
<path d="M139.795 32.8572H133.109C132.847 32.8572 132.716 32.9885 132.716 33.2513V42.4468C132.716 42.841 132.192 43.1035 131.93 42.7095L124.589 32.9885C124.458 32.8572 124.458 32.8572 124.196 32.8572H118.035C117.773 32.8572 117.642 32.9885 117.642 33.2513V56.6341C117.642 56.8968 117.773 57.0281 118.035 57.0281H124.72C124.982 57.0281 125.113 56.8968 125.113 56.6341V47.0445C125.113 46.6505 125.638 46.3876 125.9 46.7818L133.372 56.8968C133.503 57.0282 133.503 57.0281 133.765 57.0281H139.533C139.795 57.0281 139.926 56.8968 139.926 56.6341V33.2513C140.188 32.9885 140.057 32.7258 139.795 32.8572Z" fill="white"/>
<path d="M154.476 32.7246H147.135C146.873 32.7246 146.742 32.9873 146.742 33.2501V56.6327C146.742 56.8955 146.873 57.0269 147.135 57.0269H154.476C154.738 57.0269 154.869 56.8955 154.869 56.6327V33.2501C155 32.9873 154.738 32.7246 154.476 32.7246Z" fill="white"/>
<path d="M182.791 35.6152C180.3 33.2506 177.154 32.0684 173.09 32.0684C169.027 32.0684 165.881 33.2506 163.39 35.6152C160.899 37.9796 159.72 41.1324 159.72 44.942C159.72 48.7515 160.899 51.9043 163.39 54.2688C165.75 56.6334 169.027 57.8156 173.09 57.8156C177.154 57.8156 180.3 56.6334 182.791 54.2688C185.281 51.9043 186.46 48.7515 186.46 44.942C186.46 41.1324 185.281 37.9796 182.791 35.6152ZM176.761 48.8828C175.843 49.8025 174.663 50.3279 173.09 50.3279C171.648 50.3279 170.338 49.9338 169.42 48.8828C168.502 47.8319 168.109 46.6497 168.109 44.942C168.109 43.2343 168.502 42.0519 169.42 41.001C170.338 39.95 171.518 39.556 173.09 39.556C174.533 39.556 175.843 39.95 176.761 41.001C177.678 42.0519 178.071 43.2343 178.071 44.942C178.071 46.6497 177.678 47.9633 176.761 48.8828Z" fill="white"/>
<path d="M213.726 32.8572H207.04C206.777 32.8572 206.647 32.9885 206.647 33.2513V42.4468C206.647 42.841 206.123 43.1035 205.861 42.7095L198.519 32.9885C198.388 32.8572 198.388 32.8572 198.126 32.8572H191.965C191.703 32.8572 191.572 32.9885 191.572 33.2513V56.6341C191.572 56.8968 191.703 57.0281 191.965 57.0281H198.651C198.912 57.0281 199.044 56.8968 199.044 56.6341V47.0445C199.044 46.6505 199.568 46.3876 199.831 46.7818L207.303 56.8968C207.433 57.0282 207.433 57.0281 207.696 57.0281H213.463C213.726 57.0281 213.856 56.8968 213.856 56.6341V33.2513C214.119 32.9885 213.988 32.7258 213.726 32.8572Z" fill="white"/>
<path d="M54.4587 29.9668C54.5898 29.9668 54.5898 30.0981 54.4587 29.9668L50.395 34.1704C50.264 34.3017 50.1329 34.3017 50.1329 34.1704L49.3465 33.3822C49.0843 33.1194 48.822 33.1194 48.5598 33.1194C48.5598 33.1194 46.5936 33.1194 45.9382 33.1194C45.8071 33.1194 45.8071 32.9882 45.9382 32.9882C48.1666 31.0176 51.4437 29.9668 54.4587 29.9668Z" fill="white"/>
<path d="M37.1564 54.007H34.5348C34.1414 54.007 33.8793 53.8755 33.6171 53.613L31.7819 51.7738C31.5197 51.5111 31.3887 51.1169 31.3887 50.8542V48.2269C31.3887 47.8328 31.5197 47.5701 31.7819 47.3074L33.6171 45.4684C33.8793 45.2057 34.2726 45.0742 34.5348 45.0742H37.1564C37.5497 45.0742 37.8117 45.2057 38.0739 45.4684L39.9091 47.3074C40.1713 47.5701 40.3023 47.9641 40.3023 48.2269V50.8542C40.3023 51.2484 40.1713 51.5111 39.9091 51.7738L38.0739 53.613C37.9429 53.8755 37.5497 54.007 37.1564 54.007Z" fill="white"/>
<path d="M24.5715 29.7031C24.7026 29.7031 24.7027 29.703 24.7027 29.8344C24.7027 30.2284 24.7027 30.6226 24.7027 31.0166C24.7027 31.2794 24.7027 31.5421 24.7027 31.6735C24.7027 31.8048 24.7026 31.9363 24.5715 31.9363L13.1672 43.2335C13.0361 43.3649 13.0361 43.2335 13.0361 43.1022C13.2983 36.534 18.5417 31.0166 24.5715 29.7031Z" fill="white"/>
<path d="M24.9656 34.1699H25.0967C25.3589 35.7463 26.0143 37.1914 26.8008 38.6364V38.7677L16.8384 48.7514C16.183 49.4083 15.5275 50.0651 15.0032 50.5905C14.8721 50.7218 14.6099 50.7218 14.4788 50.4591C13.8234 49.1456 13.4301 47.5692 13.168 46.1242C13.168 45.9928 13.168 45.8615 13.2991 45.8615L24.9656 34.1699Z" fill="white"/>
<path d="M29.5533 49.0135C29.6845 48.882 29.6845 49.0133 29.6845 49.1448V51.6406C29.6845 51.9034 29.8156 52.1661 29.9466 52.4288L30.6021 53.217V53.3483L25.2276 58.603C25.0965 58.7343 24.9654 58.7343 24.8344 58.7343C23.5235 58.4716 22.2126 58.0775 21.0329 57.5521C20.9018 57.5521 20.9018 57.4206 21.0329 57.4206L29.5533 49.0135Z" fill="white"/>
<path d="M27.8493 58.8647C27.7182 58.8647 27.7182 58.7333 27.8493 58.8647L31.9129 54.661C32.0441 54.5297 32.1751 54.5297 32.1751 54.661L32.9616 55.4492C33.2238 55.7119 33.486 55.7119 33.7481 55.7119C33.7481 55.7119 35.7144 55.7119 36.3697 55.7119C36.5009 55.7119 36.5009 55.8432 36.3697 55.8432C34.1413 57.8136 30.8642 58.7333 27.8493 58.8647Z" fill="white"/>
<path d="M15.6574 52.1671C16.8372 50.9849 22.0806 45.7304 23.1292 44.6795C23.2603 44.548 23.3914 44.6794 23.3914 44.8107C23.5225 45.7304 24.0468 46.6499 24.7023 47.3066C25.3577 47.9635 26.2753 48.489 27.3239 48.6203C27.455 48.6203 27.455 48.7517 27.455 48.883C26.4063 49.934 21.4251 54.9259 19.8521 56.6336H19.721C18.148 55.5826 16.8371 54.269 15.7885 52.824C15.5263 52.5613 15.5263 52.2986 15.6574 52.1671Z" fill="white"/>
<path d="M31.2568 40.6061V37.9788C31.2568 37.5848 31.388 37.3221 31.6502 37.0593L33.4852 35.2202C33.7474 34.9575 34.1408 34.8262 34.4029 34.8262H37.0245C37.4179 34.8262 37.68 34.9575 37.9422 35.2202L39.7774 37.0593C40.0396 37.3221 40.1706 37.7161 40.1706 37.9788V40.6061C40.1706 41.0002 40.0396 41.2629 39.7774 41.5256L37.9422 43.3648C37.68 43.6275 37.2867 43.759 37.0245 43.759H34.4029C34.0096 43.759 33.7474 43.6275 33.4852 43.3648L31.6502 41.5256C31.388 41.2629 31.2568 41.0002 31.2568 40.6061Z" fill="white"/>
<path d="M55.3762 27.9957C55.3762 28.1269 55.3764 28.1269 55.2452 28.1269C54.852 28.1269 54.4587 28.1269 54.0655 28.1269C53.8033 28.1269 53.5412 28.1269 53.41 28.1269C53.279 28.1269 53.1478 28.1269 53.1478 27.9957L41.8746 16.567C41.7435 16.4356 41.8746 16.4355 42.0057 16.4355C48.5599 16.5669 54.1965 21.8215 55.3762 27.9957Z" fill="white"/>
<path d="M50.92 28.2582V28.3897C49.3469 28.6524 47.9049 29.3092 46.463 30.0974H46.332L36.3695 20.1138C35.714 19.457 35.0586 18.8001 34.5343 18.2747C34.4033 18.1433 34.4033 17.8805 34.6655 17.7492C35.9762 17.0924 37.5492 16.6983 38.9911 16.4355C39.1223 16.4355 39.2534 16.4356 39.2534 16.567L50.92 28.2582Z" fill="white"/>
<path d="M36.1074 32.9868C36.2384 33.1182 36.1074 33.1182 35.9764 33.1182H33.4857C33.2235 33.1182 32.9615 33.2495 32.6993 33.381L31.9128 34.0377H31.7816L26.5383 28.6518C26.4072 28.5205 26.4072 28.389 26.4072 28.2578C26.6694 26.9441 27.0626 25.6304 27.5869 24.4482C27.5869 24.3167 27.7181 24.3167 27.7181 24.4482L36.1074 32.9868Z" fill="white"/>
<path d="M26.4072 31.1494C26.4072 31.0179 26.4072 31.0179 26.4072 31.1494L30.6019 35.2217C30.7331 35.3529 30.7331 35.4844 30.6019 35.4844L29.8154 36.2726C29.5532 36.5353 29.5532 36.7979 29.5532 37.0606C29.5532 37.0606 29.5532 39.0312 29.5532 39.688C29.5532 39.8194 29.4222 39.8194 29.4222 39.688C27.4559 37.4548 26.4072 34.302 26.4072 31.1494Z" fill="white"/>
<path d="M42.6613 32.7245C42.1369 33.2499 41.6126 33.3814 40.9571 33.3814C40.3017 33.3814 39.6464 33.1187 39.253 32.7245C38.7287 32.199 38.5977 31.6737 38.5977 31.0168C38.5977 30.36 38.8598 29.7031 39.253 29.3091C39.7774 28.7836 40.3017 28.6523 40.9571 28.6523C41.6126 28.6523 42.2679 28.9151 42.6613 29.3091C43.1855 29.8346 43.3166 30.36 43.3166 31.0168C43.3166 31.6737 43.0545 32.3305 42.6613 32.7245Z" fill="white"/>
<path d="M32.9617 19.063C34.1416 20.2453 39.3849 25.4998 40.4336 26.5508C40.5646 26.682 40.4336 26.8135 40.3024 26.8135C39.3849 26.9448 38.4674 27.4702 37.8119 28.1272C37.1565 28.7839 36.6322 29.7036 36.5012 30.7543C36.5012 30.8858 36.37 30.8858 36.2388 30.8858C35.1903 29.8348 30.209 24.8431 28.5049 23.2667V23.1354C29.5536 21.559 30.8645 20.2453 32.3064 19.1944C32.6995 18.8003 32.8307 18.9316 32.9617 19.063Z" fill="white"/>
<path d="M29.422 42.577C29.9463 43.1025 30.0774 43.6279 30.0774 44.2847C30.0774 44.9416 29.8152 45.5983 29.422 45.9925C28.8976 46.518 28.3733 46.6493 27.7179 46.6493C27.0625 46.6493 26.4071 46.3865 26.0138 45.9925C25.4895 45.5983 25.3584 44.9416 25.3584 44.2847C25.3584 43.6279 25.6206 42.9712 26.0138 42.577C26.4071 42.0515 27.0625 41.9202 27.7179 41.9202C28.3733 41.7888 28.8976 42.0515 29.422 42.577Z" fill="white"/>
<path d="M45.0201 34.8262H47.6417C48.035 34.8262 48.2971 34.9575 48.5592 35.2202L50.3945 37.0593C50.6566 37.3221 50.7878 37.7161 50.7878 37.9788V40.6061C50.7878 41.0002 50.6566 41.2629 50.3945 41.5256L48.5592 43.3648C48.2971 43.6275 47.9039 43.759 47.6417 43.759H45.0201C44.6268 43.759 44.3646 43.6275 44.1024 43.3648L42.2672 41.5256C42.005 41.2629 41.874 40.8689 41.874 40.6061V37.9788C41.874 37.5848 42.005 37.3221 42.2672 37.0593L44.1024 35.2202C44.3646 34.9575 44.6268 34.8262 45.0201 34.8262Z" fill="white"/>
<path d="M57.6046 59.1284C57.4736 59.1284 57.4736 59.1284 57.4736 58.9969C57.4736 58.6029 57.4736 58.2087 57.4736 57.8147C57.4736 57.552 57.4736 57.2892 57.4736 57.0265C57.4736 56.8952 57.4736 56.7638 57.6046 56.7638L69.009 45.4666C69.1402 45.3351 69.14 45.4666 69.14 45.5978C69.009 52.2975 63.6345 57.8147 57.6046 59.1284Z" fill="white"/>
<path d="M57.3429 54.663H57.2119C56.9497 53.0867 56.2942 51.6416 55.5078 50.1967V50.0652L65.4701 40.0817C66.1255 39.4248 66.781 38.768 67.3053 38.2425C67.4364 38.1112 67.6985 38.1111 67.8297 38.3738C68.4851 39.6875 68.8782 41.2639 69.1404 42.7088C69.1404 42.8403 69.1406 42.9716 69.0094 42.9716L57.3429 54.663Z" fill="white"/>
<path d="M52.6237 39.8186C52.4927 39.9499 52.4927 39.8185 52.4927 39.6872V37.1913C52.4927 36.9286 52.3617 36.6658 52.2306 36.4031L51.5752 35.6149V35.4835L56.9495 30.2289C57.0807 30.0975 57.2117 30.0977 57.3429 30.0977C58.6536 30.3604 59.9645 30.7544 61.1443 31.2799C61.2753 31.2799 61.2753 31.4113 61.1443 31.4113L52.6237 39.8186Z" fill="white"/>
<path d="M54.4587 29.9668C54.4587 29.9668 54.4587 30.0981 54.4587 29.9668L50.395 34.1704C50.264 34.3017 50.1329 34.3017 50.1329 34.1704L49.3465 33.3822C49.0843 33.1194 48.822 33.1194 48.5598 33.1194C48.5598 33.1194 46.5936 33.1194 45.9382 33.1194C45.8071 33.1194 45.8071 32.9882 45.9382 32.9882C48.1666 31.0176 51.3127 30.0981 54.4587 29.9668Z" fill="white"/>
<path d="M66.5184 36.6655C65.3385 37.8478 60.0952 43.1024 59.0465 44.1534C58.9155 44.2846 58.7845 44.1532 58.7845 44.0219C58.6533 43.1024 58.129 42.1828 57.4736 41.526C56.8181 40.8693 55.9006 40.3438 54.8519 40.2124C54.7209 40.2124 54.7207 40.0811 54.7207 39.9496C55.7694 38.8987 60.7506 33.9069 62.3236 32.1992H62.4548C64.0278 33.25 65.3387 34.5637 66.3872 36.0088C66.6494 36.2715 66.6494 36.5342 66.5184 36.6655Z" fill="white"/>
<path d="M51.0505 48.2269V50.8542C51.0505 51.2484 50.9195 51.5111 50.6573 51.7738L48.8221 53.613C48.5599 53.8755 48.1666 54.007 47.9044 54.007H45.2827C44.8895 54.007 44.6273 53.8755 44.3653 53.613L42.5301 51.7738C42.2679 51.5111 42.1367 51.1169 42.1367 50.8542V48.2269C42.1367 47.8328 42.2679 47.5701 42.5301 47.3074L44.3653 45.4684C44.6273 45.2057 45.0206 45.0742 45.2827 45.0742H47.9044C48.2977 45.0742 48.5599 45.2057 48.8221 45.4684L50.6573 47.3074C50.9195 47.5701 51.0505 47.8328 51.0505 48.2269Z" fill="white"/>
<path d="M26.7998 60.8365C26.7998 60.7051 26.7998 60.7051 26.9309 60.7051C27.3241 60.7051 27.7174 60.7051 28.1106 60.7051C28.3728 60.7051 28.6349 60.7051 28.8971 60.7051C29.0282 60.7051 29.1592 60.7051 29.1592 60.8365L40.4326 72.265C40.5637 72.3965 40.4326 72.3965 40.3014 72.3965C33.6162 72.265 28.1106 67.0105 26.7998 60.8365Z" fill="white"/>
<path d="M31.2568 60.5735V60.4421C32.8299 60.1793 34.2718 59.5226 35.7136 58.7344H35.8448L45.8073 68.7181C46.4626 69.3748 47.1182 70.0316 47.6425 70.5571C47.7735 70.6885 47.7735 70.9512 47.5113 71.0825C46.2005 71.7394 44.6274 72.1335 43.1855 72.3962C43.0544 72.3962 42.9234 72.3962 42.9234 72.2648L31.2568 60.5735Z" fill="white"/>
<path d="M46.07 55.8439C45.9388 55.7125 46.07 55.7125 46.201 55.7125H48.6917C48.9539 55.7125 49.2159 55.5812 49.4781 55.4497L50.2646 54.793H50.3958L55.6391 60.1789C55.7703 60.3104 55.7701 60.4417 55.7701 60.5729C55.5079 61.8866 55.1147 63.2003 54.5904 64.3825C54.5904 64.5139 54.4592 64.5139 54.4592 64.3825L46.07 55.8439Z" fill="white"/>
<path d="M55.9005 57.6841C55.9005 57.8154 55.7693 57.8154 55.9005 57.6841L51.7057 53.6118C51.5747 53.4804 51.5747 53.3491 51.7057 53.3491L52.4922 52.5609C52.7544 52.2981 52.7544 52.0354 52.7544 51.7727C52.7544 51.7727 52.7544 49.8023 52.7544 49.1453C52.7544 49.0141 52.8855 49.0141 52.8855 49.1453C54.8518 51.3785 55.9005 54.5313 55.9005 57.6841Z" fill="white"/>
<path d="M39.6467 56.1079C40.1711 55.5825 40.6954 55.4512 41.3509 55.4512C42.0063 55.4512 42.6618 55.7139 43.055 56.1079C43.5794 56.6334 43.7105 57.1589 43.7105 57.8156C43.7105 58.4725 43.4483 59.1294 43.055 59.5235C42.6618 60.0489 42.0063 60.1804 41.3509 60.1804C40.6954 60.1804 40.0401 59.9176 39.6467 59.5235C39.1225 59.1294 38.9914 58.4725 38.9914 57.8156C38.8604 57.1589 39.1225 56.5021 39.6467 56.1079Z" fill="white"/>
<path d="M49.2155 69.768C48.0357 68.5858 42.7924 63.3313 41.7437 62.2803C41.6127 62.1489 41.7437 62.0176 41.8749 62.0176C42.7924 61.8862 43.7101 61.3607 44.3655 60.7039C45.0208 60.047 45.5452 59.1275 45.6763 58.0766C45.6763 57.9453 45.8073 57.9453 45.9383 57.9453C46.987 58.9962 51.9684 63.988 53.6724 65.5644V65.6957C52.6237 67.2721 51.3128 68.5858 49.871 69.6367C49.6088 70.0307 49.3466 69.8994 49.2155 69.768Z" fill="white"/>
<path d="M52.886 46.2559C52.3616 45.8617 52.2305 45.2049 52.2305 44.5482C52.2305 43.8913 52.4926 43.2345 52.886 42.8405C53.4103 42.315 53.9345 42.1836 54.59 42.1836C55.2454 42.1836 55.9008 42.4463 56.2941 42.8405C56.8184 43.2345 56.9495 43.8913 56.9495 44.5482C56.9495 45.2049 56.6873 45.8617 56.2941 46.2559C55.9008 46.7813 55.2454 46.9126 54.59 46.9126C53.9345 47.0441 53.2792 46.7813 52.886 46.2559Z" fill="white"/>
</svg>
