<svg width="227" height="89" viewBox="0 0 227 89" fill="none" xmlns="http://www.w3.org/2000/svg">
<path d="M112.655 35.6894C111.97 37.9374 111.284 40.0604 110.599 42.1834C108.605 48.5524 106.611 54.8591 104.617 61.2282C104.43 61.8526 104.119 62.04 103.495 62.04C101.751 61.9775 100.006 61.9775 98.3238 62.04C97.3892 62.1023 96.9529 61.8526 96.7037 60.8535C95.333 55.6083 93.8998 50.3632 92.4044 44.8684C91.9682 46.4919 91.5945 47.8032 91.2829 49.1768C90.2236 53.1731 89.1644 57.2319 88.1674 61.2282C88.0427 61.7903 87.7935 61.9775 87.1704 61.9775C85.1766 61.9151 83.245 61.9151 81.251 61.9775C80.7526 61.9775 80.4411 61.8526 80.3164 61.2906C77.7618 52.9859 75.2071 44.6811 72.6524 36.3763C72.4655 35.7519 72.5277 35.627 73.2131 35.627C75.5187 35.6894 77.7618 35.6894 80.0672 35.627C80.6279 35.627 80.815 35.8142 80.9395 36.3763C82.1233 41.1843 83.3074 46.0547 84.4912 50.8629C84.5535 51.1126 84.5535 51.4248 84.8027 51.6745C85.7997 47.9905 86.7965 44.4314 87.7935 40.8096C88.2298 39.311 88.6658 37.75 89.0397 36.2514C89.1644 35.8144 89.3513 35.6894 89.7875 35.6894C91.6568 35.6894 93.4637 35.7519 95.333 35.6894C96.0183 35.6894 96.0183 36.0641 96.143 36.5011C97.4515 41.2468 98.6977 45.9924 100.006 50.7379C100.068 50.9876 100.193 51.2999 100.318 51.6121C100.629 51.2376 100.629 50.8004 100.754 50.4257C101.938 45.7425 103.059 41.0593 104.243 36.3763C104.305 36.0016 104.305 35.627 104.866 35.627C107.359 35.6894 109.976 35.6894 112.655 35.6894Z" fill="white"/>
<path d="M4.79785 59.8551C5.67019 58.3565 6.48021 56.9827 7.29023 55.6715C14.4558 43.745 21.6213 31.7562 28.7869 19.8296C29.2855 18.9555 29.2855 18.9555 29.8462 19.7673C33.834 25.5744 37.8218 31.3815 41.8719 37.1261C42.308 37.7505 42.1835 38.0629 41.6227 38.4374C32.2763 45.3685 22.9298 52.362 13.5835 59.3556C13.1473 59.6678 12.6488 59.8551 12.0881 59.8551C9.7826 59.7926 7.41485 59.8551 4.79785 59.8551Z" fill="white"/>
<path d="M134.463 38.1882C134.463 37.439 134.463 36.8145 134.463 36.1901C134.401 35.6905 134.588 35.5032 135.149 35.5032C137.329 35.5032 139.448 35.5657 141.629 35.5032C142.252 35.5032 142.377 35.753 142.377 36.3149C142.377 38.6253 142.377 40.9356 142.377 43.246C142.377 49.1781 142.377 55.1099 142.377 61.042C142.377 61.7289 142.19 61.9786 141.504 61.9786C139.448 61.9161 137.392 61.9161 135.336 61.9786C134.713 61.9786 134.463 61.7913 134.526 61.1669C134.588 60.6673 134.526 60.1678 134.526 59.6058C134.463 59.6058 134.339 59.6058 134.339 59.6058C132.843 61.8538 130.662 62.7904 128.108 63.0402C120.194 63.6646 113.714 57.8575 113.154 49.9273C112.655 42.6216 117.328 36.5023 124.12 35.0661C125.989 34.6914 127.921 34.6291 129.79 35.0038C131.535 35.3783 132.407 36.0027 134.463 38.1882ZM134.463 48.8034C134.463 45.1193 131.472 42.122 127.734 42.122C124.058 42.122 121.004 45.1816 121.004 48.8659C121.004 52.4874 123.995 55.4221 127.671 55.4846C131.41 55.4221 134.463 52.4874 134.463 48.8034Z" fill="white"/>
<path d="M59.4427 29.8828C59.1312 33.3171 58.8818 36.5017 58.5703 39.6862C58.1965 44.1196 57.7603 48.5529 57.3864 53.0488C57.1996 55.1718 57.0125 57.3573 56.8257 59.4803C56.7633 59.9799 56.5765 60.1047 56.1402 60.1047C56.0157 60.1047 55.891 60.1047 55.7663 60.1047C43.9277 60.1047 32.0265 60.1047 20.1879 60.1047C19.9385 60.1047 19.627 60.2297 19.3154 59.9175C32.6496 49.9267 45.9215 39.9984 59.4427 29.8828Z" fill="white"/>
<path d="M198.268 35.5645C199.95 35.5645 201.445 35.5645 202.941 35.5645C204.312 35.5645 205.681 35.5645 207.053 35.5645C207.614 35.5645 207.925 35.6892 208.237 36.1889C209.483 38.2494 210.792 40.3101 212.101 42.4954C212.786 41.434 213.408 40.4349 213.969 39.4358C214.655 38.3119 215.341 37.188 216.026 36.1264C216.213 35.8767 216.337 35.5645 216.774 35.5645C219.765 35.5645 222.754 35.5645 225.746 35.5645C225.746 36.0014 225.497 36.1889 225.31 36.4386C222.63 40.0602 220.014 43.6195 217.333 47.1786C216.898 47.7407 216.898 48.0528 217.333 48.6772C220.387 52.7359 223.44 56.8572 226.493 60.9159C226.68 61.1657 227.055 61.4154 226.93 61.7901C226.742 62.1648 226.369 61.9775 226.058 61.9775C223.44 61.9775 220.824 61.9775 218.207 61.9775C217.646 61.9775 217.271 61.7901 216.96 61.2906C215.403 58.8554 213.783 56.42 212.163 53.9848C211.788 54.1722 211.726 54.4844 211.539 54.7342C210.106 56.9196 208.61 59.1676 207.177 61.3531C206.928 61.7901 206.618 61.9775 206.056 61.915C203.378 61.915 200.635 61.915 197.957 61.915C197.706 61.915 197.395 62.1023 197.209 61.7276C197.083 61.4154 197.333 61.2281 197.52 60.9784C200.387 57.0446 203.314 53.1106 206.243 49.1768C207.177 47.8655 207.239 47.8655 206.243 46.5542C203.813 43.1823 201.321 39.8105 198.891 36.5011C198.767 36.2512 198.578 36.0014 198.268 35.5645Z" fill="white"/>
<path d="M155.524 55.983C158.764 55.983 161.755 55.983 164.808 55.983C165.555 55.983 165.805 56.1078 165.805 56.9197C165.742 58.3558 165.742 59.8543 165.805 61.2906C165.805 61.7901 165.742 61.9773 165.182 61.9773C159.013 61.9773 152.844 61.9773 146.676 61.9773C146.177 61.9773 146.053 61.7901 146.053 61.3529C146.053 59.9168 146.053 58.4182 146.053 56.9819C146.053 56.545 146.24 56.2952 146.489 55.983C149.916 51.4246 153.343 46.8664 156.77 42.3082C156.895 42.1207 157.081 41.9335 157.206 41.7462C157.019 41.434 156.708 41.5588 156.458 41.5588C153.281 41.5588 150.165 41.5588 146.987 41.5588C146.302 41.5588 146.053 41.434 146.053 40.6846C146.115 39.2485 146.115 37.8122 146.053 36.3761C146.053 35.7517 146.177 35.5645 146.863 35.5645C152.907 35.5645 159.013 35.5645 165.057 35.5645C165.618 35.5645 165.805 35.6892 165.805 36.2514C165.742 37.9372 165.805 39.6232 165.805 41.2466C165.805 41.6837 165.618 42.0584 165.369 42.3706C162.315 46.6167 159.2 50.8002 156.147 55.0464C155.96 55.3586 155.773 55.6083 155.524 55.983Z" fill="white"/>
<path d="M29.5341 69.7831C20.8108 69.7831 12.0875 69.7831 3.42655 69.7831C2.67885 69.7831 2.36732 69.6583 2.42963 68.7841C2.49194 67.2231 2.49194 65.662 2.42963 64.1009C2.42963 63.4765 2.61654 63.3516 3.17733 63.3516C6.04355 63.3516 8.90979 63.3516 11.7137 63.3516C26.3563 63.3516 41.0614 63.3516 55.704 63.3516C56.4517 63.3516 56.7633 63.4765 56.7009 64.3507C56.6386 65.8493 56.6386 67.3478 56.7009 68.8464C56.7009 69.5958 56.5141 69.7831 55.7663 69.7831C46.9808 69.7831 38.2575 69.7831 29.5341 69.7831Z" fill="white"/>
<path d="M190.542 38.2511C192.1 36.0657 194.032 35.0665 196.4 34.8168C197.021 34.7543 197.334 34.8168 197.334 35.6287C197.272 37.7517 197.272 39.8122 197.334 41.9352C197.334 42.5596 197.148 42.7469 196.524 42.7469C195.901 42.7469 195.277 42.8718 194.654 43.0591C192.224 43.6835 191.165 45.0573 191.165 47.6175C191.165 52.1757 191.165 56.6716 191.165 61.2299C191.165 61.8543 191.041 62.104 190.355 62.104C188.174 62.0415 186.055 62.0415 183.876 62.104C183.314 62.104 183.128 61.9792 183.128 61.4171C183.128 53.1124 183.128 44.7451 183.128 36.4403C183.128 35.8784 183.314 35.691 183.876 35.7534C185.869 35.7534 187.863 35.8159 189.856 35.7534C190.48 35.7534 190.604 36.0032 190.604 36.5653C190.48 36.8775 190.542 37.4395 190.542 38.2511Z" fill="white"/>
<path d="M169.356 48.866C169.356 44.7448 169.356 40.6237 169.356 36.44C169.356 35.6908 169.606 35.5034 170.291 35.5659C172.41 35.6283 174.466 35.6283 176.584 35.5659C177.207 35.5659 177.457 35.6906 177.457 36.3775C177.457 44.6823 177.457 52.9873 177.457 61.292C177.457 61.9164 177.27 62.0412 176.647 62.0412C174.466 62.0412 172.347 61.9789 170.167 62.0412C169.481 62.0412 169.356 61.854 169.356 61.2295C169.419 57.046 169.356 52.9248 169.356 48.866Z" fill="white"/>
<path d="M0 29.3203C0.498473 29.4451 0.747718 29.6948 1.05926 29.9447C4.92244 32.5672 8.78561 35.2522 12.5865 37.8748C13.0849 38.2495 13.3342 38.4368 12.898 39.1237C9.53331 44.681 6.23092 50.2383 2.92853 55.7332C2.80393 55.9206 2.67931 56.1079 2.36776 56.5451C1.62005 47.366 0.810019 38.3743 0 29.3203Z" fill="white"/>
<path d="M173.407 33.1304C171.475 33.1304 169.979 31.6941 169.979 29.7585C169.979 27.8853 171.475 26.3242 173.344 26.3242C175.213 26.3242 176.771 27.8228 176.834 29.6961C176.834 31.5693 175.276 33.1304 173.407 33.1304Z" fill="white"/>
</svg>
