<svg width="227" height="89" viewBox="0 0 227 89" fill="none" xmlns="http://www.w3.org/2000/svg">
<path d="M157.891 44.3631C157.891 33.1991 157.891 22.0196 157.891 10.8555C157.891 8.11485 157.921 8.08388 160.718 8.09937C168.753 8.09937 176.787 8.09938 184.807 8.11487C188.9 8.13035 192.887 8.74969 196.565 10.6078C202.405 13.5498 206.099 18.1021 207.412 24.6519C208.787 31.4959 207.844 37.7514 203.564 43.3256C200.181 47.7542 195.499 50.1076 190.076 50.9129C183.307 51.9349 176.478 51.3 169.68 51.4393C167.191 51.4857 167.191 51.4393 167.191 53.8859C167.191 62.1079 167.146 70.3144 167.239 78.5365C167.254 80.1779 166.729 80.6733 165.153 80.5494C163.422 80.4257 161.676 80.4257 159.946 80.5494C158.308 80.6733 157.844 80.0074 157.86 78.4591C157.922 72.3583 157.891 66.2576 157.891 60.1569C157.891 54.8923 157.891 49.6276 157.891 44.3631ZM167.177 29.5913C167.177 33.3074 167.208 37.0392 167.162 40.7553C167.146 42.1489 167.733 42.6908 169.108 42.6753C174.562 42.6288 180.032 42.7063 185.486 42.598C187.124 42.567 188.854 42.3502 190.369 41.7617C194.756 40.0275 197.693 37.0392 198.372 32.0997C199.608 23.2119 194.54 17.6376 186.537 17.0337C180.666 16.6001 174.717 16.9408 168.815 16.8943C167.563 16.8788 167.131 17.3589 167.146 18.6131C167.222 22.2829 167.177 25.9371 167.177 29.5913Z" fill="white"/>
<path d="M40.7402 65.3726C40.7402 61.1918 40.7092 57.0266 40.7555 52.8459C40.7711 51.6381 40.4621 50.5542 39.9367 49.5168C33.1537 36.3862 26.3397 23.2868 19.5567 10.1562C18.6605 8.42202 18.8767 8.09685 20.839 8.06588C22.7086 8.0504 24.5628 8.12785 26.4324 8.05043C27.9157 7.98849 28.781 8.59238 29.4608 9.89304C34.4515 19.4312 39.4886 28.9385 44.5102 38.4457C44.7575 38.9257 44.7266 39.6689 45.5146 39.6689C46.2871 39.6689 46.2871 38.8948 46.5343 38.4457C51.4942 29.0314 56.4539 19.617 61.3365 10.1717C62.1092 8.68527 62.9899 7.89559 64.7667 8.05043C66.4818 8.20527 68.2279 8.06589 69.9737 8.08138C71.2254 8.09686 72.106 8.20527 71.2099 9.93948C66.7445 18.4712 62.3873 27.0803 57.9837 35.6586C55.527 40.4431 53.0703 45.2432 50.5517 49.9968C50.0727 50.8949 49.9336 51.7776 49.9336 52.7376C49.9491 61.2847 49.9027 69.8165 49.98 78.3637C49.9954 80.0205 49.5628 80.6864 47.8322 80.5469C46.1017 80.4076 44.3558 80.4232 42.6252 80.5469C41.1264 80.6554 40.7246 79.9896 40.7402 78.6579C40.7402 74.2295 40.7246 69.801 40.7402 65.3726C40.7246 65.3726 40.7246 65.3726 40.7402 65.3726Z" fill="white"/>
<path d="M146.889 39.7625C145.452 30.3482 140.539 23.0862 132.813 17.7442C121.132 9.66145 105.14 9.25889 93.7993 18.6887C85.0231 25.9818 81.8399 35.4425 83.9878 46.5291C84.9457 51.4686 87.6651 55.6492 91.1571 59.288C91.3733 59.5048 91.5279 59.83 91.7751 59.9539C92.2541 60.2015 92.5168 60.5578 92.2387 61.0068C91.8369 61.6261 91.3735 61.0222 91.1262 60.821C82.9835 54.457 79.0125 46.204 79.9242 35.8141C80.6658 27.3753 84.4976 20.4229 90.879 14.9415C94.8963 11.4886 99.6089 9.1505 104.8 8.08209C115.431 5.86787 125.304 7.72596 134.111 14.1828C139.813 18.3635 143.861 23.845 146.055 30.6424C146.843 33.0734 147.585 35.489 147.554 38.0748C147.399 38.6786 147.337 39.2981 146.889 39.7625Z" fill="white"/>
<path d="M95.452 78.1938C98.774 78.8441 102.127 79.1848 105.526 79.2002C112.649 79.2002 119.077 77.0944 124.794 72.9602C133.06 66.9679 137.958 58.9471 138.561 48.6347C139.256 36.5415 133.215 26.3995 122.105 20.9801C117.532 18.7504 112.479 18.3013 107.411 18.5181C106.515 18.1929 105.325 18.9672 104.661 17.7904C107.736 16.9233 110.81 16.1491 114.04 16.242C125.18 16.5826 135.625 23.3646 140.477 33.9403C142.485 38.3068 143.629 42.9365 143.412 47.7055C142.918 58.2348 138.746 66.9833 130.48 73.8118C126.061 77.466 121.132 79.9744 115.647 81.0429C109.652 82.2197 103.564 82.2197 97.6615 79.99C96.6726 79.6183 95.6837 79.1538 94.6484 78.9216C94.7412 78.4726 95.0658 78.3022 95.452 78.1938Z" fill="white"/>
<path d="M133.987 48.9584C133.138 59.1004 127.853 66.3315 119.201 71.24C114.364 73.9806 109.049 75.3742 103.471 75.0801C93.4744 74.5535 85.2699 70.3108 78.873 62.5998C75.5819 58.6204 73.2179 54.0836 72.0438 49.1286C70.9157 44.3596 70.7458 39.482 71.6884 34.4961C72.9399 27.8999 75.8601 22.3257 80.3255 17.4327C80.5572 17.185 80.7427 16.9682 81.0673 16.9062C81.2681 17.2624 81.4689 17.6185 81.6697 17.9592C79.9392 20.8237 78.1316 23.6418 77.019 26.847C74.9795 32.6845 74.3304 38.5529 75.5357 44.7003C77.1734 53.1545 81.3453 59.8746 88.2211 64.9688C100.86 74.3523 118.799 71.8593 128.193 59.2553C131.114 55.3377 133.076 50.9248 133.246 45.8925C134.575 46.6357 133.586 47.9674 133.987 48.9584Z" fill="white"/>
<path d="M104.661 17.7754C105.326 18.9677 106.515 18.178 107.412 18.5031C105.14 19.2464 102.853 19.9122 100.474 20.0361C100.428 19.8657 100.366 19.6799 100.319 19.5096C101.772 18.9367 103.209 18.3483 104.661 17.7754Z" fill="white"/>
<path d="M133.988 48.9589C133.586 47.9679 134.591 46.6364 133.231 45.8932C133.092 44.7628 133.061 43.6479 133.525 42.084C134.606 44.6544 135.425 46.7292 133.988 48.9589Z" fill="white"/>
<path d="M146.889 39.7621C147.337 39.2976 147.415 38.6783 147.554 38.0898C148.265 38.5235 148.265 39.2511 148.218 39.9169C148.156 40.5828 148.481 41.7596 147.399 41.6357C146.488 41.5428 146.689 40.5054 146.889 39.7621Z" fill="white"/>
<path d="M81.6544 17.962C81.4536 17.6059 81.2527 17.2497 81.0518 16.9091C81.3917 15.8097 82.396 15.3142 83.2303 14.7258C83.8329 14.2923 84.4356 14.4471 83.8329 15.4071C83.6939 15.5155 83.5549 15.6239 83.4158 15.7323C83.1222 16.7078 82.4889 17.4046 81.6544 17.962Z" fill="white"/>
<path d="M95.4529 78.1927C95.0666 78.301 94.742 78.4868 94.6339 78.9049C93.7687 78.9049 93.4905 77.9293 92.6406 77.8366C93.7222 77.372 94.6957 77.0932 95.4529 78.1927Z" fill="white"/>
<path d="M85.208 13.2055C85.5943 12.3384 86.3977 12.1681 87.3866 11.75C86.8767 12.7255 86.6294 13.5617 85.5634 13.5617C85.4397 13.4533 85.3316 13.3294 85.208 13.2055Z" fill="white"/>
<path d="M85.5637 13.5651C85.3938 13.8439 85.1621 14.1226 84.8839 13.7509C84.714 13.5187 85.0075 13.3329 85.2083 13.209C85.332 13.3329 85.4401 13.4568 85.5637 13.5651Z" fill="white"/>
<path d="M84.5283 14.3679C84.4818 14.4453 84.4355 14.5382 84.3891 14.6156C84.3428 14.5692 84.2656 14.5227 84.2656 14.4918C84.281 14.3989 84.3428 14.3214 84.3891 14.2285C84.42 14.275 84.4664 14.3214 84.5283 14.3679Z" fill="white"/>
<path d="M83.4014 15.7314C83.5404 15.623 83.6794 15.5146 83.8184 15.4062C83.6794 15.4992 83.5404 15.6075 83.4014 15.7314Z" fill="white"/>
</svg>
