<svg width="227" height="89" viewBox="0 0 227 89" fill="none" xmlns="http://www.w3.org/2000/svg">
<path d="M124.358 30.3162C124.358 31.4801 124.358 32.6439 124.358 33.9741C131.452 28.4318 138.269 28.709 143.479 34.5837C148.356 40.1259 147.968 50.0465 142.647 55.5887C137.715 60.6876 130.621 60.743 124.469 55.4225C125.078 59.4683 122.307 58.5261 120.201 58.637C118.871 58.6924 118.428 58.1936 118.428 56.8635C118.483 45.0031 118.483 33.0873 118.428 21.227C118.428 19.9522 118.816 19.2872 120.146 19.4534C121.531 19.6197 123.028 18.9546 124.358 19.8968C123.637 23.333 123.527 26.8246 124.358 30.3162ZM132.838 35.3596C128.127 35.1934 124.247 39.1838 124.025 44.4489C123.804 49.1598 127.572 53.7044 131.84 53.9261C136.606 54.2032 140.763 50.0465 140.929 44.7814C141.095 39.8488 137.382 35.4705 132.838 35.3596Z" fill="white"/>
<path d="M105.182 45.8896C102.355 45.8896 99.4735 45.945 96.647 45.8896C94.7072 45.8342 94.5409 46.5547 95.0397 48.2173C96.9795 54.3692 104.849 55.9765 109.505 51.1547C110.558 50.0463 114.715 50.6005 115.324 52.0415C115.657 52.8728 114.881 53.3716 114.493 53.8704C110.835 58.2488 106.235 60.1885 100.582 59.1355C94.9289 58.0825 91.1048 54.7572 89.3867 49.3258C85.7842 37.9642 94.818 27.9328 106.29 30.2605C112.442 31.5352 117.153 38.3522 116.266 44.5595C116.045 45.945 115.269 45.8896 114.382 45.8896C111.278 45.8896 108.23 45.8896 105.182 45.8896ZM102.577 41.4004C104.517 41.4004 106.401 41.345 108.341 41.4004C110.225 41.5112 110.336 40.7353 109.671 39.2944C108.563 36.6895 105.293 34.6943 102.355 34.916C99.4181 35.1377 96.1482 37.5763 95.3723 40.0148C94.9843 41.2341 95.4831 41.4558 96.5361 41.4558C98.5313 41.345 100.527 41.4004 102.577 41.4004Z" fill="white"/>
<path d="M80.5745 35.9131C75.8636 35.9131 71.8178 35.8022 67.8274 35.9685C65.6659 36.0793 65.4442 35.0817 65.4442 33.3082C65.3888 31.4793 65.7768 30.6479 67.8274 30.7034C73.3696 30.8142 78.8564 30.7034 84.3987 30.8142C85.5625 30.8142 87.3914 29.9829 87.7794 31.5347C88.2228 33.1974 88.4999 35.1926 87.0589 36.7998C83.5673 40.7348 80.1311 44.6698 76.6395 48.6048C75.4202 49.9903 74.2564 51.3204 72.6491 53.2048C77.4155 53.2048 81.5721 53.2048 85.7842 53.2048C86.671 53.2048 87.9457 52.8168 88.2228 53.8699C88.5553 55.1446 88.4445 56.5856 88.2228 57.9711C88.1119 58.6916 87.1698 58.5253 86.5601 58.5253C80.0203 58.5253 73.4805 58.5253 66.9406 58.5253C66.331 58.5253 65.3888 58.8024 65.3334 57.9157C65.278 55.9759 64.6129 53.9807 66.2202 52.1518C70.3214 47.6626 74.2564 43.0625 78.3022 38.4625C78.9119 37.8528 79.5215 37.1878 80.5745 35.9131Z" fill="white"/>
<path d="M152.512 53.3727C152.512 58.0282 152.512 62.6837 152.512 67.3391C152.512 68.5584 152.956 69.9994 150.794 70.0548C148.633 70.1103 149.076 68.6693 149.076 67.45C149.076 56.421 149.076 45.3365 149.076 34.3075C149.076 33.1436 148.577 31.5918 150.739 31.5918C152.9 31.5918 152.346 33.0882 152.457 34.3075C152.512 35.0834 152.568 35.8593 152.623 37.3003C154.507 34.4738 156.503 32.6448 159.108 31.6472C164.096 29.7629 169.361 31.4255 172.575 35.7485C178.838 44.1726 174.903 56.8089 165.204 58.8595C159.994 59.9126 155.948 57.6403 152.512 53.3727ZM162.655 33.6978C157.722 33.6978 153.565 37.522 152.679 43.0088C151.792 48.4956 154.895 54.2041 159.606 55.7559C166.368 57.9728 173.517 51.2113 172.409 43.6184C171.522 37.8545 167.421 33.6978 162.655 33.6978Z" fill="white"/>
<path d="M197.182 53.704C193.691 57.0293 189.977 58.8028 185.433 58.1378C180.999 57.4727 177.785 54.2028 177.507 50.2124C177.23 46.1665 179.835 42.8412 184.158 41.5111C188.038 40.3472 191.418 40.6797 197.016 42.7858C197.737 38.74 196.573 35.8026 193.691 33.9737C190.587 32.0893 186.209 32.3664 183.05 34.6387C182.551 35.0267 182.107 35.5809 181.553 35.8026C180.611 36.1351 180.001 35.3592 179.447 34.805C178.782 34.0845 179.613 33.6965 180.001 33.2532C184.103 28.9302 193.303 28.764 197.681 32.9206C199.787 34.9158 200.397 37.4652 200.452 40.1809C200.508 45.0581 200.563 49.9353 200.508 54.8124C200.508 55.81 201.173 57.3064 199.067 57.4173C196.85 57.5281 197.404 56.0317 197.349 54.8678C197.293 54.5907 197.293 54.3136 197.182 53.704ZM187.539 55.3112C192.194 55.4221 195.797 52.6509 197.127 48.2172C197.681 46.3328 197.293 45.0581 195.353 44.393C192.471 43.4509 189.534 42.8412 186.486 43.6171C182.939 44.4485 180.666 47.0533 180.999 50.1015C181.276 53.2052 183.826 55.2004 187.539 55.3112Z" fill="white"/>
<path d="M201.949 31.0922C204.443 30.3717 205.552 30.8705 206.438 33.1983C208.822 39.5164 211.648 45.7237 214.586 52.5961C216.026 49.2153 217.19 46.4442 218.354 43.6176C219.74 40.2369 221.125 36.8007 222.511 33.42C223.675 30.5934 223.675 30.5934 227 31.0922C221.735 43.2297 216.414 55.3672 211.149 67.5046C210.706 68.5022 210.263 69.2227 208.932 69.1673C207.602 69.1119 206.993 68.9456 207.769 67.4492C208.988 65.0106 209.93 62.3504 211.316 59.9672C212.701 57.4732 212.701 55.3117 211.482 52.6515C208.157 45.5574 205.108 38.3525 201.949 31.0922Z" fill="white"/>
<path d="M50.6465 51.0985C40.8367 41.843 31.0824 32.5874 21.3835 23.3874C20.8847 22.944 19.998 22.4452 20.663 21.6138C21.2727 20.8379 22.2703 20.7825 23.2124 20.8379C24.0438 20.8933 24.4317 21.5584 24.986 22.0572C33.521 30.1489 42.0006 38.2959 50.6465 46.2767C52.5308 48.0502 52.6417 49.2695 50.6465 51.0985Z" fill="white"/>
<path d="M44.4394 61.962C43.8852 62.8487 43.5527 63.8463 42.8322 64.3451C42.0563 64.9548 41.6129 63.8463 41.1141 63.403C32.5236 55.2559 23.8778 47.1088 15.3427 38.9063C14.7885 38.3521 13.1813 37.9087 14.6777 36.634C15.6753 35.8027 16.3403 35.0268 17.7813 36.4123C26.1501 44.504 34.6851 52.4848 43.1647 60.521C43.6081 60.909 43.996 61.4078 44.4394 61.962Z" fill="white"/>
<path d="M48.3742 55.3117C47.9863 55.9214 47.6537 56.8635 47.0441 57.4732C46.2682 58.1382 45.8248 57.0852 45.3814 56.6418C37.3452 49.049 29.3644 41.4561 21.3282 33.8633C20.6631 33.1982 19.4992 32.5886 20.8294 31.4801C21.827 30.6488 22.6583 30.2609 23.8222 31.3693C31.6367 38.9067 39.5621 46.3333 47.4321 53.8153C47.82 54.2033 48.3188 54.4804 48.3742 55.3117Z" fill="white"/>
<path d="M5.80999 59.2461C4.25816 59.3015 2.15212 58.4147 0.932826 56.0316C-0.397308 53.5376 0.212339 51.2653 1.87501 49.1592C4.75696 45.4459 4.75696 45.4459 8.13772 48.605C10.4655 50.8219 12.7378 53.0388 15.1209 55.2002C16.2848 56.2533 16.0631 56.6967 14.7884 57.2509C12.1835 58.3039 9.5787 59.0798 5.80999 59.2461Z" fill="white"/>
<path d="M54.8589 44.1171C47.0444 36.746 39.119 29.3194 31.249 21.8928C33.6322 21.1723 36.4587 21.8928 38.3985 23.7217C43.8853 28.9314 49.2613 34.1966 54.8035 39.2954C56.6878 41.0135 56.8541 42.3436 54.8589 44.1171Z" fill="white"/>
<path d="M24.3764 53.2613C21.9378 54.5914 20.1089 54.3697 18.2245 52.3191C15.4534 49.3817 12.4052 46.7214 9.4678 43.9503C8.74731 43.2853 7.74971 42.6202 9.07985 41.5672C9.91118 40.9021 10.5208 39.9599 11.7955 41.2346C15.9522 45.3359 20.1643 49.2709 24.3764 53.2613Z" fill="white"/>
<path d="M124.358 30.3159C123.582 26.8243 123.638 23.3881 124.303 19.8965C124.303 23.3327 124.358 26.8243 124.358 30.3159Z" fill="white"/>
</svg>
