<svg width="227" height="88" viewBox="0 0 227 88" fill="none" xmlns="http://www.w3.org/2000/svg">
<path d="M41.4889 7.67297C42.3968 8.1563 43.4466 8.09944 44.4397 8.27004C58.824 10.8005 70.7116 22.7703 73.1514 37.2421C76.3007 55.8933 65.4345 73.18 47.3335 78.326C45.5744 78.8379 43.7588 79.1222 41.9712 79.3781C41.7444 79.4066 41.4322 79.2927 41.2904 79.6056C39.0207 79.6056 36.751 79.6056 34.4813 79.6056C33.9139 79.2076 33.233 79.2927 32.6088 79.2076C17.7422 77.1889 5.17369 65.0484 2.59189 50.2069C2.42166 49.2119 2.47841 48.1884 1.99609 47.2501C1.99609 44.8334 1.99609 42.4167 1.99609 40C2.42166 39.5735 2.30818 38.9765 2.36492 38.4646C4.46439 23.3105 16.3236 10.9711 31.4171 8.2416C32.3535 8.071 33.3748 8.12787 34.2543 7.64453C36.6658 7.67296 39.0774 7.67297 41.4889 7.67297ZM37.4886 22.685C36.7226 22.685 35.9282 22.5713 35.1906 22.7135C26.8211 23.9928 20.9765 28.5704 18.2529 36.6166C15.586 44.4922 17.3166 51.6571 22.9909 57.7698C23.7853 58.6228 23.6435 58.9355 22.849 59.561C20.4942 61.4092 18.1678 63.3426 15.8697 65.2474C14.5646 66.3279 14.7348 68.0338 16.125 68.6593C17.0613 69.0858 17.8273 68.7446 18.5366 68.1474C21.1183 66.0151 23.7569 63.8827 26.3388 61.7219C26.8778 61.267 27.2749 61.1817 27.9558 61.5514C32.7507 64.1102 37.8008 64.7357 43.0495 63.2287C58.1429 58.9072 63.0229 40.1137 52.0148 28.7125C51.3339 28.0017 51.419 27.7174 52.1284 27.1489C54.5115 25.2723 56.8379 23.3105 59.1644 21.3771C60.3843 20.3536 60.4411 18.9319 59.2779 18.1074C58.37 17.4536 57.4905 17.6526 56.6677 18.3349C54.0007 20.5241 51.3339 22.685 48.6953 24.9027C48.1563 25.3292 47.7874 25.386 47.1632 25.0448C44.1559 23.3958 40.9499 22.486 37.4886 22.685Z" fill="white"/>
<path d="M173.898 41.4769C173.075 44.2348 172.196 46.9643 171.43 49.7222C171.175 50.6035 170.806 50.831 169.926 50.831C167.061 50.7742 167.061 50.8027 166.21 48.1017C164.904 43.9506 163.599 39.7994 162.238 35.6484C162.011 34.9377 161.897 34.5112 162.918 34.5965C164.025 34.7102 165.444 34.2837 166.21 34.7955C167.004 35.3357 166.947 36.8426 167.259 37.9231C167.827 39.9133 168.366 41.932 168.933 43.9221C169.444 43.8653 169.387 43.4956 169.444 43.2681C170.238 40.6524 171.033 38.0082 171.77 35.3642C171.912 34.8239 172.139 34.6249 172.735 34.5965C175.941 34.5112 175.941 34.5112 176.849 37.6102C177.417 39.5153 177.956 41.4201 178.523 43.2966C178.608 43.581 178.608 43.9505 178.977 44.2348C179.8 41.2779 180.622 38.4064 181.36 35.5062C181.529 34.8239 181.814 34.5395 182.522 34.5965C183.431 34.6534 184.339 34.6534 185.276 34.5965C185.899 34.568 186.012 34.767 185.843 35.3357C184.253 40.2828 182.665 45.23 181.133 50.1772C180.99 50.6035 180.793 50.8027 180.367 50.7457C180.282 50.7457 180.224 50.7457 180.14 50.7457C179.09 50.7174 177.785 51.0585 177.047 50.5467C176.395 50.0919 176.338 48.6987 176.054 47.732C175.459 45.7702 174.863 43.8085 174.267 41.8466C174.239 41.7613 174.21 41.5623 173.898 41.4769Z" fill="white"/>
<path d="M211.886 49.1549C211.886 51.6569 211.858 53.9883 211.916 56.3197C211.944 57.1727 211.659 57.4002 210.865 57.3433C210.099 57.2863 209.333 57.2863 208.567 57.3433C207.859 57.4002 207.716 57.0873 207.716 56.4618C207.745 49.4676 207.745 42.4733 207.716 35.4791C207.716 34.8536 207.887 34.5978 208.512 34.6831C208.993 34.7399 209.447 34.6831 209.93 34.6831C211.659 34.6831 211.659 34.6831 212.057 36.19C216.512 33.4036 220.257 33.6879 222.951 37.0145C225.761 40.4832 225.675 45.6009 222.724 48.7852C219.859 51.8843 215.943 52.0549 211.886 49.1549ZM216.369 47.2784C218.952 47.2784 220.796 45.4019 220.824 42.7577C220.824 40.0852 218.952 38.1801 216.313 38.2086C213.76 38.2371 211.886 40.1705 211.916 42.7862C211.944 45.4304 213.788 47.2784 216.369 47.2784Z" fill="white"/>
<path d="M199.746 49.1561C196.455 52.3688 191.632 51.658 189.021 48.7296C186.043 45.4031 186.071 39.9725 189.077 36.6745C191.745 33.746 196.624 33.2058 199.66 36.2195C199.716 36.1912 199.83 36.1627 199.83 36.1343C200.001 34.6558 200.001 34.6558 201.505 34.6558C204.058 34.6558 204.058 34.6558 204.058 37.1862C204.058 41.3942 204.03 45.6021 204.086 49.81C204.086 50.6345 203.859 50.9473 203.065 50.8335C202.639 50.7766 202.185 50.8335 201.76 50.8335C200.001 50.8335 200.001 50.8335 199.746 49.1561ZM195.518 38.2099C192.879 38.1528 191.007 39.9442 190.95 42.5882C190.866 45.2609 192.653 47.2226 195.206 47.2796C197.901 47.3364 199.802 45.5168 199.859 42.8442C199.915 40.2 198.1 38.2667 195.518 38.2099Z" fill="white"/>
<path d="M110.204 44.4339C108.53 44.4339 106.828 44.4339 105.154 44.4339C104.842 44.4339 104.416 44.2634 104.246 44.5761C104.047 44.9172 104.359 45.2584 104.558 45.5712C105.806 47.6753 109.608 48.2154 111.566 46.4811C112.19 45.9409 112.559 45.9693 113.126 46.3673C113.467 46.5948 113.807 46.7654 114.176 46.9644C115.736 47.8743 115.736 47.8743 114.459 49.0968C111.991 51.4566 107.594 51.9685 104.189 50.2625C101.153 48.7556 99.4227 45.4291 99.7631 41.875C100.104 38.4917 101.721 36.0182 104.87 34.7956C107.991 33.6015 111.083 33.8858 113.665 36.2457C115.85 38.2642 116.531 40.823 116.332 43.7232C116.275 44.3487 115.963 44.4056 115.452 44.3771C113.722 44.4339 111.963 44.4339 110.204 44.4339ZM108.104 41.2495C109.268 41.2495 110.431 41.2212 111.594 41.2495C112.133 41.2495 112.19 41.079 112.048 40.5957C111.566 39.0035 110.034 37.9515 108.161 37.98C106.203 37.98 104.671 39.0318 104.161 40.5957C104.019 41.079 104.076 41.2495 104.615 41.2495C105.778 41.2212 106.941 41.2495 108.104 41.2495Z" fill="white"/>
<path d="M137.923 51.2592C133.128 51.2592 129.327 47.4493 129.383 42.7011C129.44 37.8962 133.128 34.2285 137.895 34.2285C142.661 34.2285 146.406 37.8962 146.435 42.6728C146.491 47.4776 142.746 51.2592 137.923 51.2592ZM142.264 42.7011C142.264 40.1422 140.335 38.2374 137.838 38.2657C135.398 38.2942 133.554 40.1991 133.526 42.7296C133.497 45.2885 135.398 47.2218 137.895 47.2218C140.42 47.1933 142.293 45.26 142.264 42.7011Z" fill="white"/>
<path d="M154.521 51.2597C151.967 51.2597 149.783 50.492 148.308 48.246C147.939 47.7058 147.825 47.3076 148.591 46.995C149.017 46.8243 149.443 46.5401 149.84 46.3126C150.719 45.7725 151.457 45.1469 152.308 46.5685C152.904 47.592 154.918 47.7626 156.053 47.2508C156.535 47.0235 156.819 46.7106 156.819 46.1705C156.847 45.6586 156.535 45.3174 156.138 45.1469C155.514 44.8626 154.833 44.6351 154.181 44.4361C153.329 44.1518 152.422 43.9243 151.599 43.5548C149.953 42.8154 148.705 41.7066 148.591 39.7164C148.478 37.6409 149.301 36.1055 151.088 35.082C154.039 33.3762 158.323 34.2007 160.337 36.8732C160.763 37.4419 160.791 37.783 160.053 38.0674C159.628 38.2379 159.202 38.4939 158.805 38.7497C157.954 39.3184 157.245 39.6879 156.393 38.5507C155.798 37.7545 154.691 37.8399 153.727 38.1242C153.244 38.2664 152.904 38.6075 152.847 39.1477C152.79 39.7164 153.131 40.0576 153.585 40.2566C154.294 40.5694 155.032 40.7967 155.741 41.0242C156.337 41.2232 156.933 41.3654 157.528 41.5644C160.025 42.4459 161.245 44.0664 161.132 46.3409C161.018 48.7008 159.543 50.3783 157.046 51.0323C156.223 51.2028 155.372 51.2882 154.521 51.2597Z" fill="white"/>
<path d="M92.4152 38.5781C90.6847 38.5781 88.9256 38.5213 87.1949 38.6065C86.3437 38.635 86.1169 38.3506 86.2019 37.5546C86.3155 36.6163 85.8047 35.3653 86.4289 34.8251C86.9679 34.3702 88.1595 34.6829 89.0675 34.6829C91.8479 34.6829 94.6282 34.7114 97.4086 34.6546C98.1179 34.6546 98.3165 34.8251 98.3449 35.5643C98.3732 36.7869 98.1464 37.8104 97.3519 38.8056C95.5928 41.0801 93.9473 43.4683 92.2735 45.8282C92.0747 46.1125 91.8762 46.4254 91.5357 46.9087C93.5217 46.9087 95.3375 46.9087 97.1533 46.9087C98.6287 46.9087 98.6287 46.9087 98.6287 48.3302C98.6287 50.8322 98.6287 50.8322 96.1602 50.8322C93.0111 50.8322 89.8618 50.8037 86.7126 50.8322C86.06 50.8322 85.8614 50.6901 85.8331 50.0077C85.7764 48.6999 86.06 47.6479 86.8829 46.5674C88.6703 44.2928 90.2874 41.9047 91.9613 39.5448C92.1599 39.289 92.4721 39.09 92.4152 38.5781Z" fill="white"/>
<path d="M123.624 36.8435C124.532 35.4503 125.809 34.6543 127.454 34.3983C128.107 34.2846 128.39 34.4268 128.362 35.1376C128.305 36.1611 128.334 37.1846 128.362 38.2082C128.39 38.7485 128.249 38.9475 127.653 38.9758C124.702 39.1748 123.482 40.4828 123.454 43.468C123.426 45.6289 123.426 47.7898 123.454 49.9506C123.454 50.6044 123.34 50.8888 122.631 50.832C121.752 50.7751 120.872 50.7751 119.992 50.832C119.397 50.8605 119.255 50.6329 119.255 50.0643C119.283 45.2024 119.283 40.3122 119.255 35.4503C119.255 34.8248 119.425 34.569 120.049 34.6543C120.305 34.6826 120.56 34.6543 120.815 34.6543C121.581 34.6543 122.432 34.4553 123.085 34.7111C123.908 35.0523 123.113 36.1043 123.624 36.8435Z" fill="white"/>
<path d="M27.134 30.4468C27.3325 30.7595 27.2191 31.1292 27.2191 31.4703C27.2191 35.1949 27.2476 38.9479 27.2191 42.6725C27.2191 43.6676 27.3043 44.6058 28.3256 45.1177C29.3754 45.6295 30.1981 45.1176 30.9924 44.4353C36.4114 39.9714 41.8587 35.5077 47.2777 31.0438C47.7316 30.6743 48.0438 30.3047 48.7247 30.9017C55.9593 37.2136 55.6756 50.0932 48.1287 56.0354C48.072 56.0639 47.9869 56.0639 47.8167 56.0923C47.8167 55.0973 47.8167 54.1306 47.8167 53.1639C47.8167 49.9795 47.8167 46.7952 47.8167 43.6108C47.8167 42.6725 47.6182 41.8479 46.7385 41.3931C45.7739 40.9098 44.9796 41.2793 44.242 41.9048C38.7663 46.4255 33.2621 50.9177 27.7866 55.4384C27.1624 55.9501 26.7935 56.0354 26.1693 55.4384C19.1616 48.9844 19.3886 36.7871 26.6517 30.6743C26.7935 30.5605 26.9069 30.39 27.134 30.4468Z" fill="white"/>
<path d="M43.9004 47.2793C43.9004 49.5253 43.9004 51.4872 43.9004 53.4489C43.9004 54.9559 43.9004 56.4627 43.9004 57.9696C43.9004 58.3392 43.9571 58.7087 43.503 58.8794C39.134 60.5569 34.8214 60.3863 30.3955 58.3676C34.9066 54.6715 39.3041 51.0607 43.9004 47.2793Z" fill="white"/>
<path d="M44.6103 28.2C43.22 29.3373 41.9434 30.4177 40.6384 31.4697C37.8012 33.801 34.9923 36.1041 32.1552 38.4071C31.8999 38.6061 31.6729 39.0041 31.3609 38.8904C30.992 38.7483 31.1623 38.3218 31.1623 38.0091C31.1623 34.9099 31.1623 31.7825 31.1623 28.6833C31.1623 28.2 31.1339 27.7735 31.758 27.5745C35.9854 26.0676 40.1276 26.1813 44.2414 27.9727C44.3265 28.001 44.4117 28.0863 44.6103 28.2Z" fill="white"/>
</svg>
